G04*
G04 #@! TF.GenerationSoftware,Altium Limited,Altium Designer,21.3.1 (25)*
G04*
G04 Layer_Physical_Order=1*
G04 Layer_Color=5855741*
%FSLAX25Y25*%
%MOIN*%
G70*
G04*
G04 #@! TF.SameCoordinates,17E3FC6B-7FA6-4A94-9312-BAE076C6F9B9*
G04*
G04*
G04 #@! TF.FilePolarity,Positive*
G04*
G01*
G75*
%ADD11C,0.00394*%
%ADD12C,0.00787*%
G04:AMPARAMS|DCode=13|XSize=31.5mil|YSize=27.56mil|CornerRadius=3.45mil|HoleSize=0mil|Usage=FLASHONLY|Rotation=270.000|XOffset=0mil|YOffset=0mil|HoleType=Round|Shape=RoundedRectangle|*
%AMROUNDEDRECTD13*
21,1,0.03150,0.02067,0,0,270.0*
21,1,0.02461,0.02756,0,0,270.0*
1,1,0.00689,-0.01034,-0.01230*
1,1,0.00689,-0.01034,0.01230*
1,1,0.00689,0.01034,0.01230*
1,1,0.00689,0.01034,-0.01230*
%
%ADD13ROUNDEDRECTD13*%
G04:AMPARAMS|DCode=14|XSize=20.47mil|YSize=20.47mil|CornerRadius=4.1mil|HoleSize=0mil|Usage=FLASHONLY|Rotation=270.000|XOffset=0mil|YOffset=0mil|HoleType=Round|Shape=RoundedRectangle|*
%AMROUNDEDRECTD14*
21,1,0.02047,0.01228,0,0,270.0*
21,1,0.01228,0.02047,0,0,270.0*
1,1,0.00819,-0.00614,-0.00614*
1,1,0.00819,-0.00614,0.00614*
1,1,0.00819,0.00614,0.00614*
1,1,0.00819,0.00614,-0.00614*
%
%ADD14ROUNDEDRECTD14*%
G04:AMPARAMS|DCode=15|XSize=20.47mil|YSize=20.47mil|CornerRadius=4.1mil|HoleSize=0mil|Usage=FLASHONLY|Rotation=180.000|XOffset=0mil|YOffset=0mil|HoleType=Round|Shape=RoundedRectangle|*
%AMROUNDEDRECTD15*
21,1,0.02047,0.01228,0,0,180.0*
21,1,0.01228,0.02047,0,0,180.0*
1,1,0.00819,-0.00614,0.00614*
1,1,0.00819,0.00614,0.00614*
1,1,0.00819,0.00614,-0.00614*
1,1,0.00819,-0.00614,-0.00614*
%
%ADD15ROUNDEDRECTD15*%
%ADD16C,0.00984*%
G04:AMPARAMS|DCode=17|XSize=11.81mil|YSize=31.5mil|CornerRadius=1.48mil|HoleSize=0mil|Usage=FLASHONLY|Rotation=0.000|XOffset=0mil|YOffset=0mil|HoleType=Round|Shape=RoundedRectangle|*
%AMROUNDEDRECTD17*
21,1,0.01181,0.02854,0,0,0.0*
21,1,0.00886,0.03150,0,0,0.0*
1,1,0.00295,0.00443,-0.01427*
1,1,0.00295,-0.00443,-0.01427*
1,1,0.00295,-0.00443,0.01427*
1,1,0.00295,0.00443,0.01427*
%
%ADD17ROUNDEDRECTD17*%
G04:AMPARAMS|DCode=18|XSize=23.62mil|YSize=39.37mil|CornerRadius=2.95mil|HoleSize=0mil|Usage=FLASHONLY|Rotation=0.000|XOffset=0mil|YOffset=0mil|HoleType=Round|Shape=RoundedRectangle|*
%AMROUNDEDRECTD18*
21,1,0.02362,0.03347,0,0,0.0*
21,1,0.01772,0.03937,0,0,0.0*
1,1,0.00591,0.00886,-0.01673*
1,1,0.00591,-0.00886,-0.01673*
1,1,0.00591,-0.00886,0.01673*
1,1,0.00591,0.00886,0.01673*
%
%ADD18ROUNDEDRECTD18*%
G04:AMPARAMS|DCode=32|XSize=39.37mil|YSize=78.74mil|CornerRadius=4.92mil|HoleSize=0mil|Usage=FLASHONLY|Rotation=225.000|XOffset=0mil|YOffset=0mil|HoleType=Round|Shape=RoundedRectangle|*
%AMROUNDEDRECTD32*
21,1,0.03937,0.06890,0,0,225.0*
21,1,0.02953,0.07874,0,0,225.0*
1,1,0.00984,-0.03480,0.01392*
1,1,0.00984,-0.01392,0.03480*
1,1,0.00984,0.03480,-0.01392*
1,1,0.00984,0.01392,-0.03480*
%
%ADD32ROUNDEDRECTD32*%
G04:AMPARAMS|DCode=33|XSize=39.37mil|YSize=78.74mil|CornerRadius=4.92mil|HoleSize=0mil|Usage=FLASHONLY|Rotation=315.000|XOffset=0mil|YOffset=0mil|HoleType=Round|Shape=RoundedRectangle|*
%AMROUNDEDRECTD33*
21,1,0.03937,0.06890,0,0,315.0*
21,1,0.02953,0.07874,0,0,315.0*
1,1,0.00984,-0.01392,-0.03480*
1,1,0.00984,-0.03480,-0.01392*
1,1,0.00984,0.01392,0.03480*
1,1,0.00984,0.03480,0.01392*
%
%ADD33ROUNDEDRECTD33*%
%ADD34C,0.10000*%
G04:AMPARAMS|DCode=35|XSize=39.37mil|YSize=78.74mil|CornerRadius=4.92mil|HoleSize=0mil|Usage=FLASHONLY|Rotation=0.000|XOffset=0mil|YOffset=0mil|HoleType=Round|Shape=RoundedRectangle|*
%AMROUNDEDRECTD35*
21,1,0.03937,0.06890,0,0,0.0*
21,1,0.02953,0.07874,0,0,0.0*
1,1,0.00984,0.01476,-0.03445*
1,1,0.00984,-0.01476,-0.03445*
1,1,0.00984,-0.01476,0.03445*
1,1,0.00984,0.01476,0.03445*
%
%ADD35ROUNDEDRECTD35*%
G04:AMPARAMS|DCode=36|XSize=39.37mil|YSize=78.74mil|CornerRadius=4.92mil|HoleSize=0mil|Usage=FLASHONLY|Rotation=90.000|XOffset=0mil|YOffset=0mil|HoleType=Round|Shape=RoundedRectangle|*
%AMROUNDEDRECTD36*
21,1,0.03937,0.06890,0,0,90.0*
21,1,0.02953,0.07874,0,0,90.0*
1,1,0.00984,0.03445,0.01476*
1,1,0.00984,0.03445,-0.01476*
1,1,0.00984,-0.03445,-0.01476*
1,1,0.00984,-0.03445,0.01476*
%
%ADD36ROUNDEDRECTD36*%
%ADD37C,0.03937*%
%ADD38C,0.01575*%
%ADD39C,0.00984*%
%ADD40C,0.01181*%
%ADD41C,0.01968*%
%ADD42C,0.01772*%
%ADD43C,0.01575*%
G36*
X529946Y746002D02*
X530257Y745402D01*
X530101Y745169D01*
X529987Y744593D01*
X530101Y744017D01*
X530428Y743528D01*
X530916Y743202D01*
X531492Y743088D01*
X532068Y743202D01*
X532557Y743528D01*
X532883Y744017D01*
X532998Y744593D01*
X532883Y745169D01*
X532727Y745402D01*
X533038Y746002D01*
X547406Y746002D01*
Y720002D01*
X547405Y579002D01*
X547393Y578265D01*
X547583Y576803D01*
X548055Y575408D01*
X548791Y574131D01*
X549761Y573022D01*
X550929Y572123D01*
X552250Y571470D01*
X553673Y571087D01*
X554406Y571002D01*
X576172Y571002D01*
X576468Y570402D01*
X576134Y569968D01*
X575698Y568914D01*
X575549Y567784D01*
X575698Y566653D01*
X576134Y565600D01*
X576829Y564695D01*
X577733Y564001D01*
X578787Y563565D01*
X579917Y563416D01*
X581048Y563565D01*
X582101Y564001D01*
X582806Y564541D01*
X583406Y564278D01*
Y544354D01*
X582851Y544124D01*
X579069Y547906D01*
X578581Y548233D01*
X578005Y548347D01*
X577429Y548233D01*
X576940Y547906D01*
X574853Y545818D01*
X574526Y545330D01*
X574412Y544754D01*
X574526Y544178D01*
X574853Y543690D01*
X579724Y538818D01*
X580213Y538491D01*
X580789Y538377D01*
X581365Y538491D01*
X581853Y538818D01*
X582851Y539816D01*
X583406Y539586D01*
Y533218D01*
X582851Y532989D01*
X581575Y534265D01*
X581086Y534592D01*
X580510Y534706D01*
X579934Y534592D01*
X579446Y534265D01*
X574574Y529393D01*
X574248Y528905D01*
X574133Y528329D01*
X574248Y527753D01*
X574574Y527265D01*
X576662Y525177D01*
X577150Y524850D01*
X577726Y524736D01*
X578302Y524850D01*
X578791Y525177D01*
X582851Y529237D01*
X583406Y529007D01*
X583406Y382002D01*
X570390Y382002D01*
X570142Y382602D01*
X574810Y387270D01*
X575136Y387758D01*
X575250Y388334D01*
X575136Y388911D01*
X574810Y389399D01*
X572722Y391487D01*
X572233Y391813D01*
X571657Y391928D01*
X571081Y391813D01*
X570593Y391487D01*
X565721Y386615D01*
X565395Y386127D01*
X565280Y385551D01*
X565395Y384975D01*
X565721Y384486D01*
X567605Y382602D01*
X567356Y382002D01*
X559255Y382002D01*
X559006Y382602D01*
X560890Y384486D01*
X561216Y384975D01*
X561331Y385551D01*
X561216Y386127D01*
X560890Y386615D01*
X556018Y391487D01*
X555530Y391813D01*
X554954Y391928D01*
X554378Y391813D01*
X553890Y391487D01*
X551802Y389399D01*
X551475Y388911D01*
X551361Y388334D01*
X551475Y387758D01*
X551802Y387270D01*
X556469Y382602D01*
X556221Y382002D01*
X540816Y382002D01*
X540816Y382002D01*
X540036Y381964D01*
X538506Y381660D01*
X537065Y381063D01*
X535768Y380196D01*
X534665Y379093D01*
X533798Y377796D01*
X533201Y376354D01*
X532897Y374824D01*
X532858Y374044D01*
Y370002D01*
X527476D01*
X527368Y370318D01*
X527317Y370602D01*
X527980Y371466D01*
X528416Y372520D01*
X528565Y373650D01*
X528416Y374781D01*
X527980Y375834D01*
X527286Y376739D01*
X526381Y377433D01*
X525327Y377870D01*
X524197Y378018D01*
X523066Y377870D01*
X522013Y377433D01*
X521108Y376739D01*
X520414Y375834D01*
X519978Y374781D01*
X519829Y373650D01*
X519978Y372520D01*
X520414Y371466D01*
X521077Y370602D01*
X521026Y370318D01*
X520918Y370002D01*
X515929D01*
X515929Y374044D01*
X515929Y374044D01*
X515929Y374044D01*
X515891Y374824D01*
X515586Y376354D01*
X514989Y377796D01*
X514123Y379093D01*
X513020Y380196D01*
X511722Y381063D01*
X510281Y381660D01*
X508751Y381964D01*
X507971Y382002D01*
X492590Y382002D01*
X492342Y382602D01*
X497010Y387270D01*
X497336Y387758D01*
X497450Y388334D01*
X497336Y388911D01*
X497010Y389399D01*
X494922Y391487D01*
X494433Y391813D01*
X493857Y391928D01*
X493281Y391813D01*
X492793Y391487D01*
X487921Y386615D01*
X487595Y386127D01*
X487480Y385551D01*
X487595Y384975D01*
X487921Y384486D01*
X489805Y382602D01*
X489556Y382002D01*
X481455Y382002D01*
X481206Y382602D01*
X483090Y384486D01*
X483416Y384975D01*
X483531Y385551D01*
X483416Y386127D01*
X483090Y386615D01*
X478218Y391487D01*
X477730Y391813D01*
X477154Y391928D01*
X476578Y391813D01*
X476089Y391487D01*
X474002Y389399D01*
X473675Y388911D01*
X473561Y388334D01*
X473675Y387758D01*
X474002Y387270D01*
X478669Y382602D01*
X478421Y382002D01*
X465406Y382002D01*
Y528482D01*
X465960Y528712D01*
X468429Y526242D01*
X467981Y525794D01*
X467633Y525273D01*
X467511Y524659D01*
X467511Y524659D01*
Y524233D01*
X467473Y524044D01*
X467595Y523430D01*
X467943Y522909D01*
X468464Y522561D01*
X469079Y522438D01*
X469693Y522561D01*
X470214Y522909D01*
X470252Y522946D01*
X470600Y523467D01*
X470700Y523972D01*
X471272Y524544D01*
X471414Y524572D01*
X471902Y524898D01*
X473990Y526986D01*
X474316Y527475D01*
X474431Y528051D01*
X474316Y528627D01*
X473990Y529115D01*
X469118Y533987D01*
X468630Y534313D01*
X468054Y534428D01*
X467478Y534313D01*
X466990Y533987D01*
X465960Y532957D01*
X465406Y533187D01*
Y539618D01*
X465960Y539847D01*
X466990Y538818D01*
X467478Y538491D01*
X468054Y538377D01*
X468630Y538491D01*
X469118Y538818D01*
X473990Y543690D01*
X474316Y544178D01*
X474431Y544754D01*
X474316Y545330D01*
X473990Y545818D01*
X471902Y547906D01*
X471414Y548233D01*
X470838Y548347D01*
X470735Y548933D01*
X471230Y549031D01*
X471718Y549358D01*
X472044Y549846D01*
X472159Y550422D01*
X472044Y550998D01*
X471718Y551486D01*
X471230Y551813D01*
X470654Y551927D01*
X470078Y551813D01*
X469589Y551486D01*
X469263Y550998D01*
X469148Y550422D01*
X469263Y549846D01*
X469589Y549358D01*
X470078Y549031D01*
X470654Y548917D01*
X470757Y548331D01*
X470262Y548233D01*
X469773Y547906D01*
X465960Y544093D01*
X465406Y544322D01*
Y726914D01*
X466006Y727177D01*
X466710Y726637D01*
X467763Y726200D01*
X468894Y726052D01*
X470024Y726200D01*
X471078Y726637D01*
X471982Y727331D01*
X472677Y728236D01*
X473113Y729289D01*
X473262Y730420D01*
X473113Y731550D01*
X472677Y732604D01*
X472064Y733402D01*
X472235Y734002D01*
X483506D01*
X487967Y729541D01*
X487967Y729541D01*
X488519Y729012D01*
X489764Y728129D01*
X491157Y727506D01*
X492646Y727167D01*
X494172Y727125D01*
X495677Y727381D01*
X497102Y727926D01*
X498394Y728739D01*
X499503Y729788D01*
X500386Y731034D01*
X501009Y732428D01*
X501347Y733916D01*
X501405Y734678D01*
X501406Y746002D01*
X529946Y746002D01*
D02*
G37*
%LPC*%
G36*
X511498Y743387D02*
X509431D01*
X508989Y743299D01*
X508615Y743049D01*
X508365Y742674D01*
X508277Y742233D01*
Y740757D01*
X507955Y740476D01*
X507677Y740414D01*
X507534Y740560D01*
Y742233D01*
X507446Y742674D01*
X507196Y743049D01*
X506822Y743299D01*
X506380Y743387D01*
X504313D01*
X503871Y743299D01*
X503497Y743049D01*
X503247Y742674D01*
X503159Y742233D01*
Y739772D01*
X503247Y739330D01*
X503497Y738956D01*
X503871Y738706D01*
X504313Y738618D01*
X504592D01*
X504802Y738304D01*
X505947Y737158D01*
X506468Y736810D01*
X507083Y736688D01*
X507697Y736810D01*
X508218Y737158D01*
X508566Y737679D01*
X508671Y738204D01*
X508757Y738340D01*
X509228Y738658D01*
X509431Y738618D01*
X511498D01*
X511940Y738706D01*
X512314Y738956D01*
X512564Y739330D01*
X512577Y739397D01*
X513906D01*
X514520Y739519D01*
X515041Y739867D01*
X515389Y740388D01*
X515511Y741002D01*
X515389Y741617D01*
X515041Y742138D01*
X514520Y742486D01*
X513906Y742608D01*
X512577D01*
X512564Y742674D01*
X512314Y743049D01*
X511940Y743299D01*
X511498Y743387D01*
D02*
G37*
G36*
X522880D02*
X520813D01*
X520371Y743299D01*
X519997Y743049D01*
X519747Y742674D01*
X519659Y742233D01*
Y739772D01*
X519747Y739330D01*
X519997Y738956D01*
X520082Y738899D01*
Y738483D01*
X520044Y738294D01*
X520166Y737679D01*
X520514Y737158D01*
X521035Y736810D01*
X521650Y736688D01*
X522264Y736810D01*
X522785Y737158D01*
X522823Y737196D01*
X523171Y737717D01*
X523293Y738331D01*
X523322Y738706D01*
X523696Y738956D01*
X523946Y739330D01*
X524034Y739772D01*
Y742233D01*
X523946Y742674D01*
X523696Y743049D01*
X523322Y743299D01*
X522880Y743387D01*
D02*
G37*
G36*
X527998D02*
X525931D01*
X525490Y743299D01*
X525115Y743049D01*
X524865Y742674D01*
X524777Y742233D01*
Y739772D01*
X524865Y739330D01*
X525115Y738956D01*
X525490Y738706D01*
X525931Y738618D01*
X526401D01*
X528396Y736623D01*
X528396Y736623D01*
X528982Y736231D01*
X529673Y736094D01*
X530365Y736231D01*
X530950Y736623D01*
X531342Y737209D01*
X531480Y737900D01*
X531342Y738591D01*
X530950Y739177D01*
X529152Y740976D01*
Y742233D01*
X529064Y742674D01*
X528814Y743049D01*
X528440Y743299D01*
X527998Y743387D01*
D02*
G37*
G36*
X539921Y743291D02*
X539422Y743192D01*
X539421Y743191D01*
X538202D01*
X537742Y743099D01*
X537351Y742838D01*
X536548Y742036D01*
X536219Y741970D01*
X535731Y741644D01*
X535405Y741155D01*
X535290Y740580D01*
X535405Y740003D01*
X535731Y739515D01*
X536219Y739189D01*
X536795Y739074D01*
X537371Y739189D01*
X537860Y739515D01*
X538017Y739750D01*
X538617Y739568D01*
Y735860D01*
X538238Y735481D01*
X537873Y735409D01*
X537353Y735061D01*
X537138Y734740D01*
X536892Y734494D01*
X536544Y733973D01*
X536422Y733358D01*
X536422Y733358D01*
Y732362D01*
X536314Y732290D01*
X536050Y731894D01*
X535957Y731427D01*
Y730199D01*
X536050Y729732D01*
X536057Y729340D01*
X534186Y727469D01*
X533857Y727403D01*
X533369Y727077D01*
X533042Y726589D01*
X532928Y726013D01*
X533042Y725436D01*
X533369Y724948D01*
X533857Y724622D01*
X534433Y724507D01*
X535009Y724622D01*
X535498Y724948D01*
X535824Y725436D01*
X535889Y725766D01*
X537408Y727284D01*
X539273D01*
X539273Y727284D01*
X539734Y727376D01*
X540124Y727637D01*
X541297Y728809D01*
X541297Y728809D01*
X541558Y729200D01*
X541563Y729226D01*
X542225Y729477D01*
X542420Y729346D01*
X542996Y729232D01*
X543572Y729346D01*
X544061Y729672D01*
X544387Y730161D01*
X544501Y730737D01*
X544387Y731313D01*
X544061Y731801D01*
X543572Y732128D01*
X542996Y732242D01*
X542781Y732199D01*
X542485Y732752D01*
X542741Y733008D01*
X542741Y733008D01*
X543002Y733399D01*
X543094Y733860D01*
Y739517D01*
X543095Y739519D01*
X543194Y740018D01*
X543095Y740517D01*
X542812Y740941D01*
X542389Y741223D01*
X541890Y741323D01*
X541652Y741275D01*
X541179Y741748D01*
X541226Y741987D01*
X541127Y742486D01*
X540844Y742909D01*
X540420Y743192D01*
X539921Y743291D01*
D02*
G37*
G36*
X542732Y726108D02*
X542156Y725993D01*
X541668Y725667D01*
X541341Y725179D01*
X541227Y724603D01*
X541341Y724026D01*
X541668Y723538D01*
X542156Y723212D01*
X542732Y723097D01*
X543308Y723212D01*
X543796Y723538D01*
X544123Y724026D01*
X544237Y724603D01*
X544123Y725179D01*
X543796Y725667D01*
X543308Y725993D01*
X542732Y726108D01*
D02*
G37*
G36*
X482673Y724838D02*
X482097Y724724D01*
X481609Y724397D01*
X481283Y723909D01*
X481168Y723333D01*
X481283Y722757D01*
X481609Y722269D01*
X482097Y721942D01*
X482673Y721828D01*
X483249Y721942D01*
X483738Y722269D01*
X484064Y722757D01*
X484179Y723333D01*
X484064Y723909D01*
X483738Y724397D01*
X483249Y724724D01*
X482673Y724838D01*
D02*
G37*
G36*
X510024Y724762D02*
X509448Y724647D01*
X508959Y724321D01*
X508633Y723833D01*
X508518Y723257D01*
X508633Y722681D01*
X508959Y722192D01*
X509448Y721866D01*
X510024Y721751D01*
X510600Y721866D01*
X511088Y722192D01*
X511414Y722681D01*
X511529Y723257D01*
X511414Y723833D01*
X511088Y724321D01*
X510600Y724647D01*
X510024Y724762D01*
D02*
G37*
G36*
X506480Y720038D02*
X505904Y719923D01*
X505416Y719597D01*
X505090Y719108D01*
X504975Y718532D01*
X505090Y717956D01*
X505416Y717468D01*
X505904Y717141D01*
X506480Y717027D01*
X507056Y717141D01*
X507545Y717468D01*
X507871Y717956D01*
X507986Y718532D01*
X507871Y719108D01*
X507545Y719597D01*
X507056Y719923D01*
X506480Y720038D01*
D02*
G37*
G36*
X543917Y720364D02*
X542689D01*
X542222Y720271D01*
X541826Y720007D01*
X541562Y719611D01*
X541469Y719144D01*
Y717959D01*
X541429Y717900D01*
X541337Y717439D01*
X541337Y717439D01*
Y717322D01*
X541321Y717311D01*
X541159Y717068D01*
X540598Y716809D01*
X540379Y716802D01*
X539945Y716888D01*
X539369Y716773D01*
X538880Y716447D01*
X538802Y716330D01*
X538482Y716342D01*
X538141Y716420D01*
X537860Y716841D01*
X537371Y717167D01*
X536795Y717282D01*
X536219Y717167D01*
X535796Y716884D01*
X535576Y716820D01*
X535258D01*
X535039Y716884D01*
X534616Y717167D01*
X534039Y717282D01*
X533463Y717167D01*
X532975Y716841D01*
X532649Y716352D01*
X532534Y715776D01*
X532649Y715200D01*
X532835Y714921D01*
Y714758D01*
X532562Y714576D01*
X532298Y714180D01*
X532205Y713713D01*
Y712485D01*
X532298Y712018D01*
X532562Y711622D01*
Y711269D01*
X532298Y710873D01*
X532205Y710406D01*
Y709178D01*
X532298Y708711D01*
X532562Y708315D01*
X532958Y708050D01*
X533425Y707958D01*
X534654D01*
X535121Y708050D01*
X535381Y708225D01*
X535847D01*
X536108Y708050D01*
X536575Y707958D01*
X537803D01*
X538270Y708050D01*
X538531Y708225D01*
X538997D01*
X539127Y708138D01*
Y707509D01*
X539249Y706894D01*
X539597Y706373D01*
X540118Y706025D01*
X540732Y705903D01*
X541347Y706025D01*
X541868Y706373D01*
X542216Y706894D01*
X542327Y707455D01*
X542359Y707526D01*
X542874Y707958D01*
X544102D01*
X544569Y708050D01*
X544965Y708315D01*
X545230Y708711D01*
X545323Y709178D01*
Y710406D01*
X545230Y710873D01*
X544965Y711269D01*
Y711622D01*
X545230Y712018D01*
X545323Y712485D01*
Y713713D01*
X545230Y714180D01*
X544965Y714576D01*
X544581Y714833D01*
Y714989D01*
X544489Y715450D01*
X544228Y715840D01*
X544228Y715840D01*
X543957Y716112D01*
X543953Y716177D01*
X544045Y716721D01*
X544384Y716788D01*
X544780Y717053D01*
X545045Y717449D01*
X545138Y717916D01*
Y719144D01*
X545045Y719611D01*
X544780Y720007D01*
X544384Y720271D01*
X543917Y720364D01*
D02*
G37*
G36*
X479799Y719051D02*
X479223Y718936D01*
X478735Y718610D01*
X478408Y718122D01*
X478294Y717546D01*
X478408Y716970D01*
X478735Y716481D01*
X479223Y716155D01*
X479799Y716040D01*
X480375Y716155D01*
X480864Y716481D01*
X481190Y716970D01*
X481305Y717546D01*
X481190Y718122D01*
X480864Y718610D01*
X480375Y718936D01*
X479799Y719051D01*
D02*
G37*
G36*
X520075Y717358D02*
X519499Y717243D01*
X519010Y716917D01*
X518684Y716429D01*
X518570Y715853D01*
X518683Y715283D01*
X518683Y715274D01*
X518503Y714911D01*
X517830Y714772D01*
X517613Y714917D01*
X517580Y715349D01*
X517561Y715442D01*
X517643Y715853D01*
X517528Y716429D01*
X517202Y716917D01*
X516714Y717243D01*
X516138Y717358D01*
X515562Y717243D01*
X515073Y716917D01*
X515060Y716897D01*
X514460D01*
X514446Y716917D01*
X513958Y717243D01*
X513382Y717358D01*
X512806Y717243D01*
X512318Y716917D01*
X511991Y716429D01*
X511877Y715853D01*
X511958Y715442D01*
X511940Y715349D01*
X511907Y714917D01*
X511511Y714653D01*
X511247Y714257D01*
X511154Y713790D01*
Y712561D01*
X511235Y712153D01*
X511216Y712049D01*
X510887Y711553D01*
X510626D01*
X510012Y711431D01*
X509491Y711083D01*
X509143Y710562D01*
X509020Y709947D01*
X509143Y709333D01*
X509491Y708812D01*
X510012Y708464D01*
X510626Y708342D01*
X511586D01*
X511907Y708127D01*
X512374Y708034D01*
X513602D01*
X514069Y708127D01*
X514273Y708263D01*
X515247D01*
X515450Y708127D01*
X515917Y708034D01*
X517146D01*
X517613Y708127D01*
X517816Y708263D01*
X518790D01*
X518994Y708127D01*
X519461Y708034D01*
X520689D01*
X521156Y708127D01*
X521552Y708391D01*
X521816Y708787D01*
X521909Y709254D01*
Y710483D01*
X521816Y710950D01*
X521552Y711345D01*
Y711698D01*
X521816Y712094D01*
X521909Y712561D01*
Y713790D01*
X521816Y714257D01*
X521552Y714653D01*
X521279Y714835D01*
Y714998D01*
X521465Y715277D01*
X521580Y715853D01*
X521465Y716429D01*
X521139Y716917D01*
X520651Y717243D01*
X520075Y717358D01*
D02*
G37*
G36*
X525587Y715783D02*
X525011Y715669D01*
X524522Y715342D01*
X524196Y714854D01*
X524081Y714278D01*
X524196Y713702D01*
X524522Y713213D01*
X525011Y712887D01*
X525587Y712773D01*
X526163Y712887D01*
X526651Y713213D01*
X526977Y713702D01*
X527092Y714278D01*
X526977Y714854D01*
X526651Y715342D01*
X526163Y715669D01*
X525587Y715783D01*
D02*
G37*
G36*
X478921Y712557D02*
X478345Y712443D01*
X477857Y712116D01*
X477531Y711628D01*
X477416Y711052D01*
X477531Y710476D01*
X477857Y709987D01*
X478345Y709661D01*
X478921Y709547D01*
X479497Y709661D01*
X479986Y709987D01*
X480312Y710476D01*
X480427Y711052D01*
X480312Y711628D01*
X479986Y712116D01*
X479497Y712443D01*
X478921Y712557D01*
D02*
G37*
G36*
X472251Y711750D02*
X471675Y711635D01*
X471187Y711309D01*
X470860Y710820D01*
X470746Y710244D01*
X470860Y709668D01*
X471187Y709180D01*
X471675Y708854D01*
X472251Y708739D01*
X472827Y708854D01*
X473315Y709180D01*
X473642Y709668D01*
X473756Y710244D01*
X473642Y710820D01*
X473315Y711309D01*
X472827Y711635D01*
X472251Y711750D01*
D02*
G37*
G36*
X496912Y710523D02*
X496336Y710409D01*
X495848Y710082D01*
X495521Y709594D01*
X495407Y709018D01*
X495521Y708442D01*
X495848Y707954D01*
X496336Y707627D01*
X496912Y707513D01*
X497488Y707627D01*
X497976Y707954D01*
X498303Y708442D01*
X498417Y709018D01*
X498303Y709594D01*
X497976Y710082D01*
X497488Y710409D01*
X496912Y710523D01*
D02*
G37*
G36*
X520703Y705839D02*
X520127Y705725D01*
X519639Y705398D01*
X519312Y704910D01*
X519198Y704334D01*
X519312Y703758D01*
X519639Y703270D01*
X520127Y702943D01*
X520703Y702829D01*
X521279Y702943D01*
X521768Y703270D01*
X522094Y703758D01*
X522208Y704334D01*
X522094Y704910D01*
X521768Y705398D01*
X521279Y705725D01*
X520703Y705839D01*
D02*
G37*
G36*
X530656Y705825D02*
X530080Y705711D01*
X529591Y705384D01*
X529265Y704896D01*
X529150Y704320D01*
X529265Y703744D01*
X529591Y703255D01*
X530080Y702929D01*
X530656Y702814D01*
X531232Y702929D01*
X531720Y703255D01*
X532046Y703744D01*
X532161Y704320D01*
X532046Y704896D01*
X531720Y705384D01*
X531232Y705711D01*
X530656Y705825D01*
D02*
G37*
G36*
X525445Y705799D02*
X524869Y705685D01*
X524381Y705359D01*
X524055Y704870D01*
X523940Y704294D01*
X524055Y703718D01*
X524381Y703230D01*
X524869Y702903D01*
X525445Y702789D01*
X526021Y702903D01*
X526510Y703230D01*
X526836Y703718D01*
X526951Y704294D01*
X526836Y704870D01*
X526510Y705359D01*
X526021Y705685D01*
X525445Y705799D01*
D02*
G37*
G36*
X512595Y705941D02*
X512018Y705826D01*
X511530Y705500D01*
X511204Y705011D01*
X511089Y704435D01*
X511204Y703859D01*
X511530Y703371D01*
X512018Y703045D01*
X512595Y702930D01*
X513171Y703045D01*
X513659Y703371D01*
X513692Y703421D01*
X513727Y703433D01*
X514386Y703379D01*
X514558Y703122D01*
X515046Y702796D01*
X515622Y702681D01*
X516198Y702796D01*
X516687Y703122D01*
X517013Y703611D01*
X517128Y704187D01*
X517013Y704763D01*
X516687Y705251D01*
X516198Y705578D01*
X515622Y705692D01*
X515046Y705578D01*
X514558Y705251D01*
X514525Y705202D01*
X514490Y705189D01*
X513831Y705243D01*
X513659Y705500D01*
X513171Y705826D01*
X512595Y705941D01*
D02*
G37*
G36*
X541520Y705077D02*
X540944Y704962D01*
X540455Y704636D01*
X540129Y704148D01*
X540014Y703572D01*
X540129Y702995D01*
X540455Y702507D01*
X540944Y702181D01*
X541520Y702066D01*
X542096Y702181D01*
X542584Y702507D01*
X542910Y702995D01*
X543025Y703572D01*
X542910Y704148D01*
X542584Y704636D01*
X542096Y704962D01*
X541520Y705077D01*
D02*
G37*
G36*
X482673Y704366D02*
X482097Y704251D01*
X481609Y703925D01*
X481283Y703437D01*
X481168Y702861D01*
X481283Y702284D01*
X481609Y701796D01*
X482097Y701470D01*
X482673Y701355D01*
X483249Y701470D01*
X483738Y701796D01*
X484064Y702284D01*
X484179Y702861D01*
X484064Y703437D01*
X483738Y703925D01*
X483249Y704251D01*
X482673Y704366D01*
D02*
G37*
G36*
X528156Y702477D02*
X527579Y702362D01*
X527091Y702036D01*
X526765Y701547D01*
X526650Y700971D01*
X526765Y700395D01*
X527091Y699907D01*
X527579Y699581D01*
X528156Y699466D01*
X528732Y699581D01*
X529220Y699907D01*
X529546Y700395D01*
X529661Y700971D01*
X529546Y701547D01*
X529220Y702036D01*
X528732Y702362D01*
X528156Y702477D01*
D02*
G37*
G36*
X523224Y702397D02*
X522648Y702283D01*
X522160Y701957D01*
X521834Y701468D01*
X521719Y700892D01*
X521834Y700316D01*
X522160Y699828D01*
X522648Y699501D01*
X523224Y699387D01*
X523801Y699501D01*
X524289Y699828D01*
X524615Y700316D01*
X524730Y700892D01*
X524615Y701468D01*
X524289Y701957D01*
X523801Y702283D01*
X523224Y702397D01*
D02*
G37*
G36*
X518106D02*
X517530Y702283D01*
X517042Y701957D01*
X516716Y701468D01*
X516601Y700892D01*
X516716Y700316D01*
X517042Y699828D01*
X517530Y699501D01*
X518106Y699387D01*
X518682Y699501D01*
X519171Y699828D01*
X519497Y700316D01*
X519612Y700892D01*
X519497Y701468D01*
X519171Y701957D01*
X518682Y702283D01*
X518106Y702397D01*
D02*
G37*
G36*
X482280Y700035D02*
X481704Y699921D01*
X481215Y699594D01*
X480889Y699106D01*
X480774Y698530D01*
X480889Y697954D01*
X481215Y697466D01*
X481704Y697139D01*
X482280Y697025D01*
X482856Y697139D01*
X483344Y697466D01*
X483670Y697954D01*
X483785Y698530D01*
X483670Y699106D01*
X483344Y699594D01*
X482856Y699921D01*
X482280Y700035D01*
D02*
G37*
G36*
X539858Y699461D02*
X538868Y699264D01*
X538027Y698702D01*
X537466Y697862D01*
X537269Y696872D01*
X537466Y695881D01*
X538027Y695041D01*
X538868Y694480D01*
X539858Y694282D01*
X540849Y694480D01*
X541689Y695041D01*
X542250Y695881D01*
X542447Y696872D01*
X542250Y697862D01*
X541689Y698702D01*
X540849Y699264D01*
X539858Y699461D01*
D02*
G37*
G36*
X508953D02*
X507962Y699264D01*
X507122Y698702D01*
X506561Y697862D01*
X506364Y696872D01*
X506561Y695881D01*
X507122Y695041D01*
X507962Y694480D01*
X508953Y694282D01*
X509944Y694480D01*
X510784Y695041D01*
X511345Y695881D01*
X511542Y696872D01*
X511345Y697862D01*
X510784Y698702D01*
X509944Y699264D01*
X508953Y699461D01*
D02*
G37*
G36*
X489658Y695535D02*
X489082Y695421D01*
X488593Y695094D01*
X488267Y694606D01*
X488153Y694030D01*
X488267Y693454D01*
X488593Y692966D01*
X489082Y692639D01*
X489658Y692525D01*
X490234Y692639D01*
X490722Y692966D01*
X491049Y693454D01*
X491163Y694030D01*
X491049Y694606D01*
X490722Y695094D01*
X490234Y695421D01*
X489658Y695535D01*
D02*
G37*
G36*
X543488Y690410D02*
X542951Y690303D01*
X542495Y689998D01*
X542190Y689542D01*
X542083Y689005D01*
X542190Y688467D01*
X542495Y688011D01*
X542951Y687707D01*
X543488Y687600D01*
X544026Y687707D01*
X544482Y688011D01*
X544786Y688467D01*
X544893Y689005D01*
X544786Y689542D01*
X544482Y689998D01*
X544026Y690303D01*
X543488Y690410D01*
D02*
G37*
G36*
X535220Y690116D02*
X534645Y690002D01*
X534156Y689675D01*
X533830Y689187D01*
X533715Y688611D01*
X533830Y688035D01*
X534156Y687547D01*
X534645Y687220D01*
X535220Y687106D01*
X535797Y687220D01*
X536285Y687547D01*
X536611Y688035D01*
X536726Y688611D01*
X536611Y689187D01*
X536285Y689675D01*
X535797Y690002D01*
X535220Y690116D01*
D02*
G37*
G36*
X518500Y686256D02*
X517924Y686141D01*
X517436Y685815D01*
X517109Y685326D01*
X516995Y684750D01*
X517109Y684174D01*
X517436Y683686D01*
X517924Y683360D01*
X518500Y683245D01*
X519076Y683360D01*
X519564Y683686D01*
X519891Y684174D01*
X520005Y684750D01*
X519891Y685326D01*
X519564Y685815D01*
X519076Y686141D01*
X518500Y686256D01*
D02*
G37*
G36*
X490732Y685785D02*
X490156Y685671D01*
X489668Y685345D01*
X489342Y684856D01*
X489227Y684280D01*
X489342Y683704D01*
X489668Y683216D01*
X490156Y682890D01*
X490732Y682775D01*
X491308Y682890D01*
X491797Y683216D01*
X492123Y683704D01*
X492238Y684280D01*
X492123Y684856D01*
X491797Y685345D01*
X491308Y685671D01*
X490732Y685785D01*
D02*
G37*
G36*
X507934Y685630D02*
X507358Y685515D01*
X506870Y685189D01*
X506543Y684701D01*
X506429Y684125D01*
X506543Y683549D01*
X506870Y683060D01*
X507358Y682734D01*
X507934Y682619D01*
X508510Y682734D01*
X508998Y683060D01*
X509325Y683549D01*
X509439Y684125D01*
X509325Y684701D01*
X508998Y685189D01*
X508510Y685515D01*
X507934Y685630D01*
D02*
G37*
G36*
X471421Y682055D02*
X470845Y681940D01*
X470357Y681614D01*
X470031Y681125D01*
X469916Y680549D01*
X470031Y679973D01*
X470357Y679485D01*
X470845Y679159D01*
X471421Y679044D01*
X471997Y679159D01*
X472486Y679485D01*
X472812Y679973D01*
X472927Y680549D01*
X472812Y681125D01*
X472486Y681614D01*
X471997Y681940D01*
X471421Y682055D01*
D02*
G37*
G36*
X539157Y681748D02*
X538620Y681641D01*
X538164Y681337D01*
X537859Y680881D01*
X537753Y680343D01*
X537859Y679806D01*
X538164Y679350D01*
X538620Y679045D01*
X539157Y678938D01*
X539695Y679045D01*
X540151Y679350D01*
X540455Y679806D01*
X540562Y680343D01*
X540455Y680881D01*
X540151Y681337D01*
X539695Y681641D01*
X539157Y681748D01*
D02*
G37*
G36*
X534642Y681925D02*
X534066Y681810D01*
X533577Y681484D01*
X533251Y680996D01*
X533137Y680420D01*
X533251Y679844D01*
X533577Y679355D01*
X534066Y679029D01*
X534642Y678914D01*
X535218Y679029D01*
X535706Y679355D01*
X536032Y679844D01*
X536147Y680420D01*
X536032Y680996D01*
X535706Y681484D01*
X535218Y681810D01*
X534642Y681925D01*
D02*
G37*
G36*
X534827Y677811D02*
X534289Y677704D01*
X533833Y677400D01*
X533529Y676944D01*
X533422Y676406D01*
X533529Y675869D01*
X533833Y675413D01*
X534289Y675108D01*
X534827Y675001D01*
X535364Y675108D01*
X535820Y675413D01*
X536125Y675869D01*
X536232Y676406D01*
X536125Y676944D01*
X535820Y677400D01*
X535364Y677704D01*
X534827Y677811D01*
D02*
G37*
G36*
X530138Y677794D02*
X529562Y677679D01*
X529074Y677353D01*
X528748Y676864D01*
X528633Y676288D01*
X528748Y675712D01*
X529074Y675224D01*
X529562Y674898D01*
X530138Y674783D01*
X530715Y674898D01*
X531203Y675224D01*
X531529Y675712D01*
X531644Y676288D01*
X531529Y676864D01*
X531203Y677353D01*
X530715Y677679D01*
X530138Y677794D01*
D02*
G37*
G36*
X507870Y677594D02*
X507294Y677480D01*
X506806Y677153D01*
X506479Y676665D01*
X506365Y676089D01*
X506479Y675513D01*
X506806Y675025D01*
X507294Y674698D01*
X507870Y674584D01*
X508446Y674698D01*
X508934Y675025D01*
X509261Y675513D01*
X509375Y676089D01*
X509261Y676665D01*
X508934Y677153D01*
X508446Y677480D01*
X507870Y677594D01*
D02*
G37*
G36*
X518685Y670431D02*
X518109Y670317D01*
X517621Y669990D01*
X517294Y669502D01*
X517180Y668926D01*
X517294Y668350D01*
X517621Y667862D01*
X518109Y667535D01*
X518685Y667421D01*
X519261Y667535D01*
X519749Y667862D01*
X520076Y668350D01*
X520190Y668926D01*
X520076Y669502D01*
X519749Y669990D01*
X519261Y670317D01*
X518685Y670431D01*
D02*
G37*
G36*
X514563Y668539D02*
X513987Y668425D01*
X513499Y668098D01*
X513172Y667610D01*
X513058Y667034D01*
X513172Y666458D01*
X513499Y665969D01*
X513987Y665643D01*
X514563Y665528D01*
X515139Y665643D01*
X515627Y665969D01*
X515954Y666458D01*
X516068Y667034D01*
X515954Y667610D01*
X515627Y668098D01*
X515139Y668425D01*
X514563Y668539D01*
D02*
G37*
G36*
X522228Y668069D02*
X521652Y667954D01*
X521164Y667628D01*
X520838Y667140D01*
X520723Y666564D01*
X520838Y665988D01*
X521164Y665499D01*
X521652Y665173D01*
X522228Y665058D01*
X522804Y665173D01*
X523293Y665499D01*
X523619Y665988D01*
X523734Y666564D01*
X523619Y667140D01*
X523293Y667628D01*
X522804Y667954D01*
X522228Y668069D01*
D02*
G37*
G36*
X533252Y666888D02*
X532676Y666773D01*
X532188Y666447D01*
X531861Y665959D01*
X531747Y665383D01*
X531861Y664807D01*
X532188Y664318D01*
X532676Y663992D01*
X533252Y663877D01*
X533828Y663992D01*
X534316Y664318D01*
X534643Y664807D01*
X534757Y665383D01*
X534643Y665959D01*
X534316Y666447D01*
X533828Y666773D01*
X533252Y666888D01*
D02*
G37*
G36*
X490770Y666063D02*
X490194Y665948D01*
X489706Y665622D01*
X489379Y665134D01*
X489265Y664558D01*
X489379Y663981D01*
X489706Y663493D01*
X490194Y663167D01*
X490770Y663052D01*
X491346Y663167D01*
X491834Y663493D01*
X492161Y663981D01*
X492275Y664558D01*
X492161Y665134D01*
X491834Y665622D01*
X491346Y665948D01*
X490770Y666063D01*
D02*
G37*
G36*
X469681Y664208D02*
X469105Y664094D01*
X468617Y663767D01*
X468290Y663279D01*
X468176Y662703D01*
X468290Y662127D01*
X468617Y661639D01*
X469105Y661312D01*
X469681Y661198D01*
X470257Y661312D01*
X470746Y661639D01*
X471072Y662127D01*
X471186Y662703D01*
X471072Y663279D01*
X470746Y663767D01*
X470257Y664094D01*
X469681Y664208D01*
D02*
G37*
G36*
X543488Y662063D02*
X542951Y661956D01*
X542495Y661652D01*
X542190Y661196D01*
X542083Y660658D01*
X542190Y660121D01*
X542495Y659665D01*
X542951Y659360D01*
X543488Y659253D01*
X544026Y659360D01*
X544482Y659665D01*
X544786Y660121D01*
X544893Y660658D01*
X544786Y661196D01*
X544482Y661652D01*
X544026Y661956D01*
X543488Y662063D01*
D02*
G37*
G36*
X539551D02*
X539014Y661956D01*
X538558Y661652D01*
X538253Y661196D01*
X538146Y660658D01*
X538253Y660121D01*
X538558Y659665D01*
X539014Y659360D01*
X539551Y659253D01*
X540089Y659360D01*
X540545Y659665D01*
X540849Y660121D01*
X540956Y660658D01*
X540849Y661196D01*
X540545Y661652D01*
X540089Y661956D01*
X539551Y662063D01*
D02*
G37*
G36*
X474421Y660681D02*
X473845Y660566D01*
X473357Y660240D01*
X473031Y659752D01*
X472916Y659175D01*
X473031Y658600D01*
X473357Y658111D01*
X473845Y657785D01*
X474421Y657670D01*
X474997Y657785D01*
X475486Y658111D01*
X475812Y658600D01*
X475927Y659175D01*
X475812Y659752D01*
X475486Y660240D01*
X474997Y660566D01*
X474421Y660681D01*
D02*
G37*
G36*
X471835Y653502D02*
X471259Y653387D01*
X470770Y653061D01*
X470444Y652573D01*
X470329Y651997D01*
X470444Y651421D01*
X470770Y650932D01*
X471259Y650606D01*
X471835Y650492D01*
X472411Y650606D01*
X472899Y650932D01*
X473225Y651421D01*
X473340Y651997D01*
X473225Y652573D01*
X472899Y653061D01*
X472411Y653387D01*
X471835Y653502D01*
D02*
G37*
G36*
X531099Y639405D02*
X530522Y639291D01*
X530034Y638964D01*
X529708Y638476D01*
X529593Y637900D01*
X529708Y637324D01*
X530034Y636835D01*
X530522Y636509D01*
X531099Y636395D01*
X531674Y636509D01*
X532163Y636835D01*
X532489Y637324D01*
X532604Y637900D01*
X532489Y638476D01*
X532163Y638964D01*
X531674Y639291D01*
X531099Y639405D01*
D02*
G37*
G36*
X468685Y638935D02*
X468109Y638821D01*
X467621Y638494D01*
X467294Y638006D01*
X467180Y637430D01*
X467294Y636854D01*
X467621Y636366D01*
X468109Y636039D01*
X468685Y635925D01*
X469261Y636039D01*
X469749Y636366D01*
X470076Y636854D01*
X470190Y637430D01*
X470076Y638006D01*
X469749Y638494D01*
X469261Y638821D01*
X468685Y638935D01*
D02*
G37*
G36*
X490833Y638185D02*
X490257Y638071D01*
X489768Y637745D01*
X489442Y637256D01*
X489327Y636680D01*
X489442Y636104D01*
X489768Y635616D01*
X490257Y635289D01*
X490833Y635175D01*
X491409Y635289D01*
X491897Y635616D01*
X492224Y636104D01*
X492338Y636680D01*
X492224Y637256D01*
X491897Y637745D01*
X491409Y638071D01*
X490833Y638185D01*
D02*
G37*
G36*
X488370Y629780D02*
X487832Y629673D01*
X487377Y629368D01*
X487072Y628912D01*
X486965Y628375D01*
X487072Y627837D01*
X487377Y627381D01*
X487832Y627077D01*
X488370Y626970D01*
X488908Y627077D01*
X489364Y627381D01*
X489668Y627837D01*
X489775Y628375D01*
X489668Y628912D01*
X489364Y629368D01*
X488908Y629673D01*
X488370Y629780D01*
D02*
G37*
G36*
X528232Y626534D02*
X527656Y626419D01*
X527168Y626093D01*
X527162Y626084D01*
X526706D01*
X526706Y626084D01*
X526245Y625993D01*
X525855Y625732D01*
X525369Y625246D01*
X524775Y625501D01*
X524754Y625609D01*
X524579Y625869D01*
X524319Y626043D01*
X524012Y626104D01*
X517821D01*
X517673Y626075D01*
X517525Y626048D01*
X517520Y626044D01*
X517514Y626043D01*
X517389Y625959D01*
X517262Y625877D01*
X517258Y625872D01*
X517254Y625869D01*
X517170Y625744D01*
X517084Y625619D01*
X517083Y625614D01*
X517080Y625609D01*
X517050Y625460D01*
X517019Y625313D01*
X516995Y623656D01*
X516996Y623648D01*
X516995Y623640D01*
X517025Y623494D01*
X517052Y623348D01*
X517056Y623341D01*
X517058Y623333D01*
X517141Y623210D01*
X517222Y623085D01*
X517229Y623080D01*
X517233Y623074D01*
X517805Y622508D01*
X517869Y622466D01*
X517924Y622411D01*
X518054Y622324D01*
X518095Y622263D01*
X518088Y622229D01*
Y619374D01*
X518161Y619009D01*
X518367Y618700D01*
X518677Y618494D01*
X519041Y618421D01*
X519927D01*
X520292Y618494D01*
X520441Y618593D01*
X520496D01*
X520645Y618494D01*
X521010Y618421D01*
X521896D01*
X522261Y618494D01*
X522410Y618593D01*
X522465D01*
X522614Y618494D01*
X522978Y618421D01*
X523864D01*
X524229Y618494D01*
X524406Y618611D01*
X524582Y618494D01*
X524947Y618421D01*
X525833D01*
X526154Y618157D01*
Y614850D01*
X526154Y614850D01*
X526246Y614389D01*
X526507Y613998D01*
X526640Y613865D01*
X526629Y613808D01*
X526743Y613232D01*
X527070Y612743D01*
X527558Y612417D01*
X528134Y612302D01*
X528710Y612417D01*
X528900Y612544D01*
X529500Y612224D01*
Y611196D01*
X529314Y610917D01*
X529200Y610341D01*
X529314Y609765D01*
X529640Y609276D01*
X530129Y608950D01*
X530705Y608836D01*
X531281Y608950D01*
X531769Y609276D01*
X532095Y609765D01*
X532210Y610341D01*
X532095Y610917D01*
X531909Y611196D01*
Y612208D01*
X532509Y612529D01*
X532676Y612417D01*
X533252Y612302D01*
X533828Y612417D01*
X534316Y612743D01*
X534643Y613232D01*
X534757Y613808D01*
X534643Y614384D01*
X534406Y614738D01*
Y615432D01*
X534407Y615432D01*
X534670Y615753D01*
X535153D01*
X535432Y615567D01*
X536008Y615452D01*
X536584Y615567D01*
X537072Y615893D01*
X537399Y616381D01*
X537513Y616957D01*
X537399Y617533D01*
X537072Y618022D01*
X536584Y618348D01*
X536008Y618463D01*
X535432Y618348D01*
X535153Y618162D01*
X534823D01*
X534468Y618517D01*
Y618831D01*
X534587Y619009D01*
X534660Y619374D01*
Y622229D01*
X534587Y622593D01*
X534381Y622903D01*
X534072Y623109D01*
X533707Y623182D01*
X532821D01*
X532456Y623109D01*
X532280Y622992D01*
X532103Y623109D01*
X531738Y623182D01*
X530852D01*
X530488Y623109D01*
X530311Y622992D01*
X530135Y623109D01*
X529770Y623182D01*
X529207D01*
X529025Y623782D01*
X529297Y623964D01*
X529623Y624452D01*
X529738Y625028D01*
X529623Y625604D01*
X529297Y626093D01*
X528808Y626419D01*
X528232Y626534D01*
D02*
G37*
G36*
X481319Y626337D02*
X480743Y626222D01*
X480254Y625896D01*
X479928Y625408D01*
X479813Y624831D01*
X479928Y624255D01*
X480254Y623767D01*
X480743Y623441D01*
X481319Y623326D01*
X481895Y623441D01*
X482383Y623767D01*
X482709Y624255D01*
X482824Y624831D01*
X482709Y625408D01*
X482383Y625896D01*
X481895Y626222D01*
X481319Y626337D01*
D02*
G37*
G36*
X542594Y620114D02*
X542019Y619999D01*
X541530Y619673D01*
X541204Y619185D01*
X541089Y618609D01*
X541204Y618033D01*
X541530Y617544D01*
X542019Y617218D01*
X542594Y617103D01*
X543171Y617218D01*
X543659Y617544D01*
X543985Y618033D01*
X544100Y618609D01*
X543985Y619185D01*
X543659Y619673D01*
X543171Y619999D01*
X542594Y620114D01*
D02*
G37*
G36*
X495457Y594053D02*
X494881Y593939D01*
X494392Y593612D01*
X494066Y593124D01*
X493951Y592548D01*
X494066Y591972D01*
X494392Y591484D01*
X494881Y591157D01*
X495457Y591043D01*
X496033Y591157D01*
X496521Y591484D01*
X496847Y591972D01*
X496962Y592548D01*
X496847Y593124D01*
X496521Y593612D01*
X496033Y593939D01*
X495457Y594053D01*
D02*
G37*
G36*
X489823Y594638D02*
X489108Y594544D01*
X488442Y594268D01*
X487870Y593829D01*
X487431Y593257D01*
X487155Y592591D01*
X487061Y591876D01*
X487155Y591161D01*
X487431Y590495D01*
X487870Y589923D01*
X488442Y589485D01*
X489108Y589209D01*
X489823Y589115D01*
X490538Y589209D01*
X491204Y589485D01*
X491776Y589923D01*
X492215Y590495D01*
X492491Y591161D01*
X492585Y591876D01*
X492491Y592591D01*
X492215Y593257D01*
X491776Y593829D01*
X491204Y594268D01*
X490538Y594544D01*
X489823Y594638D01*
D02*
G37*
G36*
X481823D02*
X481108Y594544D01*
X480442Y594268D01*
X479870Y593829D01*
X479431Y593257D01*
X479155Y592591D01*
X479061Y591876D01*
X479155Y591161D01*
X479431Y590495D01*
X479870Y589923D01*
X480442Y589485D01*
X481108Y589209D01*
X481823Y589115D01*
X482538Y589209D01*
X483204Y589485D01*
X483776Y589923D01*
X484215Y590495D01*
X484491Y591161D01*
X484585Y591876D01*
X484491Y592591D01*
X484215Y593257D01*
X483776Y593829D01*
X483204Y594268D01*
X482538Y594544D01*
X481823Y594638D01*
D02*
G37*
G36*
X495823Y589886D02*
X494397Y589698D01*
X493068Y589148D01*
X491927Y588272D01*
X491051Y587131D01*
X490501Y585802D01*
X490313Y584376D01*
X490501Y582950D01*
X491051Y581622D01*
X491927Y580480D01*
X493068Y579605D01*
X494397Y579054D01*
X495823Y578867D01*
X497249Y579054D01*
X498578Y579605D01*
X499719Y580480D01*
X500594Y581622D01*
X501145Y582950D01*
X501333Y584376D01*
X501145Y585802D01*
X500594Y587131D01*
X499719Y588272D01*
X498578Y589148D01*
X497249Y589698D01*
X495823Y589886D01*
D02*
G37*
G36*
X475823D02*
X474397Y589698D01*
X473068Y589148D01*
X471927Y588272D01*
X471051Y587131D01*
X470501Y585802D01*
X470313Y584376D01*
X470501Y582950D01*
X471051Y581622D01*
X471927Y580480D01*
X473068Y579605D01*
X474397Y579054D01*
X475823Y578867D01*
X477249Y579054D01*
X478578Y579605D01*
X479719Y580480D01*
X480594Y581622D01*
X481145Y582950D01*
X481333Y584376D01*
X481145Y585802D01*
X480594Y587131D01*
X479719Y588272D01*
X478578Y589148D01*
X477249Y589698D01*
X475823Y589886D01*
D02*
G37*
G36*
X519473Y581258D02*
X518896Y581143D01*
X518408Y580817D01*
X518082Y580329D01*
X517967Y579753D01*
X518082Y579177D01*
X518408Y578688D01*
X518896Y578362D01*
X519473Y578247D01*
X520049Y578362D01*
X520537Y578688D01*
X520863Y579177D01*
X520978Y579753D01*
X520863Y580329D01*
X520537Y580817D01*
X520049Y581143D01*
X519473Y581258D01*
D02*
G37*
G36*
X502358Y577594D02*
X501782Y577480D01*
X501294Y577153D01*
X500968Y576665D01*
X500853Y576089D01*
X500968Y575513D01*
X501294Y575025D01*
X501782Y574698D01*
X502358Y574584D01*
X502934Y574698D01*
X503423Y575025D01*
X503749Y575513D01*
X503864Y576089D01*
X503749Y576665D01*
X503423Y577153D01*
X502934Y577480D01*
X502358Y577594D01*
D02*
G37*
G36*
X517898Y577518D02*
X517322Y577403D01*
X516833Y577077D01*
X516507Y576589D01*
X516392Y576013D01*
X516507Y575436D01*
X516833Y574948D01*
X517322Y574622D01*
X517898Y574507D01*
X518474Y574622D01*
X518962Y574948D01*
X519288Y575436D01*
X519403Y576013D01*
X519288Y576589D01*
X518962Y577077D01*
X518474Y577403D01*
X517898Y577518D01*
D02*
G37*
G36*
X476859Y575232D02*
X476283Y575117D01*
X475795Y574791D01*
X475468Y574303D01*
X475354Y573727D01*
X475468Y573151D01*
X475795Y572662D01*
X476283Y572336D01*
X476859Y572221D01*
X477435Y572336D01*
X477924Y572662D01*
X478250Y573151D01*
X478365Y573727D01*
X478250Y574303D01*
X477924Y574791D01*
X477435Y575117D01*
X476859Y575232D01*
D02*
G37*
G36*
X515929Y573876D02*
X515353Y573762D01*
X514865Y573435D01*
X514538Y572947D01*
X514424Y572371D01*
X514538Y571795D01*
X514865Y571306D01*
X515353Y570980D01*
X515929Y570865D01*
X516505Y570980D01*
X516994Y571306D01*
X517320Y571795D01*
X517435Y572371D01*
X517320Y572947D01*
X516994Y573435D01*
X516505Y573762D01*
X515929Y573876D01*
D02*
G37*
G36*
X545457Y573581D02*
X544881Y573466D01*
X544392Y573140D01*
X544066Y572652D01*
X543951Y572076D01*
X544066Y571499D01*
X544392Y571011D01*
X544881Y570685D01*
X545457Y570570D01*
X546033Y570685D01*
X546521Y571011D01*
X546847Y571499D01*
X546962Y572076D01*
X546847Y572652D01*
X546521Y573140D01*
X546033Y573466D01*
X545457Y573581D01*
D02*
G37*
G36*
X492122Y571689D02*
X491546Y571574D01*
X491058Y571248D01*
X490731Y570759D01*
X490617Y570183D01*
X490731Y569607D01*
X491058Y569119D01*
X491546Y568793D01*
X492122Y568678D01*
X492698Y568793D01*
X493187Y569119D01*
X493513Y569607D01*
X493627Y570183D01*
X493513Y570759D01*
X493187Y571248D01*
X492698Y571574D01*
X492122Y571689D01*
D02*
G37*
G36*
X481087Y570136D02*
X480511Y570021D01*
X480022Y569695D01*
X479696Y569207D01*
X479581Y568631D01*
X479696Y568055D01*
X480022Y567566D01*
X480511Y567240D01*
X481087Y567125D01*
X481663Y567240D01*
X482151Y567566D01*
X482477Y568055D01*
X482592Y568631D01*
X482477Y569207D01*
X482151Y569695D01*
X481663Y570021D01*
X481087Y570136D01*
D02*
G37*
G36*
X502752Y570114D02*
X502176Y569999D01*
X501688Y569673D01*
X501361Y569185D01*
X501247Y568609D01*
X501361Y568033D01*
X501688Y567544D01*
X502176Y567218D01*
X502752Y567103D01*
X503328Y567218D01*
X503816Y567544D01*
X504143Y568033D01*
X504257Y568609D01*
X504143Y569185D01*
X503816Y569673D01*
X503328Y569999D01*
X502752Y570114D01*
D02*
G37*
G36*
X549787Y569644D02*
X549211Y569529D01*
X548723Y569203D01*
X548397Y568715D01*
X548282Y568139D01*
X548397Y567562D01*
X548723Y567074D01*
X549211Y566748D01*
X549787Y566633D01*
X550363Y566748D01*
X550852Y567074D01*
X551178Y567562D01*
X551293Y568139D01*
X551178Y568715D01*
X550852Y569203D01*
X550363Y569529D01*
X549787Y569644D01*
D02*
G37*
G36*
X525378Y569250D02*
X524802Y569136D01*
X524314Y568809D01*
X523987Y568321D01*
X523873Y567745D01*
X523987Y567169D01*
X524314Y566680D01*
X524802Y566354D01*
X525378Y566240D01*
X525954Y566354D01*
X526442Y566680D01*
X526769Y567169D01*
X526883Y567745D01*
X526769Y568321D01*
X526442Y568809D01*
X525954Y569136D01*
X525378Y569250D01*
D02*
G37*
G36*
X562310Y567490D02*
X561733Y567376D01*
X561245Y567049D01*
X560919Y566561D01*
X560804Y565985D01*
X560919Y565409D01*
X561245Y564921D01*
X561733Y564594D01*
X562310Y564480D01*
X562886Y564594D01*
X563374Y564921D01*
X563700Y565409D01*
X563815Y565985D01*
X563700Y566561D01*
X563374Y567049D01*
X562886Y567376D01*
X562310Y567490D01*
D02*
G37*
G36*
X566717Y566888D02*
X566141Y566773D01*
X565652Y566447D01*
X565326Y565959D01*
X565211Y565383D01*
X565326Y564807D01*
X565652Y564318D01*
X566141Y563992D01*
X566717Y563877D01*
X567293Y563992D01*
X567781Y564318D01*
X568107Y564807D01*
X568222Y565383D01*
X568107Y565959D01*
X567781Y566447D01*
X567293Y566773D01*
X566717Y566888D01*
D02*
G37*
G36*
X559236Y564919D02*
X558660Y564805D01*
X558172Y564478D01*
X557846Y563990D01*
X557731Y563414D01*
X557846Y562838D01*
X558172Y562350D01*
X558660Y562023D01*
X559236Y561909D01*
X559812Y562023D01*
X560301Y562350D01*
X560627Y562838D01*
X560742Y563414D01*
X560627Y563990D01*
X560301Y564478D01*
X559812Y564805D01*
X559236Y564919D01*
D02*
G37*
G36*
X547425Y562557D02*
X546849Y562443D01*
X546361Y562116D01*
X546034Y561628D01*
X545920Y561052D01*
X546034Y560476D01*
X546243Y560165D01*
X545916Y559618D01*
X545668Y559667D01*
X545091Y559553D01*
X544603Y559226D01*
X544277Y558738D01*
X544162Y558162D01*
X544277Y557586D01*
X544603Y557098D01*
X545091Y556771D01*
X545668Y556657D01*
X546244Y556771D01*
X546732Y557098D01*
X547058Y557586D01*
X547173Y558162D01*
X547058Y558738D01*
X546850Y559049D01*
X547176Y559596D01*
X547425Y559547D01*
X548001Y559661D01*
X548490Y559987D01*
X548816Y560476D01*
X548931Y561052D01*
X548816Y561628D01*
X548490Y562116D01*
X548001Y562443D01*
X547425Y562557D01*
D02*
G37*
G36*
X485823Y564638D02*
X485108Y564544D01*
X484442Y564268D01*
X483870Y563829D01*
X483431Y563257D01*
X483155Y562591D01*
X483061Y561876D01*
X483155Y561162D01*
X483431Y560495D01*
X483870Y559923D01*
X484442Y559484D01*
X485108Y559209D01*
X485823Y559115D01*
X486538Y559209D01*
X487204Y559484D01*
X487776Y559923D01*
X488215Y560495D01*
X488491Y561162D01*
X488585Y561876D01*
X488491Y562591D01*
X488215Y563257D01*
X487776Y563829D01*
X487204Y564268D01*
X486538Y564544D01*
X485823Y564638D01*
D02*
G37*
G36*
X529973Y568347D02*
X529397Y568233D01*
X528909Y567906D01*
X526821Y565818D01*
X526495Y565330D01*
X526380Y564754D01*
X526495Y564178D01*
X526821Y563690D01*
X531693Y558818D01*
X532181Y558491D01*
X532757Y558377D01*
X533333Y558491D01*
X533822Y558818D01*
X535910Y560906D01*
X536236Y561394D01*
X536350Y561970D01*
X536236Y562546D01*
X535910Y563034D01*
X531038Y567906D01*
X530549Y568233D01*
X529973Y568347D01*
D02*
G37*
G36*
X515929Y569744D02*
X515315Y569622D01*
X514794Y569274D01*
X514446Y568753D01*
X514324Y568139D01*
X514446Y567524D01*
X514794Y567003D01*
X514794Y567003D01*
X515832Y565965D01*
X512902Y563034D01*
X512575Y562546D01*
X512461Y561970D01*
X512575Y561394D01*
X512902Y560906D01*
X514990Y558818D01*
X515478Y558491D01*
X516054Y558377D01*
X516630Y558491D01*
X517118Y558818D01*
X521990Y563690D01*
X522316Y564178D01*
X522431Y564754D01*
X522316Y565330D01*
X521990Y565818D01*
X519902Y567906D01*
X519414Y568233D01*
X518838Y568347D01*
X518262Y568233D01*
X518168Y568170D01*
X517065Y569274D01*
X516544Y569622D01*
X516442Y569642D01*
X515929Y569744D01*
D02*
G37*
G36*
X539896Y560884D02*
X539320Y560769D01*
X538831Y560443D01*
X538505Y559955D01*
X538390Y559379D01*
X538505Y558803D01*
X538831Y558314D01*
X539320Y557988D01*
X539896Y557873D01*
X540472Y557988D01*
X540960Y558314D01*
X541286Y558803D01*
X541401Y559379D01*
X541286Y559955D01*
X540960Y560443D01*
X540472Y560769D01*
X539896Y560884D01*
D02*
G37*
G36*
X495823Y567386D02*
X494397Y567198D01*
X493068Y566648D01*
X491927Y565772D01*
X491051Y564631D01*
X490501Y563302D01*
X490313Y561876D01*
X490501Y560450D01*
X491051Y559122D01*
X491927Y557980D01*
X493068Y557105D01*
X494397Y556554D01*
X495823Y556367D01*
X497249Y556554D01*
X498578Y557105D01*
X499719Y557980D01*
X500594Y559122D01*
X501145Y560450D01*
X501333Y561876D01*
X501145Y563302D01*
X500594Y564631D01*
X499719Y565772D01*
X498578Y566648D01*
X497249Y567198D01*
X495823Y567386D01*
D02*
G37*
G36*
X475823D02*
X474397Y567198D01*
X473068Y566648D01*
X471927Y565772D01*
X471051Y564631D01*
X470501Y563302D01*
X470313Y561876D01*
X470501Y560450D01*
X471051Y559122D01*
X471927Y557980D01*
X473068Y557105D01*
X474397Y556554D01*
X475823Y556367D01*
X477249Y556554D01*
X478578Y557105D01*
X479719Y557980D01*
X480594Y559122D01*
X481145Y560450D01*
X481333Y561876D01*
X481145Y563302D01*
X480594Y564631D01*
X479719Y565772D01*
X478578Y566648D01*
X477249Y567198D01*
X475823Y567386D01*
D02*
G37*
G36*
X502740Y558325D02*
X502164Y558210D01*
X501676Y557884D01*
X501349Y557396D01*
X501235Y556820D01*
X501349Y556244D01*
X501676Y555755D01*
X502164Y555429D01*
X502740Y555314D01*
X503316Y555429D01*
X503805Y555755D01*
X504131Y556244D01*
X504246Y556820D01*
X504131Y557396D01*
X503805Y557884D01*
X503316Y558210D01*
X502740Y558325D01*
D02*
G37*
G36*
X510516Y557242D02*
X509940Y557128D01*
X509451Y556801D01*
X509125Y556313D01*
X509011Y555737D01*
X509125Y555161D01*
X509451Y554672D01*
X509940Y554346D01*
X510516Y554232D01*
X511092Y554346D01*
X511580Y554672D01*
X511906Y555161D01*
X512021Y555737D01*
X511906Y556313D01*
X511580Y556801D01*
X511092Y557128D01*
X510516Y557242D01*
D02*
G37*
G36*
X547819Y556258D02*
X547243Y556143D01*
X546755Y555817D01*
X546428Y555329D01*
X546314Y554753D01*
X546428Y554177D01*
X546749Y553696D01*
X546678Y553321D01*
X546564Y553094D01*
X546062Y552994D01*
X545573Y552668D01*
X545247Y552179D01*
X545132Y551603D01*
X545247Y551027D01*
X545573Y550539D01*
X546062Y550212D01*
X546638Y550098D01*
X547214Y550212D01*
X547702Y550539D01*
X548029Y551027D01*
X548143Y551603D01*
X548029Y552179D01*
X547707Y552660D01*
X547779Y553035D01*
X547892Y553262D01*
X548395Y553362D01*
X548883Y553688D01*
X549210Y554177D01*
X549324Y554753D01*
X549210Y555329D01*
X548883Y555817D01*
X548395Y556143D01*
X547819Y556258D01*
D02*
G37*
G36*
X475378Y551927D02*
X474802Y551813D01*
X474314Y551486D01*
X473987Y550998D01*
X473873Y550422D01*
X473987Y549846D01*
X474314Y549358D01*
X474802Y549031D01*
X475378Y548917D01*
X475954Y549031D01*
X476442Y549358D01*
X476769Y549846D01*
X476883Y550422D01*
X476769Y550998D01*
X476442Y551486D01*
X475954Y551813D01*
X475378Y551927D01*
D02*
G37*
G36*
X547850Y549227D02*
X540961D01*
X540385Y549112D01*
X539896Y548786D01*
X539570Y548297D01*
X539455Y547721D01*
Y544768D01*
X539570Y544192D01*
X539896Y543704D01*
X540385Y543378D01*
X540961Y543263D01*
X547850D01*
X548426Y543378D01*
X548915Y543704D01*
X549241Y544192D01*
X549356Y544768D01*
Y544788D01*
X549956Y545281D01*
X549984Y545275D01*
X550560Y545390D01*
X551049Y545716D01*
X551375Y546204D01*
X551490Y546780D01*
X551375Y547356D01*
X551049Y547845D01*
X550560Y548171D01*
X549984Y548285D01*
X549408Y548171D01*
X549018Y548632D01*
X548915Y548786D01*
X548426Y549112D01*
X547850Y549227D01*
D02*
G37*
G36*
X556874Y548089D02*
X556298Y547974D01*
X555810Y547648D01*
X555483Y547159D01*
X555369Y546583D01*
X555483Y546007D01*
X555810Y545519D01*
X556298Y545193D01*
X556874Y545078D01*
X557450Y545193D01*
X557938Y545519D01*
X558265Y546007D01*
X558379Y546583D01*
X558265Y547159D01*
X557938Y547648D01*
X557450Y547974D01*
X556874Y548089D01*
D02*
G37*
G36*
X563567Y549860D02*
X562991Y549746D01*
X562503Y549419D01*
X562176Y548931D01*
X562062Y548355D01*
X562176Y547779D01*
X562503Y547291D01*
X562991Y546964D01*
X563567Y546850D01*
X563982Y546932D01*
X564303Y546405D01*
X562934Y545035D01*
X562381Y545331D01*
X562415Y545501D01*
X562300Y546077D01*
X561974Y546565D01*
X561485Y546891D01*
X560910Y547006D01*
X560333Y546891D01*
X559845Y546565D01*
X559519Y546077D01*
X559404Y545501D01*
X559519Y544925D01*
X559845Y544436D01*
X560333Y544110D01*
X560910Y543995D01*
X561079Y544029D01*
X561375Y543476D01*
X560933Y543035D01*
X560607Y542546D01*
X560492Y541970D01*
X560607Y541394D01*
X560888Y540973D01*
X560918Y540845D01*
X560766Y540224D01*
X560534Y540069D01*
X560208Y539581D01*
X560093Y539005D01*
X560208Y538429D01*
X560534Y537940D01*
X561022Y537614D01*
X561598Y537499D01*
X562175Y537614D01*
X562663Y537940D01*
X562845Y538213D01*
X563509Y538491D01*
X564085Y538377D01*
X564661Y538491D01*
X565150Y538818D01*
X570022Y543690D01*
X570348Y544178D01*
X570463Y544754D01*
X570348Y545330D01*
X570022Y545818D01*
X567934Y547906D01*
X567445Y548233D01*
X566869Y548347D01*
X566293Y548233D01*
X565805Y547906D01*
X565517Y547618D01*
X564990Y547939D01*
X565072Y548355D01*
X564958Y548931D01*
X564631Y549419D01*
X564143Y549746D01*
X563567Y549860D01*
D02*
G37*
G36*
X516332Y554706D02*
X515756Y554592D01*
X515268Y554265D01*
X513180Y552177D01*
X512854Y551689D01*
X512739Y551113D01*
X512854Y550537D01*
X513180Y550048D01*
X518052Y545177D01*
X518540Y544850D01*
X519116Y544736D01*
X519692Y544850D01*
X520181Y545177D01*
X522268Y547265D01*
X522595Y547753D01*
X522709Y548329D01*
X522595Y548905D01*
X522268Y549393D01*
X517397Y554265D01*
X516908Y554592D01*
X516332Y554706D01*
D02*
G37*
G36*
X532757Y554428D02*
X532181Y554313D01*
X531693Y553987D01*
X526821Y549115D01*
X526495Y548627D01*
X526380Y548051D01*
X526495Y547475D01*
X526821Y546986D01*
X528909Y544898D01*
X529397Y544572D01*
X529973Y544457D01*
X530549Y544572D01*
X531038Y544898D01*
X535910Y549770D01*
X536236Y550258D01*
X536350Y550835D01*
X536236Y551411D01*
X535910Y551899D01*
X533822Y553987D01*
X533333Y554313D01*
X532757Y554428D01*
D02*
G37*
G36*
X498815Y549641D02*
X498239Y549527D01*
X497751Y549201D01*
X497424Y548712D01*
X497310Y548136D01*
X497424Y547560D01*
X497751Y547072D01*
X498239Y546745D01*
X498815Y546631D01*
X498855Y546639D01*
X499455Y546146D01*
Y544768D01*
X499570Y544192D01*
X499896Y543704D01*
X500385Y543378D01*
X500961Y543263D01*
X507850D01*
X508427Y543378D01*
X508915Y543704D01*
X509241Y544192D01*
X509356Y544768D01*
Y547721D01*
X509241Y548297D01*
X508915Y548786D01*
X508427Y549112D01*
X507850Y549227D01*
X500961D01*
X500385Y549112D01*
X500076Y548906D01*
X499879Y549201D01*
X499391Y549527D01*
X498815Y549641D01*
D02*
G37*
G36*
X479917Y550035D02*
X479341Y549921D01*
X478853Y549594D01*
X478527Y549106D01*
X478412Y548530D01*
X478527Y547954D01*
X478853Y547466D01*
X479313Y547158D01*
X479344Y547128D01*
X479499Y546496D01*
X478821Y545818D01*
X478495Y545330D01*
X478380Y544754D01*
X478495Y544178D01*
X478821Y543690D01*
X483693Y538818D01*
X484181Y538491D01*
X484757Y538377D01*
X485333Y538491D01*
X485822Y538818D01*
X486263Y539259D01*
X486860Y539200D01*
X486912Y539121D01*
X487400Y538795D01*
X487976Y538681D01*
X488553Y538795D01*
X489041Y539121D01*
X489367Y539610D01*
X489482Y540186D01*
X489367Y540762D01*
X489041Y541250D01*
X488553Y541576D01*
X488283Y541630D01*
X488350Y541970D01*
X488236Y542546D01*
X487910Y543035D01*
X483038Y547906D01*
X482549Y548233D01*
X481973Y548347D01*
X481423Y548530D01*
X481308Y549106D01*
X480982Y549594D01*
X480493Y549921D01*
X479917Y550035D01*
D02*
G37*
G36*
X527347Y539722D02*
X526770Y539608D01*
X526282Y539282D01*
X525956Y538793D01*
X525841Y538217D01*
X525956Y537641D01*
X526282Y537153D01*
X526770Y536827D01*
X527347Y536712D01*
X527922Y536827D01*
X528411Y537153D01*
X528737Y537641D01*
X528852Y538217D01*
X528737Y538793D01*
X528411Y539282D01*
X527922Y539608D01*
X527347Y539722D01*
D02*
G37*
G36*
X519866Y538541D02*
X519290Y538427D01*
X518802Y538101D01*
X518475Y537612D01*
X518361Y537036D01*
X518475Y536460D01*
X518802Y535972D01*
X519290Y535645D01*
X519866Y535531D01*
X520442Y535645D01*
X520931Y535972D01*
X521257Y536460D01*
X521372Y537036D01*
X521257Y537612D01*
X520931Y538101D01*
X520442Y538427D01*
X519866Y538541D01*
D02*
G37*
G36*
X559051Y535862D02*
X558475Y535747D01*
X557987Y535421D01*
X557660Y534933D01*
X557546Y534357D01*
X557660Y533781D01*
X557987Y533292D01*
X558475Y532966D01*
X559051Y532851D01*
X559627Y532966D01*
X560116Y533292D01*
X560442Y533781D01*
X560557Y534357D01*
X560442Y534933D01*
X560116Y535421D01*
X559627Y535747D01*
X559051Y535862D01*
D02*
G37*
G36*
X554413Y544053D02*
X553837Y543939D01*
X553349Y543612D01*
X553023Y543124D01*
X552908Y542548D01*
X553023Y541972D01*
X553036Y541953D01*
X552715Y541353D01*
X552378D01*
X551802Y541238D01*
X551314Y540912D01*
X550987Y540423D01*
X550873Y539847D01*
Y532957D01*
X550987Y532381D01*
X551314Y531893D01*
X551802Y531567D01*
X552378Y531452D01*
X555331D01*
X555907Y531567D01*
X556395Y531893D01*
X556721Y532381D01*
X556836Y532957D01*
Y539847D01*
X556721Y540423D01*
X556395Y540912D01*
X555907Y541238D01*
X555744Y541882D01*
X555804Y541972D01*
X555919Y542548D01*
X555804Y543124D01*
X555478Y543612D01*
X554989Y543939D01*
X554413Y544053D01*
D02*
G37*
G36*
X536039Y541353D02*
X533087D01*
X532511Y541238D01*
X532022Y540912D01*
X531696Y540423D01*
X531581Y539847D01*
Y532957D01*
X531696Y532381D01*
X532022Y531893D01*
X532511Y531567D01*
X533087Y531452D01*
X536039D01*
X536616Y531567D01*
X537104Y531893D01*
X537430Y532381D01*
X537545Y532957D01*
Y539847D01*
X537430Y540423D01*
X537104Y540912D01*
X536616Y541238D01*
X536039Y541353D01*
D02*
G37*
G36*
X496039D02*
X493087D01*
X492511Y541238D01*
X492022Y540912D01*
X491696Y540423D01*
X491581Y539847D01*
Y532957D01*
X491696Y532381D01*
X492022Y531893D01*
X492511Y531567D01*
X493087Y531452D01*
X496039D01*
X496615Y531567D01*
X497104Y531893D01*
X497430Y532381D01*
X497545Y532957D01*
Y539847D01*
X497430Y540423D01*
X497104Y540912D01*
X496615Y541238D01*
X496039Y541353D01*
D02*
G37*
G36*
X515331D02*
X512378D01*
X511802Y541238D01*
X511314Y540912D01*
X510987Y540423D01*
X510873Y539847D01*
Y532957D01*
X510987Y532381D01*
X511314Y531893D01*
X511802Y531567D01*
X512378Y531452D01*
X513381D01*
X513762Y530988D01*
X513747Y530912D01*
X513861Y530336D01*
X514188Y529847D01*
X514676Y529521D01*
X515252Y529406D01*
X515828Y529521D01*
X516316Y529847D01*
X516643Y530336D01*
X516757Y530912D01*
X516643Y531488D01*
X516379Y531882D01*
X516395Y531893D01*
X516721Y532381D01*
X516836Y532957D01*
Y539847D01*
X516721Y540423D01*
X516395Y540912D01*
X515907Y541238D01*
X515331Y541353D01*
D02*
G37*
G36*
X520469Y529956D02*
X519893Y529842D01*
X519404Y529516D01*
X519078Y529027D01*
X518963Y528451D01*
X518390Y528258D01*
X518262Y528233D01*
X517773Y527906D01*
X515385Y525518D01*
X514832Y525814D01*
X514887Y526089D01*
X514773Y526665D01*
X514446Y527153D01*
X513958Y527480D01*
X513382Y527594D01*
X512806Y527480D01*
X512318Y527153D01*
X511991Y526665D01*
X511877Y526089D01*
X511991Y525513D01*
X512318Y525025D01*
X512806Y524698D01*
X513382Y524584D01*
X513657Y524638D01*
X513952Y524085D01*
X512902Y523034D01*
X512575Y522546D01*
X512545Y522394D01*
X512469Y522335D01*
X511888Y522166D01*
X511596Y522362D01*
X511020Y522476D01*
X510444Y522362D01*
X509955Y522035D01*
X509629Y521547D01*
X509514Y520971D01*
X509629Y520395D01*
X509955Y519906D01*
X510444Y519580D01*
X511020Y519465D01*
X511596Y519580D01*
X512084Y519906D01*
X512410Y520395D01*
X512441Y520547D01*
X512468Y520568D01*
X513087Y520720D01*
X514990Y518818D01*
X515478Y518491D01*
X516054Y518377D01*
X516630Y518491D01*
X517118Y518818D01*
X521990Y523690D01*
X522316Y524178D01*
X522431Y524754D01*
X522316Y525330D01*
X521990Y525818D01*
X521269Y526540D01*
X521376Y527282D01*
X521533Y527387D01*
X521859Y527875D01*
X521974Y528451D01*
X521859Y529027D01*
X521533Y529516D01*
X521045Y529842D01*
X520469Y529956D01*
D02*
G37*
G36*
X529973Y528347D02*
X529397Y528233D01*
X528909Y527906D01*
X526821Y525818D01*
X526495Y525330D01*
X526380Y524754D01*
X526495Y524178D01*
X526821Y523690D01*
X531693Y518818D01*
X532181Y518491D01*
X532757Y518377D01*
X533333Y518491D01*
X533822Y518818D01*
X535910Y520906D01*
X536236Y521394D01*
X536350Y521970D01*
X536236Y522546D01*
X535910Y523034D01*
X534465Y524479D01*
X534761Y525032D01*
X535036Y524977D01*
X535611Y525092D01*
X536100Y525418D01*
X536426Y525907D01*
X536541Y526483D01*
X536426Y527059D01*
X536100Y527547D01*
X535611Y527873D01*
X535036Y527988D01*
X534459Y527873D01*
X533971Y527547D01*
X533645Y527059D01*
X533530Y526483D01*
X533585Y526208D01*
X533032Y525912D01*
X531038Y527906D01*
X530549Y528233D01*
X529973Y528347D01*
D02*
G37*
G36*
X557268Y527912D02*
X556692Y527797D01*
X556203Y527471D01*
X555877Y526982D01*
X555762Y526406D01*
X555877Y525830D01*
X556203Y525342D01*
X556692Y525015D01*
X557268Y524901D01*
X557844Y525015D01*
X558332Y525342D01*
X558659Y525830D01*
X558773Y526406D01*
X558659Y526982D01*
X558332Y527471D01*
X557844Y527797D01*
X557268Y527912D01*
D02*
G37*
G36*
X484479Y534706D02*
X483903Y534592D01*
X483414Y534265D01*
X478543Y529393D01*
X478216Y528905D01*
X478102Y528329D01*
X478216Y527753D01*
X478543Y527265D01*
X480630Y525177D01*
X481119Y524850D01*
X481695Y524736D01*
X482271Y524850D01*
X482759Y525177D01*
X487631Y530049D01*
X487957Y530537D01*
X488072Y531113D01*
X487957Y531689D01*
X487631Y532177D01*
X485543Y534265D01*
X485055Y534592D01*
X484479Y534706D01*
D02*
G37*
G36*
X564085Y534428D02*
X563509Y534313D01*
X563021Y533987D01*
X560933Y531899D01*
X560607Y531411D01*
X560554Y531143D01*
X560061Y530805D01*
X559447Y530683D01*
X558926Y530335D01*
X558888Y530298D01*
X558540Y529777D01*
X558418Y529162D01*
X558540Y528548D01*
X558888Y528027D01*
X559409Y527679D01*
X560024Y527557D01*
X560213Y527594D01*
X561311D01*
X561311Y527594D01*
X561925Y527716D01*
X562446Y528064D01*
X562542Y528161D01*
X565805Y524898D01*
X566293Y524572D01*
X566869Y524457D01*
X567445Y524572D01*
X567934Y524898D01*
X570022Y526986D01*
X570348Y527475D01*
X570463Y528051D01*
X570348Y528627D01*
X570022Y529115D01*
X565150Y533987D01*
X564661Y534313D01*
X564085Y534428D01*
D02*
G37*
G36*
X562949Y526167D02*
X562373Y526053D01*
X561885Y525726D01*
X561558Y525238D01*
X561444Y524662D01*
X561558Y524086D01*
X561885Y523597D01*
X562373Y523271D01*
X562949Y523157D01*
X563525Y523271D01*
X564013Y523597D01*
X564340Y524086D01*
X564454Y524662D01*
X564340Y525238D01*
X564013Y525726D01*
X563525Y526053D01*
X562949Y526167D01*
D02*
G37*
G36*
X484039Y524762D02*
X483463Y524647D01*
X482975Y524321D01*
X482649Y523833D01*
X482534Y523257D01*
X482649Y522681D01*
X482975Y522192D01*
X483463Y521866D01*
X484039Y521751D01*
X484616Y521866D01*
X485104Y522192D01*
X485430Y522681D01*
X485545Y523257D01*
X485430Y523833D01*
X485104Y524321D01*
X484616Y524647D01*
X484039Y524762D01*
D02*
G37*
G36*
X507850Y529541D02*
X500961D01*
X500385Y529427D01*
X499896Y529101D01*
X499570Y528612D01*
X499455Y528036D01*
Y525083D01*
X499570Y524507D01*
X499896Y524019D01*
X500385Y523693D01*
X500961Y523578D01*
X505662D01*
Y522469D01*
X505784Y521855D01*
X506132Y521334D01*
X506653Y520986D01*
X507268Y520864D01*
X507882Y520986D01*
X508403Y521334D01*
X508751Y521855D01*
X508873Y522469D01*
Y523991D01*
X508915Y524019D01*
X509241Y524507D01*
X509356Y525083D01*
Y528036D01*
X509241Y528612D01*
X508915Y529101D01*
X508427Y529427D01*
X507850Y529541D01*
D02*
G37*
G36*
X474984Y523581D02*
X474408Y523466D01*
X473920Y523140D01*
X473594Y522652D01*
X473479Y522076D01*
X473594Y521499D01*
X473920Y521011D01*
X474408Y520685D01*
X474984Y520570D01*
X475560Y520685D01*
X476049Y521011D01*
X476375Y521499D01*
X476490Y522076D01*
X476375Y522652D01*
X476049Y523140D01*
X475560Y523466D01*
X474984Y523581D01*
D02*
G37*
G36*
X503931Y521612D02*
X503355Y521498D01*
X502866Y521171D01*
X502540Y520683D01*
X502425Y520107D01*
X502540Y519531D01*
X502866Y519043D01*
X503355Y518716D01*
X503931Y518602D01*
X504507Y518716D01*
X504995Y519043D01*
X505321Y519531D01*
X505436Y520107D01*
X505321Y520683D01*
X504995Y521171D01*
X504507Y521498D01*
X503931Y521612D01*
D02*
G37*
G36*
X547850Y529541D02*
X540961D01*
X540385Y529427D01*
X539896Y529101D01*
X539570Y528612D01*
X539455Y528036D01*
Y525083D01*
X539570Y524507D01*
X539896Y524019D01*
X540385Y523693D01*
X540961Y523578D01*
X545617D01*
Y521128D01*
X545617Y521128D01*
X545739Y520513D01*
X546087Y519993D01*
X547015Y519065D01*
X547077Y518972D01*
X547598Y518624D01*
X548213Y518501D01*
X548827Y518624D01*
X549348Y518972D01*
X549696Y519493D01*
X549818Y520107D01*
Y520138D01*
X549818Y520138D01*
X549696Y520752D01*
X549348Y521273D01*
X549348Y521273D01*
X548828Y521793D01*
Y523961D01*
X548915Y524019D01*
X549241Y524507D01*
X549356Y525083D01*
Y528036D01*
X549241Y528612D01*
X548915Y529101D01*
X548426Y529427D01*
X547850Y529541D01*
D02*
G37*
G36*
X472228Y520431D02*
X471652Y520317D01*
X471164Y519990D01*
X470838Y519502D01*
X470723Y518926D01*
X470838Y518350D01*
X471164Y517862D01*
X471652Y517535D01*
X472228Y517421D01*
X472804Y517535D01*
X473293Y517862D01*
X473619Y518350D01*
X473734Y518926D01*
X473619Y519502D01*
X473293Y519990D01*
X472804Y520317D01*
X472228Y520431D01*
D02*
G37*
G36*
X563567Y519644D02*
X562991Y519529D01*
X562503Y519203D01*
X562176Y518715D01*
X562062Y518139D01*
X562176Y517562D01*
X562503Y517074D01*
X562991Y516748D01*
X563567Y516633D01*
X564143Y516748D01*
X564631Y517074D01*
X564958Y517562D01*
X565072Y518139D01*
X564958Y518715D01*
X564631Y519203D01*
X564143Y519529D01*
X563567Y519644D01*
D02*
G37*
G36*
X560024Y518463D02*
X559448Y518348D01*
X558959Y518022D01*
X558633Y517533D01*
X558518Y516957D01*
X558633Y516381D01*
X558959Y515893D01*
X559448Y515567D01*
X560024Y515452D01*
X560600Y515567D01*
X561088Y515893D01*
X561414Y516381D01*
X561529Y516957D01*
X561414Y517533D01*
X561088Y518022D01*
X560600Y518348D01*
X560024Y518463D01*
D02*
G37*
G36*
X510417Y517675D02*
X509841Y517561D01*
X509353Y517234D01*
X509027Y516746D01*
X508912Y516170D01*
X509027Y515594D01*
X509353Y515106D01*
X509841Y514779D01*
X510417Y514665D01*
X510993Y514779D01*
X511482Y515106D01*
X511808Y515594D01*
X511923Y516170D01*
X511808Y516746D01*
X511482Y517234D01*
X510993Y517561D01*
X510417Y517675D01*
D02*
G37*
G36*
X546770Y515707D02*
X546194Y515592D01*
X545706Y515266D01*
X545379Y514778D01*
X545265Y514201D01*
X545379Y513625D01*
X545706Y513137D01*
X546194Y512811D01*
X546770Y512696D01*
X547346Y512811D01*
X547834Y513137D01*
X548161Y513625D01*
X548275Y514201D01*
X548161Y514778D01*
X547834Y515266D01*
X547346Y515592D01*
X546770Y515707D01*
D02*
G37*
G36*
X481677Y510195D02*
X481101Y510080D01*
X480613Y509754D01*
X480287Y509266D01*
X480172Y508690D01*
X480287Y508114D01*
X480613Y507625D01*
X481101Y507299D01*
X481677Y507184D01*
X482253Y507299D01*
X482742Y507625D01*
X483068Y508114D01*
X483182Y508690D01*
X483068Y509266D01*
X482742Y509754D01*
X482253Y510080D01*
X481677Y510195D01*
D02*
G37*
G36*
X532479Y514706D02*
X531903Y514592D01*
X531414Y514265D01*
X526543Y509393D01*
X526216Y508905D01*
X526102Y508329D01*
X526216Y507753D01*
X526543Y507265D01*
X528630Y505177D01*
X529119Y504850D01*
X529695Y504736D01*
X530271Y504850D01*
X530759Y505177D01*
X535631Y510048D01*
X535957Y510537D01*
X536072Y511113D01*
X535957Y511689D01*
X535631Y512177D01*
X533543Y514265D01*
X533055Y514592D01*
X532479Y514706D01*
D02*
G37*
G36*
X478134Y507439D02*
X477558Y507325D01*
X477070Y506998D01*
X476743Y506510D01*
X476629Y505934D01*
X476743Y505358D01*
X477070Y504869D01*
X477558Y504543D01*
X478134Y504428D01*
X478710Y504543D01*
X479198Y504869D01*
X479525Y505358D01*
X479639Y505934D01*
X479525Y506510D01*
X479198Y506998D01*
X478710Y507325D01*
X478134Y507439D01*
D02*
G37*
G36*
X469473D02*
X468896Y507325D01*
X468408Y506998D01*
X468082Y506510D01*
X467967Y505934D01*
X468082Y505358D01*
X468408Y504869D01*
X468896Y504543D01*
X469473Y504428D01*
X470049Y504543D01*
X470537Y504869D01*
X470863Y505358D01*
X470978Y505934D01*
X470863Y506510D01*
X470537Y506998D01*
X470049Y507325D01*
X469473Y507439D01*
D02*
G37*
G36*
X548606Y507045D02*
X548030Y506931D01*
X547542Y506604D01*
X547216Y506116D01*
X547101Y505540D01*
X547216Y504964D01*
X547542Y504476D01*
X548030Y504149D01*
X548606Y504035D01*
X549182Y504149D01*
X549671Y504476D01*
X549997Y504964D01*
X550112Y505540D01*
X549997Y506116D01*
X549671Y506604D01*
X549182Y506931D01*
X548606Y507045D01*
D02*
G37*
G36*
X513867Y515596D02*
X513291Y515481D01*
X512802Y515155D01*
X512476Y514666D01*
X512361Y514090D01*
X512476Y513514D01*
X512802Y513026D01*
X513029Y512875D01*
X513163Y512160D01*
X512902Y511899D01*
X512575Y511411D01*
X512461Y510835D01*
X512575Y510258D01*
X512902Y509770D01*
X513820Y508851D01*
X512825Y507857D01*
X512477Y507336D01*
X512355Y506721D01*
X512477Y506107D01*
X512825Y505586D01*
X513346Y505238D01*
X513961Y505116D01*
X514575Y505238D01*
X515096Y505586D01*
X516091Y506581D01*
X517773Y504898D01*
X518262Y504572D01*
X518838Y504457D01*
X519414Y504572D01*
X519635Y504720D01*
X519983Y504242D01*
X519837Y504023D01*
X519657Y503754D01*
X519597Y503457D01*
X518962Y503328D01*
X518474Y503654D01*
X517898Y503768D01*
X517322Y503654D01*
X516833Y503328D01*
X516507Y502839D01*
X516392Y502263D01*
X516507Y501687D01*
X516833Y501199D01*
X517322Y500872D01*
X517898Y500758D01*
X518474Y500872D01*
X518962Y501199D01*
X519288Y501687D01*
X519347Y501984D01*
X519983Y502113D01*
X520471Y501787D01*
X521047Y501673D01*
X521623Y501787D01*
X522112Y502113D01*
X522438Y502602D01*
X522553Y503178D01*
X522438Y503754D01*
X522112Y504242D01*
X521623Y504569D01*
X521047Y504683D01*
X520471Y504569D01*
X520250Y504421D01*
X519902Y504898D01*
X520093Y505090D01*
X521990Y506986D01*
X522316Y507475D01*
X522431Y508051D01*
X522316Y508627D01*
X521990Y509115D01*
X517118Y513987D01*
X516630Y514313D01*
X516054Y514428D01*
X515922Y514401D01*
X515257Y514666D01*
X514931Y515155D01*
X514443Y515481D01*
X513867Y515596D01*
D02*
G37*
G36*
X506087Y505864D02*
X505511Y505750D01*
X505022Y505423D01*
X504696Y504935D01*
X504581Y504359D01*
X504696Y503783D01*
X505022Y503295D01*
X505511Y502968D01*
X506087Y502854D01*
X506663Y502968D01*
X507151Y503295D01*
X507477Y503783D01*
X507592Y504359D01*
X507477Y504935D01*
X507151Y505423D01*
X506663Y505750D01*
X506087Y505864D01*
D02*
G37*
G36*
X575772Y505471D02*
X575196Y505356D01*
X574707Y505030D01*
X574381Y504541D01*
X574266Y503965D01*
X574381Y503389D01*
X574707Y502901D01*
X575196Y502575D01*
X575772Y502460D01*
X576348Y502575D01*
X576836Y502901D01*
X577162Y503389D01*
X577277Y503965D01*
X577162Y504541D01*
X576836Y505030D01*
X576348Y505356D01*
X575772Y505471D01*
D02*
G37*
G36*
X567898Y505077D02*
X567322Y504962D01*
X566833Y504636D01*
X566507Y504148D01*
X566392Y503572D01*
X566507Y502995D01*
X566833Y502507D01*
X567322Y502181D01*
X567898Y502066D01*
X568474Y502181D01*
X568962Y502507D01*
X569288Y502995D01*
X569403Y503572D01*
X569288Y504148D01*
X568962Y504636D01*
X568474Y504962D01*
X567898Y505077D01*
D02*
G37*
G36*
X495970Y503706D02*
X495395Y503592D01*
X494906Y503265D01*
X494580Y502777D01*
X494465Y502201D01*
X494580Y501625D01*
X494906Y501137D01*
X495395Y500810D01*
X495970Y500696D01*
X496547Y500810D01*
X497035Y501137D01*
X497361Y501625D01*
X497476Y502201D01*
X497361Y502777D01*
X497035Y503265D01*
X496547Y503592D01*
X495970Y503706D01*
D02*
G37*
G36*
X471479Y503540D02*
X470903Y503425D01*
X470414Y503099D01*
X470088Y502610D01*
X469973Y502035D01*
X470088Y501458D01*
X470414Y500970D01*
X470903Y500644D01*
X471479Y500529D01*
X472055Y500644D01*
X472543Y500970D01*
X472869Y501458D01*
X472984Y502035D01*
X472869Y502610D01*
X472543Y503099D01*
X472055Y503425D01*
X471479Y503540D01*
D02*
G37*
G36*
X503331Y502715D02*
X502755Y502600D01*
X502266Y502274D01*
X501940Y501785D01*
X501826Y501209D01*
X501940Y500633D01*
X502266Y500145D01*
X502755Y499819D01*
X503331Y499704D01*
X503907Y499819D01*
X504395Y500145D01*
X504721Y500633D01*
X504836Y501209D01*
X504721Y501785D01*
X504395Y502274D01*
X503907Y502600D01*
X503331Y502715D01*
D02*
G37*
G36*
X532280Y502004D02*
X531704Y501889D01*
X531215Y501563D01*
X530889Y501074D01*
X530774Y500498D01*
X530889Y499922D01*
X531215Y499434D01*
X531704Y499108D01*
X532280Y498993D01*
X532856Y499108D01*
X533344Y499434D01*
X533670Y499922D01*
X533785Y500498D01*
X533670Y501074D01*
X533344Y501563D01*
X532856Y501889D01*
X532280Y502004D01*
D02*
G37*
G36*
X508055Y501927D02*
X507479Y501813D01*
X506991Y501486D01*
X506665Y500998D01*
X506550Y500422D01*
X506665Y499846D01*
X506991Y499358D01*
X507479Y499031D01*
X508055Y498917D01*
X508631Y499031D01*
X509120Y499358D01*
X509446Y499846D01*
X509560Y500422D01*
X509446Y500998D01*
X509120Y501486D01*
X508631Y501813D01*
X508055Y501927D01*
D02*
G37*
G36*
X488503Y501706D02*
X487927Y501591D01*
X487438Y501265D01*
X487112Y500777D01*
X486997Y500201D01*
X487112Y499624D01*
X487438Y499136D01*
X487927Y498810D01*
X488503Y498695D01*
X489079Y498810D01*
X489567Y499136D01*
X489893Y499624D01*
X490008Y500201D01*
X489893Y500777D01*
X489567Y501265D01*
X489079Y501591D01*
X488503Y501706D01*
D02*
G37*
G36*
X563567Y501534D02*
X562991Y501419D01*
X562503Y501093D01*
X562176Y500604D01*
X562062Y500028D01*
X562176Y499452D01*
X562503Y498964D01*
X562991Y498638D01*
X563567Y498523D01*
X564143Y498638D01*
X564631Y498964D01*
X564958Y499452D01*
X565072Y500028D01*
X564958Y500604D01*
X564631Y501093D01*
X564143Y501419D01*
X563567Y501534D01*
D02*
G37*
G36*
X484039Y501140D02*
X483463Y501025D01*
X482975Y500699D01*
X482649Y500211D01*
X482534Y499635D01*
X482649Y499058D01*
X482975Y498570D01*
X483463Y498244D01*
X484039Y498129D01*
X484616Y498244D01*
X485104Y498570D01*
X485430Y499058D01*
X485545Y499635D01*
X485430Y500211D01*
X485104Y500699D01*
X484616Y501025D01*
X484039Y501140D01*
D02*
G37*
G36*
X548658Y501134D02*
X548082Y501019D01*
X547593Y500693D01*
X547267Y500204D01*
X547153Y499628D01*
X547267Y499052D01*
X547593Y498564D01*
X548082Y498238D01*
X548658Y498123D01*
X549234Y498238D01*
X549722Y498564D01*
X550049Y499052D01*
X550163Y499628D01*
X550049Y500204D01*
X549722Y500693D01*
X549234Y501019D01*
X548658Y501134D01*
D02*
G37*
G36*
X519079Y499959D02*
X518503Y499844D01*
X518014Y499518D01*
X517688Y499029D01*
X517573Y498454D01*
X517688Y497877D01*
X518014Y497389D01*
X518503Y497063D01*
X519079Y496948D01*
X519655Y497063D01*
X520143Y497389D01*
X520470Y497877D01*
X520584Y498454D01*
X520470Y499029D01*
X520143Y499518D01*
X519655Y499844D01*
X519079Y499959D01*
D02*
G37*
G36*
X496059Y499641D02*
X495483Y499527D01*
X494995Y499201D01*
X494668Y498712D01*
X494554Y498136D01*
X494668Y497560D01*
X494995Y497072D01*
X495483Y496745D01*
X496059Y496631D01*
X496635Y496745D01*
X497123Y497072D01*
X497450Y497560D01*
X497564Y498136D01*
X497450Y498712D01*
X497123Y499201D01*
X496635Y499527D01*
X496059Y499641D01*
D02*
G37*
G36*
X528736Y499248D02*
X528160Y499133D01*
X527672Y498807D01*
X527346Y498318D01*
X527231Y497743D01*
X527346Y497166D01*
X527672Y496678D01*
X528160Y496352D01*
X528736Y496237D01*
X529312Y496352D01*
X529801Y496678D01*
X530127Y497166D01*
X530242Y497743D01*
X530127Y498318D01*
X529801Y498807D01*
X529312Y499133D01*
X528736Y499248D01*
D02*
G37*
G36*
X533055Y497990D02*
X532479Y497876D01*
X531991Y497549D01*
X531665Y497061D01*
X531550Y496485D01*
X531665Y495909D01*
X531991Y495421D01*
X532479Y495094D01*
X533055Y494980D01*
X533631Y495094D01*
X534120Y495421D01*
X534446Y495909D01*
X534560Y496485D01*
X534446Y497061D01*
X534120Y497549D01*
X533631Y497876D01*
X533055Y497990D01*
D02*
G37*
G36*
X524799Y497279D02*
X524223Y497165D01*
X523735Y496838D01*
X523409Y496350D01*
X523294Y495774D01*
X523409Y495198D01*
X523735Y494710D01*
X524223Y494383D01*
X524799Y494269D01*
X525375Y494383D01*
X525864Y494710D01*
X526190Y495198D01*
X526304Y495774D01*
X526190Y496350D01*
X525864Y496838D01*
X525375Y497165D01*
X524799Y497279D01*
D02*
G37*
G36*
X557268Y495628D02*
X556692Y495513D01*
X556203Y495187D01*
X555877Y494699D01*
X555762Y494123D01*
X555877Y493547D01*
X556203Y493058D01*
X556692Y492732D01*
X557268Y492618D01*
X557844Y492732D01*
X558332Y493058D01*
X558659Y493547D01*
X558773Y494123D01*
X558659Y494699D01*
X558332Y495187D01*
X557844Y495513D01*
X557268Y495628D01*
D02*
G37*
G36*
X512386D02*
X511810Y495513D01*
X511321Y495187D01*
X510995Y494699D01*
X510881Y494123D01*
X510995Y493547D01*
X511321Y493058D01*
X511810Y492732D01*
X512386Y492618D01*
X512962Y492732D01*
X513450Y493058D01*
X513777Y493547D01*
X513891Y494123D01*
X513777Y494699D01*
X513450Y495187D01*
X512962Y495513D01*
X512386Y495628D01*
D02*
G37*
G36*
X535516Y494742D02*
X534940Y494628D01*
X534451Y494301D01*
X534125Y493813D01*
X534011Y493237D01*
X534125Y492661D01*
X534451Y492172D01*
X534940Y491846D01*
X535516Y491732D01*
X536092Y491846D01*
X536580Y492172D01*
X536906Y492661D01*
X537021Y493237D01*
X536906Y493813D01*
X536580Y494301D01*
X536092Y494628D01*
X535516Y494742D01*
D02*
G37*
G36*
X509236Y492479D02*
X508660Y492364D01*
X508172Y492038D01*
X507846Y491549D01*
X507731Y490973D01*
X507846Y490397D01*
X508172Y489909D01*
X508660Y489582D01*
X509236Y489468D01*
X509812Y489582D01*
X510301Y489909D01*
X510627Y490397D01*
X510742Y490973D01*
X510627Y491549D01*
X510301Y492038D01*
X509812Y492364D01*
X509236Y492479D01*
D02*
G37*
G36*
X476559D02*
X475983Y492364D01*
X475495Y492038D01*
X475168Y491549D01*
X475054Y490973D01*
X475168Y490397D01*
X475495Y489909D01*
X475983Y489582D01*
X476559Y489468D01*
X477135Y489582D01*
X477624Y489909D01*
X477950Y490397D01*
X478064Y490973D01*
X477950Y491549D01*
X477624Y492038D01*
X477135Y492364D01*
X476559Y492479D01*
D02*
G37*
G36*
X515929Y492085D02*
X515353Y491970D01*
X514865Y491644D01*
X514538Y491155D01*
X514424Y490580D01*
X514538Y490003D01*
X514865Y489515D01*
X515353Y489189D01*
X515929Y489074D01*
X516505Y489189D01*
X516994Y489515D01*
X517320Y490003D01*
X517435Y490580D01*
X517320Y491155D01*
X516994Y491644D01*
X516505Y491970D01*
X515929Y492085D01*
D02*
G37*
G36*
X529973Y489847D02*
X529397Y489733D01*
X528909Y489406D01*
X528108Y488605D01*
X527335Y488681D01*
X527328Y488691D01*
X526840Y489017D01*
X526264Y489132D01*
X525688Y489017D01*
X525199Y488691D01*
X524873Y488203D01*
X524758Y487627D01*
X524873Y487051D01*
X525199Y486562D01*
X525688Y486236D01*
X526264Y486121D01*
X526401Y486149D01*
X526495Y485678D01*
X526821Y485190D01*
X531693Y480318D01*
X532181Y479991D01*
X532757Y479877D01*
X533333Y479991D01*
X533822Y480318D01*
X535910Y482406D01*
X536236Y482894D01*
X536350Y483470D01*
X536236Y484046D01*
X535910Y484535D01*
X531038Y489406D01*
X530549Y489733D01*
X529973Y489847D01*
D02*
G37*
G36*
X540189Y490228D02*
X539613Y490113D01*
X539125Y489787D01*
X538798Y489299D01*
X538684Y488723D01*
X538798Y488147D01*
X539125Y487658D01*
X539613Y487332D01*
X540189Y487218D01*
X540765Y487332D01*
X541253Y487658D01*
X541580Y488147D01*
X541694Y488723D01*
X541580Y489299D01*
X541253Y489787D01*
X540765Y490113D01*
X540189Y490228D01*
D02*
G37*
G36*
X535429Y489799D02*
X534853Y489684D01*
X534365Y489358D01*
X534038Y488870D01*
X533924Y488294D01*
X534038Y487718D01*
X534365Y487229D01*
X534853Y486903D01*
X535429Y486788D01*
X536005Y486903D01*
X536494Y487229D01*
X536820Y487718D01*
X536935Y488294D01*
X536820Y488870D01*
X536494Y489358D01*
X536005Y489684D01*
X535429Y489799D01*
D02*
G37*
G36*
X488950Y490727D02*
X482061D01*
X481485Y490612D01*
X480996Y490286D01*
X480670Y489797D01*
X480555Y489221D01*
Y486268D01*
X480670Y485692D01*
X480996Y485204D01*
X481485Y484878D01*
X482061Y484763D01*
X488950D01*
X489527Y484878D01*
X490015Y485204D01*
X490341Y485692D01*
X490456Y486268D01*
X491056Y486726D01*
X491126Y486712D01*
X491702Y486827D01*
X492190Y487153D01*
X492517Y487641D01*
X492631Y488217D01*
X492517Y488793D01*
X492190Y489282D01*
X491702Y489608D01*
X491126Y489722D01*
X490974Y489692D01*
X490398Y489788D01*
X490160Y490069D01*
X490015Y490286D01*
X489527Y490612D01*
X488950Y490727D01*
D02*
G37*
G36*
X512386Y489329D02*
X511810Y489214D01*
X511321Y488888D01*
X510995Y488400D01*
X510881Y487824D01*
X510995Y487248D01*
X511321Y486759D01*
X511810Y486433D01*
X512386Y486318D01*
X512962Y486433D01*
X513450Y486759D01*
X513777Y487248D01*
X513891Y487824D01*
X513777Y488400D01*
X513450Y488888D01*
X512962Y489214D01*
X512386Y489329D01*
D02*
G37*
G36*
X570654Y488541D02*
X570078Y488427D01*
X569589Y488101D01*
X569263Y487612D01*
X569148Y487036D01*
X569263Y486460D01*
X569589Y485972D01*
X570078Y485645D01*
X570654Y485531D01*
X571230Y485645D01*
X571718Y485972D01*
X572044Y486460D01*
X572159Y487036D01*
X572044Y487612D01*
X571718Y488101D01*
X571230Y488427D01*
X570654Y488541D01*
D02*
G37*
G36*
X476559Y488148D02*
X475983Y488033D01*
X475495Y487707D01*
X475168Y487219D01*
X475054Y486643D01*
X475168Y486066D01*
X475495Y485578D01*
X475983Y485252D01*
X476559Y485137D01*
X477135Y485252D01*
X477624Y485578D01*
X477950Y486066D01*
X478064Y486643D01*
X477950Y487219D01*
X477624Y487707D01*
X477135Y488033D01*
X476559Y488148D01*
D02*
G37*
G36*
X566750Y490727D02*
X559861D01*
X559285Y490612D01*
X558796Y490286D01*
X558470Y489797D01*
X558355Y489221D01*
Y486268D01*
X558470Y485692D01*
X558796Y485204D01*
X559285Y484878D01*
X559861Y484763D01*
X566750D01*
X567326Y484878D01*
X567815Y485204D01*
X568141Y485692D01*
X568256Y486268D01*
Y489221D01*
X568141Y489797D01*
X567815Y490286D01*
X567326Y490612D01*
X566750Y490727D01*
D02*
G37*
G36*
X578408Y487381D02*
X577832Y487266D01*
X577344Y486940D01*
X577018Y486452D01*
X576903Y485876D01*
X577018Y485300D01*
X577344Y484811D01*
X577832Y484485D01*
X578408Y484371D01*
X578984Y484485D01*
X579473Y484811D01*
X579799Y485300D01*
X579914Y485876D01*
X579799Y486452D01*
X579473Y486940D01*
X578984Y487266D01*
X578408Y487381D01*
D02*
G37*
G36*
X518838Y489847D02*
X518262Y489733D01*
X517773Y489406D01*
X512902Y484535D01*
X512575Y484046D01*
X512461Y483470D01*
X512575Y482894D01*
X512902Y482406D01*
X514990Y480318D01*
X515478Y479991D01*
X516054Y479877D01*
X516630Y479991D01*
X517118Y480318D01*
X521990Y485190D01*
X522316Y485678D01*
X522431Y486254D01*
X522316Y486830D01*
X521990Y487318D01*
X519902Y489406D01*
X519414Y489733D01*
X518838Y489847D01*
D02*
G37*
G36*
X511598Y481061D02*
X511022Y480947D01*
X510534Y480620D01*
X510208Y480132D01*
X510093Y479556D01*
X510208Y478980D01*
X510534Y478491D01*
X511022Y478165D01*
X511598Y478051D01*
X512175Y478165D01*
X512663Y478491D01*
X512989Y478980D01*
X513104Y479556D01*
X512989Y480132D01*
X512663Y480620D01*
X512175Y480947D01*
X511598Y481061D01*
D02*
G37*
G36*
X544484Y478382D02*
X543908Y478267D01*
X543420Y477941D01*
X543094Y477452D01*
X542979Y476876D01*
X543094Y476300D01*
X543420Y475812D01*
X543908Y475486D01*
X544484Y475371D01*
X545060Y475486D01*
X545549Y475812D01*
X545875Y476300D01*
X545990Y476876D01*
X545875Y477452D01*
X545549Y477941D01*
X545060Y478267D01*
X544484Y478382D01*
D02*
G37*
G36*
X537004D02*
X536428Y478267D01*
X535940Y477941D01*
X535613Y477452D01*
X535499Y476876D01*
X535613Y476300D01*
X535940Y475812D01*
X536428Y475486D01*
X537004Y475371D01*
X537580Y475486D01*
X538068Y475812D01*
X538395Y476300D01*
X538509Y476876D01*
X538395Y477452D01*
X538068Y477941D01*
X537580Y478267D01*
X537004Y478382D01*
D02*
G37*
G36*
X574624Y482853D02*
X571672D01*
X571096Y482738D01*
X570607Y482412D01*
X570281Y481923D01*
X570166Y481347D01*
Y474457D01*
X570281Y473881D01*
X570607Y473393D01*
X571096Y473067D01*
X571672Y472952D01*
X574624D01*
X575201Y473067D01*
X575689Y473393D01*
X576015Y473881D01*
X576130Y474457D01*
Y481347D01*
X576015Y481923D01*
X575689Y482412D01*
X575201Y482738D01*
X574624Y482853D01*
D02*
G37*
G36*
X496431D02*
X493478D01*
X492902Y482738D01*
X492414Y482412D01*
X492087Y481923D01*
X491973Y481347D01*
Y474457D01*
X492087Y473881D01*
X492414Y473393D01*
X492902Y473067D01*
X493478Y472952D01*
X496431D01*
X497007Y473067D01*
X497495Y473393D01*
X497822Y473881D01*
X497936Y474457D01*
Y481347D01*
X497822Y481923D01*
X497495Y482412D01*
X497007Y482738D01*
X496431Y482853D01*
D02*
G37*
G36*
X477139D02*
X474187D01*
X473611Y482738D01*
X473122Y482412D01*
X472796Y481923D01*
X472681Y481347D01*
Y474457D01*
X472796Y473881D01*
X473122Y473393D01*
X473611Y473067D01*
X474187Y472952D01*
X477139D01*
X477715Y473067D01*
X478204Y473393D01*
X478530Y473881D01*
X478645Y474457D01*
Y481347D01*
X478530Y481923D01*
X478204Y482412D01*
X477715Y482738D01*
X477139Y482853D01*
D02*
G37*
G36*
X500969Y475549D02*
X500392Y475435D01*
X499904Y475108D01*
X499578Y474620D01*
X499463Y474044D01*
X499578Y473468D01*
X499904Y472980D01*
X500392Y472653D01*
X500969Y472539D01*
X501545Y472653D01*
X502033Y472980D01*
X502359Y473468D01*
X502474Y474044D01*
X502359Y474620D01*
X502033Y475108D01*
X501545Y475435D01*
X500969Y475549D01*
D02*
G37*
G36*
X548028Y475232D02*
X547452Y475117D01*
X546963Y474791D01*
X546637Y474303D01*
X546522Y473727D01*
X546637Y473151D01*
X546963Y472662D01*
X547452Y472336D01*
X548028Y472221D01*
X548604Y472336D01*
X549092Y472662D01*
X549418Y473151D01*
X549533Y473727D01*
X549418Y474303D01*
X549092Y474791D01*
X548604Y475117D01*
X548028Y475232D01*
D02*
G37*
G36*
X554939Y482853D02*
X551987D01*
X551411Y482738D01*
X550922Y482412D01*
X550596Y481923D01*
X550481Y481347D01*
Y474457D01*
X550596Y473881D01*
X550922Y473393D01*
X551411Y473067D01*
X551725Y473004D01*
Y472863D01*
X551847Y472249D01*
X552195Y471728D01*
X552716Y471380D01*
X553331Y471257D01*
X553945Y471380D01*
X554466Y471728D01*
X554814Y472249D01*
X554936Y472863D01*
Y472952D01*
X554939D01*
X555515Y473067D01*
X556004Y473393D01*
X556330Y473881D01*
X556445Y474457D01*
Y481347D01*
X556330Y481923D01*
X556004Y482412D01*
X555515Y482738D01*
X554939Y482853D01*
D02*
G37*
G36*
X574591Y472006D02*
X574015Y471891D01*
X573526Y471565D01*
X573200Y471077D01*
X573085Y470501D01*
X573200Y469925D01*
X573526Y469436D01*
X574015Y469110D01*
X574591Y468995D01*
X575167Y469110D01*
X575655Y469436D01*
X575981Y469925D01*
X576096Y470501D01*
X575981Y471077D01*
X575655Y471565D01*
X575167Y471891D01*
X574591Y472006D01*
D02*
G37*
G36*
X532479Y476206D02*
X531903Y476092D01*
X531414Y475765D01*
X526543Y470893D01*
X526216Y470405D01*
X526102Y469829D01*
X526216Y469253D01*
X526543Y468765D01*
X528630Y466677D01*
X529119Y466350D01*
X529695Y466236D01*
X530271Y466350D01*
X530759Y466677D01*
X535631Y471549D01*
X535957Y472037D01*
X536072Y472613D01*
X535957Y473189D01*
X535631Y473677D01*
X533543Y475765D01*
X533055Y476092D01*
X532479Y476206D01*
D02*
G37*
G36*
X516054Y475928D02*
X515478Y475813D01*
X514990Y475487D01*
X512902Y473399D01*
X512575Y472911D01*
X512461Y472334D01*
X512572Y471776D01*
X510857Y470061D01*
X510857Y470061D01*
X510509Y469540D01*
X510387Y468926D01*
X510509Y468312D01*
X510857Y467791D01*
X511378Y467443D01*
X511992Y467320D01*
X512607Y467443D01*
X513128Y467791D01*
X514754Y469417D01*
X517773Y466398D01*
X518262Y466072D01*
X518838Y465957D01*
X519414Y466072D01*
X519902Y466398D01*
X521990Y468486D01*
X522316Y468975D01*
X522431Y469551D01*
X522316Y470127D01*
X521990Y470615D01*
X517118Y475487D01*
X516630Y475813D01*
X516054Y475928D01*
D02*
G37*
G36*
X566750Y471435D02*
X559861D01*
X559285Y471321D01*
X558796Y470994D01*
X558470Y470506D01*
X558355Y469930D01*
Y466977D01*
X558470Y466401D01*
X558796Y465913D01*
X559285Y465586D01*
X559861Y465472D01*
X566750D01*
X567326Y465586D01*
X567815Y465913D01*
X568141Y466401D01*
X568256Y466977D01*
Y469930D01*
X568141Y470506D01*
X567815Y470994D01*
X567326Y471321D01*
X566750Y471435D01*
D02*
G37*
G36*
X488950Y471041D02*
X482061D01*
X481485Y470927D01*
X480996Y470601D01*
X480670Y470112D01*
X480555Y469536D01*
Y468423D01*
X480250Y468362D01*
X479729Y468014D01*
X479729Y468014D01*
X479128Y467413D01*
X478967Y467305D01*
X478619Y466784D01*
X478497Y466170D01*
X478619Y465556D01*
X478967Y465035D01*
X479488Y464687D01*
X480102Y464564D01*
X480156D01*
X480156Y464564D01*
X480770Y464687D01*
X481291Y465035D01*
X481463Y465207D01*
X481485Y465193D01*
X482061Y465078D01*
X488950D01*
X489527Y465193D01*
X490015Y465519D01*
X490341Y466007D01*
X490456Y466583D01*
Y469536D01*
X490341Y470112D01*
X490015Y470601D01*
X489527Y470927D01*
X488950Y471041D01*
D02*
G37*
G36*
X511598Y466002D02*
X511022Y465887D01*
X510534Y465561D01*
X510208Y465073D01*
X510093Y464497D01*
X510208Y463921D01*
X510534Y463432D01*
X511022Y463106D01*
X511598Y462992D01*
X512175Y463106D01*
X512663Y463432D01*
X512989Y463921D01*
X513104Y464497D01*
X512989Y465073D01*
X512663Y465561D01*
X512175Y465887D01*
X511598Y466002D01*
D02*
G37*
G36*
X477000Y464294D02*
X476424Y464179D01*
X475935Y463853D01*
X475609Y463365D01*
X475494Y462788D01*
X475609Y462212D01*
X475935Y461724D01*
X476424Y461398D01*
X477000Y461283D01*
X477576Y461398D01*
X478064Y461724D01*
X478390Y462212D01*
X478505Y462788D01*
X478390Y463365D01*
X478064Y463853D01*
X477576Y464179D01*
X477000Y464294D01*
D02*
G37*
G36*
X515535Y462163D02*
X514959Y462049D01*
X514471Y461723D01*
X514145Y461234D01*
X514030Y460658D01*
X514145Y460082D01*
X514471Y459594D01*
X514959Y459268D01*
X515535Y459153D01*
X516112Y459268D01*
X516600Y459594D01*
X516926Y460082D01*
X517041Y460658D01*
X516926Y461234D01*
X516600Y461723D01*
X516112Y462049D01*
X515535Y462163D01*
D02*
G37*
G36*
X491073Y461847D02*
X490497Y461733D01*
X490009Y461406D01*
X487921Y459318D01*
X487595Y458830D01*
X487480Y458254D01*
X487595Y457678D01*
X487921Y457190D01*
X492793Y452318D01*
X493281Y451991D01*
X493857Y451877D01*
X494433Y451991D01*
X494922Y452318D01*
X497010Y454406D01*
X497336Y454894D01*
X497450Y455470D01*
X497336Y456046D01*
X497010Y456534D01*
X495372Y458172D01*
X495754Y458638D01*
X495877Y458557D01*
X496453Y458442D01*
X497029Y458557D01*
X497517Y458883D01*
X497844Y459371D01*
X497958Y459947D01*
X497844Y460523D01*
X497517Y461012D01*
X497029Y461338D01*
X496453Y461452D01*
X495877Y461338D01*
X495388Y461012D01*
X495062Y460523D01*
X494947Y459947D01*
X495062Y459371D01*
X495144Y459248D01*
X494678Y458866D01*
X492138Y461406D01*
X491649Y461733D01*
X491073Y461847D01*
D02*
G37*
G36*
X527850Y462726D02*
X520961D01*
X520385Y462612D01*
X519896Y462286D01*
X519570Y461797D01*
X519455Y461221D01*
Y458268D01*
X519570Y457692D01*
X519896Y457204D01*
X520385Y456878D01*
X520961Y456763D01*
X527850D01*
X528427Y456878D01*
X528915Y457204D01*
X529241Y457692D01*
X529356Y458268D01*
Y461221D01*
X529241Y461797D01*
X528915Y462286D01*
X528427Y462612D01*
X527850Y462726D01*
D02*
G37*
G36*
X548421Y459090D02*
X547845Y458976D01*
X547357Y458649D01*
X547031Y458161D01*
X546916Y457585D01*
X547031Y457009D01*
X547357Y456521D01*
X547845Y456194D01*
X548421Y456080D01*
X548997Y456194D01*
X549486Y456521D01*
X549812Y457009D01*
X549927Y457585D01*
X549812Y458161D01*
X549486Y458649D01*
X548997Y458976D01*
X548421Y459090D01*
D02*
G37*
G36*
X543303D02*
X542727Y458976D01*
X542239Y458649D01*
X541913Y458161D01*
X541798Y457585D01*
X541913Y457009D01*
X542239Y456521D01*
X542727Y456194D01*
X543303Y456080D01*
X543879Y456194D01*
X544368Y456521D01*
X544694Y457009D01*
X544808Y457585D01*
X544694Y458161D01*
X544368Y458649D01*
X543879Y458976D01*
X543303Y459090D01*
D02*
G37*
G36*
X506874Y456258D02*
X506298Y456143D01*
X505810Y455817D01*
X505483Y455329D01*
X505369Y454753D01*
X505483Y454177D01*
X505810Y453688D01*
X506298Y453362D01*
X506874Y453247D01*
X507450Y453362D01*
X507938Y453688D01*
X508265Y454177D01*
X508379Y454753D01*
X508265Y455329D01*
X507938Y455817D01*
X507450Y456143D01*
X506874Y456258D01*
D02*
G37*
G36*
X548410Y455175D02*
X547833Y455061D01*
X547345Y454734D01*
X547019Y454246D01*
X546904Y453670D01*
X547019Y453094D01*
X547345Y452606D01*
X547833Y452279D01*
X548410Y452165D01*
X548985Y452279D01*
X549474Y452606D01*
X549800Y453094D01*
X549915Y453670D01*
X549800Y454246D01*
X549474Y454734D01*
X548985Y455061D01*
X548410Y455175D01*
D02*
G37*
G36*
X543291D02*
X542715Y455061D01*
X542227Y454734D01*
X541901Y454246D01*
X541786Y453670D01*
X541901Y453094D01*
X542227Y452606D01*
X542715Y452279D01*
X543291Y452165D01*
X543867Y452279D01*
X544356Y452606D01*
X544682Y453094D01*
X544797Y453670D01*
X544682Y454246D01*
X544356Y454734D01*
X543867Y455061D01*
X543291Y455175D01*
D02*
G37*
G36*
X568873Y461847D02*
X568297Y461733D01*
X567809Y461406D01*
X565721Y459318D01*
X565395Y458830D01*
X565280Y458254D01*
X565395Y457678D01*
X565721Y457190D01*
X570593Y452318D01*
X571081Y451991D01*
X571657Y451877D01*
X572233Y451991D01*
X572722Y452318D01*
X574810Y454406D01*
X575136Y454894D01*
X575250Y455470D01*
X575136Y456046D01*
X574810Y456534D01*
X569938Y461406D01*
X569449Y461733D01*
X568873Y461847D01*
D02*
G37*
G36*
X557738D02*
X557162Y461733D01*
X556673Y461406D01*
X551802Y456534D01*
X551475Y456046D01*
X551361Y455470D01*
X551475Y454894D01*
X551802Y454406D01*
X553890Y452318D01*
X554378Y451991D01*
X554954Y451877D01*
X555530Y451991D01*
X556018Y452318D01*
X560890Y457190D01*
X561216Y457678D01*
X561331Y458254D01*
X561216Y458830D01*
X560890Y459318D01*
X558802Y461406D01*
X558314Y461733D01*
X557738Y461847D01*
D02*
G37*
G36*
X479938D02*
X479362Y461733D01*
X478873Y461406D01*
X474002Y456534D01*
X473675Y456046D01*
X473561Y455470D01*
X473675Y454894D01*
X474002Y454406D01*
X476089Y452318D01*
X476578Y451991D01*
X477154Y451877D01*
X477730Y451991D01*
X478218Y452318D01*
X483090Y457190D01*
X483416Y457678D01*
X483531Y458254D01*
X483416Y458830D01*
X483090Y459318D01*
X481002Y461406D01*
X480514Y461733D01*
X479938Y461847D01*
D02*
G37*
G36*
X501965Y453972D02*
X501389Y453858D01*
X500900Y453531D01*
X500574Y453043D01*
X500459Y452467D01*
X500574Y451891D01*
X500900Y451403D01*
X501389Y451076D01*
X501965Y450962D01*
X502541Y451076D01*
X503029Y451403D01*
X503355Y451891D01*
X503470Y452467D01*
X503355Y453043D01*
X503029Y453531D01*
X502541Y453858D01*
X501965Y453972D01*
D02*
G37*
G36*
X543291Y451238D02*
X542715Y451124D01*
X542227Y450797D01*
X541901Y450309D01*
X541786Y449733D01*
X541901Y449157D01*
X542227Y448669D01*
X542715Y448342D01*
X543291Y448228D01*
X543867Y448342D01*
X544356Y448669D01*
X544682Y449157D01*
X544797Y449733D01*
X544682Y450309D01*
X544356Y450797D01*
X543867Y451124D01*
X543291Y451238D01*
D02*
G37*
G36*
X548213Y451140D02*
X547637Y451025D01*
X547148Y450699D01*
X546822Y450211D01*
X546707Y449635D01*
X546822Y449058D01*
X547148Y448570D01*
X547637Y448244D01*
X548213Y448129D01*
X548789Y448244D01*
X549277Y448570D01*
X549603Y449058D01*
X549718Y449635D01*
X549603Y450211D01*
X549277Y450699D01*
X548789Y451025D01*
X548213Y451140D01*
D02*
G37*
G36*
X474591Y448778D02*
X474015Y448663D01*
X473526Y448337D01*
X473200Y447848D01*
X473085Y447272D01*
X473200Y446696D01*
X473526Y446208D01*
X473787Y446033D01*
X473938Y445586D01*
X473630Y445055D01*
X472868D01*
X472868Y445055D01*
X472254Y444933D01*
X471733Y444585D01*
X471695Y444547D01*
X471347Y444026D01*
X471225Y443412D01*
X471347Y442797D01*
X471695Y442276D01*
X472216Y441928D01*
X472831Y441806D01*
X473020Y441844D01*
X474598D01*
X474598Y441844D01*
X475213Y441966D01*
X475269Y442003D01*
X478873Y438398D01*
X479362Y438072D01*
X479938Y437957D01*
X480514Y438072D01*
X481002Y438398D01*
X483090Y440486D01*
X483416Y440975D01*
X483531Y441551D01*
X483416Y442127D01*
X483090Y442615D01*
X478218Y447487D01*
X477730Y447813D01*
X477154Y447928D01*
X476599Y447817D01*
X476567Y447814D01*
X475981Y447848D01*
X475880Y448000D01*
X475655Y448337D01*
X475167Y448663D01*
X474591Y448778D01*
D02*
G37*
G36*
X541126Y447990D02*
X540550Y447876D01*
X540062Y447549D01*
X539735Y447061D01*
X539621Y446485D01*
X539735Y445909D01*
X540062Y445421D01*
X540550Y445094D01*
X541126Y444980D01*
X541702Y445094D01*
X542190Y445421D01*
X542517Y445909D01*
X542631Y446485D01*
X542517Y447061D01*
X542190Y447549D01*
X541702Y447876D01*
X541126Y447990D01*
D02*
G37*
G36*
X535331Y454852D02*
X532378D01*
X531802Y454738D01*
X531314Y454412D01*
X530987Y453923D01*
X530873Y453347D01*
Y446457D01*
X530987Y445881D01*
X531314Y445393D01*
X531802Y445067D01*
X532378Y444952D01*
X535331D01*
X535907Y445067D01*
X536395Y445393D01*
X536722Y445881D01*
X536836Y446457D01*
Y453347D01*
X536722Y453923D01*
X536395Y454412D01*
X535907Y454738D01*
X535331Y454852D01*
D02*
G37*
G36*
X516039D02*
X513087D01*
X512511Y454738D01*
X512022Y454412D01*
X511696Y453923D01*
X511581Y453347D01*
Y446457D01*
X511696Y445881D01*
X512022Y445393D01*
X512511Y445067D01*
X513087Y444952D01*
X516039D01*
X516615Y445067D01*
X517104Y445393D01*
X517430Y445881D01*
X517545Y446457D01*
Y453347D01*
X517430Y453923D01*
X517104Y454412D01*
X516615Y454738D01*
X516039Y454852D01*
D02*
G37*
G36*
X493579Y448206D02*
X493003Y448092D01*
X492514Y447765D01*
X487643Y442893D01*
X487316Y442405D01*
X487202Y441829D01*
X487316Y441253D01*
X487643Y440765D01*
X489731Y438677D01*
X490219Y438350D01*
X490795Y438236D01*
X491371Y438350D01*
X491859Y438677D01*
X496731Y443548D01*
X497057Y444037D01*
X497124Y444370D01*
X497634Y444269D01*
X498210Y444383D01*
X498698Y444710D01*
X499025Y445198D01*
X499139Y445774D01*
X499025Y446350D01*
X498698Y446838D01*
X498210Y447165D01*
X497634Y447279D01*
X497058Y447165D01*
X496569Y446838D01*
X496509Y446748D01*
X495741Y446667D01*
X494643Y447765D01*
X494155Y448092D01*
X493579Y448206D01*
D02*
G37*
G36*
X544669Y446022D02*
X544093Y445907D01*
X543605Y445581D01*
X543279Y445092D01*
X543164Y444517D01*
X543279Y443940D01*
X543605Y443452D01*
X544093Y443126D01*
X544669Y443011D01*
X545245Y443126D01*
X545734Y443452D01*
X546060Y443940D01*
X546175Y444517D01*
X546060Y445092D01*
X545734Y445581D01*
X545245Y445907D01*
X544669Y446022D01*
D02*
G37*
G36*
X506693D02*
X506117Y445907D01*
X505629Y445581D01*
X505303Y445092D01*
X505188Y444517D01*
X505303Y443940D01*
X505629Y443452D01*
X506117Y443126D01*
X506693Y443011D01*
X507269Y443126D01*
X507758Y443452D01*
X508084Y443940D01*
X508199Y444517D01*
X508084Y445092D01*
X507758Y445581D01*
X507269Y445907D01*
X506693Y446022D01*
D02*
G37*
G36*
X498084Y442829D02*
X497508Y442714D01*
X497020Y442388D01*
X496694Y441900D01*
X496579Y441324D01*
X496694Y440747D01*
X497020Y440259D01*
X497508Y439933D01*
X498084Y439818D01*
X498660Y439933D01*
X499149Y440259D01*
X499475Y440747D01*
X499590Y441324D01*
X499475Y441900D01*
X499149Y442388D01*
X498660Y442714D01*
X498084Y442829D01*
D02*
G37*
G36*
X571379Y448206D02*
X570803Y448092D01*
X570314Y447765D01*
X565443Y442893D01*
X565116Y442405D01*
X565002Y441829D01*
X565116Y441253D01*
X565443Y440765D01*
X567530Y438677D01*
X568019Y438350D01*
X568595Y438236D01*
X569171Y438350D01*
X569659Y438677D01*
X574531Y443548D01*
X574857Y444037D01*
X574972Y444613D01*
X574857Y445189D01*
X574531Y445677D01*
X572443Y447765D01*
X571955Y448092D01*
X571379Y448206D01*
D02*
G37*
G36*
X554954Y447928D02*
X554378Y447813D01*
X553890Y447487D01*
X551802Y445399D01*
X551475Y444911D01*
X551361Y444335D01*
X551475Y443758D01*
X551802Y443270D01*
X554154Y440918D01*
X552983Y439746D01*
X552635Y439225D01*
X552513Y438611D01*
X552635Y437996D01*
X552983Y437476D01*
X553504Y437127D01*
X554118Y437005D01*
X554733Y437127D01*
X555254Y437476D01*
X556425Y438647D01*
X556673Y438398D01*
X557162Y438072D01*
X557738Y437957D01*
X558314Y438072D01*
X558802Y438398D01*
X560890Y440486D01*
X561216Y440975D01*
X561331Y441551D01*
X561216Y442127D01*
X560890Y442615D01*
X556018Y447487D01*
X555530Y447813D01*
X554954Y447928D01*
D02*
G37*
G36*
X498213Y438541D02*
X497637Y438427D01*
X497148Y438101D01*
X496822Y437612D01*
X496707Y437036D01*
X496822Y436460D01*
X497148Y435972D01*
X497637Y435645D01*
X498213Y435531D01*
X498789Y435645D01*
X499277Y435972D01*
X499603Y436460D01*
X499718Y437036D01*
X499603Y437612D01*
X499277Y438101D01*
X498789Y438427D01*
X498213Y438541D01*
D02*
G37*
G36*
X493576Y438323D02*
X493000Y438208D01*
X492511Y437882D01*
X492185Y437394D01*
X492070Y436818D01*
X492185Y436242D01*
X492511Y435753D01*
X493000Y435427D01*
X493576Y435312D01*
X494152Y435427D01*
X494640Y435753D01*
X494966Y436242D01*
X495081Y436818D01*
X494966Y437394D01*
X494640Y437882D01*
X494152Y438208D01*
X493576Y438323D01*
D02*
G37*
G36*
X527850Y443041D02*
X520961D01*
X520385Y442927D01*
X519896Y442601D01*
X519570Y442112D01*
X519455Y441536D01*
Y438583D01*
X519570Y438007D01*
X519896Y437519D01*
X520385Y437193D01*
X520961Y437078D01*
X524560D01*
Y435461D01*
X524682Y434847D01*
X525030Y434326D01*
X525551Y433978D01*
X526165Y433856D01*
X526780Y433978D01*
X527301Y434326D01*
X527649Y434847D01*
X527771Y435461D01*
Y437078D01*
X527850D01*
X528427Y437193D01*
X528915Y437519D01*
X529241Y438007D01*
X529356Y438583D01*
Y441536D01*
X529241Y442112D01*
X528915Y442601D01*
X528427Y442927D01*
X527850Y443041D01*
D02*
G37*
G36*
X534433Y433917D02*
X533819Y433795D01*
X533298Y433447D01*
X532147Y432297D01*
X531038Y433406D01*
X530549Y433733D01*
X529973Y433847D01*
X529397Y433733D01*
X528909Y433406D01*
X526821Y431318D01*
X526495Y430830D01*
X526380Y430254D01*
X526495Y429678D01*
X526821Y429190D01*
X531693Y424318D01*
X532181Y423991D01*
X532757Y423877D01*
X533333Y423991D01*
X533822Y424318D01*
X535910Y426406D01*
X536236Y426894D01*
X536350Y427470D01*
X536236Y428046D01*
X535910Y428535D01*
X534418Y430026D01*
X535569Y431176D01*
X535917Y431697D01*
X536039Y432312D01*
X535917Y432926D01*
X535569Y433447D01*
X535048Y433795D01*
X534433Y433917D01*
D02*
G37*
G36*
X499000Y434604D02*
X498424Y434490D01*
X497936Y434164D01*
X497609Y433675D01*
X497495Y433099D01*
X497609Y432523D01*
X497936Y432035D01*
X498424Y431708D01*
X499000Y431594D01*
X499576Y431708D01*
X500064Y432035D01*
X500391Y432523D01*
X500505Y433099D01*
X500391Y433675D01*
X500064Y434164D01*
X499576Y434490D01*
X499000Y434604D01*
D02*
G37*
G36*
X492823Y433571D02*
X492246Y433456D01*
X491758Y433130D01*
X491432Y432641D01*
X491317Y432065D01*
X491432Y431489D01*
X491758Y431001D01*
X492246Y430675D01*
X492823Y430560D01*
X493399Y430675D01*
X493887Y431001D01*
X494213Y431489D01*
X494328Y432065D01*
X494213Y432641D01*
X493887Y433130D01*
X493399Y433456D01*
X492823Y433571D01*
D02*
G37*
G36*
X504118Y433423D02*
X503542Y433309D01*
X503054Y432982D01*
X502727Y432494D01*
X502613Y431918D01*
X502727Y431342D01*
X503054Y430854D01*
X503542Y430527D01*
X504118Y430413D01*
X504694Y430527D01*
X505183Y430854D01*
X505509Y431342D01*
X505623Y431918D01*
X505509Y432494D01*
X505183Y432982D01*
X504694Y433309D01*
X504118Y433423D01*
D02*
G37*
G36*
X566750Y434726D02*
X559861D01*
X559285Y434612D01*
X558796Y434286D01*
X558470Y433797D01*
X558355Y433221D01*
Y430268D01*
X558470Y429692D01*
X558796Y429204D01*
X559285Y428878D01*
X559861Y428763D01*
X566750D01*
X567326Y428878D01*
X567815Y429204D01*
X568141Y429692D01*
X568256Y430268D01*
Y433221D01*
X568141Y433797D01*
X567815Y434286D01*
X567326Y434612D01*
X566750Y434726D01*
D02*
G37*
G36*
X488950D02*
X482061D01*
X481485Y434612D01*
X480996Y434286D01*
X480670Y433797D01*
X480555Y433221D01*
Y430268D01*
X480670Y429692D01*
X480996Y429204D01*
X481485Y428878D01*
X482061Y428763D01*
X488950D01*
X489527Y428878D01*
X490015Y429204D01*
X490341Y429692D01*
X490456Y430268D01*
Y433221D01*
X490341Y433797D01*
X490015Y434286D01*
X489527Y434612D01*
X488950Y434726D01*
D02*
G37*
G36*
X519116Y433569D02*
X518540Y433454D01*
X518052Y433128D01*
X513180Y428256D01*
X512854Y427768D01*
X512739Y427192D01*
X512854Y426616D01*
X513180Y426127D01*
X515268Y424039D01*
X515756Y423713D01*
X516332Y423598D01*
X516908Y423713D01*
X517397Y424039D01*
X522268Y428911D01*
X522595Y429399D01*
X522709Y429976D01*
X522595Y430552D01*
X522268Y431040D01*
X520181Y433128D01*
X519692Y433454D01*
X519116Y433569D01*
D02*
G37*
G36*
X574624Y426853D02*
X571672D01*
X571096Y426738D01*
X570607Y426412D01*
X570281Y425923D01*
X570166Y425347D01*
Y418457D01*
X570281Y417881D01*
X570607Y417393D01*
X571096Y417067D01*
X571672Y416952D01*
X574624D01*
X575201Y417067D01*
X575689Y417393D01*
X576015Y417881D01*
X576130Y418457D01*
Y425347D01*
X576015Y425923D01*
X575689Y426412D01*
X575201Y426738D01*
X574624Y426853D01*
D02*
G37*
G36*
X552457Y428869D02*
X551842Y428746D01*
X551321Y428398D01*
X550973Y427877D01*
X550851Y427263D01*
Y426305D01*
X550596Y425923D01*
X550481Y425347D01*
Y418457D01*
X550596Y417881D01*
X550922Y417393D01*
X551411Y417067D01*
X551987Y416952D01*
X554939D01*
X555515Y417067D01*
X556004Y417393D01*
X556330Y417881D01*
X556445Y418457D01*
Y425347D01*
X556330Y425923D01*
X556004Y426412D01*
X555515Y426738D01*
X554939Y426853D01*
X554062D01*
Y427263D01*
X553940Y427877D01*
X553592Y428398D01*
X553071Y428746D01*
X552457Y428869D01*
D02*
G37*
G36*
X495457Y429486D02*
X494881Y429372D01*
X494392Y429045D01*
X494066Y428557D01*
X493951Y427981D01*
X494057Y427453D01*
X494047Y427352D01*
X494019Y427270D01*
X493732Y426825D01*
X493296Y426738D01*
X492807Y426412D01*
X492481Y425923D01*
X492366Y425347D01*
Y418457D01*
X492481Y417881D01*
X492807Y417393D01*
X493296Y417067D01*
X493872Y416952D01*
X496824D01*
X497401Y417067D01*
X497889Y417393D01*
X498215Y417881D01*
X498330Y418457D01*
Y425347D01*
X498215Y425923D01*
X497889Y426412D01*
X497401Y426738D01*
X497156Y426787D01*
X496852Y427396D01*
X496854Y427440D01*
X496962Y427981D01*
X496847Y428557D01*
X496521Y429045D01*
X496033Y429372D01*
X495457Y429486D01*
D02*
G37*
G36*
X470406Y441505D02*
X469830Y441390D01*
X469341Y441064D01*
X469015Y440576D01*
X468900Y440000D01*
X469015Y439424D01*
X469341Y438935D01*
X469561Y438788D01*
Y438097D01*
X469341Y437950D01*
X469015Y437462D01*
X468900Y436885D01*
X469015Y436309D01*
X469341Y435821D01*
X469366Y435805D01*
Y435083D01*
X469341Y435067D01*
X469015Y434578D01*
X468900Y434002D01*
X469015Y433426D01*
X469341Y432938D01*
X469453Y432863D01*
Y432141D01*
X469341Y432067D01*
X469015Y431578D01*
X468900Y431002D01*
X469015Y430426D01*
X469341Y429938D01*
X469453Y429863D01*
Y429142D01*
X469341Y429067D01*
X469015Y428578D01*
X468900Y428002D01*
X469015Y427426D01*
X469341Y426938D01*
X469453Y426863D01*
Y426142D01*
X469341Y426067D01*
X469015Y425578D01*
X468900Y425002D01*
X469015Y424426D01*
X469341Y423938D01*
X469365Y423922D01*
Y423201D01*
X469270Y423138D01*
X468922Y422617D01*
X468800Y422002D01*
X468922Y421388D01*
X469270Y420867D01*
X469365Y420804D01*
Y420082D01*
X469341Y420067D01*
X469015Y419578D01*
X468900Y419002D01*
X469015Y418426D01*
X469341Y417938D01*
X469830Y417612D01*
X470406Y417497D01*
X470982Y417612D01*
X471470Y417938D01*
X471796Y418426D01*
X471911Y419002D01*
X471796Y419578D01*
X471650Y419797D01*
X471971Y420397D01*
X472681D01*
Y418457D01*
X472796Y417881D01*
X473122Y417393D01*
X473611Y417067D01*
X474187Y416952D01*
X477139D01*
X477715Y417067D01*
X478204Y417393D01*
X478530Y417881D01*
X478645Y418457D01*
Y425347D01*
X478530Y425923D01*
X478204Y426412D01*
X477715Y426738D01*
X477139Y426853D01*
X474187D01*
X473611Y426738D01*
X473122Y426412D01*
X472796Y425923D01*
X472681Y425347D01*
Y423608D01*
X471971D01*
X471650Y424208D01*
X471796Y424426D01*
X471911Y425002D01*
X471796Y425578D01*
X471470Y426067D01*
X471358Y426142D01*
Y426863D01*
X471470Y426938D01*
X471796Y427426D01*
X471911Y428002D01*
X471796Y428578D01*
X471470Y429067D01*
X471358Y429142D01*
Y429863D01*
X471470Y429938D01*
X471796Y430426D01*
X471911Y431002D01*
X471796Y431578D01*
X471470Y432067D01*
X471358Y432141D01*
Y432863D01*
X471470Y432938D01*
X471796Y433426D01*
X471911Y434002D01*
X471796Y434578D01*
X471470Y435067D01*
X471445Y435083D01*
Y435805D01*
X471470Y435821D01*
X471796Y436309D01*
X471911Y436885D01*
X471796Y437462D01*
X471470Y437950D01*
X471250Y438097D01*
Y438788D01*
X471470Y438935D01*
X471796Y439424D01*
X471911Y440000D01*
X471796Y440576D01*
X471470Y441064D01*
X470982Y441390D01*
X470406Y441505D01*
D02*
G37*
G36*
X532757Y419928D02*
X532181Y419813D01*
X531693Y419487D01*
X526821Y414615D01*
X526495Y414127D01*
X526380Y413551D01*
X526495Y412975D01*
X526821Y412486D01*
X528909Y410398D01*
X529397Y410072D01*
X529973Y409957D01*
X530549Y410072D01*
X531038Y410398D01*
X535910Y415270D01*
X536236Y415759D01*
X536350Y416334D01*
X536236Y416911D01*
X535910Y417399D01*
X533822Y419487D01*
X533333Y419813D01*
X532757Y419928D01*
D02*
G37*
G36*
X516054D02*
X515478Y419813D01*
X514990Y419487D01*
X512902Y417399D01*
X512575Y416911D01*
X512461Y416334D01*
X512575Y415759D01*
X512902Y415270D01*
X517773Y410398D01*
X518262Y410072D01*
X518838Y409957D01*
X519414Y410072D01*
X519902Y410398D01*
X521990Y412486D01*
X522316Y412975D01*
X522431Y413551D01*
X522316Y414127D01*
X521990Y414615D01*
X517118Y419487D01*
X516630Y419813D01*
X516054Y419928D01*
D02*
G37*
G36*
X566750Y415435D02*
X559861D01*
X559285Y415321D01*
X558796Y414994D01*
X558470Y414506D01*
X558355Y413930D01*
Y410977D01*
X558470Y410401D01*
X558796Y409913D01*
X559285Y409586D01*
X559861Y409472D01*
X566750D01*
X567326Y409586D01*
X567815Y409913D01*
X568141Y410401D01*
X568256Y410977D01*
Y413930D01*
X568141Y414506D01*
X567815Y414994D01*
X567326Y415321D01*
X566750Y415435D01*
D02*
G37*
G36*
X488950D02*
X482061D01*
X481485Y415321D01*
X480996Y414994D01*
X480670Y414506D01*
X480555Y413930D01*
Y410977D01*
X480670Y410401D01*
X480996Y409913D01*
X481485Y409586D01*
X482061Y409472D01*
X488950D01*
X489527Y409586D01*
X490015Y409913D01*
X490341Y410401D01*
X490456Y410977D01*
Y413930D01*
X490341Y414506D01*
X490015Y414994D01*
X489527Y415321D01*
X488950Y415435D01*
D02*
G37*
G36*
X475772Y409341D02*
X475196Y409226D01*
X474707Y408900D01*
X474381Y408412D01*
X474266Y407836D01*
X474381Y407260D01*
X474707Y406771D01*
X475196Y406445D01*
X475772Y406330D01*
X476348Y406445D01*
X476836Y406771D01*
X477162Y407260D01*
X477277Y407836D01*
X477162Y408412D01*
X476836Y408900D01*
X476348Y409226D01*
X475772Y409341D01*
D02*
G37*
G36*
X471736Y409014D02*
X471160Y408899D01*
X470672Y408573D01*
X470346Y408085D01*
X470231Y407509D01*
X470346Y406932D01*
X470672Y406444D01*
X471160Y406118D01*
X471736Y406003D01*
X472312Y406118D01*
X472801Y406444D01*
X473127Y406932D01*
X473242Y407509D01*
X473127Y408085D01*
X472801Y408573D01*
X472312Y408899D01*
X471736Y409014D01*
D02*
G37*
G36*
X493500Y407856D02*
X492924Y407742D01*
X492436Y407415D01*
X492109Y406927D01*
X492044Y406598D01*
X491257Y405811D01*
X491073Y405847D01*
X490497Y405733D01*
X490009Y405406D01*
X487921Y403318D01*
X487595Y402830D01*
X487480Y402254D01*
X487595Y401678D01*
X487921Y401190D01*
X492793Y396318D01*
X493281Y395991D01*
X493857Y395877D01*
X494433Y395991D01*
X494922Y396318D01*
X497010Y398406D01*
X497336Y398894D01*
X497450Y399470D01*
X497336Y400046D01*
X497010Y400534D01*
X493198Y404346D01*
X493747Y404895D01*
X494076Y404960D01*
X494564Y405287D01*
X494891Y405775D01*
X495005Y406351D01*
X494891Y406927D01*
X494564Y407415D01*
X494076Y407742D01*
X493500Y407856D01*
D02*
G37*
G36*
X518838Y405847D02*
X518262Y405733D01*
X517773Y405406D01*
X515101Y402734D01*
X513521Y404313D01*
X513000Y404661D01*
X512386Y404784D01*
X511771Y404661D01*
X511250Y404313D01*
X510902Y403792D01*
X510780Y403178D01*
X510902Y402563D01*
X511250Y402042D01*
X512844Y400449D01*
X512575Y400046D01*
X512461Y399470D01*
X512575Y398894D01*
X512902Y398406D01*
X514990Y396318D01*
X515478Y395991D01*
X516054Y395877D01*
X516630Y395991D01*
X517118Y396318D01*
X521990Y401190D01*
X522316Y401678D01*
X522431Y402254D01*
X522316Y402830D01*
X521990Y403318D01*
X519902Y405406D01*
X519414Y405733D01*
X518838Y405847D01*
D02*
G37*
G36*
X543906Y413740D02*
X542395Y413541D01*
X540987Y412958D01*
X539778Y412030D01*
X538850Y410821D01*
X538267Y409413D01*
X538068Y407902D01*
X538267Y406391D01*
X538850Y404984D01*
X539778Y403775D01*
X540987Y402847D01*
X542395Y402264D01*
X543906Y402065D01*
X545416Y402264D01*
X546824Y402847D01*
X548033Y403775D01*
X548961Y404984D01*
X549544Y406391D01*
X549743Y407902D01*
X549544Y409413D01*
X548961Y410821D01*
X548033Y412030D01*
X546824Y412958D01*
X545416Y413541D01*
X543906Y413740D01*
D02*
G37*
G36*
X504906D02*
X503395Y413541D01*
X501987Y412958D01*
X500778Y412030D01*
X499850Y410821D01*
X499267Y409413D01*
X499068Y407902D01*
X499267Y406391D01*
X499850Y404984D01*
X500778Y403775D01*
X501987Y402847D01*
X503395Y402264D01*
X504906Y402065D01*
X506416Y402264D01*
X507824Y402847D01*
X509033Y403775D01*
X509961Y404984D01*
X510544Y406391D01*
X510743Y407902D01*
X510544Y409413D01*
X509961Y410821D01*
X509033Y412030D01*
X507824Y412958D01*
X506416Y413541D01*
X504906Y413740D01*
D02*
G37*
G36*
X480216Y405569D02*
X479640Y405454D01*
X479152Y405128D01*
X474280Y400256D01*
X473954Y399768D01*
X473839Y399192D01*
X473467Y399160D01*
X473410Y399171D01*
X472833Y399057D01*
X472345Y398730D01*
X472019Y398242D01*
X471904Y397666D01*
X472019Y397090D01*
X472345Y396602D01*
X472833Y396275D01*
X473410Y396161D01*
X473985Y396275D01*
X474474Y396602D01*
X474667Y396891D01*
X475357Y397050D01*
X476368Y396039D01*
X476856Y395713D01*
X477432Y395599D01*
X478008Y395713D01*
X478497Y396039D01*
X483368Y400911D01*
X483695Y401400D01*
X483809Y401976D01*
X483695Y402552D01*
X483368Y403040D01*
X481281Y405128D01*
X480792Y405454D01*
X480216Y405569D01*
D02*
G37*
G36*
X568873Y405847D02*
X568297Y405733D01*
X567809Y405406D01*
X565721Y403318D01*
X565395Y402830D01*
X565280Y402254D01*
X565395Y401678D01*
X565721Y401190D01*
X570593Y396318D01*
X571081Y395991D01*
X571657Y395877D01*
X572233Y395991D01*
X572722Y396318D01*
X574268Y397864D01*
X575203D01*
X575363Y397758D01*
X575978Y397635D01*
X576031D01*
X576645Y397758D01*
X577166Y398106D01*
X577514Y398626D01*
X577636Y399241D01*
X577514Y399855D01*
X577166Y400376D01*
X577006Y400484D01*
X576884Y400605D01*
X576363Y400953D01*
X575748Y401076D01*
X575748Y401076D01*
X574268D01*
X569938Y405406D01*
X569449Y405733D01*
X568873Y405847D01*
D02*
G37*
G36*
X529973D02*
X529397Y405733D01*
X528909Y405406D01*
X526821Y403318D01*
X526495Y402830D01*
X526380Y402254D01*
X526495Y401678D01*
X526821Y401190D01*
X531693Y396318D01*
X532181Y395991D01*
X532757Y395877D01*
X533333Y395991D01*
X533822Y396318D01*
X535910Y398406D01*
X536236Y398894D01*
X536350Y399470D01*
X536236Y400046D01*
X535910Y400534D01*
X531038Y405406D01*
X530549Y405733D01*
X529973Y405847D01*
D02*
G37*
G36*
X558016Y405569D02*
X557440Y405454D01*
X556952Y405128D01*
X552080Y400256D01*
X551754Y399768D01*
X551639Y399192D01*
X551754Y398616D01*
X552080Y398127D01*
X554168Y396039D01*
X554656Y395713D01*
X555232Y395599D01*
X555808Y395713D01*
X556297Y396039D01*
X561168Y400911D01*
X561495Y401400D01*
X561609Y401976D01*
X561495Y402552D01*
X561168Y403040D01*
X559081Y405128D01*
X558592Y405454D01*
X558016Y405569D01*
D02*
G37*
G36*
X516332Y392206D02*
X515756Y392092D01*
X515268Y391765D01*
X513180Y389677D01*
X512854Y389189D01*
X512739Y388613D01*
X512854Y388037D01*
X513180Y387548D01*
X518052Y382677D01*
X518540Y382350D01*
X519116Y382236D01*
X519692Y382350D01*
X520181Y382677D01*
X522268Y384765D01*
X522595Y385253D01*
X522709Y385829D01*
X522595Y386405D01*
X522268Y386893D01*
X517397Y391765D01*
X516908Y392092D01*
X516332Y392206D01*
D02*
G37*
G36*
X532757Y391928D02*
X532181Y391813D01*
X531693Y391487D01*
X526821Y386615D01*
X526495Y386127D01*
X526380Y385551D01*
X526495Y384975D01*
X526821Y384486D01*
X528909Y382398D01*
X529397Y382072D01*
X529973Y381957D01*
X530549Y382072D01*
X531038Y382398D01*
X535910Y387270D01*
X536236Y387758D01*
X536350Y388334D01*
X536236Y388911D01*
X535910Y389399D01*
X533822Y391487D01*
X533333Y391813D01*
X532757Y391928D01*
D02*
G37*
%LPD*%
G36*
X524012Y622321D02*
X523993Y622229D01*
Y619396D01*
X518912D01*
Y622229D01*
X518894Y622321D01*
Y622560D01*
X518799Y622654D01*
X518633Y622903D01*
X518370Y623079D01*
X517798Y623644D01*
X517821Y625302D01*
X524012D01*
Y622321D01*
D02*
G37*
D11*
X465929Y789791D02*
Y785856D01*
X468553D01*
X469865D02*
X471177D01*
X470521D01*
Y789791D01*
X469865Y789136D01*
X477080Y787824D02*
X479704D01*
X484952Y785856D02*
Y789791D01*
X486920D01*
X487576Y789136D01*
Y787824D01*
X486920Y787168D01*
X484952D01*
X488888Y785856D02*
Y789791D01*
X490856D01*
X491511Y789136D01*
Y787824D01*
X490856Y787168D01*
X488888D01*
X490200D02*
X491511Y785856D01*
X492823Y789791D02*
X494135D01*
X493479D01*
Y785856D01*
X492823D01*
X494135D01*
X496103D02*
Y789791D01*
X497415Y788480D01*
X498727Y789791D01*
Y785856D01*
X500039D02*
Y788480D01*
X501351Y789791D01*
X502663Y788480D01*
Y785856D01*
Y787824D01*
X500039D01*
X503975Y785856D02*
Y789791D01*
X505942D01*
X506599Y789136D01*
Y787824D01*
X505942Y787168D01*
X503975D01*
X505287D02*
X506599Y785856D01*
X507910Y789791D02*
Y789136D01*
X509222Y787824D01*
X510534Y789136D01*
Y789791D01*
X509222Y787824D02*
Y785856D01*
X518406Y789136D02*
X517750Y789791D01*
X516438D01*
X515782Y789136D01*
Y788480D01*
X516438Y787824D01*
X517750D01*
X518406Y787168D01*
Y786512D01*
X517750Y785856D01*
X516438D01*
X515782Y786512D01*
X519718Y789791D02*
X521030D01*
X520374D01*
Y785856D01*
X519718D01*
X521030D01*
X522997Y789791D02*
Y785856D01*
X524965D01*
X525621Y786512D01*
Y789136D01*
X524965Y789791D01*
X522997D01*
X529557D02*
X526933D01*
Y785856D01*
X529557D01*
X526933Y787824D02*
X528245D01*
D12*
X491347Y403554D02*
X493300Y401600D01*
X491347Y404197D02*
X493500Y406351D01*
X491347Y403554D02*
Y404197D01*
X548508Y499478D02*
X548658Y499628D01*
X472251Y710133D02*
Y710244D01*
X525587Y620998D02*
Y623761D01*
X526706Y624880D01*
X528084D01*
X528232Y625028D01*
X525390Y620801D02*
X525587Y620998D01*
X536909Y728488D02*
X539273D01*
X540445Y729661D01*
Y732415D01*
X541890Y733860D02*
Y740018D01*
X540445Y732415D02*
X541890Y733860D01*
X534433Y726013D02*
X536909Y728488D01*
X530705Y610341D02*
Y614523D01*
X529524Y615704D02*
X530705Y614523D01*
X529524Y615704D02*
Y620605D01*
X529327Y620801D02*
X529524Y620605D01*
X528134Y613808D02*
Y614074D01*
X527358Y614850D02*
Y620801D01*
X527358Y620801D02*
X527358Y620801D01*
Y614850D02*
X528134Y614074D01*
X533202Y613858D02*
Y615432D01*
X531295Y617339D02*
X533202Y615432D01*
Y613858D02*
X533252Y613808D01*
X531295Y617339D02*
Y620801D01*
X533264Y618018D02*
X534324Y616957D01*
X536008D01*
X533264Y618018D02*
Y620801D01*
X536795Y740580D02*
X538202Y741987D01*
X539921D01*
X542386Y715980D02*
Y716246D01*
Y715980D02*
X543377Y714989D01*
Y713211D02*
Y714989D01*
Y713211D02*
X543488Y713099D01*
X542683Y717910D02*
X543303Y718530D01*
X542683Y717580D02*
Y717910D01*
X542542Y717439D02*
X542683Y717580D01*
X542542Y716402D02*
Y717439D01*
X542386Y716246D02*
X542542Y716402D01*
X536795Y713493D02*
X537189Y713099D01*
X536795Y713493D02*
Y715776D01*
X534039Y713099D02*
Y715776D01*
X539945Y713493D02*
X540339Y713099D01*
X539945Y713493D02*
Y715383D01*
X516376Y713332D02*
Y715349D01*
X516138Y715586D02*
Y715853D01*
X516376Y713332D02*
X516532Y713175D01*
X516138Y715586D02*
X516376Y715349D01*
X512988Y713175D02*
X513144Y713332D01*
Y715349D01*
X513382Y715586D01*
Y715853D01*
X520075Y713175D02*
Y715853D01*
D13*
X526965Y741002D02*
D03*
X521846D02*
D03*
X510465D02*
D03*
X505346D02*
D03*
D14*
X537791Y730813D02*
D03*
X534484D02*
D03*
D15*
X537189Y709792D02*
D03*
X516532Y709868D02*
D03*
X534039Y709792D02*
D03*
X540339D02*
D03*
X543488D02*
D03*
X512988Y709868D02*
D03*
X520075D02*
D03*
X543303Y721837D02*
D03*
Y718530D02*
D03*
X516532Y713175D02*
D03*
X512988D02*
D03*
X540339Y713099D02*
D03*
X537189D02*
D03*
X520075Y713175D02*
D03*
X534039Y713099D02*
D03*
X543488D02*
D03*
D16*
X539921Y740018D02*
D03*
X541890D02*
D03*
Y741987D02*
D03*
X539921D02*
D03*
D17*
X515547Y620801D02*
D03*
X517516D02*
D03*
X519484D02*
D03*
X521453D02*
D03*
X523421D02*
D03*
X525390D02*
D03*
X527358D02*
D03*
X529327D02*
D03*
X531295D02*
D03*
X533264D02*
D03*
D18*
X511807Y610172D02*
D03*
X537004D02*
D03*
D32*
X570265Y400862D02*
D03*
X556346Y386943D02*
D03*
X517724Y387221D02*
D03*
X531365Y400862D02*
D03*
X469446Y529443D02*
D03*
X483365Y543362D02*
D03*
X531365Y428862D02*
D03*
X517446Y414943D02*
D03*
X556346Y442943D02*
D03*
X570265Y456862D02*
D03*
X478546Y442943D02*
D03*
X492465Y456862D02*
D03*
X517446Y470943D02*
D03*
X531365Y484862D02*
D03*
X492465Y400862D02*
D03*
X478546Y386943D02*
D03*
X565477Y529443D02*
D03*
X579397Y543362D02*
D03*
X517724Y549721D02*
D03*
X531365Y563362D02*
D03*
X517446Y509443D02*
D03*
X531365Y523362D02*
D03*
D33*
X556624Y400584D02*
D03*
X570265Y386943D02*
D03*
X517446Y400862D02*
D03*
X531365Y386943D02*
D03*
X483087Y529721D02*
D03*
X469446Y543362D02*
D03*
X517724Y428584D02*
D03*
X531365Y414943D02*
D03*
X569987Y443221D02*
D03*
X556346Y456862D02*
D03*
X492187Y443221D02*
D03*
X478546Y456862D02*
D03*
X531087Y471221D02*
D03*
X517446Y484862D02*
D03*
X478824Y400584D02*
D03*
X492465Y386943D02*
D03*
X579118Y529721D02*
D03*
X565477Y543362D02*
D03*
X517446Y563362D02*
D03*
X531365Y549443D02*
D03*
X531087Y509721D02*
D03*
X517446Y523362D02*
D03*
D34*
X563306Y393902D02*
D03*
X524405D02*
D03*
X476406Y536402D02*
D03*
X563306Y421902D02*
D03*
X524405D02*
D03*
X485506D02*
D03*
X563306Y449902D02*
D03*
X524405D02*
D03*
X485506D02*
D03*
X563306Y477902D02*
D03*
X524405D02*
D03*
X485506D02*
D03*
Y393902D02*
D03*
X572437Y536402D02*
D03*
X524405Y556402D02*
D03*
X504405Y536402D02*
D03*
X524405Y516402D02*
D03*
X544406Y536402D02*
D03*
D35*
X553463Y421902D02*
D03*
X573148D02*
D03*
X475663D02*
D03*
X495348D02*
D03*
X533854Y449902D02*
D03*
X514563D02*
D03*
X553463Y477902D02*
D03*
X573148D02*
D03*
X494954D02*
D03*
X475663D02*
D03*
X513854Y536402D02*
D03*
X494563D02*
D03*
X553854D02*
D03*
X534563D02*
D03*
D36*
X563306Y412454D02*
D03*
Y431745D02*
D03*
X485506Y412454D02*
D03*
Y431745D02*
D03*
X524405Y440060D02*
D03*
Y459745D02*
D03*
X563306Y468454D02*
D03*
Y487745D02*
D03*
X485506Y468060D02*
D03*
Y487745D02*
D03*
X504405Y526560D02*
D03*
Y546245D02*
D03*
X544406Y526560D02*
D03*
Y546245D02*
D03*
D37*
X468894Y730420D02*
D03*
X579917Y567784D02*
D03*
X524197Y373650D02*
D03*
D38*
X561311Y529200D02*
X562680Y530569D01*
X560024Y529162D02*
X560061Y529200D01*
X562680Y530569D02*
X564642Y528607D01*
X560061Y529200D02*
X561311D01*
X546041Y526560D02*
X547223Y525379D01*
Y521128D02*
X548213Y520138D01*
X544406Y526560D02*
X546041D01*
X547223Y521128D02*
Y525379D01*
X548213Y520107D02*
Y520138D01*
X470406Y422002D02*
X475563D01*
X475663Y421902D01*
X472831Y443412D02*
X472868Y443449D01*
X474598D01*
X475484Y444335D01*
X477711Y442107D01*
X477711D01*
X485195Y466879D02*
X485350Y467034D01*
X480156Y466170D02*
X480864Y466879D01*
X485195D01*
X480102Y466170D02*
X480156D01*
X571657Y399470D02*
X575748D01*
X570265Y400862D02*
X571657Y399470D01*
X575748D02*
X575978Y399241D01*
X576031D01*
X470747Y526471D02*
X470838Y526380D01*
X469116Y524082D02*
Y524659D01*
X470838Y526380D01*
X470747Y526471D02*
Y526471D01*
X469079Y524044D02*
X469116Y524082D01*
X517968Y565554D02*
Y566100D01*
X515929Y568139D02*
X517968Y566100D01*
X516611Y564197D02*
X517968Y565554D01*
X515929Y568139D02*
X515929D01*
X513961Y506721D02*
X515956Y508716D01*
X516502D01*
X516611Y508607D01*
X515318Y400598D02*
X516717Y401997D01*
X512386Y403178D02*
X514965Y400598D01*
X515318D01*
X505700Y526560D02*
X507268Y524993D01*
X504405Y526560D02*
X505700D01*
X507268Y522469D02*
Y524993D01*
X514619Y471553D02*
X515165D01*
X511992Y468926D02*
X514619Y471553D01*
X515165D02*
X516611Y470107D01*
X554118Y438611D02*
X556346Y440839D01*
Y442943D01*
X524598Y440060D02*
X526165Y438492D01*
X524405Y440060D02*
X524598D01*
X526165Y435461D02*
Y438492D01*
X531365Y429244D02*
X534433Y432312D01*
X531365Y428862D02*
Y429244D01*
X552282Y477902D02*
X553331Y476854D01*
Y472863D02*
Y476854D01*
X512947Y709909D02*
X512988Y709868D01*
X512988D02*
X512988D01*
X510626Y709947D02*
X513382D01*
X512988Y709868D02*
X516532D01*
X510465Y741002D02*
X513906D01*
X516532Y709868D02*
X520075D01*
X537791Y730813D02*
X538028Y731049D01*
X537227Y709830D02*
X540300D01*
X540732Y709398D01*
Y707509D02*
Y709398D01*
X538488Y733925D02*
X538541Y733872D01*
X538028Y733358D02*
X538541Y733872D01*
X538028Y731049D02*
Y733358D01*
X540230Y709792D02*
X543488D01*
X537189D02*
X537227Y709830D01*
X536991Y709792D02*
X537189D01*
X536953Y709830D02*
X536991Y709792D01*
X534078Y709830D02*
X536953D01*
X534039Y709792D02*
X534078Y709830D01*
X511992Y468926D02*
X511992D01*
X552282Y421902D02*
X552457Y422077D01*
Y427263D01*
X505937Y739439D02*
X507083Y738294D01*
X505937Y739439D02*
Y740412D01*
X505346Y741002D02*
X505937Y740412D01*
X521650Y738294D02*
X521687Y738331D01*
Y740843D01*
X521846Y741002D01*
D39*
X539921Y735320D02*
Y740018D01*
X538764Y734162D02*
X539921Y735320D01*
D40*
X537189Y610357D02*
Y613020D01*
X537004Y610172D02*
X537189Y610357D01*
X511787Y613380D02*
X511797Y613370D01*
Y610182D02*
Y613370D01*
Y610182D02*
X511807Y610172D01*
D41*
X527358Y740215D02*
Y740609D01*
X529673Y737900D02*
Y737900D01*
X526965Y741002D02*
X527358Y740609D01*
Y740215D02*
X529673Y737900D01*
D42*
X548213Y520107D02*
D03*
X534433Y432312D02*
D03*
X578614Y450975D02*
D03*
X578408Y485876D02*
D03*
X553331Y472863D02*
D03*
X548028Y473727D02*
D03*
X530138Y676288D02*
D03*
X535220Y688611D02*
D03*
X533252Y665383D02*
D03*
X530656Y704320D02*
D03*
X540732Y707509D02*
D03*
X541520Y703572D02*
D03*
X510626Y709947D02*
D03*
X547425Y561052D02*
D03*
X576031Y399241D02*
D03*
X557661Y487824D02*
D03*
X545668Y558162D02*
D03*
X547819Y554753D02*
D03*
X546638Y551603D02*
D03*
X556874Y546583D02*
D03*
X562949Y524662D02*
D03*
X563567Y518139D02*
D03*
X573803Y531741D02*
D03*
X572622Y540973D02*
D03*
X561598Y539005D02*
D03*
X575969Y535363D02*
D03*
X520469Y528451D02*
D03*
X499000Y433099D02*
D03*
X514354Y444123D02*
D03*
X477740Y435068D02*
D03*
X484433Y438217D02*
D03*
X537583Y466564D02*
D03*
X534039Y464595D02*
D03*
X518681Y445231D02*
D03*
X527347Y538217D02*
D03*
X525378Y567745D02*
D03*
X539896Y559379D02*
D03*
X490732Y479162D02*
D03*
X491126Y470501D02*
D03*
X561205Y492942D02*
D03*
X526264Y487627D02*
D03*
X554413Y542548D02*
D03*
X549984Y546780D02*
D03*
X560910Y545501D02*
D03*
X563567Y548355D02*
D03*
X535516Y493237D02*
D03*
X533055Y496485D02*
D03*
X548658Y499628D02*
D03*
X526165Y435461D02*
D03*
X484039Y523257D02*
D03*
X544669Y444517D02*
D03*
X497634Y445774D02*
D03*
X474591Y447272D02*
D03*
X514563Y667034D02*
D03*
X482673Y723333D02*
D03*
X531099Y637900D02*
D03*
X544484Y476876D02*
D03*
X562310Y565985D02*
D03*
X557268Y494123D02*
D03*
X559236Y563414D02*
D03*
X522228Y666564D02*
D03*
X472251Y710244D02*
D03*
X518685Y668926D02*
D03*
X534642Y680420D02*
D03*
X525587Y714278D02*
D03*
X482673Y702861D02*
D03*
X489658Y694030D02*
D03*
X502752Y568609D02*
D03*
X513906Y741002D02*
D03*
X471421Y680549D02*
D03*
X500969Y474044D02*
D03*
X538579Y733963D02*
D03*
X563567Y500028D02*
D03*
X476559Y486643D02*
D03*
X470654Y550422D02*
D03*
X475378D02*
D03*
X570654Y487036D02*
D03*
X469473Y505934D02*
D03*
X541126Y446485D02*
D03*
X510024Y723257D02*
D03*
X548213Y449635D02*
D03*
X557268Y526406D02*
D03*
X481087Y568631D02*
D03*
X543303Y457585D02*
D03*
X543291Y449733D02*
D03*
Y453670D02*
D03*
X548421Y457585D02*
D03*
X548410Y453670D02*
D03*
X471835Y651997D02*
D03*
X511598Y479556D02*
D03*
X567898Y503572D02*
D03*
X471479Y502035D02*
D03*
X487976Y540186D02*
D03*
X560024Y516957D02*
D03*
X476559Y490973D02*
D03*
X473410Y397666D02*
D03*
X490833Y636680D02*
D03*
X475980Y652073D02*
D03*
X502740Y556820D02*
D03*
X510516Y555737D02*
D03*
X542701Y551209D02*
D03*
X534433Y554359D02*
D03*
X526953Y631918D02*
D03*
X490770Y664558D02*
D03*
X549787Y568139D02*
D03*
X545457Y572076D02*
D03*
X519866Y537036D02*
D03*
X548606Y505540D02*
D03*
X491520Y465383D02*
D03*
X560024Y450028D02*
D03*
X577740Y560264D02*
D03*
X509630Y398453D02*
D03*
X503252Y723178D02*
D03*
X506480Y718532D02*
D03*
X483799Y536249D02*
D03*
X512386Y403178D02*
D03*
X574591Y470501D02*
D03*
X531677Y440973D02*
D03*
X549000Y440580D02*
D03*
X506087Y504359D02*
D03*
X518685Y624044D02*
D03*
X517898Y576013D02*
D03*
X483449Y640875D02*
D03*
X486402Y643729D02*
D03*
X477000Y462788D02*
D03*
X528232Y625028D02*
D03*
X542996Y730737D02*
D03*
X542732Y724603D02*
D03*
X534433Y702390D02*
D03*
Y699635D02*
D03*
X546770Y514201D02*
D03*
X496912Y709018D02*
D03*
X504118Y431918D02*
D03*
X498213Y437036D02*
D03*
X498084Y441324D02*
D03*
X560024Y529162D02*
D03*
X511992Y468926D02*
D03*
X482465Y670107D02*
D03*
X536008Y616957D02*
D03*
X537189Y613020D02*
D03*
X533252Y613808D02*
D03*
X528134D02*
D03*
X530705Y610341D02*
D03*
X535220Y405934D02*
D03*
X549787Y413808D02*
D03*
X534827Y393335D02*
D03*
X563567Y405146D02*
D03*
Y438611D02*
D03*
X577347Y387036D02*
D03*
X570654Y408690D02*
D03*
X545850Y417351D02*
D03*
X554118Y413414D02*
D03*
X545457Y392548D02*
D03*
X552150Y406721D02*
D03*
X550969Y393335D02*
D03*
X541520Y398847D02*
D03*
X545457Y387036D02*
D03*
X540339Y392548D02*
D03*
X539551Y387036D02*
D03*
X519473Y579753D02*
D03*
X515929Y572371D02*
D03*
X548311Y424831D02*
D03*
X541126Y420993D02*
D03*
X536303Y435855D02*
D03*
X539748Y438906D02*
D03*
X556579Y434674D02*
D03*
X553921Y431032D02*
D03*
X534433Y726013D02*
D03*
X575772Y503965D02*
D03*
X573803Y495698D02*
D03*
X515929Y568139D02*
D03*
X503331Y501209D02*
D03*
X536795Y740580D02*
D03*
X491126Y488217D02*
D03*
X480102Y466170D02*
D03*
X513867Y514090D02*
D03*
X513961Y506721D02*
D03*
X517898Y502263D02*
D03*
X521047Y503178D02*
D03*
X508055Y500422D02*
D03*
X510417Y516170D02*
D03*
X519079Y498454D02*
D03*
X509236Y490973D02*
D03*
X512386Y494123D02*
D03*
X515929Y490580D02*
D03*
X512386Y487824D02*
D03*
X472228Y518926D02*
D03*
X474984Y522076D02*
D03*
X481677Y513808D02*
D03*
X481284Y518926D02*
D03*
X478134Y505934D02*
D03*
X481677Y508690D02*
D03*
X469866Y513808D02*
D03*
X469079Y524044D02*
D03*
X554118Y438611D02*
D03*
X481319Y624831D02*
D03*
X478921Y711052D02*
D03*
X490732Y684280D02*
D03*
X551756Y465383D02*
D03*
X552051Y434772D02*
D03*
X541126Y426800D02*
D03*
X549000Y429950D02*
D03*
X544276Y435855D02*
D03*
X547819Y433886D02*
D03*
X540339Y434674D02*
D03*
X544669Y429950D02*
D03*
X538764Y430343D02*
D03*
X477740Y499635D02*
D03*
X484039D02*
D03*
X560024Y520501D02*
D03*
X495457Y427981D02*
D03*
X566717Y553178D02*
D03*
X483493Y631948D02*
D03*
X515535Y460658D02*
D03*
X520703Y704334D02*
D03*
X552457Y427263D02*
D03*
X531677Y436643D02*
D03*
X536008Y440973D02*
D03*
X506874Y450422D02*
D03*
X506693Y444517D02*
D03*
X506874Y454753D02*
D03*
X526559Y744517D02*
D03*
X531492Y744593D02*
D03*
X468685Y637430D02*
D03*
X506185Y464497D02*
D03*
X511598D02*
D03*
X503931Y520107D02*
D03*
X507268Y522469D02*
D03*
X492823Y432065D02*
D03*
X544276Y423650D02*
D03*
X471736Y407509D02*
D03*
X475772Y407836D02*
D03*
X486217Y671758D02*
D03*
X523803Y631918D02*
D03*
X519473D02*
D03*
X566717Y565383D02*
D03*
X495457Y592548D02*
D03*
X536217Y647349D02*
D03*
X539945Y715383D02*
D03*
X540189Y488723D02*
D03*
X528736Y497743D02*
D03*
X556295Y465065D02*
D03*
X574406Y511916D02*
D03*
X493576Y436818D02*
D03*
X527839Y665875D02*
D03*
X542386Y716246D02*
D03*
X482673Y493018D02*
D03*
X515622Y704187D02*
D03*
X559051Y531601D02*
D03*
X502358Y576089D02*
D03*
X488503Y500201D02*
D03*
X512595Y704435D02*
D03*
X538579Y724514D02*
D03*
X492122Y570183D02*
D03*
X518500Y724908D02*
D03*
X537004Y476876D02*
D03*
X476859Y573727D02*
D03*
X528156Y700971D02*
D03*
X525445Y704294D02*
D03*
X474728Y680706D02*
D03*
X511787Y613380D02*
D03*
X485823Y589475D02*
D03*
X523224Y700892D02*
D03*
X511020Y520971D02*
D03*
X559051Y534357D02*
D03*
X477634Y450183D02*
D03*
X468815Y710718D02*
D03*
X518106Y700892D02*
D03*
X494091Y710341D02*
D03*
X493500Y406351D02*
D03*
X479799Y717546D02*
D03*
X530929Y714052D02*
D03*
X570184Y562835D02*
D03*
X513382Y526089D02*
D03*
X498815Y710735D02*
D03*
X529673Y737900D02*
D03*
X515252Y530912D02*
D03*
X486610Y709553D02*
D03*
X470406Y431002D02*
D03*
X469468Y722939D02*
D03*
X518500Y684750D02*
D03*
X479917Y548530D02*
D03*
X516138Y715853D02*
D03*
X470406Y428002D02*
D03*
X480039Y728333D02*
D03*
X474421Y659175D02*
D03*
X507934Y684125D02*
D03*
X481055Y574917D02*
D03*
X513382Y715853D02*
D03*
X529917Y724514D02*
D03*
X500783Y487900D02*
D03*
X470406Y440000D02*
D03*
X478134Y698847D02*
D03*
X478736Y689081D02*
D03*
X569079Y549635D02*
D03*
X507870Y676089D02*
D03*
X520075Y715853D02*
D03*
X548512Y502183D02*
D03*
X531492Y721364D02*
D03*
X501965Y452467D02*
D03*
X470406Y436885D02*
D03*
X522831Y624120D02*
D03*
X490154Y482388D02*
D03*
X496453Y459947D02*
D03*
X470406Y434002D02*
D03*
X489520Y697683D02*
D03*
X482280Y698530D02*
D03*
X499602Y459947D02*
D03*
X470406Y425002D02*
D03*
X516532Y733963D02*
D03*
X496059Y498136D02*
D03*
X472831Y443412D02*
D03*
X495970Y502201D02*
D03*
X507083Y738294D02*
D03*
X470406Y419002D02*
D03*
X469681Y662703D02*
D03*
X542594Y618609D02*
D03*
X498815Y548136D02*
D03*
X532280Y500498D02*
D03*
X546602Y487891D02*
D03*
X521650Y738294D02*
D03*
X470406Y422002D02*
D03*
X535036Y526483D02*
D03*
X481099Y657979D02*
D03*
X539366Y623333D02*
D03*
X536795Y715776D02*
D03*
X524799Y495774D02*
D03*
X537398Y635144D02*
D03*
X563567Y496485D02*
D03*
X532858Y649635D02*
D03*
X534039Y715776D02*
D03*
X535429Y488294D02*
D03*
D43*
X535614Y660264D02*
D03*
X539157Y671682D02*
D03*
X534827Y676406D02*
D03*
X539157Y680343D02*
D03*
X543488Y689005D02*
D03*
Y660658D02*
D03*
X539551D02*
D03*
X536008Y657509D02*
D03*
X488370Y628375D02*
D03*
M02*
