G04*
G04 #@! TF.GenerationSoftware,Altium Limited,Altium Designer,20.2.6 (244)*
G04*
G04 Layer_Color=65280*
%FSLAX25Y25*%
%MOIN*%
G70*
G04*
G04 #@! TF.SameCoordinates,D103880D-7D63-4280-A8AA-78B1B6904BBD*
G04*
G04*
G04 #@! TF.FilePolarity,Positive*
G04*
G01*
G75*
%ADD11C,0.00394*%
%ADD157C,0.00197*%
D11*
X543906Y407902D02*
Y409402D01*
X542406Y407902D02*
X543906D01*
Y406402D02*
Y407902D01*
X545406D01*
X524405Y612534D02*
Y616471D01*
X522437Y614502D02*
X526374D01*
X561914Y392510D02*
X564698Y395294D01*
X561914D02*
X564698Y392510D01*
X540906Y739034D02*
Y742971D01*
X538937Y741002D02*
X542874D01*
X543303Y719101D02*
Y721266D01*
X542220Y720183D02*
X544386D01*
X467394Y730420D02*
X470394D01*
X468894D02*
X470394D01*
X468894D02*
Y731920D01*
Y728920D02*
Y731920D01*
X578417Y567784D02*
X581417D01*
X579917D02*
X581417D01*
X579917D02*
Y569284D01*
Y566284D02*
Y569284D01*
X522697Y373650D02*
X525697D01*
X524197D02*
X525697D01*
X524197D02*
Y375150D01*
Y372150D02*
Y375150D01*
X506232Y741002D02*
X509579D01*
X507906Y739329D02*
Y742675D01*
X522732Y741002D02*
X526079D01*
X524406Y739329D02*
Y742675D01*
X516532Y710439D02*
Y712605D01*
X515449Y711522D02*
X517614D01*
X512988Y710439D02*
Y712605D01*
X511906Y711522D02*
X514071D01*
X540339Y710363D02*
Y712528D01*
X539256Y711446D02*
X541421D01*
X537189Y710363D02*
Y712528D01*
X536106Y711446D02*
X538272D01*
X520075Y710439D02*
Y712605D01*
X518992Y711522D02*
X521158D01*
X534039Y710363D02*
Y712528D01*
X532957Y711446D02*
X535122D01*
X542406D02*
X544571D01*
X543488Y710363D02*
Y712528D01*
X504906Y407902D02*
Y409402D01*
X503406Y407902D02*
X504906D01*
Y406402D02*
Y407902D01*
X506406D01*
X535055Y730813D02*
X537220D01*
X536138Y729731D02*
Y731896D01*
X544406Y534434D02*
Y538371D01*
X542437Y536402D02*
X546374D01*
X523014Y515010D02*
X525798Y517794D01*
X523014D02*
X525798Y515010D01*
X504405Y534434D02*
Y538371D01*
X502437Y536402D02*
X506374D01*
X523014Y557794D02*
X525798Y555010D01*
X523014D02*
X525798Y557794D01*
X571045Y535010D02*
X573829Y537794D01*
X571045D02*
X573829Y535010D01*
X484114Y392510D02*
X486898Y395294D01*
X484114D02*
X486898Y392510D01*
X485506Y475934D02*
Y479871D01*
X483537Y477902D02*
X487474D01*
X523014Y476510D02*
X525798Y479294D01*
X523014D02*
X525798Y476510D01*
X561337Y477902D02*
X565274D01*
X563306Y475934D02*
Y479871D01*
X484114Y448510D02*
X486898Y451294D01*
X484114D02*
X486898Y448510D01*
X524405Y447934D02*
Y451871D01*
X522437Y449902D02*
X526374D01*
X561914Y448510D02*
X564698Y451294D01*
X561914D02*
X564698Y448510D01*
X483537Y421902D02*
X487474D01*
X485506Y419934D02*
Y423871D01*
X523014Y420510D02*
X525798Y423294D01*
X523014D02*
X525798Y420510D01*
X561337Y421902D02*
X565274D01*
X563306Y419934D02*
Y423871D01*
X475014Y535010D02*
X477798Y537794D01*
X475014D02*
X477798Y535010D01*
X523014Y392510D02*
X525798Y395294D01*
X523014D02*
X525798Y392510D01*
X466913Y789791D02*
X469537D01*
X468225D01*
Y785856D01*
X472817Y789791D02*
X471505D01*
X470849Y789136D01*
Y786512D01*
X471505Y785856D01*
X472817D01*
X473473Y786512D01*
Y789136D01*
X472817Y789791D01*
X474785Y785856D02*
Y789791D01*
X476753D01*
X477409Y789136D01*
Y787824D01*
X476753Y787168D01*
X474785D01*
X485280Y789136D02*
X484624Y789791D01*
X483312D01*
X482656Y789136D01*
Y786512D01*
X483312Y785856D01*
X484624D01*
X485280Y786512D01*
X488560Y789791D02*
X487248D01*
X486592Y789136D01*
Y786512D01*
X487248Y785856D01*
X488560D01*
X489216Y786512D01*
Y789136D01*
X488560Y789791D01*
X490528D02*
Y786512D01*
X491184Y785856D01*
X492496D01*
X493152Y786512D01*
Y789791D01*
X494464Y785856D02*
Y789791D01*
X496431D01*
X497087Y789136D01*
Y787824D01*
X496431Y787168D01*
X494464D01*
X495776D02*
X497087Y785856D01*
X498399Y789791D02*
X501023D01*
X499711D01*
Y785856D01*
X502335Y789791D02*
Y789136D01*
X503647Y787824D01*
X504959Y789136D01*
Y789791D01*
X503647Y787824D02*
Y785856D01*
X506271D02*
Y788480D01*
X507583Y789791D01*
X508895Y788480D01*
Y785856D01*
Y787824D01*
X506271D01*
X510207Y785856D02*
Y789791D01*
X512174D01*
X512830Y789136D01*
Y787824D01*
X512174Y787168D01*
X510207D01*
X511518D02*
X512830Y785856D01*
X514142Y789791D02*
Y785856D01*
X516110D01*
X516766Y786512D01*
Y789136D01*
X516110Y789791D01*
X514142D01*
D157*
X549428Y407902D02*
G03*
X549428Y407902I-5523J0D01*
G01*
X576691Y393902D02*
G03*
X576691Y393902I-13386J0D01*
G01*
X510428Y407902D02*
G03*
X510428Y407902I-5523J0D01*
G01*
X557791Y536402D02*
G03*
X557791Y536402I-13386J0D01*
G01*
X537791Y516402D02*
G03*
X537791Y516402I-13386J0D01*
G01*
X517791Y536402D02*
G03*
X517791Y536402I-13386J0D01*
G01*
X537791Y556402D02*
G03*
X537791Y556402I-13386J0D01*
G01*
X585823Y536402D02*
G03*
X585823Y536402I-13386J0D01*
G01*
X498891Y393902D02*
G03*
X498891Y393902I-13386J0D01*
G01*
Y477902D02*
G03*
X498891Y477902I-13386J0D01*
G01*
X537791D02*
G03*
X537791Y477902I-13386J0D01*
G01*
X576691D02*
G03*
X576691Y477902I-13386J0D01*
G01*
X498891Y449902D02*
G03*
X498891Y449902I-13386J0D01*
G01*
X537791D02*
G03*
X537791Y449902I-13386J0D01*
G01*
X576691D02*
G03*
X576691Y449902I-13386J0D01*
G01*
X498891Y421902D02*
G03*
X498891Y421902I-13386J0D01*
G01*
X537791D02*
G03*
X537791Y421902I-13386J0D01*
G01*
X576691D02*
G03*
X576691Y421902I-13386J0D01*
G01*
X489791Y536402D02*
G03*
X489791Y536402I-13386J0D01*
G01*
X537791Y393902D02*
G03*
X537791Y393902I-13386J0D01*
G01*
X508264Y607416D02*
X540547D01*
X508264Y624345D02*
X540547D01*
Y607416D02*
Y624345D01*
X508264Y607416D02*
Y624345D01*
X538150Y738246D02*
X543661D01*
X538150Y743758D02*
X543661D01*
Y738246D02*
Y743758D01*
X538150Y738246D02*
Y743758D01*
X541728Y717034D02*
X544878D01*
X541728Y723333D02*
X544878D01*
X541728Y717034D02*
Y723333D01*
X544878Y717034D02*
Y723333D01*
X472894Y730420D02*
Y734420D01*
X464894D02*
X472894D01*
X464894Y726420D02*
Y734420D01*
Y726420D02*
X472894D01*
Y730420D01*
X583917Y567784D02*
Y571784D01*
X575917D02*
X583917D01*
X575917Y563784D02*
Y571784D01*
Y563784D02*
X583917D01*
Y567784D01*
X528197Y373650D02*
Y377650D01*
X520197D02*
X528197D01*
X520197Y369650D02*
Y377650D01*
Y369650D02*
X528197D01*
Y373650D01*
X512236Y738837D02*
Y743168D01*
X503575Y738837D02*
Y743168D01*
Y738837D02*
X512236D01*
X503575Y743168D02*
X512236D01*
X528736Y738837D02*
Y743168D01*
X520075Y738837D02*
Y743168D01*
Y738837D02*
X528736D01*
X520075Y743168D02*
X528736D01*
X514957Y708372D02*
X518106D01*
X514957Y714672D02*
X518106D01*
X514957Y708372D02*
Y714672D01*
X518106Y708372D02*
Y714672D01*
X511413Y708372D02*
X514563D01*
X511413Y714672D02*
X514563D01*
X511413Y708372D02*
Y714672D01*
X514563Y708372D02*
Y714672D01*
X538764Y708296D02*
X541913D01*
X538764Y714595D02*
X541913D01*
X538764Y708296D02*
Y714595D01*
X541913Y708296D02*
Y714595D01*
X535614Y708296D02*
X538764D01*
X535614Y714595D02*
X538764D01*
X535614Y708296D02*
Y714595D01*
X538764Y708296D02*
Y714595D01*
X518500Y708372D02*
X521650D01*
X518500Y714672D02*
X521650D01*
X518500Y708372D02*
Y714672D01*
X521650Y708372D02*
Y714672D01*
X532465Y708296D02*
X535614D01*
X532465Y714595D02*
X535614D01*
X532465Y708296D02*
Y714595D01*
X535614Y708296D02*
Y714595D01*
X541913Y708296D02*
Y714595D01*
X545063Y708296D02*
Y714595D01*
X541913Y708296D02*
X545063D01*
X541913Y714595D02*
X545063D01*
X539287Y729239D02*
Y732388D01*
X532988Y729239D02*
Y732388D01*
Y729239D02*
X539287D01*
X532988Y732388D02*
X539287D01*
M02*
