G04*
G04 #@! TF.GenerationSoftware,Altium Limited,Altium Designer,21.3.1 (25)*
G04*
G04 Layer_Color=4408131*
%FSLAX25Y25*%
%MOIN*%
G70*
G04*
G04 #@! TF.SameCoordinates,17E3FC6B-7FA6-4A94-9312-BAE076C6F9B9*
G04*
G04*
G04 #@! TF.FilePolarity,Positive*
G04*
G01*
G75*
%ADD11C,0.00394*%
D11*
X437976Y816957D02*
Y820894D01*
Y805540D02*
Y816957D01*
X601264Y781524D02*
Y820894D01*
X437976D02*
X601264D01*
X447819Y805540D02*
X601264D01*
Y770107D02*
Y805540D01*
X437976Y770107D02*
X601264D01*
X437976D02*
Y795698D01*
Y805540D01*
X447819D01*
X437976Y793729D02*
X601264D01*
X437976Y781918D02*
X601264D01*
X481284Y770107D02*
Y781918D01*
X552150Y770107D02*
Y781918D01*
X442307Y798060D02*
Y801995D01*
X444275D01*
X444931Y801340D01*
Y800028D01*
X444275Y799372D01*
X442307D01*
X448867Y801340D02*
X448211Y801995D01*
X446899D01*
X446243Y801340D01*
Y798716D01*
X446899Y798060D01*
X448211D01*
X448867Y798716D01*
X450179Y801995D02*
Y798060D01*
X452146D01*
X452802Y798716D01*
Y799372D01*
X452146Y800028D01*
X450179D01*
X452146D01*
X452802Y800684D01*
Y801340D01*
X452146Y801995D01*
X450179D01*
X458050Y798060D02*
Y801995D01*
X460018D01*
X460674Y801340D01*
Y800028D01*
X460018Y799372D01*
X458050D01*
X461986Y798060D02*
Y800684D01*
X463298Y801995D01*
X464610Y800684D01*
Y798060D01*
Y800028D01*
X461986D01*
X465922Y798060D02*
Y801995D01*
X467889D01*
X468545Y801340D01*
Y800028D01*
X467889Y799372D01*
X465922D01*
X467234D02*
X468545Y798060D01*
X469857Y801995D02*
X472481D01*
X471169D01*
Y798060D01*
X477729D02*
Y801995D01*
X480353Y798060D01*
Y801995D01*
X481665D02*
Y798716D01*
X482320Y798060D01*
X483632D01*
X484288Y798716D01*
Y801995D01*
X485600Y798060D02*
Y801995D01*
X486912Y800684D01*
X488224Y801995D01*
Y798060D01*
X489536Y801995D02*
Y798060D01*
X491504D01*
X492160Y798716D01*
Y799372D01*
X491504Y800028D01*
X489536D01*
X491504D01*
X492160Y800684D01*
Y801340D01*
X491504Y801995D01*
X489536D01*
X496096D02*
X493472D01*
Y798060D01*
X496096D01*
X493472Y800028D02*
X494784D01*
X497407Y798060D02*
Y801995D01*
X499375D01*
X500031Y801340D01*
Y800028D01*
X499375Y799372D01*
X497407D01*
X498719D02*
X500031Y798060D01*
X501343Y800684D02*
X501999D01*
Y800028D01*
X501343D01*
Y800684D01*
Y798716D02*
X501999D01*
Y798060D01*
X501343D01*
Y798716D01*
X511455Y801503D02*
X508831D01*
Y799535D01*
X510143D01*
X508831D01*
Y797567D01*
X512767Y801503D02*
Y797567D01*
X514734D01*
X515390Y798223D01*
Y800847D01*
X514734Y801503D01*
X512767D01*
X516702Y799535D02*
X519326D01*
X523262Y801503D02*
X521950D01*
X522606D01*
Y798223D01*
X521950Y797567D01*
X521294D01*
X520638Y798223D01*
X524574Y801503D02*
Y797567D01*
X527198D01*
X528509Y799535D02*
X531133D01*
X532445Y797567D02*
Y801503D01*
X534413D01*
X535069Y800847D01*
Y799535D01*
X534413Y798879D01*
X532445D01*
X539005Y800847D02*
X538349Y801503D01*
X537037D01*
X536381Y800847D01*
Y798223D01*
X537037Y797567D01*
X538349D01*
X539005Y798223D01*
X540317Y801503D02*
Y797567D01*
X542284D01*
X542941Y798223D01*
Y798879D01*
X542284Y799535D01*
X540317D01*
X542284D01*
X542941Y800191D01*
Y800847D01*
X542284Y801503D01*
X540317D01*
X544252Y799535D02*
X546876D01*
X548188Y797567D02*
Y801503D01*
X549500Y800191D01*
X550812Y801503D01*
Y797567D01*
X552124Y801503D02*
Y797567D01*
X554092D01*
X554748Y798223D01*
Y798879D01*
X554092Y799535D01*
X552124D01*
X554092D01*
X554748Y800191D01*
Y800847D01*
X554092Y801503D01*
X552124D01*
X453745Y817349D02*
X448497D01*
Y813413D01*
X451121D01*
X448497D01*
Y809477D01*
X460304Y817349D02*
X457681D01*
X456369Y816037D01*
Y810789D01*
X457681Y809477D01*
X460304D01*
X461616Y810789D01*
Y816037D01*
X460304Y817349D01*
X464240D02*
Y810789D01*
X465552Y809477D01*
X468176D01*
X469488Y810789D01*
Y817349D01*
X472112Y809477D02*
Y817349D01*
X477359Y809477D01*
Y817349D01*
X479983D02*
Y809477D01*
X483919D01*
X485231Y810789D01*
Y816037D01*
X483919Y817349D01*
X479983D01*
X487854Y809477D02*
Y814725D01*
X490478Y817349D01*
X493102Y814725D01*
Y809477D01*
Y813413D01*
X487854D01*
X495726Y817349D02*
X500974D01*
X498350D01*
Y809477D01*
X503597Y817349D02*
X506221D01*
X504909D01*
Y809477D01*
X503597D01*
X506221D01*
X514093Y817349D02*
X511469D01*
X510157Y816037D01*
Y810789D01*
X511469Y809477D01*
X514093D01*
X515405Y810789D01*
Y816037D01*
X514093Y817349D01*
X518028Y809477D02*
Y817349D01*
X523276Y809477D01*
Y817349D01*
X533772D02*
Y809477D01*
X537707D01*
X539019Y810789D01*
Y816037D01*
X537707Y817349D01*
X533772D01*
X546891D02*
X541643D01*
Y809477D01*
X546891D01*
X541643Y813413D02*
X544267D01*
X549514Y817349D02*
Y812101D01*
X552138Y809477D01*
X554762Y812101D01*
Y817349D01*
X557386D02*
X560010D01*
X558698D01*
Y809477D01*
X557386D01*
X560010D01*
X569193Y816037D02*
X567881Y817349D01*
X565257D01*
X563945Y816037D01*
Y810789D01*
X565257Y809477D01*
X567881D01*
X569193Y810789D01*
X577065Y817349D02*
X571817D01*
Y809477D01*
X577065D01*
X571817Y813413D02*
X574441D01*
X584936Y816037D02*
X583624Y817349D01*
X581000D01*
X579688Y816037D01*
Y814725D01*
X581000Y813413D01*
X583624D01*
X584936Y812101D01*
Y810789D01*
X583624Y809477D01*
X581000D01*
X579688Y810789D01*
X442307Y790184D02*
Y786249D01*
X444931D01*
X446243D02*
Y788873D01*
X447555Y790184D01*
X448867Y788873D01*
Y786249D01*
Y788217D01*
X446243D01*
X450179Y790184D02*
Y789529D01*
X451490Y788217D01*
X452802Y789529D01*
Y790184D01*
X451490Y788217D02*
Y786249D01*
X456738Y790184D02*
X454114D01*
Y786249D01*
X456738D01*
X454114Y788217D02*
X455426D01*
X458050Y786249D02*
Y790184D01*
X460018D01*
X460674Y789529D01*
Y788217D01*
X460018Y787561D01*
X458050D01*
X459362D02*
X460674Y786249D01*
X461986Y788873D02*
X462642D01*
Y788217D01*
X461986D01*
Y788873D01*
Y786905D02*
X462642D01*
Y786249D01*
X461986D01*
Y786905D01*
X442307Y774438D02*
Y777389D01*
X443783D01*
X444275Y776898D01*
Y775914D01*
X443783Y775422D01*
X442307D01*
X443291D02*
X444275Y774438D01*
X447227Y777389D02*
X445259D01*
Y774438D01*
X447227D01*
X445259Y775914D02*
X446243D01*
X448211Y777389D02*
Y775422D01*
X449195Y774438D01*
X450179Y775422D01*
Y777389D01*
X451163D02*
X452146D01*
X451654D01*
Y774438D01*
X451163D01*
X452146D01*
X455590Y776898D02*
X455098Y777389D01*
X454114D01*
X453622Y776898D01*
Y776406D01*
X454114Y775914D01*
X455098D01*
X455590Y775422D01*
Y774930D01*
X455098Y774438D01*
X454114D01*
X453622Y774930D01*
X456574Y777389D02*
X457558D01*
X457066D01*
Y774438D01*
X456574D01*
X457558D01*
X460510Y777389D02*
X459526D01*
X459034Y776898D01*
Y774930D01*
X459526Y774438D01*
X460510D01*
X461002Y774930D01*
Y776898D01*
X460510Y777389D01*
X461986Y774438D02*
Y777389D01*
X463954Y774438D01*
Y777389D01*
X464938Y776406D02*
X465430D01*
Y775914D01*
X464938D01*
Y776406D01*
Y774930D02*
X465430D01*
Y774438D01*
X464938D01*
Y774930D01*
X485614Y777389D02*
Y775422D01*
X486598Y774438D01*
X487582Y775422D01*
Y777389D01*
X488566Y774438D02*
Y776406D01*
X489550Y777389D01*
X490534Y776406D01*
Y774438D01*
Y775914D01*
X488566D01*
X491518Y774438D02*
Y777389D01*
X492994D01*
X493486Y776898D01*
Y775914D01*
X492994Y775422D01*
X491518D01*
X492502D02*
X493486Y774438D01*
X494470Y777389D02*
X495454D01*
X494962D01*
Y774438D01*
X494470D01*
X495454D01*
X496930D02*
Y776406D01*
X497913Y777389D01*
X498897Y776406D01*
Y774438D01*
Y775914D01*
X496930D01*
X499881Y774438D02*
Y777389D01*
X501849Y774438D01*
Y777389D01*
X502833D02*
X504801D01*
X503817D01*
Y774438D01*
X505785Y776406D02*
X506277D01*
Y775914D01*
X505785D01*
Y776406D01*
Y774930D02*
X506277D01*
Y774438D01*
X505785D01*
Y774930D01*
X556480Y777389D02*
Y774438D01*
X557956D01*
X558448Y774930D01*
Y776898D01*
X557956Y777389D01*
X556480D01*
X559432Y774438D02*
Y776406D01*
X560416Y777389D01*
X561400Y776406D01*
Y774438D01*
Y775914D01*
X559432D01*
X562384Y777389D02*
X564352D01*
X563368D01*
Y774438D01*
X567304Y777389D02*
X565336D01*
Y774438D01*
X567304D01*
X565336Y775914D02*
X566320D01*
X568288Y776406D02*
X568780D01*
Y775914D01*
X568288D01*
Y776406D01*
Y774930D02*
X568780D01*
Y774438D01*
X568288D01*
Y774930D01*
X471834Y777389D02*
X469866D01*
Y774438D01*
X471834D01*
X469866Y775914D02*
X470850D01*
X472818Y774438D02*
X473802D01*
X473310D01*
Y777389D01*
X472818Y776898D01*
X510220Y774438D02*
X509236D01*
Y777389D01*
X510220D01*
X511696Y774438D02*
Y777389D01*
X513664Y774438D01*
Y777389D01*
X515140Y774438D02*
X516124D01*
X516616Y774930D01*
Y775914D01*
X516124Y776406D01*
X515140D01*
X514648Y775914D01*
Y774930D01*
X515140Y774438D01*
X520551Y777389D02*
Y775422D01*
X521535Y774438D01*
X522519Y775422D01*
Y777389D01*
X523995Y776406D02*
X524979D01*
X525471Y775914D01*
Y774438D01*
X523995D01*
X523503Y774930D01*
X523995Y775422D01*
X525471D01*
X526455Y776406D02*
Y774438D01*
Y775422D01*
X526947Y775914D01*
X527439Y776406D01*
X527931D01*
X529407Y774438D02*
X530391D01*
X529899D01*
Y776406D01*
X529407D01*
X532359D02*
X533343D01*
X533835Y775914D01*
Y774438D01*
X532359D01*
X531867Y774930D01*
X532359Y775422D01*
X533835D01*
X535311Y776898D02*
Y776406D01*
X534819D01*
X535803D01*
X535311D01*
Y774930D01*
X535803Y774438D01*
X537279D02*
X538262D01*
X537770D01*
Y776406D01*
X537279D01*
X540230Y774438D02*
X541214D01*
X541706Y774930D01*
Y775914D01*
X541214Y776406D01*
X540230D01*
X539738Y775914D01*
Y774930D01*
X540230Y774438D01*
X542690D02*
Y776406D01*
X544166D01*
X544658Y775914D01*
Y774438D01*
X545642D02*
X547118D01*
X547610Y774930D01*
X547118Y775422D01*
X546134D01*
X545642Y775914D01*
X546134Y776406D01*
X547610D01*
X548594Y774438D02*
X549578D01*
Y777389D01*
X548594D01*
X573704Y774438D02*
Y777389D01*
X572228Y775914D01*
X574196D01*
X575180Y774438D02*
X577148Y776406D01*
X580100Y774438D02*
X578132D01*
X580100Y776406D01*
Y776898D01*
X579608Y777389D01*
X578624D01*
X578132Y776898D01*
X581084Y777389D02*
X583052D01*
Y776898D01*
X581084Y774930D01*
Y774438D01*
X584036D02*
X586003Y776406D01*
X588955Y774438D02*
X586987D01*
X588955Y776406D01*
Y776898D01*
X588463Y777389D01*
X587479D01*
X586987Y776898D01*
X589939D02*
X590431Y777389D01*
X591415D01*
X591907Y776898D01*
Y774930D01*
X591415Y774438D01*
X590431D01*
X589939Y774930D01*
Y776898D01*
X594859Y774438D02*
X592891D01*
X594859Y776406D01*
Y776898D01*
X594367Y777389D01*
X593383D01*
X592891Y776898D01*
X595843Y774438D02*
X596827D01*
X596335D01*
Y777389D01*
X595843Y776898D01*
M02*
