G04*
G04 #@! TF.GenerationSoftware,Altium Limited,Altium Designer,20.2.6 (244)*
G04*
G04 Layer_Color=8421504*
%FSLAX25Y25*%
%MOIN*%
G70*
G04*
G04 #@! TF.SameCoordinates,D103880D-7D63-4280-A8AA-78B1B6904BBD*
G04*
G04*
G04 #@! TF.FilePolarity,Positive*
G04*
G01*
G75*
%ADD11C,0.00394*%
G04:AMPARAMS|DCode=13|XSize=11.81mil|YSize=31.5mil|CornerRadius=1.48mil|HoleSize=0mil|Usage=FLASHONLY|Rotation=0.000|XOffset=0mil|YOffset=0mil|HoleType=Round|Shape=RoundedRectangle|*
%AMROUNDEDRECTD13*
21,1,0.01181,0.02854,0,0,0.0*
21,1,0.00886,0.03150,0,0,0.0*
1,1,0.00295,0.00443,-0.01427*
1,1,0.00295,-0.00443,-0.01427*
1,1,0.00295,-0.00443,0.01427*
1,1,0.00295,0.00443,0.01427*
%
%ADD13ROUNDEDRECTD13*%
G04:AMPARAMS|DCode=14|XSize=23.62mil|YSize=39.37mil|CornerRadius=2.95mil|HoleSize=0mil|Usage=FLASHONLY|Rotation=0.000|XOffset=0mil|YOffset=0mil|HoleType=Round|Shape=RoundedRectangle|*
%AMROUNDEDRECTD14*
21,1,0.02362,0.03347,0,0,0.0*
21,1,0.01772,0.03937,0,0,0.0*
1,1,0.00591,0.00886,-0.01673*
1,1,0.00591,-0.00886,-0.01673*
1,1,0.00591,-0.00886,0.01673*
1,1,0.00591,0.00886,0.01673*
%
%ADD14ROUNDEDRECTD14*%
%ADD15C,0.00984*%
G04:AMPARAMS|DCode=16|XSize=20.47mil|YSize=20.47mil|CornerRadius=4.1mil|HoleSize=0mil|Usage=FLASHONLY|Rotation=180.000|XOffset=0mil|YOffset=0mil|HoleType=Round|Shape=RoundedRectangle|*
%AMROUNDEDRECTD16*
21,1,0.02047,0.01228,0,0,180.0*
21,1,0.01228,0.02047,0,0,180.0*
1,1,0.00819,-0.00614,0.00614*
1,1,0.00819,0.00614,0.00614*
1,1,0.00819,0.00614,-0.00614*
1,1,0.00819,-0.00614,-0.00614*
%
%ADD16ROUNDEDRECTD16*%
G04:AMPARAMS|DCode=17|XSize=31.5mil|YSize=27.56mil|CornerRadius=3.45mil|HoleSize=0mil|Usage=FLASHONLY|Rotation=270.000|XOffset=0mil|YOffset=0mil|HoleType=Round|Shape=RoundedRectangle|*
%AMROUNDEDRECTD17*
21,1,0.03150,0.02067,0,0,270.0*
21,1,0.02461,0.02756,0,0,270.0*
1,1,0.00689,-0.01034,-0.01230*
1,1,0.00689,-0.01034,0.01230*
1,1,0.00689,0.01034,0.01230*
1,1,0.00689,0.01034,-0.01230*
%
%ADD17ROUNDEDRECTD17*%
G04:AMPARAMS|DCode=18|XSize=20.47mil|YSize=20.47mil|CornerRadius=4.1mil|HoleSize=0mil|Usage=FLASHONLY|Rotation=270.000|XOffset=0mil|YOffset=0mil|HoleType=Round|Shape=RoundedRectangle|*
%AMROUNDEDRECTD18*
21,1,0.02047,0.01228,0,0,270.0*
21,1,0.01228,0.02047,0,0,270.0*
1,1,0.00819,-0.00614,-0.00614*
1,1,0.00819,-0.00614,0.00614*
1,1,0.00819,0.00614,0.00614*
1,1,0.00819,0.00614,-0.00614*
%
%ADD18ROUNDEDRECTD18*%
D11*
X465929Y789791D02*
X468553D01*
X467241D01*
Y785856D01*
X471833Y789791D02*
X470521D01*
X469865Y789136D01*
Y786512D01*
X470521Y785856D01*
X471833D01*
X472489Y786512D01*
Y789136D01*
X471833Y789791D01*
X473801Y785856D02*
Y789791D01*
X475769D01*
X476425Y789136D01*
Y787824D01*
X475769Y787168D01*
X473801D01*
X481672Y785856D02*
Y789791D01*
X483640D01*
X484296Y789136D01*
Y787824D01*
X483640Y787168D01*
X481672D01*
X485608Y785856D02*
Y788480D01*
X486920Y789791D01*
X488232Y788480D01*
Y785856D01*
Y787824D01*
X485608D01*
X492167Y789136D02*
X491511Y789791D01*
X490200D01*
X489544Y789136D01*
Y788480D01*
X490200Y787824D01*
X491511D01*
X492167Y787168D01*
Y786512D01*
X491511Y785856D01*
X490200D01*
X489544Y786512D01*
X493479Y789791D02*
X496103D01*
X494791D01*
Y785856D01*
X500039Y789791D02*
X497415D01*
Y785856D01*
X500039D01*
X497415Y787824D02*
X498727D01*
D13*
X515547Y620801D02*
D03*
X517516D02*
D03*
X519484D02*
D03*
X521453D02*
D03*
X523421D02*
D03*
X525390D02*
D03*
X527358D02*
D03*
X529327D02*
D03*
X531295D02*
D03*
X533264D02*
D03*
D14*
X511807Y610172D02*
D03*
X537004D02*
D03*
D15*
X541890Y740018D02*
D03*
X539921D02*
D03*
X541890Y741987D02*
D03*
X539921D02*
D03*
D16*
X543303Y721837D02*
D03*
Y718530D02*
D03*
X516532Y709868D02*
D03*
Y713175D02*
D03*
X512988Y709868D02*
D03*
Y713175D02*
D03*
X540339Y709792D02*
D03*
Y713099D02*
D03*
X537189Y709792D02*
D03*
Y713099D02*
D03*
X520075Y709868D02*
D03*
Y713175D02*
D03*
X534039Y709792D02*
D03*
Y713099D02*
D03*
X543488Y709792D02*
D03*
Y713099D02*
D03*
D17*
X510465Y741002D02*
D03*
X505346D02*
D03*
X526965D02*
D03*
X521846D02*
D03*
D18*
X537791Y730813D02*
D03*
X534484D02*
D03*
M02*
