G04*
G04 #@! TF.GenerationSoftware,Altium Limited,Altium Designer,21.3.1 (25)*
G04*
G04 Layer_Physical_Order=4*
G04 Layer_Color=16737843*
%FSLAX25Y25*%
%MOIN*%
G70*
G04*
G04 #@! TF.SameCoordinates,17E3FC6B-7FA6-4A94-9312-BAE076C6F9B9*
G04*
G04*
G04 #@! TF.FilePolarity,Positive*
G04*
G01*
G75*
%ADD10C,0.00591*%
%ADD11C,0.00394*%
%ADD12C,0.00787*%
G04:AMPARAMS|DCode=14|XSize=20.47mil|YSize=20.47mil|CornerRadius=4.1mil|HoleSize=0mil|Usage=FLASHONLY|Rotation=270.000|XOffset=0mil|YOffset=0mil|HoleType=Round|Shape=RoundedRectangle|*
%AMROUNDEDRECTD14*
21,1,0.02047,0.01228,0,0,270.0*
21,1,0.01228,0.02047,0,0,270.0*
1,1,0.00819,-0.00614,-0.00614*
1,1,0.00819,-0.00614,0.00614*
1,1,0.00819,0.00614,0.00614*
1,1,0.00819,0.00614,-0.00614*
%
%ADD14ROUNDEDRECTD14*%
G04:AMPARAMS|DCode=15|XSize=20.47mil|YSize=20.47mil|CornerRadius=4.1mil|HoleSize=0mil|Usage=FLASHONLY|Rotation=180.000|XOffset=0mil|YOffset=0mil|HoleType=Round|Shape=RoundedRectangle|*
%AMROUNDEDRECTD15*
21,1,0.02047,0.01228,0,0,180.0*
21,1,0.01228,0.02047,0,0,180.0*
1,1,0.00819,-0.00614,0.00614*
1,1,0.00819,0.00614,0.00614*
1,1,0.00819,0.00614,-0.00614*
1,1,0.00819,-0.00614,-0.00614*
%
%ADD15ROUNDEDRECTD15*%
%ADD16C,0.00984*%
%ADD37C,0.03937*%
%ADD38C,0.01575*%
%ADD39C,0.00984*%
%ADD40C,0.01181*%
%ADD42C,0.01772*%
%ADD43C,0.01575*%
%ADD44C,0.01772*%
G04:AMPARAMS|DCode=45|XSize=31.5mil|YSize=27.56mil|CornerRadius=3.45mil|HoleSize=0mil|Usage=FLASHONLY|Rotation=180.000|XOffset=0mil|YOffset=0mil|HoleType=Round|Shape=RoundedRectangle|*
%AMROUNDEDRECTD45*
21,1,0.03150,0.02067,0,0,180.0*
21,1,0.02461,0.02756,0,0,180.0*
1,1,0.00689,-0.01230,0.01034*
1,1,0.00689,0.01230,0.01034*
1,1,0.00689,0.01230,-0.01034*
1,1,0.00689,-0.01230,-0.01034*
%
%ADD45ROUNDEDRECTD45*%
%ADD46C,0.03150*%
G04:AMPARAMS|DCode=47|XSize=47.24mil|YSize=31.1mil|CornerRadius=3.11mil|HoleSize=0mil|Usage=FLASHONLY|Rotation=180.000|XOffset=0mil|YOffset=0mil|HoleType=Round|Shape=RoundedRectangle|*
%AMROUNDEDRECTD47*
21,1,0.04724,0.02488,0,0,180.0*
21,1,0.04102,0.03110,0,0,180.0*
1,1,0.00622,-0.02051,0.01244*
1,1,0.00622,0.02051,0.01244*
1,1,0.00622,0.02051,-0.01244*
1,1,0.00622,-0.02051,-0.01244*
%
%ADD47ROUNDEDRECTD47*%
G04:AMPARAMS|DCode=48|XSize=9.84mil|YSize=25.59mil|CornerRadius=2.46mil|HoleSize=0mil|Usage=FLASHONLY|Rotation=180.000|XOffset=0mil|YOffset=0mil|HoleType=Round|Shape=RoundedRectangle|*
%AMROUNDEDRECTD48*
21,1,0.00984,0.02067,0,0,180.0*
21,1,0.00492,0.02559,0,0,180.0*
1,1,0.00492,-0.00246,0.01034*
1,1,0.00492,0.00246,0.01034*
1,1,0.00492,0.00246,-0.01034*
1,1,0.00492,-0.00246,-0.01034*
%
%ADD48ROUNDEDRECTD48*%
G04:AMPARAMS|DCode=49|XSize=33.47mil|YSize=29.53mil|CornerRadius=5.91mil|HoleSize=0mil|Usage=FLASHONLY|Rotation=270.000|XOffset=0mil|YOffset=0mil|HoleType=Round|Shape=RoundedRectangle|*
%AMROUNDEDRECTD49*
21,1,0.03347,0.01772,0,0,270.0*
21,1,0.02165,0.02953,0,0,270.0*
1,1,0.01181,-0.00886,-0.01083*
1,1,0.01181,-0.00886,0.01083*
1,1,0.01181,0.00886,0.01083*
1,1,0.01181,0.00886,-0.01083*
%
%ADD49ROUNDEDRECTD49*%
G04:AMPARAMS|DCode=50|XSize=51.18mil|YSize=39.37mil|CornerRadius=4.92mil|HoleSize=0mil|Usage=FLASHONLY|Rotation=270.000|XOffset=0mil|YOffset=0mil|HoleType=Round|Shape=RoundedRectangle|*
%AMROUNDEDRECTD50*
21,1,0.05118,0.02953,0,0,270.0*
21,1,0.04134,0.03937,0,0,270.0*
1,1,0.00984,-0.01476,-0.02067*
1,1,0.00984,-0.01476,0.02067*
1,1,0.00984,0.01476,0.02067*
1,1,0.00984,0.01476,-0.02067*
%
%ADD50ROUNDEDRECTD50*%
G04:AMPARAMS|DCode=51|XSize=75.59mil|YSize=36.61mil|CornerRadius=4.58mil|HoleSize=0mil|Usage=FLASHONLY|Rotation=180.000|XOffset=0mil|YOffset=0mil|HoleType=Round|Shape=RoundedRectangle|*
%AMROUNDEDRECTD51*
21,1,0.07559,0.02746,0,0,180.0*
21,1,0.06644,0.03661,0,0,180.0*
1,1,0.00915,-0.03322,0.01373*
1,1,0.00915,0.03322,0.01373*
1,1,0.00915,0.03322,-0.01373*
1,1,0.00915,-0.03322,-0.01373*
%
%ADD51ROUNDEDRECTD51*%
G04:AMPARAMS|DCode=52|XSize=11.81mil|YSize=29.53mil|CornerRadius=2.36mil|HoleSize=0mil|Usage=FLASHONLY|Rotation=90.000|XOffset=0mil|YOffset=0mil|HoleType=Round|Shape=RoundedRectangle|*
%AMROUNDEDRECTD52*
21,1,0.01181,0.02480,0,0,90.0*
21,1,0.00709,0.02953,0,0,90.0*
1,1,0.00472,0.01240,0.00354*
1,1,0.00472,0.01240,-0.00354*
1,1,0.00472,-0.01240,-0.00354*
1,1,0.00472,-0.01240,0.00354*
%
%ADD52ROUNDEDRECTD52*%
G04:AMPARAMS|DCode=53|XSize=11.81mil|YSize=29.53mil|CornerRadius=2.36mil|HoleSize=0mil|Usage=FLASHONLY|Rotation=180.000|XOffset=0mil|YOffset=0mil|HoleType=Round|Shape=RoundedRectangle|*
%AMROUNDEDRECTD53*
21,1,0.01181,0.02480,0,0,180.0*
21,1,0.00709,0.02953,0,0,180.0*
1,1,0.00472,-0.00354,0.01240*
1,1,0.00472,0.00354,0.01240*
1,1,0.00472,0.00354,-0.01240*
1,1,0.00472,-0.00354,-0.01240*
%
%ADD53ROUNDEDRECTD53*%
G04:AMPARAMS|DCode=54|XSize=27.56mil|YSize=39.37mil|CornerRadius=3.45mil|HoleSize=0mil|Usage=FLASHONLY|Rotation=0.000|XOffset=0mil|YOffset=0mil|HoleType=Round|Shape=RoundedRectangle|*
%AMROUNDEDRECTD54*
21,1,0.02756,0.03248,0,0,0.0*
21,1,0.02067,0.03937,0,0,0.0*
1,1,0.00689,0.01034,-0.01624*
1,1,0.00689,-0.01034,-0.01624*
1,1,0.00689,-0.01034,0.01624*
1,1,0.00689,0.01034,0.01624*
%
%ADD54ROUNDEDRECTD54*%
G04:AMPARAMS|DCode=55|XSize=11.81mil|YSize=23.62mil|CornerRadius=2.36mil|HoleSize=0mil|Usage=FLASHONLY|Rotation=180.000|XOffset=0mil|YOffset=0mil|HoleType=Round|Shape=RoundedRectangle|*
%AMROUNDEDRECTD55*
21,1,0.01181,0.01890,0,0,180.0*
21,1,0.00709,0.02362,0,0,180.0*
1,1,0.00472,-0.00354,0.00945*
1,1,0.00472,0.00354,0.00945*
1,1,0.00472,0.00354,-0.00945*
1,1,0.00472,-0.00354,-0.00945*
%
%ADD55ROUNDEDRECTD55*%
G04:AMPARAMS|DCode=56|XSize=15.75mil|YSize=25.59mil|CornerRadius=2.76mil|HoleSize=0mil|Usage=FLASHONLY|Rotation=90.000|XOffset=0mil|YOffset=0mil|HoleType=Round|Shape=RoundedRectangle|*
%AMROUNDEDRECTD56*
21,1,0.01575,0.02008,0,0,90.0*
21,1,0.01024,0.02559,0,0,90.0*
1,1,0.00551,0.01004,0.00512*
1,1,0.00551,0.01004,-0.00512*
1,1,0.00551,-0.01004,-0.00512*
1,1,0.00551,-0.01004,0.00512*
%
%ADD56ROUNDEDRECTD56*%
G04:AMPARAMS|DCode=57|XSize=15.75mil|YSize=59.06mil|CornerRadius=3.94mil|HoleSize=0mil|Usage=FLASHONLY|Rotation=0.000|XOffset=0mil|YOffset=0mil|HoleType=Round|Shape=RoundedRectangle|*
%AMROUNDEDRECTD57*
21,1,0.01575,0.05118,0,0,0.0*
21,1,0.00787,0.05906,0,0,0.0*
1,1,0.00787,0.00394,-0.02559*
1,1,0.00787,-0.00394,-0.02559*
1,1,0.00787,-0.00394,0.02559*
1,1,0.00787,0.00394,0.02559*
%
%ADD57ROUNDEDRECTD57*%
G04:AMPARAMS|DCode=58|XSize=21.65mil|YSize=31.5mil|CornerRadius=2.71mil|HoleSize=0mil|Usage=FLASHONLY|Rotation=180.000|XOffset=0mil|YOffset=0mil|HoleType=Round|Shape=RoundedRectangle|*
%AMROUNDEDRECTD58*
21,1,0.02165,0.02608,0,0,180.0*
21,1,0.01624,0.03150,0,0,180.0*
1,1,0.00541,-0.00812,0.01304*
1,1,0.00541,0.00812,0.01304*
1,1,0.00541,0.00812,-0.01304*
1,1,0.00541,-0.00812,-0.01304*
%
%ADD58ROUNDEDRECTD58*%
G04:AMPARAMS|DCode=59|XSize=31.5mil|YSize=66.93mil|CornerRadius=3.94mil|HoleSize=0mil|Usage=FLASHONLY|Rotation=0.000|XOffset=0mil|YOffset=0mil|HoleType=Round|Shape=RoundedRectangle|*
%AMROUNDEDRECTD59*
21,1,0.03150,0.05906,0,0,0.0*
21,1,0.02362,0.06693,0,0,0.0*
1,1,0.00787,0.01181,-0.02953*
1,1,0.00787,-0.01181,-0.02953*
1,1,0.00787,-0.01181,0.02953*
1,1,0.00787,0.01181,0.02953*
%
%ADD59ROUNDEDRECTD59*%
G04:AMPARAMS|DCode=60|XSize=9.84mil|YSize=29.53mil|CornerRadius=2.46mil|HoleSize=0mil|Usage=FLASHONLY|Rotation=180.000|XOffset=0mil|YOffset=0mil|HoleType=Round|Shape=RoundedRectangle|*
%AMROUNDEDRECTD60*
21,1,0.00984,0.02461,0,0,180.0*
21,1,0.00492,0.02953,0,0,180.0*
1,1,0.00492,-0.00246,0.01230*
1,1,0.00492,0.00246,0.01230*
1,1,0.00492,0.00246,-0.01230*
1,1,0.00492,-0.00246,-0.01230*
%
%ADD60ROUNDEDRECTD60*%
G04:AMPARAMS|DCode=61|XSize=15.75mil|YSize=25.59mil|CornerRadius=3.94mil|HoleSize=0mil|Usage=FLASHONLY|Rotation=90.000|XOffset=0mil|YOffset=0mil|HoleType=Round|Shape=RoundedRectangle|*
%AMROUNDEDRECTD61*
21,1,0.01575,0.01772,0,0,90.0*
21,1,0.00787,0.02559,0,0,90.0*
1,1,0.00787,0.00886,0.00394*
1,1,0.00787,0.00886,-0.00394*
1,1,0.00787,-0.00886,-0.00394*
1,1,0.00787,-0.00886,0.00394*
%
%ADD61ROUNDEDRECTD61*%
G04:AMPARAMS|DCode=62|XSize=31.5mil|YSize=66.93mil|CornerRadius=3.94mil|HoleSize=0mil|Usage=FLASHONLY|Rotation=90.000|XOffset=0mil|YOffset=0mil|HoleType=Round|Shape=RoundedRectangle|*
%AMROUNDEDRECTD62*
21,1,0.03150,0.05906,0,0,90.0*
21,1,0.02362,0.06693,0,0,90.0*
1,1,0.00787,0.02953,0.01181*
1,1,0.00787,0.02953,-0.01181*
1,1,0.00787,-0.02953,-0.01181*
1,1,0.00787,-0.02953,0.01181*
%
%ADD62ROUNDEDRECTD62*%
G04:AMPARAMS|DCode=63|XSize=33.47mil|YSize=29.53mil|CornerRadius=5.91mil|HoleSize=0mil|Usage=FLASHONLY|Rotation=0.000|XOffset=0mil|YOffset=0mil|HoleType=Round|Shape=RoundedRectangle|*
%AMROUNDEDRECTD63*
21,1,0.03347,0.01772,0,0,0.0*
21,1,0.02165,0.02953,0,0,0.0*
1,1,0.01181,0.01083,-0.00886*
1,1,0.01181,-0.01083,-0.00886*
1,1,0.01181,-0.01083,0.00886*
1,1,0.01181,0.01083,0.00886*
%
%ADD63ROUNDEDRECTD63*%
G04:AMPARAMS|DCode=64|XSize=9.84mil|YSize=49.21mil|CornerRadius=2.46mil|HoleSize=0mil|Usage=FLASHONLY|Rotation=180.000|XOffset=0mil|YOffset=0mil|HoleType=Round|Shape=RoundedRectangle|*
%AMROUNDEDRECTD64*
21,1,0.00984,0.04429,0,0,180.0*
21,1,0.00492,0.04921,0,0,180.0*
1,1,0.00492,-0.00246,0.02215*
1,1,0.00492,0.00246,0.02215*
1,1,0.00492,0.00246,-0.02215*
1,1,0.00492,-0.00246,-0.02215*
%
%ADD64ROUNDEDRECTD64*%
G04:AMPARAMS|DCode=65|XSize=9.84mil|YSize=49.21mil|CornerRadius=2.46mil|HoleSize=0mil|Usage=FLASHONLY|Rotation=90.000|XOffset=0mil|YOffset=0mil|HoleType=Round|Shape=RoundedRectangle|*
%AMROUNDEDRECTD65*
21,1,0.00984,0.04429,0,0,90.0*
21,1,0.00492,0.04921,0,0,90.0*
1,1,0.00492,0.02215,0.00246*
1,1,0.00492,0.02215,-0.00246*
1,1,0.00492,-0.02215,-0.00246*
1,1,0.00492,-0.02215,0.00246*
%
%ADD65ROUNDEDRECTD65*%
%ADD66C,0.03098*%
G04:AMPARAMS|DCode=67|XSize=9.84mil|YSize=23.62mil|CornerRadius=1.97mil|HoleSize=0mil|Usage=FLASHONLY|Rotation=0.000|XOffset=0mil|YOffset=0mil|HoleType=Round|Shape=RoundedRectangle|*
%AMROUNDEDRECTD67*
21,1,0.00984,0.01968,0,0,0.0*
21,1,0.00591,0.02362,0,0,0.0*
1,1,0.00394,0.00295,-0.00984*
1,1,0.00394,-0.00295,-0.00984*
1,1,0.00394,-0.00295,0.00984*
1,1,0.00394,0.00295,0.00984*
%
%ADD67ROUNDEDRECTD67*%
G04:AMPARAMS|DCode=68|XSize=11.81mil|YSize=17.72mil|CornerRadius=1.77mil|HoleSize=0mil|Usage=FLASHONLY|Rotation=90.000|XOffset=0mil|YOffset=0mil|HoleType=Round|Shape=RoundedRectangle|*
%AMROUNDEDRECTD68*
21,1,0.01181,0.01417,0,0,90.0*
21,1,0.00827,0.01772,0,0,90.0*
1,1,0.00354,0.00709,0.00413*
1,1,0.00354,0.00709,-0.00413*
1,1,0.00354,-0.00709,-0.00413*
1,1,0.00354,-0.00709,0.00413*
%
%ADD68ROUNDEDRECTD68*%
G04:AMPARAMS|DCode=69|XSize=100mil|YSize=100mil|CornerRadius=5mil|HoleSize=0mil|Usage=FLASHONLY|Rotation=90.000|XOffset=0mil|YOffset=0mil|HoleType=Round|Shape=RoundedRectangle|*
%AMROUNDEDRECTD69*
21,1,0.10000,0.09000,0,0,90.0*
21,1,0.09000,0.10000,0,0,90.0*
1,1,0.01000,0.04500,0.04500*
1,1,0.01000,0.04500,-0.04500*
1,1,0.01000,-0.04500,-0.04500*
1,1,0.01000,-0.04500,0.04500*
%
%ADD69ROUNDEDRECTD69*%
G04:AMPARAMS|DCode=70|XSize=70.87mil|YSize=43.31mil|CornerRadius=2.17mil|HoleSize=0mil|Usage=FLASHONLY|Rotation=0.000|XOffset=0mil|YOffset=0mil|HoleType=Round|Shape=RoundedRectangle|*
%AMROUNDEDRECTD70*
21,1,0.07087,0.03898,0,0,0.0*
21,1,0.06653,0.04331,0,0,0.0*
1,1,0.00433,0.03327,-0.01949*
1,1,0.00433,-0.03327,-0.01949*
1,1,0.00433,-0.03327,0.01949*
1,1,0.00433,0.03327,0.01949*
%
%ADD70ROUNDEDRECTD70*%
G04:AMPARAMS|DCode=71|XSize=9.84mil|YSize=19.68mil|CornerRadius=1.97mil|HoleSize=0mil|Usage=FLASHONLY|Rotation=0.000|XOffset=0mil|YOffset=0mil|HoleType=Round|Shape=RoundedRectangle|*
%AMROUNDEDRECTD71*
21,1,0.00984,0.01575,0,0,0.0*
21,1,0.00591,0.01968,0,0,0.0*
1,1,0.00394,0.00295,-0.00787*
1,1,0.00394,-0.00295,-0.00787*
1,1,0.00394,-0.00295,0.00787*
1,1,0.00394,0.00295,0.00787*
%
%ADD71ROUNDEDRECTD71*%
G04:AMPARAMS|DCode=72|XSize=62.99mil|YSize=39.37mil|CornerRadius=1.97mil|HoleSize=0mil|Usage=FLASHONLY|Rotation=90.000|XOffset=0mil|YOffset=0mil|HoleType=Round|Shape=RoundedRectangle|*
%AMROUNDEDRECTD72*
21,1,0.06299,0.03543,0,0,90.0*
21,1,0.05906,0.03937,0,0,90.0*
1,1,0.00394,0.01772,0.02953*
1,1,0.00394,0.01772,-0.02953*
1,1,0.00394,-0.01772,-0.02953*
1,1,0.00394,-0.01772,0.02953*
%
%ADD72ROUNDEDRECTD72*%
G04:AMPARAMS|DCode=73|XSize=78.74mil|YSize=47.24mil|CornerRadius=2.36mil|HoleSize=0mil|Usage=FLASHONLY|Rotation=0.000|XOffset=0mil|YOffset=0mil|HoleType=Round|Shape=RoundedRectangle|*
%AMROUNDEDRECTD73*
21,1,0.07874,0.04252,0,0,0.0*
21,1,0.07402,0.04724,0,0,0.0*
1,1,0.00472,0.03701,-0.02126*
1,1,0.00472,-0.03701,-0.02126*
1,1,0.00472,-0.03701,0.02126*
1,1,0.00472,0.03701,0.02126*
%
%ADD73ROUNDEDRECTD73*%
G04:AMPARAMS|DCode=74|XSize=15.75mil|YSize=21.65mil|CornerRadius=3.94mil|HoleSize=0mil|Usage=FLASHONLY|Rotation=270.000|XOffset=0mil|YOffset=0mil|HoleType=Round|Shape=RoundedRectangle|*
%AMROUNDEDRECTD74*
21,1,0.01575,0.01378,0,0,270.0*
21,1,0.00787,0.02165,0,0,270.0*
1,1,0.00787,-0.00689,-0.00394*
1,1,0.00787,-0.00689,0.00394*
1,1,0.00787,0.00689,0.00394*
1,1,0.00787,0.00689,-0.00394*
%
%ADD74ROUNDEDRECTD74*%
G04:AMPARAMS|DCode=75|XSize=62.99mil|YSize=30mil|CornerRadius=3.75mil|HoleSize=0mil|Usage=FLASHONLY|Rotation=90.000|XOffset=0mil|YOffset=0mil|HoleType=Round|Shape=RoundedRectangle|*
%AMROUNDEDRECTD75*
21,1,0.06299,0.02250,0,0,90.0*
21,1,0.05549,0.03000,0,0,90.0*
1,1,0.00750,0.01125,0.02775*
1,1,0.00750,0.01125,-0.02775*
1,1,0.00750,-0.01125,-0.02775*
1,1,0.00750,-0.01125,0.02775*
%
%ADD75ROUNDEDRECTD75*%
G04:AMPARAMS|DCode=76|XSize=66.93mil|YSize=43.31mil|CornerRadius=5.41mil|HoleSize=0mil|Usage=FLASHONLY|Rotation=0.000|XOffset=0mil|YOffset=0mil|HoleType=Round|Shape=RoundedRectangle|*
%AMROUNDEDRECTD76*
21,1,0.06693,0.03248,0,0,0.0*
21,1,0.05610,0.04331,0,0,0.0*
1,1,0.01083,0.02805,-0.01624*
1,1,0.01083,-0.02805,-0.01624*
1,1,0.01083,-0.02805,0.01624*
1,1,0.01083,0.02805,0.01624*
%
%ADD76ROUNDEDRECTD76*%
G04:AMPARAMS|DCode=77|XSize=19.68mil|YSize=23.62mil|CornerRadius=4.92mil|HoleSize=0mil|Usage=FLASHONLY|Rotation=270.000|XOffset=0mil|YOffset=0mil|HoleType=Round|Shape=RoundedRectangle|*
%AMROUNDEDRECTD77*
21,1,0.01968,0.01378,0,0,270.0*
21,1,0.00984,0.02362,0,0,270.0*
1,1,0.00984,-0.00689,-0.00492*
1,1,0.00984,-0.00689,0.00492*
1,1,0.00984,0.00689,0.00492*
1,1,0.00984,0.00689,-0.00492*
%
%ADD77ROUNDEDRECTD77*%
G04:AMPARAMS|DCode=78|XSize=7.87mil|YSize=23.62mil|CornerRadius=1.97mil|HoleSize=0mil|Usage=FLASHONLY|Rotation=180.000|XOffset=0mil|YOffset=0mil|HoleType=Round|Shape=RoundedRectangle|*
%AMROUNDEDRECTD78*
21,1,0.00787,0.01968,0,0,180.0*
21,1,0.00394,0.02362,0,0,180.0*
1,1,0.00394,-0.00197,0.00984*
1,1,0.00394,0.00197,0.00984*
1,1,0.00394,0.00197,-0.00984*
1,1,0.00394,-0.00197,-0.00984*
%
%ADD78ROUNDEDRECTD78*%
G04:AMPARAMS|DCode=79|XSize=11.81mil|YSize=66.93mil|CornerRadius=2.95mil|HoleSize=0mil|Usage=FLASHONLY|Rotation=270.000|XOffset=0mil|YOffset=0mil|HoleType=Round|Shape=RoundedRectangle|*
%AMROUNDEDRECTD79*
21,1,0.01181,0.06102,0,0,270.0*
21,1,0.00591,0.06693,0,0,270.0*
1,1,0.00591,-0.03051,-0.00295*
1,1,0.00591,-0.03051,0.00295*
1,1,0.00591,0.03051,0.00295*
1,1,0.00591,0.03051,-0.00295*
%
%ADD79ROUNDEDRECTD79*%
G04:AMPARAMS|DCode=80|XSize=15.75mil|YSize=74.8mil|CornerRadius=3.94mil|HoleSize=0mil|Usage=FLASHONLY|Rotation=270.000|XOffset=0mil|YOffset=0mil|HoleType=Round|Shape=RoundedRectangle|*
%AMROUNDEDRECTD80*
21,1,0.01575,0.06693,0,0,270.0*
21,1,0.00787,0.07480,0,0,270.0*
1,1,0.00787,-0.03347,-0.00394*
1,1,0.00787,-0.03347,0.00394*
1,1,0.00787,0.03347,0.00394*
1,1,0.00787,0.03347,-0.00394*
%
%ADD80ROUNDEDRECTD80*%
G04:AMPARAMS|DCode=81|XSize=39.37mil|YSize=27.56mil|CornerRadius=3.45mil|HoleSize=0mil|Usage=FLASHONLY|Rotation=0.000|XOffset=0mil|YOffset=0mil|HoleType=Round|Shape=RoundedRectangle|*
%AMROUNDEDRECTD81*
21,1,0.03937,0.02067,0,0,0.0*
21,1,0.03248,0.02756,0,0,0.0*
1,1,0.00689,0.01624,-0.01034*
1,1,0.00689,-0.01624,-0.01034*
1,1,0.00689,-0.01624,0.01034*
1,1,0.00689,0.01624,0.01034*
%
%ADD81ROUNDEDRECTD81*%
G04:AMPARAMS|DCode=82|XSize=57.09mil|YSize=47.24mil|CornerRadius=5.91mil|HoleSize=0mil|Usage=FLASHONLY|Rotation=0.000|XOffset=0mil|YOffset=0mil|HoleType=Round|Shape=RoundedRectangle|*
%AMROUNDEDRECTD82*
21,1,0.05709,0.03543,0,0,0.0*
21,1,0.04528,0.04724,0,0,0.0*
1,1,0.01181,0.02264,-0.01772*
1,1,0.01181,-0.02264,-0.01772*
1,1,0.01181,-0.02264,0.01772*
1,1,0.01181,0.02264,0.01772*
%
%ADD82ROUNDEDRECTD82*%
G04:AMPARAMS|DCode=83|XSize=55.12mil|YSize=31.5mil|CornerRadius=3.94mil|HoleSize=0mil|Usage=FLASHONLY|Rotation=0.000|XOffset=0mil|YOffset=0mil|HoleType=Round|Shape=RoundedRectangle|*
%AMROUNDEDRECTD83*
21,1,0.05512,0.02362,0,0,0.0*
21,1,0.04724,0.03150,0,0,0.0*
1,1,0.00787,0.02362,-0.01181*
1,1,0.00787,-0.02362,-0.01181*
1,1,0.00787,-0.02362,0.01181*
1,1,0.00787,0.02362,0.01181*
%
%ADD83ROUNDEDRECTD83*%
G04:AMPARAMS|DCode=84|XSize=45.28mil|YSize=47.24mil|CornerRadius=5.66mil|HoleSize=0mil|Usage=FLASHONLY|Rotation=0.000|XOffset=0mil|YOffset=0mil|HoleType=Round|Shape=RoundedRectangle|*
%AMROUNDEDRECTD84*
21,1,0.04528,0.03593,0,0,0.0*
21,1,0.03396,0.04724,0,0,0.0*
1,1,0.01132,0.01698,-0.01796*
1,1,0.01132,-0.01698,-0.01796*
1,1,0.01132,-0.01698,0.01796*
1,1,0.01132,0.01698,0.01796*
%
%ADD84ROUNDEDRECTD84*%
G04:AMPARAMS|DCode=85|XSize=45.28mil|YSize=43.31mil|CornerRadius=5.41mil|HoleSize=0mil|Usage=FLASHONLY|Rotation=0.000|XOffset=0mil|YOffset=0mil|HoleType=Round|Shape=RoundedRectangle|*
%AMROUNDEDRECTD85*
21,1,0.04528,0.03248,0,0,0.0*
21,1,0.03445,0.04331,0,0,0.0*
1,1,0.01083,0.01722,-0.01624*
1,1,0.01083,-0.01722,-0.01624*
1,1,0.01083,-0.01722,0.01624*
1,1,0.01083,0.01722,0.01624*
%
%ADD85ROUNDEDRECTD85*%
G04:AMPARAMS|DCode=86|XSize=62.99mil|YSize=55.12mil|CornerRadius=2.76mil|HoleSize=0mil|Usage=FLASHONLY|Rotation=180.000|XOffset=0mil|YOffset=0mil|HoleType=Round|Shape=RoundedRectangle|*
%AMROUNDEDRECTD86*
21,1,0.06299,0.04961,0,0,180.0*
21,1,0.05748,0.05512,0,0,180.0*
1,1,0.00551,-0.02874,0.02480*
1,1,0.00551,0.02874,0.02480*
1,1,0.00551,0.02874,-0.02480*
1,1,0.00551,-0.02874,-0.02480*
%
%ADD86ROUNDEDRECTD86*%
G04:AMPARAMS|DCode=87|XSize=68.9mil|YSize=57.09mil|CornerRadius=2.85mil|HoleSize=0mil|Usage=FLASHONLY|Rotation=180.000|XOffset=0mil|YOffset=0mil|HoleType=Round|Shape=RoundedRectangle|*
%AMROUNDEDRECTD87*
21,1,0.06890,0.05138,0,0,180.0*
21,1,0.06319,0.05709,0,0,180.0*
1,1,0.00571,-0.03159,0.02569*
1,1,0.00571,0.03159,0.02569*
1,1,0.00571,0.03159,-0.02569*
1,1,0.00571,-0.03159,-0.02569*
%
%ADD87ROUNDEDRECTD87*%
G04:AMPARAMS|DCode=88|XSize=15.75mil|YSize=21.65mil|CornerRadius=3.94mil|HoleSize=0mil|Usage=FLASHONLY|Rotation=0.000|XOffset=0mil|YOffset=0mil|HoleType=Round|Shape=RoundedRectangle|*
%AMROUNDEDRECTD88*
21,1,0.01575,0.01378,0,0,0.0*
21,1,0.00787,0.02165,0,0,0.0*
1,1,0.00787,0.00394,-0.00689*
1,1,0.00787,-0.00394,-0.00689*
1,1,0.00787,-0.00394,0.00689*
1,1,0.00787,0.00394,0.00689*
%
%ADD88ROUNDEDRECTD88*%
G04:AMPARAMS|DCode=89|XSize=55.12mil|YSize=47.24mil|CornerRadius=5.91mil|HoleSize=0mil|Usage=FLASHONLY|Rotation=0.000|XOffset=0mil|YOffset=0mil|HoleType=Round|Shape=RoundedRectangle|*
%AMROUNDEDRECTD89*
21,1,0.05512,0.03543,0,0,0.0*
21,1,0.04331,0.04724,0,0,0.0*
1,1,0.01181,0.02165,-0.01772*
1,1,0.01181,-0.02165,-0.01772*
1,1,0.01181,-0.02165,0.01772*
1,1,0.01181,0.02165,0.01772*
%
%ADD89ROUNDEDRECTD89*%
G04:AMPARAMS|DCode=90|XSize=62.99mil|YSize=51.18mil|CornerRadius=6.4mil|HoleSize=0mil|Usage=FLASHONLY|Rotation=180.000|XOffset=0mil|YOffset=0mil|HoleType=Round|Shape=RoundedRectangle|*
%AMROUNDEDRECTD90*
21,1,0.06299,0.03839,0,0,180.0*
21,1,0.05020,0.05118,0,0,180.0*
1,1,0.01280,-0.02510,0.01919*
1,1,0.01280,0.02510,0.01919*
1,1,0.01280,0.02510,-0.01919*
1,1,0.01280,-0.02510,-0.01919*
%
%ADD90ROUNDEDRECTD90*%
G04:AMPARAMS|DCode=91|XSize=11.81mil|YSize=55.12mil|CornerRadius=1.48mil|HoleSize=0mil|Usage=FLASHONLY|Rotation=0.000|XOffset=0mil|YOffset=0mil|HoleType=Round|Shape=RoundedRectangle|*
%AMROUNDEDRECTD91*
21,1,0.01181,0.05217,0,0,0.0*
21,1,0.00886,0.05512,0,0,0.0*
1,1,0.00295,0.00443,-0.02608*
1,1,0.00295,-0.00443,-0.02608*
1,1,0.00295,-0.00443,0.02608*
1,1,0.00295,0.00443,0.02608*
%
%ADD91ROUNDEDRECTD91*%
G04:AMPARAMS|DCode=92|XSize=9.84mil|YSize=29.53mil|CornerRadius=2.46mil|HoleSize=0mil|Usage=FLASHONLY|Rotation=90.000|XOffset=0mil|YOffset=0mil|HoleType=Round|Shape=RoundedRectangle|*
%AMROUNDEDRECTD92*
21,1,0.00984,0.02461,0,0,90.0*
21,1,0.00492,0.02953,0,0,90.0*
1,1,0.00492,0.01230,0.00246*
1,1,0.00492,0.01230,-0.00246*
1,1,0.00492,-0.01230,-0.00246*
1,1,0.00492,-0.01230,0.00246*
%
%ADD92ROUNDEDRECTD92*%
G04:AMPARAMS|DCode=93|XSize=86.61mil|YSize=86.61mil|CornerRadius=4.33mil|HoleSize=0mil|Usage=FLASHONLY|Rotation=180.000|XOffset=0mil|YOffset=0mil|HoleType=Round|Shape=RoundedRectangle|*
%AMROUNDEDRECTD93*
21,1,0.08661,0.07795,0,0,180.0*
21,1,0.07795,0.08661,0,0,180.0*
1,1,0.00866,-0.03898,0.03898*
1,1,0.00866,0.03898,0.03898*
1,1,0.00866,0.03898,-0.03898*
1,1,0.00866,-0.03898,-0.03898*
%
%ADD93ROUNDEDRECTD93*%
G04:AMPARAMS|DCode=94|XSize=51.18mil|YSize=39.37mil|CornerRadius=4.92mil|HoleSize=0mil|Usage=FLASHONLY|Rotation=180.000|XOffset=0mil|YOffset=0mil|HoleType=Round|Shape=RoundedRectangle|*
%AMROUNDEDRECTD94*
21,1,0.05118,0.02953,0,0,180.0*
21,1,0.04134,0.03937,0,0,180.0*
1,1,0.00984,-0.02067,0.01476*
1,1,0.00984,0.02067,0.01476*
1,1,0.00984,0.02067,-0.01476*
1,1,0.00984,-0.02067,-0.01476*
%
%ADD94ROUNDEDRECTD94*%
G04:AMPARAMS|DCode=95|XSize=75.59mil|YSize=36.61mil|CornerRadius=4.58mil|HoleSize=0mil|Usage=FLASHONLY|Rotation=270.000|XOffset=0mil|YOffset=0mil|HoleType=Round|Shape=RoundedRectangle|*
%AMROUNDEDRECTD95*
21,1,0.07559,0.02746,0,0,270.0*
21,1,0.06644,0.03661,0,0,270.0*
1,1,0.00915,-0.01373,-0.03322*
1,1,0.00915,-0.01373,0.03322*
1,1,0.00915,0.01373,0.03322*
1,1,0.00915,0.01373,-0.03322*
%
%ADD95ROUNDEDRECTD95*%
G04:AMPARAMS|DCode=96|XSize=31.5mil|YSize=35.43mil|CornerRadius=3.94mil|HoleSize=0mil|Usage=FLASHONLY|Rotation=0.000|XOffset=0mil|YOffset=0mil|HoleType=Round|Shape=RoundedRectangle|*
%AMROUNDEDRECTD96*
21,1,0.03150,0.02756,0,0,0.0*
21,1,0.02362,0.03543,0,0,0.0*
1,1,0.00787,0.01181,-0.01378*
1,1,0.00787,-0.01181,-0.01378*
1,1,0.00787,-0.01181,0.01378*
1,1,0.00787,0.01181,0.01378*
%
%ADD96ROUNDEDRECTD96*%
G04:AMPARAMS|DCode=97|XSize=31.5mil|YSize=35.43mil|CornerRadius=3.94mil|HoleSize=0mil|Usage=FLASHONLY|Rotation=270.000|XOffset=0mil|YOffset=0mil|HoleType=Round|Shape=RoundedRectangle|*
%AMROUNDEDRECTD97*
21,1,0.03150,0.02756,0,0,270.0*
21,1,0.02362,0.03543,0,0,270.0*
1,1,0.00787,-0.01378,-0.01181*
1,1,0.00787,-0.01378,0.01181*
1,1,0.00787,0.01378,0.01181*
1,1,0.00787,0.01378,-0.01181*
%
%ADD97ROUNDEDRECTD97*%
%ADD98C,0.01378*%
%ADD99C,0.02362*%
G36*
X528134Y740580D02*
X534039Y740579D01*
X535931Y738687D01*
X543028Y738687D01*
X543255Y738536D01*
X543697Y738448D01*
X546846D01*
Y733963D01*
X540584D01*
X540084Y733963D01*
X539969Y734539D01*
X539643Y735027D01*
X539155Y735354D01*
X538579Y735468D01*
X538003Y735354D01*
X537514Y735027D01*
X537188Y734539D01*
X537074Y733963D01*
X536602Y733963D01*
X518157D01*
X518040Y734553D01*
X517692Y735074D01*
X517692Y735074D01*
X517667Y735098D01*
X517146Y735446D01*
X516532Y735569D01*
X515917Y735446D01*
X515396Y735098D01*
X515048Y734577D01*
X514926Y733963D01*
X514926Y733963D01*
X506295D01*
X505508Y733176D01*
X505508Y727664D01*
X502240Y724395D01*
X502117Y724313D01*
X502035Y724190D01*
X499602Y721758D01*
Y718609D01*
X485823D01*
Y725695D01*
X496846D01*
X501965Y730813D01*
X501965Y746091D01*
X518291D01*
X522622Y746091D01*
X528134Y740580D01*
D02*
G37*
G36*
X532280Y723333D02*
Y717427D01*
X529524D01*
Y719002D01*
X527949Y720577D01*
Y725302D01*
X530311D01*
X532280Y723333D01*
D02*
G37*
G36*
X499602Y709553D02*
X498311D01*
X498303Y709594D01*
X497976Y710082D01*
X497488Y710409D01*
X496912Y710523D01*
X496336Y710409D01*
X495848Y710082D01*
X495521Y709594D01*
X495513Y709553D01*
X495272D01*
X493008Y707290D01*
X490646D01*
X490547Y707191D01*
Y706010D01*
X488579D01*
X485429Y709160D01*
X485429Y717034D01*
X499602Y717034D01*
Y709553D01*
D02*
G37*
G36*
X483854Y700892D02*
X478343D01*
Y704435D01*
X483854D01*
Y700892D01*
D02*
G37*
G36*
X533906Y704493D02*
X535614Y702784D01*
Y698454D01*
X532366D01*
Y710658D01*
X533906D01*
Y704493D01*
D02*
G37*
G36*
X476768Y700892D02*
X475587Y699711D01*
Y695774D01*
X473618D01*
Y704435D01*
X476768D01*
Y700892D01*
D02*
G37*
G36*
X544260Y685461D02*
X538370D01*
Y688611D01*
Y694281D01*
X538811Y694517D01*
X538868Y694480D01*
X539858Y694282D01*
X540849Y694480D01*
X541689Y695041D01*
X542250Y695881D01*
X542447Y696872D01*
X542250Y697862D01*
X541689Y698702D01*
X540849Y699264D01*
X539858Y699461D01*
X538868Y699264D01*
X538811Y699226D01*
X538370Y699462D01*
Y702390D01*
X534827Y705934D01*
Y711446D01*
X544260D01*
Y685461D01*
D02*
G37*
G36*
X480311Y698924D02*
X480311Y686325D01*
X479917Y685931D01*
X477162D01*
X476768Y686325D01*
X476768Y698924D01*
X477555Y699711D01*
X479524D01*
X480311Y698924D01*
D02*
G37*
G36*
X540339Y680343D02*
X535614Y675619D01*
X533646D01*
X532071Y677194D01*
Y683878D01*
X532079Y683886D01*
X540339D01*
Y680343D01*
D02*
G37*
G36*
X543882Y673257D02*
X539313D01*
X539157Y673287D01*
X539002Y673257D01*
X538370D01*
X536008Y670894D01*
X536008Y668532D01*
X536120Y668420D01*
X536156Y668238D01*
X536421Y667843D01*
X536817Y667578D01*
X536998Y667542D01*
X537189Y667351D01*
Y664989D01*
X535259D01*
X534858Y665329D01*
X534858Y665329D01*
Y665383D01*
X534827Y665538D01*
X534827Y666170D01*
X532858Y668139D01*
X532858Y671682D01*
X541520Y680343D01*
X541520Y683886D01*
X543882D01*
X543882Y673257D01*
D02*
G37*
G36*
X522831Y668609D02*
X522831Y661916D01*
X524930Y659817D01*
X526165Y658690D01*
Y656721D01*
X523410D01*
X520260Y659871D01*
X513567D01*
Y666957D01*
X514748Y668139D01*
X516323D01*
X518291Y670107D01*
X521332Y670107D01*
X522831Y668609D01*
D02*
G37*
G36*
X522831Y655617D02*
X525980D01*
Y654042D01*
X522831D01*
X522043Y653254D01*
X513382D01*
Y657585D01*
X520862D01*
X522831Y655617D01*
D02*
G37*
G36*
X529130Y661325D02*
X529917Y660538D01*
X529917Y653254D01*
X531663D01*
X531768Y653233D01*
X532721D01*
X532772Y653223D01*
X535443D01*
X535529Y653166D01*
X535996Y653073D01*
X537224D01*
X537691Y653166D01*
X538185Y653003D01*
Y646955D01*
X536610Y645380D01*
X527740D01*
X527740Y659083D01*
X525980Y660843D01*
X525980Y667821D01*
X529130D01*
X529130Y661325D01*
D02*
G37*
G36*
X547425Y639398D02*
X531638D01*
X531099Y639506D01*
X530559Y639398D01*
X523803D01*
X517504Y633099D01*
X517504Y628660D01*
X518576Y627587D01*
X523803Y627587D01*
Y622863D01*
X517110Y622863D01*
X513173Y626800D01*
Y642942D01*
X523410Y653178D01*
X526165D01*
Y644910D01*
X526559Y644517D01*
X537583D01*
X539157Y646091D01*
Y652760D01*
X539539Y653073D01*
X540768D01*
X541235Y653166D01*
X541252Y653178D01*
X543094D01*
X543094Y668139D01*
X539945Y668139D01*
Y670198D01*
X540247Y670501D01*
X545063D01*
Y724831D01*
X541520Y728375D01*
X541520Y732312D01*
X547425Y732312D01*
X547425Y639398D01*
D02*
G37*
G36*
X491205Y611103D02*
X491228D01*
X491273Y611091D01*
X491314Y611068D01*
X491348Y611034D01*
X491359Y611014D01*
X492975Y608207D01*
X492982Y608198D01*
Y608192D01*
Y607547D01*
Y607512D01*
X492955Y607446D01*
X492905Y607396D01*
X492839Y607369D01*
X492804Y607369D01*
X492804Y607369D01*
X491137D01*
X491072Y607396D01*
X491021Y607447D01*
X490994Y607512D01*
Y607548D01*
X490994Y610925D01*
X490994D01*
Y610961D01*
X491021Y611026D01*
X491072Y611076D01*
X491137Y611103D01*
X491173D01*
X491205Y611103D01*
Y611103D01*
D02*
G37*
G36*
X480843Y611103D02*
X480879D01*
X480944Y611076D01*
X480995Y611026D01*
X481022Y610961D01*
Y610925D01*
Y607548D01*
Y607512D01*
X480995Y607447D01*
X480944Y607396D01*
X480879Y607369D01*
X479212D01*
Y607369D01*
X479176Y607369D01*
X479111Y607396D01*
X479061Y607446D01*
X479034Y607512D01*
Y607547D01*
X479034D01*
Y608192D01*
Y608198D01*
X479041Y608207D01*
X480656Y611014D01*
X480668Y611034D01*
X480701Y611068D01*
X480742Y611091D01*
X480788Y611103D01*
X480811D01*
Y611103D01*
X480843Y611103D01*
D02*
G37*
G36*
X487212Y618009D02*
Y618009D01*
X487236D01*
X487281Y617997D01*
X487322Y617974D01*
X487355Y617940D01*
X487367Y617920D01*
X488983Y615113D01*
X488990Y615104D01*
Y615098D01*
Y607545D01*
Y607510D01*
X488963Y607444D01*
X488913Y607394D01*
X488847Y607367D01*
X488812Y607367D01*
X488812Y607367D01*
X487145D01*
X487079Y607394D01*
X487029Y607444D01*
X487002Y607510D01*
X487002Y607545D01*
Y617831D01*
X487002D01*
Y617867D01*
X487029Y617932D01*
X487079Y617982D01*
X487145Y618009D01*
X487180D01*
X487212Y618009D01*
D02*
G37*
G36*
X484937Y617982D02*
X484987Y617932D01*
X485014Y617867D01*
Y617831D01*
X485014D01*
Y607545D01*
X485014D01*
Y607510D01*
X484987Y607444D01*
X484937Y607394D01*
X484871Y607367D01*
X483204D01*
Y607367D01*
X483169Y607367D01*
X483103Y607394D01*
X483053Y607444D01*
X483026Y607510D01*
Y607545D01*
X483026D01*
Y615098D01*
Y615104D01*
X483033Y615113D01*
X484649Y617920D01*
X484660Y617940D01*
X484694Y617974D01*
X484735Y617997D01*
X484780Y618009D01*
X484804D01*
Y618009D01*
X484836Y618009D01*
X484871D01*
X484937Y617982D01*
D02*
G37*
G36*
X494543Y605378D02*
X494561Y605378D01*
X494594Y605369D01*
X494624Y605351D01*
X494648Y605327D01*
X494657Y605312D01*
X494657Y605312D01*
X494657Y605312D01*
X494658Y605310D01*
X494658D01*
X494659Y605308D01*
X494659Y605308D01*
X494660Y605308D01*
X494660Y605308D01*
X494660Y605307D01*
X494660Y605307D01*
X494660Y605307D01*
X495600Y603692D01*
X495600Y603691D01*
X495600D01*
X495601Y603691D01*
X495632Y603644D01*
X495638Y603532D01*
X495586Y603433D01*
X495490Y603375D01*
X495434Y603375D01*
X476582D01*
X476526Y603375D01*
X476430Y603433D01*
X476377Y603532D01*
X476384Y603644D01*
X476415Y603691D01*
X476415D01*
X476415Y603691D01*
X476416Y603692D01*
X476416Y603692D01*
X477355Y605307D01*
X477356Y605307D01*
X477356Y605308D01*
X477356Y605308D01*
X477356Y605308D01*
X477356Y605308D01*
Y605308D01*
X477358Y605310D01*
X477359Y605312D01*
X477359D01*
X477359Y605312D01*
X477367Y605327D01*
X477392Y605351D01*
X477422Y605369D01*
X477455Y605378D01*
X477472Y605378D01*
X477472Y605378D01*
X477475Y605379D01*
X494541D01*
X494543Y605378D01*
D02*
G37*
G36*
X563884Y567166D02*
Y556645D01*
X563747Y556163D01*
X561266D01*
X561165Y556143D01*
X552073D01*
Y560473D01*
X557661Y560473D01*
X557661Y567166D01*
X563884Y567166D01*
D02*
G37*
G36*
X560341Y551418D02*
X561165D01*
X561266Y551398D01*
X563747D01*
X563884Y550916D01*
Y550028D01*
X560602D01*
X559236Y548662D01*
X552073D01*
Y552206D01*
X559554D01*
X560341Y551418D01*
D02*
G37*
G36*
X571638Y550116D02*
X570184Y548662D01*
X570184Y545501D01*
X564847Y545501D01*
Y547613D01*
X564958Y547779D01*
X565072Y548355D01*
X564958Y548931D01*
X564847Y549097D01*
Y552205D01*
X563847D01*
X563747Y552225D01*
X561266D01*
X561128Y552708D01*
Y554853D01*
X561266Y555335D01*
X563747D01*
X563847Y555355D01*
X564847D01*
Y557498D01*
X565853Y558505D01*
Y563623D01*
X571638D01*
Y550116D01*
D02*
G37*
G36*
X575302Y550916D02*
Y545119D01*
X572546D01*
Y550916D01*
X572683Y551398D01*
X575164D01*
X575302Y550916D01*
D02*
G37*
G36*
X491925Y541049D02*
X494866Y538109D01*
X494866Y537135D01*
X488075Y537135D01*
X486795Y538414D01*
X482129Y538414D01*
X481776Y538768D01*
X481776Y541049D01*
X491925Y541049D01*
D02*
G37*
G36*
X563961Y543335D02*
X571047D01*
X571146Y543236D01*
Y542147D01*
X571093Y542068D01*
X571032Y541761D01*
Y539899D01*
X570959Y539791D01*
X570866Y539324D01*
Y538095D01*
X570959Y537628D01*
X571032Y537520D01*
Y537005D01*
X571032Y537005D01*
X571093Y536697D01*
X571146Y536618D01*
X571146Y534634D01*
X570793Y534280D01*
X570159Y534280D01*
Y536249D01*
X569978Y536430D01*
X569905Y536800D01*
X569676Y537142D01*
X569334Y537370D01*
X568931Y537450D01*
X568439D01*
X568036Y537370D01*
X567694Y537142D01*
X567624Y537036D01*
X567504D01*
Y536857D01*
X567465Y536800D01*
X567385Y536396D01*
Y535387D01*
X567381Y535363D01*
Y534099D01*
X567110D01*
X566803Y534038D01*
X566577Y533886D01*
X563961D01*
X560417Y537430D01*
Y546455D01*
X560447Y546485D01*
X563961D01*
Y543335D01*
D02*
G37*
G36*
X576559Y541673D02*
Y531918D01*
X573410Y528768D01*
Y523650D01*
X570654D01*
Y526013D01*
X569918Y526748D01*
X569985Y527085D01*
Y529152D01*
X569905Y529556D01*
X569866Y529613D01*
Y530146D01*
X569231D01*
X568931Y530206D01*
X568439D01*
X568139Y530146D01*
X567263D01*
X567110Y530177D01*
Y533296D01*
X570306D01*
X570407Y533276D01*
X570900D01*
X571001Y533296D01*
X572228D01*
Y536194D01*
X572437Y536402D01*
X571835Y537005D01*
Y541761D01*
X576472D01*
X576559Y541673D01*
D02*
G37*
G36*
X487507Y536567D02*
X487507Y536567D01*
X487768Y536393D01*
X487848Y536377D01*
X487976Y536249D01*
X494866D01*
Y535543D01*
X494669Y535083D01*
X486008Y535083D01*
X485930Y535068D01*
X485220D01*
Y534358D01*
X485205Y534280D01*
Y531918D01*
X482858D01*
Y537430D01*
X486644D01*
X487507Y536567D01*
D02*
G37*
G36*
X494669Y533099D02*
X489551Y533099D01*
X488370Y531918D01*
X486008Y531918D01*
Y534280D01*
X494669Y534280D01*
Y533099D01*
D02*
G37*
G36*
X566823Y529431D02*
X566881Y529420D01*
X566954Y529389D01*
X567106Y529359D01*
X567185D01*
X567263Y529344D01*
X568139D01*
X568217Y529359D01*
X568296D01*
X568386Y529377D01*
X568985D01*
X569074Y529359D01*
X569114D01*
X569125Y529306D01*
X569140Y529282D01*
X569182Y529073D01*
Y527165D01*
X569130Y526905D01*
Y526826D01*
X569115Y526748D01*
X569130Y526671D01*
Y526592D01*
X569161Y526519D01*
X569176Y526441D01*
X569220Y526375D01*
X569250Y526302D01*
X569306Y526246D01*
X569350Y526181D01*
X569473Y526058D01*
Y524831D01*
X568094D01*
X567121Y525805D01*
X567100Y525913D01*
X566835Y526308D01*
X566439Y526573D01*
X566331Y526594D01*
X566323Y526603D01*
Y529150D01*
X566449Y529283D01*
X566536Y529342D01*
X566799Y529433D01*
X566823Y529431D01*
D02*
G37*
G36*
X564748Y503302D02*
Y500481D01*
X564526Y500148D01*
X564444Y499736D01*
Y498847D01*
X562806D01*
X562331Y499020D01*
Y500249D01*
X562299Y500406D01*
Y501603D01*
X559248D01*
Y503965D01*
X564084D01*
X564748Y503302D01*
D02*
G37*
G36*
X561496Y500406D02*
X561512Y500329D01*
Y500250D01*
X561528Y500170D01*
Y499020D01*
X561531Y499003D01*
X561528Y498986D01*
X561562Y498850D01*
X561589Y498713D01*
X561598Y498699D01*
Y498060D01*
X562728D01*
X562806Y498044D01*
X564354D01*
Y492154D01*
X559236D01*
Y500791D01*
X559248Y500800D01*
X561496D01*
Y500406D01*
D02*
G37*
G36*
X499209Y481503D02*
X497819Y480113D01*
X497819Y477270D01*
X501965Y477270D01*
Y472926D01*
X501901Y472862D01*
X500168D01*
X496237Y476793D01*
X495879Y477032D01*
X495654Y477077D01*
X495654Y483557D01*
X498421Y486325D01*
X499209D01*
X499209Y481503D01*
D02*
G37*
G36*
X551362Y469002D02*
X538185D01*
Y472108D01*
X538406Y472152D01*
X547819D01*
X547974Y472121D01*
X548028D01*
X548183Y472152D01*
X551362D01*
Y469002D01*
D02*
G37*
G36*
X523618Y463490D02*
X527949Y463490D01*
X529130Y462309D01*
X531197D01*
Y459750D01*
X521835D01*
X519079Y462506D01*
Y468926D01*
X523618D01*
X523618Y463490D01*
D02*
G37*
G36*
X500969Y464595D02*
X497819Y461446D01*
Y459083D01*
X492701D01*
X492701Y461839D01*
X492701Y464242D01*
X492708Y464247D01*
X492761Y464300D01*
X494571D01*
X495654Y465383D01*
Y467253D01*
X500969D01*
Y464595D01*
D02*
G37*
G36*
X578051Y458883D02*
X583563D01*
Y454552D01*
X580807D01*
Y452583D01*
X573130D01*
Y461638D01*
X578051D01*
Y458883D01*
D02*
G37*
G36*
X537072Y462207D02*
X537280Y462113D01*
Y460144D01*
X537299Y460047D01*
Y459750D01*
X537491Y459559D01*
X537574Y459434D01*
X537698Y459351D01*
X538382Y458668D01*
X540547D01*
Y450203D01*
X536217D01*
Y458372D01*
Y462309D01*
X536784D01*
X537072Y462207D01*
D02*
G37*
G36*
X533165Y458274D02*
Y450105D01*
X528835D01*
Y458569D01*
X531000D01*
X531423Y458993D01*
X531504Y459009D01*
X531765Y459183D01*
X531939Y459443D01*
X531955Y459524D01*
X532083Y459652D01*
Y462211D01*
X533165D01*
Y458274D01*
D02*
G37*
G36*
X527740Y448847D02*
Y446091D01*
X522228D01*
X521067Y447253D01*
X520989Y447644D01*
X520767Y447976D01*
X520435Y448198D01*
X520043Y448276D01*
X519079D01*
X519079Y458690D01*
X527740Y458690D01*
X527740Y448847D01*
D02*
G37*
G36*
X571387Y457061D02*
X572228Y456423D01*
Y449241D01*
X574591Y446879D01*
Y444123D01*
X572228D01*
Y446091D01*
X568811Y449509D01*
Y449509D01*
X568807Y449528D01*
X568818Y449581D01*
Y454798D01*
X568807Y454851D01*
X568811Y454870D01*
Y456814D01*
X568814Y456829D01*
Y458077D01*
X570370D01*
X571387Y457061D01*
D02*
G37*
G36*
X568007Y457002D02*
X568008Y456995D01*
Y454870D01*
X567993Y454798D01*
Y449581D01*
X568008Y449509D01*
Y448737D01*
X571047Y445698D01*
Y444123D01*
X568685D01*
X564825Y447983D01*
X564704Y456151D01*
X566433Y457880D01*
X568007D01*
Y457002D01*
D02*
G37*
G36*
X551362Y443295D02*
X551009Y442942D01*
X535614Y442942D01*
Y448454D01*
X541913D01*
Y459947D01*
X538440Y459947D01*
X538087Y460301D01*
X538087Y462309D01*
X551362Y462309D01*
X551362Y443295D01*
D02*
G37*
G36*
X563567Y461638D02*
X563681D01*
Y452583D01*
X563567D01*
X563567Y442154D01*
X579315Y426406D01*
X579315Y397666D01*
Y384674D01*
X558449D01*
X558055Y384280D01*
X531677D01*
X531677Y413808D01*
X525378Y420107D01*
Y430737D01*
X522622Y430737D01*
X522622Y440579D01*
X520949Y442253D01*
X520892Y442538D01*
X520674Y442864D01*
X520349Y443081D01*
X520063Y443138D01*
X519866Y443335D01*
X513173Y443335D01*
Y450225D01*
X514149D01*
X514256Y450204D01*
X516323D01*
Y447272D01*
X519866Y447272D01*
X523016Y444123D01*
X527740D01*
X529315Y445698D01*
Y448454D01*
X534039D01*
X534039Y441761D01*
X552543Y441761D01*
X552543Y455146D01*
X552543Y463316D01*
X530201Y463316D01*
X528921Y464595D01*
X524591D01*
Y467999D01*
X524689Y468040D01*
X563567D01*
X563567Y461638D01*
D02*
G37*
G36*
X520161Y441482D02*
X520161Y439890D01*
X521441Y438611D01*
X521441Y431015D01*
X521163Y430737D01*
X513567D01*
X511992Y430737D01*
X511992Y418532D01*
X513567D01*
X516717Y418532D01*
X517898Y417351D01*
X517898Y405540D01*
X517536Y405146D01*
X510811Y405146D01*
Y411839D01*
X509630Y413020D01*
X505693Y416957D01*
Y433886D01*
X508055Y436249D01*
X514932Y436249D01*
X515831Y437275D01*
X515831Y438667D01*
X516316Y439152D01*
X516392Y439266D01*
X518553Y439266D01*
X519177Y439890D01*
X519177Y441482D01*
X519456Y441761D01*
X519883D01*
X520161Y441482D01*
D02*
G37*
G36*
X523410Y420599D02*
X530496Y413513D01*
Y401111D01*
X519079D01*
Y417745D01*
X517110Y419713D01*
X513567D01*
Y429556D01*
X523410D01*
Y420599D01*
D02*
G37*
%LPC*%
G36*
X513906Y742508D02*
X513330Y742393D01*
X512841Y742067D01*
X512515Y741578D01*
X512400Y741002D01*
X512515Y740426D01*
X512841Y739938D01*
X513330Y739612D01*
X513906Y739497D01*
X514482Y739612D01*
X514970Y739938D01*
X515296Y740426D01*
X515411Y741002D01*
X515296Y741578D01*
X514970Y742067D01*
X514482Y742393D01*
X513906Y742508D01*
D02*
G37*
G36*
X521650Y739799D02*
X521074Y739684D01*
X520585Y739358D01*
X520259Y738870D01*
X520144Y738294D01*
X520259Y737718D01*
X520585Y737229D01*
X521074Y736903D01*
X521650Y736788D01*
X522226Y736903D01*
X522714Y737229D01*
X523040Y737718D01*
X523155Y738294D01*
X523040Y738870D01*
X522714Y739358D01*
X522226Y739684D01*
X521650Y739799D01*
D02*
G37*
G36*
X507083D02*
X506507Y739684D01*
X506018Y739358D01*
X505692Y738870D01*
X505577Y738294D01*
X505692Y737718D01*
X506018Y737229D01*
X506507Y736903D01*
X507083Y736788D01*
X507659Y736903D01*
X508147Y737229D01*
X508473Y737718D01*
X508588Y738294D01*
X508473Y738870D01*
X508147Y739358D01*
X507659Y739684D01*
X507083Y739799D01*
D02*
G37*
G36*
X529673Y739405D02*
X529097Y739291D01*
X528609Y738964D01*
X528282Y738476D01*
X528168Y737900D01*
X528282Y737324D01*
X528609Y736835D01*
X529097Y736509D01*
X529673Y736395D01*
X530249Y736509D01*
X530738Y736835D01*
X531064Y737324D01*
X531179Y737900D01*
X531064Y738476D01*
X530738Y738964D01*
X530249Y739291D01*
X529673Y739405D01*
D02*
G37*
G36*
X540732Y709014D02*
X540156Y708899D01*
X539668Y708573D01*
X539342Y708085D01*
X539227Y707509D01*
X539342Y706932D01*
X539668Y706444D01*
X540156Y706118D01*
X540732Y706003D01*
X541308Y706118D01*
X541797Y706444D01*
X542123Y706932D01*
X542238Y707509D01*
X542123Y708085D01*
X541797Y708573D01*
X541308Y708899D01*
X540732Y709014D01*
D02*
G37*
G36*
X554118Y440116D02*
X553542Y440002D01*
X553054Y439675D01*
X552727Y439187D01*
X552613Y438611D01*
X552727Y438035D01*
X553054Y437547D01*
X553542Y437220D01*
X554118Y437106D01*
X554694Y437220D01*
X555183Y437547D01*
X555509Y438035D01*
X555623Y438611D01*
X555509Y439187D01*
X555183Y439675D01*
X554694Y440002D01*
X554118Y440116D01*
D02*
G37*
G36*
X526165Y436967D02*
X525589Y436852D01*
X525101Y436526D01*
X524775Y436037D01*
X524660Y435461D01*
X524775Y434885D01*
X525101Y434397D01*
X525589Y434071D01*
X526165Y433956D01*
X526741Y434071D01*
X527230Y434397D01*
X527556Y434885D01*
X527671Y435461D01*
X527556Y436037D01*
X527230Y436526D01*
X526741Y436852D01*
X526165Y436967D01*
D02*
G37*
G36*
X534433Y433817D02*
X533857Y433703D01*
X533369Y433376D01*
X533042Y432888D01*
X532928Y432312D01*
X533042Y431736D01*
X533369Y431247D01*
X533857Y430921D01*
X534433Y430806D01*
X535009Y430921D01*
X535498Y431247D01*
X535824Y431736D01*
X535938Y432312D01*
X535824Y432888D01*
X535498Y433376D01*
X535009Y433703D01*
X534433Y433817D01*
D02*
G37*
G36*
X552457Y428768D02*
X551881Y428654D01*
X551392Y428327D01*
X551066Y427839D01*
X550951Y427263D01*
X551066Y426687D01*
X551392Y426198D01*
X551881Y425872D01*
X552457Y425758D01*
X553033Y425872D01*
X553521Y426198D01*
X553847Y426687D01*
X553962Y427263D01*
X553847Y427839D01*
X553521Y428327D01*
X553033Y428654D01*
X552457Y428768D01*
D02*
G37*
G36*
X543906Y413740D02*
X542395Y413541D01*
X540987Y412958D01*
X539778Y412030D01*
X538850Y410821D01*
X538267Y409413D01*
X538068Y407902D01*
X538267Y406391D01*
X538850Y404984D01*
X539778Y403775D01*
X540987Y402847D01*
X542395Y402264D01*
X543906Y402065D01*
X545416Y402264D01*
X546824Y402847D01*
X548033Y403775D01*
X548961Y404984D01*
X549544Y406391D01*
X549743Y407902D01*
X549544Y409413D01*
X548961Y410821D01*
X548033Y412030D01*
X546824Y412958D01*
X545416Y413541D01*
X543906Y413740D01*
D02*
G37*
G36*
X576031Y400746D02*
X575455Y400632D01*
X574966Y400305D01*
X574640Y399817D01*
X574525Y399241D01*
X574640Y398665D01*
X574966Y398177D01*
X575455Y397850D01*
X576031Y397736D01*
X576607Y397850D01*
X577095Y398177D01*
X577422Y398665D01*
X577536Y399241D01*
X577422Y399817D01*
X577095Y400305D01*
X576607Y400632D01*
X576031Y400746D01*
D02*
G37*
%LPD*%
D10*
X558870Y545630D02*
Y546469D01*
X552819Y544517D02*
X557757D01*
X558870Y545630D01*
Y546469D02*
X560756Y548355D01*
X541598Y533296D02*
X552819Y544517D01*
X504689Y481239D02*
X505559Y480369D01*
X504689Y481239D02*
Y483983D01*
X506658D02*
X506658Y483983D01*
Y481219D02*
X508055Y479821D01*
X506658Y481219D02*
Y483983D01*
X488323Y571876D02*
X490097Y573650D01*
X504118D02*
X514792Y584324D01*
X490097Y573650D02*
X504118D01*
X514792Y584324D02*
X521200D01*
X493592Y571654D02*
X504877D01*
X515120Y581896D01*
X520676D01*
X535559Y687062D02*
Y687953D01*
X535220Y688291D02*
X535559Y687953D01*
Y687062D02*
X536217Y686404D01*
X535511Y693775D02*
X535656Y693919D01*
X535511Y689222D02*
Y693775D01*
X535220Y688931D02*
X535511Y689222D01*
X535220Y688611D02*
Y688931D01*
X533067Y693830D02*
X533156Y693919D01*
X533067Y686404D02*
Y693830D01*
X530961Y684329D02*
X533036Y686404D01*
X530961Y677430D02*
Y684329D01*
X533036Y686404D02*
X533067D01*
X530138Y676288D02*
Y676608D01*
X530961Y677430D01*
X530656Y704320D02*
Y708486D01*
X529533Y683711D02*
Y685541D01*
X515269Y669447D02*
X529533Y683711D01*
Y685541D02*
X530656Y686663D01*
X528156Y685798D02*
Y693919D01*
X514681Y672323D02*
X528156Y685798D01*
X513018Y669447D02*
X515269D01*
X528517Y742559D02*
X539541D01*
X540535Y741564D02*
X544393D01*
X539541Y742559D02*
X540535Y741564D01*
X469776Y670672D02*
X472039D01*
X468500Y669396D02*
X469776Y670672D01*
X547425Y561052D02*
Y564787D01*
X538792Y573420D02*
X547425Y564787D01*
X549984Y546780D02*
Y564559D01*
X517898Y536221D02*
Y538766D01*
X519318Y540186D02*
X535493D01*
X517898Y538766D02*
X519318Y540186D01*
X519445Y534674D02*
X541028D01*
X517898Y536221D02*
X519445Y534674D01*
X535493Y540186D02*
X536185Y540878D01*
Y544022D01*
X519866Y537036D02*
X522622D01*
X523410Y536249D01*
X538082D01*
X555299Y480343D02*
X561441D01*
X548606Y487036D02*
X555299Y480343D01*
X548606Y487036D02*
Y493335D01*
X549555Y494284D01*
X552392D02*
X552425Y494317D01*
X549555Y494284D02*
X552392D01*
X534858Y572351D02*
X543470Y563738D01*
Y556125D02*
Y563738D01*
Y556125D02*
X544843Y554753D01*
X545085Y558804D02*
Y564712D01*
Y558804D02*
X545668Y558222D01*
Y558162D02*
Y558222D01*
X536875Y572922D02*
X545085Y564712D01*
X541905Y553957D02*
Y562832D01*
X538154Y550206D02*
X541905Y553957D01*
X532941Y571796D02*
X541905Y562832D01*
X544843Y554753D02*
X547819D01*
X552937Y546583D02*
X556874D01*
X541028Y534674D02*
X552937Y546583D01*
X523491Y587999D02*
X524929Y586561D01*
X525888D02*
X527360Y588032D01*
X520711Y599605D02*
X522150Y598166D01*
X517355Y602002D02*
Y602961D01*
X515339Y596151D02*
X516298D01*
X526945Y592412D02*
Y593371D01*
X518696Y593753D02*
X522150Y597207D01*
X513901Y597589D02*
Y598548D01*
X509106Y602384D02*
Y603343D01*
X504311Y607179D02*
X505749Y605740D01*
X506708D01*
X510162Y609195D01*
X510544Y600946D02*
X511503D01*
X514958Y604400D01*
X527360Y588032D02*
X528319D01*
X523491Y587999D02*
Y588958D01*
X524547Y594810D02*
X525506D01*
X513901Y598548D02*
X517355Y602002D01*
X518696Y592794D02*
X520134Y591356D01*
X509106Y603343D02*
X512560Y606797D01*
X501965Y614387D02*
X503385Y612966D01*
X511122Y609195D02*
X512560Y607756D01*
X507448Y611276D02*
Y612235D01*
X506010Y613673D02*
X507448Y612235D01*
X514958Y604400D02*
X515916D01*
X524929Y586561D02*
X525888D01*
X523491Y588958D02*
X526945Y592412D01*
X505051Y613673D02*
X506010D01*
X528319Y588032D02*
X528528Y587824D01*
X525506Y594810D02*
X526945Y593371D01*
X520134Y591356D02*
X521093D01*
X510162Y609195D02*
X511122D01*
X504311Y608138D02*
X507448Y611276D01*
X519753Y599605D02*
X520711D01*
X509106Y602384D02*
X510544Y600946D01*
X516298Y596151D02*
X519753Y599605D01*
X513901Y597589D02*
X515339Y596151D01*
X503385Y612966D02*
X504344D01*
X518696Y592794D02*
Y593753D01*
X522150Y597207D02*
Y598166D01*
X504344Y612966D02*
X505051Y613673D01*
X512560Y606797D02*
Y607756D01*
X504311Y607179D02*
Y608138D01*
X515916Y604400D02*
X517355Y602961D01*
X521093Y591356D02*
X524547Y594810D01*
X528528Y587824D02*
X530872Y585479D01*
X499787Y679531D02*
X507369Y687113D01*
X528528Y572152D02*
Y580245D01*
X499787Y608985D02*
Y679531D01*
Y608985D02*
X528528Y580245D01*
X501965Y614387D02*
Y678155D01*
X507934Y684125D01*
X503831Y620603D02*
X508646Y615788D01*
X503831Y620603D02*
Y677187D01*
X515656Y689012D01*
X508646Y613611D02*
X510911Y611346D01*
X508646Y613611D02*
Y615788D01*
X510911Y611346D02*
X512486D01*
X532941Y590891D01*
X530872Y571902D02*
Y585479D01*
X532941Y571796D02*
Y590891D01*
X534858Y572351D02*
Y593305D01*
X505752Y622410D02*
X534858Y593305D01*
X520469Y528451D02*
X539158D01*
X517713Y530420D02*
X545533D01*
X513382Y526089D02*
X517713Y530420D01*
X516455Y531918D02*
X544275D01*
X504330Y533296D02*
X541598D01*
X539158Y528451D02*
X539849Y527759D01*
X468685Y556515D02*
X471235Y553965D01*
X468685Y565723D02*
X474396Y571434D01*
X468685Y556515D02*
Y565723D01*
X488551Y434034D02*
X497891D01*
X498825Y433099D01*
X499000D01*
X511619Y441346D02*
X513743D01*
X509794Y444927D02*
X510020Y445153D01*
X509794Y443172D02*
X511619Y441346D01*
X509794Y443172D02*
Y444927D01*
X513743Y441346D02*
X513764Y441367D01*
X494979Y474438D02*
X499037Y470380D01*
X483252Y474438D02*
X494979D01*
X499037Y470380D02*
X503520D01*
X502358Y471758D02*
X503933Y473333D01*
X503520Y470380D02*
X508069Y474929D01*
X499711Y471758D02*
X502358D01*
X495457Y476013D02*
X499711Y471758D01*
X527347Y538217D02*
X537447D01*
X521744Y565292D02*
X524197Y567745D01*
X525378D01*
X523618Y572817D02*
X528559Y567876D01*
X526165Y572365D02*
X530193Y568337D01*
X528559Y565414D02*
Y567876D01*
X530193Y564292D02*
Y568337D01*
X524406Y561261D02*
X528559Y565414D01*
X532142Y544128D02*
Y548383D01*
X530496Y550028D02*
Y559083D01*
Y550028D02*
X532142Y548383D01*
X530496Y559083D02*
X534039Y562627D01*
X528528Y560264D02*
X532071Y563808D01*
X530280Y544022D02*
Y547883D01*
X528528Y549635D02*
Y560264D01*
Y549635D02*
X530280Y547883D01*
X538154Y544022D02*
Y550206D01*
X539847Y559379D02*
X539896D01*
X548462Y538097D02*
X552913Y542548D01*
X548462Y537118D02*
X549728Y535853D01*
X548462Y537118D02*
Y538097D01*
X552913Y542548D02*
X554413D01*
X538792Y573420D02*
Y596063D01*
X509630Y625225D02*
Y668878D01*
Y625225D02*
X538792Y596063D01*
X536875Y572922D02*
Y594830D01*
X507661Y624044D02*
Y669554D01*
Y624044D02*
X536875Y594830D01*
X540535Y574008D02*
Y597469D01*
X511483Y626522D02*
Y667912D01*
Y626522D02*
X540535Y597469D01*
X540024Y540794D02*
Y543924D01*
X537447Y538217D02*
X540024Y540794D01*
Y543924D02*
X540122Y544022D01*
X538082Y536249D02*
X541894Y540061D01*
Y543825D01*
X482465Y476013D02*
X495457D01*
X552425Y514002D02*
X552502Y513926D01*
X555613D01*
X555927Y513611D01*
X508069Y474929D02*
Y477286D01*
X555927Y513611D02*
X561655D01*
X563505Y511761D02*
X563567D01*
X563488Y514989D02*
X563567Y515068D01*
X552526Y512135D02*
X559509D01*
X556498Y514989D02*
X563488D01*
X561655Y513611D02*
X563505Y511761D01*
X552425Y515971D02*
X552622Y515774D01*
X559509Y512135D02*
X563598Y508045D01*
X552622Y515774D02*
X555713D01*
X556498Y514989D01*
X560756Y548355D02*
X563567D01*
X566323Y498443D02*
X566335Y498431D01*
X563598Y506012D02*
X565929Y503682D01*
X566323Y498443D02*
Y502362D01*
X565929Y502756D02*
X566323Y502362D01*
X565929Y502756D02*
Y503682D01*
X563598Y506012D02*
Y508045D01*
X552425Y512034D02*
X552526Y512135D01*
X518277Y512034D02*
X552425D01*
X540535Y574008D02*
X549984Y564559D01*
X563576Y515068D02*
X564678Y516170D01*
X563370Y511564D02*
X563794Y511140D01*
Y510432D02*
Y511140D01*
Y510432D02*
X566126Y508099D01*
Y507509D02*
X566520Y507115D01*
X569473D01*
X566126Y507509D02*
Y508099D01*
X567898Y516170D02*
X568334Y516606D01*
X564678Y516170D02*
X567898D01*
X552425Y537624D02*
X555784D01*
X559051Y534357D01*
X559051D01*
X545533Y530420D02*
X546832Y531719D01*
X517251Y507003D02*
X522423D01*
X523517Y508097D02*
X552425D01*
X522423Y507003D02*
X523517Y508097D01*
X519734Y510065D02*
X552425D01*
X506549Y508700D02*
X518369D01*
X519734Y510065D01*
X504960Y510449D02*
X516692D01*
X518277Y512034D01*
X520437Y494066D02*
X522778Y496406D01*
X520437Y483983D02*
Y494066D01*
X522778Y496406D02*
Y501448D01*
X522406Y483983D02*
Y490953D01*
X524799Y493347D02*
Y495774D01*
X522406Y490953D02*
X524799Y493347D01*
X524177Y484179D02*
Y489379D01*
X528736Y493938D02*
Y497743D01*
X524177Y489379D02*
X528736Y493938D01*
X526343Y483983D02*
Y487627D01*
X528311Y483983D02*
Y490166D01*
X524177Y484179D02*
X524374Y483983D01*
X536508Y556040D02*
X539847Y559379D01*
X531382Y493237D02*
X535516D01*
X528311Y490166D02*
X531382Y493237D01*
X538154Y483983D02*
Y494438D01*
X533055Y496485D02*
X536106D01*
X538154Y494438D01*
X540535Y503178D02*
X547428Y496286D01*
X552425D01*
X524591Y503178D02*
X540535D01*
X526343Y560442D02*
X530193Y564292D01*
X523618Y572817D02*
Y578954D01*
X532071Y563808D02*
Y568609D01*
X528528Y572152D02*
X532071Y568609D01*
X549728Y535853D02*
X552228D01*
X552425Y535656D01*
X495980Y541646D02*
X504330Y533296D01*
X509630Y668878D02*
X513076Y672323D01*
X511483Y667912D02*
X513018Y669447D01*
X525656Y686297D02*
Y693919D01*
X507661Y669554D02*
X512233Y674126D01*
X513076Y672323D02*
X514681D01*
X512233Y674126D02*
X513485D01*
X525656Y686297D01*
X508055Y477902D02*
X508370Y477587D01*
X508055Y477902D02*
Y479821D01*
X508069Y477286D02*
X508370Y477587D01*
X507661Y549831D02*
Y556995D01*
X509630Y558963D01*
Y570107D01*
X512563Y548263D02*
X513764Y549464D01*
Y570205D02*
X515929Y572371D01*
X513764Y549464D02*
Y570205D01*
X504689Y544022D02*
X504886Y544219D01*
Y547056D01*
X507661Y549831D01*
X502720Y547317D02*
X505803Y550400D01*
Y558136D01*
X502720Y544022D02*
Y547317D01*
X510626Y550420D02*
X510626D01*
X506658Y544022D02*
X506854Y544219D01*
Y546648D01*
X510626Y550420D01*
X534736Y721809D02*
Y722597D01*
Y718345D02*
Y721809D01*
X502740Y557115D02*
Y559069D01*
Y551485D02*
X503016Y551209D01*
X502740Y551485D02*
Y557115D01*
Y559069D02*
X504720Y561050D01*
X510516Y555737D02*
Y555824D01*
X510522Y555829D01*
X472269Y670902D02*
X473810D01*
X472039Y670672D02*
X472269Y670902D01*
X473810D02*
X477768Y674859D01*
Y677672D01*
X482350Y442597D02*
Y450917D01*
X480249Y453019D02*
X482350Y450917D01*
X482154Y442400D02*
X482350Y442597D01*
X488551Y437971D02*
X491642D01*
X493070Y439398D02*
X495850D01*
X491642Y437971D02*
X493070Y439398D01*
X488551Y439939D02*
X491457D01*
X492863Y441345D01*
X498063D01*
X470406Y425002D02*
X470613D01*
X473247Y427636D01*
X476248D01*
X534248Y548813D02*
X536508Y551073D01*
Y556040D01*
X534217Y548813D02*
X534248D01*
X530872Y571902D02*
X534039Y568735D01*
Y562627D02*
Y568735D01*
X526165Y572365D02*
Y579359D01*
X530705Y610341D02*
Y616957D01*
X531413Y617666D01*
Y620971D01*
X476923Y575477D02*
X483323Y581876D01*
X476923Y573791D02*
Y575477D01*
X476859Y573727D02*
X476923Y573791D01*
X479136Y456487D02*
X481455D01*
X477000Y458623D02*
Y462788D01*
Y458623D02*
X479136Y456487D01*
X473591Y438168D02*
X473787Y437971D01*
X470406Y439844D02*
Y440000D01*
X472082Y438168D02*
X473591D01*
X470406Y439844D02*
X472082Y438168D01*
X513882Y438217D02*
Y438279D01*
X515535Y439933D01*
Y441170D01*
X515732Y441367D01*
X521200Y584324D02*
X526165Y579359D01*
X520676Y581896D02*
X523618Y578954D01*
X473847Y445232D02*
X476934D01*
X478020Y444146D01*
Y442597D02*
Y444146D01*
X484122Y442400D02*
Y451412D01*
X552425Y510065D02*
X552425Y510065D01*
X532142Y544128D02*
X532248Y544022D01*
X534721Y620971D02*
X543104D01*
X544563Y619511D01*
Y576119D02*
Y619511D01*
X505752Y676841D02*
X508064Y679153D01*
X518156Y687688D02*
Y693919D01*
X509621Y679153D02*
X518156Y687688D01*
X508064Y679153D02*
X509621D01*
X515656Y689012D02*
Y693919D01*
X505752Y622410D02*
Y676841D01*
X500575Y431524D02*
X507268Y438217D01*
X544563Y576119D02*
X549787Y570894D01*
Y568139D02*
Y570894D01*
X542594Y574938D02*
Y618609D01*
X545457Y572076D02*
Y572076D01*
X542594Y574938D02*
X545457Y572076D01*
X473161Y456932D02*
Y466709D01*
X477075Y453019D02*
X480249D01*
X473161Y456932D02*
X477075Y453019D01*
X478062Y454716D02*
X480818D01*
X474867Y457911D02*
X478062Y454716D01*
X480818D02*
X484122Y451412D01*
X486091Y447451D02*
Y451851D01*
X481455Y456487D02*
X486091Y451851D01*
Y442400D02*
Y447451D01*
X471256Y449241D02*
Y467953D01*
X478638Y475335D02*
Y481010D01*
X471256Y467953D02*
X478638Y475335D01*
X479032Y481404D02*
X479524D01*
X478638Y481010D02*
X479032Y481404D01*
X473161Y466709D02*
X482465Y476013D01*
X474867Y457911D02*
Y466053D01*
X483252Y474438D01*
X548606Y506128D02*
X552425D01*
X471256Y447823D02*
X473847Y445232D01*
X471256Y447823D02*
Y449241D01*
X478020Y442597D02*
X478217Y442400D01*
X486144Y447451D02*
X486323Y447272D01*
X541894Y543825D02*
X542091Y544022D01*
X515449Y530912D02*
X516455Y531918D01*
X515252Y530912D02*
X515449D01*
X544275Y531918D02*
X546045Y533687D01*
X508904Y727935D02*
X513776Y723063D01*
X508904Y727935D02*
Y729257D01*
X513776Y718215D02*
Y723063D01*
X507919Y730242D02*
X508904Y729257D01*
X506087Y504359D02*
X514607D01*
X517251Y507003D01*
X517975Y505260D02*
X522508D01*
X524591Y503178D01*
X542086Y525153D02*
X542605Y525671D01*
Y527759D01*
X539849Y525671D02*
Y527759D01*
Y525671D02*
X540368Y525153D01*
X542086D01*
X515535Y576013D02*
X517898D01*
X509630Y570107D02*
X515535Y576013D01*
X542671Y724542D02*
X542732Y724603D01*
X542671Y721870D02*
Y724542D01*
X542610Y721809D02*
X542671Y721870D01*
X507870Y676089D02*
X512687D01*
X523156Y686558D01*
X530656Y686663D02*
Y693919D01*
X523156Y686558D02*
Y693919D01*
X497031Y403965D02*
Y419396D01*
X504118Y426483D02*
Y431918D01*
X497031Y419396D02*
X504118Y426483D01*
X515388Y512102D02*
X517487Y514201D01*
X546770D01*
X487398Y483963D02*
X487825Y484390D01*
X493992D02*
X500575Y490973D01*
X487825Y484390D02*
X493992D01*
X526436Y626404D02*
X527586Y625254D01*
X528006D02*
X528232Y625028D01*
X526374Y626404D02*
X526436D01*
X527586Y625254D02*
X528006D01*
X540642Y721809D02*
Y727244D01*
X542610Y718345D02*
Y721809D01*
Y716022D02*
Y718345D01*
X533904Y729651D02*
X536595Y726959D01*
Y723239D02*
X536606Y723228D01*
Y721908D02*
X536705Y721809D01*
X536606Y721908D02*
Y723228D01*
X536595Y723239D02*
Y726959D01*
X532389Y724944D02*
X534736Y722597D01*
X529573Y729651D02*
X532389Y726835D01*
Y724944D02*
Y726835D01*
X520654Y724210D02*
Y729984D01*
X519681Y721679D02*
X519780Y721778D01*
Y723336D01*
X520654Y724210D01*
X500265Y550481D02*
X500889Y549857D01*
X500752Y544022D02*
X500889Y544159D01*
Y549857D01*
X499894Y550850D02*
X500263Y550481D01*
X499894Y550850D02*
Y551124D01*
X500263Y550481D02*
X500265D01*
X512563Y544022D02*
Y548263D01*
X502964Y512102D02*
X515388D01*
X498421Y507559D02*
X502964Y512102D01*
X503331Y505482D02*
X506549Y508700D01*
X513216Y500502D02*
X517975Y505260D01*
X482858Y543020D02*
X482937Y542942D01*
X483252D01*
X492386Y531719D02*
X496295D01*
X497358Y532782D01*
Y537699D01*
X492116Y542942D02*
X497358Y537699D01*
X483252Y542942D02*
X492116D01*
X480977D02*
X482780D01*
X482858Y543020D01*
X482881Y571434D02*
X483323Y571876D01*
X474396Y571434D02*
X482881D01*
X471235Y553965D02*
X475267D01*
X477939Y551293D01*
Y545979D02*
Y551293D01*
Y545979D02*
X480977Y542942D01*
X490434Y395399D02*
X491520Y396485D01*
X490434Y392564D02*
Y395399D01*
X486874Y389005D02*
X490434Y392564D01*
X491520Y396485D02*
X492738Y397704D01*
Y399672D01*
X497031Y403965D01*
X494374Y420993D02*
X500575Y427194D01*
Y431524D01*
X507268Y438217D02*
X513882D01*
X493488Y411052D02*
Y420107D01*
X493578D01*
X494374Y420902D01*
Y420993D01*
X495850Y439398D02*
X498213Y437036D01*
X498063Y441345D02*
X498084Y441324D01*
X493500Y406351D02*
Y411052D01*
X538973Y500498D02*
X542267Y497204D01*
X542091Y483983D02*
X542267Y484159D01*
Y497204D01*
X517898Y502263D02*
X518106D01*
X521109Y497094D02*
Y499260D01*
X518106Y502263D02*
X521109Y499260D01*
X518469Y494453D02*
X521109Y497094D01*
X510417Y484160D02*
X510595Y483983D01*
X510417Y484160D02*
Y489792D01*
X509236Y490973D02*
X510417Y489792D01*
X514532Y483983D02*
Y489077D01*
X512386Y491223D02*
Y494123D01*
Y491223D02*
X514532Y489077D01*
X511598Y464497D02*
X513961Y466859D01*
X530705Y470183D02*
Y470698D01*
X530508Y470894D02*
X530705Y470698D01*
X515142Y470894D02*
X530508D01*
X513961Y469713D02*
X515142Y470894D01*
X513961Y466859D02*
Y469713D01*
X517504Y449438D02*
Y450604D01*
Y449438D02*
X517701Y449241D01*
X510811Y454753D02*
X514256Y451308D01*
X516800D02*
X517504Y450604D01*
X514256Y451308D02*
X516800D01*
X470406Y431002D02*
X470906D01*
X470406Y428002D02*
X470594Y428191D01*
X471020D01*
X470406Y436769D02*
Y436885D01*
Y436769D02*
X471172Y436002D01*
X468685Y640447D02*
X470403Y642165D01*
X478217Y425308D02*
Y427636D01*
X472705Y429876D02*
Y429998D01*
X472803Y430097D02*
X473787D01*
X472705Y429998D02*
X472803Y430097D01*
X472831Y443412D02*
X472966Y443277D01*
X477937Y506131D02*
X478134Y505934D01*
X477937Y506131D02*
Y508690D01*
Y522745D02*
X478449Y523257D01*
X474984Y522076D02*
X475969Y521091D01*
X472569Y642461D02*
X474110D01*
X478568Y646919D01*
Y649306D02*
X478579Y649317D01*
X486091Y421062D02*
X487045Y420107D01*
X487189D01*
X484024Y427538D02*
X484122Y427636D01*
X484039Y485252D02*
X485150Y484141D01*
X487219D01*
X487398Y483963D01*
X485220Y489266D02*
Y495580D01*
X484039Y499519D02*
Y499635D01*
Y499519D02*
X485220Y498338D01*
X482280Y698530D02*
X482319Y698490D01*
X482673Y713205D02*
Y717349D01*
Y713205D02*
X482858Y713020D01*
X482045Y717546D02*
X482280Y717311D01*
Y717034D02*
Y717311D01*
X488551Y430097D02*
X492160D01*
X495373Y428065D02*
X495457Y427981D01*
X492160Y430097D02*
X494192Y428065D01*
X495373D01*
X493149Y436818D02*
X493576D01*
X492334Y436002D02*
X493149Y436818D01*
X488551Y436002D02*
X492334D01*
X491126Y490282D02*
X491224Y490380D01*
X492386D01*
Y502191D02*
X492391Y502196D01*
X492386Y498254D02*
X492484Y498353D01*
X488525Y500223D02*
X492386D01*
X488503Y500201D02*
X488525Y500223D01*
X492406Y517939D02*
X492408Y517942D01*
X492386Y517939D02*
X492406D01*
X492122Y570183D02*
X492122D01*
X493592Y571654D01*
X488765Y587319D02*
X490227D01*
X495457Y592548D02*
X495457D01*
X488973Y677427D02*
X489075Y677325D01*
X507330Y445153D02*
X510020D01*
X506693Y444517D02*
X507330Y445153D01*
X506874Y454753D02*
X510811D01*
X504661Y476719D02*
X505559Y477616D01*
X504650Y476719D02*
X504661D01*
X507214Y489058D02*
Y494069D01*
X508055Y500422D02*
X508135Y500502D01*
X510417Y516043D02*
Y516170D01*
X510151Y515776D02*
X510417Y516043D01*
X509957Y515971D02*
X510151Y515776D01*
X511020Y520971D02*
Y520971D01*
X509051Y525400D02*
X510801Y523650D01*
X510522Y553831D02*
X510626Y553727D01*
X510522Y553831D02*
Y555829D01*
X504720Y561050D02*
Y561050D01*
X507369Y687113D02*
X510887D01*
X515929Y490366D02*
Y490580D01*
Y490366D02*
X516500Y489795D01*
X513070Y514002D02*
X513076Y513996D01*
X513772D02*
X513867Y514090D01*
X513076Y513996D02*
X513772D01*
X514630Y547250D02*
X515881Y548501D01*
X516778Y557713D02*
Y559091D01*
Y557713D02*
X517467Y557024D01*
X516778Y553580D02*
X517467Y554269D01*
X516778Y563225D02*
Y564603D01*
Y563225D02*
X517467Y562536D01*
X516778Y564603D02*
X517467Y565292D01*
X516126Y579753D02*
X519473D01*
X515656Y693919D02*
X515656Y693919D01*
X513156Y689381D02*
Y693919D01*
X518106Y700892D02*
X518291Y701077D01*
X518156Y708486D02*
X518291Y708350D01*
X512595Y704435D02*
X512783Y704624D01*
Y708113D01*
X513156Y708486D01*
X515744Y716513D02*
X516138Y716119D01*
Y715853D02*
Y716119D01*
X513382Y715853D02*
Y716119D01*
X513776Y716513D01*
Y718215D01*
X515744Y716513D02*
Y718215D01*
X513173Y727085D02*
X515744Y724514D01*
Y721679D02*
Y724514D01*
X518500Y724725D02*
Y724908D01*
X517713Y723938D02*
X518500Y724725D01*
X517713Y721679D02*
Y723938D01*
X521047Y503178D02*
X522778Y501448D01*
X521047Y503178D02*
Y503178D01*
X521489Y548501D02*
X522240Y549253D01*
Y550821D01*
X521548Y551513D02*
X522240Y550821D01*
X523028Y554957D02*
Y556335D01*
X522339Y557024D02*
X523028Y556335D01*
X522339Y554269D02*
X523028Y554957D01*
Y560469D02*
Y561847D01*
X522339Y562536D02*
X523028Y561847D01*
X525551Y708381D02*
X525656Y708486D01*
X525551Y704399D02*
Y708381D01*
X520654Y729984D02*
X520911Y730242D01*
X534169Y473924D02*
X534642D01*
X532203Y523650D02*
X535036Y526483D01*
X534736Y716692D02*
Y718345D01*
X534228Y716184D02*
X534736Y716692D01*
X534228Y715982D02*
Y716184D01*
X533904Y729651D02*
Y730242D01*
X529573Y729651D02*
Y730242D01*
X531492Y744593D02*
X531514Y744615D01*
X536965Y476916D02*
X537004Y476876D01*
X536965Y476916D02*
Y479199D01*
X536925Y479239D02*
X536965Y479199D01*
X540122Y482014D02*
Y483983D01*
Y482014D02*
X540232Y481904D01*
X540122Y483983D02*
X540138Y483998D01*
Y488672D02*
X540189Y488723D01*
X536537Y627984D02*
X539224D01*
X536705Y715867D02*
Y718345D01*
X540133Y717049D02*
X540642Y717557D01*
X540133Y715571D02*
Y717049D01*
X539945Y715383D02*
X540133Y715571D01*
X536705Y715867D02*
X536795Y715776D01*
X542386Y716246D02*
X542610Y716022D01*
X538673Y721809D02*
Y724420D01*
X538579Y724514D02*
X538673Y724420D01*
X539219Y728667D02*
X539219D01*
X538234Y729651D02*
Y730242D01*
Y729651D02*
X539219Y728667D01*
X543297Y528451D02*
X547895D01*
X549096Y529652D01*
X566795Y482233D02*
Y484280D01*
X563488Y482390D02*
Y484280D01*
X568590Y480439D02*
X570164D01*
X573410Y484201D02*
X573488Y484280D01*
X573410Y481918D02*
Y484201D01*
X571942Y480451D02*
X573410Y481918D01*
X570367Y480451D02*
X571942D01*
X573488Y484280D02*
X573815D01*
X574184Y560473D02*
Y563427D01*
Y556930D02*
Y560473D01*
X567898Y566564D02*
X571047D01*
X566717Y565383D02*
X567898Y566564D01*
X468685Y637430D02*
Y640447D01*
X468500Y663884D02*
Y669396D01*
Y663884D02*
X469681Y662703D01*
X474911Y422002D02*
X478217Y425308D01*
X473064Y439939D02*
X473787D01*
X472966Y440038D02*
X473064Y439939D01*
X472966Y440038D02*
Y443277D01*
X473737Y432015D02*
X473787Y432065D01*
X477937Y518926D02*
Y522745D01*
X475969Y518926D02*
Y521091D01*
X478568Y646919D02*
Y649306D01*
X486091Y421062D02*
Y427636D01*
X484827Y503178D02*
X485809Y504160D01*
X485220Y495580D02*
X485299Y495658D01*
Y495698D01*
X484039Y488085D02*
X485220Y489266D01*
X484039Y485252D02*
Y488085D01*
X485220Y495776D02*
Y498338D01*
Y495776D02*
X485299Y495698D01*
X482319Y696282D02*
X482358Y696243D01*
X482319Y696282D02*
Y698490D01*
X488551Y432065D02*
X492823D01*
X491126Y488217D02*
Y490282D01*
X489421Y558034D02*
Y565260D01*
X490227Y587319D02*
X495457Y592548D01*
X503331Y501209D02*
Y505482D01*
X498421Y491575D02*
Y507559D01*
X500575Y490973D02*
Y506063D01*
X501405Y576800D02*
X502116Y576089D01*
X502358D01*
X505559Y477616D02*
Y480369D01*
X507214Y494069D02*
X511598Y498454D01*
X507214Y489058D02*
X508626Y487646D01*
X507991Y517942D02*
X511020Y520971D01*
X507476Y559809D02*
Y571103D01*
X505803Y558136D02*
X507476Y559809D01*
X514630Y544120D02*
Y547250D01*
X514532Y544022D02*
X514630Y544120D01*
X516778Y552202D02*
X517467Y551513D01*
X516778Y559091D02*
X517467Y559780D01*
X516778Y552202D02*
Y553580D01*
X515622Y704187D02*
X515656Y704220D01*
X513173Y727085D02*
Y729318D01*
X517713Y718215D02*
Y721679D01*
X515744Y718215D02*
Y721679D01*
X524374Y544022D02*
X524406Y544054D01*
X522339Y559780D02*
X523028Y560469D01*
X520656Y704382D02*
X520703Y704334D01*
X520656Y686906D02*
Y693919D01*
X525445Y704294D02*
X525551Y704399D01*
X534642Y470183D02*
Y473924D01*
X531350Y620971D02*
Y625425D01*
X534721Y620971D02*
Y626168D01*
X540232Y479239D02*
Y481904D01*
X542605Y527759D02*
X543297Y528451D01*
X536705Y718345D02*
Y721809D01*
X540642Y717557D02*
Y721809D01*
X539219Y728667D02*
X540642Y727244D01*
X538673Y718345D02*
Y721809D01*
X561441Y480343D02*
X563488Y482390D01*
X570164Y480439D02*
X570260Y480343D01*
X570367Y480451D01*
X482154Y417828D02*
Y427636D01*
X484024Y416088D02*
Y427538D01*
X508626Y483983D02*
Y487646D01*
X518469Y483983D02*
Y494453D01*
X516500Y483983D02*
Y489795D01*
X512563Y483983D02*
Y487646D01*
X518291Y701077D02*
Y708350D01*
X515656Y704220D02*
Y708486D01*
X526343Y544022D02*
Y560442D01*
X524406Y544054D02*
Y561261D01*
X520656Y704382D02*
Y708486D01*
X523156Y700892D02*
Y708486D01*
X534217Y544022D02*
Y548813D01*
X540138Y483998D02*
Y488672D01*
X573815Y484280D02*
Y488392D01*
X471736Y407509D02*
X471835D01*
X470406Y422002D02*
X474911D01*
X470406Y419002D02*
X475061D01*
X471020Y428191D02*
X472705Y429876D01*
X471172Y436002D02*
X473787D01*
X471203Y434034D02*
X473787D01*
X471835Y494517D02*
X472228Y494910D01*
Y496957D02*
X478134Y502863D01*
X480102D01*
X472228Y518926D02*
X472228Y518926D01*
X474000D01*
X479917Y548530D02*
X479917D01*
X472273Y642165D02*
X472569Y642461D01*
X470403Y642165D02*
X472273D01*
X477358Y717546D02*
X479799D01*
X482045D01*
X503933Y473333D02*
Y476010D01*
X504012Y476089D01*
X504020D02*
X504650Y476719D01*
X504012Y476089D02*
X504020D01*
X487398Y486522D02*
X487705Y486215D01*
X493061D01*
X508135Y500502D02*
X513216D01*
X495882Y498353D02*
X496059Y498175D01*
Y498136D02*
Y498175D01*
X495966Y502196D02*
X495970Y502201D01*
X492391Y502196D02*
X495966D01*
X492484Y498353D02*
X495882D01*
X500575Y506063D02*
X504960Y510449D01*
X492386Y514002D02*
X513070D01*
X492386Y515971D02*
X509957D01*
X492408Y517942D02*
X507991D01*
X492386Y521876D02*
X500410D01*
X503933Y525400D01*
X509051D01*
X488323Y566358D02*
Y566876D01*
Y566358D02*
X489421Y565260D01*
X488323Y576876D02*
X488399Y576800D01*
X501405D01*
X488323Y586876D02*
X488765Y587319D01*
X512250Y730242D02*
X513173Y729318D01*
X532280Y500498D02*
X538973D01*
X517467Y551513D02*
X521548D01*
X517467Y557024D02*
X522339D01*
X517467Y554269D02*
X522339D01*
X517467Y562536D02*
X522339D01*
X517467Y565292D02*
X521744D01*
X534721Y626168D02*
X536537Y627984D01*
X518500Y684750D02*
X520656Y686906D01*
X527949Y700765D02*
X528156Y700971D01*
X519681Y716837D02*
Y718215D01*
X544393Y741564D02*
X545321Y740635D01*
X531514Y744615D02*
X543986D01*
X544533Y745163D01*
X566795Y482233D02*
X568590Y480439D01*
X552327Y529652D02*
X552425Y529750D01*
X549096Y529652D02*
X552327D01*
X573924Y556733D02*
X573987D01*
X574184Y556930D01*
X471835Y407509D02*
X482154Y417828D01*
X480185Y424127D02*
Y427636D01*
X471918Y432015D02*
X473737D01*
X470906Y431002D02*
X471918Y432015D01*
X472228Y494910D02*
Y496957D01*
X493061Y486215D02*
X498421Y491575D01*
X512386Y487824D02*
X512563Y487646D01*
X485809Y504160D02*
X492386D01*
Y519908D02*
X503465D01*
X503664Y520107D01*
X503931D01*
X510887Y687113D02*
X513156Y689381D01*
X536154Y488294D02*
X536185Y488262D01*
X535429Y488294D02*
X536154D01*
X517467Y559780D02*
X522339D01*
X519681Y718215D02*
Y721679D01*
X526559Y744517D02*
X528517Y742559D01*
X571047Y566564D02*
X574184Y563427D01*
X475061Y419002D02*
X480185Y424127D01*
X495980Y541646D02*
Y551286D01*
X536185Y483983D02*
Y488262D01*
X528156Y700971D02*
Y708486D01*
X511598Y498454D02*
X519079D01*
X480102Y503178D02*
X484827D01*
X515881Y548501D02*
X521489D01*
X546045Y533687D02*
X552425D01*
X546832Y531719D02*
X552425D01*
X475772Y407836D02*
X484024Y416088D01*
X479917Y548530D02*
X489421Y558034D01*
X507476Y571103D02*
X516126Y579753D01*
X510801Y523650D02*
X532203D01*
D11*
X465929Y789791D02*
Y785856D01*
X468553D01*
X471833D02*
Y789791D01*
X469865Y787824D01*
X472489D01*
X477736D02*
X480360D01*
X488232Y789136D02*
X487576Y789791D01*
X486264D01*
X485608Y789136D01*
Y788480D01*
X486264Y787824D01*
X487576D01*
X488232Y787168D01*
Y786512D01*
X487576Y785856D01*
X486264D01*
X485608Y786512D01*
X492167Y789791D02*
X489544D01*
Y785856D01*
X492167D01*
X489544Y787824D02*
X490856D01*
X496103Y789136D02*
X495447Y789791D01*
X494135D01*
X493479Y789136D01*
Y786512D01*
X494135Y785856D01*
X495447D01*
X496103Y786512D01*
X499383Y789791D02*
X498071D01*
X497415Y789136D01*
Y786512D01*
X498071Y785856D01*
X499383D01*
X500039Y786512D01*
Y789136D01*
X499383Y789791D01*
X501351Y785856D02*
Y789791D01*
X503975Y785856D01*
Y789791D01*
X505287D02*
Y785856D01*
X507254D01*
X507910Y786512D01*
Y789136D01*
X507254Y789791D01*
X505287D01*
X509222Y785856D02*
Y788480D01*
X510534Y789791D01*
X511846Y788480D01*
Y785856D01*
Y787824D01*
X509222D01*
X513158Y785856D02*
Y789791D01*
X515126D01*
X515782Y789136D01*
Y787824D01*
X515126Y787168D01*
X513158D01*
X514470D02*
X515782Y785856D01*
X517094Y789791D02*
Y789136D01*
X518406Y787824D01*
X519718Y789136D01*
Y789791D01*
X518406Y787824D02*
Y785856D01*
X527589Y789136D02*
X526933Y789791D01*
X525621D01*
X524965Y789136D01*
Y788480D01*
X525621Y787824D01*
X526933D01*
X527589Y787168D01*
Y786512D01*
X526933Y785856D01*
X525621D01*
X524965Y786512D01*
X528901Y789791D02*
X530213D01*
X529557D01*
Y785856D01*
X528901D01*
X530213D01*
X532181Y789791D02*
Y785856D01*
X534149D01*
X534805Y786512D01*
Y789136D01*
X534149Y789791D01*
X532181D01*
X538740D02*
X536117D01*
Y785856D01*
X538740D01*
X536117Y787824D02*
X537428D01*
D12*
X537337Y663168D02*
X538402Y664233D01*
X540307D02*
X540339Y664201D01*
X536033Y665881D02*
X539329D01*
X538402Y664233D02*
X540307D01*
X536008Y665855D02*
X536033Y665881D01*
X539329D02*
X539354Y665906D01*
Y662497D02*
X539392Y662459D01*
Y661030D02*
X539551Y660871D01*
X539392Y661030D02*
Y662459D01*
X535614Y660264D02*
X535765Y660415D01*
X536628Y663168D02*
X537337D01*
X535765Y662305D02*
X536628Y663168D01*
X535765Y660415D02*
Y662305D01*
X541205Y669320D02*
X541285Y669239D01*
Y665944D02*
Y669239D01*
Y665944D02*
X541323Y665906D01*
X539551Y660658D02*
Y660871D01*
X541323Y662443D02*
Y662497D01*
Y662443D02*
X541520Y662247D01*
Y658611D02*
Y662247D01*
X541205Y658296D02*
X541520Y658611D01*
X537278Y657676D02*
X537898Y658296D01*
X536388Y657676D02*
X537278D01*
X536221Y657509D02*
X536388Y657676D01*
X536008Y657509D02*
X536221D01*
X555135Y498156D02*
X556579Y496711D01*
X552524Y498156D02*
X555135D01*
X556579Y496711D02*
X556962D01*
X557230Y496444D01*
X552425Y498254D02*
X552524Y498156D01*
X506638Y720737D02*
X506795Y720894D01*
X506638Y718690D02*
Y720737D01*
X506480Y718532D02*
X506638Y718690D01*
X476346Y440775D02*
Y442302D01*
Y440775D02*
X477257Y439865D01*
X476248Y442400D02*
X476346Y442302D01*
X477257Y438931D02*
Y439865D01*
Y438931D02*
X481169Y435018D01*
D14*
X541205Y669320D02*
D03*
X537898D02*
D03*
X541205Y658296D02*
D03*
X537898D02*
D03*
X565358Y524831D02*
D03*
X568665D02*
D03*
X568705D02*
D03*
X572012D02*
D03*
X569394Y538709D02*
D03*
X572701D02*
D03*
X531233Y635084D02*
D03*
X510102Y720894D02*
D03*
X570181Y484280D02*
D03*
X483567Y389005D02*
D03*
X569602Y502073D02*
D03*
X479445Y491049D02*
D03*
X481756Y523257D02*
D03*
X471756Y504753D02*
D03*
X474669Y449241D02*
D03*
X489630Y447272D02*
D03*
X511677Y477587D02*
D03*
X500705Y476089D02*
D03*
X471421Y677672D02*
D03*
X471965Y649317D02*
D03*
X472122Y713490D02*
D03*
X525508Y721758D02*
D03*
X544012Y479239D02*
D03*
X496717Y479162D02*
D03*
X545929Y549241D02*
D03*
X557189Y496485D02*
D03*
Y499635D02*
D03*
X482752Y491049D02*
D03*
X572909Y502073D02*
D03*
X560496Y499635D02*
D03*
Y496485D02*
D03*
X542622Y549241D02*
D03*
X493409Y479162D02*
D03*
X547319Y479239D02*
D03*
X528815Y721758D02*
D03*
X573488Y444910D02*
D03*
X570181D02*
D03*
X468815Y713490D02*
D03*
X523488Y438217D02*
D03*
X520181D02*
D03*
X534169Y473924D02*
D03*
X537476D02*
D03*
X493409Y466170D02*
D03*
X496717D02*
D03*
X475272Y649317D02*
D03*
X482173Y686683D02*
D03*
X478866D02*
D03*
X474728Y677672D02*
D03*
X540232Y479239D02*
D03*
X536925D02*
D03*
X499473Y551209D02*
D03*
X496165D02*
D03*
X504012Y476089D02*
D03*
X508370Y477587D02*
D03*
X486323Y447272D02*
D03*
X471362Y449241D02*
D03*
X478815Y713490D02*
D03*
X475508D02*
D03*
X513882Y438217D02*
D03*
X517189D02*
D03*
X512071Y457902D02*
D03*
X508764D02*
D03*
X512071Y461052D02*
D03*
X508764D02*
D03*
X493016Y469713D02*
D03*
X496323D02*
D03*
X574184Y560473D02*
D03*
X570876D02*
D03*
X478122Y635428D02*
D03*
X474815D02*
D03*
X481886Y649317D02*
D03*
X478579D02*
D03*
X477728Y663672D02*
D03*
X474421D02*
D03*
X477768Y677672D02*
D03*
X481075D02*
D03*
X506795Y720894D02*
D03*
X503252D02*
D03*
X506559D02*
D03*
X534540Y635084D02*
D03*
X534721Y620971D02*
D03*
X531413D02*
D03*
X558370Y490186D02*
D03*
X561677D02*
D03*
X503016Y551209D02*
D03*
X499709D02*
D03*
X499917Y479239D02*
D03*
X503224D02*
D03*
X483961Y533099D02*
D03*
X487268D02*
D03*
X486874Y389005D02*
D03*
X500004Y466170D02*
D03*
X503311D02*
D03*
X573488Y484280D02*
D03*
X563488D02*
D03*
X566795D02*
D03*
X485299Y495698D02*
D03*
X481992D02*
D03*
X475063Y504753D02*
D03*
X478449Y523257D02*
D03*
D15*
X536008Y665855D02*
D03*
Y662548D02*
D03*
X550181Y471209D02*
D03*
Y474516D02*
D03*
X539551Y683020D02*
D03*
Y686328D02*
D03*
X542701Y683020D02*
D03*
Y686328D02*
D03*
X563567Y506012D02*
D03*
Y502705D02*
D03*
Y515068D02*
D03*
Y511761D02*
D03*
X557268Y506012D02*
D03*
Y502705D02*
D03*
X469866Y508217D02*
D03*
X533067Y683097D02*
D03*
X536217D02*
D03*
X486520Y694030D02*
D03*
X470654Y548139D02*
D03*
X475378D02*
D03*
X482858Y539713D02*
D03*
X504720Y564357D02*
D03*
X560417Y502705D02*
D03*
X545665Y474396D02*
D03*
X482673Y720656D02*
D03*
X480102Y446012D02*
D03*
X486008Y539477D02*
D03*
X557083Y528372D02*
D03*
X557476Y517349D02*
D03*
X575772Y509635D02*
D03*
Y506327D02*
D03*
X469866Y511524D02*
D03*
X557476Y520656D02*
D03*
X557083Y531679D02*
D03*
X486008Y536170D02*
D03*
X480102Y449320D02*
D03*
X526374Y626404D02*
D03*
Y629711D02*
D03*
X522831Y626404D02*
D03*
Y629711D02*
D03*
X519681Y626404D02*
D03*
Y629711D02*
D03*
X489366Y649002D02*
D03*
Y645695D02*
D03*
Y639002D02*
D03*
Y642309D02*
D03*
X489075Y674018D02*
D03*
Y677325D02*
D03*
Y667018D02*
D03*
Y670325D02*
D03*
X560417Y506012D02*
D03*
X534248Y548845D02*
D03*
Y552152D02*
D03*
X504720Y561050D02*
D03*
X482858Y543020D02*
D03*
X496846Y703569D02*
D03*
Y706876D02*
D03*
X482673Y717349D02*
D03*
X510020Y445153D02*
D03*
Y448460D02*
D03*
X545665Y471089D02*
D03*
X542122Y474396D02*
D03*
Y471089D02*
D03*
X510024Y451524D02*
D03*
Y454831D02*
D03*
X508252Y467824D02*
D03*
Y464516D02*
D03*
X540154Y651601D02*
D03*
Y654908D02*
D03*
X536610D02*
D03*
Y651601D02*
D03*
X577740Y554674D02*
D03*
Y557981D02*
D03*
X493303Y649002D02*
D03*
Y645695D02*
D03*
X485468Y645774D02*
D03*
Y649081D02*
D03*
X481468Y631774D02*
D03*
Y635081D02*
D03*
X493075Y677325D02*
D03*
Y674018D02*
D03*
X485075Y677325D02*
D03*
Y674018D02*
D03*
X481075Y660018D02*
D03*
Y663325D02*
D03*
X471268Y690762D02*
D03*
Y694069D02*
D03*
X486520Y697337D02*
D03*
X536217Y686404D02*
D03*
X533067D02*
D03*
X505693Y461131D02*
D03*
Y457824D02*
D03*
X510626Y553727D02*
D03*
Y550420D02*
D03*
X475378Y544831D02*
D03*
X470654D02*
D03*
X480102Y502863D02*
D03*
Y499556D02*
D03*
D16*
X539354Y662497D02*
D03*
X541323D02*
D03*
X540339Y664201D02*
D03*
X539354Y665906D02*
D03*
X541323D02*
D03*
D37*
X579917Y567784D02*
D03*
X496638Y691761D02*
D03*
X524197Y373650D02*
D03*
D38*
X577067Y455733D02*
X578614Y454186D01*
Y450975D02*
Y454186D01*
X567208Y456829D02*
Y469024D01*
X581237Y483053D02*
Y551177D01*
X567208Y469024D02*
X581237Y483053D01*
X578408Y485876D02*
X578429Y485896D01*
X578528Y553887D02*
X581237Y551177D01*
X537898Y669320D02*
X538134Y669556D01*
Y670658D02*
X539157Y671682D01*
X538134Y669556D02*
Y670658D01*
X547974Y473727D02*
X548081D01*
X548634Y474280D01*
X549945D01*
X550181Y474516D01*
X547541Y474160D02*
X547974Y473727D01*
X493303Y649002D02*
Y660473D01*
X495949Y663119D02*
Y675178D01*
X493303Y660473D02*
X495949Y663119D01*
X533067Y662998D02*
Y665144D01*
X532378Y662309D02*
X533067Y662998D01*
Y665144D02*
X533252Y665329D01*
Y665383D01*
X488370Y625225D02*
Y628375D01*
X577740Y554674D02*
X578528Y553887D01*
X578528D01*
X578429Y485896D02*
Y542074D01*
X573809Y546497D02*
Y546694D01*
Y546497D02*
X574499Y545808D01*
X574695D02*
X578429Y542074D01*
X574499Y545808D02*
X574695D01*
X577543Y445107D02*
X577740Y445304D01*
X573685Y445107D02*
X577543D01*
X573488Y444910D02*
X573685Y445107D01*
X558134Y488349D02*
Y489950D01*
X558370Y490186D01*
X557661Y487877D02*
X558134Y488349D01*
X557661Y487824D02*
Y487877D01*
X546638Y551550D02*
Y551603D01*
X545929Y549241D02*
X546165Y549477D01*
Y551077D01*
X546638Y551550D01*
X562949Y524662D02*
X565189D01*
X563567Y518139D02*
X563620D01*
X566376Y520894D02*
X566717D01*
X563620Y518139D02*
X566376Y520894D01*
X565189Y524662D02*
X565358Y524831D01*
X568469Y524595D02*
X568705Y524831D01*
X566717Y520894D02*
Y521321D01*
X568469Y523072D01*
Y524595D01*
X490732Y479162D02*
X493409D01*
X491126Y470501D02*
X491179D01*
X491730Y469949D01*
X492780D02*
X493016Y469713D01*
X491730Y469949D02*
X492780D01*
X557713Y517112D02*
X559815D01*
X559970Y516957D01*
X560024D01*
X557476Y517349D02*
X557713Y517112D01*
X557189Y496485D02*
X557230Y496444D01*
Y494160D02*
Y496444D01*
Y494160D02*
X557268Y494123D01*
X574443Y510963D02*
X575772Y509635D01*
X574443Y510963D02*
Y511878D01*
X471835Y649605D02*
X472043Y649396D01*
X471835Y649605D02*
Y651997D01*
X511636Y477628D02*
Y479518D01*
Y477628D02*
X511677Y477587D01*
X511598Y479556D02*
X511636Y479518D01*
X502752Y567427D02*
X504484Y565695D01*
Y564593D02*
Y565695D01*
Y564593D02*
X504720Y564357D01*
X569968Y498539D02*
Y501708D01*
X569602Y502073D02*
X569968Y501708D01*
X525587Y717821D02*
X525695Y717930D01*
X525587Y714278D02*
X525624Y714316D01*
X525375Y721970D02*
X525695Y721650D01*
Y717930D02*
Y721650D01*
X525587Y717821D02*
X525624Y717783D01*
X525242Y730242D02*
X525375Y730109D01*
X525624Y714316D02*
Y717783D01*
X525375Y721970D02*
Y730109D01*
X568185Y503572D02*
X569366Y502390D01*
X567898Y503572D02*
X568185D01*
X474295Y488709D02*
X476597Y491011D01*
X474295Y486643D02*
Y488709D01*
Y486643D02*
X476612D01*
X474295Y481918D02*
Y486643D01*
X481087Y568631D02*
X481124Y568593D01*
X481194D01*
X482911Y566876D02*
X483323D01*
X481194Y568593D02*
X482911Y566876D01*
X557122Y528333D02*
X557268Y528187D01*
Y526406D02*
Y528187D01*
X479139Y446249D02*
X479866D01*
X478153Y447235D02*
X479139Y446249D01*
X474591Y447272D02*
X474628Y447235D01*
X478153D01*
X479866Y446249D02*
X480102Y446012D01*
X474591Y447272D02*
Y449162D01*
X474669Y449241D01*
X497581Y445774D02*
X497634D01*
X496318Y447036D02*
X497581Y445774D01*
X489866Y447036D02*
X496318D01*
X489630Y447272D02*
X489866Y447036D01*
X471421Y673624D02*
Y680549D01*
Y673624D02*
X471815Y673231D01*
X472039D01*
X544484Y476876D02*
Y476930D01*
X544248Y477166D02*
X544484Y476930D01*
X544248Y477166D02*
Y479002D01*
X544012Y479239D02*
X544248Y479002D01*
X544484Y476823D02*
Y476876D01*
Y476823D02*
X545429Y475878D01*
Y474632D02*
Y475878D01*
Y474632D02*
X545665Y474396D01*
X545902Y474160D02*
X547541D01*
X545665Y474396D02*
X545902Y474160D01*
X500705Y476089D02*
X500759Y476035D01*
X502752Y567427D02*
Y568609D01*
X532378Y657388D02*
Y662309D01*
X471965Y644790D02*
Y649317D01*
X472043Y649396D01*
X532378Y657388D02*
X532772D01*
X471965Y644790D02*
X472339D01*
X482673Y720656D02*
Y723333D01*
X486520Y694030D02*
X489658D01*
X531156Y635007D02*
X531233Y635084D01*
X531099Y637847D02*
Y637900D01*
X531156Y630543D02*
X531350D01*
X531099Y637847D02*
X531156Y637789D01*
Y630543D02*
Y635007D01*
Y635162D02*
Y637789D01*
Y635162D02*
X531233Y635084D01*
X473508Y481131D02*
X474295Y481918D01*
X471835Y481131D02*
X473508D01*
X481756Y523257D02*
X484039D01*
X478134Y396485D02*
X478921Y395698D01*
Y393650D02*
Y395698D01*
Y393650D02*
X483567Y389005D01*
X473410Y397666D02*
X474591Y396485D01*
X478134D01*
X473410Y397666D02*
X473410D01*
X475378Y548139D02*
Y550422D01*
X470654Y548139D02*
Y550422D01*
X472213Y710282D02*
X472251Y710244D01*
X472213Y710282D02*
Y713399D01*
X472122Y713490D02*
X472213Y713399D01*
X476597Y491011D02*
X479406D01*
X479445Y491049D01*
X476612Y486643D02*
X476733Y486522D01*
X479524D01*
X569366Y502309D02*
X569602Y502073D01*
X569366Y502390D02*
X569366Y502390D01*
Y502309D02*
Y502390D01*
X490608Y636680D02*
X490684D01*
X490577D02*
X490608D01*
X494038Y677089D02*
X495949Y675178D01*
X493311Y677089D02*
X494038D01*
X493075Y677325D02*
X493311Y677089D01*
X482308Y686818D02*
X491675D01*
X493075Y677325D02*
X493266Y677516D01*
Y685227D01*
X491675Y686818D02*
X493266Y685227D01*
X516685Y464127D02*
Y465776D01*
X515973Y463414D02*
X516685Y464127D01*
X514433Y463414D02*
X515973D01*
X512071Y461052D02*
X514433Y463414D01*
X479866Y449556D02*
X480102Y449320D01*
X477634Y450183D02*
X477672Y450146D01*
X479866Y449556D02*
Y449901D01*
X479621Y450146D02*
X479866Y449901D01*
X477672Y450146D02*
X479621D01*
X542663Y549282D02*
Y551172D01*
X542622Y549241D02*
X542663Y549282D01*
Y551172D02*
X542701Y551209D01*
X534358Y554359D02*
X534433D01*
X526610Y629947D02*
Y631522D01*
X526953Y631865D01*
Y631918D01*
X489311Y665839D02*
X490593Y664558D01*
X490770D01*
X490540Y636643D02*
X490577Y636680D01*
X489539Y637643D02*
X490540Y636643D01*
X509683Y398453D02*
X509880Y398650D01*
X511992D01*
X512780Y399438D01*
X502063Y456994D02*
X504271D01*
X499273D02*
X502063D01*
X496195Y453916D02*
X499273Y456994D01*
X487327Y453916D02*
X496195D01*
X561677Y490186D02*
X562683Y489180D01*
X566039D01*
X566335Y488884D01*
Y488392D02*
Y488884D01*
X480311Y460931D02*
X487327Y453916D01*
X493173Y465934D02*
X493409Y466170D01*
X491573Y465383D02*
X492124Y465934D01*
X493173D01*
X491520Y465383D02*
X491573D01*
X569612Y465522D02*
X574591Y470501D01*
X569612Y457002D02*
Y465522D01*
X577740Y557981D02*
Y560264D01*
X509630Y398453D02*
X509683D01*
X503252Y720894D02*
Y723178D01*
X534358Y554359D02*
X534395Y554321D01*
X534248Y552152D02*
X534395Y552299D01*
Y554321D01*
X500049Y459553D02*
X502063D01*
X499656Y459947D02*
X500049Y459553D01*
X499602Y459947D02*
X499656D01*
X482411Y642154D02*
X483449Y641117D01*
Y640875D02*
Y641117D01*
X486402Y643729D02*
Y643782D01*
X485705Y644479D02*
X486402Y643782D01*
X480409Y642231D02*
X482315D01*
X482391Y642154D02*
X482411D01*
X482315Y642231D02*
X482391Y642154D01*
X533156Y708486D02*
Y711826D01*
Y708296D02*
Y708486D01*
X539328Y623371D02*
Y625425D01*
X573608Y501375D02*
X573803Y501180D01*
Y498581D02*
X573913Y498471D01*
X573608Y498776D02*
X573803Y498581D01*
Y501180D01*
Y495698D02*
Y498581D01*
X532673Y467231D02*
X533756Y466148D01*
X534248Y465656D01*
X485374Y645577D02*
X485665D01*
X534433Y702390D02*
Y702444D01*
X516685Y455540D02*
Y457002D01*
X515973Y457715D02*
X516685Y457002D01*
X512307Y457715D02*
X515973D01*
X480311Y460931D02*
Y461128D01*
X502063Y462113D02*
X504711D01*
X505695Y461128D01*
X505823D01*
X487791Y460931D02*
X491728Y456994D01*
X493992D01*
X487791Y460931D02*
Y461128D01*
X504271Y456994D02*
X505178Y457902D01*
X482173Y686683D02*
X482308Y686818D01*
X484266Y683510D02*
X485036Y684280D01*
X471256Y684894D02*
Y690750D01*
X472640Y683510D02*
X484266D01*
X471256Y684894D02*
X472640Y683510D01*
X485036Y684280D02*
X490732D01*
X490732Y684280D01*
X485311Y672717D02*
Y673782D01*
Y672717D02*
X486217Y671811D01*
Y671758D02*
Y671811D01*
X480110Y670672D02*
X481847D01*
X482411Y670107D01*
X482465D01*
X486040Y668139D02*
X486111D01*
X488061Y670089D02*
X488839D01*
X486111Y668139D02*
X488061Y670089D01*
X484827Y667351D02*
X485253D01*
X486040Y668139D01*
X488839Y670089D02*
X489075Y670325D01*
X485665Y645577D02*
X485705Y645538D01*
Y644479D02*
Y645538D01*
X486520Y697337D02*
X486756Y697573D01*
X489356D01*
X489466Y697683D01*
X489520D01*
X574406Y511916D02*
X574443Y511878D01*
X574276Y511839D02*
X574352Y511916D01*
X574406D01*
X569473Y511839D02*
X574276D01*
X478921Y711052D02*
Y713384D01*
X478815Y713490D02*
X478921Y713384D01*
X570181Y442240D02*
Y444910D01*
X569264Y441323D02*
X570181Y442240D01*
X569264Y440897D02*
Y441323D01*
X489116Y681089D02*
X489157Y681131D01*
X489116Y677561D02*
Y681089D01*
X488982Y677427D02*
X489116Y677561D01*
X488973Y677427D02*
X488982D01*
X480024Y499635D02*
X480102Y499556D01*
X477740Y499635D02*
X480024D01*
X480102Y497587D02*
Y499556D01*
Y497587D02*
X481992Y495698D01*
Y493752D02*
Y495698D01*
Y493752D02*
X482673Y493071D01*
Y493018D02*
Y493071D01*
X489157Y652784D02*
X489262Y652680D01*
Y649107D02*
Y652680D01*
Y649107D02*
X489366Y649002D01*
X485468Y649317D02*
X489051D01*
X505772Y461052D02*
X508764D01*
X505693Y461131D02*
X505772Y461052D01*
X505178Y457902D02*
X508764D01*
X508242Y464507D02*
X508252Y464516D01*
X506195Y464507D02*
X508242D01*
X506185Y464497D02*
X506195Y464507D01*
X490100Y482388D02*
X490154D01*
X487398Y481404D02*
X489116D01*
X490100Y482388D01*
X526374Y629711D02*
X526610Y629947D01*
X522831Y629711D02*
X523067Y629947D01*
Y631129D01*
X523803Y631865D01*
Y631918D01*
X519473Y629920D02*
Y631918D01*
Y629920D02*
X519681Y629711D01*
X481279Y634892D02*
X481468Y635081D01*
X481886Y649317D02*
X485468D01*
X480602Y673231D02*
Y673723D01*
X480110Y673231D02*
X480602D01*
Y673723D02*
X481075Y674195D01*
X469468Y722939D02*
X474406D01*
X481075Y674195D02*
Y677672D01*
X483323Y586975D02*
X485823Y589475D01*
X471256Y690750D02*
X471268Y690762D01*
X483323Y586876D02*
Y586975D01*
X480902Y644790D02*
Y645437D01*
X481886Y646421D01*
X539328Y623371D02*
X539366Y623333D01*
X534540Y635084D02*
X534600Y635144D01*
X481886Y646421D02*
Y649317D01*
X534600Y635144D02*
X537398D01*
X539224Y625425D02*
X539328D01*
X540075Y654829D02*
X540154Y654908D01*
X516532Y733963D02*
X516556Y733938D01*
X489075Y667018D02*
X489311Y666782D01*
X532772Y654829D02*
X540075D01*
X537476Y473924D02*
X537713Y474160D01*
X516556Y730266D02*
Y733938D01*
X489311Y665839D02*
Y666782D01*
X519681Y629711D02*
X519760Y629632D01*
X537713Y474160D02*
X541886D01*
X516556Y730266D02*
X516581Y730242D01*
X482752Y491049D02*
Y492939D01*
X541886Y474160D02*
X542122Y474396D01*
X482673Y493018D02*
X482752Y492939D01*
X489539Y637643D02*
Y638585D01*
X489303Y638821D02*
X489539Y638585D01*
X489075Y670325D02*
Y674018D01*
X530929Y714052D02*
Y714105D01*
X530803Y714231D02*
X530929Y714105D01*
X481075Y677672D02*
X484728D01*
X530803Y714231D02*
Y717821D01*
X485075Y677325D02*
X489075D01*
X530929Y714052D02*
X533156Y711826D01*
X496768Y645695D02*
X496846Y645774D01*
X493303Y645695D02*
X496768D01*
X483015Y576876D02*
X483323D01*
X481055Y574917D02*
X483015Y576876D01*
X474728Y677672D02*
Y680706D01*
X573608Y498776D02*
Y501375D01*
X559014Y531638D02*
X559051Y531601D01*
X572909Y502073D02*
X573608Y501375D01*
X557124Y531638D02*
X559014D01*
X557083Y531679D02*
X557124Y531638D01*
X484728Y677672D02*
X485075Y677325D01*
X489051Y649317D02*
X489366Y649002D01*
Y642309D02*
Y645695D01*
X534248Y465656D02*
X534642D01*
X485075Y674018D02*
X485311Y673782D01*
X480803Y635746D02*
Y639672D01*
Y635746D02*
X481468Y635081D01*
X478122Y635428D02*
X478658Y634892D01*
X468815Y710718D02*
Y713490D01*
X478658Y634892D02*
X481279D01*
D39*
X568685Y532725D02*
Y535363D01*
Y532725D02*
X569669Y531741D01*
X487518Y472666D02*
X494120D01*
X495791Y470245D02*
Y470995D01*
X494120Y472666D02*
X495791Y470995D01*
Y470245D02*
X497327Y468709D01*
X504689D02*
X510935Y474955D01*
X497327Y468709D02*
X504689D01*
X510935Y474955D02*
X514171D01*
X555105Y504160D02*
X556426Y505481D01*
X556736D01*
X557268Y506012D01*
X552425Y504160D02*
X555105D01*
X557268Y506012D02*
X557294Y505986D01*
X560391D01*
X560417Y506012D01*
X557938Y509477D02*
X559886Y507530D01*
X557661Y509477D02*
X557938D01*
X559886Y506544D02*
Y507530D01*
Y506544D02*
X560417Y506012D01*
X484051Y469199D02*
X487518Y472666D01*
X484051Y469002D02*
Y469199D01*
X517984Y478768D02*
X527347D01*
X514171Y474955D02*
X517984Y478768D01*
X549519Y500223D02*
X556601D01*
X557189Y499635D01*
X552425Y502191D02*
X556754D01*
X548520D02*
X552425D01*
X556754D02*
X557268Y502705D01*
X549416Y500120D02*
X549519Y500223D01*
X548658Y499628D02*
X548871D01*
X549363Y500120D02*
X549416D01*
X548871Y499628D02*
X549363Y500120D01*
X546028Y544022D02*
Y549143D01*
X545929Y549241D02*
X546028Y549143D01*
X480185Y442400D02*
Y445930D01*
X480102Y446012D02*
X480185Y445930D01*
X557083Y528372D02*
X557122Y528333D01*
X552425Y517939D02*
X556886D01*
X557476Y517349D01*
X556492Y527782D02*
X557083Y528372D01*
X552425Y527782D02*
X556492D01*
X544035Y483959D02*
X544059Y483983D01*
X544012Y479239D02*
X544035Y479262D01*
Y483959D01*
X542622Y549241D02*
X543154Y548709D01*
Y547577D02*
Y548709D01*
Y547577D02*
X544059Y546672D01*
Y544022D02*
Y546672D01*
X546028Y483983D02*
Y487317D01*
Y481085D02*
Y483983D01*
X546787Y479770D02*
Y480326D01*
X546028Y481085D02*
X546787Y480326D01*
X488058Y513391D02*
X489415Y512034D01*
X488058Y513391D02*
Y525537D01*
X489415Y512034D02*
X492386D01*
X486209Y511753D02*
X487896Y510065D01*
X492386D01*
X486209Y511753D02*
Y524149D01*
X484346Y526013D02*
X486209Y524149D01*
X485220Y528375D02*
X488058Y525537D01*
X474197Y526013D02*
X484346D01*
X546787Y479770D02*
X547319Y479239D01*
X527347Y478768D02*
X530350D01*
X508783Y469828D02*
X511807Y472851D01*
X515950D02*
X517537Y474438D01*
X511807Y472851D02*
X515950D01*
X508783Y468355D02*
Y469828D01*
X517537Y474438D02*
X522944D01*
X508252Y467824D02*
X508783Y468355D01*
X503807Y466666D02*
X506784D01*
X503311Y466170D02*
X503807Y466666D01*
X507411Y467292D02*
X507721D01*
X506784Y466666D02*
X507411Y467292D01*
X470260Y539989D02*
X470654Y540383D01*
Y544831D01*
X475378Y540087D02*
Y544831D01*
X575772Y503965D02*
Y506327D01*
X475772Y531131D02*
X476741Y530161D01*
X475772Y531131D02*
Y534969D01*
X476741Y529768D02*
Y530161D01*
X475378Y534969D02*
X475378D01*
X475772D02*
Y535363D01*
X475378Y534969D02*
X475772Y535363D01*
X476741Y529768D02*
X476953Y529556D01*
X477150Y529359D01*
X478528Y528375D02*
X485220D01*
X470654Y529556D02*
X474197Y526013D01*
X470654Y529556D02*
X470654Y529556D01*
Y535264D01*
X477150Y529359D02*
X477543D01*
X478528Y528375D01*
X523358Y474438D02*
X529437D01*
X523016D02*
X523358D01*
X529437D02*
X534217Y479217D01*
Y483983D01*
X532248Y480666D02*
Y483983D01*
X530350Y478768D02*
X532248Y480666D01*
X557476Y520656D02*
X557522Y520610D01*
X559914D01*
X560024Y520501D01*
X552425Y519908D02*
X556728D01*
X557476Y520656D01*
X500752Y483983D02*
Y487868D01*
X500783Y487900D01*
X500752Y480073D02*
Y483983D01*
X499917Y479239D02*
X500752Y480073D01*
X498783Y548105D02*
X498815Y548136D01*
X498783Y544022D02*
Y548105D01*
X536610Y470183D02*
Y473049D01*
X502720Y479742D02*
X503224Y479239D01*
X536610Y473049D02*
X537476Y473915D01*
X548512Y502183D02*
X548520Y502191D01*
X534642Y465656D02*
X536610Y467624D01*
Y470183D01*
X546028Y487317D02*
X546602Y487891D01*
X532673Y467231D02*
Y470183D01*
X502720Y479742D02*
Y483983D01*
X534642Y461128D02*
Y465656D01*
D40*
X471631Y504359D02*
X471756D01*
X471592Y504320D02*
X471631Y504359D01*
X471592Y502147D02*
Y504320D01*
X471479Y502035D02*
X471592Y502147D01*
X482358Y693683D02*
X486173D01*
X486520Y694030D01*
X469473Y505934D02*
Y507824D01*
X469866Y508217D01*
X470339Y508690D02*
X474000D01*
X469866Y508217D02*
X470339Y508690D01*
X471453Y715371D02*
X471835Y714989D01*
X471453Y715371D02*
Y717546D01*
X471835Y713778D02*
Y714989D01*
Y713778D02*
X472122Y713490D01*
X475345Y652073D02*
X475980D01*
X480642Y663758D02*
X481075Y663325D01*
X480504Y668113D02*
X480642Y667975D01*
Y663758D02*
Y667975D01*
X477728Y663672D02*
X477902Y663498D01*
X480902D01*
X481075Y663325D01*
X474421Y659175D02*
X474534Y659062D01*
X475772Y656721D02*
Y657254D01*
X474534Y658491D02*
X475772Y657254D01*
X474534Y658491D02*
Y659062D01*
X474421Y659175D02*
Y663672D01*
X472728Y665365D02*
Y667916D01*
X472532Y668113D02*
X472728Y667916D01*
Y665365D02*
X474421Y663672D01*
X471945Y639672D02*
X472831D01*
X473028Y639475D01*
Y637215D02*
Y639475D01*
Y637215D02*
X474815Y635428D01*
Y633538D02*
X480070Y628282D01*
X480982D01*
X474815Y633538D02*
Y635428D01*
X480982Y628282D02*
X481284Y627981D01*
X481319Y627946D01*
X577650Y554765D02*
X577740Y554674D01*
X573924Y554765D02*
X577650D01*
X475272Y649317D02*
Y652147D01*
X475496Y506497D02*
X475969Y506970D01*
X475496Y504792D02*
Y506497D01*
X475969Y506970D02*
Y508690D01*
X475063Y504359D02*
X475496Y504792D01*
X481319Y624831D02*
Y627946D01*
X476953Y513808D02*
X481677D01*
X481284Y518926D02*
X481284Y518926D01*
X479906Y518926D02*
X481284D01*
X479906Y508690D02*
X481677D01*
X469866Y511524D02*
Y513808D01*
X487402Y703752D02*
X489262D01*
X477114Y706945D02*
X484209D01*
X487402Y703752D01*
X489262D02*
X489366Y703648D01*
X475390Y708669D02*
X477114Y706945D01*
X475390Y708669D02*
Y713490D01*
Y717546D01*
X481902Y631861D02*
X483406D01*
X481468Y631774D02*
X481815D01*
X481902Y631861D01*
X483406D02*
X483493Y631948D01*
X496846Y706876D02*
X496912Y706942D01*
Y709018D01*
X477358Y728333D02*
X480039D01*
X474386Y691124D02*
X474681D01*
X474311Y691049D02*
X474386Y691124D01*
X471555Y691049D02*
X474311D01*
X471268Y690762D02*
X471555Y691049D01*
X474681Y693683D02*
X478520D01*
X471268Y694069D02*
X471654Y693683D01*
X474681D01*
X494563Y703569D02*
X496846D01*
X475272Y652147D02*
X475345Y652073D01*
X493402Y704731D02*
X494563Y703569D01*
X493402Y704731D02*
Y705026D01*
X493205Y705223D02*
X493402Y705026D01*
X492909Y705223D02*
X493205D01*
X481087Y657991D02*
X481099Y657979D01*
X481087Y657991D02*
Y660006D01*
X481075Y660018D02*
X481087Y660006D01*
X482358Y686683D02*
Y691124D01*
D42*
X548213Y520107D02*
D03*
X534433Y432312D02*
D03*
X578614Y450975D02*
D03*
X578408Y485876D02*
D03*
X553331Y472863D02*
D03*
X548028Y473727D02*
D03*
X530138Y676288D02*
D03*
X535220Y688611D02*
D03*
X533252Y665383D02*
D03*
X530656Y704320D02*
D03*
X540732Y707509D02*
D03*
X541520Y703572D02*
D03*
X510626Y709947D02*
D03*
X547425Y561052D02*
D03*
X576031Y399241D02*
D03*
X557661Y487824D02*
D03*
X545668Y558162D02*
D03*
X547819Y554753D02*
D03*
X546638Y551603D02*
D03*
X556874Y546583D02*
D03*
X562949Y524662D02*
D03*
X563567Y518139D02*
D03*
X573803Y531741D02*
D03*
X572622Y540973D02*
D03*
X561598Y539005D02*
D03*
X575969Y535363D02*
D03*
X520469Y528451D02*
D03*
X499000Y433099D02*
D03*
X514354Y444123D02*
D03*
X477740Y435068D02*
D03*
X484433Y438217D02*
D03*
X537583Y466564D02*
D03*
X534039Y464595D02*
D03*
X518681Y445231D02*
D03*
X527347Y538217D02*
D03*
X525378Y567745D02*
D03*
X539896Y559379D02*
D03*
X490732Y479162D02*
D03*
X491126Y470501D02*
D03*
X561205Y492942D02*
D03*
X526264Y487627D02*
D03*
X554413Y542548D02*
D03*
X549984Y546780D02*
D03*
X560910Y545501D02*
D03*
X563567Y548355D02*
D03*
X535516Y493237D02*
D03*
X533055Y496485D02*
D03*
X548658Y499628D02*
D03*
X526165Y435461D02*
D03*
X484039Y523257D02*
D03*
X544669Y444517D02*
D03*
X497634Y445774D02*
D03*
X474591Y447272D02*
D03*
X514563Y667034D02*
D03*
X482673Y723333D02*
D03*
X531099Y637900D02*
D03*
X544484Y476876D02*
D03*
X562310Y565985D02*
D03*
X557268Y494123D02*
D03*
X559236Y563414D02*
D03*
X522228Y666564D02*
D03*
X472251Y710244D02*
D03*
X518685Y668926D02*
D03*
X534642Y680420D02*
D03*
X525587Y714278D02*
D03*
X482673Y702861D02*
D03*
X489658Y694030D02*
D03*
X502752Y568609D02*
D03*
X513906Y741002D02*
D03*
X471421Y680549D02*
D03*
X500969Y474044D02*
D03*
X538579Y733963D02*
D03*
X563567Y500028D02*
D03*
X476559Y486643D02*
D03*
X470654Y550422D02*
D03*
X475378D02*
D03*
X570654Y487036D02*
D03*
X469473Y505934D02*
D03*
X541126Y446485D02*
D03*
X510024Y723257D02*
D03*
X548213Y449635D02*
D03*
X557268Y526406D02*
D03*
X481087Y568631D02*
D03*
X543303Y457585D02*
D03*
X543291Y449733D02*
D03*
Y453670D02*
D03*
X548421Y457585D02*
D03*
X548410Y453670D02*
D03*
X471835Y651997D02*
D03*
X511598Y479556D02*
D03*
X567898Y503572D02*
D03*
X471479Y502035D02*
D03*
X487976Y540186D02*
D03*
X560024Y516957D02*
D03*
X476559Y490973D02*
D03*
X473410Y397666D02*
D03*
X490833Y636680D02*
D03*
X475980Y652073D02*
D03*
X502740Y556820D02*
D03*
X510516Y555737D02*
D03*
X542701Y551209D02*
D03*
X534433Y554359D02*
D03*
X526953Y631918D02*
D03*
X490770Y664558D02*
D03*
X549787Y568139D02*
D03*
X545457Y572076D02*
D03*
X519866Y537036D02*
D03*
X548606Y505540D02*
D03*
X491520Y465383D02*
D03*
X560024Y450028D02*
D03*
X577740Y560264D02*
D03*
X509630Y398453D02*
D03*
X503252Y723178D02*
D03*
X506480Y718532D02*
D03*
X483799Y536249D02*
D03*
X512386Y403178D02*
D03*
X574591Y470501D02*
D03*
X531677Y440973D02*
D03*
X549000Y440580D02*
D03*
X506087Y504359D02*
D03*
X518685Y624044D02*
D03*
X517898Y576013D02*
D03*
X483449Y640875D02*
D03*
X486402Y643729D02*
D03*
X477000Y462788D02*
D03*
X528232Y625028D02*
D03*
X542996Y730737D02*
D03*
X542732Y724603D02*
D03*
X534433Y702390D02*
D03*
Y699635D02*
D03*
X546770Y514201D02*
D03*
X496912Y709018D02*
D03*
X504118Y431918D02*
D03*
X498213Y437036D02*
D03*
X498084Y441324D02*
D03*
X560024Y529162D02*
D03*
X511992Y468926D02*
D03*
X482465Y670107D02*
D03*
X536008Y616957D02*
D03*
X537189Y613020D02*
D03*
X533252Y613808D02*
D03*
X528134D02*
D03*
X530705Y610341D02*
D03*
X535220Y405934D02*
D03*
X549787Y413808D02*
D03*
X534827Y393335D02*
D03*
X563567Y405146D02*
D03*
Y438611D02*
D03*
X577347Y387036D02*
D03*
X570654Y408690D02*
D03*
X545850Y417351D02*
D03*
X554118Y413414D02*
D03*
X545457Y392548D02*
D03*
X552150Y406721D02*
D03*
X550969Y393335D02*
D03*
X541520Y398847D02*
D03*
X545457Y387036D02*
D03*
X540339Y392548D02*
D03*
X539551Y387036D02*
D03*
X519473Y579753D02*
D03*
X515929Y572371D02*
D03*
X548311Y424831D02*
D03*
X541126Y420993D02*
D03*
X536303Y435855D02*
D03*
X539748Y438906D02*
D03*
X556579Y434674D02*
D03*
X553921Y431032D02*
D03*
X534433Y726013D02*
D03*
X575772Y503965D02*
D03*
X573803Y495698D02*
D03*
X515929Y568139D02*
D03*
X503331Y501209D02*
D03*
X536795Y740580D02*
D03*
X491126Y488217D02*
D03*
X480102Y466170D02*
D03*
X513867Y514090D02*
D03*
X513961Y506721D02*
D03*
X517898Y502263D02*
D03*
X521047Y503178D02*
D03*
X508055Y500422D02*
D03*
X510417Y516170D02*
D03*
X519079Y498454D02*
D03*
X509236Y490973D02*
D03*
X512386Y494123D02*
D03*
X515929Y490580D02*
D03*
X512386Y487824D02*
D03*
X472228Y518926D02*
D03*
X474984Y522076D02*
D03*
X481677Y513808D02*
D03*
X481284Y518926D02*
D03*
X478134Y505934D02*
D03*
X481677Y508690D02*
D03*
X469866Y513808D02*
D03*
X469079Y524044D02*
D03*
X554118Y438611D02*
D03*
X481319Y624831D02*
D03*
X478921Y711052D02*
D03*
X490732Y684280D02*
D03*
X551756Y465383D02*
D03*
X552051Y434772D02*
D03*
X541126Y426800D02*
D03*
X549000Y429950D02*
D03*
X544276Y435855D02*
D03*
X547819Y433886D02*
D03*
X540339Y434674D02*
D03*
X544669Y429950D02*
D03*
X538764Y430343D02*
D03*
X477740Y499635D02*
D03*
X484039D02*
D03*
X560024Y520501D02*
D03*
X495457Y427981D02*
D03*
X566717Y553178D02*
D03*
X483493Y631948D02*
D03*
X515535Y460658D02*
D03*
X520703Y704334D02*
D03*
X552457Y427263D02*
D03*
X531677Y436643D02*
D03*
X536008Y440973D02*
D03*
X506874Y450422D02*
D03*
X506693Y444517D02*
D03*
X506874Y454753D02*
D03*
X526559Y744517D02*
D03*
X531492Y744593D02*
D03*
X468685Y637430D02*
D03*
X506185Y464497D02*
D03*
X511598D02*
D03*
X503931Y520107D02*
D03*
X507268Y522469D02*
D03*
X492823Y432065D02*
D03*
X544276Y423650D02*
D03*
X471736Y407509D02*
D03*
X475772Y407836D02*
D03*
X486217Y671758D02*
D03*
X523803Y631918D02*
D03*
X519473D02*
D03*
X566717Y565383D02*
D03*
X495457Y592548D02*
D03*
X536217Y647349D02*
D03*
X539945Y715383D02*
D03*
X540189Y488723D02*
D03*
X528736Y497743D02*
D03*
X556295Y465065D02*
D03*
X574406Y511916D02*
D03*
X493576Y436818D02*
D03*
X527839Y665875D02*
D03*
X542386Y716246D02*
D03*
X482673Y493018D02*
D03*
X515622Y704187D02*
D03*
X559051Y531601D02*
D03*
X502358Y576089D02*
D03*
X488503Y500201D02*
D03*
X512595Y704435D02*
D03*
X538579Y724514D02*
D03*
X492122Y570183D02*
D03*
X518500Y724908D02*
D03*
X537004Y476876D02*
D03*
X476859Y573727D02*
D03*
X528156Y700971D02*
D03*
X525445Y704294D02*
D03*
X474728Y680706D02*
D03*
X511787Y613380D02*
D03*
X485823Y589475D02*
D03*
X523224Y700892D02*
D03*
X511020Y520971D02*
D03*
X559051Y534357D02*
D03*
X477634Y450183D02*
D03*
X468815Y710718D02*
D03*
X518106Y700892D02*
D03*
X494091Y710341D02*
D03*
X493500Y406351D02*
D03*
X479799Y717546D02*
D03*
X530929Y714052D02*
D03*
X570184Y562835D02*
D03*
X513382Y526089D02*
D03*
X498815Y710735D02*
D03*
X529673Y737900D02*
D03*
X515252Y530912D02*
D03*
X486610Y709553D02*
D03*
X470406Y431002D02*
D03*
X469468Y722939D02*
D03*
X518500Y684750D02*
D03*
X479917Y548530D02*
D03*
X516138Y715853D02*
D03*
X470406Y428002D02*
D03*
X480039Y728333D02*
D03*
X474421Y659175D02*
D03*
X507934Y684125D02*
D03*
X481055Y574917D02*
D03*
X513382Y715853D02*
D03*
X529917Y724514D02*
D03*
X500783Y487900D02*
D03*
X470406Y440000D02*
D03*
X478134Y698847D02*
D03*
X478736Y689081D02*
D03*
X569079Y549635D02*
D03*
X507870Y676089D02*
D03*
X520075Y715853D02*
D03*
X548512Y502183D02*
D03*
X531492Y721364D02*
D03*
X501965Y452467D02*
D03*
X470406Y436885D02*
D03*
X522831Y624120D02*
D03*
X490154Y482388D02*
D03*
X496453Y459947D02*
D03*
X470406Y434002D02*
D03*
X489520Y697683D02*
D03*
X482280Y698530D02*
D03*
X499602Y459947D02*
D03*
X470406Y425002D02*
D03*
X516532Y733963D02*
D03*
X496059Y498136D02*
D03*
X472831Y443412D02*
D03*
X495970Y502201D02*
D03*
X507083Y738294D02*
D03*
X470406Y419002D02*
D03*
X469681Y662703D02*
D03*
X542594Y618609D02*
D03*
X498815Y548136D02*
D03*
X532280Y500498D02*
D03*
X546602Y487891D02*
D03*
X521650Y738294D02*
D03*
X470406Y422002D02*
D03*
X535036Y526483D02*
D03*
X481099Y657979D02*
D03*
X539366Y623333D02*
D03*
X536795Y715776D02*
D03*
X524799Y495774D02*
D03*
X537398Y635144D02*
D03*
X563567Y496485D02*
D03*
X532858Y649635D02*
D03*
X534039Y715776D02*
D03*
X535429Y488294D02*
D03*
D43*
X535614Y660264D02*
D03*
X539157Y671682D02*
D03*
X534827Y676406D02*
D03*
X539157Y680343D02*
D03*
X543488Y689005D02*
D03*
Y660658D02*
D03*
X539551D02*
D03*
X536008Y657509D02*
D03*
X488370Y628375D02*
D03*
D44*
X510024Y720973D02*
X510102Y720894D01*
X510024Y720973D02*
Y723257D01*
X570654Y486983D02*
Y487036D01*
X570181Y486511D02*
X570654Y486983D01*
X570181Y484280D02*
Y486511D01*
X501965Y451001D02*
X505299Y447666D01*
X508055D01*
X501965Y451001D02*
Y452467D01*
X508849Y448460D02*
X510020D01*
X508055Y447666D02*
X508849Y448460D01*
X518363Y460658D02*
X520071Y458951D01*
X515535Y460658D02*
X518363D01*
X520071Y456154D02*
X520685Y455540D01*
X520071Y456154D02*
Y458951D01*
X506874Y450422D02*
X506874D01*
X507976Y451524D02*
X510024D01*
X506874Y450422D02*
X507976Y451524D01*
D45*
X470260Y539989D02*
D03*
Y534871D02*
D03*
X475378Y540087D02*
D03*
Y534969D02*
D03*
D46*
X488370Y625225D02*
D03*
X557661Y509477D02*
D03*
X566717Y520894D02*
D03*
X481284Y627981D02*
D03*
X496846Y645774D02*
D03*
X489157Y652784D02*
D03*
X475772Y656721D02*
D03*
X484827Y667351D02*
D03*
X489157Y681131D02*
D03*
X570260Y480343D02*
D03*
X493488Y411052D02*
D03*
X523016Y474438D02*
D03*
X545457Y641761D02*
D03*
X527347Y478768D02*
D03*
X577740Y445304D02*
D03*
X569264Y440897D02*
D03*
X571047Y566564D02*
D03*
X482858Y713414D02*
D03*
X470654Y529556D02*
D03*
X476953D02*
D03*
D47*
X569669Y531741D02*
D03*
D48*
X572622Y528119D02*
D03*
X570654D02*
D03*
X568685D02*
D03*
X566717D02*
D03*
X572622Y535363D02*
D03*
X570654D02*
D03*
X568685D02*
D03*
X566717D02*
D03*
D49*
X562491Y560867D02*
D03*
X479980Y702683D02*
D03*
X532378Y662309D02*
D03*
X525882Y717821D02*
D03*
X475059Y702683D02*
D03*
X567412Y560867D02*
D03*
X530803Y717821D02*
D03*
X525095Y647349D02*
D03*
X530016D02*
D03*
X527457Y662309D02*
D03*
X573809Y546694D02*
D03*
X568888D02*
D03*
D50*
X549165Y445698D02*
D03*
X537780D02*
D03*
X555071D02*
D03*
X531874D02*
D03*
D51*
X555727Y558587D02*
D03*
X517319Y663628D02*
D03*
X555727Y550438D02*
D03*
X517319Y655479D02*
D03*
D52*
X562506Y556733D02*
D03*
X573924D02*
D03*
Y554765D02*
D03*
Y552796D02*
D03*
Y550828D02*
D03*
X562506D02*
D03*
Y554765D02*
D03*
Y552796D02*
D03*
D53*
X471453Y717546D02*
D03*
X477358D02*
D03*
X475390D02*
D03*
X473421D02*
D03*
X477358Y728333D02*
D03*
X475390D02*
D03*
X473421D02*
D03*
X471453D02*
D03*
D54*
X525242Y730242D02*
D03*
X538234D02*
D03*
X533904D02*
D03*
X529573D02*
D03*
X520911D02*
D03*
X516581D02*
D03*
X512250D02*
D03*
X507919D02*
D03*
D55*
X474000Y508690D02*
D03*
X475969D02*
D03*
X479906Y518926D02*
D03*
X477937D02*
D03*
X475969D02*
D03*
X474000D02*
D03*
X479906Y508690D02*
D03*
X477937D02*
D03*
D56*
X472339Y644790D02*
D03*
X532772Y657388D02*
D03*
X524701D02*
D03*
X472039Y673231D02*
D03*
Y670672D02*
D03*
Y668113D02*
D03*
X480110D02*
D03*
Y670672D02*
D03*
Y673231D02*
D03*
X532772Y654829D02*
D03*
X524701Y652270D02*
D03*
Y654829D02*
D03*
X532772Y652270D02*
D03*
X502063Y462113D02*
D03*
Y459553D02*
D03*
Y456994D02*
D03*
X493992D02*
D03*
Y459553D02*
D03*
Y462113D02*
D03*
X472339Y642231D02*
D03*
Y639672D02*
D03*
X480409D02*
D03*
Y642231D02*
D03*
Y644790D02*
D03*
D57*
X535656Y708486D02*
D03*
Y693919D02*
D03*
X533156Y708486D02*
D03*
X530656D02*
D03*
X528156D02*
D03*
X525656D02*
D03*
X523156D02*
D03*
X520656D02*
D03*
X518156D02*
D03*
X515656D02*
D03*
X513156D02*
D03*
X533156Y693919D02*
D03*
X530656D02*
D03*
X528156D02*
D03*
X525656D02*
D03*
X523156D02*
D03*
X520656D02*
D03*
X518156D02*
D03*
X515656D02*
D03*
X513156D02*
D03*
D58*
X570075Y498431D02*
D03*
X566335D02*
D03*
X573815D02*
D03*
Y488392D02*
D03*
X566335D02*
D03*
D59*
X478134Y396485D02*
D03*
X491520D02*
D03*
D60*
X480185Y442400D02*
D03*
X486091Y427636D02*
D03*
X484122D02*
D03*
X482154D02*
D03*
X480185D02*
D03*
X478217D02*
D03*
X476248D02*
D03*
Y442400D02*
D03*
X478217D02*
D03*
X482154D02*
D03*
X484122D02*
D03*
X486091D02*
D03*
D61*
X531350Y630543D02*
D03*
X479524Y486522D02*
D03*
X531350Y625425D02*
D03*
X539224D02*
D03*
Y627984D02*
D03*
Y630543D02*
D03*
X479524Y481404D02*
D03*
X487398Y483963D02*
D03*
Y486522D02*
D03*
Y481404D02*
D03*
D62*
X471835Y481131D02*
D03*
Y494517D02*
D03*
D63*
X542909Y460833D02*
D03*
X547634D02*
D03*
X526374Y461227D02*
D03*
Y466148D02*
D03*
X547634Y465754D02*
D03*
X542909D02*
D03*
D64*
X498783Y483983D02*
D03*
X546028Y544022D02*
D03*
X544059Y483983D02*
D03*
X500752D02*
D03*
X536185D02*
D03*
X544059Y544022D02*
D03*
X542091Y483983D02*
D03*
Y544022D02*
D03*
X540122D02*
D03*
X538154D02*
D03*
X536185D02*
D03*
X534217D02*
D03*
X532248D02*
D03*
X530280D02*
D03*
X528311D02*
D03*
X526343D02*
D03*
X524374D02*
D03*
X522406D02*
D03*
X520437D02*
D03*
X518469D02*
D03*
X516500D02*
D03*
X514532D02*
D03*
X512563D02*
D03*
X510595D02*
D03*
X508626D02*
D03*
X506658D02*
D03*
X504689D02*
D03*
X502720D02*
D03*
X500752D02*
D03*
X498783D02*
D03*
X502720Y483983D02*
D03*
X504689D02*
D03*
X506658D02*
D03*
X508626D02*
D03*
X510595D02*
D03*
X512563D02*
D03*
X514532D02*
D03*
X516500D02*
D03*
X518469D02*
D03*
X520437D02*
D03*
X522406D02*
D03*
X524374D02*
D03*
X526343D02*
D03*
X528311D02*
D03*
X530280D02*
D03*
X532248D02*
D03*
X534217D02*
D03*
X538154D02*
D03*
X540122D02*
D03*
X546028D02*
D03*
D65*
X492386Y537624D02*
D03*
X552425Y517939D02*
D03*
Y527782D02*
D03*
Y498254D02*
D03*
Y500223D02*
D03*
X492386Y535656D02*
D03*
X552425Y502191D02*
D03*
Y519908D02*
D03*
X492386Y533687D02*
D03*
X552425Y496286D02*
D03*
X492386Y531719D02*
D03*
Y529750D02*
D03*
Y527782D02*
D03*
Y525813D02*
D03*
Y523845D02*
D03*
Y521876D02*
D03*
Y519908D02*
D03*
Y517939D02*
D03*
Y515971D02*
D03*
Y514002D02*
D03*
Y512034D02*
D03*
Y510065D02*
D03*
Y508097D02*
D03*
Y506128D02*
D03*
Y504160D02*
D03*
Y502191D02*
D03*
Y500223D02*
D03*
Y498254D02*
D03*
Y496286D02*
D03*
Y494317D02*
D03*
Y492349D02*
D03*
Y490380D02*
D03*
X552425D02*
D03*
Y492349D02*
D03*
Y494317D02*
D03*
Y504160D02*
D03*
Y506128D02*
D03*
Y508097D02*
D03*
Y510065D02*
D03*
Y512034D02*
D03*
Y514002D02*
D03*
Y515971D02*
D03*
Y521876D02*
D03*
Y523845D02*
D03*
Y525813D02*
D03*
Y529750D02*
D03*
Y531719D02*
D03*
Y533687D02*
D03*
Y535656D02*
D03*
Y537624D02*
D03*
D66*
X483323Y566876D02*
D03*
Y571876D02*
D03*
Y576876D02*
D03*
X488323Y566876D02*
D03*
Y571876D02*
D03*
Y576876D02*
D03*
X483323Y581876D02*
D03*
Y586876D02*
D03*
X488323Y581876D02*
D03*
Y586876D02*
D03*
D67*
X538579Y461128D02*
D03*
X530705Y470183D02*
D03*
X532673D02*
D03*
X534642D02*
D03*
X536610D02*
D03*
X538579D02*
D03*
X530705Y461128D02*
D03*
X532673D02*
D03*
X534642D02*
D03*
X536610D02*
D03*
D68*
X482358Y693683D02*
D03*
X474681Y691124D02*
D03*
Y693683D02*
D03*
Y696243D02*
D03*
X482358Y691124D02*
D03*
Y696243D02*
D03*
D69*
X530406Y424702D02*
D03*
X518406D02*
D03*
D70*
X516717Y445304D02*
D03*
D71*
X515732Y449241D02*
D03*
X513764D02*
D03*
X517701D02*
D03*
X519669D02*
D03*
X513764Y441367D02*
D03*
X515732D02*
D03*
X517701D02*
D03*
X519669D02*
D03*
D72*
X478520Y693683D02*
D03*
D73*
X534642Y465656D02*
D03*
D74*
X492909Y705223D02*
D03*
X489366Y706798D02*
D03*
Y703648D02*
D03*
D75*
X520685Y455540D02*
D03*
Y465776D02*
D03*
X516685Y455540D02*
D03*
Y465776D02*
D03*
D76*
X488973Y723333D02*
D03*
Y713097D02*
D03*
D77*
X487189Y420107D02*
D03*
X493488D02*
D03*
D78*
X513776Y721679D02*
D03*
X515744D02*
D03*
X517713D02*
D03*
X519681D02*
D03*
X521650D02*
D03*
X513776Y718215D02*
D03*
X515744D02*
D03*
X517713D02*
D03*
X519681D02*
D03*
X521650D02*
D03*
X542610Y718345D02*
D03*
X540642D02*
D03*
X538673D02*
D03*
X536705D02*
D03*
X534736D02*
D03*
X542610Y721809D02*
D03*
X540642D02*
D03*
X538673D02*
D03*
X536705D02*
D03*
X534736D02*
D03*
D79*
X476953Y513808D02*
D03*
D80*
X569473Y507115D02*
D03*
Y516564D02*
D03*
Y511839D02*
D03*
D81*
X545321Y740635D02*
D03*
D82*
X544435Y736108D02*
D03*
D83*
X544533Y744966D02*
D03*
D84*
X503490Y734375D02*
D03*
D85*
Y744376D02*
D03*
D86*
X474406Y722939D02*
D03*
D87*
X568215Y553780D02*
D03*
D88*
X493075Y664916D02*
D03*
Y670428D02*
D03*
X493303Y636719D02*
D03*
Y642231D02*
D03*
D89*
X496846Y714475D02*
D03*
Y721168D02*
D03*
D90*
X577067Y455733D02*
D03*
X559744D02*
D03*
D91*
X571358Y452190D02*
D03*
X569390D02*
D03*
X567421D02*
D03*
X565453D02*
D03*
D92*
X488551Y439939D02*
D03*
Y437971D02*
D03*
Y436002D02*
D03*
Y434034D02*
D03*
Y432065D02*
D03*
Y430097D02*
D03*
X473787D02*
D03*
Y432065D02*
D03*
Y434034D02*
D03*
Y436002D02*
D03*
Y437971D02*
D03*
Y439939D02*
D03*
D93*
X481169Y435018D02*
D03*
D94*
X524984Y442351D02*
D03*
Y448257D02*
D03*
D95*
X538854Y453845D02*
D03*
X530705D02*
D03*
D96*
X487791Y461128D02*
D03*
X480311D02*
D03*
X484051Y469002D02*
D03*
D97*
X520654Y403178D02*
D03*
X512780Y406918D02*
D03*
Y399438D02*
D03*
D98*
X490608Y636680D02*
X490646Y636643D01*
X490568Y636720D02*
X490608Y636680D01*
X490666Y636817D02*
X493303D01*
X490684Y636680D02*
X490833D01*
X492617Y664558D02*
X492976Y664917D01*
X490770Y664558D02*
X492617D01*
X490646Y636643D02*
X490684Y636680D01*
X493075Y670428D02*
Y674018D01*
Y670325D02*
Y670428D01*
X489075Y670325D02*
X493075D01*
X489366Y642309D02*
X493224D01*
X493303Y642231D02*
Y645695D01*
X490568Y636720D02*
X490666Y636817D01*
X493303Y636719D02*
Y636817D01*
D99*
X534642Y465656D02*
X547536D01*
X526374Y466148D02*
X533756D01*
X547536Y465656D02*
X547634Y465754D01*
M02*
