G04*
G04 #@! TF.GenerationSoftware,Altium Limited,Altium Designer,21.3.1 (25)*
G04*
G04 Layer_Color=16711935*
%FSLAX25Y25*%
%MOIN*%
G70*
G04*
G04 #@! TF.SameCoordinates,17E3FC6B-7FA6-4A94-9312-BAE076C6F9B9*
G04*
G04*
G04 #@! TF.FilePolarity,Positive*
G04*
G01*
G75*
%ADD11C,0.00394*%
D11*
X465929Y789791D02*
X468553D01*
X467241D01*
Y785856D01*
X471833Y789791D02*
X470521D01*
X469865Y789136D01*
Y786512D01*
X470521Y785856D01*
X471833D01*
X472489Y786512D01*
Y789136D01*
X471833Y789791D01*
X473801Y785856D02*
Y789791D01*
X475769D01*
X476425Y789136D01*
Y787824D01*
X475769Y787168D01*
X473801D01*
X481672Y789136D02*
X482328Y789791D01*
X483640D01*
X484296Y789136D01*
Y788480D01*
X483640Y787824D01*
X482984D01*
X483640D01*
X484296Y787168D01*
Y786512D01*
X483640Y785856D01*
X482328D01*
X481672Y786512D01*
X485608Y789791D02*
Y785856D01*
X487576D01*
X488232Y786512D01*
Y789136D01*
X487576Y789791D01*
X485608D01*
X493479D02*
Y785856D01*
X495447D01*
X496103Y786512D01*
Y787168D01*
X495447Y787824D01*
X493479D01*
X495447D01*
X496103Y788480D01*
Y789136D01*
X495447Y789791D01*
X493479D01*
X499383D02*
X498071D01*
X497415Y789136D01*
Y786512D01*
X498071Y785856D01*
X499383D01*
X500039Y786512D01*
Y789136D01*
X499383Y789791D01*
X501351D02*
Y785856D01*
X503319D01*
X503975Y786512D01*
Y789136D01*
X503319Y789791D01*
X501351D01*
X505287D02*
Y789136D01*
X506599Y787824D01*
X507910Y789136D01*
Y789791D01*
X506599Y787824D02*
Y785856D01*
M02*
