G04*
G04 #@! TF.GenerationSoftware,Altium Limited,Altium Designer,20.2.6 (244)*
G04*
G04 Layer_Color=39423*
%FSLAX25Y25*%
%MOIN*%
G70*
G04*
G04 #@! TF.SameCoordinates,D103880D-7D63-4280-A8AA-78B1B6904BBD*
G04*
G04*
G04 #@! TF.FilePolarity,Positive*
G04*
G01*
G75*
%ADD11C,0.00394*%
%ADD156C,0.00098*%
%ADD157C,0.00197*%
%ADD158C,0.00118*%
D11*
X523881Y616077D02*
X522831D01*
X523356D01*
Y613453D01*
X522831Y612928D01*
X522306D01*
X521782Y613453D01*
X527029Y612928D02*
X524930D01*
X527029Y615027D01*
Y615552D01*
X526505Y616077D01*
X525455D01*
X524930Y615552D01*
D156*
X540230Y741376D02*
Y740720D01*
X540361Y740589D01*
X540624D01*
X540755Y740720D01*
Y741376D01*
X541542D02*
X541017D01*
Y740983D01*
X541279Y741114D01*
X541411D01*
X541542Y740983D01*
Y740720D01*
X541411Y740589D01*
X541148D01*
X541017Y740720D01*
D157*
X542594Y408558D02*
X542266Y408886D01*
X541610D01*
X541282Y408558D01*
Y408230D01*
X541610Y407902D01*
X542266D01*
X542594Y407574D01*
Y407246D01*
X542266Y406918D01*
X541610D01*
X541282Y407246D01*
X543250Y408886D02*
X544561D01*
X543906D01*
Y406918D01*
X546529D02*
X545218D01*
X546529Y408230D01*
Y408558D01*
X546201Y408886D01*
X545545D01*
X545218Y408558D01*
X560747Y394689D02*
X560354Y395083D01*
X559567D01*
X559173Y394689D01*
Y394296D01*
X559567Y393902D01*
X560354D01*
X560747Y393509D01*
Y393115D01*
X560354Y392722D01*
X559567D01*
X559173Y393115D01*
X561535Y395083D02*
Y392722D01*
X562322Y393509D01*
X563109Y392722D01*
Y395083D01*
X563896Y392722D02*
X564683D01*
X564290D01*
Y395083D01*
X563896Y394689D01*
X565864D02*
X566257Y395083D01*
X567044D01*
X567438Y394689D01*
Y394296D01*
X567044Y393902D01*
X567438Y393509D01*
Y393115D01*
X567044Y392722D01*
X566257D01*
X565864Y393115D01*
Y393509D01*
X566257Y393902D01*
X565864Y394296D01*
Y394689D01*
X566257Y393902D02*
X567044D01*
X467090Y731403D02*
X465778D01*
Y730420D01*
X466434D01*
X465778D01*
Y729436D01*
X467746Y731403D02*
X468402D01*
X468074D01*
Y729436D01*
X467746D01*
X468402D01*
X469386Y731403D02*
Y729436D01*
X470370D01*
X470698Y729764D01*
Y731076D01*
X470370Y731403D01*
X469386D01*
X471354Y729436D02*
X472010D01*
X471681D01*
Y731403D01*
X471354Y731076D01*
X577785Y568768D02*
X576474D01*
Y567784D01*
X577130D01*
X576474D01*
Y566800D01*
X578441Y568768D02*
X579097D01*
X578769D01*
Y566800D01*
X578441D01*
X579097D01*
X580081Y568768D02*
Y566800D01*
X581065D01*
X581393Y567128D01*
Y568440D01*
X581065Y568768D01*
X580081D01*
X583361Y566800D02*
X582049D01*
X583361Y568112D01*
Y568440D01*
X583033Y568768D01*
X582377D01*
X582049Y568440D01*
X522065Y374634D02*
X520753D01*
Y373650D01*
X521409D01*
X520753D01*
Y372666D01*
X522721Y374634D02*
X523377D01*
X523049D01*
Y372666D01*
X522721D01*
X523377D01*
X524361Y374634D02*
Y372666D01*
X525345D01*
X525673Y372994D01*
Y374306D01*
X525345Y374634D01*
X524361D01*
X526329Y374306D02*
X526657Y374634D01*
X527313D01*
X527641Y374306D01*
Y373978D01*
X527313Y373650D01*
X526985D01*
X527313D01*
X527641Y373322D01*
Y372994D01*
X527313Y372666D01*
X526657D01*
X526329Y372994D01*
X505282Y741789D02*
Y740215D01*
X506331D01*
X507906Y741789D02*
X506856D01*
Y740215D01*
X507906D01*
X506856Y741002D02*
X507381D01*
X508430Y741789D02*
Y740215D01*
X509218D01*
X509480Y740478D01*
Y741527D01*
X509218Y741789D01*
X508430D01*
X510005Y740215D02*
X510529D01*
X510267D01*
Y741789D01*
X510005Y741527D01*
X521519Y741789D02*
Y740215D01*
X522569D01*
X524143Y741789D02*
X523094D01*
Y740215D01*
X524143D01*
X523094Y741002D02*
X523618D01*
X524668Y741789D02*
Y740215D01*
X525455D01*
X525717Y740478D01*
Y741527D01*
X525455Y741789D01*
X524668D01*
X527292Y740215D02*
X526242D01*
X527292Y741265D01*
Y741527D01*
X527029Y741789D01*
X526505D01*
X526242Y741527D01*
X503922Y408558D02*
X503594Y408886D01*
X502938D01*
X502610Y408558D01*
Y408230D01*
X502938Y407902D01*
X503594D01*
X503922Y407574D01*
Y407246D01*
X503594Y406918D01*
X502938D01*
X502610Y407246D01*
X504578Y408886D02*
X505890D01*
X505233D01*
Y406918D01*
X506545D02*
X507201D01*
X506873D01*
Y408886D01*
X506545Y408558D01*
X543225Y537189D02*
X542831Y537583D01*
X542044D01*
X541650Y537189D01*
Y536796D01*
X542044Y536402D01*
X542831D01*
X543225Y536009D01*
Y535615D01*
X542831Y535222D01*
X542044D01*
X541650Y535615D01*
X544012Y537583D02*
Y535222D01*
X544799Y536009D01*
X545586Y535222D01*
Y537583D01*
X546373Y535222D02*
X547161D01*
X546767D01*
Y537583D01*
X546373Y537189D01*
X522831Y517189D02*
X522438Y517583D01*
X521651D01*
X521257Y517189D01*
Y516796D01*
X521651Y516402D01*
X522438D01*
X522831Y516009D01*
Y515615D01*
X522438Y515222D01*
X521651D01*
X521257Y515615D01*
X523618Y517583D02*
Y515222D01*
X524406Y516009D01*
X525193Y515222D01*
Y517583D01*
X527554Y515222D02*
X525980D01*
X527554Y516796D01*
Y517189D01*
X527161Y517583D01*
X526373D01*
X525980Y517189D01*
X502831Y537189D02*
X502438Y537583D01*
X501650D01*
X501257Y537189D01*
Y536796D01*
X501650Y536402D01*
X502438D01*
X502831Y536009D01*
Y535615D01*
X502438Y535222D01*
X501650D01*
X501257Y535615D01*
X503618Y537583D02*
Y535222D01*
X504406Y536009D01*
X505193Y535222D01*
Y537583D01*
X505980Y537189D02*
X506373Y537583D01*
X507161D01*
X507554Y537189D01*
Y536796D01*
X507161Y536402D01*
X506767D01*
X507161D01*
X507554Y536009D01*
Y535615D01*
X507161Y535222D01*
X506373D01*
X505980Y535615D01*
X522831Y557189D02*
X522438Y557583D01*
X521651D01*
X521257Y557189D01*
Y556796D01*
X521651Y556402D01*
X522438D01*
X522831Y556009D01*
Y555615D01*
X522438Y555222D01*
X521651D01*
X521257Y555615D01*
X523618Y557583D02*
Y555222D01*
X524406Y556009D01*
X525193Y555222D01*
Y557583D01*
X527161Y555222D02*
Y557583D01*
X525980Y556402D01*
X527554D01*
X570863Y537189D02*
X570469Y537583D01*
X569682D01*
X569288Y537189D01*
Y536796D01*
X569682Y536402D01*
X570469D01*
X570863Y536009D01*
Y535615D01*
X570469Y535222D01*
X569682D01*
X569288Y535615D01*
X571650Y537583D02*
Y535222D01*
X572437Y536009D01*
X573224Y535222D01*
Y537583D01*
X575586D02*
X574011D01*
Y536402D01*
X574798Y536796D01*
X575192D01*
X575586Y536402D01*
Y535615D01*
X575192Y535222D01*
X574405D01*
X574011Y535615D01*
X483931Y394689D02*
X483538Y395083D01*
X482751D01*
X482357Y394689D01*
Y394296D01*
X482751Y393902D01*
X483538D01*
X483931Y393509D01*
Y393115D01*
X483538Y392722D01*
X482751D01*
X482357Y393115D01*
X484718Y395083D02*
Y392722D01*
X485506Y393509D01*
X486293Y392722D01*
Y395083D01*
X488654D02*
X487867Y394689D01*
X487080Y393902D01*
Y393115D01*
X487473Y392722D01*
X488261D01*
X488654Y393115D01*
Y393509D01*
X488261Y393902D01*
X487080D01*
X483931Y478689D02*
X483538Y479083D01*
X482751D01*
X482357Y478689D01*
Y478296D01*
X482751Y477902D01*
X483538D01*
X483931Y477509D01*
Y477115D01*
X483538Y476722D01*
X482751D01*
X482357Y477115D01*
X484718Y479083D02*
Y476722D01*
X485506Y477509D01*
X486293Y476722D01*
Y479083D01*
X487080D02*
X488654D01*
Y478689D01*
X487080Y477115D01*
Y476722D01*
X522831Y478689D02*
X522438Y479083D01*
X521651D01*
X521257Y478689D01*
Y478296D01*
X521651Y477902D01*
X522438D01*
X522831Y477509D01*
Y477115D01*
X522438Y476722D01*
X521651D01*
X521257Y477115D01*
X523618Y479083D02*
Y476722D01*
X524406Y477509D01*
X525193Y476722D01*
Y479083D01*
X525980Y478689D02*
X526373Y479083D01*
X527161D01*
X527554Y478689D01*
Y478296D01*
X527161Y477902D01*
X527554Y477509D01*
Y477115D01*
X527161Y476722D01*
X526373D01*
X525980Y477115D01*
Y477509D01*
X526373Y477902D01*
X525980Y478296D01*
Y478689D01*
X526373Y477902D02*
X527161D01*
X561731Y478689D02*
X561338Y479083D01*
X560550D01*
X560157Y478689D01*
Y478296D01*
X560550Y477902D01*
X561338D01*
X561731Y477509D01*
Y477115D01*
X561338Y476722D01*
X560550D01*
X560157Y477115D01*
X562518Y479083D02*
Y476722D01*
X563306Y477509D01*
X564093Y476722D01*
Y479083D01*
X564880Y477115D02*
X565273Y476722D01*
X566061D01*
X566454Y477115D01*
Y478689D01*
X566061Y479083D01*
X565273D01*
X564880Y478689D01*
Y478296D01*
X565273Y477902D01*
X566454D01*
X482947Y450689D02*
X482554Y451083D01*
X481767D01*
X481373Y450689D01*
Y450296D01*
X481767Y449902D01*
X482554D01*
X482947Y449509D01*
Y449115D01*
X482554Y448722D01*
X481767D01*
X481373Y449115D01*
X483735Y451083D02*
Y448722D01*
X484522Y449509D01*
X485309Y448722D01*
Y451083D01*
X486096Y448722D02*
X486883D01*
X486489D01*
Y451083D01*
X486096Y450689D01*
X488064D02*
X488457Y451083D01*
X489245D01*
X489638Y450689D01*
Y449115D01*
X489245Y448722D01*
X488457D01*
X488064Y449115D01*
Y450689D01*
X522241D02*
X521847Y451083D01*
X521060D01*
X520667Y450689D01*
Y450296D01*
X521060Y449902D01*
X521847D01*
X522241Y449509D01*
Y449115D01*
X521847Y448722D01*
X521060D01*
X520667Y449115D01*
X523028Y451083D02*
Y448722D01*
X523815Y449509D01*
X524602Y448722D01*
Y451083D01*
X525389Y448722D02*
X526177D01*
X525783D01*
Y451083D01*
X525389Y450689D01*
X527357Y448722D02*
X528145D01*
X527751D01*
Y451083D01*
X527357Y450689D01*
X560747D02*
X560354Y451083D01*
X559567D01*
X559173Y450689D01*
Y450296D01*
X559567Y449902D01*
X560354D01*
X560747Y449509D01*
Y449115D01*
X560354Y448722D01*
X559567D01*
X559173Y449115D01*
X561535Y451083D02*
Y448722D01*
X562322Y449509D01*
X563109Y448722D01*
Y451083D01*
X563896Y448722D02*
X564683D01*
X564290D01*
Y451083D01*
X563896Y450689D01*
X567438Y448722D02*
X565864D01*
X567438Y450296D01*
Y450689D01*
X567044Y451083D01*
X566257D01*
X565864Y450689D01*
X482947Y422689D02*
X482554Y423083D01*
X481767D01*
X481373Y422689D01*
Y422296D01*
X481767Y421902D01*
X482554D01*
X482947Y421509D01*
Y421115D01*
X482554Y420722D01*
X481767D01*
X481373Y421115D01*
X483735Y423083D02*
Y420722D01*
X484522Y421509D01*
X485309Y420722D01*
Y423083D01*
X486096Y420722D02*
X486883D01*
X486489D01*
Y423083D01*
X486096Y422689D01*
X488064D02*
X488457Y423083D01*
X489245D01*
X489638Y422689D01*
Y422296D01*
X489245Y421902D01*
X488851D01*
X489245D01*
X489638Y421509D01*
Y421115D01*
X489245Y420722D01*
X488457D01*
X488064Y421115D01*
X521847Y422689D02*
X521454Y423083D01*
X520667D01*
X520273Y422689D01*
Y422296D01*
X520667Y421902D01*
X521454D01*
X521847Y421509D01*
Y421115D01*
X521454Y420722D01*
X520667D01*
X520273Y421115D01*
X522635Y423083D02*
Y420722D01*
X523422Y421509D01*
X524209Y420722D01*
Y423083D01*
X524996Y420722D02*
X525783D01*
X525389D01*
Y423083D01*
X524996Y422689D01*
X528145Y420722D02*
Y423083D01*
X526964Y421902D01*
X528538D01*
X560747Y422689D02*
X560354Y423083D01*
X559567D01*
X559173Y422689D01*
Y422296D01*
X559567Y421902D01*
X560354D01*
X560747Y421509D01*
Y421115D01*
X560354Y420722D01*
X559567D01*
X559173Y421115D01*
X561535Y423083D02*
Y420722D01*
X562322Y421509D01*
X563109Y420722D01*
Y423083D01*
X563896Y420722D02*
X564683D01*
X564290D01*
Y423083D01*
X563896Y422689D01*
X567438Y423083D02*
X565864D01*
Y421902D01*
X566651Y422296D01*
X567044D01*
X567438Y421902D01*
Y421115D01*
X567044Y420722D01*
X566257D01*
X565864Y421115D01*
X473847Y537189D02*
X473454Y537583D01*
X472667D01*
X472273Y537189D01*
Y536796D01*
X472667Y536402D01*
X473454D01*
X473847Y536009D01*
Y535615D01*
X473454Y535222D01*
X472667D01*
X472273Y535615D01*
X474635Y537583D02*
Y535222D01*
X475422Y536009D01*
X476209Y535222D01*
Y537583D01*
X476996Y535222D02*
X477783D01*
X477389D01*
Y537583D01*
X476996Y537189D01*
X480538Y537583D02*
X479751Y537189D01*
X478964Y536402D01*
Y535615D01*
X479357Y535222D01*
X480145D01*
X480538Y535615D01*
Y536009D01*
X480145Y536402D01*
X478964D01*
X521847Y394689D02*
X521454Y395083D01*
X520667D01*
X520273Y394689D01*
Y394296D01*
X520667Y393902D01*
X521454D01*
X521847Y393509D01*
Y393115D01*
X521454Y392722D01*
X520667D01*
X520273Y393115D01*
X522635Y395083D02*
Y392722D01*
X523422Y393509D01*
X524209Y392722D01*
Y395083D01*
X524996Y392722D02*
X525783D01*
X525389D01*
Y395083D01*
X524996Y394689D01*
X526964Y395083D02*
X528538D01*
Y394689D01*
X526964Y393115D01*
Y392722D01*
D158*
X543041Y719724D02*
X542910Y719593D01*
Y719331D01*
X543041Y719200D01*
X543566D01*
X543697Y719331D01*
Y719593D01*
X543566Y719724D01*
X543697Y719987D02*
Y720249D01*
Y720118D01*
X542910D01*
X543041Y719987D01*
Y720643D02*
X542910Y720774D01*
Y721036D01*
X543041Y721167D01*
X543172D01*
X543303Y721036D01*
X543434Y721167D01*
X543566D01*
X543697Y721036D01*
Y720774D01*
X543566Y720643D01*
X543434D01*
X543303Y720774D01*
X543172Y720643D01*
X543041D01*
X543303Y720774D02*
Y721036D01*
X516925Y710538D02*
X516138D01*
Y710932D01*
X516269Y711063D01*
X516532D01*
X516663Y710932D01*
Y710538D01*
Y710800D02*
X516925Y711063D01*
Y711325D02*
Y711588D01*
Y711456D01*
X516138D01*
X516269Y711325D01*
X516138Y712506D02*
X516269Y712244D01*
X516532Y711981D01*
X516794D01*
X516925Y712112D01*
Y712375D01*
X516794Y712506D01*
X516663D01*
X516532Y712375D01*
Y711981D01*
X513382Y710538D02*
X512595D01*
Y710932D01*
X512726Y711063D01*
X512988D01*
X513119Y710932D01*
Y710538D01*
Y710800D02*
X513382Y711063D01*
Y711325D02*
Y711588D01*
Y711456D01*
X512595D01*
X512726Y711325D01*
X512595Y711981D02*
Y712506D01*
X512726D01*
X513251Y711981D01*
X513382D01*
X540732Y710462D02*
X539945D01*
Y710855D01*
X540076Y710986D01*
X540339D01*
X540470Y710855D01*
Y710462D01*
Y710724D02*
X540732Y710986D01*
Y711249D02*
Y711511D01*
Y711380D01*
X539945D01*
X540076Y711249D01*
Y711905D02*
X539945Y712036D01*
Y712298D01*
X540076Y712430D01*
X540207D01*
X540339Y712298D01*
X540470Y712430D01*
X540601D01*
X540732Y712298D01*
Y712036D01*
X540601Y711905D01*
X540470D01*
X540339Y712036D01*
X540207Y711905D01*
X540076D01*
X540339Y712036D02*
Y712298D01*
X537583Y710462D02*
X536795D01*
Y710855D01*
X536927Y710986D01*
X537189D01*
X537320Y710855D01*
Y710462D01*
Y710724D02*
X537583Y710986D01*
Y711249D02*
Y711511D01*
Y711380D01*
X536795D01*
X536927Y711249D01*
X537451Y711905D02*
X537583Y712036D01*
Y712298D01*
X537451Y712430D01*
X536927D01*
X536795Y712298D01*
Y712036D01*
X536927Y711905D01*
X537058D01*
X537189Y712036D01*
Y712430D01*
X520468Y710472D02*
X519681D01*
Y710866D01*
X519812Y710997D01*
X520075D01*
X520206Y710866D01*
Y710472D01*
Y710735D02*
X520468Y710997D01*
Y711784D02*
Y711260D01*
X519944Y711784D01*
X519812D01*
X519681Y711653D01*
Y711391D01*
X519812Y711260D01*
Y712047D02*
X519681Y712178D01*
Y712440D01*
X519812Y712571D01*
X520337D01*
X520468Y712440D01*
Y712178D01*
X520337Y712047D01*
X519812D01*
X534433Y710527D02*
X533646D01*
Y710921D01*
X533777Y711052D01*
X534039D01*
X534171Y710921D01*
Y710527D01*
Y710790D02*
X534433Y711052D01*
Y711839D02*
Y711314D01*
X533908Y711839D01*
X533777D01*
X533646Y711708D01*
Y711446D01*
X533777Y711314D01*
X534433Y712102D02*
Y712364D01*
Y712233D01*
X533646D01*
X533777Y712102D01*
X543882Y710396D02*
X543095D01*
Y710790D01*
X543226Y710921D01*
X543488D01*
X543619Y710790D01*
Y710396D01*
Y710659D02*
X543882Y710921D01*
Y711708D02*
Y711183D01*
X543357Y711708D01*
X543226D01*
X543095Y711577D01*
Y711314D01*
X543226Y711183D01*
X543882Y712495D02*
Y711970D01*
X543357Y712495D01*
X543226D01*
X543095Y712364D01*
Y712102D01*
X543226Y711970D01*
X535613Y731076D02*
X535482Y731207D01*
X535219D01*
X535088Y731076D01*
Y730551D01*
X535219Y730420D01*
X535482D01*
X535613Y730551D01*
X536269Y730420D02*
Y731207D01*
X535876Y730813D01*
X536400D01*
X537056Y730420D02*
Y731207D01*
X536663Y730813D01*
X537187D01*
M02*
