G04*
G04 #@! TF.GenerationSoftware,Altium Limited,Altium Designer,21.3.1 (25)*
G04*
G04 Layer_Color=8388736*
%FSLAX25Y25*%
%MOIN*%
G70*
G04*
G04 #@! TF.SameCoordinates,17E3FC6B-7FA6-4A94-9312-BAE076C6F9B9*
G04*
G04*
G04 #@! TF.FilePolarity,Positive*
G04*
G01*
G75*
%ADD11C,0.00394*%
D11*
X465929Y789791D02*
Y785856D01*
X467897D01*
X468553Y786512D01*
Y787168D01*
X467897Y787824D01*
X465929D01*
X467897D01*
X468553Y788480D01*
Y789136D01*
X467897Y789791D01*
X465929D01*
X471833D02*
X470521D01*
X469865Y789136D01*
Y786512D01*
X470521Y785856D01*
X471833D01*
X472489Y786512D01*
Y789136D01*
X471833Y789791D01*
X473801D02*
X476425D01*
X475113D01*
Y785856D01*
X477736Y789791D02*
X480360D01*
X479048D01*
Y785856D01*
X483640Y789791D02*
X482328D01*
X481672Y789136D01*
Y786512D01*
X482328Y785856D01*
X483640D01*
X484296Y786512D01*
Y789136D01*
X483640Y789791D01*
X485608Y785856D02*
Y789791D01*
X486920Y788480D01*
X488232Y789791D01*
Y785856D01*
X493479Y789136D02*
X494135Y789791D01*
X495447D01*
X496103Y789136D01*
Y788480D01*
X495447Y787824D01*
X494791D01*
X495447D01*
X496103Y787168D01*
Y786512D01*
X495447Y785856D01*
X494135D01*
X493479Y786512D01*
X497415Y789791D02*
Y785856D01*
X499383D01*
X500039Y786512D01*
Y789136D01*
X499383Y789791D01*
X497415D01*
X505287D02*
Y785856D01*
X507254D01*
X507910Y786512D01*
Y787168D01*
X507254Y787824D01*
X505287D01*
X507254D01*
X507910Y788480D01*
Y789136D01*
X507254Y789791D01*
X505287D01*
X511190D02*
X509878D01*
X509222Y789136D01*
Y786512D01*
X509878Y785856D01*
X511190D01*
X511846Y786512D01*
Y789136D01*
X511190Y789791D01*
X513158D02*
Y785856D01*
X515126D01*
X515782Y786512D01*
Y789136D01*
X515126Y789791D01*
X513158D01*
X517094D02*
Y789136D01*
X518406Y787824D01*
X519718Y789136D01*
Y789791D01*
X518406Y787824D02*
Y785856D01*
M02*
