G04*
G04 #@! TF.GenerationSoftware,Altium Limited,Altium Designer,21.3.1 (25)*
G04*
G04 Layer_Color=39423*
%FSLAX25Y25*%
%MOIN*%
G70*
G04*
G04 #@! TF.SameCoordinates,17E3FC6B-7FA6-4A94-9312-BAE076C6F9B9*
G04*
G04*
G04 #@! TF.FilePolarity,Positive*
G04*
G01*
G75*
%ADD11C,0.00394*%
%ADD159C,0.00098*%
%ADD160C,0.00197*%
%ADD161C,0.00158*%
%ADD162C,0.00118*%
D11*
X523881Y616077D02*
X522831D01*
X523356D01*
Y613453D01*
X522831Y612928D01*
X522306D01*
X521782Y613453D01*
X527029Y612928D02*
X524930D01*
X527029Y615027D01*
Y615552D01*
X526505Y616077D01*
X525455D01*
X524930Y615552D01*
D159*
X540230Y741376D02*
Y740720D01*
X540361Y740589D01*
X540624D01*
X540755Y740720D01*
Y741376D01*
X541542D02*
X541017D01*
Y740983D01*
X541279Y741114D01*
X541411D01*
X541542Y740983D01*
Y740720D01*
X541411Y740589D01*
X541148D01*
X541017Y740720D01*
D160*
X564558Y391537D02*
X564558Y390980D01*
X565114Y390424D01*
X565671D01*
X565949Y390702D01*
Y391259D01*
X565393Y391815D01*
Y392372D01*
X565671Y392650D01*
X566228D01*
X566784Y392093D01*
Y391537D01*
X563723Y391815D02*
X565393Y393485D01*
X564280D01*
X564280Y394598D01*
X562610Y392928D01*
X563723Y395155D02*
X563166Y395711D01*
X563445Y395433D01*
X561775Y393763D01*
X562331D01*
X560940Y395155D02*
X560383Y395155D01*
X559827Y395711D01*
Y396268D01*
X560105Y396546D01*
X560662D01*
Y397103D01*
X560940Y397381D01*
X561497D01*
X562053Y396824D01*
Y396268D01*
X561775Y395989D01*
X561218D01*
Y395433D01*
X560940Y395155D01*
X561218Y395989D02*
X560662Y396546D01*
X526771Y395155D02*
X527328Y395155D01*
X527884Y395711D01*
Y396268D01*
X527606Y396546D01*
X527049D01*
X526493Y395989D01*
X525936D01*
X525658Y396268D01*
Y396824D01*
X526215Y397381D01*
X526771D01*
X526493Y394320D02*
X524823Y395989D01*
Y394876D01*
X523710Y394876D01*
X525380Y393207D01*
X523153Y394320D02*
X522597Y393763D01*
X522875Y394041D01*
X524545Y392372D01*
Y392928D01*
X523431Y391259D02*
X522318Y390145D01*
X522040Y390424D01*
Y392650D01*
X521762Y392928D01*
X475153Y538768D02*
X475153Y539324D01*
X474597Y539881D01*
X474040D01*
X473762Y539603D01*
Y539046D01*
X474318Y538489D01*
Y537933D01*
X474040Y537655D01*
X473483D01*
X472927Y538211D01*
Y538768D01*
X475988Y538489D02*
X474318Y536820D01*
X475431D01*
X475431Y535707D01*
X477101Y537376D01*
X475988Y535150D02*
X476545Y534593D01*
X476266Y534872D01*
X477936Y536541D01*
X477380D01*
X480163Y534315D02*
X479328Y534593D01*
X478215Y534593D01*
X477658Y534037D01*
Y533480D01*
X478215Y532924D01*
X478771D01*
X479049Y533202D01*
Y533758D01*
X478215Y534593D01*
X564093Y424461D02*
X564486Y424854D01*
Y425641D01*
X564093Y426035D01*
X563699D01*
X563306Y425641D01*
Y424854D01*
X562912Y424461D01*
X562518D01*
X562125Y424854D01*
Y425641D01*
X562518Y426035D01*
X564486Y423673D02*
X562125D01*
X562912Y422886D01*
X562125Y422099D01*
X564486D01*
X562125Y421312D02*
Y420525D01*
Y420918D01*
X564486D01*
X564093Y421312D01*
X564486Y417770D02*
Y419344D01*
X563306D01*
X563699Y418557D01*
Y418163D01*
X563306Y417770D01*
X562518D01*
X562125Y418163D01*
Y418951D01*
X562518Y419344D01*
X525658Y419537D02*
X525658Y418980D01*
X526215Y418424D01*
X526771D01*
X527049Y418702D01*
Y419258D01*
X526493Y419815D01*
Y420372D01*
X526771Y420650D01*
X527328D01*
X527884Y420093D01*
Y419537D01*
X524823Y419815D02*
X526493Y421485D01*
X525380D01*
X525380Y422598D01*
X523710Y420928D01*
X524823Y423155D02*
X524266Y423711D01*
X524545Y423433D01*
X522875Y421763D01*
X523431D01*
X522597Y425381D02*
X520927Y423711D01*
X522597D01*
X521483Y424824D01*
X486293Y424461D02*
X486686Y424854D01*
Y425641D01*
X486293Y426035D01*
X485899D01*
X485506Y425641D01*
Y424854D01*
X485112Y424461D01*
X484718D01*
X484325Y424854D01*
Y425641D01*
X484718Y426035D01*
X486686Y423673D02*
X484325D01*
X485112Y422886D01*
X484325Y422099D01*
X486686D01*
X484325Y421312D02*
Y420525D01*
Y420918D01*
X486686D01*
X486293Y421312D01*
Y419344D02*
X486686Y418951D01*
Y418163D01*
X486293Y417770D01*
X485899D01*
X485506Y418163D01*
Y418557D01*
Y418163D01*
X485112Y417770D01*
X484718D01*
X484325Y418163D01*
Y418951D01*
X484718Y419344D01*
X562053Y452268D02*
X562053Y452824D01*
X561497Y453381D01*
X560940D01*
X560662Y453103D01*
Y452546D01*
X561218Y451990D01*
Y451433D01*
X560940Y451155D01*
X560383D01*
X559827Y451711D01*
Y452268D01*
X562888Y451990D02*
X561218Y450320D01*
X562331D01*
X562331Y449206D01*
X564001Y450876D01*
X562888Y448650D02*
X563445Y448093D01*
X563166Y448372D01*
X564836Y450041D01*
X564280D01*
X565393Y446145D02*
X564280Y447259D01*
X566506D01*
X566784Y447537D01*
Y448093D01*
X566228Y448650D01*
X565671Y448650D01*
X522241Y450689D02*
X521847Y451083D01*
X521060D01*
X520667Y450689D01*
Y450296D01*
X521060Y449902D01*
X521847D01*
X522241Y449509D01*
Y449115D01*
X521847Y448722D01*
X521060D01*
X520667Y449115D01*
X523028Y451083D02*
Y448722D01*
X523815Y449509D01*
X524602Y448722D01*
Y451083D01*
X525389Y448722D02*
X526177D01*
X525783D01*
Y451083D01*
X525389Y450689D01*
X527357Y448722D02*
X528145D01*
X527751D01*
Y451083D01*
X527357Y450689D01*
X484253Y452268D02*
X484253Y452824D01*
X483697Y453381D01*
X483140D01*
X482862Y453103D01*
Y452546D01*
X483418Y451990D01*
Y451433D01*
X483140Y451155D01*
X482583D01*
X482027Y451711D01*
Y452268D01*
X485088Y451990D02*
X483418Y450320D01*
X484531D01*
X484531Y449206D01*
X486201Y450876D01*
X485088Y448650D02*
X485645Y448093D01*
X485366Y448372D01*
X487036Y450041D01*
X486480D01*
X487871Y448650D02*
X488428Y448650D01*
X488984Y448093D01*
Y447537D01*
X487871Y446424D01*
X487315D01*
X486758Y446980D01*
Y447537D01*
X487871Y448650D01*
X564093Y479477D02*
X564486Y479870D01*
Y480657D01*
X564093Y481051D01*
X563699D01*
X563306Y480657D01*
Y479870D01*
X562912Y479477D01*
X562518D01*
X562125Y479870D01*
Y480657D01*
X562518Y481051D01*
X564486Y478689D02*
X562125D01*
X562912Y477902D01*
X562125Y477115D01*
X564486D01*
X562518Y476328D02*
X562125Y475934D01*
Y475147D01*
X562518Y474754D01*
X564093D01*
X564486Y475147D01*
Y475934D01*
X564093Y476328D01*
X563699D01*
X563306Y475934D01*
Y474754D01*
X523849Y479572D02*
X523849Y480129D01*
X523292Y480685D01*
X522736D01*
X522457Y480407D01*
Y479850D01*
X523014Y479294D01*
Y478737D01*
X522736Y478459D01*
X522179D01*
X521623Y479015D01*
Y479572D01*
X524684Y479294D02*
X523014Y477624D01*
X524127D01*
X524127Y476511D01*
X525797Y478181D01*
X526075Y477346D02*
X526632D01*
X527188Y476789D01*
X527188Y476232D01*
X526910Y475954D01*
X526354D01*
Y475398D01*
X526075Y475119D01*
X525519D01*
X524962Y475676D01*
Y476232D01*
X525240Y476511D01*
X525797D01*
Y477067D01*
X526075Y477346D01*
X525797Y476511D02*
X526354Y475954D01*
X483931Y478689D02*
X483538Y479083D01*
X482751D01*
X482357Y478689D01*
Y478296D01*
X482751Y477902D01*
X483538D01*
X483931Y477509D01*
Y477115D01*
X483538Y476722D01*
X482751D01*
X482357Y477115D01*
X484718Y479083D02*
Y476722D01*
X485506Y477509D01*
X486293Y476722D01*
Y479083D01*
X487080D02*
X488654D01*
Y478689D01*
X487080Y477115D01*
Y476722D01*
X486062Y392232D02*
X486062Y391676D01*
X486619Y391119D01*
X487175D01*
X487454Y391398D01*
Y391954D01*
X486897Y392511D01*
Y393067D01*
X487175Y393346D01*
X487732D01*
X488288Y392789D01*
Y392232D01*
X485227Y392511D02*
X486897Y394181D01*
X485784D01*
X485784Y395294D01*
X484114Y393624D01*
X482444Y395294D02*
X483279Y395016D01*
X484392D01*
X484949Y395572D01*
Y396129D01*
X484392Y396685D01*
X483836D01*
X483557Y396407D01*
Y395850D01*
X484392Y395016D01*
X571880Y538072D02*
X571880Y538629D01*
X571324Y539185D01*
X570767D01*
X570489Y538907D01*
Y538350D01*
X571046Y537794D01*
Y537237D01*
X570767Y536959D01*
X570211D01*
X569654Y537515D01*
Y538072D01*
X572715Y537794D02*
X571046Y536124D01*
X572159D01*
X572159Y535011D01*
X573829Y536681D01*
X575498Y535011D02*
X574385Y536124D01*
X573550Y535289D01*
X574385Y535011D01*
X574663Y534732D01*
Y534176D01*
X574107Y533619D01*
X573550D01*
X572994Y534176D01*
Y534732D01*
X526075Y556959D02*
X526632Y556959D01*
X527188Y557515D01*
Y558072D01*
X526910Y558350D01*
X526354D01*
X525797Y557794D01*
X525240D01*
X524962Y558072D01*
Y558629D01*
X525519Y559185D01*
X526075D01*
X525797Y556124D02*
X524127Y557794D01*
Y556681D01*
X523014Y556681D01*
X524684Y555011D01*
X521623Y555289D02*
X523292Y553619D01*
Y555289D01*
X522179Y554176D01*
X502831Y537189D02*
X502438Y537583D01*
X501650D01*
X501257Y537189D01*
Y536796D01*
X501650Y536402D01*
X502438D01*
X502831Y536009D01*
Y535615D01*
X502438Y535222D01*
X501650D01*
X501257Y535615D01*
X503618Y537583D02*
Y535222D01*
X504406Y536009D01*
X505193Y535222D01*
Y537583D01*
X505980Y537189D02*
X506373Y537583D01*
X507161D01*
X507554Y537189D01*
Y536796D01*
X507161Y536402D01*
X506767D01*
X507161D01*
X507554Y536009D01*
Y535615D01*
X507161Y535222D01*
X506373D01*
X505980Y535615D01*
X523849Y518072D02*
X523849Y518629D01*
X523292Y519185D01*
X522736D01*
X522457Y518907D01*
Y518350D01*
X523014Y517794D01*
Y517237D01*
X522736Y516959D01*
X522179D01*
X521623Y517516D01*
Y518072D01*
X524684Y517794D02*
X523014Y516124D01*
X524127D01*
X524127Y515011D01*
X525797Y516681D01*
Y513341D02*
X524684Y514454D01*
X526910D01*
X527188Y514733D01*
X527188Y515289D01*
X526632Y515846D01*
X526075D01*
X543225Y537189D02*
X542831Y537583D01*
X542044D01*
X541650Y537189D01*
Y536796D01*
X542044Y536402D01*
X542831D01*
X543225Y536009D01*
Y535615D01*
X542831Y535222D01*
X542044D01*
X541650Y535615D01*
X544012Y537583D02*
Y535222D01*
X544799Y536009D01*
X545586Y535222D01*
Y537583D01*
X546373Y535222D02*
X547161D01*
X546767D01*
Y537583D01*
X546373Y537189D01*
X542594Y408558D02*
X542266Y408886D01*
X541610D01*
X541282Y408558D01*
Y408230D01*
X541610Y407902D01*
X542266D01*
X542594Y407574D01*
Y407246D01*
X542266Y406918D01*
X541610D01*
X541282Y407246D01*
X543250Y408886D02*
X544561D01*
X543906D01*
Y406918D01*
X546529D02*
X545218D01*
X546529Y408230D01*
Y408558D01*
X546201Y408886D01*
X545545D01*
X545218Y408558D01*
X467090Y731403D02*
X465778D01*
Y730420D01*
X466434D01*
X465778D01*
Y729436D01*
X467746Y731403D02*
X468402D01*
X468074D01*
Y729436D01*
X467746D01*
X468402D01*
X469386Y731403D02*
Y729436D01*
X470370D01*
X470698Y729764D01*
Y731076D01*
X470370Y731403D01*
X469386D01*
X471354Y729436D02*
X472010D01*
X471681D01*
Y731403D01*
X471354Y731076D01*
X577785Y568768D02*
X576474D01*
Y567784D01*
X577130D01*
X576474D01*
Y566800D01*
X578441Y568768D02*
X579097D01*
X578769D01*
Y566800D01*
X578441D01*
X579097D01*
X580081Y568768D02*
Y566800D01*
X581065D01*
X581393Y567128D01*
Y568440D01*
X581065Y568768D01*
X580081D01*
X583361Y566800D02*
X582049D01*
X583361Y568112D01*
Y568440D01*
X583033Y568768D01*
X582377D01*
X582049Y568440D01*
X522065Y374634D02*
X520753D01*
Y373650D01*
X521409D01*
X520753D01*
Y372666D01*
X522721Y374634D02*
X523377D01*
X523049D01*
Y372666D01*
X522721D01*
X523377D01*
X524361Y374634D02*
Y372666D01*
X525345D01*
X525673Y372994D01*
Y374306D01*
X525345Y374634D01*
X524361D01*
X526329Y374306D02*
X526657Y374634D01*
X527313D01*
X527641Y374306D01*
Y373978D01*
X527313Y373650D01*
X526985D01*
X527313D01*
X527641Y373322D01*
Y372994D01*
X527313Y372666D01*
X526657D01*
X526329Y372994D01*
X503922Y408558D02*
X503594Y408886D01*
X502938D01*
X502610Y408558D01*
Y408230D01*
X502938Y407902D01*
X503594D01*
X503922Y407574D01*
Y407246D01*
X503594Y406918D01*
X502938D01*
X502610Y407246D01*
X504578Y408886D02*
X505890D01*
X505233D01*
Y406918D01*
X506545D02*
X507201D01*
X506873D01*
Y408886D01*
X506545Y408558D01*
D161*
X522602Y741494D02*
Y740510D01*
X523258D01*
X524242Y741494D02*
X523586D01*
Y740510D01*
X524242D01*
X523586Y741002D02*
X523914D01*
X524570Y741494D02*
Y740510D01*
X525062D01*
X525225Y740674D01*
Y741330D01*
X525062Y741494D01*
X524570D01*
X526209Y740510D02*
X525554D01*
X526209Y741166D01*
Y741330D01*
X526045Y741494D01*
X525717D01*
X525554Y741330D01*
X506266Y741494D02*
Y740510D01*
X506922D01*
X507906Y741494D02*
X507250D01*
Y740510D01*
X507906D01*
X507250Y741002D02*
X507578D01*
X508233Y741494D02*
Y740510D01*
X508726D01*
X508889Y740674D01*
Y741330D01*
X508726Y741494D01*
X508233D01*
X509218Y740510D02*
X509545D01*
X509381D01*
Y741494D01*
X509218Y741330D01*
D162*
X543041Y719724D02*
X542910Y719593D01*
Y719331D01*
X543041Y719200D01*
X543566D01*
X543697Y719331D01*
Y719593D01*
X543566Y719724D01*
X543697Y719987D02*
Y720249D01*
Y720118D01*
X542910D01*
X543041Y719987D01*
Y720643D02*
X542910Y720774D01*
Y721036D01*
X543041Y721167D01*
X543172D01*
X543303Y721036D01*
X543434Y721167D01*
X543566D01*
X543697Y721036D01*
Y720774D01*
X543566Y720643D01*
X543434D01*
X543303Y720774D01*
X543172Y720643D01*
X543041D01*
X543303Y720774D02*
Y721036D01*
X516925Y710538D02*
X516138D01*
Y710932D01*
X516269Y711063D01*
X516532D01*
X516663Y710932D01*
Y710538D01*
Y710800D02*
X516925Y711063D01*
Y711325D02*
Y711588D01*
Y711456D01*
X516138D01*
X516269Y711325D01*
X516138Y712506D02*
X516269Y712244D01*
X516532Y711981D01*
X516794D01*
X516925Y712112D01*
Y712375D01*
X516794Y712506D01*
X516663D01*
X516532Y712375D01*
Y711981D01*
X513382Y710538D02*
X512595D01*
Y710932D01*
X512726Y711063D01*
X512988D01*
X513119Y710932D01*
Y710538D01*
Y710800D02*
X513382Y711063D01*
Y711325D02*
Y711588D01*
Y711456D01*
X512595D01*
X512726Y711325D01*
X512595Y711981D02*
Y712506D01*
X512726D01*
X513251Y711981D01*
X513382D01*
X540732Y710462D02*
X539945D01*
Y710855D01*
X540076Y710986D01*
X540339D01*
X540470Y710855D01*
Y710462D01*
Y710724D02*
X540732Y710986D01*
Y711249D02*
Y711511D01*
Y711380D01*
X539945D01*
X540076Y711249D01*
Y711905D02*
X539945Y712036D01*
Y712298D01*
X540076Y712430D01*
X540207D01*
X540339Y712298D01*
X540470Y712430D01*
X540601D01*
X540732Y712298D01*
Y712036D01*
X540601Y711905D01*
X540470D01*
X540339Y712036D01*
X540207Y711905D01*
X540076D01*
X540339Y712036D02*
Y712298D01*
X537583Y710462D02*
X536795D01*
Y710855D01*
X536927Y710986D01*
X537189D01*
X537320Y710855D01*
Y710462D01*
Y710724D02*
X537583Y710986D01*
Y711249D02*
Y711511D01*
Y711380D01*
X536795D01*
X536927Y711249D01*
X537451Y711905D02*
X537583Y712036D01*
Y712298D01*
X537451Y712430D01*
X536927D01*
X536795Y712298D01*
Y712036D01*
X536927Y711905D01*
X537058D01*
X537189Y712036D01*
Y712430D01*
X520468Y710472D02*
X519681D01*
Y710866D01*
X519812Y710997D01*
X520075D01*
X520206Y710866D01*
Y710472D01*
Y710735D02*
X520468Y710997D01*
Y711784D02*
Y711260D01*
X519944Y711784D01*
X519812D01*
X519681Y711653D01*
Y711391D01*
X519812Y711260D01*
Y712047D02*
X519681Y712178D01*
Y712440D01*
X519812Y712571D01*
X520337D01*
X520468Y712440D01*
Y712178D01*
X520337Y712047D01*
X519812D01*
X534433Y710527D02*
X533646D01*
Y710921D01*
X533777Y711052D01*
X534039D01*
X534171Y710921D01*
Y710527D01*
Y710790D02*
X534433Y711052D01*
Y711839D02*
Y711314D01*
X533908Y711839D01*
X533777D01*
X533646Y711708D01*
Y711446D01*
X533777Y711314D01*
X534433Y712102D02*
Y712364D01*
Y712233D01*
X533646D01*
X533777Y712102D01*
X543882Y710396D02*
X543095D01*
Y710790D01*
X543226Y710921D01*
X543488D01*
X543619Y710790D01*
Y710396D01*
Y710659D02*
X543882Y710921D01*
Y711708D02*
Y711183D01*
X543357Y711708D01*
X543226D01*
X543095Y711577D01*
Y711314D01*
X543226Y711183D01*
X543882Y712495D02*
Y711970D01*
X543357Y712495D01*
X543226D01*
X543095Y712364D01*
Y712102D01*
X543226Y711970D01*
X535613Y731076D02*
X535482Y731207D01*
X535219D01*
X535088Y731076D01*
Y730551D01*
X535219Y730420D01*
X535482D01*
X535613Y730551D01*
X536269Y730420D02*
Y731207D01*
X535876Y730813D01*
X536400D01*
X537056Y730420D02*
Y731207D01*
X536663Y730813D01*
X537187D01*
M02*
