G04*
G04 #@! TF.GenerationSoftware,Altium Limited,Altium Designer,20.2.6 (244)*
G04*
G04 Layer_Physical_Order=3*
G04 Layer_Color=16440176*
%FSLAX25Y25*%
%MOIN*%
G70*
G04*
G04 #@! TF.SameCoordinates,D103880D-7D63-4280-A8AA-78B1B6904BBD*
G04*
G04*
G04 #@! TF.FilePolarity,Positive*
G04*
G01*
G75*
%ADD11C,0.00394*%
%ADD43C,0.01772*%
G36*
X524574Y746002D02*
X525129Y745153D01*
X525150Y745002D01*
X525054Y744517D01*
X525168Y743940D01*
X525495Y743452D01*
X525983Y743126D01*
X526559Y743011D01*
X527135Y743126D01*
X527624Y743452D01*
X527950Y743940D01*
X528064Y744517D01*
X527968Y745002D01*
X527989Y745153D01*
X528512Y745952D01*
X529479Y745972D01*
X529751Y745621D01*
X530068Y745002D01*
X529987Y744593D01*
X530101Y744017D01*
X530428Y743528D01*
X530916Y743202D01*
X531492Y743088D01*
X532068Y743202D01*
X532557Y743528D01*
X532883Y744017D01*
X532998Y744593D01*
X532916Y745002D01*
X533233Y745621D01*
X533529Y746002D01*
X547406Y746002D01*
Y720002D01*
X547405Y579002D01*
X547393Y578265D01*
X547583Y576803D01*
X548055Y575408D01*
X548791Y574131D01*
X549761Y573022D01*
X550929Y572123D01*
X552250Y571470D01*
X553673Y571087D01*
X554406Y571002D01*
X583406Y571002D01*
X583406Y382002D01*
X540816Y382002D01*
X540816Y382002D01*
X540036Y381964D01*
X538506Y381660D01*
X537065Y381063D01*
X535768Y380196D01*
X534665Y379093D01*
X533798Y377796D01*
X533201Y376354D01*
X532897Y374824D01*
X532858Y374044D01*
Y370002D01*
X515929Y370002D01*
X515929Y374044D01*
X515929Y374044D01*
X515929Y374044D01*
X515929Y374047D01*
X515891Y374824D01*
X515861Y374972D01*
X515586Y376354D01*
X514989Y377796D01*
X514123Y379093D01*
X513020Y380196D01*
X511722Y381063D01*
X510281Y381660D01*
X508751Y381964D01*
X507971Y382002D01*
X465406Y382002D01*
Y734002D01*
X483506D01*
X487967Y729541D01*
X487967Y729541D01*
X488519Y729012D01*
X489764Y728129D01*
X491157Y727506D01*
X492646Y727167D01*
X494172Y727125D01*
X495677Y727381D01*
X497102Y727926D01*
X498394Y728739D01*
X499503Y729788D01*
X500386Y731034D01*
X501009Y732428D01*
X501347Y733916D01*
X501405Y734678D01*
X501406Y746002D01*
X524574Y746002D01*
D02*
G37*
%LPC*%
G36*
X536795Y742085D02*
X536219Y741970D01*
X535731Y741644D01*
X535405Y741155D01*
X535290Y740580D01*
X535405Y740003D01*
X535731Y739515D01*
X536219Y739189D01*
X536795Y739074D01*
X537371Y739189D01*
X537860Y739515D01*
X538186Y740003D01*
X538301Y740580D01*
X538186Y741155D01*
X537860Y741644D01*
X537371Y741970D01*
X536795Y742085D01*
D02*
G37*
G36*
X521650Y739799D02*
X521074Y739684D01*
X520585Y739358D01*
X520259Y738870D01*
X520144Y738294D01*
X520259Y737718D01*
X520585Y737229D01*
X521074Y736903D01*
X521650Y736788D01*
X522226Y736903D01*
X522714Y737229D01*
X523040Y737718D01*
X523155Y738294D01*
X523040Y738870D01*
X522714Y739358D01*
X522226Y739684D01*
X521650Y739799D01*
D02*
G37*
G36*
X507083D02*
X506507Y739684D01*
X506018Y739358D01*
X505692Y738870D01*
X505577Y738294D01*
X505692Y737718D01*
X506018Y737229D01*
X506507Y736903D01*
X507083Y736788D01*
X507659Y736903D01*
X508147Y737229D01*
X508473Y737718D01*
X508588Y738294D01*
X508473Y738870D01*
X508147Y739358D01*
X507659Y739684D01*
X507083Y739799D01*
D02*
G37*
G36*
X529673Y739405D02*
X529097Y739291D01*
X528609Y738964D01*
X528282Y738476D01*
X528168Y737900D01*
X528282Y737324D01*
X528609Y736835D01*
X529097Y736509D01*
X529673Y736395D01*
X530249Y736509D01*
X530738Y736835D01*
X531064Y737324D01*
X531179Y737900D01*
X531064Y738476D01*
X530738Y738964D01*
X530249Y739291D01*
X529673Y739405D01*
D02*
G37*
G36*
X516532Y735468D02*
X515955Y735354D01*
X515467Y735027D01*
X515141Y734539D01*
X515026Y733963D01*
X515141Y733387D01*
X515467Y732899D01*
X515955Y732572D01*
X516532Y732458D01*
X517108Y732572D01*
X517596Y732899D01*
X517922Y733387D01*
X518037Y733963D01*
X517922Y734539D01*
X517596Y735027D01*
X517108Y735354D01*
X516532Y735468D01*
D02*
G37*
G36*
X542996Y732242D02*
X542420Y732128D01*
X541932Y731801D01*
X541605Y731313D01*
X541491Y730737D01*
X541605Y730161D01*
X541932Y729672D01*
X542420Y729346D01*
X542996Y729232D01*
X543572Y729346D01*
X544061Y729672D01*
X544387Y730161D01*
X544501Y730737D01*
X544387Y731313D01*
X544061Y731801D01*
X543572Y732128D01*
X542996Y732242D01*
D02*
G37*
G36*
X480039Y729838D02*
X479463Y729724D01*
X478974Y729397D01*
X478648Y728909D01*
X478534Y728333D01*
X478648Y727757D01*
X478974Y727269D01*
X479463Y726942D01*
X480039Y726828D01*
X480615Y726942D01*
X481103Y727269D01*
X481429Y727757D01*
X481544Y728333D01*
X481429Y728909D01*
X481103Y729397D01*
X480615Y729724D01*
X480039Y729838D01*
D02*
G37*
G36*
X534433Y727518D02*
X533857Y727403D01*
X533369Y727077D01*
X533042Y726589D01*
X532928Y726013D01*
X533042Y725436D01*
X533369Y724948D01*
X533857Y724622D01*
X534433Y724507D01*
X535009Y724622D01*
X535498Y724948D01*
X535824Y725436D01*
X535938Y726013D01*
X535824Y726589D01*
X535498Y727077D01*
X535009Y727403D01*
X534433Y727518D01*
D02*
G37*
G36*
X518500Y726413D02*
X517924Y726299D01*
X517436Y725972D01*
X517109Y725484D01*
X516995Y724908D01*
X517109Y724332D01*
X517436Y723843D01*
X517924Y723517D01*
X518500Y723403D01*
X519076Y723517D01*
X519564Y723843D01*
X519891Y724332D01*
X520005Y724908D01*
X519891Y725484D01*
X519564Y725972D01*
X519076Y726299D01*
X518500Y726413D01*
D02*
G37*
G36*
X542732Y726108D02*
X542156Y725993D01*
X541668Y725667D01*
X541341Y725179D01*
X541227Y724603D01*
X541341Y724026D01*
X541668Y723538D01*
X542156Y723212D01*
X542732Y723097D01*
X543308Y723212D01*
X543796Y723538D01*
X544123Y724026D01*
X544237Y724603D01*
X544123Y725179D01*
X543796Y725667D01*
X543308Y725993D01*
X542732Y726108D01*
D02*
G37*
G36*
X538579Y726019D02*
X538003Y725905D01*
X537514Y725578D01*
X537188Y725090D01*
X537074Y724514D01*
X537188Y723938D01*
X537514Y723450D01*
X538003Y723123D01*
X538579Y723009D01*
X539155Y723123D01*
X539643Y723450D01*
X539969Y723938D01*
X540084Y724514D01*
X539969Y725090D01*
X539643Y725578D01*
X539155Y725905D01*
X538579Y726019D01*
D02*
G37*
G36*
X503252Y724683D02*
X502676Y724569D01*
X502188Y724242D01*
X501861Y723754D01*
X501747Y723178D01*
X501861Y722602D01*
X502188Y722114D01*
X502676Y721787D01*
X503252Y721673D01*
X503828Y721787D01*
X504316Y722114D01*
X504643Y722602D01*
X504757Y723178D01*
X504643Y723754D01*
X504316Y724242D01*
X503828Y724569D01*
X503252Y724683D01*
D02*
G37*
G36*
X469468Y724445D02*
X468892Y724330D01*
X468404Y724004D01*
X468078Y723515D01*
X467963Y722939D01*
X468078Y722363D01*
X468404Y721875D01*
X468892Y721549D01*
X469468Y721434D01*
X470045Y721549D01*
X470533Y721875D01*
X470859Y722363D01*
X470974Y722939D01*
X470859Y723515D01*
X470533Y724004D01*
X470045Y724330D01*
X469468Y724445D01*
D02*
G37*
G36*
X529917Y726019D02*
X529341Y725905D01*
X528853Y725578D01*
X528527Y725090D01*
X528412Y724514D01*
X528527Y723938D01*
X528853Y723450D01*
X529341Y723123D01*
X529698Y723053D01*
X530076Y722392D01*
X530167Y722039D01*
X530101Y721941D01*
X529987Y721364D01*
X530101Y720788D01*
X530428Y720300D01*
X530916Y719974D01*
X531492Y719859D01*
X532068Y719974D01*
X532557Y720300D01*
X532883Y720788D01*
X532998Y721364D01*
X532883Y721941D01*
X532557Y722429D01*
X532068Y722755D01*
X531711Y722826D01*
X531333Y723487D01*
X531242Y723840D01*
X531308Y723938D01*
X531423Y724514D01*
X531308Y725090D01*
X530982Y725578D01*
X530493Y725905D01*
X529917Y726019D01*
D02*
G37*
G36*
X506480Y720038D02*
X505904Y719923D01*
X505416Y719597D01*
X505090Y719108D01*
X504975Y718532D01*
X505090Y717956D01*
X505416Y717468D01*
X505904Y717141D01*
X506480Y717027D01*
X507056Y717141D01*
X507545Y717468D01*
X507871Y717956D01*
X507986Y718532D01*
X507871Y719108D01*
X507545Y719597D01*
X507056Y719923D01*
X506480Y720038D01*
D02*
G37*
G36*
X542386Y717752D02*
X541810Y717637D01*
X541321Y717311D01*
X540625Y716843D01*
X539987Y716880D01*
X539945Y716888D01*
X539369Y716773D01*
X539125Y716610D01*
X538724Y716500D01*
X537900Y716780D01*
X537860Y716841D01*
X537371Y717167D01*
X536795Y717282D01*
X536219Y717167D01*
X536129Y717107D01*
X535417Y716922D01*
X534706Y717107D01*
X534616Y717167D01*
X534039Y717282D01*
X533463Y717167D01*
X532975Y716841D01*
X532649Y716352D01*
X532564Y715926D01*
X532048Y715574D01*
X531593Y715384D01*
X531505Y715443D01*
X530929Y715557D01*
X530353Y715443D01*
X529865Y715116D01*
X529538Y714628D01*
X529424Y714052D01*
X529538Y713476D01*
X529865Y712988D01*
X530353Y712661D01*
X530929Y712547D01*
X531505Y712661D01*
X531993Y712988D01*
X532320Y713476D01*
X532405Y713903D01*
X532921Y714255D01*
X533376Y714444D01*
X533463Y714386D01*
X534039Y714271D01*
X534616Y714386D01*
X534706Y714446D01*
X535417Y714631D01*
X536129Y714446D01*
X536219Y714386D01*
X536795Y714271D01*
X537371Y714386D01*
X537615Y714549D01*
X538016Y714659D01*
X538840Y714379D01*
X538880Y714318D01*
X539369Y713992D01*
X539945Y713877D01*
X540521Y713992D01*
X541009Y714318D01*
X541705Y714786D01*
X542344Y714749D01*
X542386Y714741D01*
X542962Y714856D01*
X543450Y715182D01*
X543776Y715670D01*
X543891Y716246D01*
X543776Y716822D01*
X543450Y717311D01*
X542962Y717637D01*
X542386Y717752D01*
D02*
G37*
G36*
X520075Y717358D02*
X519499Y717243D01*
X519010Y716917D01*
X518769Y716555D01*
X518684Y716429D01*
X518650Y716380D01*
X517563D01*
X517529Y716429D01*
X517481Y716499D01*
X517202Y716917D01*
X516714Y717243D01*
X516138Y717358D01*
X515562Y717243D01*
X515073Y716917D01*
X514446D01*
X513958Y717243D01*
X513382Y717358D01*
X512806Y717243D01*
X512318Y716917D01*
X511991Y716429D01*
X511877Y715853D01*
X511991Y715277D01*
X512318Y714788D01*
X512806Y714462D01*
X513382Y714347D01*
X513958Y714462D01*
X514446Y714788D01*
X515073D01*
X515562Y714462D01*
X516138Y714347D01*
X516714Y714462D01*
X517202Y714788D01*
X517444Y715150D01*
X517529Y715277D01*
X517563Y715325D01*
X518650D01*
X518684Y715277D01*
X518731Y715206D01*
X519010Y714788D01*
X519499Y714462D01*
X520075Y714347D01*
X520651Y714462D01*
X521139Y714788D01*
X521465Y715277D01*
X521580Y715853D01*
X521465Y716429D01*
X521139Y716917D01*
X520651Y717243D01*
X520075Y717358D01*
D02*
G37*
G36*
X479799Y719051D02*
X479223Y718936D01*
X478735Y718610D01*
X478408Y718122D01*
X478294Y717546D01*
X478408Y716970D01*
X478735Y716481D01*
X479223Y716155D01*
X479799Y716040D01*
X480375Y716155D01*
X480864Y716481D01*
X481190Y716970D01*
X481305Y717546D01*
X481190Y718122D01*
X480864Y718610D01*
X480375Y718936D01*
X479799Y719051D01*
D02*
G37*
G36*
X498815Y712240D02*
X498239Y712125D01*
X497751Y711799D01*
X497424Y711311D01*
X497310Y710735D01*
X496431Y710438D01*
X496310Y710424D01*
X495481Y710917D01*
X495481Y710917D01*
X495424Y711002D01*
X495155Y711405D01*
X494667Y711732D01*
X494091Y711846D01*
X493514Y711732D01*
X493026Y711405D01*
X492700Y710917D01*
X492585Y710341D01*
X492700Y709765D01*
X493026Y709276D01*
X493514Y708950D01*
X494091Y708836D01*
X494442Y708906D01*
X494693Y708935D01*
X495521Y708442D01*
X495521Y708442D01*
X495578Y708357D01*
X495848Y707954D01*
X496336Y707627D01*
X496912Y707513D01*
X497488Y707627D01*
X497976Y707954D01*
X498303Y708442D01*
X498417Y709018D01*
X499373Y709340D01*
X499391Y709344D01*
X499879Y709670D01*
X500206Y710158D01*
X500320Y710735D01*
X500206Y711311D01*
X499879Y711799D01*
X499391Y712125D01*
X498815Y712240D01*
D02*
G37*
G36*
X478921Y712557D02*
X478345Y712443D01*
X477857Y712116D01*
X477531Y711628D01*
X477416Y711052D01*
X477531Y710476D01*
X477857Y709987D01*
X478345Y709661D01*
X478921Y709547D01*
X479497Y709661D01*
X479986Y709987D01*
X480312Y710476D01*
X480427Y711052D01*
X480312Y711628D01*
X479986Y712116D01*
X479497Y712443D01*
X478921Y712557D01*
D02*
G37*
G36*
X468815Y712223D02*
X468239Y712109D01*
X467751Y711782D01*
X467424Y711294D01*
X467310Y710718D01*
X467424Y710142D01*
X467751Y709653D01*
X468239Y709327D01*
X468815Y709212D01*
X469391Y709327D01*
X469879Y709653D01*
X470206Y710142D01*
X470320Y710718D01*
X470206Y711294D01*
X469879Y711782D01*
X469391Y712109D01*
X468815Y712223D01*
D02*
G37*
G36*
X486610Y711059D02*
X486034Y710944D01*
X485546Y710618D01*
X485220Y710129D01*
X485105Y709553D01*
X485220Y708977D01*
X485546Y708489D01*
X486034Y708163D01*
X486610Y708048D01*
X487186Y708163D01*
X487675Y708489D01*
X488001Y708977D01*
X488116Y709553D01*
X488001Y710129D01*
X487675Y710618D01*
X487186Y710944D01*
X486610Y711059D01*
D02*
G37*
G36*
X520703Y705839D02*
X520127Y705725D01*
X519639Y705398D01*
X519312Y704910D01*
X519198Y704334D01*
X519312Y703758D01*
X519639Y703270D01*
X520127Y702943D01*
X520703Y702829D01*
X521279Y702943D01*
X521768Y703270D01*
X522094Y703758D01*
X522208Y704334D01*
X522094Y704910D01*
X521768Y705398D01*
X521279Y705725D01*
X520703Y705839D01*
D02*
G37*
G36*
X530656Y705825D02*
X530080Y705711D01*
X529591Y705384D01*
X529265Y704896D01*
X529150Y704320D01*
X529265Y703744D01*
X529591Y703255D01*
X530080Y702929D01*
X530656Y702814D01*
X531232Y702929D01*
X531720Y703255D01*
X532046Y703744D01*
X532161Y704320D01*
X532046Y704896D01*
X531720Y705384D01*
X531232Y705711D01*
X530656Y705825D01*
D02*
G37*
G36*
X525445Y705799D02*
X524869Y705685D01*
X524381Y705359D01*
X524055Y704870D01*
X523940Y704294D01*
X524055Y703718D01*
X524381Y703230D01*
X524869Y702903D01*
X525445Y702789D01*
X526021Y702903D01*
X526510Y703230D01*
X526836Y703718D01*
X526951Y704294D01*
X526836Y704870D01*
X526510Y705359D01*
X526021Y705685D01*
X525445Y705799D01*
D02*
G37*
G36*
X512595Y705941D02*
X512018Y705826D01*
X511530Y705500D01*
X511204Y705011D01*
X511089Y704435D01*
X511204Y703859D01*
X511530Y703371D01*
X512018Y703045D01*
X512595Y702930D01*
X513171Y703045D01*
X513375Y703181D01*
X513720Y703354D01*
X514558Y703123D01*
X514558Y703122D01*
X514653Y703059D01*
X515046Y702796D01*
X515622Y702681D01*
X516198Y702796D01*
X516687Y703122D01*
X517013Y703611D01*
X517128Y704187D01*
X517013Y704763D01*
X516687Y705251D01*
X516198Y705578D01*
X515622Y705692D01*
X515046Y705578D01*
X514842Y705441D01*
X514497Y705268D01*
X513659Y705500D01*
X513659Y705500D01*
X513564Y705563D01*
X513171Y705826D01*
X512595Y705941D01*
D02*
G37*
G36*
X528156Y702477D02*
X527579Y702362D01*
X527091Y702036D01*
X526765Y701547D01*
X526650Y700971D01*
X526765Y700395D01*
X527091Y699907D01*
X527579Y699581D01*
X528156Y699466D01*
X528732Y699581D01*
X529220Y699907D01*
X529546Y700395D01*
X529661Y700971D01*
X529546Y701547D01*
X529220Y702036D01*
X528732Y702362D01*
X528156Y702477D01*
D02*
G37*
G36*
X523224Y702397D02*
X522648Y702283D01*
X522160Y701957D01*
X521834Y701468D01*
X521719Y700892D01*
X521834Y700316D01*
X522160Y699828D01*
X522648Y699501D01*
X523224Y699387D01*
X523801Y699501D01*
X524289Y699828D01*
X524615Y700316D01*
X524730Y700892D01*
X524615Y701468D01*
X524289Y701957D01*
X523801Y702283D01*
X523224Y702397D01*
D02*
G37*
G36*
X518106D02*
X517530Y702283D01*
X517042Y701957D01*
X516716Y701468D01*
X516601Y700892D01*
X516716Y700316D01*
X517042Y699828D01*
X517530Y699501D01*
X518106Y699387D01*
X518682Y699501D01*
X519171Y699828D01*
X519497Y700316D01*
X519612Y700892D01*
X519497Y701468D01*
X519171Y701957D01*
X518682Y702283D01*
X518106Y702397D01*
D02*
G37*
G36*
X534433Y703896D02*
X533857Y703781D01*
X533369Y703455D01*
X533042Y702966D01*
X532928Y702390D01*
X533042Y701814D01*
X533103Y701724D01*
X533287Y701013D01*
X533103Y700301D01*
X533042Y700211D01*
X532928Y699635D01*
X533042Y699058D01*
X533369Y698570D01*
X533857Y698244D01*
X534433Y698129D01*
X535009Y698244D01*
X535498Y698570D01*
X535824Y699058D01*
X535938Y699635D01*
X535824Y700211D01*
X535763Y700301D01*
X535579Y701013D01*
X535763Y701724D01*
X535824Y701814D01*
X535938Y702390D01*
X535824Y702966D01*
X535498Y703455D01*
X535009Y703781D01*
X534433Y703896D01*
D02*
G37*
G36*
X478134Y700352D02*
X477558Y700238D01*
X477070Y699912D01*
X476743Y699423D01*
X476629Y698847D01*
X476743Y698271D01*
X477070Y697783D01*
X477558Y697457D01*
X478134Y697342D01*
X478710Y697457D01*
X479198Y697783D01*
X479525Y698271D01*
X479639Y698847D01*
X479525Y699423D01*
X479198Y699912D01*
X478710Y700238D01*
X478134Y700352D01*
D02*
G37*
G36*
X482280Y700035D02*
X481704Y699921D01*
X481215Y699594D01*
X480889Y699106D01*
X480774Y698530D01*
X480889Y697954D01*
X481215Y697466D01*
X481704Y697139D01*
X482280Y697025D01*
X482856Y697139D01*
X483344Y697466D01*
X483670Y697954D01*
X483785Y698530D01*
X483670Y699106D01*
X483344Y699594D01*
X482856Y699921D01*
X482280Y700035D01*
D02*
G37*
G36*
X489520Y699189D02*
X488944Y699074D01*
X488455Y698748D01*
X488129Y698259D01*
X488014Y697683D01*
X488129Y697107D01*
X488455Y696619D01*
X488944Y696293D01*
X489520Y696178D01*
X490096Y696293D01*
X490584Y696619D01*
X490910Y697107D01*
X491025Y697683D01*
X490910Y698259D01*
X490584Y698748D01*
X490096Y699074D01*
X489520Y699189D01*
D02*
G37*
G36*
X539858Y699461D02*
X538868Y699264D01*
X538027Y698702D01*
X537466Y697862D01*
X537269Y696872D01*
X537466Y695881D01*
X538027Y695041D01*
X538868Y694480D01*
X539858Y694282D01*
X540849Y694480D01*
X541689Y695041D01*
X542250Y695881D01*
X542447Y696872D01*
X542250Y697862D01*
X541689Y698702D01*
X540849Y699264D01*
X539858Y699461D01*
D02*
G37*
G36*
X508953D02*
X507962Y699264D01*
X507122Y698702D01*
X506561Y697862D01*
X506364Y696872D01*
X506561Y695881D01*
X507122Y695041D01*
X507962Y694480D01*
X508953Y694282D01*
X509944Y694480D01*
X510784Y695041D01*
X511345Y695881D01*
X511542Y696872D01*
X511345Y697862D01*
X510784Y698702D01*
X509944Y699264D01*
X508953Y699461D01*
D02*
G37*
G36*
X478736Y690586D02*
X478160Y690472D01*
X477672Y690145D01*
X477346Y689657D01*
X477231Y689081D01*
X477346Y688505D01*
X477672Y688017D01*
X478160Y687690D01*
X478736Y687576D01*
X479312Y687690D01*
X479801Y688017D01*
X480127Y688505D01*
X480242Y689081D01*
X480127Y689657D01*
X479801Y690145D01*
X479312Y690472D01*
X478736Y690586D01*
D02*
G37*
G36*
X518500Y686256D02*
X517924Y686141D01*
X517436Y685815D01*
X517109Y685326D01*
X516995Y684750D01*
X517109Y684174D01*
X517436Y683686D01*
X517924Y683360D01*
X518500Y683245D01*
X519076Y683360D01*
X519564Y683686D01*
X519891Y684174D01*
X520005Y684750D01*
X519891Y685326D01*
X519564Y685815D01*
X519076Y686141D01*
X518500Y686256D01*
D02*
G37*
G36*
X490732Y685785D02*
X490156Y685671D01*
X489668Y685345D01*
X489342Y684856D01*
X489227Y684280D01*
X489342Y683704D01*
X489668Y683216D01*
X490156Y682890D01*
X490732Y682775D01*
X491308Y682890D01*
X491797Y683216D01*
X492123Y683704D01*
X492238Y684280D01*
X492123Y684856D01*
X491797Y685345D01*
X491308Y685671D01*
X490732Y685785D01*
D02*
G37*
G36*
X507934Y685630D02*
X507358Y685515D01*
X506870Y685189D01*
X506543Y684701D01*
X506429Y684125D01*
X506543Y683549D01*
X506870Y683060D01*
X507358Y682734D01*
X507934Y682619D01*
X508510Y682734D01*
X508998Y683060D01*
X509325Y683549D01*
X509439Y684125D01*
X509325Y684701D01*
X508998Y685189D01*
X508510Y685515D01*
X507934Y685630D01*
D02*
G37*
G36*
X474728Y682211D02*
X474152Y682097D01*
X473664Y681771D01*
X473338Y681282D01*
X473223Y680706D01*
X473338Y680130D01*
X473664Y679642D01*
X474152Y679315D01*
X474728Y679201D01*
X475304Y679315D01*
X475793Y679642D01*
X476119Y680130D01*
X476234Y680706D01*
X476119Y681282D01*
X475793Y681771D01*
X475304Y682097D01*
X474728Y682211D01*
D02*
G37*
G36*
X530138Y677794D02*
X529562Y677679D01*
X529074Y677353D01*
X528748Y676864D01*
X528633Y676288D01*
X528748Y675712D01*
X529074Y675224D01*
X529562Y674898D01*
X530138Y674783D01*
X530715Y674898D01*
X531203Y675224D01*
X531529Y675712D01*
X531644Y676288D01*
X531529Y676864D01*
X531203Y677353D01*
X530715Y677679D01*
X530138Y677794D01*
D02*
G37*
G36*
X507870Y677594D02*
X507294Y677480D01*
X506806Y677153D01*
X506479Y676665D01*
X506365Y676089D01*
X506479Y675513D01*
X506806Y675025D01*
X507294Y674698D01*
X507870Y674584D01*
X508446Y674698D01*
X508934Y675025D01*
X509261Y675513D01*
X509375Y676089D01*
X509261Y676665D01*
X508934Y677153D01*
X508446Y677480D01*
X507870Y677594D01*
D02*
G37*
G36*
X533461Y675626D02*
X532885Y675511D01*
X532396Y675185D01*
X532070Y674696D01*
X531955Y674120D01*
X532070Y673544D01*
X532396Y673056D01*
X532885Y672730D01*
X533461Y672615D01*
X534037Y672730D01*
X534525Y673056D01*
X534851Y673544D01*
X534966Y674120D01*
X534851Y674696D01*
X534525Y675185D01*
X534037Y675511D01*
X533461Y675626D01*
D02*
G37*
G36*
X486217Y673264D02*
X485640Y673149D01*
X485152Y672823D01*
X484826Y672334D01*
X484711Y671758D01*
X484826Y671182D01*
X485152Y670694D01*
X485640Y670367D01*
X486217Y670253D01*
X486793Y670367D01*
X487281Y670694D01*
X487607Y671182D01*
X487722Y671758D01*
X487607Y672334D01*
X487281Y672823D01*
X486793Y673149D01*
X486217Y673264D01*
D02*
G37*
G36*
X482465Y671612D02*
X481889Y671498D01*
X481400Y671171D01*
X481074Y670683D01*
X480959Y670107D01*
X481074Y669531D01*
X481400Y669043D01*
X481889Y668716D01*
X482465Y668602D01*
X483041Y668716D01*
X483529Y669043D01*
X483855Y669531D01*
X483970Y670107D01*
X483855Y670683D01*
X483529Y671171D01*
X483041Y671498D01*
X482465Y671612D01*
D02*
G37*
G36*
X527839Y667380D02*
X527263Y667265D01*
X526774Y666939D01*
X526448Y666451D01*
X526333Y665875D01*
X526448Y665299D01*
X526774Y664810D01*
X527263Y664484D01*
X527839Y664369D01*
X528415Y664484D01*
X528903Y664810D01*
X529229Y665299D01*
X529344Y665875D01*
X529229Y666451D01*
X528903Y666939D01*
X528415Y667265D01*
X527839Y667380D01*
D02*
G37*
G36*
X490770Y666063D02*
X490194Y665948D01*
X489706Y665622D01*
X489379Y665134D01*
X489265Y664558D01*
X489379Y663981D01*
X489706Y663493D01*
X490194Y663167D01*
X490770Y663052D01*
X491346Y663167D01*
X491834Y663493D01*
X492161Y663981D01*
X492275Y664558D01*
X492161Y665134D01*
X491834Y665622D01*
X491346Y665948D01*
X490770Y666063D01*
D02*
G37*
G36*
X469681Y664208D02*
X469105Y664094D01*
X468617Y663767D01*
X468290Y663279D01*
X468176Y662703D01*
X468290Y662127D01*
X468617Y661639D01*
X469105Y661312D01*
X469681Y661198D01*
X470257Y661312D01*
X470746Y661639D01*
X471072Y662127D01*
X471186Y662703D01*
X471072Y663279D01*
X470746Y663767D01*
X470257Y664094D01*
X469681Y664208D01*
D02*
G37*
G36*
X474421Y660681D02*
X473845Y660566D01*
X473357Y660240D01*
X473031Y659752D01*
X472916Y659175D01*
X473031Y658600D01*
X473357Y658111D01*
X473845Y657785D01*
X474421Y657670D01*
X474997Y657785D01*
X475486Y658111D01*
X475812Y658600D01*
X475927Y659175D01*
X475812Y659752D01*
X475486Y660240D01*
X474997Y660566D01*
X474421Y660681D01*
D02*
G37*
G36*
X481099Y659484D02*
X480522Y659369D01*
X480034Y659043D01*
X479708Y658555D01*
X479593Y657979D01*
X479708Y657403D01*
X480034Y656914D01*
X480522Y656588D01*
X481099Y656473D01*
X481674Y656588D01*
X482163Y656914D01*
X482489Y657403D01*
X482604Y657979D01*
X482489Y658555D01*
X482163Y659043D01*
X481674Y659369D01*
X481099Y659484D01*
D02*
G37*
G36*
X475980Y653579D02*
X475404Y653464D01*
X474916Y653138D01*
X474590Y652649D01*
X474475Y652073D01*
X474590Y651497D01*
X474916Y651009D01*
X475404Y650682D01*
X475980Y650568D01*
X476556Y650682D01*
X477045Y651009D01*
X477371Y651497D01*
X477486Y652073D01*
X477371Y652649D01*
X477045Y653138D01*
X476556Y653464D01*
X475980Y653579D01*
D02*
G37*
G36*
X532858Y651140D02*
X532282Y651025D01*
X531794Y650699D01*
X531468Y650211D01*
X531353Y649635D01*
X531468Y649058D01*
X531794Y648570D01*
X532282Y648244D01*
X532858Y648129D01*
X533434Y648244D01*
X533923Y648570D01*
X534249Y649058D01*
X534364Y649635D01*
X534249Y650211D01*
X533923Y650699D01*
X533434Y651025D01*
X532858Y651140D01*
D02*
G37*
G36*
X536217Y648854D02*
X535640Y648739D01*
X535152Y648413D01*
X534826Y647925D01*
X534711Y647349D01*
X534826Y646773D01*
X535152Y646284D01*
X535640Y645958D01*
X536217Y645844D01*
X536793Y645958D01*
X537281Y646284D01*
X537607Y646773D01*
X537722Y647349D01*
X537607Y647925D01*
X537281Y648413D01*
X536793Y648739D01*
X536217Y648854D01*
D02*
G37*
G36*
X486402Y645234D02*
X485826Y645120D01*
X485337Y644794D01*
X485011Y644305D01*
X484896Y643729D01*
X485011Y643153D01*
X485337Y642665D01*
X485826Y642338D01*
X486402Y642224D01*
X486978Y642338D01*
X487466Y642665D01*
X487792Y643153D01*
X487907Y643729D01*
X487792Y644305D01*
X487466Y644794D01*
X486978Y645120D01*
X486402Y645234D01*
D02*
G37*
G36*
X483449Y642380D02*
X482873Y642265D01*
X482384Y641939D01*
X482058Y641451D01*
X481944Y640875D01*
X482058Y640299D01*
X482384Y639810D01*
X482873Y639484D01*
X483449Y639369D01*
X484025Y639484D01*
X484513Y639810D01*
X484840Y640299D01*
X484954Y640875D01*
X484840Y641451D01*
X484513Y641939D01*
X484025Y642265D01*
X483449Y642380D01*
D02*
G37*
G36*
X468685Y638935D02*
X468109Y638821D01*
X467621Y638494D01*
X467294Y638006D01*
X467180Y637430D01*
X467294Y636854D01*
X467621Y636366D01*
X468109Y636039D01*
X468685Y635925D01*
X469261Y636039D01*
X469749Y636366D01*
X470076Y636854D01*
X470190Y637430D01*
X470076Y638006D01*
X469749Y638494D01*
X469261Y638821D01*
X468685Y638935D01*
D02*
G37*
G36*
X490833Y638185D02*
X490257Y638071D01*
X489768Y637745D01*
X489442Y637256D01*
X489327Y636680D01*
X489442Y636104D01*
X489768Y635616D01*
X490257Y635289D01*
X490833Y635175D01*
X491409Y635289D01*
X491897Y635616D01*
X492224Y636104D01*
X492338Y636680D01*
X492224Y637256D01*
X491897Y637745D01*
X491409Y638071D01*
X490833Y638185D01*
D02*
G37*
G36*
X537398Y636649D02*
X536822Y636535D01*
X536333Y636208D01*
X536007Y635720D01*
X535892Y635144D01*
X536007Y634568D01*
X536333Y634080D01*
X536822Y633753D01*
X537398Y633639D01*
X537974Y633753D01*
X538462Y634080D01*
X538788Y634568D01*
X538903Y635144D01*
X538788Y635720D01*
X538462Y636208D01*
X537974Y636535D01*
X537398Y636649D01*
D02*
G37*
G36*
X526953Y633423D02*
X526377Y633309D01*
X526014Y633067D01*
X525888Y632982D01*
X524868D01*
X524742Y633067D01*
X524379Y633309D01*
X523803Y633423D01*
X523227Y633309D01*
X522739Y632982D01*
X522412Y632494D01*
X522298Y631918D01*
X522412Y631342D01*
X522739Y630854D01*
X523227Y630527D01*
X523803Y630413D01*
X524379Y630527D01*
X524742Y630770D01*
X524868Y630854D01*
X525888D01*
X526014Y630770D01*
X526377Y630527D01*
X526953Y630413D01*
X527529Y630527D01*
X528017Y630854D01*
X528343Y631342D01*
X528458Y631918D01*
X528343Y632494D01*
X528017Y632982D01*
X527529Y633309D01*
X526953Y633423D01*
D02*
G37*
G36*
X483493Y633453D02*
X482917Y633338D01*
X482428Y633012D01*
X482102Y632524D01*
X481987Y631948D01*
X482102Y631372D01*
X482428Y630883D01*
X482917Y630557D01*
X483493Y630442D01*
X484069Y630557D01*
X484557Y630883D01*
X484883Y631372D01*
X484998Y631948D01*
X484883Y632524D01*
X484557Y633012D01*
X484069Y633338D01*
X483493Y633453D01*
D02*
G37*
G36*
X519473Y633423D02*
X518896Y633309D01*
X518408Y632982D01*
X518082Y632494D01*
X517967Y631918D01*
X518082Y631342D01*
X518408Y630854D01*
X518896Y630527D01*
X519473Y630413D01*
X520049Y630527D01*
X520537Y630854D01*
X520863Y631342D01*
X520978Y631918D01*
X520863Y632494D01*
X520537Y632982D01*
X520049Y633309D01*
X519473Y633423D01*
D02*
G37*
G36*
X528232Y626534D02*
X527656Y626419D01*
X527168Y626093D01*
X526842Y625604D01*
X526727Y625028D01*
X526842Y624452D01*
X527168Y623964D01*
X527656Y623638D01*
X528232Y623523D01*
X528808Y623638D01*
X529297Y623964D01*
X529623Y624452D01*
X529738Y625028D01*
X529623Y625604D01*
X529297Y626093D01*
X528808Y626419D01*
X528232Y626534D01*
D02*
G37*
G36*
X481319Y626337D02*
X480743Y626222D01*
X480254Y625896D01*
X479928Y625408D01*
X479813Y624831D01*
X479928Y624255D01*
X480254Y623767D01*
X480743Y623441D01*
X481319Y623326D01*
X481895Y623441D01*
X482383Y623767D01*
X482709Y624255D01*
X482824Y624831D01*
X482709Y625408D01*
X482383Y625896D01*
X481895Y626222D01*
X481319Y626337D01*
D02*
G37*
G36*
X522831Y625626D02*
X522255Y625511D01*
X521766Y625185D01*
X521440Y624696D01*
X521325Y624120D01*
X521440Y623544D01*
X521766Y623056D01*
X522255Y622730D01*
X522831Y622615D01*
X523407Y622730D01*
X523895Y623056D01*
X524222Y623544D01*
X524336Y624120D01*
X524222Y624696D01*
X523895Y625185D01*
X523407Y625511D01*
X522831Y625626D01*
D02*
G37*
G36*
X518685Y625549D02*
X518109Y625435D01*
X517621Y625108D01*
X517294Y624620D01*
X517180Y624044D01*
X517294Y623468D01*
X517621Y622980D01*
X518109Y622653D01*
X518685Y622539D01*
X519261Y622653D01*
X519749Y622980D01*
X520076Y623468D01*
X520190Y624044D01*
X520076Y624620D01*
X519749Y625108D01*
X519261Y625435D01*
X518685Y625549D01*
D02*
G37*
G36*
X539366Y624838D02*
X538790Y624724D01*
X538302Y624397D01*
X537976Y623909D01*
X537861Y623333D01*
X537976Y622757D01*
X538302Y622269D01*
X538790Y621942D01*
X539366Y621828D01*
X539942Y621942D01*
X540431Y622269D01*
X540757Y622757D01*
X540871Y623333D01*
X540757Y623909D01*
X540431Y624397D01*
X539942Y624724D01*
X539366Y624838D01*
D02*
G37*
G36*
X542594Y620114D02*
X542019Y619999D01*
X541530Y619673D01*
X541204Y619185D01*
X541089Y618609D01*
X541204Y618033D01*
X541530Y617544D01*
X542019Y617218D01*
X542594Y617103D01*
X543171Y617218D01*
X543659Y617544D01*
X543985Y618033D01*
X544100Y618609D01*
X543985Y619185D01*
X543659Y619673D01*
X543171Y619999D01*
X542594Y620114D01*
D02*
G37*
G36*
X536008Y618463D02*
X535432Y618348D01*
X534943Y618022D01*
X534617Y617533D01*
X534503Y616957D01*
X534617Y616381D01*
X534943Y615893D01*
X535432Y615567D01*
X536008Y615452D01*
X536584Y615567D01*
X537072Y615893D01*
X537399Y616381D01*
X537513Y616957D01*
X537399Y617533D01*
X537072Y618022D01*
X536584Y618348D01*
X536008Y618463D01*
D02*
G37*
G36*
X533252Y615313D02*
X532676Y615199D01*
X532188Y614872D01*
X531861Y614384D01*
X531747Y613808D01*
X531861Y613232D01*
X532188Y612743D01*
X532676Y612417D01*
X533252Y612302D01*
X533828Y612417D01*
X534316Y612743D01*
X534643Y613232D01*
X534757Y613808D01*
X534643Y614384D01*
X534316Y614872D01*
X533828Y615199D01*
X533252Y615313D01*
D02*
G37*
G36*
X528134D02*
X527558Y615199D01*
X527070Y614872D01*
X526743Y614384D01*
X526629Y613808D01*
X526743Y613232D01*
X527070Y612743D01*
X527558Y612417D01*
X528134Y612302D01*
X528710Y612417D01*
X529198Y612743D01*
X529525Y613232D01*
X529639Y613808D01*
X529525Y614384D01*
X529198Y614872D01*
X528710Y615199D01*
X528134Y615313D01*
D02*
G37*
G36*
X511787Y614885D02*
X511211Y614770D01*
X510723Y614444D01*
X510396Y613956D01*
X510282Y613380D01*
X510396Y612804D01*
X510723Y612315D01*
X511211Y611989D01*
X511787Y611874D01*
X512363Y611989D01*
X512852Y612315D01*
X513178Y612804D01*
X513293Y613380D01*
X513178Y613956D01*
X512852Y614444D01*
X512363Y614770D01*
X511787Y614885D01*
D02*
G37*
G36*
X537189Y614526D02*
X536613Y614411D01*
X536125Y614085D01*
X535798Y613596D01*
X535684Y613020D01*
X535798Y612444D01*
X536125Y611956D01*
X536613Y611630D01*
X537189Y611515D01*
X537765Y611630D01*
X538253Y611956D01*
X538580Y612444D01*
X538694Y613020D01*
X538580Y613596D01*
X538253Y614085D01*
X537765Y614411D01*
X537189Y614526D01*
D02*
G37*
G36*
X530705Y611846D02*
X530129Y611732D01*
X529640Y611405D01*
X529314Y610917D01*
X529200Y610341D01*
X529314Y609765D01*
X529640Y609276D01*
X530129Y608950D01*
X530705Y608836D01*
X531281Y608950D01*
X531769Y609276D01*
X532095Y609765D01*
X532210Y610341D01*
X532095Y610917D01*
X531769Y611405D01*
X531281Y611732D01*
X530705Y611846D01*
D02*
G37*
G36*
X495457Y594053D02*
X494881Y593939D01*
X494392Y593612D01*
X494066Y593124D01*
X493951Y592548D01*
X494066Y591972D01*
X494392Y591484D01*
X494881Y591157D01*
X495457Y591043D01*
X496033Y591157D01*
X496521Y591484D01*
X496847Y591972D01*
X496962Y592548D01*
X496847Y593124D01*
X496521Y593612D01*
X496033Y593939D01*
X495457Y594053D01*
D02*
G37*
G36*
X489823Y594638D02*
X489108Y594544D01*
X488442Y594268D01*
X487870Y593829D01*
X487431Y593257D01*
X487155Y592591D01*
X487061Y591876D01*
X487097Y591602D01*
X486792Y591280D01*
X486253Y590905D01*
X486231Y590899D01*
X485823Y590980D01*
X485415Y590899D01*
X485393Y590905D01*
X484854Y591280D01*
X484549Y591602D01*
X484585Y591876D01*
X484491Y592591D01*
X484215Y593257D01*
X483776Y593829D01*
X483204Y594268D01*
X482538Y594544D01*
X481823Y594638D01*
X481108Y594544D01*
X480442Y594268D01*
X479870Y593829D01*
X479431Y593257D01*
X479155Y592591D01*
X479061Y591876D01*
X479155Y591161D01*
X479431Y590495D01*
X479870Y589923D01*
X480442Y589485D01*
X481108Y589209D01*
X481823Y589115D01*
X482538Y589209D01*
X483204Y589485D01*
X483351Y589598D01*
X483540Y589574D01*
X484386Y589132D01*
X484432Y588899D01*
X484759Y588410D01*
X485247Y588084D01*
X485823Y587969D01*
X486399Y588084D01*
X486887Y588410D01*
X487214Y588899D01*
X487260Y589132D01*
X488106Y589574D01*
X488295Y589598D01*
X488442Y589485D01*
X489108Y589209D01*
X489823Y589115D01*
X490538Y589209D01*
X491204Y589485D01*
X491776Y589923D01*
X492215Y590495D01*
X492491Y591161D01*
X492585Y591876D01*
X492491Y592591D01*
X492215Y593257D01*
X491776Y593829D01*
X491204Y594268D01*
X490538Y594544D01*
X489823Y594638D01*
D02*
G37*
G36*
X495823Y589886D02*
X494397Y589698D01*
X493068Y589148D01*
X491927Y588272D01*
X491051Y587131D01*
X490501Y585802D01*
X490313Y584376D01*
X490501Y582950D01*
X491051Y581622D01*
X491927Y580480D01*
X493068Y579605D01*
X494397Y579054D01*
X495823Y578867D01*
X497249Y579054D01*
X498578Y579605D01*
X499719Y580480D01*
X500594Y581622D01*
X501145Y582950D01*
X501333Y584376D01*
X501145Y585802D01*
X500594Y587131D01*
X499719Y588272D01*
X498578Y589148D01*
X497249Y589698D01*
X495823Y589886D01*
D02*
G37*
G36*
X475823D02*
X474397Y589698D01*
X473068Y589148D01*
X471927Y588272D01*
X471051Y587131D01*
X470501Y585802D01*
X470313Y584376D01*
X470501Y582950D01*
X471051Y581622D01*
X471927Y580480D01*
X473068Y579605D01*
X474397Y579054D01*
X475823Y578867D01*
X477249Y579054D01*
X478578Y579605D01*
X479719Y580480D01*
X480594Y581622D01*
X481145Y582950D01*
X481333Y584376D01*
X481145Y585802D01*
X480594Y587131D01*
X479719Y588272D01*
X478578Y589148D01*
X477249Y589698D01*
X475823Y589886D01*
D02*
G37*
G36*
X519473Y581258D02*
X518896Y581143D01*
X518408Y580817D01*
X518082Y580329D01*
X517967Y579753D01*
X518082Y579177D01*
X518408Y578688D01*
X518896Y578362D01*
X519473Y578247D01*
X520049Y578362D01*
X520537Y578688D01*
X520863Y579177D01*
X520978Y579753D01*
X520863Y580329D01*
X520537Y580817D01*
X520049Y581143D01*
X519473Y581258D01*
D02*
G37*
G36*
X502358Y577594D02*
X501782Y577480D01*
X501294Y577153D01*
X500968Y576665D01*
X500853Y576089D01*
X500968Y575513D01*
X501294Y575025D01*
X501782Y574698D01*
X502358Y574584D01*
X502934Y574698D01*
X503423Y575025D01*
X503749Y575513D01*
X503864Y576089D01*
X503749Y576665D01*
X503423Y577153D01*
X502934Y577480D01*
X502358Y577594D01*
D02*
G37*
G36*
X517898Y577518D02*
X517322Y577403D01*
X516833Y577077D01*
X516507Y576589D01*
X516392Y576013D01*
X516507Y575436D01*
X516833Y574948D01*
X517322Y574622D01*
X517898Y574507D01*
X518474Y574622D01*
X518962Y574948D01*
X519288Y575436D01*
X519403Y576013D01*
X519288Y576589D01*
X518962Y577077D01*
X518474Y577403D01*
X517898Y577518D01*
D02*
G37*
G36*
X481055Y576422D02*
X480479Y576307D01*
X479990Y575981D01*
X479664Y575493D01*
X479550Y574917D01*
X479664Y574341D01*
X479990Y573852D01*
X480479Y573526D01*
X481055Y573411D01*
X481631Y573526D01*
X482119Y573852D01*
X482446Y574341D01*
X482560Y574917D01*
X482446Y575493D01*
X482119Y575981D01*
X481631Y576307D01*
X481055Y576422D01*
D02*
G37*
G36*
X476859Y575232D02*
X476283Y575117D01*
X475795Y574791D01*
X475468Y574303D01*
X475354Y573727D01*
X475468Y573151D01*
X475795Y572662D01*
X476283Y572336D01*
X476859Y572221D01*
X477435Y572336D01*
X477924Y572662D01*
X478250Y573151D01*
X478365Y573727D01*
X478250Y574303D01*
X477924Y574791D01*
X477435Y575117D01*
X476859Y575232D01*
D02*
G37*
G36*
X515929Y573876D02*
X515353Y573762D01*
X514865Y573435D01*
X514538Y572947D01*
X514424Y572371D01*
X514538Y571795D01*
X514865Y571306D01*
X515353Y570980D01*
X515929Y570865D01*
X516505Y570980D01*
X516994Y571306D01*
X517320Y571795D01*
X517435Y572371D01*
X517320Y572947D01*
X516994Y573435D01*
X516505Y573762D01*
X515929Y573876D01*
D02*
G37*
G36*
X545457Y573581D02*
X544881Y573466D01*
X544392Y573140D01*
X544066Y572652D01*
X543951Y572076D01*
X544066Y571499D01*
X544392Y571011D01*
X544881Y570685D01*
X545457Y570570D01*
X546033Y570685D01*
X546521Y571011D01*
X546847Y571499D01*
X546962Y572076D01*
X546847Y572652D01*
X546521Y573140D01*
X546033Y573466D01*
X545457Y573581D01*
D02*
G37*
G36*
X492122Y571689D02*
X491546Y571574D01*
X491058Y571248D01*
X490731Y570759D01*
X490617Y570183D01*
X490731Y569607D01*
X491058Y569119D01*
X491546Y568793D01*
X492122Y568678D01*
X492698Y568793D01*
X493187Y569119D01*
X493513Y569607D01*
X493627Y570183D01*
X493513Y570759D01*
X493187Y571248D01*
X492698Y571574D01*
X492122Y571689D01*
D02*
G37*
G36*
X549787Y569644D02*
X549211Y569529D01*
X548723Y569203D01*
X548397Y568715D01*
X548282Y568139D01*
X548397Y567562D01*
X548723Y567074D01*
X549211Y566748D01*
X549787Y566633D01*
X550363Y566748D01*
X550852Y567074D01*
X551178Y567562D01*
X551293Y568139D01*
X551178Y568715D01*
X550852Y569203D01*
X550363Y569529D01*
X549787Y569644D01*
D02*
G37*
G36*
X515929D02*
X515353Y569529D01*
X514865Y569203D01*
X514538Y568715D01*
X514424Y568139D01*
X514538Y567562D01*
X514865Y567074D01*
X515353Y566748D01*
X515929Y566633D01*
X516505Y566748D01*
X516994Y567074D01*
X517320Y567562D01*
X517435Y568139D01*
X517320Y568715D01*
X516994Y569203D01*
X516505Y569529D01*
X515929Y569644D01*
D02*
G37*
G36*
X526559Y568463D02*
X525983Y568348D01*
X525495Y568022D01*
X525168Y567533D01*
X525054Y566957D01*
X525168Y566381D01*
X525495Y565893D01*
X525983Y565567D01*
X526559Y565452D01*
X527135Y565567D01*
X527624Y565893D01*
X527950Y566381D01*
X528064Y566957D01*
X527950Y567533D01*
X527624Y568022D01*
X527135Y568348D01*
X526559Y568463D01*
D02*
G37*
G36*
X566717Y566888D02*
X566141Y566773D01*
X565652Y566447D01*
X565326Y565959D01*
X565211Y565383D01*
X565326Y564807D01*
X565652Y564318D01*
X566141Y563992D01*
X566717Y563877D01*
X567293Y563992D01*
X567781Y564318D01*
X568107Y564807D01*
X568222Y565383D01*
X568107Y565959D01*
X567781Y566447D01*
X567293Y566773D01*
X566717Y566888D01*
D02*
G37*
G36*
X570184Y564341D02*
X569607Y564226D01*
X569119Y563900D01*
X568793Y563411D01*
X568678Y562835D01*
X568793Y562259D01*
X569119Y561771D01*
X569607Y561445D01*
X570184Y561330D01*
X570760Y561445D01*
X571248Y561771D01*
X571574Y562259D01*
X571689Y562835D01*
X571574Y563411D01*
X571248Y563900D01*
X570760Y564226D01*
X570184Y564341D01*
D02*
G37*
G36*
X548606Y562557D02*
X548030Y562443D01*
X547542Y562116D01*
X547216Y561628D01*
X547101Y561052D01*
X547216Y560476D01*
X547542Y559987D01*
X548030Y559661D01*
X548606Y559547D01*
X549182Y559661D01*
X549671Y559987D01*
X549997Y560476D01*
X550112Y561052D01*
X549997Y561628D01*
X549671Y562116D01*
X549182Y562443D01*
X548606Y562557D01*
D02*
G37*
G36*
X541126Y562163D02*
X540550Y562049D01*
X540062Y561723D01*
X539735Y561234D01*
X539621Y560658D01*
X539735Y560082D01*
X540062Y559594D01*
X540550Y559268D01*
X541126Y559153D01*
X541702Y559268D01*
X542190Y559594D01*
X542517Y560082D01*
X542631Y560658D01*
X542517Y561234D01*
X542190Y561723D01*
X541702Y562049D01*
X541126Y562163D01*
D02*
G37*
G36*
X485823Y564638D02*
X485108Y564544D01*
X484442Y564268D01*
X483870Y563829D01*
X483431Y563257D01*
X483155Y562591D01*
X483061Y561876D01*
X483155Y561162D01*
X483431Y560495D01*
X483870Y559923D01*
X484442Y559484D01*
X485108Y559209D01*
X485823Y559115D01*
X486538Y559209D01*
X487204Y559484D01*
X487776Y559923D01*
X488215Y560495D01*
X488491Y561162D01*
X488585Y561876D01*
X488491Y562591D01*
X488215Y563257D01*
X487776Y563829D01*
X487204Y564268D01*
X486538Y564544D01*
X485823Y564638D01*
D02*
G37*
G36*
X577740Y561770D02*
X577164Y561655D01*
X576676Y561329D01*
X576349Y560841D01*
X576235Y560264D01*
X576349Y559689D01*
X576676Y559200D01*
X577164Y558874D01*
X577740Y558759D01*
X578316Y558874D01*
X578805Y559200D01*
X579131Y559689D01*
X579246Y560264D01*
X579131Y560841D01*
X578805Y561329D01*
X578316Y561655D01*
X577740Y561770D01*
D02*
G37*
G36*
X495823Y567386D02*
X494397Y567198D01*
X493068Y566648D01*
X491927Y565772D01*
X491051Y564631D01*
X490501Y563302D01*
X490313Y561876D01*
X490501Y560450D01*
X491051Y559122D01*
X491927Y557980D01*
X493068Y557105D01*
X494397Y556554D01*
X495823Y556367D01*
X497249Y556554D01*
X498578Y557105D01*
X499719Y557980D01*
X500594Y559122D01*
X501145Y560450D01*
X501333Y561876D01*
X501145Y563302D01*
X500594Y564631D01*
X499719Y565772D01*
X498578Y566648D01*
X497249Y567198D01*
X495823Y567386D01*
D02*
G37*
G36*
X475823D02*
X474397Y567198D01*
X473068Y566648D01*
X471927Y565772D01*
X471051Y564631D01*
X470501Y563302D01*
X470313Y561876D01*
X470501Y560450D01*
X471051Y559122D01*
X471927Y557980D01*
X473068Y557105D01*
X474397Y556554D01*
X475823Y556367D01*
X477249Y556554D01*
X478578Y557105D01*
X479719Y557980D01*
X480594Y559122D01*
X481145Y560450D01*
X481333Y561876D01*
X481145Y563302D01*
X480594Y564631D01*
X479719Y565772D01*
X478578Y566648D01*
X477249Y567198D01*
X475823Y567386D01*
D02*
G37*
G36*
X502740Y558325D02*
X502164Y558210D01*
X501676Y557884D01*
X501349Y557396D01*
X501235Y556820D01*
X501349Y556244D01*
X501676Y555755D01*
X502164Y555429D01*
X502740Y555314D01*
X503316Y555429D01*
X503805Y555755D01*
X504131Y556244D01*
X504246Y556820D01*
X504131Y557396D01*
X503805Y557884D01*
X503316Y558210D01*
X502740Y558325D01*
D02*
G37*
G36*
X548606Y558226D02*
X548030Y558112D01*
X547542Y557786D01*
X547216Y557297D01*
X547101Y556721D01*
X547216Y556145D01*
X547542Y555657D01*
X548030Y555331D01*
X548606Y555216D01*
X549182Y555331D01*
X549671Y555657D01*
X549997Y556145D01*
X550112Y556721D01*
X549997Y557297D01*
X549671Y557786D01*
X549182Y558112D01*
X548606Y558226D01*
D02*
G37*
G36*
X544669Y557439D02*
X544093Y557325D01*
X543605Y556998D01*
X543279Y556510D01*
X543164Y555934D01*
X543279Y555358D01*
X543605Y554869D01*
X544093Y554543D01*
X544669Y554428D01*
X545245Y554543D01*
X545734Y554869D01*
X546060Y555358D01*
X546175Y555934D01*
X546060Y556510D01*
X545734Y556998D01*
X545245Y557325D01*
X544669Y557439D01*
D02*
G37*
G36*
X510516Y557242D02*
X509940Y557128D01*
X509451Y556801D01*
X509125Y556313D01*
X509011Y555737D01*
X509125Y555161D01*
X509451Y554672D01*
X509940Y554346D01*
X510516Y554232D01*
X511092Y554346D01*
X511580Y554672D01*
X511906Y555161D01*
X512021Y555737D01*
X511906Y556313D01*
X511580Y556801D01*
X511092Y557128D01*
X510516Y557242D01*
D02*
G37*
G36*
X534433Y555864D02*
X533857Y555750D01*
X533369Y555423D01*
X533042Y554935D01*
X532928Y554359D01*
X533042Y553783D01*
X533369Y553295D01*
X533857Y552968D01*
X534433Y552854D01*
X535009Y552968D01*
X535498Y553295D01*
X535824Y553783D01*
X535938Y554359D01*
X535824Y554935D01*
X535498Y555423D01*
X535009Y555750D01*
X534433Y555864D01*
D02*
G37*
G36*
X566717Y554683D02*
X566141Y554569D01*
X565652Y554242D01*
X565326Y553754D01*
X565211Y553178D01*
X565326Y552602D01*
X565652Y552113D01*
X566141Y551787D01*
X566717Y551673D01*
X567293Y551787D01*
X567781Y552113D01*
X568107Y552602D01*
X568222Y553178D01*
X568107Y553754D01*
X567781Y554242D01*
X567293Y554569D01*
X566717Y554683D01*
D02*
G37*
G36*
X542701Y552715D02*
X542125Y552600D01*
X541636Y552274D01*
X541310Y551785D01*
X541195Y551209D01*
X541310Y550633D01*
X541636Y550145D01*
X542125Y549819D01*
X542701Y549704D01*
X543277Y549819D01*
X543765Y550145D01*
X544092Y550633D01*
X544206Y551209D01*
X544092Y551785D01*
X543765Y552274D01*
X543277Y552600D01*
X542701Y552715D01*
D02*
G37*
G36*
X569079Y551140D02*
X568503Y551025D01*
X568014Y550699D01*
X567688Y550211D01*
X567573Y549635D01*
X567688Y549058D01*
X568014Y548570D01*
X568503Y548244D01*
X569079Y548129D01*
X569655Y548244D01*
X570143Y548570D01*
X570470Y549058D01*
X570584Y549635D01*
X570470Y550211D01*
X570143Y550699D01*
X569655Y551025D01*
X569079Y551140D01*
D02*
G37*
G36*
X479917Y550035D02*
X479341Y549921D01*
X478853Y549594D01*
X478527Y549106D01*
X478412Y548530D01*
X478527Y547954D01*
X478853Y547466D01*
X479341Y547139D01*
X479917Y547025D01*
X480493Y547139D01*
X480982Y547466D01*
X481308Y547954D01*
X481423Y548530D01*
X481308Y549106D01*
X480982Y549594D01*
X480493Y549921D01*
X479917Y550035D01*
D02*
G37*
G36*
X498815Y549641D02*
X498239Y549527D01*
X497751Y549201D01*
X497424Y548712D01*
X497310Y548136D01*
X497424Y547560D01*
X497751Y547072D01*
X498239Y546745D01*
X498815Y546631D01*
X499391Y546745D01*
X499879Y547072D01*
X500206Y547560D01*
X500320Y548136D01*
X500206Y548712D01*
X499879Y549201D01*
X499391Y549527D01*
X498815Y549641D01*
D02*
G37*
G36*
X562780Y548778D02*
X562204Y548663D01*
X561715Y548337D01*
X561389Y547848D01*
X561274Y547272D01*
X561389Y546696D01*
X561715Y546208D01*
X562204Y545882D01*
X562780Y545767D01*
X563356Y545882D01*
X563844Y546208D01*
X564170Y546696D01*
X564285Y547272D01*
X564170Y547848D01*
X563844Y548337D01*
X563356Y548663D01*
X562780Y548778D01*
D02*
G37*
G36*
X557327Y547990D02*
X556751Y547876D01*
X556263Y547549D01*
X555936Y547061D01*
X555822Y546485D01*
X555936Y545909D01*
X556263Y545421D01*
X556751Y545094D01*
X557327Y544980D01*
X557903Y545094D01*
X558392Y545421D01*
X558718Y545909D01*
X558832Y546485D01*
X558718Y547061D01*
X558392Y547549D01*
X557903Y547876D01*
X557327Y547990D01*
D02*
G37*
G36*
X550181Y547203D02*
X549605Y547088D01*
X549117Y546762D01*
X548790Y546274D01*
X548676Y545698D01*
X548790Y545121D01*
X549117Y544633D01*
X549605Y544307D01*
X550181Y544192D01*
X550757Y544307D01*
X551245Y544633D01*
X551572Y545121D01*
X551686Y545698D01*
X551572Y546274D01*
X551245Y546762D01*
X550757Y547088D01*
X550181Y547203D01*
D02*
G37*
G36*
X556874Y543660D02*
X556298Y543545D01*
X555810Y543219D01*
X555483Y542730D01*
X555369Y542154D01*
X555483Y541578D01*
X555810Y541090D01*
X556298Y540764D01*
X556874Y540649D01*
X557450Y540764D01*
X557938Y541090D01*
X558265Y541578D01*
X558379Y542154D01*
X558265Y542730D01*
X557938Y543219D01*
X557450Y543545D01*
X556874Y543660D01*
D02*
G37*
G36*
X526559Y539722D02*
X525983Y539608D01*
X525495Y539282D01*
X525168Y538793D01*
X525054Y538217D01*
X525168Y537641D01*
X525495Y537153D01*
X525983Y536827D01*
X526559Y536712D01*
X527135Y536827D01*
X527624Y537153D01*
X527950Y537641D01*
X528064Y538217D01*
X527950Y538793D01*
X527624Y539282D01*
X527135Y539608D01*
X526559Y539722D01*
D02*
G37*
G36*
X519866Y538541D02*
X519290Y538427D01*
X518802Y538101D01*
X518475Y537612D01*
X518361Y537036D01*
X518475Y536460D01*
X518802Y535972D01*
X519290Y535645D01*
X519866Y535531D01*
X520442Y535645D01*
X520931Y535972D01*
X521257Y536460D01*
X521372Y537036D01*
X521257Y537612D01*
X520931Y538101D01*
X520442Y538427D01*
X519866Y538541D01*
D02*
G37*
G36*
X483799Y537754D02*
X483223Y537640D01*
X482734Y537313D01*
X482408Y536825D01*
X482294Y536249D01*
X482408Y535673D01*
X482734Y535184D01*
X483223Y534858D01*
X483799Y534743D01*
X484375Y534858D01*
X484863Y535184D01*
X485189Y535673D01*
X485304Y536249D01*
X485189Y536825D01*
X484863Y537313D01*
X484375Y537640D01*
X483799Y537754D01*
D02*
G37*
G36*
X565744Y534681D02*
X565168Y534566D01*
X564680Y534240D01*
X564353Y533752D01*
X564239Y533176D01*
X564353Y532599D01*
X564680Y532111D01*
X565168Y531785D01*
X565744Y531670D01*
X566320Y531785D01*
X566809Y532111D01*
X567135Y532599D01*
X567249Y533176D01*
X567135Y533752D01*
X566809Y534240D01*
X566320Y534566D01*
X565744Y534681D01*
D02*
G37*
G36*
X515252Y532417D02*
X514676Y532303D01*
X514188Y531976D01*
X513861Y531488D01*
X513747Y530912D01*
X513861Y530336D01*
X514188Y529847D01*
X514676Y529521D01*
X515252Y529406D01*
X515828Y529521D01*
X516316Y529847D01*
X516643Y530336D01*
X516757Y530912D01*
X516643Y531488D01*
X516316Y531976D01*
X515828Y532303D01*
X515252Y532417D01*
D02*
G37*
G36*
X559051Y535862D02*
X558475Y535747D01*
X557987Y535421D01*
X557660Y534933D01*
X557546Y534357D01*
X557660Y533781D01*
X557721Y533690D01*
X557905Y532979D01*
X557721Y532267D01*
X557660Y532177D01*
X557546Y531601D01*
X557660Y531025D01*
X557987Y530536D01*
X558489Y529916D01*
X558522Y529181D01*
X558518Y529162D01*
X558633Y528586D01*
X558959Y528098D01*
X559448Y527771D01*
X560024Y527657D01*
X560600Y527771D01*
X561088Y528098D01*
X561414Y528586D01*
X561529Y529162D01*
X561414Y529738D01*
X561088Y530227D01*
X560586Y530846D01*
X560553Y531582D01*
X560557Y531601D01*
X560442Y532177D01*
X560382Y532267D01*
X560197Y532979D01*
X560382Y533690D01*
X560442Y533781D01*
X560557Y534357D01*
X560442Y534933D01*
X560116Y535421D01*
X559627Y535747D01*
X559051Y535862D01*
D02*
G37*
G36*
X520469Y529956D02*
X519893Y529842D01*
X519404Y529516D01*
X519078Y529027D01*
X518963Y528451D01*
X519078Y527875D01*
X519404Y527387D01*
X519893Y527060D01*
X520469Y526946D01*
X521045Y527060D01*
X521533Y527387D01*
X521859Y527875D01*
X521974Y528451D01*
X521859Y529027D01*
X521533Y529516D01*
X521045Y529842D01*
X520469Y529956D01*
D02*
G37*
G36*
X535036Y527988D02*
X534459Y527873D01*
X533971Y527547D01*
X533645Y527059D01*
X533530Y526483D01*
X533645Y525907D01*
X533971Y525418D01*
X534459Y525092D01*
X535036Y524977D01*
X535611Y525092D01*
X536100Y525418D01*
X536426Y525907D01*
X536541Y526483D01*
X536426Y527059D01*
X536100Y527547D01*
X535611Y527873D01*
X535036Y527988D01*
D02*
G37*
G36*
X513382Y527594D02*
X512806Y527480D01*
X512318Y527153D01*
X511991Y526665D01*
X511877Y526089D01*
X511991Y525513D01*
X512318Y525025D01*
X512806Y524698D01*
X513382Y524584D01*
X513958Y524698D01*
X514446Y525025D01*
X514773Y525513D01*
X514887Y526089D01*
X514773Y526665D01*
X514446Y527153D01*
X513958Y527480D01*
X513382Y527594D01*
D02*
G37*
G36*
X469079Y525549D02*
X468503Y525435D01*
X468014Y525108D01*
X467688Y524620D01*
X467573Y524044D01*
X467688Y523468D01*
X468014Y522980D01*
X468503Y522653D01*
X469079Y522539D01*
X469655Y522653D01*
X470143Y522980D01*
X470470Y523468D01*
X470584Y524044D01*
X470470Y524620D01*
X470143Y525108D01*
X469655Y525435D01*
X469079Y525549D01*
D02*
G37*
G36*
X507268Y523975D02*
X506692Y523860D01*
X506203Y523534D01*
X505877Y523045D01*
X505762Y522469D01*
X505877Y521893D01*
X506203Y521405D01*
X506692Y521078D01*
X507268Y520964D01*
X507844Y521078D01*
X508332Y521405D01*
X508659Y521893D01*
X508773Y522469D01*
X508659Y523045D01*
X508332Y523534D01*
X507844Y523860D01*
X507268Y523975D01*
D02*
G37*
G36*
X474984Y523581D02*
X474408Y523466D01*
X473920Y523140D01*
X473594Y522652D01*
X473479Y522076D01*
X473594Y521499D01*
X473920Y521011D01*
X474408Y520685D01*
X474984Y520570D01*
X475560Y520685D01*
X476049Y521011D01*
X476375Y521499D01*
X476490Y522076D01*
X476375Y522652D01*
X476049Y523140D01*
X475560Y523466D01*
X474984Y523581D01*
D02*
G37*
G36*
X511020Y522476D02*
X510444Y522362D01*
X509955Y522035D01*
X509629Y521547D01*
X509514Y520971D01*
X509629Y520395D01*
X509955Y519906D01*
X510444Y519580D01*
X511020Y519465D01*
X511596Y519580D01*
X512084Y519906D01*
X512410Y520395D01*
X512525Y520971D01*
X512410Y521547D01*
X512084Y522035D01*
X511596Y522362D01*
X511020Y522476D01*
D02*
G37*
G36*
X560024Y522006D02*
X559448Y521891D01*
X558959Y521565D01*
X558633Y521077D01*
X558518Y520501D01*
X558633Y519925D01*
X558959Y519436D01*
X559448Y519110D01*
X560024Y518995D01*
X560600Y519110D01*
X561088Y519436D01*
X561414Y519925D01*
X561529Y520501D01*
X561414Y521077D01*
X561088Y521565D01*
X560600Y521891D01*
X560024Y522006D01*
D02*
G37*
G36*
X548213Y521612D02*
X547637Y521498D01*
X547148Y521171D01*
X546822Y520683D01*
X546707Y520107D01*
X546822Y519531D01*
X547148Y519043D01*
X547637Y518716D01*
X548213Y518602D01*
X548789Y518716D01*
X549277Y519043D01*
X549603Y519531D01*
X549718Y520107D01*
X549603Y520683D01*
X549277Y521171D01*
X548789Y521498D01*
X548213Y521612D01*
D02*
G37*
G36*
X503931D02*
X503355Y521498D01*
X502866Y521171D01*
X502540Y520683D01*
X502425Y520107D01*
X502540Y519531D01*
X502866Y519043D01*
X503355Y518716D01*
X503931Y518602D01*
X504507Y518716D01*
X504995Y519043D01*
X505321Y519531D01*
X505436Y520107D01*
X505321Y520683D01*
X504995Y521171D01*
X504507Y521498D01*
X503931Y521612D01*
D02*
G37*
G36*
X481284Y520431D02*
X480707Y520317D01*
X480219Y519990D01*
X479893Y519502D01*
X479778Y518926D01*
X479893Y518350D01*
X480219Y517862D01*
X480707Y517535D01*
X481284Y517421D01*
X481860Y517535D01*
X482348Y517862D01*
X482674Y518350D01*
X482789Y518926D01*
X482674Y519502D01*
X482348Y519990D01*
X481860Y520317D01*
X481284Y520431D01*
D02*
G37*
G36*
X472228D02*
X471652Y520317D01*
X471164Y519990D01*
X470838Y519502D01*
X470723Y518926D01*
X470838Y518350D01*
X471164Y517862D01*
X471652Y517535D01*
X472228Y517421D01*
X472804Y517535D01*
X473293Y517862D01*
X473619Y518350D01*
X473734Y518926D01*
X473619Y519502D01*
X473293Y519990D01*
X472804Y520317D01*
X472228Y520431D01*
D02*
G37*
G36*
X564354Y520038D02*
X563778Y519923D01*
X563290Y519597D01*
X562964Y519108D01*
X562849Y518532D01*
X562964Y517956D01*
X563290Y517468D01*
X563778Y517141D01*
X564354Y517027D01*
X564930Y517141D01*
X565419Y517468D01*
X565745Y517956D01*
X565860Y518532D01*
X565745Y519108D01*
X565419Y519597D01*
X564930Y519923D01*
X564354Y520038D01*
D02*
G37*
G36*
X510417Y517675D02*
X509841Y517561D01*
X509353Y517234D01*
X509027Y516746D01*
X508912Y516170D01*
X509027Y515594D01*
X509353Y515106D01*
X509841Y514779D01*
X510417Y514665D01*
X510993Y514779D01*
X511482Y515106D01*
X511808Y515594D01*
X511923Y516170D01*
X511808Y516746D01*
X511482Y517234D01*
X510993Y517561D01*
X510417Y517675D01*
D02*
G37*
G36*
X546770Y515707D02*
X546194Y515592D01*
X545706Y515266D01*
X545379Y514778D01*
X545265Y514201D01*
X545379Y513625D01*
X545706Y513137D01*
X546194Y512811D01*
X546770Y512696D01*
X547346Y512811D01*
X547834Y513137D01*
X548161Y513625D01*
X548275Y514201D01*
X548161Y514778D01*
X547834Y515266D01*
X547346Y515592D01*
X546770Y515707D01*
D02*
G37*
G36*
X513867Y515596D02*
X513291Y515481D01*
X512802Y515155D01*
X512476Y514666D01*
X512361Y514090D01*
X512476Y513514D01*
X512802Y513026D01*
X513291Y512700D01*
X513867Y512585D01*
X514443Y512700D01*
X514931Y513026D01*
X515257Y513514D01*
X515372Y514090D01*
X515257Y514666D01*
X514931Y515155D01*
X514443Y515481D01*
X513867Y515596D01*
D02*
G37*
G36*
X481677Y515313D02*
X481101Y515199D01*
X480613Y514872D01*
X480287Y514384D01*
X480172Y513808D01*
X480287Y513232D01*
X480613Y512743D01*
X481101Y512417D01*
X481677Y512302D01*
X482253Y512417D01*
X482742Y512743D01*
X483068Y513232D01*
X483182Y513808D01*
X483068Y514384D01*
X482742Y514872D01*
X482253Y515199D01*
X481677Y515313D01*
D02*
G37*
G36*
X469866D02*
X469290Y515199D01*
X468802Y514872D01*
X468475Y514384D01*
X468361Y513808D01*
X468475Y513232D01*
X468802Y512743D01*
X469290Y512417D01*
X469866Y512302D01*
X470442Y512417D01*
X470931Y512743D01*
X471257Y513232D01*
X471372Y513808D01*
X471257Y514384D01*
X470931Y514872D01*
X470442Y515199D01*
X469866Y515313D01*
D02*
G37*
G36*
X574406Y513421D02*
X573830Y513306D01*
X573341Y512980D01*
X573015Y512492D01*
X572900Y511916D01*
X573015Y511340D01*
X573341Y510851D01*
X573830Y510525D01*
X574406Y510410D01*
X574982Y510525D01*
X575470Y510851D01*
X575796Y511340D01*
X575911Y511916D01*
X575796Y512492D01*
X575470Y512980D01*
X574982Y513306D01*
X574406Y513421D01*
D02*
G37*
G36*
X481677Y510195D02*
X481101Y510080D01*
X480613Y509754D01*
X480287Y509266D01*
X480172Y508690D01*
X480287Y508114D01*
X480613Y507625D01*
X481101Y507299D01*
X481677Y507184D01*
X482253Y507299D01*
X482742Y507625D01*
X483068Y508114D01*
X483182Y508690D01*
X483068Y509266D01*
X482742Y509754D01*
X482253Y510080D01*
X481677Y510195D01*
D02*
G37*
G36*
X513961Y508226D02*
X513385Y508112D01*
X512896Y507786D01*
X512570Y507297D01*
X512455Y506721D01*
X512570Y506145D01*
X512896Y505657D01*
X513385Y505331D01*
X513961Y505216D01*
X514537Y505331D01*
X515025Y505657D01*
X515351Y506145D01*
X515466Y506721D01*
X515351Y507297D01*
X515025Y507786D01*
X514537Y508112D01*
X513961Y508226D01*
D02*
G37*
G36*
X478134Y507439D02*
X477558Y507325D01*
X477070Y506998D01*
X476743Y506510D01*
X476629Y505934D01*
X476743Y505358D01*
X477070Y504869D01*
X477558Y504543D01*
X478134Y504428D01*
X478710Y504543D01*
X479198Y504869D01*
X479525Y505358D01*
X479639Y505934D01*
X479525Y506510D01*
X479198Y506998D01*
X478710Y507325D01*
X478134Y507439D01*
D02*
G37*
G36*
X521047Y504683D02*
X520471Y504569D01*
X519983Y504242D01*
X519759Y503906D01*
X519515Y503729D01*
X518600Y503569D01*
X518474Y503654D01*
X517898Y503768D01*
X517322Y503654D01*
X516833Y503328D01*
X516507Y502839D01*
X516392Y502263D01*
X516507Y501687D01*
X516833Y501199D01*
X517322Y500872D01*
X517898Y500758D01*
X518474Y500872D01*
X518962Y501199D01*
X519186Y501535D01*
X519430Y501712D01*
X520345Y501872D01*
X520471Y501787D01*
X521047Y501673D01*
X521623Y501787D01*
X522112Y502113D01*
X522438Y502602D01*
X522553Y503178D01*
X522438Y503754D01*
X522112Y504242D01*
X521623Y504569D01*
X521047Y504683D01*
D02*
G37*
G36*
X506087Y505864D02*
X505511Y505750D01*
X505022Y505423D01*
X504696Y504935D01*
X504581Y504359D01*
X504696Y503783D01*
X505022Y503295D01*
X505511Y502968D01*
X506087Y502854D01*
X506663Y502968D01*
X507151Y503295D01*
X507477Y503783D01*
X507592Y504359D01*
X507477Y504935D01*
X507151Y505423D01*
X506663Y505750D01*
X506087Y505864D01*
D02*
G37*
G36*
X575772Y505471D02*
X575196Y505356D01*
X574707Y505030D01*
X574381Y504541D01*
X574266Y503965D01*
X574381Y503389D01*
X574707Y502901D01*
X575196Y502575D01*
X575772Y502460D01*
X576348Y502575D01*
X576836Y502901D01*
X577162Y503389D01*
X577277Y503965D01*
X577162Y504541D01*
X576836Y505030D01*
X576348Y505356D01*
X575772Y505471D01*
D02*
G37*
G36*
X495970Y503706D02*
X495395Y503592D01*
X494906Y503265D01*
X494580Y502777D01*
X494465Y502201D01*
X494580Y501625D01*
X494906Y501137D01*
X495395Y500810D01*
X495970Y500696D01*
X496547Y500810D01*
X497035Y501137D01*
X497361Y501625D01*
X497476Y502201D01*
X497361Y502777D01*
X497035Y503265D01*
X496547Y503592D01*
X495970Y503706D01*
D02*
G37*
G36*
X548606Y507045D02*
X548030Y506931D01*
X547542Y506604D01*
X547216Y506116D01*
X547101Y505540D01*
X547216Y504964D01*
X547542Y504476D01*
X547582Y504449D01*
X547586Y504440D01*
X547535Y503306D01*
X547447Y503248D01*
X547121Y502759D01*
X547007Y502183D01*
X547121Y501607D01*
X547447Y501119D01*
X547936Y500793D01*
X548512Y500678D01*
X549088Y500793D01*
X549576Y501119D01*
X549902Y501607D01*
X550017Y502183D01*
X549902Y502759D01*
X549576Y503248D01*
X549536Y503274D01*
X549533Y503283D01*
X549583Y504417D01*
X549671Y504476D01*
X549997Y504964D01*
X550112Y505540D01*
X549997Y506116D01*
X549671Y506604D01*
X549182Y506931D01*
X548606Y507045D01*
D02*
G37*
G36*
X503331Y502715D02*
X502755Y502600D01*
X502266Y502274D01*
X501940Y501785D01*
X501826Y501209D01*
X501940Y500633D01*
X502266Y500145D01*
X502755Y499819D01*
X503331Y499704D01*
X503907Y499819D01*
X504395Y500145D01*
X504721Y500633D01*
X504836Y501209D01*
X504721Y501785D01*
X504395Y502274D01*
X503907Y502600D01*
X503331Y502715D01*
D02*
G37*
G36*
X532280Y502004D02*
X531704Y501889D01*
X531215Y501563D01*
X530889Y501074D01*
X530774Y500498D01*
X530889Y499922D01*
X531215Y499434D01*
X531704Y499108D01*
X532280Y498993D01*
X532856Y499108D01*
X533344Y499434D01*
X533670Y499922D01*
X533785Y500498D01*
X533670Y501074D01*
X533344Y501563D01*
X532856Y501889D01*
X532280Y502004D01*
D02*
G37*
G36*
X508055Y501927D02*
X507479Y501813D01*
X506991Y501486D01*
X506665Y500998D01*
X506550Y500422D01*
X506665Y499846D01*
X506991Y499358D01*
X507479Y499031D01*
X508055Y498917D01*
X508631Y499031D01*
X509120Y499358D01*
X509446Y499846D01*
X509560Y500422D01*
X509446Y500998D01*
X509120Y501486D01*
X508631Y501813D01*
X508055Y501927D01*
D02*
G37*
G36*
X488503Y501706D02*
X487927Y501591D01*
X487438Y501265D01*
X487112Y500777D01*
X486997Y500201D01*
X487112Y499624D01*
X487438Y499136D01*
X487927Y498810D01*
X488503Y498695D01*
X489079Y498810D01*
X489567Y499136D01*
X489893Y499624D01*
X490008Y500201D01*
X489893Y500777D01*
X489567Y501265D01*
X489079Y501591D01*
X488503Y501706D01*
D02*
G37*
G36*
X484039Y501140D02*
X483463Y501025D01*
X482975Y500699D01*
X482649Y500211D01*
X482534Y499635D01*
X482649Y499058D01*
X482975Y498570D01*
X483463Y498244D01*
X484039Y498129D01*
X484616Y498244D01*
X485104Y498570D01*
X485430Y499058D01*
X485545Y499635D01*
X485430Y500211D01*
X485104Y500699D01*
X484616Y501025D01*
X484039Y501140D01*
D02*
G37*
G36*
X477740D02*
X477164Y501025D01*
X476676Y500699D01*
X476349Y500211D01*
X476235Y499635D01*
X476349Y499058D01*
X476676Y498570D01*
X477164Y498244D01*
X477740Y498129D01*
X478316Y498244D01*
X478805Y498570D01*
X479131Y499058D01*
X479246Y499635D01*
X479131Y500211D01*
X478805Y500699D01*
X478316Y501025D01*
X477740Y501140D01*
D02*
G37*
G36*
X519079Y499959D02*
X518503Y499844D01*
X518014Y499518D01*
X517688Y499029D01*
X517573Y498454D01*
X517688Y497877D01*
X518014Y497389D01*
X518503Y497063D01*
X519079Y496948D01*
X519655Y497063D01*
X520143Y497389D01*
X520470Y497877D01*
X520584Y498454D01*
X520470Y499029D01*
X520143Y499518D01*
X519655Y499844D01*
X519079Y499959D01*
D02*
G37*
G36*
X535823Y499641D02*
X535247Y499527D01*
X534759Y499201D01*
X534432Y498712D01*
X534318Y498136D01*
X534432Y497560D01*
X534759Y497072D01*
X535247Y496745D01*
X535823Y496631D01*
X536399Y496745D01*
X536887Y497072D01*
X537214Y497560D01*
X537328Y498136D01*
X537214Y498712D01*
X536887Y499201D01*
X536399Y499527D01*
X535823Y499641D01*
D02*
G37*
G36*
X496059D02*
X495483Y499527D01*
X494995Y499201D01*
X494668Y498712D01*
X494554Y498136D01*
X494668Y497560D01*
X494995Y497072D01*
X495483Y496745D01*
X496059Y496631D01*
X496635Y496745D01*
X497123Y497072D01*
X497450Y497560D01*
X497564Y498136D01*
X497450Y498712D01*
X497123Y499201D01*
X496635Y499527D01*
X496059Y499641D01*
D02*
G37*
G36*
X528736Y499248D02*
X528160Y499133D01*
X527672Y498807D01*
X527346Y498318D01*
X527231Y497743D01*
X527346Y497166D01*
X527672Y496678D01*
X528160Y496352D01*
X528736Y496237D01*
X529312Y496352D01*
X529801Y496678D01*
X530127Y497166D01*
X530242Y497743D01*
X530127Y498318D01*
X529801Y498807D01*
X529312Y499133D01*
X528736Y499248D01*
D02*
G37*
G36*
X524799Y497279D02*
X524223Y497165D01*
X523735Y496838D01*
X523409Y496350D01*
X523294Y495774D01*
X523409Y495198D01*
X523735Y494710D01*
X524223Y494383D01*
X524799Y494269D01*
X525375Y494383D01*
X525864Y494710D01*
X526190Y495198D01*
X526304Y495774D01*
X526190Y496350D01*
X525864Y496838D01*
X525375Y497165D01*
X524799Y497279D01*
D02*
G37*
G36*
X573803Y497203D02*
X573227Y497088D01*
X572739Y496762D01*
X572412Y496274D01*
X572298Y495698D01*
X572412Y495121D01*
X572739Y494633D01*
X573227Y494307D01*
X573803Y494192D01*
X574379Y494307D01*
X574868Y494633D01*
X575194Y495121D01*
X575309Y495698D01*
X575194Y496274D01*
X574868Y496762D01*
X574379Y497088D01*
X573803Y497203D01*
D02*
G37*
G36*
X512386Y495628D02*
X511810Y495513D01*
X511321Y495187D01*
X510995Y494699D01*
X510881Y494123D01*
X510995Y493547D01*
X511321Y493058D01*
X511810Y492732D01*
X512386Y492618D01*
X512962Y492732D01*
X513450Y493058D01*
X513777Y493547D01*
X513891Y494123D01*
X513777Y494699D01*
X513450Y495187D01*
X512962Y495513D01*
X512386Y495628D01*
D02*
G37*
G36*
X562780Y495234D02*
X562204Y495120D01*
X561715Y494794D01*
X561389Y494305D01*
X561274Y493729D01*
X561389Y493153D01*
X561715Y492665D01*
X562204Y492338D01*
X562780Y492224D01*
X563356Y492338D01*
X563844Y492665D01*
X564170Y493153D01*
X564285Y493729D01*
X564170Y494305D01*
X563844Y494794D01*
X563356Y495120D01*
X562780Y495234D01*
D02*
G37*
G36*
X535220D02*
X534645Y495120D01*
X534156Y494794D01*
X533830Y494305D01*
X533715Y493729D01*
X533830Y493153D01*
X534156Y492665D01*
X534645Y492338D01*
X535220Y492224D01*
X535797Y492338D01*
X536285Y492665D01*
X536611Y493153D01*
X536726Y493729D01*
X536611Y494305D01*
X536285Y494794D01*
X535797Y495120D01*
X535220Y495234D01*
D02*
G37*
G36*
X482673Y494523D02*
X482097Y494409D01*
X481609Y494082D01*
X481283Y493594D01*
X481168Y493018D01*
X481283Y492442D01*
X481609Y491954D01*
X482097Y491627D01*
X482673Y491513D01*
X483249Y491627D01*
X483738Y491954D01*
X484064Y492442D01*
X484179Y493018D01*
X484064Y493594D01*
X483738Y494082D01*
X483249Y494409D01*
X482673Y494523D01*
D02*
G37*
G36*
X557268Y494447D02*
X556692Y494332D01*
X556203Y494006D01*
X555877Y493518D01*
X555762Y492942D01*
X555877Y492366D01*
X556203Y491877D01*
X556692Y491551D01*
X557268Y491436D01*
X557844Y491551D01*
X558332Y491877D01*
X558659Y492366D01*
X558773Y492942D01*
X558659Y493518D01*
X558332Y494006D01*
X557844Y494332D01*
X557268Y494447D01*
D02*
G37*
G36*
X509236Y492479D02*
X508660Y492364D01*
X508172Y492038D01*
X507846Y491549D01*
X507731Y490973D01*
X507846Y490397D01*
X508172Y489909D01*
X508660Y489582D01*
X509236Y489468D01*
X509812Y489582D01*
X510301Y489909D01*
X510627Y490397D01*
X510742Y490973D01*
X510627Y491549D01*
X510301Y492038D01*
X509812Y492364D01*
X509236Y492479D01*
D02*
G37*
G36*
X515929Y492085D02*
X515353Y491970D01*
X514865Y491644D01*
X514538Y491155D01*
X514424Y490580D01*
X514538Y490003D01*
X514865Y489515D01*
X515353Y489189D01*
X515929Y489074D01*
X516505Y489189D01*
X516994Y489515D01*
X517320Y490003D01*
X517435Y490580D01*
X517320Y491155D01*
X516994Y491644D01*
X516505Y491970D01*
X515929Y492085D01*
D02*
G37*
G36*
X526165Y491297D02*
X525589Y491183D01*
X525101Y490857D01*
X524775Y490368D01*
X524660Y489792D01*
X524775Y489216D01*
X525101Y488728D01*
X525589Y488401D01*
X526165Y488287D01*
X526741Y488401D01*
X527230Y488728D01*
X527556Y489216D01*
X527671Y489792D01*
X527556Y490368D01*
X527230Y490857D01*
X526741Y491183D01*
X526165Y491297D01*
D02*
G37*
G36*
X540189Y490228D02*
X539613Y490113D01*
X539125Y489787D01*
X538798Y489299D01*
X538684Y488723D01*
X538798Y488147D01*
X539125Y487658D01*
X539613Y487332D01*
X540189Y487218D01*
X540765Y487332D01*
X541253Y487658D01*
X541580Y488147D01*
X541694Y488723D01*
X541580Y489299D01*
X541253Y489787D01*
X540765Y490113D01*
X540189Y490228D01*
D02*
G37*
G36*
X556087Y490116D02*
X555511Y490002D01*
X555022Y489675D01*
X554696Y489187D01*
X554581Y488611D01*
X554696Y488035D01*
X555022Y487547D01*
X555511Y487220D01*
X556087Y487106D01*
X556663Y487220D01*
X557151Y487547D01*
X557477Y488035D01*
X557592Y488611D01*
X557477Y489187D01*
X557151Y489675D01*
X556663Y490002D01*
X556087Y490116D01*
D02*
G37*
G36*
X535429Y489799D02*
X534853Y489684D01*
X534365Y489358D01*
X534038Y488870D01*
X533924Y488294D01*
X534038Y487718D01*
X534365Y487229D01*
X534853Y486903D01*
X535429Y486788D01*
X536005Y486903D01*
X536494Y487229D01*
X536820Y487718D01*
X536935Y488294D01*
X536820Y488870D01*
X536494Y489358D01*
X536005Y489684D01*
X535429Y489799D01*
D02*
G37*
G36*
X491126Y489722D02*
X490550Y489608D01*
X490062Y489282D01*
X489735Y488793D01*
X489621Y488217D01*
X489735Y487641D01*
X490062Y487153D01*
X490550Y486827D01*
X491126Y486712D01*
X491702Y486827D01*
X492190Y487153D01*
X492517Y487641D01*
X492631Y488217D01*
X492517Y488793D01*
X492190Y489282D01*
X491702Y489608D01*
X491126Y489722D01*
D02*
G37*
G36*
X500783Y489405D02*
X500207Y489291D01*
X499719Y488964D01*
X499393Y488476D01*
X499278Y487900D01*
X499393Y487324D01*
X499719Y486835D01*
X500207Y486509D01*
X500783Y486395D01*
X501360Y486509D01*
X501848Y486835D01*
X502174Y487324D01*
X502289Y487900D01*
X502174Y488476D01*
X501848Y488964D01*
X501360Y489291D01*
X500783Y489405D01*
D02*
G37*
G36*
X546602Y489397D02*
X546026Y489282D01*
X545538Y488956D01*
X545211Y488467D01*
X545097Y487891D01*
X545211Y487315D01*
X545538Y486827D01*
X546026Y486501D01*
X546602Y486386D01*
X547178Y486501D01*
X547667Y486827D01*
X547993Y487315D01*
X548107Y487891D01*
X547993Y488467D01*
X547667Y488956D01*
X547178Y489282D01*
X546602Y489397D01*
D02*
G37*
G36*
X512386Y489329D02*
X511810Y489214D01*
X511321Y488888D01*
X510995Y488400D01*
X510881Y487824D01*
X510995Y487248D01*
X511321Y486759D01*
X511810Y486433D01*
X512386Y486318D01*
X512962Y486433D01*
X513450Y486759D01*
X513777Y487248D01*
X513891Y487824D01*
X513777Y488400D01*
X513450Y488888D01*
X512962Y489214D01*
X512386Y489329D01*
D02*
G37*
G36*
X577555Y486475D02*
X576979Y486360D01*
X576491Y486034D01*
X576164Y485545D01*
X576050Y484969D01*
X576164Y484393D01*
X576491Y483905D01*
X576979Y483578D01*
X577555Y483464D01*
X578131Y483578D01*
X578620Y483905D01*
X578946Y484393D01*
X579061Y484969D01*
X578946Y485545D01*
X578620Y486034D01*
X578131Y486360D01*
X577555Y486475D01*
D02*
G37*
G36*
X490154Y483893D02*
X489577Y483779D01*
X489089Y483453D01*
X488763Y482964D01*
X488648Y482388D01*
X488763Y481812D01*
X489089Y481324D01*
X489500Y481049D01*
X489604Y480898D01*
X489858Y479922D01*
X489735Y479738D01*
X489621Y479162D01*
X489735Y478586D01*
X490062Y478098D01*
X490550Y477771D01*
X491126Y477657D01*
X491702Y477771D01*
X492190Y478098D01*
X492517Y478586D01*
X492631Y479162D01*
X492517Y479738D01*
X492190Y480227D01*
X491780Y480501D01*
X491676Y480653D01*
X491422Y481628D01*
X491544Y481812D01*
X491659Y482388D01*
X491544Y482964D01*
X491218Y483453D01*
X490730Y483779D01*
X490154Y483893D01*
D02*
G37*
G36*
X537004Y478382D02*
X536428Y478267D01*
X535940Y477941D01*
X535613Y477452D01*
X535499Y476876D01*
X535613Y476300D01*
X535940Y475812D01*
X536428Y475486D01*
X537004Y475371D01*
X537580Y475486D01*
X538068Y475812D01*
X538395Y476300D01*
X538509Y476876D01*
X538395Y477452D01*
X538068Y477941D01*
X537580Y478267D01*
X537004Y478382D01*
D02*
G37*
G36*
X551571Y474051D02*
X550995Y473936D01*
X550506Y473610D01*
X550180Y473122D01*
X550066Y472546D01*
X550180Y471970D01*
X550506Y471481D01*
X550995Y471155D01*
X551571Y471040D01*
X552147Y471155D01*
X552635Y471481D01*
X552962Y471970D01*
X553076Y472546D01*
X552962Y473122D01*
X552635Y473610D01*
X552147Y473936D01*
X551571Y474051D01*
D02*
G37*
G36*
X574591Y472006D02*
X574015Y471891D01*
X573526Y471565D01*
X573200Y471077D01*
X573085Y470501D01*
X573200Y469925D01*
X573526Y469436D01*
X574015Y469110D01*
X574591Y468995D01*
X575167Y469110D01*
X575655Y469436D01*
X575981Y469925D01*
X576096Y470501D01*
X575981Y471077D01*
X575655Y471565D01*
X575167Y471891D01*
X574591Y472006D01*
D02*
G37*
G36*
X490339D02*
X489763Y471891D01*
X489274Y471565D01*
X488948Y471077D01*
X488833Y470501D01*
X488948Y469925D01*
X489274Y469436D01*
X489763Y469110D01*
X490339Y468995D01*
X490915Y469110D01*
X491403Y469436D01*
X491729Y469925D01*
X491844Y470501D01*
X491729Y471077D01*
X491403Y471565D01*
X490915Y471891D01*
X490339Y472006D01*
D02*
G37*
G36*
X511992Y470431D02*
X511416Y470317D01*
X510928Y469990D01*
X510602Y469502D01*
X510487Y468926D01*
X510602Y468350D01*
X510928Y467862D01*
X511416Y467535D01*
X511992Y467421D01*
X512568Y467535D01*
X513057Y467862D01*
X513383Y468350D01*
X513497Y468926D01*
X513383Y469502D01*
X513057Y469990D01*
X512568Y470317D01*
X511992Y470431D01*
D02*
G37*
G36*
X480102Y467675D02*
X479526Y467561D01*
X479038Y467234D01*
X478712Y466746D01*
X478597Y466170D01*
X478712Y465594D01*
X479038Y465106D01*
X479526Y464779D01*
X480102Y464665D01*
X480678Y464779D01*
X481167Y465106D01*
X481493Y465594D01*
X481608Y466170D01*
X481493Y466746D01*
X481167Y467234D01*
X480678Y467561D01*
X480102Y467675D01*
D02*
G37*
G36*
X533067Y466964D02*
X532491Y466850D01*
X532003Y466523D01*
X531676Y466035D01*
X531562Y465459D01*
X531676Y464883D01*
X532003Y464395D01*
X532491Y464068D01*
X533067Y463954D01*
X533643Y464068D01*
X534131Y464395D01*
X534458Y464883D01*
X534572Y465459D01*
X534458Y466035D01*
X534131Y466523D01*
X533643Y466850D01*
X533067Y466964D01*
D02*
G37*
G36*
X551756Y466888D02*
X551180Y466773D01*
X550692Y466447D01*
X550365Y465959D01*
X550251Y465383D01*
X550365Y464807D01*
X550692Y464318D01*
X551180Y463992D01*
X551756Y463877D01*
X552332Y463992D01*
X552820Y464318D01*
X553147Y464807D01*
X553261Y465383D01*
X553147Y465959D01*
X552820Y466447D01*
X552332Y466773D01*
X551756Y466888D01*
D02*
G37*
G36*
X537583D02*
X537007Y466773D01*
X536518Y466447D01*
X536192Y465959D01*
X536077Y465383D01*
X536192Y464807D01*
X536518Y464318D01*
X537007Y463992D01*
X537583Y463877D01*
X538159Y463992D01*
X538647Y464318D01*
X538973Y464807D01*
X539088Y465383D01*
X538973Y465959D01*
X538647Y466447D01*
X538159Y466773D01*
X537583Y466888D01*
D02*
G37*
G36*
X491520D02*
X490944Y466773D01*
X490455Y466447D01*
X490129Y465959D01*
X490014Y465383D01*
X490129Y464807D01*
X490455Y464318D01*
X490944Y463992D01*
X491520Y463877D01*
X492096Y463992D01*
X492584Y464318D01*
X492910Y464807D01*
X493025Y465383D01*
X492910Y465959D01*
X492584Y466447D01*
X492096Y466773D01*
X491520Y466888D01*
D02*
G37*
G36*
X556295Y466571D02*
X555719Y466456D01*
X555231Y466130D01*
X554905Y465641D01*
X554790Y465065D01*
X554905Y464489D01*
X555231Y464001D01*
X555719Y463675D01*
X556295Y463560D01*
X556871Y463675D01*
X557360Y464001D01*
X557686Y464489D01*
X557801Y465065D01*
X557686Y465641D01*
X557360Y466130D01*
X556871Y466456D01*
X556295Y466571D01*
D02*
G37*
G36*
X511598Y466002D02*
X511022Y465887D01*
X510534Y465561D01*
X510208Y465073D01*
X510093Y464497D01*
X510208Y463921D01*
X510534Y463432D01*
X511022Y463106D01*
X511598Y462992D01*
X512175Y463106D01*
X512663Y463432D01*
X512989Y463921D01*
X513104Y464497D01*
X512989Y465073D01*
X512663Y465561D01*
X512175Y465887D01*
X511598Y466002D01*
D02*
G37*
G36*
X506185D02*
X505609Y465887D01*
X505121Y465561D01*
X504794Y465073D01*
X504680Y464497D01*
X504794Y463921D01*
X505121Y463432D01*
X505609Y463106D01*
X506185Y462992D01*
X506761Y463106D01*
X507249Y463432D01*
X507576Y463921D01*
X507690Y464497D01*
X507576Y465073D01*
X507249Y465561D01*
X506761Y465887D01*
X506185Y466002D01*
D02*
G37*
G36*
X477000Y464294D02*
X476424Y464179D01*
X475935Y463853D01*
X475609Y463365D01*
X475494Y462788D01*
X475609Y462212D01*
X475935Y461724D01*
X476424Y461398D01*
X477000Y461283D01*
X477576Y461398D01*
X478064Y461724D01*
X478390Y462212D01*
X478505Y462788D01*
X478390Y463365D01*
X478064Y463853D01*
X477576Y464179D01*
X477000Y464294D01*
D02*
G37*
G36*
X499602Y461452D02*
X499026Y461338D01*
X498664Y461096D01*
X498538Y461012D01*
X497517D01*
X497391Y461096D01*
X497029Y461338D01*
X496453Y461452D01*
X495877Y461338D01*
X495388Y461012D01*
X495062Y460523D01*
X494947Y459947D01*
X495062Y459371D01*
X495388Y458883D01*
X495877Y458557D01*
X496453Y458442D01*
X497029Y458557D01*
X497391Y458799D01*
X497517Y458883D01*
X498538D01*
X498664Y458799D01*
X499026Y458557D01*
X499602Y458442D01*
X500178Y458557D01*
X500667Y458883D01*
X500993Y459371D01*
X501108Y459947D01*
X500993Y460523D01*
X500667Y461012D01*
X500178Y461338D01*
X499602Y461452D01*
D02*
G37*
G36*
X515535Y462163D02*
X514959Y462049D01*
X514471Y461723D01*
X514145Y461234D01*
X514030Y460658D01*
X514145Y460082D01*
X514471Y459594D01*
X514959Y459268D01*
X515535Y459153D01*
X516112Y459268D01*
X516600Y459594D01*
X516926Y460082D01*
X517041Y460658D01*
X516926Y461234D01*
X516600Y461723D01*
X516112Y462049D01*
X515535Y462163D01*
D02*
G37*
G36*
X577162Y456334D02*
X576585Y456220D01*
X576097Y455894D01*
X575771Y455405D01*
X575656Y454829D01*
X575771Y454253D01*
X576097Y453765D01*
X576585Y453438D01*
X577162Y453324D01*
X577738Y453438D01*
X578226Y453765D01*
X578552Y454253D01*
X578667Y454829D01*
X578552Y455405D01*
X578226Y455894D01*
X577738Y456220D01*
X577162Y456334D01*
D02*
G37*
G36*
X506874Y456258D02*
X506298Y456143D01*
X505810Y455817D01*
X505483Y455329D01*
X505369Y454753D01*
X505483Y454177D01*
X505810Y453688D01*
X506298Y453362D01*
X506874Y453247D01*
X507450Y453362D01*
X507938Y453688D01*
X508265Y454177D01*
X508379Y454753D01*
X508265Y455329D01*
X507938Y455817D01*
X507450Y456143D01*
X506874Y456258D01*
D02*
G37*
G36*
X501965Y453972D02*
X501389Y453858D01*
X500900Y453531D01*
X500574Y453043D01*
X500459Y452467D01*
X500574Y451891D01*
X500900Y451403D01*
X501389Y451076D01*
X501965Y450962D01*
X502541Y451076D01*
X503029Y451403D01*
X503355Y451891D01*
X503470Y452467D01*
X503355Y453043D01*
X503029Y453531D01*
X502541Y453858D01*
X501965Y453972D01*
D02*
G37*
G36*
X506874Y451927D02*
X506298Y451813D01*
X505810Y451486D01*
X505483Y450998D01*
X505369Y450422D01*
X505483Y449846D01*
X505810Y449358D01*
X506298Y449031D01*
X506874Y448917D01*
X507450Y449031D01*
X507938Y449358D01*
X508265Y449846D01*
X508379Y450422D01*
X508265Y450998D01*
X507938Y451486D01*
X507450Y451813D01*
X506874Y451927D01*
D02*
G37*
G36*
X477634Y451689D02*
X477058Y451574D01*
X476570Y451248D01*
X476243Y450760D01*
X476129Y450183D01*
X476243Y449607D01*
X476570Y449119D01*
X477058Y448793D01*
X477634Y448678D01*
X478210Y448793D01*
X478698Y449119D01*
X479025Y449607D01*
X479139Y450183D01*
X479025Y450760D01*
X478698Y451248D01*
X478210Y451574D01*
X477634Y451689D01*
D02*
G37*
G36*
X560024Y451534D02*
X559448Y451419D01*
X558959Y451093D01*
X558633Y450604D01*
X558518Y450028D01*
X558633Y449452D01*
X558959Y448964D01*
X559448Y448638D01*
X560024Y448523D01*
X560600Y448638D01*
X561088Y448964D01*
X561414Y449452D01*
X561529Y450028D01*
X561414Y450604D01*
X561088Y451093D01*
X560600Y451419D01*
X560024Y451534D01*
D02*
G37*
G36*
X518681Y446737D02*
X518105Y446622D01*
X517617Y446296D01*
X517290Y445808D01*
X517176Y445231D01*
X517290Y444655D01*
X517617Y444167D01*
X518105Y443841D01*
X518681Y443726D01*
X519257Y443841D01*
X519746Y444167D01*
X520072Y444655D01*
X520186Y445231D01*
X520072Y445808D01*
X519746Y446296D01*
X519257Y446622D01*
X518681Y446737D01*
D02*
G37*
G36*
X506693Y446022D02*
X506117Y445907D01*
X505629Y445581D01*
X505303Y445092D01*
X505188Y444517D01*
X505303Y443940D01*
X505629Y443452D01*
X506117Y443126D01*
X506693Y443011D01*
X507269Y443126D01*
X507758Y443452D01*
X508084Y443940D01*
X508199Y444517D01*
X508084Y445092D01*
X507758Y445581D01*
X507269Y445907D01*
X506693Y446022D01*
D02*
G37*
G36*
X514354Y445628D02*
X513778Y445513D01*
X513290Y445187D01*
X512964Y444699D01*
X512849Y444123D01*
X512964Y443547D01*
X513290Y443058D01*
X513778Y442732D01*
X514354Y442618D01*
X514930Y442732D01*
X515419Y443058D01*
X515745Y443547D01*
X515860Y444123D01*
X515745Y444699D01*
X515419Y445187D01*
X514930Y445513D01*
X514354Y445628D01*
D02*
G37*
G36*
X472831Y444917D02*
X472255Y444803D01*
X471766Y444476D01*
X471440Y443988D01*
X471325Y443412D01*
X471440Y442836D01*
X471766Y442347D01*
X472255Y442021D01*
X472831Y441906D01*
X473407Y442021D01*
X473895Y442347D01*
X474222Y442836D01*
X474336Y443412D01*
X474222Y443988D01*
X473895Y444476D01*
X473407Y444803D01*
X472831Y444917D01*
D02*
G37*
G36*
X498084Y442829D02*
X497508Y442714D01*
X497020Y442388D01*
X496694Y441900D01*
X496579Y441324D01*
X496694Y440747D01*
X497020Y440259D01*
X497508Y439933D01*
X498084Y439818D01*
X498660Y439933D01*
X499149Y440259D01*
X499475Y440747D01*
X499590Y441324D01*
X499475Y441900D01*
X499149Y442388D01*
X498660Y442714D01*
X498084Y442829D01*
D02*
G37*
G36*
X536008Y442479D02*
X535432Y442364D01*
X534943Y442038D01*
X534617Y441549D01*
X534503Y440973D01*
X534617Y440397D01*
X534943Y439909D01*
X535432Y439582D01*
X536008Y439468D01*
X536584Y439582D01*
X537072Y439909D01*
X537399Y440397D01*
X537513Y440973D01*
X537399Y441549D01*
X537072Y442038D01*
X536584Y442364D01*
X536008Y442479D01*
D02*
G37*
G36*
X531677D02*
X531101Y442364D01*
X530613Y442038D01*
X530287Y441549D01*
X530172Y440973D01*
X530287Y440397D01*
X530613Y439909D01*
X531101Y439582D01*
X531677Y439468D01*
X532253Y439582D01*
X532742Y439909D01*
X533068Y440397D01*
X533182Y440973D01*
X533068Y441549D01*
X532742Y442038D01*
X532253Y442364D01*
X531677Y442479D01*
D02*
G37*
G36*
X549000Y442085D02*
X548424Y441970D01*
X547936Y441644D01*
X547609Y441155D01*
X547495Y440580D01*
X547609Y440003D01*
X547936Y439515D01*
X548424Y439189D01*
X549000Y439074D01*
X549576Y439189D01*
X550064Y439515D01*
X550391Y440003D01*
X550505Y440580D01*
X550391Y441155D01*
X550064Y441644D01*
X549576Y441970D01*
X549000Y442085D01*
D02*
G37*
G36*
X539748Y440412D02*
X539172Y440297D01*
X538684Y439971D01*
X538357Y439482D01*
X538243Y438906D01*
X538357Y438330D01*
X538684Y437842D01*
X539172Y437515D01*
X539748Y437401D01*
X540324Y437515D01*
X540812Y437842D01*
X541139Y438330D01*
X541253Y438906D01*
X541139Y439482D01*
X540812Y439971D01*
X540324Y440297D01*
X539748Y440412D01*
D02*
G37*
G36*
X563567Y440116D02*
X562991Y440002D01*
X562503Y439675D01*
X562176Y439187D01*
X562062Y438611D01*
X562176Y438035D01*
X562503Y437547D01*
X562991Y437220D01*
X563567Y437106D01*
X564143Y437220D01*
X564631Y437547D01*
X564958Y438035D01*
X565072Y438611D01*
X564958Y439187D01*
X564631Y439675D01*
X564143Y440002D01*
X563567Y440116D01*
D02*
G37*
G36*
X554118D02*
X553542Y440002D01*
X553054Y439675D01*
X552727Y439187D01*
X552613Y438611D01*
X552727Y438035D01*
X553054Y437547D01*
X553542Y437220D01*
X554118Y437106D01*
X554694Y437220D01*
X555183Y437547D01*
X555509Y438035D01*
X555623Y438611D01*
X555509Y439187D01*
X555183Y439675D01*
X554694Y440002D01*
X554118Y440116D01*
D02*
G37*
G36*
X493576Y438323D02*
X493000Y438208D01*
X492511Y437882D01*
X492185Y437394D01*
X492070Y436818D01*
X492185Y436242D01*
X492511Y435753D01*
X493000Y435427D01*
X493576Y435312D01*
X494152Y435427D01*
X494640Y435753D01*
X494966Y436242D01*
X495081Y436818D01*
X494966Y437394D01*
X494640Y437882D01*
X494152Y438208D01*
X493576Y438323D01*
D02*
G37*
G36*
X484248Y438224D02*
X483672Y438110D01*
X483184Y437783D01*
X482857Y437295D01*
X482743Y436719D01*
X482857Y436143D01*
X483184Y435654D01*
X483672Y435328D01*
X484248Y435214D01*
X484824Y435328D01*
X485313Y435654D01*
X485639Y436143D01*
X485753Y436719D01*
X485639Y437295D01*
X485313Y437783D01*
X484824Y438110D01*
X484248Y438224D01*
D02*
G37*
G36*
X531677Y438148D02*
X531101Y438033D01*
X530613Y437707D01*
X530287Y437219D01*
X530172Y436643D01*
X530287Y436066D01*
X530613Y435578D01*
X531101Y435252D01*
X531677Y435137D01*
X532253Y435252D01*
X532742Y435578D01*
X533068Y436066D01*
X533182Y436643D01*
X533068Y437219D01*
X532742Y437707D01*
X532253Y438033D01*
X531677Y438148D01*
D02*
G37*
G36*
X574197Y437360D02*
X573621Y437246D01*
X573133Y436919D01*
X572806Y436431D01*
X572692Y435855D01*
X572806Y435279D01*
X573133Y434791D01*
X573621Y434464D01*
X574197Y434350D01*
X574773Y434464D01*
X575261Y434791D01*
X575588Y435279D01*
X575702Y435855D01*
X575588Y436431D01*
X575261Y436919D01*
X574773Y437246D01*
X574197Y437360D01*
D02*
G37*
G36*
X544276D02*
X543700Y437246D01*
X543211Y436919D01*
X542885Y436431D01*
X542770Y435855D01*
X542885Y435279D01*
X543211Y434791D01*
X543700Y434464D01*
X544276Y434350D01*
X544852Y434464D01*
X545340Y434791D01*
X545666Y435279D01*
X545781Y435855D01*
X545666Y436431D01*
X545340Y436919D01*
X544852Y437246D01*
X544276Y437360D01*
D02*
G37*
G36*
X536303D02*
X535727Y437246D01*
X535239Y436919D01*
X534912Y436431D01*
X534798Y435855D01*
X534912Y435279D01*
X535239Y434791D01*
X535727Y434464D01*
X536303Y434350D01*
X536879Y434464D01*
X537368Y434791D01*
X537694Y435279D01*
X537809Y435855D01*
X537694Y436431D01*
X537368Y436919D01*
X536879Y437246D01*
X536303Y437360D01*
D02*
G37*
G36*
X526165Y436967D02*
X525589Y436852D01*
X525101Y436526D01*
X524775Y436037D01*
X524660Y435461D01*
X524775Y434885D01*
X525101Y434397D01*
X525589Y434071D01*
X526165Y433956D01*
X526741Y434071D01*
X527230Y434397D01*
X527556Y434885D01*
X527671Y435461D01*
X527556Y436037D01*
X527230Y436526D01*
X526741Y436852D01*
X526165Y436967D01*
D02*
G37*
G36*
X552051Y436278D02*
X551475Y436163D01*
X550987Y435837D01*
X550661Y435348D01*
X550546Y434772D01*
X550661Y434196D01*
X550987Y433708D01*
X551475Y433382D01*
X552051Y433267D01*
X552627Y433382D01*
X553116Y433708D01*
X553442Y434196D01*
X553556Y434772D01*
X553442Y435348D01*
X553116Y435837D01*
X552627Y436163D01*
X552051Y436278D01*
D02*
G37*
G36*
X578921Y436179D02*
X578345Y436065D01*
X577857Y435738D01*
X577531Y435250D01*
X577416Y434674D01*
X577531Y434098D01*
X577857Y433610D01*
X578345Y433283D01*
X578921Y433169D01*
X579497Y433283D01*
X579986Y433610D01*
X580312Y434098D01*
X580427Y434674D01*
X580312Y435250D01*
X579986Y435738D01*
X579497Y436065D01*
X578921Y436179D01*
D02*
G37*
G36*
X556579D02*
X556003Y436065D01*
X555514Y435738D01*
X555188Y435250D01*
X555073Y434674D01*
X555188Y434098D01*
X555514Y433610D01*
X556003Y433283D01*
X556579Y433169D01*
X557155Y433283D01*
X557643Y433610D01*
X557970Y434098D01*
X558084Y434674D01*
X557970Y435250D01*
X557643Y435738D01*
X557155Y436065D01*
X556579Y436179D01*
D02*
G37*
G36*
X540339D02*
X539763Y436065D01*
X539274Y435738D01*
X538948Y435250D01*
X538833Y434674D01*
X538948Y434098D01*
X539274Y433610D01*
X539763Y433283D01*
X540339Y433169D01*
X540915Y433283D01*
X541403Y433610D01*
X541729Y434098D01*
X541844Y434674D01*
X541729Y435250D01*
X541403Y435738D01*
X540915Y436065D01*
X540339Y436179D01*
D02*
G37*
G36*
X498213Y438541D02*
X497637Y438427D01*
X497148Y438101D01*
X496822Y437612D01*
X496707Y437036D01*
X496822Y436460D01*
X497148Y435972D01*
X497637Y435645D01*
X497804Y435612D01*
X498293Y434687D01*
X498305Y434571D01*
X498298Y434561D01*
X498184Y433985D01*
X498298Y433409D01*
X498625Y432921D01*
X499113Y432594D01*
X499689Y432480D01*
X500265Y432594D01*
X500753Y432921D01*
X501080Y433409D01*
X501194Y433985D01*
X501080Y434561D01*
X500753Y435049D01*
X500265Y435376D01*
X500098Y435409D01*
X499608Y436334D01*
X499597Y436451D01*
X499603Y436460D01*
X499718Y437036D01*
X499603Y437612D01*
X499277Y438101D01*
X498789Y438427D01*
X498213Y438541D01*
D02*
G37*
G36*
X547819Y435392D02*
X547243Y435277D01*
X546755Y434951D01*
X546428Y434463D01*
X546314Y433886D01*
X546428Y433311D01*
X546755Y432822D01*
X547243Y432496D01*
X547819Y432381D01*
X548395Y432496D01*
X548883Y432822D01*
X549210Y433311D01*
X549324Y433886D01*
X549210Y434463D01*
X548883Y434951D01*
X548395Y435277D01*
X547819Y435392D01*
D02*
G37*
G36*
X479917Y434287D02*
X479341Y434172D01*
X478853Y433846D01*
X478527Y433358D01*
X478412Y432782D01*
X478527Y432206D01*
X478853Y431717D01*
X479341Y431391D01*
X479917Y431277D01*
X480493Y431391D01*
X480982Y431717D01*
X481308Y432206D01*
X481423Y432782D01*
X481308Y433358D01*
X480982Y433846D01*
X480493Y434172D01*
X479917Y434287D01*
D02*
G37*
G36*
X534433Y433817D02*
X533857Y433703D01*
X533369Y433376D01*
X533042Y432888D01*
X532928Y432312D01*
X533042Y431736D01*
X533369Y431247D01*
X533857Y430921D01*
X534433Y430806D01*
X535009Y430921D01*
X535498Y431247D01*
X535824Y431736D01*
X535938Y432312D01*
X535824Y432888D01*
X535498Y433376D01*
X535009Y433703D01*
X534433Y433817D01*
D02*
G37*
G36*
X492823Y433571D02*
X492246Y433456D01*
X491758Y433130D01*
X491432Y432641D01*
X491317Y432065D01*
X491432Y431489D01*
X491758Y431001D01*
X492246Y430675D01*
X492823Y430560D01*
X493399Y430675D01*
X493887Y431001D01*
X494213Y431489D01*
X494328Y432065D01*
X494213Y432641D01*
X493887Y433130D01*
X493399Y433456D01*
X492823Y433571D01*
D02*
G37*
G36*
X504118Y433423D02*
X503542Y433309D01*
X503054Y432982D01*
X502727Y432494D01*
X502613Y431918D01*
X502727Y431342D01*
X503054Y430854D01*
X503542Y430527D01*
X504118Y430413D01*
X504694Y430527D01*
X505183Y430854D01*
X505509Y431342D01*
X505623Y431918D01*
X505509Y432494D01*
X505183Y432982D01*
X504694Y433309D01*
X504118Y433423D01*
D02*
G37*
G36*
X574197Y432636D02*
X573621Y432521D01*
X573133Y432195D01*
X572806Y431707D01*
X572692Y431131D01*
X572806Y430555D01*
X573133Y430066D01*
X573621Y429740D01*
X574197Y429625D01*
X574773Y429740D01*
X575261Y430066D01*
X575588Y430555D01*
X575702Y431131D01*
X575588Y431707D01*
X575261Y432195D01*
X574773Y432521D01*
X574197Y432636D01*
D02*
G37*
G36*
X553921Y432538D02*
X553345Y432423D01*
X552857Y432097D01*
X552531Y431608D01*
X552416Y431032D01*
X552531Y430456D01*
X552857Y429968D01*
X553345Y429641D01*
X553921Y429527D01*
X554497Y429641D01*
X554986Y429968D01*
X555312Y430456D01*
X555427Y431032D01*
X555312Y431608D01*
X554986Y432097D01*
X554497Y432423D01*
X553921Y432538D01*
D02*
G37*
G36*
X538764Y431848D02*
X538188Y431734D01*
X537699Y431408D01*
X537373Y430919D01*
X537258Y430343D01*
X537373Y429767D01*
X537699Y429279D01*
X538188Y428953D01*
X538764Y428838D01*
X539340Y428953D01*
X539828Y429279D01*
X540155Y429767D01*
X540269Y430343D01*
X540155Y430919D01*
X539828Y431408D01*
X539340Y431734D01*
X538764Y431848D01*
D02*
G37*
G36*
X549000Y431455D02*
X548424Y431340D01*
X547936Y431014D01*
X547609Y430526D01*
X547495Y429950D01*
X547609Y429374D01*
X547936Y428885D01*
X548424Y428559D01*
X549000Y428444D01*
X549576Y428559D01*
X550064Y428885D01*
X550391Y429374D01*
X550505Y429950D01*
X550391Y430526D01*
X550064Y431014D01*
X549576Y431340D01*
X549000Y431455D01*
D02*
G37*
G36*
X544669D02*
X544093Y431340D01*
X543605Y431014D01*
X543279Y430526D01*
X543164Y429950D01*
X543279Y429374D01*
X543605Y428885D01*
X544093Y428559D01*
X544669Y428444D01*
X545245Y428559D01*
X545734Y428885D01*
X546060Y429374D01*
X546175Y429950D01*
X546060Y430526D01*
X545734Y431014D01*
X545245Y431340D01*
X544669Y431455D01*
D02*
G37*
G36*
X495457Y429486D02*
X494881Y429372D01*
X494392Y429045D01*
X494066Y428557D01*
X493951Y427981D01*
X494066Y427405D01*
X494392Y426917D01*
X494881Y426590D01*
X495457Y426476D01*
X496033Y426590D01*
X496521Y426917D01*
X496847Y427405D01*
X496962Y427981D01*
X496847Y428557D01*
X496521Y429045D01*
X496033Y429372D01*
X495457Y429486D01*
D02*
G37*
G36*
X552457Y428768D02*
X551881Y428654D01*
X551392Y428327D01*
X551066Y427839D01*
X550951Y427263D01*
X551066Y426687D01*
X551392Y426198D01*
X551881Y425872D01*
X552457Y425758D01*
X553033Y425872D01*
X553521Y426198D01*
X553847Y426687D01*
X553962Y427263D01*
X553847Y427839D01*
X553521Y428327D01*
X553033Y428654D01*
X552457Y428768D01*
D02*
G37*
G36*
X541126Y428305D02*
X540550Y428191D01*
X540062Y427864D01*
X539735Y427376D01*
X539621Y426800D01*
X539735Y426224D01*
X540062Y425736D01*
X540550Y425409D01*
X541126Y425295D01*
X541702Y425409D01*
X542190Y425736D01*
X542517Y426224D01*
X542631Y426800D01*
X542517Y427376D01*
X542190Y427864D01*
X541702Y428191D01*
X541126Y428305D01*
D02*
G37*
G36*
X548311Y426337D02*
X547735Y426222D01*
X547247Y425896D01*
X546920Y425408D01*
X546806Y424831D01*
X546920Y424255D01*
X547247Y423767D01*
X547735Y423441D01*
X548311Y423326D01*
X548887Y423441D01*
X549375Y423767D01*
X549702Y424255D01*
X549816Y424831D01*
X549702Y425408D01*
X549375Y425896D01*
X548887Y426222D01*
X548311Y426337D01*
D02*
G37*
G36*
X544276Y425156D02*
X543700Y425041D01*
X543211Y424715D01*
X542885Y424226D01*
X542770Y423650D01*
X542885Y423074D01*
X543211Y422586D01*
X543700Y422260D01*
X544276Y422145D01*
X544852Y422260D01*
X545340Y422586D01*
X545666Y423074D01*
X545781Y423650D01*
X545666Y424226D01*
X545340Y424715D01*
X544852Y425041D01*
X544276Y425156D01*
D02*
G37*
G36*
X541126Y422498D02*
X540550Y422384D01*
X540062Y422057D01*
X539735Y421569D01*
X539621Y420993D01*
X539735Y420417D01*
X540062Y419928D01*
X540550Y419602D01*
X541126Y419488D01*
X541702Y419602D01*
X542190Y419928D01*
X542517Y420417D01*
X542631Y420993D01*
X542517Y421569D01*
X542190Y422057D01*
X541702Y422384D01*
X541126Y422498D01*
D02*
G37*
G36*
X470406Y441505D02*
X469830Y441390D01*
X469341Y441064D01*
X469015Y440576D01*
X468900Y440000D01*
X469015Y439424D01*
X469241Y439085D01*
X469341Y438935D01*
Y437950D01*
X469241Y437800D01*
X469015Y437462D01*
X468900Y436885D01*
X469015Y436309D01*
X469341Y435821D01*
Y435067D01*
X469015Y434578D01*
X468900Y434002D01*
X469015Y433426D01*
X469341Y432938D01*
Y432067D01*
X469015Y431578D01*
X468900Y431002D01*
X469015Y430426D01*
X469341Y429938D01*
Y429067D01*
X469015Y428578D01*
X468900Y428002D01*
X469015Y427426D01*
X469341Y426938D01*
Y426067D01*
X469015Y425578D01*
X468900Y425002D01*
X469015Y424426D01*
X469341Y423938D01*
Y423067D01*
X469015Y422578D01*
X468900Y422002D01*
X469015Y421426D01*
X469341Y420938D01*
Y420067D01*
X469015Y419578D01*
X468900Y419002D01*
X469015Y418426D01*
X469341Y417938D01*
X469830Y417612D01*
X470406Y417497D01*
X470982Y417612D01*
X471470Y417938D01*
X471796Y418426D01*
X471911Y419002D01*
X471796Y419578D01*
X471470Y420067D01*
Y420938D01*
X471796Y421426D01*
X471911Y422002D01*
X471796Y422578D01*
X471470Y423067D01*
Y423938D01*
X471796Y424426D01*
X471911Y425002D01*
X471796Y425578D01*
X471470Y426067D01*
Y426938D01*
X471796Y427426D01*
X471911Y428002D01*
X471796Y428578D01*
X471470Y429067D01*
Y429938D01*
X471796Y430426D01*
X471911Y431002D01*
X471796Y431578D01*
X471470Y432067D01*
Y432938D01*
X471796Y433426D01*
X471911Y434002D01*
X471796Y434578D01*
X471470Y435067D01*
Y435821D01*
X471796Y436309D01*
X471911Y436885D01*
X471796Y437462D01*
X471570Y437800D01*
X471470Y437950D01*
Y438935D01*
X471570Y439085D01*
X471796Y439424D01*
X471911Y440000D01*
X471796Y440576D01*
X471470Y441064D01*
X470982Y441390D01*
X470406Y441505D01*
D02*
G37*
G36*
X545850Y418856D02*
X545274Y418742D01*
X544786Y418415D01*
X544460Y417927D01*
X544345Y417351D01*
X544460Y416775D01*
X544786Y416287D01*
X545274Y415960D01*
X545850Y415846D01*
X546426Y415960D01*
X546915Y416287D01*
X547241Y416775D01*
X547356Y417351D01*
X547241Y417927D01*
X546915Y418415D01*
X546426Y418742D01*
X545850Y418856D01*
D02*
G37*
G36*
X578134Y415313D02*
X577558Y415199D01*
X577070Y414872D01*
X576743Y414384D01*
X576629Y413808D01*
X576743Y413232D01*
X577070Y412743D01*
X577558Y412417D01*
X578134Y412302D01*
X578710Y412417D01*
X579198Y412743D01*
X579525Y413232D01*
X579639Y413808D01*
X579525Y414384D01*
X579198Y414872D01*
X578710Y415199D01*
X578134Y415313D01*
D02*
G37*
G36*
X549787D02*
X549211Y415199D01*
X548723Y414872D01*
X548397Y414384D01*
X548282Y413808D01*
X548397Y413232D01*
X548723Y412743D01*
X549211Y412417D01*
X549787Y412302D01*
X550363Y412417D01*
X550852Y412743D01*
X551178Y413232D01*
X551293Y413808D01*
X551178Y414384D01*
X550852Y414872D01*
X550363Y415199D01*
X549787Y415313D01*
D02*
G37*
G36*
X554118Y414919D02*
X553542Y414805D01*
X553054Y414478D01*
X552727Y413990D01*
X552613Y413414D01*
X552727Y412838D01*
X553054Y412350D01*
X553542Y412023D01*
X554118Y411909D01*
X554694Y412023D01*
X555183Y412350D01*
X555509Y412838D01*
X555623Y413414D01*
X555509Y413990D01*
X555183Y414478D01*
X554694Y414805D01*
X554118Y414919D01*
D02*
G37*
G36*
X573803Y411770D02*
X573227Y411655D01*
X572739Y411329D01*
X572412Y410841D01*
X572298Y410264D01*
X572412Y409689D01*
X572739Y409200D01*
X573227Y408874D01*
X573803Y408759D01*
X574379Y408874D01*
X574868Y409200D01*
X575194Y409689D01*
X575309Y410264D01*
X575194Y410841D01*
X574868Y411329D01*
X574379Y411655D01*
X573803Y411770D01*
D02*
G37*
G36*
X475772Y409341D02*
X475196Y409226D01*
X474707Y408900D01*
X474381Y408412D01*
X474266Y407836D01*
X474381Y407260D01*
X474707Y406771D01*
X475196Y406445D01*
X475772Y406330D01*
X476348Y406445D01*
X476836Y406771D01*
X477162Y407260D01*
X477277Y407836D01*
X477162Y408412D01*
X476836Y408900D01*
X476348Y409226D01*
X475772Y409341D01*
D02*
G37*
G36*
X471736Y409014D02*
X471160Y408899D01*
X470672Y408573D01*
X470346Y408085D01*
X470231Y407509D01*
X470346Y406932D01*
X470672Y406444D01*
X471160Y406118D01*
X471736Y406003D01*
X472312Y406118D01*
X472801Y406444D01*
X473127Y406932D01*
X473242Y407509D01*
X473127Y408085D01*
X472801Y408573D01*
X472312Y408899D01*
X471736Y409014D01*
D02*
G37*
G36*
X552150Y408226D02*
X551574Y408112D01*
X551085Y407786D01*
X550759Y407297D01*
X550644Y406721D01*
X550759Y406145D01*
X551085Y405657D01*
X551574Y405331D01*
X552150Y405216D01*
X552726Y405331D01*
X553214Y405657D01*
X553540Y406145D01*
X553655Y406721D01*
X553540Y407297D01*
X553214Y407786D01*
X552726Y408112D01*
X552150Y408226D01*
D02*
G37*
G36*
X493500Y407856D02*
X492924Y407742D01*
X492436Y407415D01*
X492109Y406927D01*
X491995Y406351D01*
X492109Y405775D01*
X492436Y405287D01*
X492924Y404960D01*
X493500Y404846D01*
X494076Y404960D01*
X494564Y405287D01*
X494891Y405775D01*
X495005Y406351D01*
X494891Y406927D01*
X494564Y407415D01*
X494076Y407742D01*
X493500Y407856D01*
D02*
G37*
G36*
X535220Y407439D02*
X534645Y407325D01*
X534156Y406998D01*
X533830Y406510D01*
X533715Y405934D01*
X533830Y405358D01*
X534156Y404869D01*
X534645Y404543D01*
X535220Y404428D01*
X535797Y404543D01*
X536285Y404869D01*
X536611Y405358D01*
X536726Y405934D01*
X536611Y406510D01*
X536285Y406998D01*
X535797Y407325D01*
X535220Y407439D01*
D02*
G37*
G36*
X563567Y406652D02*
X562991Y406537D01*
X562503Y406211D01*
X562176Y405722D01*
X562062Y405146D01*
X562176Y404570D01*
X562503Y404082D01*
X562991Y403756D01*
X563567Y403641D01*
X564143Y403756D01*
X564631Y404082D01*
X564958Y404570D01*
X565072Y405146D01*
X564958Y405722D01*
X564631Y406211D01*
X564143Y406537D01*
X563567Y406652D01*
D02*
G37*
G36*
X543906Y413740D02*
X542395Y413541D01*
X540987Y412958D01*
X539778Y412030D01*
X538850Y410821D01*
X538267Y409413D01*
X538068Y407902D01*
X538267Y406391D01*
X538850Y404984D01*
X539778Y403775D01*
X540987Y402847D01*
X542395Y402264D01*
X543906Y402065D01*
X545416Y402264D01*
X546824Y402847D01*
X548033Y403775D01*
X548961Y404984D01*
X549544Y406391D01*
X549743Y407902D01*
X549544Y409413D01*
X548961Y410821D01*
X548033Y412030D01*
X546824Y412958D01*
X545416Y413541D01*
X543906Y413740D01*
D02*
G37*
G36*
X504906D02*
X503395Y413541D01*
X501987Y412958D01*
X500778Y412030D01*
X499850Y410821D01*
X499267Y409413D01*
X499068Y407902D01*
X499267Y406391D01*
X499850Y404984D01*
X500778Y403775D01*
X501987Y402847D01*
X503395Y402264D01*
X504906Y402065D01*
X506416Y402264D01*
X507824Y402847D01*
X509033Y403775D01*
X509961Y404984D01*
X510544Y406391D01*
X510743Y407902D01*
X510544Y409413D01*
X509961Y410821D01*
X509033Y412030D01*
X507824Y412958D01*
X506416Y413541D01*
X504906Y413740D01*
D02*
G37*
G36*
X512386Y404683D02*
X511810Y404569D01*
X511321Y404242D01*
X510995Y403754D01*
X510881Y403178D01*
X510995Y402602D01*
X511321Y402113D01*
X511810Y401787D01*
X512386Y401673D01*
X512962Y401787D01*
X513450Y402113D01*
X513777Y402602D01*
X513891Y403178D01*
X513777Y403754D01*
X513450Y404242D01*
X512962Y404569D01*
X512386Y404683D01*
D02*
G37*
G36*
X575973Y403579D02*
X575396Y403464D01*
X574908Y403138D01*
X574582Y402649D01*
X574467Y402073D01*
X574582Y401497D01*
X574908Y401009D01*
X575396Y400682D01*
X575973Y400568D01*
X576549Y400682D01*
X577037Y401009D01*
X577363Y401497D01*
X577478Y402073D01*
X577363Y402649D01*
X577037Y403138D01*
X576549Y403464D01*
X575973Y403579D01*
D02*
G37*
G36*
X541520Y400352D02*
X540944Y400238D01*
X540455Y399912D01*
X540129Y399423D01*
X540014Y398847D01*
X540129Y398271D01*
X540455Y397783D01*
X540944Y397457D01*
X541520Y397342D01*
X542096Y397457D01*
X542584Y397783D01*
X542910Y398271D01*
X543025Y398847D01*
X542910Y399423D01*
X542584Y399912D01*
X542096Y400238D01*
X541520Y400352D01*
D02*
G37*
G36*
X509630Y399959D02*
X509054Y399844D01*
X508566Y399518D01*
X508239Y399029D01*
X508125Y398453D01*
X508239Y397877D01*
X508566Y397389D01*
X509054Y397063D01*
X509630Y396948D01*
X510206Y397063D01*
X510694Y397389D01*
X511021Y397877D01*
X511135Y398453D01*
X511021Y399029D01*
X510694Y399518D01*
X510206Y399844D01*
X509630Y399959D01*
D02*
G37*
G36*
X521835Y395628D02*
X521259Y395514D01*
X520770Y395187D01*
X520444Y394699D01*
X520329Y394123D01*
X520444Y393547D01*
X520770Y393058D01*
X521259Y392732D01*
X521835Y392618D01*
X522411Y392732D01*
X522899Y393058D01*
X523225Y393547D01*
X523340Y394123D01*
X523225Y394699D01*
X522899Y395187D01*
X522411Y395514D01*
X521835Y395628D01*
D02*
G37*
G36*
X575378Y395234D02*
X574802Y395120D01*
X574314Y394794D01*
X573987Y394305D01*
X573873Y393729D01*
X573987Y393153D01*
X574314Y392665D01*
X574802Y392338D01*
X575378Y392224D01*
X575954Y392338D01*
X576442Y392665D01*
X576769Y393153D01*
X576883Y393729D01*
X576769Y394305D01*
X576442Y394794D01*
X575954Y395120D01*
X575378Y395234D01*
D02*
G37*
G36*
X550969Y394841D02*
X550392Y394726D01*
X549904Y394400D01*
X549578Y393911D01*
X549463Y393335D01*
X549578Y392759D01*
X549904Y392271D01*
X550392Y391945D01*
X550969Y391830D01*
X551545Y391945D01*
X552033Y392271D01*
X552359Y392759D01*
X552474Y393335D01*
X552359Y393911D01*
X552033Y394400D01*
X551545Y394726D01*
X550969Y394841D01*
D02*
G37*
G36*
X534827D02*
X534251Y394726D01*
X533762Y394400D01*
X533436Y393911D01*
X533322Y393335D01*
X533436Y392759D01*
X533762Y392271D01*
X534251Y391945D01*
X534827Y391830D01*
X535403Y391945D01*
X535891Y392271D01*
X536217Y392759D01*
X536332Y393335D01*
X536217Y393911D01*
X535891Y394400D01*
X535403Y394726D01*
X534827Y394841D01*
D02*
G37*
G36*
X545457Y394053D02*
X544881Y393939D01*
X544392Y393612D01*
X544066Y393124D01*
X543951Y392548D01*
X544066Y391972D01*
X544392Y391484D01*
X544881Y391157D01*
X545457Y391043D01*
X546033Y391157D01*
X546521Y391484D01*
X546847Y391972D01*
X546962Y392548D01*
X546847Y393124D01*
X546521Y393612D01*
X546033Y393939D01*
X545457Y394053D01*
D02*
G37*
G36*
X540339D02*
X539763Y393939D01*
X539274Y393612D01*
X538948Y393124D01*
X538833Y392548D01*
X538948Y391972D01*
X539274Y391484D01*
X539763Y391157D01*
X540339Y391043D01*
X540915Y391157D01*
X541403Y391484D01*
X541729Y391972D01*
X541844Y392548D01*
X541729Y393124D01*
X541403Y393612D01*
X540915Y393939D01*
X540339Y394053D01*
D02*
G37*
G36*
X545457Y388541D02*
X544881Y388427D01*
X544392Y388101D01*
X544066Y387612D01*
X543951Y387036D01*
X544066Y386460D01*
X544392Y385972D01*
X544881Y385645D01*
X545457Y385531D01*
X546033Y385645D01*
X546521Y385972D01*
X546847Y386460D01*
X546962Y387036D01*
X546847Y387612D01*
X546521Y388101D01*
X546033Y388427D01*
X545457Y388541D01*
D02*
G37*
G36*
X539551D02*
X538975Y388427D01*
X538487Y388101D01*
X538161Y387612D01*
X538046Y387036D01*
X538161Y386460D01*
X538487Y385972D01*
X538975Y385645D01*
X539551Y385531D01*
X540127Y385645D01*
X540616Y385972D01*
X540942Y386460D01*
X541056Y387036D01*
X540942Y387612D01*
X540616Y388101D01*
X540127Y388427D01*
X539551Y388541D01*
D02*
G37*
%LPD*%
D11*
X465929Y789791D02*
Y785856D01*
X468553D01*
X469865Y789136D02*
X470521Y789791D01*
X471833D01*
X472489Y789136D01*
Y788480D01*
X471833Y787824D01*
X471177D01*
X471833D01*
X472489Y787168D01*
Y786512D01*
X471833Y785856D01*
X470521D01*
X469865Y786512D01*
X477736Y787824D02*
X480360D01*
X485608Y785856D02*
Y789791D01*
X487576D01*
X488232Y789136D01*
Y787824D01*
X487576Y787168D01*
X485608D01*
X491511Y789791D02*
X490200D01*
X489544Y789136D01*
Y786512D01*
X490200Y785856D01*
X491511D01*
X492167Y786512D01*
Y789136D01*
X491511Y789791D01*
X493479D02*
Y785856D01*
X494791Y787168D01*
X496103Y785856D01*
Y789791D01*
X500039D02*
X497415D01*
Y785856D01*
X500039D01*
X497415Y787824D02*
X498727D01*
X501351Y785856D02*
Y789791D01*
X503319D01*
X503975Y789136D01*
Y787824D01*
X503319Y787168D01*
X501351D01*
X502663D02*
X503975Y785856D01*
D43*
X474591Y447272D02*
D03*
X497634Y445774D02*
D03*
X544669Y444517D02*
D03*
X546638Y551209D02*
D03*
X548213Y449635D02*
D03*
X541520Y703572D02*
D03*
X510024Y723257D02*
D03*
X541126Y446485D02*
D03*
X548410Y453670D02*
D03*
X548421Y457585D02*
D03*
X543291Y453670D02*
D03*
Y449733D02*
D03*
X543303Y457585D02*
D03*
X481087Y568631D02*
D03*
X557268Y526406D02*
D03*
X471479Y502035D02*
D03*
X567898Y503572D02*
D03*
X511598Y479556D02*
D03*
X471835Y651997D02*
D03*
X484039Y523257D02*
D03*
X469473Y505934D02*
D03*
X570654Y487036D02*
D03*
X475378Y550422D02*
D03*
X470654D02*
D03*
X473410Y397666D02*
D03*
X476559Y490973D02*
D03*
X560024Y516957D02*
D03*
X540732Y707509D02*
D03*
X499996Y473727D02*
D03*
X476559Y486643D02*
D03*
X563173Y500028D02*
D03*
X538579Y733963D02*
D03*
X471421Y680549D02*
D03*
X513906Y741002D02*
D03*
X544484Y476876D02*
D03*
X531099Y637900D02*
D03*
X482673Y723333D02*
D03*
X514563Y667034D02*
D03*
X518685Y668926D02*
D03*
X472251Y710244D02*
D03*
X522228Y666564D02*
D03*
X559236Y563414D02*
D03*
X510626Y709947D02*
D03*
X563173Y497272D02*
D03*
X562310Y565985D02*
D03*
X525587Y714278D02*
D03*
X535566Y662318D02*
D03*
X537398Y704042D02*
D03*
X502752Y568609D02*
D03*
X489658Y694030D02*
D03*
X482673Y702861D02*
D03*
X548028Y473727D02*
D03*
X534642Y680420D02*
D03*
X487976Y540186D02*
D03*
M02*
