G04*
G04 #@! TF.GenerationSoftware,Altium Limited,Altium Designer,21.3.1 (25)*
G04*
G04 Layer_Color=8388736*
%FSLAX25Y25*%
%MOIN*%
G70*
G04*
G04 #@! TF.SameCoordinates,17E3FC6B-7FA6-4A94-9312-BAE076C6F9B9*
G04*
G04*
G04 #@! TF.FilePolarity,Positive*
G04*
G01*
G75*
%ADD11C,0.00394*%
D11*
X539506Y362702D02*
G03*
X540206Y363402I0J700D01*
G01*
X508606Y363402D02*
G03*
X509306Y362702I700J0D01*
G01*
X590006Y374702D02*
G03*
X590706Y375402I0J700D01*
G01*
X540906Y374702D02*
G03*
X540206Y374002I0J-700D01*
G01*
X590706Y577602D02*
G03*
X590006Y578302I-700J0D01*
G01*
X554706Y579002D02*
G03*
X555406Y578302I700J0D01*
G01*
X554706Y752602D02*
G03*
X554006Y753302I-700J0D01*
G01*
X492911Y734507D02*
G03*
X494106Y735002I495J495D01*
G01*
X494805Y753302D02*
G03*
X494105Y752602I0J-700D01*
G01*
X458806Y741302D02*
G03*
X458106Y740602I0J-700D01*
G01*
X458106Y375402D02*
G03*
X458806Y374702I700J0D01*
G01*
X508606Y374002D02*
G03*
X507906Y374702I-700J0D01*
G01*
X509306Y362702D02*
X539506D01*
X540906Y374702D02*
X590006D01*
X540206Y363402D02*
Y374002D01*
X590705Y375402D02*
X590706Y577602D01*
X555406Y578302D02*
X590006D01*
X554705Y579002D02*
X554706Y752602D01*
X458806Y741302D02*
X486116D01*
X492911Y734507D01*
X494106Y735002D02*
Y752602D01*
X494906Y753302D02*
X554006D01*
X508606Y363402D02*
Y374002D01*
X458806Y374702D02*
X507906D01*
X458106Y740602D02*
X458106Y375402D01*
X465929Y789791D02*
Y785856D01*
X467897D01*
X468553Y786512D01*
Y787168D01*
X467897Y787824D01*
X465929D01*
X467897D01*
X468553Y788480D01*
Y789136D01*
X467897Y789791D01*
X465929D01*
X471833D02*
X470521D01*
X469865Y789136D01*
Y786512D01*
X470521Y785856D01*
X471833D01*
X472489Y786512D01*
Y789136D01*
X471833Y789791D01*
X473801Y785856D02*
Y788480D01*
X475113Y789791D01*
X476425Y788480D01*
Y785856D01*
Y787824D01*
X473801D01*
X477736Y785856D02*
Y789791D01*
X479704D01*
X480360Y789136D01*
Y787824D01*
X479704Y787168D01*
X477736D01*
X479048D02*
X480360Y785856D01*
X481672Y789791D02*
Y785856D01*
X483640D01*
X484296Y786512D01*
Y789136D01*
X483640Y789791D01*
X481672D01*
X489544Y785856D02*
Y789791D01*
X491511D01*
X492167Y789136D01*
Y787824D01*
X491511Y787168D01*
X489544D01*
X490856D02*
X492167Y785856D01*
X495447Y789791D02*
X494135D01*
X493479Y789136D01*
Y786512D01*
X494135Y785856D01*
X495447D01*
X496103Y786512D01*
Y789136D01*
X495447Y789791D01*
X497415D02*
Y786512D01*
X498071Y785856D01*
X499383D01*
X500039Y786512D01*
Y789791D01*
X501351D02*
X503975D01*
X502663D01*
Y785856D01*
X507910Y789791D02*
X505287D01*
Y785856D01*
X507910D01*
X505287Y787824D02*
X506599D01*
M02*
