G04*
G04 #@! TF.GenerationSoftware,Altium Limited,Altium Designer,21.3.1 (25)*
G04*
G04 Layer_Color=65535*
%FSLAX25Y25*%
%MOIN*%
G70*
G04*
G04 #@! TF.SameCoordinates,17E3FC6B-7FA6-4A94-9312-BAE076C6F9B9*
G04*
G04*
G04 #@! TF.FilePolarity,Positive*
G04*
G01*
G75*
%ADD10C,0.00591*%
%ADD11C,0.00394*%
%ADD12C,0.00787*%
G36*
X515547Y623262D02*
X516236Y624935D01*
X514858D01*
X515547Y623262D01*
D02*
G37*
D10*
X558016Y396965D02*
G03*
X558069Y390760I5184J-3059D01*
G01*
X566368Y399192D02*
G03*
X560163Y399139I-3059J-5184D01*
G01*
X568595Y390840D02*
G03*
X568542Y397045I-5184J3059D01*
G01*
X560243Y388613D02*
G03*
X566448Y388665I3059J5184D01*
G01*
X521343Y388613D02*
G03*
X527548Y388665I3059J5184D01*
G01*
X519116Y396965D02*
G03*
X519169Y390760I5184J-3059D01*
G01*
X527468Y399192D02*
G03*
X521263Y399139I-3059J-5184D01*
G01*
X529695Y390840D02*
G03*
X529642Y397045I-5184J3059D01*
G01*
X481695Y533340D02*
G03*
X481642Y539545I-5184J3059D01*
G01*
X473343Y531113D02*
G03*
X479548Y531165I3059J5184D01*
G01*
X471116Y539465D02*
G03*
X471169Y533260I5184J-3059D01*
G01*
X479468Y541692D02*
G03*
X473263Y541639I-3059J-5184D01*
G01*
X564880Y415997D02*
G03*
X569231Y420421I-1503J5828D01*
G01*
X557400Y420328D02*
G03*
X561825Y415977I5828J1503D01*
G01*
X561731Y427808D02*
G03*
X557380Y423383I1503J-5828D01*
G01*
X569211Y423477D02*
G03*
X564787Y427827I-5828J-1503D01*
G01*
X519116Y424965D02*
G03*
X519169Y418760I5184J-3059D01*
G01*
X527468Y427192D02*
G03*
X521263Y427139I-3059J-5184D01*
G01*
X529695Y418840D02*
G03*
X529642Y425045I-5184J3059D01*
G01*
X521343Y416613D02*
G03*
X527548Y416665I3059J5184D01*
G01*
X487080Y415997D02*
G03*
X491431Y420421I-1503J5828D01*
G01*
X479600Y420328D02*
G03*
X484024Y415977I5828J1503D01*
G01*
X483931Y427808D02*
G03*
X479580Y423383I1503J-5828D01*
G01*
X491411Y423477D02*
G03*
X486987Y427827I-5828J-1503D01*
G01*
X568595Y446840D02*
G03*
X568542Y453045I-5184J3059D01*
G01*
X560243Y444613D02*
G03*
X566448Y444665I3059J5184D01*
G01*
X558016Y452965D02*
G03*
X558069Y446760I5184J-3059D01*
G01*
X566368Y455192D02*
G03*
X560163Y455139I-3059J-5184D01*
G01*
X530311Y451477D02*
G03*
X525887Y455827I-5828J-1503D01*
G01*
X525980Y443997D02*
G03*
X530331Y448421I-1503J5828D01*
G01*
X518500Y448327D02*
G03*
X522925Y443977I5828J1503D01*
G01*
X522831Y455808D02*
G03*
X518480Y451383I1503J-5828D01*
G01*
X490795Y446840D02*
G03*
X490742Y453045I-5184J3059D01*
G01*
X482443Y444613D02*
G03*
X488648Y444665I3059J5184D01*
G01*
X480216Y452965D02*
G03*
X480269Y446760I5184J-3059D01*
G01*
X488568Y455192D02*
G03*
X482363Y455139I-3059J-5184D01*
G01*
X564880Y471997D02*
G03*
X569231Y476421I-1503J5828D01*
G01*
X557400Y476328D02*
G03*
X561825Y471977I5828J1503D01*
G01*
X561731Y483808D02*
G03*
X557380Y479383I1503J-5828D01*
G01*
X569211Y479477D02*
G03*
X564787Y483827I-5828J-1503D01*
G01*
X529695Y474840D02*
G03*
X529642Y481045I-5184J3059D01*
G01*
X521343Y472613D02*
G03*
X527548Y472665I3059J5184D01*
G01*
X519116Y480965D02*
G03*
X519169Y474760I5184J-3059D01*
G01*
X527468Y483192D02*
G03*
X521263Y483139I-3059J-5184D01*
G01*
X491411Y479477D02*
G03*
X486987Y483827I-5828J-1503D01*
G01*
X487080Y471997D02*
G03*
X491431Y476421I-1503J5828D01*
G01*
X479600Y476328D02*
G03*
X484024Y471977I5828J1503D01*
G01*
X483931Y483808D02*
G03*
X479580Y479383I1503J-5828D01*
G01*
X480216Y396965D02*
G03*
X480269Y390760I5184J-3059D01*
G01*
X488568Y399192D02*
G03*
X482363Y399139I-3059J-5184D01*
G01*
X490795Y390840D02*
G03*
X490742Y397045I-5184J3059D01*
G01*
X482443Y388613D02*
G03*
X488648Y388665I3059J5184D01*
G01*
X577726Y533340D02*
G03*
X577674Y539545I-5184J3059D01*
G01*
X569375Y531113D02*
G03*
X575579Y531165I3059J5184D01*
G01*
X567148Y539465D02*
G03*
X567200Y533260I5184J-3059D01*
G01*
X575499Y541692D02*
G03*
X569295Y541639I-3059J-5184D01*
G01*
X521343Y551113D02*
G03*
X527548Y551165I3059J5184D01*
G01*
X519116Y559465D02*
G03*
X519169Y553260I5184J-3059D01*
G01*
X527468Y561692D02*
G03*
X521263Y561639I-3059J-5184D01*
G01*
X529695Y553340D02*
G03*
X529642Y559545I-5184J3059D01*
G01*
X510311Y537977D02*
G03*
X505887Y542327I-5828J-1503D01*
G01*
X505980Y530497D02*
G03*
X510331Y534921I-1503J5828D01*
G01*
X498500Y534828D02*
G03*
X502924Y530477I5828J1503D01*
G01*
X502831Y542308D02*
G03*
X498481Y537883I1503J-5828D01*
G01*
X529695Y513340D02*
G03*
X529642Y519545I-5184J3059D01*
G01*
X521343Y511113D02*
G03*
X527548Y511165I3059J5184D01*
G01*
X519116Y519465D02*
G03*
X519169Y513260I5184J-3059D01*
G01*
X527468Y521692D02*
G03*
X521263Y521639I-3059J-5184D01*
G01*
X550311Y537977D02*
G03*
X545887Y542327I-5828J-1503D01*
G01*
X545980Y530497D02*
G03*
X550331Y534921I-1503J5828D01*
G01*
X538500Y534828D02*
G03*
X542924Y530477I5828J1503D01*
G01*
X542831Y542308D02*
G03*
X538481Y537883I1503J-5828D01*
G01*
X519681Y739479D02*
Y742479D01*
X503181Y739479D02*
Y742479D01*
X510342Y613420D02*
Y621392D01*
X513906D01*
X514169Y608203D02*
X534642D01*
X515547Y623262D02*
X516236Y624935D01*
X514957D02*
X516236D01*
X514957D02*
X515547Y623262D01*
X538470Y613420D02*
Y621392D01*
X534906D02*
X538470D01*
X542614Y720183D02*
X543992D01*
X515843Y711522D02*
X517220D01*
X512299D02*
X513677D01*
X539650Y711446D02*
X541028D01*
X536500D02*
X537878D01*
X519386Y711522D02*
X520764D01*
X533350Y711446D02*
X534728D01*
X542799D02*
X544177D01*
X536138Y730124D02*
Y731502D01*
X469998Y600339D02*
X468948Y599290D01*
X467899D01*
X466849Y600339D01*
X467899Y604012D02*
Y602438D01*
X468424Y601913D01*
X469473D01*
X469998Y602438D01*
Y604012D01*
Y605062D02*
X468948Y606111D01*
X467899D01*
X466849Y605062D01*
X469998Y612933D02*
Y610834D01*
X467899Y612933D01*
X467374D01*
X466849Y612409D01*
Y611359D01*
X467374Y610834D01*
Y613983D02*
X466849Y614508D01*
Y615557D01*
X467374Y616082D01*
X469473D01*
X469998Y615557D01*
Y614508D01*
X469473Y613983D01*
X467374D01*
X469998Y619231D02*
Y617132D01*
X467899Y619231D01*
X467374D01*
X466849Y618706D01*
Y617656D01*
X467374Y617132D01*
Y620280D02*
X466849Y620805D01*
Y621854D01*
X467374Y622379D01*
X469473D01*
X469998Y621854D01*
Y620805D01*
X469473Y620280D01*
X467374D01*
X466849Y628676D02*
Y626577D01*
X468424D01*
Y627627D01*
Y626577D01*
X469998D01*
Y630251D02*
Y631300D01*
X469473Y631825D01*
X468424D01*
X467899Y631300D01*
Y630251D01*
X468424Y629726D01*
X469473D01*
X469998Y630251D01*
X467899Y632874D02*
X469473D01*
X469998Y633399D01*
Y634973D01*
X467899D01*
X469998Y636023D02*
X467899D01*
Y637597D01*
X468424Y638122D01*
X469998D01*
X466849Y641271D02*
X469998D01*
Y639696D01*
X469473Y639172D01*
X468424D01*
X467899Y639696D01*
Y641271D01*
Y642845D02*
Y643895D01*
X468424Y644419D01*
X469998D01*
Y642845D01*
X469473Y642320D01*
X468948Y642845D01*
Y644419D01*
X467374Y645994D02*
X467899D01*
Y645469D01*
Y646518D01*
Y645994D01*
X469473D01*
X469998Y646518D01*
Y648093D02*
Y649142D01*
Y648618D01*
X467899D01*
Y648093D01*
X469998Y651241D02*
Y652291D01*
X469473Y652816D01*
X468424D01*
X467899Y652291D01*
Y651241D01*
X468424Y650716D01*
X469473D01*
X469998Y651241D01*
Y653865D02*
X467899D01*
Y655439D01*
X468424Y655964D01*
X469998D01*
X466849Y660162D02*
X469998D01*
Y661737D01*
X469473Y662261D01*
X467374D01*
X466849Y661737D01*
Y660162D01*
X469998Y664885D02*
Y663836D01*
X469473Y663311D01*
X468424D01*
X467899Y663836D01*
Y664885D01*
X468424Y665410D01*
X468948D01*
Y663311D01*
X467899Y666460D02*
X469998Y667509D01*
X467899Y668559D01*
X469998Y669608D02*
Y670658D01*
Y670133D01*
X467899D01*
Y669608D01*
Y674331D02*
Y672757D01*
X468424Y672232D01*
X469473D01*
X469998Y672757D01*
Y674331D01*
Y676955D02*
Y675905D01*
X469473Y675381D01*
X468424D01*
X467899Y675905D01*
Y676955D01*
X468424Y677480D01*
X468948D01*
Y675381D01*
X469998Y678529D02*
Y680103D01*
X469473Y680628D01*
X468948Y680103D01*
Y679054D01*
X468424Y678529D01*
X467899Y679054D01*
Y680628D01*
X470522Y682202D02*
X469998Y682727D01*
X469473D01*
Y682202D01*
X469998D01*
Y682727D01*
X470522Y682202D01*
X471047Y681678D01*
X466849Y687975D02*
Y689024D01*
Y688500D01*
X469998D01*
Y687975D01*
Y689024D01*
Y690599D02*
X467899D01*
Y692173D01*
X468424Y692698D01*
X469998D01*
X467899Y695846D02*
Y694272D01*
X468424Y693747D01*
X469473D01*
X469998Y694272D01*
Y695846D01*
Y696896D02*
X469473D01*
Y697421D01*
X469998D01*
Y696896D01*
X545851Y391958D02*
X545457Y391565D01*
Y390777D01*
X545851Y390384D01*
X546244D01*
X546638Y390777D01*
Y391565D01*
X547031Y391958D01*
X547425D01*
X547819Y391565D01*
Y390777D01*
X547425Y390384D01*
X545457Y392745D02*
X547819D01*
X547031Y393532D01*
X547819Y394320D01*
X545457D01*
X547819Y395107D02*
Y395894D01*
Y395500D01*
X545457D01*
X545851Y395107D01*
Y397075D02*
X545457Y397468D01*
Y398255D01*
X545851Y398649D01*
X546244D01*
X546638Y398255D01*
X547031Y398649D01*
X547425D01*
X547819Y398255D01*
Y397468D01*
X547425Y397075D01*
X547031D01*
X546638Y397468D01*
X546244Y397075D01*
X545851D01*
X546638Y397468D02*
Y398255D01*
X507169Y391396D02*
X506775Y391003D01*
Y390216D01*
X507169Y389822D01*
X507562D01*
X507956Y390216D01*
Y391003D01*
X508349Y391396D01*
X508743D01*
X509137Y391003D01*
Y390216D01*
X508743Y389822D01*
X506775Y392183D02*
X509137D01*
X508349Y392971D01*
X509137Y393758D01*
X506775D01*
X509137Y394545D02*
Y395332D01*
Y394938D01*
X506775D01*
X507169Y394545D01*
X506775Y396513D02*
Y398087D01*
X507169D01*
X508743Y396513D01*
X509137D01*
X474788Y520501D02*
X474395Y520894D01*
X473607D01*
X473214Y520501D01*
Y520107D01*
X473607Y519713D01*
X474395D01*
X474788Y519320D01*
Y518926D01*
X474395Y518533D01*
X473607D01*
X473214Y518926D01*
X475575Y520894D02*
Y518533D01*
X476363Y519320D01*
X477150Y518533D01*
Y520894D01*
X477937Y518533D02*
X478724D01*
X478330D01*
Y520894D01*
X477937Y520501D01*
X481479Y520894D02*
X480692Y520501D01*
X479905Y519713D01*
Y518926D01*
X480298Y518533D01*
X481085D01*
X481479Y518926D01*
Y519320D01*
X481085Y519713D01*
X479905D01*
X544276Y419911D02*
X543882Y419517D01*
Y418730D01*
X544276Y418337D01*
X544669D01*
X545063Y418730D01*
Y419517D01*
X545457Y419911D01*
X545850D01*
X546244Y419517D01*
Y418730D01*
X545850Y418337D01*
X543882Y420698D02*
X546244D01*
X545457Y421485D01*
X546244Y422272D01*
X543882D01*
X546244Y423060D02*
Y423847D01*
Y423453D01*
X543882D01*
X544276Y423060D01*
X543882Y426602D02*
Y425028D01*
X545063D01*
X544669Y425815D01*
Y426208D01*
X545063Y426602D01*
X545850D01*
X546244Y426208D01*
Y425421D01*
X545850Y425028D01*
X507268Y420305D02*
X506874Y419911D01*
Y419124D01*
X507268Y418730D01*
X507662D01*
X508055Y419124D01*
Y419911D01*
X508449Y420305D01*
X508842D01*
X509236Y419911D01*
Y419124D01*
X508842Y418730D01*
X506874Y421092D02*
X509236D01*
X508449Y421879D01*
X509236Y422666D01*
X506874D01*
X509236Y423453D02*
Y424240D01*
Y423847D01*
X506874D01*
X507268Y423453D01*
X509236Y426602D02*
X506874D01*
X508055Y425421D01*
Y426995D01*
X467898Y419124D02*
X467504Y418730D01*
Y417943D01*
X467898Y417549D01*
X468292D01*
X468685Y417943D01*
Y418730D01*
X469079Y419124D01*
X469472D01*
X469866Y418730D01*
Y417943D01*
X469472Y417549D01*
X467504Y419911D02*
X469866D01*
X469079Y420698D01*
X469866Y421485D01*
X467504D01*
X469866Y422272D02*
Y423059D01*
Y422666D01*
X467504D01*
X467898Y422272D01*
Y424240D02*
X467504Y424634D01*
Y425421D01*
X467898Y425814D01*
X468292D01*
X468685Y425421D01*
Y425027D01*
Y425421D01*
X469079Y425814D01*
X469472D01*
X469866Y425421D01*
Y424634D01*
X469472Y424240D01*
X544276Y447864D02*
X543882Y447470D01*
Y446683D01*
X544276Y446289D01*
X544669D01*
X545063Y446683D01*
Y447470D01*
X545457Y447864D01*
X545850D01*
X546244Y447470D01*
Y446683D01*
X545850Y446289D01*
X543882Y448651D02*
X546244D01*
X545457Y449438D01*
X546244Y450225D01*
X543882D01*
X546244Y451012D02*
Y451799D01*
Y451406D01*
X543882D01*
X544276Y451012D01*
X546244Y454555D02*
Y452980D01*
X544669Y454555D01*
X544276D01*
X543882Y454161D01*
Y453374D01*
X544276Y452980D01*
X507268Y447864D02*
X506874Y447470D01*
Y446683D01*
X507268Y446289D01*
X507662D01*
X508055Y446683D01*
Y447470D01*
X508449Y447864D01*
X508842D01*
X509236Y447470D01*
Y446683D01*
X508842Y446289D01*
X506874Y448651D02*
X509236D01*
X508449Y449438D01*
X509236Y450225D01*
X506874D01*
X509236Y451012D02*
Y451799D01*
Y451406D01*
X506874D01*
X507268Y451012D01*
X509236Y452980D02*
Y453767D01*
Y453374D01*
X506874D01*
X507268Y452980D01*
X468685Y447470D02*
X468292Y447077D01*
Y446289D01*
X468685Y445896D01*
X469079D01*
X469473Y446289D01*
Y447077D01*
X469866Y447470D01*
X470260D01*
X470653Y447077D01*
Y446289D01*
X470260Y445896D01*
X468292Y448257D02*
X470653D01*
X469866Y449044D01*
X470653Y449831D01*
X468292D01*
X470653Y450619D02*
Y451406D01*
Y451012D01*
X468292D01*
X468685Y450619D01*
Y452587D02*
X468292Y452980D01*
Y453767D01*
X468685Y454161D01*
X470260D01*
X470653Y453767D01*
Y452980D01*
X470260Y452587D01*
X468685D01*
X544276Y476800D02*
X543882Y476407D01*
Y475620D01*
X544276Y475226D01*
X544669D01*
X545063Y475620D01*
Y476407D01*
X545457Y476800D01*
X545850D01*
X546244Y476407D01*
Y475620D01*
X545850Y475226D01*
X543882Y477588D02*
X546244D01*
X545457Y478375D01*
X546244Y479162D01*
X543882D01*
X545850Y479949D02*
X546244Y480343D01*
Y481130D01*
X545850Y481523D01*
X544276D01*
X543882Y481130D01*
Y480343D01*
X544276Y479949D01*
X544669D01*
X545063Y480343D01*
Y481523D01*
X505693Y476800D02*
X505300Y476407D01*
Y475620D01*
X505693Y475226D01*
X506087D01*
X506480Y475620D01*
Y476407D01*
X506874Y476800D01*
X507268D01*
X507661Y476407D01*
Y475620D01*
X507268Y475226D01*
X505300Y477588D02*
X507661D01*
X506874Y478375D01*
X507661Y479162D01*
X505300D01*
X505693Y479949D02*
X505300Y480343D01*
Y481130D01*
X505693Y481523D01*
X506087D01*
X506480Y481130D01*
X506874Y481523D01*
X507268D01*
X507661Y481130D01*
Y480343D01*
X507268Y479949D01*
X506874D01*
X506480Y480343D01*
X506087Y479949D01*
X505693D01*
X506480Y480343D02*
Y481130D01*
X468292Y476013D02*
X467898Y475620D01*
Y474832D01*
X468292Y474439D01*
X468685D01*
X469079Y474832D01*
Y475620D01*
X469472Y476013D01*
X469866D01*
X470260Y475620D01*
Y474832D01*
X469866Y474439D01*
X467898Y476800D02*
X470260D01*
X469472Y477587D01*
X470260Y478374D01*
X467898D01*
Y479162D02*
Y480736D01*
X468292D01*
X469866Y479162D01*
X470260D01*
X468292Y392942D02*
X467898Y392549D01*
Y391761D01*
X468292Y391368D01*
X468685D01*
X469079Y391761D01*
Y392549D01*
X469472Y392942D01*
X469866D01*
X470260Y392549D01*
Y391761D01*
X469866Y391368D01*
X467898Y393729D02*
X470260D01*
X469472Y394516D01*
X470260Y395304D01*
X467898D01*
Y397665D02*
X468292Y396878D01*
X469079Y396091D01*
X469866D01*
X470260Y396484D01*
Y397271D01*
X469866Y397665D01*
X469472D01*
X469079Y397271D01*
Y396091D01*
X571835Y520501D02*
X571442Y520894D01*
X570654D01*
X570261Y520501D01*
Y520107D01*
X570654Y519713D01*
X571442D01*
X571835Y519320D01*
Y518926D01*
X571442Y518533D01*
X570654D01*
X570261Y518926D01*
X572622Y520894D02*
Y518533D01*
X573410Y519320D01*
X574197Y518533D01*
Y520894D01*
X576558D02*
X574984D01*
Y519713D01*
X575771Y520107D01*
X576164D01*
X576558Y519713D01*
Y518926D01*
X576164Y518533D01*
X575377D01*
X574984Y518926D01*
X522623Y540579D02*
X522229Y540973D01*
X521442D01*
X521048Y540579D01*
Y540186D01*
X521442Y539792D01*
X522229D01*
X522623Y539398D01*
Y539005D01*
X522229Y538611D01*
X521442D01*
X521048Y539005D01*
X523410Y540973D02*
Y538611D01*
X524197Y539398D01*
X524984Y538611D01*
Y540973D01*
X526952Y538611D02*
Y540973D01*
X525771Y539792D01*
X527346D01*
X502544Y520107D02*
X502150Y520500D01*
X501363D01*
X500970Y520107D01*
Y519713D01*
X501363Y519320D01*
X502150D01*
X502544Y518926D01*
Y518533D01*
X502150Y518139D01*
X501363D01*
X500970Y518533D01*
X503331Y520500D02*
Y518139D01*
X504118Y518926D01*
X504905Y518139D01*
Y520500D01*
X505692Y520107D02*
X506086Y520500D01*
X506873D01*
X507267Y520107D01*
Y519713D01*
X506873Y519320D01*
X506480D01*
X506873D01*
X507267Y518926D01*
Y518533D01*
X506873Y518139D01*
X506086D01*
X505692Y518533D01*
X523016Y501209D02*
X522623Y501603D01*
X521836D01*
X521442Y501209D01*
Y500816D01*
X521836Y500422D01*
X522623D01*
X523016Y500028D01*
Y499635D01*
X522623Y499241D01*
X521836D01*
X521442Y499635D01*
X523803Y501603D02*
Y499241D01*
X524591Y500028D01*
X525378Y499241D01*
Y501603D01*
X527739Y499241D02*
X526165D01*
X527739Y500816D01*
Y501209D01*
X527346Y501603D01*
X526558D01*
X526165Y501209D01*
X543882Y519713D02*
X543489Y520107D01*
X542702D01*
X542308Y519713D01*
Y519319D01*
X542702Y518926D01*
X543489D01*
X543882Y518532D01*
Y518139D01*
X543489Y517745D01*
X542702D01*
X542308Y518139D01*
X544669Y520107D02*
Y517745D01*
X545457Y518532D01*
X546244Y517745D01*
Y520107D01*
X547031Y517745D02*
X547818D01*
X547425D01*
Y520107D01*
X547031Y519713D01*
X538764Y736642D02*
Y734674D01*
X539158Y734281D01*
X539945D01*
X540339Y734674D01*
Y736642D01*
X542700D02*
X541126D01*
Y735461D01*
X541913Y735855D01*
X542307D01*
X542700Y735461D01*
Y734674D01*
X542307Y734281D01*
X541519D01*
X541126Y734674D01*
X534434Y727981D02*
X534040Y728374D01*
X533253D01*
X532859Y727981D01*
Y726406D01*
X533253Y726013D01*
X534040D01*
X534434Y726406D01*
X536402Y726013D02*
Y728374D01*
X535221Y727194D01*
X536795D01*
X538763Y726013D02*
Y728374D01*
X537582Y727194D01*
X539156D01*
X545063Y701406D02*
X542701D01*
Y702587D01*
X543095Y702981D01*
X543882D01*
X544276Y702587D01*
Y701406D01*
Y702193D02*
X545063Y702981D01*
Y705342D02*
Y703768D01*
X543488Y705342D01*
X543095D01*
X542701Y704948D01*
Y704161D01*
X543095Y703768D01*
X545063Y707703D02*
Y706129D01*
X543488Y707703D01*
X543095D01*
X542701Y707310D01*
Y706523D01*
X543095Y706129D01*
X534433Y701406D02*
X532071D01*
Y702587D01*
X532465Y702981D01*
X533252D01*
X533646Y702587D01*
Y701406D01*
Y702193D02*
X534433Y702981D01*
Y705342D02*
Y703768D01*
X532858Y705342D01*
X532465D01*
X532071Y704948D01*
Y704161D01*
X532465Y703768D01*
X534433Y706129D02*
Y706916D01*
Y706523D01*
X532071D01*
X532465Y706129D01*
X521441Y701013D02*
X519079D01*
Y702193D01*
X519473Y702587D01*
X520260D01*
X520653Y702193D01*
Y701013D01*
Y701800D02*
X521441Y702587D01*
Y704948D02*
Y703374D01*
X519866Y704948D01*
X519473D01*
X519079Y704555D01*
Y703767D01*
X519473Y703374D01*
Y705735D02*
X519079Y706129D01*
Y706916D01*
X519473Y707310D01*
X521047D01*
X521441Y706916D01*
Y706129D01*
X521047Y705735D01*
X519473D01*
X537976Y701406D02*
X535615D01*
Y702587D01*
X536008Y702981D01*
X536795D01*
X537189Y702587D01*
Y701406D01*
Y702193D02*
X537976Y702981D01*
Y703768D02*
Y704555D01*
Y704161D01*
X535615D01*
X536008Y703768D01*
X537582Y705735D02*
X537976Y706129D01*
Y706916D01*
X537582Y707310D01*
X536008D01*
X535615Y706916D01*
Y706129D01*
X536008Y705735D01*
X536402D01*
X536795Y706129D01*
Y707310D01*
X541519Y701406D02*
X539158D01*
Y702587D01*
X539551Y702981D01*
X540339D01*
X540732Y702587D01*
Y701406D01*
Y702193D02*
X541519Y702981D01*
Y703768D02*
Y704555D01*
Y704161D01*
X539158D01*
X539551Y703768D01*
Y705735D02*
X539158Y706129D01*
Y706916D01*
X539551Y707310D01*
X539945D01*
X540339Y706916D01*
X540732Y707310D01*
X541126D01*
X541519Y706916D01*
Y706129D01*
X541126Y705735D01*
X540732D01*
X540339Y706129D01*
X539945Y705735D01*
X539551D01*
X540339Y706129D02*
Y706916D01*
X514354Y701013D02*
X511993D01*
Y702193D01*
X512386Y702587D01*
X513173D01*
X513567Y702193D01*
Y701013D01*
Y701800D02*
X514354Y702587D01*
Y703374D02*
Y704161D01*
Y703767D01*
X511993D01*
X512386Y703374D01*
X511993Y705342D02*
Y706916D01*
X512386D01*
X513960Y705342D01*
X514354D01*
X517897Y701013D02*
X515536D01*
Y702193D01*
X515929Y702587D01*
X516717D01*
X517110Y702193D01*
Y701013D01*
Y701800D02*
X517897Y702587D01*
Y703374D02*
Y704161D01*
Y703767D01*
X515536D01*
X515929Y703374D01*
X515536Y706916D02*
X515929Y706129D01*
X516717Y705342D01*
X517504D01*
X517897Y705735D01*
Y706523D01*
X517504Y706916D01*
X517110D01*
X516717Y706523D01*
Y705342D01*
X520655Y737036D02*
Y734674D01*
X522229D01*
X524591Y737036D02*
X523016D01*
Y734674D01*
X524591D01*
X523016Y735855D02*
X523804D01*
X525378Y737036D02*
Y734674D01*
X526559D01*
X526952Y735068D01*
Y736642D01*
X526559Y737036D01*
X525378D01*
X529314Y734674D02*
X527739D01*
X529314Y736249D01*
Y736642D01*
X528920Y737036D01*
X528133D01*
X527739Y736642D01*
X504119Y737430D02*
Y735068D01*
X505694D01*
X508055Y737430D02*
X506481D01*
Y735068D01*
X508055D01*
X506481Y736249D02*
X507268D01*
X508842Y737430D02*
Y735068D01*
X510023D01*
X510417Y735462D01*
Y737036D01*
X510023Y737430D01*
X508842D01*
X511204Y735068D02*
X511991D01*
X511597D01*
Y737430D01*
X511204Y737036D01*
X510229Y605836D02*
X509442D01*
X509836D01*
Y603868D01*
X509442Y603475D01*
X509049D01*
X508655Y603868D01*
X512591Y603475D02*
X511016D01*
X512591Y605049D01*
Y605443D01*
X512197Y605836D01*
X511410D01*
X511016Y605443D01*
X542307Y726210D02*
X541914Y725816D01*
Y725029D01*
X542307Y724636D01*
X543882D01*
X544275Y725029D01*
Y725816D01*
X543882Y726210D01*
X544275Y726997D02*
Y727784D01*
Y727391D01*
X541914D01*
X542307Y726997D01*
Y728965D02*
X541914Y729358D01*
Y730146D01*
X542307Y730539D01*
X542701D01*
X543094Y730146D01*
X543488Y730539D01*
X543882D01*
X544275Y730146D01*
Y729358D01*
X543882Y728965D01*
X543488D01*
X543094Y729358D01*
X542701Y728965D01*
X542307D01*
X543094Y729358D02*
Y730146D01*
D11*
X538602Y738502D02*
G03*
X538602Y738502I-197J0D01*
G01*
X465929Y789791D02*
X468553D01*
X467241D01*
Y785856D01*
X471833Y789791D02*
X470521D01*
X469865Y789136D01*
Y786512D01*
X470521Y785856D01*
X471833D01*
X472489Y786512D01*
Y789136D01*
X471833Y789791D01*
X473801Y785856D02*
Y789791D01*
X475769D01*
X476425Y789136D01*
Y787824D01*
X475769Y787168D01*
X473801D01*
X483640Y789791D02*
X482328D01*
X481672Y789136D01*
Y786512D01*
X482328Y785856D01*
X483640D01*
X484296Y786512D01*
Y789136D01*
X483640Y789791D01*
X485608D02*
Y787168D01*
X486920Y785856D01*
X488232Y787168D01*
Y789791D01*
X492167D02*
X489544D01*
Y785856D01*
X492167D01*
X489544Y787824D02*
X490856D01*
X493479Y785856D02*
Y789791D01*
X495447D01*
X496103Y789136D01*
Y787824D01*
X495447Y787168D01*
X493479D01*
X494791D02*
X496103Y785856D01*
X497415Y789791D02*
Y785856D01*
X500039D01*
X501351D02*
Y788480D01*
X502663Y789791D01*
X503975Y788480D01*
Y785856D01*
Y787824D01*
X501351D01*
X505287Y789791D02*
Y789136D01*
X506599Y787824D01*
X507910Y789136D01*
Y789791D01*
X506599Y787824D02*
Y785856D01*
D12*
X472692Y714989D02*
Y718925D01*
X474659D01*
X475315Y718269D01*
Y716957D01*
X474659Y716301D01*
X472692D01*
X474004D02*
X475315Y714989D01*
X479251Y718925D02*
X476627D01*
Y714989D01*
X479251D01*
X476627Y716957D02*
X477939D01*
X480563Y718925D02*
Y716301D01*
X481875Y714989D01*
X483187Y716301D01*
Y718925D01*
X484499Y717613D02*
X485155D01*
Y716957D01*
X484499D01*
Y717613D01*
Y715645D02*
X485155D01*
Y714989D01*
X484499D01*
Y715645D01*
X494338Y718925D02*
X491714D01*
Y714989D01*
X494338D01*
X491714Y716957D02*
X493026D01*
X495650Y714989D02*
X496962D01*
X496306D01*
Y718925D01*
X495650Y718269D01*
M02*
