G04*
G04 #@! TF.GenerationSoftware,Altium Limited,Altium Designer,20.2.6 (244)*
G04*
G04 Layer_Color=255*
%FSLAX25Y25*%
%MOIN*%
G70*
G04*
G04 #@! TF.SameCoordinates,D103880D-7D63-4280-A8AA-78B1B6904BBD*
G04*
G04*
G04 #@! TF.FilePolarity,Positive*
G04*
G01*
G75*
G04:AMPARAMS|DCode=13|XSize=11.81mil|YSize=31.5mil|CornerRadius=1.48mil|HoleSize=0mil|Usage=FLASHONLY|Rotation=0.000|XOffset=0mil|YOffset=0mil|HoleType=Round|Shape=RoundedRectangle|*
%AMROUNDEDRECTD13*
21,1,0.01181,0.02854,0,0,0.0*
21,1,0.00886,0.03150,0,0,0.0*
1,1,0.00295,0.00443,-0.01427*
1,1,0.00295,-0.00443,-0.01427*
1,1,0.00295,-0.00443,0.01427*
1,1,0.00295,0.00443,0.01427*
%
%ADD13ROUNDEDRECTD13*%
G04:AMPARAMS|DCode=14|XSize=23.62mil|YSize=39.37mil|CornerRadius=2.95mil|HoleSize=0mil|Usage=FLASHONLY|Rotation=0.000|XOffset=0mil|YOffset=0mil|HoleType=Round|Shape=RoundedRectangle|*
%AMROUNDEDRECTD14*
21,1,0.02362,0.03347,0,0,0.0*
21,1,0.01772,0.03937,0,0,0.0*
1,1,0.00591,0.00886,-0.01673*
1,1,0.00591,-0.00886,-0.01673*
1,1,0.00591,-0.00886,0.01673*
1,1,0.00591,0.00886,0.01673*
%
%ADD14ROUNDEDRECTD14*%
%ADD15C,0.00984*%
G04:AMPARAMS|DCode=16|XSize=20.47mil|YSize=20.47mil|CornerRadius=4.1mil|HoleSize=0mil|Usage=FLASHONLY|Rotation=180.000|XOffset=0mil|YOffset=0mil|HoleType=Round|Shape=RoundedRectangle|*
%AMROUNDEDRECTD16*
21,1,0.02047,0.01228,0,0,180.0*
21,1,0.01228,0.02047,0,0,180.0*
1,1,0.00819,-0.00614,0.00614*
1,1,0.00819,0.00614,0.00614*
1,1,0.00819,0.00614,-0.00614*
1,1,0.00819,-0.00614,-0.00614*
%
%ADD16ROUNDEDRECTD16*%
G04:AMPARAMS|DCode=17|XSize=31.5mil|YSize=27.56mil|CornerRadius=3.45mil|HoleSize=0mil|Usage=FLASHONLY|Rotation=270.000|XOffset=0mil|YOffset=0mil|HoleType=Round|Shape=RoundedRectangle|*
%AMROUNDEDRECTD17*
21,1,0.03150,0.02067,0,0,270.0*
21,1,0.02461,0.02756,0,0,270.0*
1,1,0.00689,-0.01034,-0.01230*
1,1,0.00689,-0.01034,0.01230*
1,1,0.00689,0.01034,0.01230*
1,1,0.00689,0.01034,-0.01230*
%
%ADD17ROUNDEDRECTD17*%
G04:AMPARAMS|DCode=18|XSize=20.47mil|YSize=20.47mil|CornerRadius=4.1mil|HoleSize=0mil|Usage=FLASHONLY|Rotation=270.000|XOffset=0mil|YOffset=0mil|HoleType=Round|Shape=RoundedRectangle|*
%AMROUNDEDRECTD18*
21,1,0.02047,0.01228,0,0,270.0*
21,1,0.01228,0.02047,0,0,270.0*
1,1,0.00819,-0.00614,-0.00614*
1,1,0.00819,-0.00614,0.00614*
1,1,0.00819,0.00614,0.00614*
1,1,0.00819,0.00614,-0.00614*
%
%ADD18ROUNDEDRECTD18*%
%ADD33C,0.15748*%
G04:AMPARAMS|DCode=34|XSize=39.37mil|YSize=78.74mil|CornerRadius=4.92mil|HoleSize=0mil|Usage=FLASHONLY|Rotation=45.000|XOffset=0mil|YOffset=0mil|HoleType=Round|Shape=RoundedRectangle|*
%AMROUNDEDRECTD34*
21,1,0.03937,0.06890,0,0,45.0*
21,1,0.02953,0.07874,0,0,45.0*
1,1,0.00984,0.03480,-0.01392*
1,1,0.00984,0.01392,-0.03480*
1,1,0.00984,-0.03480,0.01392*
1,1,0.00984,-0.01392,0.03480*
%
%ADD34ROUNDEDRECTD34*%
G04:AMPARAMS|DCode=35|XSize=39.37mil|YSize=78.74mil|CornerRadius=4.92mil|HoleSize=0mil|Usage=FLASHONLY|Rotation=315.000|XOffset=0mil|YOffset=0mil|HoleType=Round|Shape=RoundedRectangle|*
%AMROUNDEDRECTD35*
21,1,0.03937,0.06890,0,0,315.0*
21,1,0.02953,0.07874,0,0,315.0*
1,1,0.00984,-0.01392,-0.03480*
1,1,0.00984,-0.03480,-0.01392*
1,1,0.00984,0.01392,0.03480*
1,1,0.00984,0.03480,0.01392*
%
%ADD35ROUNDEDRECTD35*%
%ADD36C,0.03937*%
G04:AMPARAMS|DCode=37|XSize=39.37mil|YSize=78.74mil|CornerRadius=4.92mil|HoleSize=0mil|Usage=FLASHONLY|Rotation=270.000|XOffset=0mil|YOffset=0mil|HoleType=Round|Shape=RoundedRectangle|*
%AMROUNDEDRECTD37*
21,1,0.03937,0.06890,0,0,270.0*
21,1,0.02953,0.07874,0,0,270.0*
1,1,0.00984,-0.03445,-0.01476*
1,1,0.00984,-0.03445,0.01476*
1,1,0.00984,0.03445,0.01476*
1,1,0.00984,0.03445,-0.01476*
%
%ADD37ROUNDEDRECTD37*%
G04:AMPARAMS|DCode=38|XSize=39.37mil|YSize=78.74mil|CornerRadius=4.92mil|HoleSize=0mil|Usage=FLASHONLY|Rotation=180.000|XOffset=0mil|YOffset=0mil|HoleType=Round|Shape=RoundedRectangle|*
%AMROUNDEDRECTD38*
21,1,0.03937,0.06890,0,0,180.0*
21,1,0.02953,0.07874,0,0,180.0*
1,1,0.00984,-0.01476,0.03445*
1,1,0.00984,0.01476,0.03445*
1,1,0.00984,0.01476,-0.03445*
1,1,0.00984,-0.01476,-0.03445*
%
%ADD38ROUNDEDRECTD38*%
D13*
X515547Y620801D02*
D03*
X517516D02*
D03*
X519484D02*
D03*
X521453D02*
D03*
X523421D02*
D03*
X525390D02*
D03*
X527358D02*
D03*
X529327D02*
D03*
X531295D02*
D03*
X533264D02*
D03*
D14*
X511807Y610172D02*
D03*
X537004D02*
D03*
D15*
X541890Y740018D02*
D03*
X539921D02*
D03*
X541890Y741987D02*
D03*
X539921D02*
D03*
D16*
X543303Y721837D02*
D03*
Y718530D02*
D03*
X516532Y709868D02*
D03*
Y713175D02*
D03*
X512988Y709868D02*
D03*
Y713175D02*
D03*
X540339Y709792D02*
D03*
Y713099D02*
D03*
X537189Y709792D02*
D03*
Y713099D02*
D03*
X520075Y709868D02*
D03*
Y713175D02*
D03*
X534039Y709792D02*
D03*
Y713099D02*
D03*
X543488Y709792D02*
D03*
Y713099D02*
D03*
D17*
X510465Y741002D02*
D03*
X505346D02*
D03*
X526965D02*
D03*
X521846D02*
D03*
D18*
X537791Y730813D02*
D03*
X534484D02*
D03*
D33*
X563306Y393902D02*
D03*
X544406Y536402D02*
D03*
X524405Y516402D02*
D03*
X504405Y536402D02*
D03*
X524405Y556402D02*
D03*
X572437Y536402D02*
D03*
X485506Y393902D02*
D03*
Y477902D02*
D03*
X524405D02*
D03*
X563306D02*
D03*
X485506Y449902D02*
D03*
X524405D02*
D03*
X563306D02*
D03*
X485506Y421902D02*
D03*
X524405D02*
D03*
X563306D02*
D03*
X476406Y536402D02*
D03*
X524405Y393902D02*
D03*
D34*
X555511Y386107D02*
D03*
X571100Y401697D02*
D03*
X532200Y524197D02*
D03*
X516611Y508607D02*
D03*
Y548607D02*
D03*
X532200Y564197D02*
D03*
X580232Y544197D02*
D03*
X564642Y528607D02*
D03*
X477711Y386107D02*
D03*
X493300Y401697D02*
D03*
X532200Y485697D02*
D03*
X516611Y470107D02*
D03*
X493300Y457697D02*
D03*
X477711Y442107D02*
D03*
X571100Y457697D02*
D03*
X555511Y442107D02*
D03*
X516611Y414107D02*
D03*
X532200Y429697D02*
D03*
X484200Y544197D02*
D03*
X468611Y528607D02*
D03*
X532200Y401697D02*
D03*
X516611Y386107D02*
D03*
D35*
X555511Y401697D02*
D03*
X571100Y386107D02*
D03*
X532200Y508607D02*
D03*
X516611Y524197D02*
D03*
X532200Y548607D02*
D03*
X516611Y564197D02*
D03*
X580232Y528607D02*
D03*
X564642Y544197D02*
D03*
X477711Y401697D02*
D03*
X493300Y386107D02*
D03*
X532200Y470107D02*
D03*
X516611Y485697D02*
D03*
X493300Y442107D02*
D03*
X477711Y457697D02*
D03*
X571100Y442107D02*
D03*
X555511Y457697D02*
D03*
X516611Y429697D02*
D03*
X532200Y414107D02*
D03*
X484200Y528607D02*
D03*
X468611Y544197D02*
D03*
X516611Y401697D02*
D03*
X532200Y386107D02*
D03*
D36*
X468894Y730420D02*
D03*
X579917Y567784D02*
D03*
X524197Y373650D02*
D03*
D37*
X544406Y547426D02*
D03*
Y525379D02*
D03*
X504405Y547426D02*
D03*
Y525379D02*
D03*
X485506Y488926D02*
D03*
Y466879D02*
D03*
X563306D02*
D03*
Y488926D02*
D03*
X524405Y460926D02*
D03*
Y438879D02*
D03*
X485506Y410879D02*
D03*
Y432926D02*
D03*
X563306Y410879D02*
D03*
Y432926D02*
D03*
D38*
X555429Y536402D02*
D03*
X533382D02*
D03*
X515429D02*
D03*
X493382D02*
D03*
X496529Y477902D02*
D03*
X474482D02*
D03*
X574329D02*
D03*
X552282D02*
D03*
X535429Y449902D02*
D03*
X513382D02*
D03*
X496529Y421902D02*
D03*
X474482D02*
D03*
X574329D02*
D03*
X552282D02*
D03*
M02*
