G04*
G04 #@! TF.GenerationSoftware,Altium Limited,Altium Designer,21.3.1 (25)*
G04*
G04 Layer_Color=32896*
%FSLAX25Y25*%
%MOIN*%
G70*
G04*
G04 #@! TF.SameCoordinates,17E3FC6B-7FA6-4A94-9312-BAE076C6F9B9*
G04*
G04*
G04 #@! TF.FilePolarity,Positive*
G04*
G01*
G75*
%ADD10C,0.00591*%
%ADD11C,0.00394*%
%ADD12C,0.00787*%
%ADD39C,0.00984*%
%ADD40C,0.01181*%
G36*
X538953Y711472D02*
Y710116D01*
X537428Y710794D01*
X538953Y711472D01*
D02*
G37*
D10*
X565366Y536741D02*
G03*
X565366Y536741I-197J0D01*
G01*
X480110Y675396D02*
G03*
X480110Y675396I-394J0D01*
G01*
X488902Y701723D02*
G03*
X488902Y701723I-264J0D01*
G01*
X563480Y498431D02*
G03*
X563480Y498431I-394J0D01*
G01*
X563263Y449564D02*
G03*
X563263Y449564I-358J0D01*
G01*
X491630Y461128D02*
G03*
X491630Y461128I-295J0D01*
G01*
X532772Y659553D02*
G03*
X532772Y659553I-394J0D01*
G01*
X502063Y464278D02*
G03*
X502063Y464278I-394J0D01*
G01*
X480409Y646955D02*
G03*
X480409Y646955I-394J0D01*
G01*
X513075Y395894D02*
G03*
X513075Y395894I-295J0D01*
G01*
X468736Y532705D02*
X471736D01*
X473854Y532804D02*
X476854D01*
X535319Y664201D02*
X536697D01*
X539551Y668631D02*
Y670009D01*
Y657607D02*
Y658985D01*
X549492Y472863D02*
X550870D01*
X538862Y684674D02*
X540240D01*
X542012D02*
X543390D01*
X567012Y524143D02*
Y525520D01*
X573169Y530241D02*
Y533237D01*
X566169Y530241D02*
Y533237D01*
X570358Y524143D02*
Y525520D01*
X571047Y538020D02*
Y539398D01*
X562878Y504359D02*
X564256D01*
X562878Y513414D02*
X564256D01*
X556579Y504359D02*
X557957D01*
X496823Y567853D02*
Y578876D01*
X474823Y567853D02*
Y578876D01*
X496846Y589876D02*
Y597876D01*
X474799D02*
X496846D01*
X474799Y589876D02*
Y597876D01*
X479630Y553876D02*
X485823D01*
X496823D01*
Y555876D01*
X474823Y553876D02*
Y555876D01*
Y553876D02*
X477073D01*
X479630D01*
X512484Y448414D02*
Y449339D01*
Y441268D02*
Y442194D01*
X520949Y448414D02*
Y449339D01*
Y441268D02*
Y442194D01*
X475370Y697719D02*
X481669D01*
X475370Y689648D02*
X481669D01*
X539366Y463687D02*
Y467624D01*
X529917Y463687D02*
Y467624D01*
X474894Y674172D02*
X477256D01*
X474894Y667172D02*
X477256D01*
Y674172D01*
X474894Y667172D02*
Y674172D01*
X496421Y488018D02*
X548390D01*
X496421Y539987D02*
X548390D01*
X496421Y488018D02*
Y539987D01*
X548390Y488018D02*
Y539987D01*
X491630Y703156D02*
X492417D01*
Y703648D01*
X491630Y707290D02*
X492417D01*
Y706798D02*
Y707290D01*
X565075Y491443D02*
Y495380D01*
X575075Y491443D02*
Y495380D01*
X565075D02*
X575075D01*
X565075Y491443D02*
X575075D01*
X575083Y507981D02*
X576461D01*
X495457Y418926D02*
Y421288D01*
X467504Y482705D02*
Y492942D01*
X476165Y482705D02*
Y492942D01*
X534105Y624484D02*
Y631484D01*
X536468Y624484D02*
Y631484D01*
X534105Y624484D02*
X536468D01*
X534105Y631484D02*
X536468D01*
X512398Y717782D02*
Y722113D01*
X523028Y717782D02*
Y722113D01*
X472622Y511839D02*
Y515776D01*
X481284Y511839D02*
Y515776D01*
X567110Y513414D02*
Y514989D01*
X571835Y508690D02*
Y510264D01*
X567110Y508690D02*
Y510264D01*
X571835Y513414D02*
Y514989D01*
X478343Y720183D02*
Y725695D01*
X470469Y720183D02*
Y725695D01*
X565656Y557520D02*
X570774D01*
X565656Y550040D02*
X570774D01*
X559113Y553725D02*
Y555300D01*
X552341Y553725D02*
Y555300D01*
X477520Y701502D02*
Y703864D01*
X494846Y717821D02*
X498846D01*
X552118Y443698D02*
Y447698D01*
X564951Y559686D02*
Y562048D01*
X469177Y509871D02*
X470555D01*
X582406Y451064D02*
Y453371D01*
X573406Y451064D02*
X582406D01*
Y460851D02*
Y470064D01*
X577406D02*
X582406D01*
X554406Y460556D02*
Y470064D01*
X559406D01*
X554406Y451064D02*
Y453371D01*
Y451064D02*
X563406D01*
X473099Y443089D02*
X474673D01*
X473099Y441514D02*
Y443089D01*
X473099Y426947D02*
Y428522D01*
Y426947D02*
X474673D01*
X487665D02*
X489240D01*
Y428522D01*
X489240Y441514D02*
Y443089D01*
X487665D02*
X489240D01*
X481099Y490361D02*
Y491739D01*
X571256Y501384D02*
Y502762D01*
X558843Y498946D02*
Y500324D01*
Y495796D02*
Y497174D01*
X556787Y519002D02*
X558165D01*
X556394Y530026D02*
X557772D01*
X544276Y548552D02*
Y549930D01*
X485319Y537824D02*
X486697D01*
X495063Y478473D02*
Y479851D01*
X545665Y478549D02*
Y479927D01*
X479413Y447666D02*
X480791D01*
X527162Y721069D02*
Y722447D01*
X528343Y716640D02*
Y719002D01*
X525685Y628057D02*
X527063D01*
X522142D02*
X523520D01*
X518992D02*
X520370D01*
X571835Y444221D02*
Y445599D01*
X470469Y712802D02*
Y714180D01*
X534827Y443698D02*
Y447698D01*
X522984Y445304D02*
X526984D01*
X521835Y437528D02*
Y438906D01*
X525193Y463687D02*
X527555D01*
X546453Y463294D02*
X548815D01*
X541728D02*
X544091D01*
X535823Y473235D02*
Y474613D01*
X495063Y465481D02*
Y466859D01*
X527555Y646168D02*
Y648530D01*
X529917Y661128D02*
Y663490D01*
X571349Y545513D02*
Y547875D01*
X488677Y647349D02*
X490055D01*
X488677Y640656D02*
X490055D01*
X473618Y648628D02*
Y650006D01*
X480520Y685994D02*
Y687372D01*
X488386Y675672D02*
X489764D01*
X488386Y668672D02*
X489764D01*
X473075Y676983D02*
Y678361D01*
X533992Y457231D02*
X535567D01*
X533992Y450459D02*
X535567D01*
X520705Y658766D02*
Y660341D01*
X513933Y658766D02*
Y660341D01*
X489465Y463983D02*
Y467329D01*
X486709D02*
X489465D01*
X478638Y463983D02*
Y467329D01*
X481394D01*
X559728Y504359D02*
X561106D01*
X533559Y550498D02*
X534937D01*
X538579Y478549D02*
Y479927D01*
X497819Y550520D02*
Y551898D01*
X502358Y475400D02*
Y476778D01*
X510024Y476898D02*
Y478276D01*
X487976Y446583D02*
Y447961D01*
X473016Y448552D02*
Y449930D01*
X504032Y562703D02*
X505409D01*
X482169Y541367D02*
X483547D01*
X496158Y705223D02*
X497536D01*
X481984Y719002D02*
X483362D01*
X477162Y712802D02*
Y714180D01*
X509331Y446806D02*
X510709D01*
X544976Y472743D02*
X546354D01*
X515535Y437528D02*
Y438906D01*
X541433Y472743D02*
X542811D01*
X509335Y453178D02*
X510713D01*
X507563Y466170D02*
X508941D01*
X539465Y653254D02*
X540843D01*
X510417Y457213D02*
Y458591D01*
X535921Y653254D02*
X537299D01*
X510417Y460363D02*
Y461741D01*
X494669Y469024D02*
Y470402D01*
X572530Y559784D02*
Y561162D01*
X577051Y556327D02*
X578429D01*
X476469Y634738D02*
Y636117D01*
X480232Y648628D02*
Y650006D01*
X492614Y647349D02*
X493992D01*
X484780Y647428D02*
X486158D01*
X480780Y633427D02*
X482158D01*
X476075Y662983D02*
Y664361D01*
X479421Y676983D02*
Y678361D01*
X492386Y675672D02*
X493764D01*
X484386D02*
X485764D01*
X480386Y661672D02*
X481764D01*
X470579Y692416D02*
X471957D01*
X482280Y480463D02*
Y487463D01*
X484642Y480463D02*
Y487463D01*
X482280Y480463D02*
X484642D01*
X482280Y487463D02*
X484642D01*
X543988Y717912D02*
Y722242D01*
X533358Y717912D02*
Y722242D01*
X527555Y651329D02*
Y658329D01*
X529917Y651329D02*
Y658329D01*
X527555Y651329D02*
X529917D01*
X527555Y658329D02*
X529917D01*
X496846Y456053D02*
Y463054D01*
X499209Y456053D02*
Y463054D01*
X496846Y456053D02*
X499209D01*
X496846Y463054D02*
X499209D01*
X475193Y645731D02*
X477555D01*
X475193Y638731D02*
X477555D01*
Y645731D01*
X475193Y638731D02*
Y645731D01*
X485831Y695683D02*
X487209D01*
X508449Y720205D02*
Y721583D01*
X504906Y720205D02*
Y721583D01*
X535528Y684750D02*
X536905D01*
X532378D02*
X533756D01*
X505004Y459477D02*
X506382D01*
X532887Y634395D02*
Y635773D01*
X533067Y620282D02*
Y621660D01*
X560024Y489497D02*
Y490875D01*
X501362Y550520D02*
Y551898D01*
X509937Y552073D02*
X511315D01*
X501571Y478549D02*
Y479927D01*
X485614Y532410D02*
Y533788D01*
X485220Y388316D02*
Y389694D01*
X501657Y465481D02*
Y466859D01*
X474689Y546485D02*
X476067D01*
X469965D02*
X471343D01*
X571835Y483591D02*
Y484969D01*
X479709Y400816D02*
X489945D01*
X479709Y392154D02*
X489945D01*
X565142Y483591D02*
Y484969D01*
X483646Y495009D02*
Y496387D01*
X479413Y501209D02*
X480791D01*
X473410Y504064D02*
Y505442D01*
X480102Y522568D02*
Y523946D01*
X518980Y405835D02*
Y408591D01*
X515634D02*
X518980D01*
Y397764D02*
Y400520D01*
X515634Y397764D02*
X518980D01*
X561992Y472863D02*
X562386Y472470D01*
Y471683D01*
X561992Y471289D01*
X560418D01*
X560024Y471683D01*
Y472470D01*
X560418Y472863D01*
X562386Y475225D02*
Y473651D01*
X561205D01*
X561598Y474438D01*
Y474831D01*
X561205Y475225D01*
X560418D01*
X560024Y474831D01*
Y474044D01*
X560418Y473651D01*
X560024Y477193D02*
X562386D01*
X561205Y476012D01*
Y477586D01*
X546244Y661447D02*
X544276D01*
X543882Y661840D01*
Y662627D01*
X544276Y663021D01*
X546244D01*
X543882Y665382D02*
Y663808D01*
X545457Y665382D01*
X545850D01*
X546244Y664989D01*
Y664201D01*
X545850Y663808D01*
X543882Y666169D02*
Y666957D01*
Y666563D01*
X546244D01*
X545850Y666169D01*
X538764Y674439D02*
X541126D01*
Y675620D01*
X540732Y676013D01*
X539945D01*
X539551Y675620D01*
Y674439D01*
Y675226D02*
X538764Y676013D01*
X541126Y678374D02*
X540732Y677587D01*
X539945Y676800D01*
X539158D01*
X538764Y677194D01*
Y677981D01*
X539158Y678374D01*
X539551D01*
X539945Y677981D01*
Y676800D01*
X540732Y679162D02*
X541126Y679555D01*
Y680342D01*
X540732Y680736D01*
X540339D01*
X539945Y680342D01*
Y679949D01*
Y680342D01*
X539551Y680736D01*
X539158D01*
X538764Y680342D01*
Y679555D01*
X539158Y679162D01*
X542308Y674438D02*
X544669D01*
Y675619D01*
X544275Y676013D01*
X543488D01*
X543095Y675619D01*
Y674438D01*
Y675225D02*
X542308Y676013D01*
X544669Y676800D02*
Y678374D01*
X544275D01*
X542701Y676800D01*
X542308D01*
X545457Y654359D02*
X545850Y653966D01*
Y653179D01*
X545457Y652785D01*
X543882D01*
X543489Y653179D01*
Y653966D01*
X543882Y654359D01*
X545850Y656721D02*
Y655147D01*
X544669D01*
X545063Y655934D01*
Y656327D01*
X544669Y656721D01*
X543882D01*
X543489Y656327D01*
Y655540D01*
X543882Y655147D01*
X545457Y657508D02*
X545850Y657902D01*
Y658689D01*
X545457Y659082D01*
X545063D01*
X544669Y658689D01*
Y658295D01*
Y658689D01*
X544276Y659082D01*
X543882D01*
X543489Y658689D01*
Y657902D01*
X543882Y657508D01*
X534039Y668926D02*
X534433Y668533D01*
Y667745D01*
X534039Y667352D01*
X532465D01*
X532071Y667745D01*
Y668533D01*
X532465Y668926D01*
X532071Y670894D02*
X534433D01*
X533252Y669713D01*
Y671287D01*
X545457Y670107D02*
X545850Y670500D01*
X546637D01*
X547031Y670107D01*
Y668533D01*
X546637Y668139D01*
X545850D01*
X545457Y668533D01*
X544669Y670107D02*
X544276Y670500D01*
X543489D01*
X543095Y670107D01*
Y669713D01*
X543489Y669320D01*
X543882D01*
X543489D01*
X543095Y668926D01*
Y668533D01*
X543489Y668139D01*
X544276D01*
X544669Y668533D01*
X500180Y626307D02*
X498605D01*
X499393D01*
Y623946D01*
X497818D02*
Y626307D01*
X496638D01*
X496244Y625914D01*
Y625127D01*
X496638Y624733D01*
X497818D01*
X493883Y623946D02*
X495457D01*
X493883Y625520D01*
Y625914D01*
X494276Y626307D01*
X495063D01*
X495457Y625914D01*
X493095D02*
X492702Y626307D01*
X491915D01*
X491521Y625914D01*
Y624340D01*
X491915Y623946D01*
X492702D01*
X493095Y624340D01*
Y625914D01*
X578329Y522075D02*
X576755D01*
X577542D01*
Y519714D01*
X575968D02*
Y522075D01*
X574787D01*
X574394Y521682D01*
Y520894D01*
X574787Y520501D01*
X575968D01*
X573606Y519714D02*
X572819D01*
X573213D01*
Y522075D01*
X573606Y521682D01*
X571639Y520107D02*
X571245Y519714D01*
X570458D01*
X570064Y520107D01*
Y521682D01*
X570458Y522075D01*
X571245D01*
X571639Y521682D01*
Y521288D01*
X571245Y520894D01*
X570064D01*
X577740Y527982D02*
X575772D01*
X575378Y528376D01*
Y529163D01*
X575772Y529556D01*
X577740D01*
X575378Y531918D02*
Y530343D01*
X576953Y531918D01*
X577346D01*
X577740Y531524D01*
Y530737D01*
X577346Y530343D01*
Y532705D02*
X577740Y533099D01*
Y533886D01*
X577346Y534279D01*
X575772D01*
X575378Y533886D01*
Y533099D01*
X575772Y532705D01*
X577346D01*
X573409Y543138D02*
X573803Y543532D01*
X574590D01*
X574983Y543138D01*
Y541564D01*
X574590Y541170D01*
X573803D01*
X573409Y541564D01*
X571047Y543532D02*
X572622D01*
Y542351D01*
X571835Y542745D01*
X571441D01*
X571047Y542351D01*
Y541564D01*
X571441Y541170D01*
X572228D01*
X572622Y541564D01*
X570260Y543138D02*
X569867Y543532D01*
X569080D01*
X568686Y543138D01*
Y541564D01*
X569080Y541170D01*
X569867D01*
X570260Y541564D01*
Y543138D01*
X553692Y441367D02*
X554086Y441760D01*
X554873D01*
X555267Y441367D01*
Y439792D01*
X554873Y439399D01*
X554086D01*
X553692Y439792D01*
X551331Y439399D02*
X552905D01*
X551331Y440973D01*
Y441367D01*
X551725Y441760D01*
X552512D01*
X552905Y441367D01*
X549363Y439399D02*
Y441760D01*
X550544Y440580D01*
X548970D01*
X526165Y403178D02*
X524591D01*
X524197Y403572D01*
Y404359D01*
X524591Y404752D01*
X526165D01*
X526559Y404359D01*
Y403572D01*
X525772Y403965D02*
X526559Y403178D01*
Y403572D02*
X526165Y403178D01*
X526559Y402391D02*
Y401604D01*
Y401997D01*
X524197D01*
X524591Y402391D01*
X578134Y505147D02*
X580496D01*
Y506328D01*
X580102Y506722D01*
X579315D01*
X578921Y506328D01*
Y505147D01*
Y505934D02*
X578134Y506722D01*
X580496Y509083D02*
X580102Y508296D01*
X579315Y507509D01*
X578528D01*
X578134Y507902D01*
Y508689D01*
X578528Y509083D01*
X578921D01*
X579315Y508689D01*
Y507509D01*
X578134Y509870D02*
Y510657D01*
Y510264D01*
X580496D01*
X580102Y509870D01*
X474984Y524437D02*
Y522470D01*
X474590Y522076D01*
X473803D01*
X473409Y522470D01*
Y524437D01*
X472622Y522470D02*
X472229Y522076D01*
X471442D01*
X471048Y522470D01*
Y524044D01*
X471442Y524437D01*
X472229D01*
X472622Y524044D01*
Y523650D01*
X472229Y523257D01*
X471048D01*
X484827Y518927D02*
X487189D01*
Y520108D01*
X486795Y520501D01*
X486008D01*
X485614Y520108D01*
Y518927D01*
Y519714D02*
X484827Y520501D01*
X487189Y522863D02*
X486795Y522076D01*
X486008Y521288D01*
X485221D01*
X484827Y521682D01*
Y522469D01*
X485221Y522863D01*
X485614D01*
X486008Y522469D01*
Y521288D01*
X486795Y523650D02*
X487189Y524043D01*
Y524830D01*
X486795Y525224D01*
X485221D01*
X484827Y524830D01*
Y524043D01*
X485221Y523650D01*
X486795D01*
X476164Y500029D02*
Y502390D01*
X474984D01*
X474590Y501997D01*
Y501209D01*
X474984Y500816D01*
X476164D01*
X475377D02*
X474590Y500029D01*
X472229Y502390D02*
X473803D01*
Y501209D01*
X473016Y501603D01*
X472622D01*
X472229Y501209D01*
Y500422D01*
X472622Y500029D01*
X473409D01*
X473803Y500422D01*
X471442D02*
X471048Y500029D01*
X470261D01*
X469867Y500422D01*
Y501997D01*
X470261Y502390D01*
X471048D01*
X471442Y501997D01*
Y501603D01*
X471048Y501209D01*
X469867D01*
X470653Y515777D02*
X471047Y515383D01*
Y514596D01*
X470653Y514202D01*
X469079D01*
X468685Y514596D01*
Y515383D01*
X469079Y515777D01*
X468685Y518138D02*
Y516564D01*
X470260Y518138D01*
X470653D01*
X471047Y517745D01*
Y516958D01*
X470653Y516564D01*
Y518925D02*
X471047Y519319D01*
Y520106D01*
X470653Y520500D01*
X469079D01*
X468685Y520106D01*
Y519319D01*
X469079Y518925D01*
X470653D01*
X568979Y569615D02*
X567405D01*
X568192D01*
Y567253D01*
X566618D02*
Y569615D01*
X565437D01*
X565043Y569221D01*
Y568434D01*
X565437Y568040D01*
X566618D01*
X564256Y567253D02*
X563469D01*
X563863D01*
Y569615D01*
X564256Y569221D01*
X560714Y569615D02*
X562288D01*
Y568434D01*
X561501Y568827D01*
X561107D01*
X560714Y568434D01*
Y567647D01*
X561107Y567253D01*
X561895D01*
X562288Y567647D01*
X566125Y441760D02*
X564550D01*
X565338D01*
Y439399D01*
X563763D02*
Y441760D01*
X562582D01*
X562189Y441367D01*
Y440580D01*
X562582Y440186D01*
X563763D01*
X561402Y439399D02*
X560615D01*
X561008D01*
Y441760D01*
X561402Y441367D01*
X558253Y439399D02*
Y441760D01*
X559434Y440580D01*
X557860D01*
X582266Y442548D02*
X580692D01*
X581479D01*
Y440186D01*
X579905D02*
Y442548D01*
X578724D01*
X578331Y442154D01*
Y441367D01*
X578724Y440973D01*
X579905D01*
X577543Y440186D02*
X576756D01*
X577150D01*
Y442548D01*
X577543Y442154D01*
X575576D02*
X575182Y442548D01*
X574395D01*
X574001Y442154D01*
Y441760D01*
X574395Y441367D01*
X574789D01*
X574395D01*
X574001Y440973D01*
Y440580D01*
X574395Y440186D01*
X575182D01*
X575576Y440580D01*
X547424Y638906D02*
X545850D01*
X546637D01*
Y636544D01*
X545063D02*
Y638906D01*
X543882D01*
X543488Y638512D01*
Y637725D01*
X543882Y637332D01*
X545063D01*
X542701Y636544D02*
X541914D01*
X542308D01*
Y638906D01*
X542701Y638512D01*
X540733Y636544D02*
X539946D01*
X540340D01*
Y638906D01*
X540733Y638512D01*
X496342Y408000D02*
X494767D01*
X495554D01*
Y405639D01*
X493980D02*
Y408000D01*
X492799D01*
X492406Y407607D01*
Y406820D01*
X492799Y406426D01*
X493980D01*
X491619Y407607D02*
X491225Y408000D01*
X490438D01*
X490044Y407607D01*
Y407213D01*
X490438Y406820D01*
X490044Y406426D01*
Y406033D01*
X490438Y405639D01*
X491225D01*
X491619Y406033D01*
Y406426D01*
X491225Y406820D01*
X491619Y407213D01*
Y407607D01*
X491225Y406820D02*
X490438D01*
X488763Y501997D02*
Y504359D01*
X487582D01*
X487188Y503965D01*
Y503178D01*
X487582Y502784D01*
X488763D01*
X487976D02*
X487188Y501997D01*
X484827Y504359D02*
X485614Y503965D01*
X486401Y503178D01*
Y502391D01*
X486008Y501997D01*
X485221D01*
X484827Y502391D01*
Y502784D01*
X485221Y503178D01*
X486401D01*
X484040Y503965D02*
X483646Y504359D01*
X482859D01*
X482466Y503965D01*
Y503572D01*
X482859Y503178D01*
X482466Y502784D01*
Y502391D01*
X482859Y501997D01*
X483646D01*
X484040Y502391D01*
Y502784D01*
X483646Y503178D01*
X484040Y503572D01*
Y503965D01*
X483646Y503178D02*
X482859D01*
X487188Y500422D02*
X487582Y500815D01*
X488369D01*
X488763Y500422D01*
Y498847D01*
X488369Y498454D01*
X487582D01*
X487188Y498847D01*
X484827Y500815D02*
X486401D01*
Y499635D01*
X485614Y500028D01*
X485221D01*
X484827Y499635D01*
Y498847D01*
X485221Y498454D01*
X486008D01*
X486401Y498847D01*
X482466Y498454D02*
X484040D01*
X482466Y500028D01*
Y500422D01*
X482859Y500815D01*
X483646D01*
X484040Y500422D01*
X567897Y479163D02*
Y481524D01*
X566716D01*
X566322Y481130D01*
Y480343D01*
X566716Y479950D01*
X567897D01*
X567109D02*
X566322Y479163D01*
X563961Y481524D02*
X564748Y481130D01*
X565535Y480343D01*
Y479556D01*
X565142Y479163D01*
X564355D01*
X563961Y479556D01*
Y479950D01*
X564355Y480343D01*
X565535D01*
X563174Y481524D02*
X561599D01*
Y481130D01*
X563174Y479556D01*
Y479163D01*
X472622Y398650D02*
X472229Y399043D01*
Y399830D01*
X472622Y400224D01*
X473016D01*
X473410Y399830D01*
Y399043D01*
X473803Y398650D01*
X474197D01*
X474590Y399043D01*
Y399830D01*
X474197Y400224D01*
X472229Y397862D02*
X474590D01*
X473803Y397075D01*
X474590Y396288D01*
X472229D01*
X474590Y395501D02*
Y394714D01*
Y395107D01*
X472229D01*
X472622Y395501D01*
X474197Y393533D02*
X474590Y393140D01*
Y392352D01*
X474197Y391959D01*
X472622D01*
X472229Y392352D01*
Y393140D01*
X472622Y393533D01*
X473016D01*
X473410Y393140D01*
Y391959D01*
X582070Y482706D02*
Y485067D01*
X580889D01*
X580496Y484674D01*
Y483886D01*
X580889Y483493D01*
X582070D01*
X581283D02*
X580496Y482706D01*
X578134D02*
X579708D01*
X578134Y484280D01*
Y484674D01*
X578528Y485067D01*
X579315D01*
X579708Y484674D01*
X577347D02*
X576953Y485067D01*
X576166D01*
X575773Y484674D01*
Y484280D01*
X576166Y483886D01*
X576560D01*
X576166D01*
X575773Y483493D01*
Y483099D01*
X576166Y482706D01*
X576953D01*
X577347Y483099D01*
X465930Y543730D02*
X468291D01*
Y544911D01*
X467897Y545304D01*
X467110D01*
X466717Y544911D01*
Y543730D01*
Y544517D02*
X465930Y545304D01*
X468291Y547666D02*
X467897Y546879D01*
X467110Y546092D01*
X466323D01*
X465930Y546485D01*
Y547272D01*
X466323Y547666D01*
X466717D01*
X467110Y547272D01*
Y546092D01*
X468291Y550027D02*
X467897Y549240D01*
X467110Y548453D01*
X466323D01*
X465930Y548847D01*
Y549634D01*
X466323Y550027D01*
X466717D01*
X467110Y549634D01*
Y548453D01*
X478134Y543336D02*
X480496D01*
Y544517D01*
X480102Y544911D01*
X479315D01*
X478921Y544517D01*
Y543336D01*
Y544124D02*
X478134Y544911D01*
X480496Y547272D02*
X480102Y546485D01*
X479315Y545698D01*
X478528D01*
X478134Y546091D01*
Y546879D01*
X478528Y547272D01*
X478921D01*
X479315Y546879D01*
Y545698D01*
X480496Y549634D02*
Y548059D01*
X479315D01*
X479709Y548846D01*
Y549240D01*
X479315Y549634D01*
X478528D01*
X478134Y549240D01*
Y548453D01*
X478528Y548059D01*
X467504Y533101D02*
X465142D01*
Y534675D01*
X467504Y537036D02*
Y535462D01*
X465142D01*
Y537036D01*
X466323Y535462D02*
Y536249D01*
X467504Y537823D02*
X465142D01*
Y539004D01*
X465536Y539398D01*
X467110D01*
X467504Y539004D01*
Y537823D01*
X465142Y541366D02*
X467504D01*
X466323Y540185D01*
Y541759D01*
X480496Y533101D02*
X478134D01*
Y534675D01*
X480496Y537036D02*
Y535462D01*
X478134D01*
Y537036D01*
X479315Y535462D02*
Y536249D01*
X480496Y537823D02*
X478134D01*
Y539004D01*
X478528Y539398D01*
X480102D01*
X480496Y539004D01*
Y537823D01*
X480102Y540185D02*
X480496Y540578D01*
Y541366D01*
X480102Y541759D01*
X479709D01*
X479315Y541366D01*
Y540972D01*
Y541366D01*
X478921Y541759D01*
X478528D01*
X478134Y541366D01*
Y540578D01*
X478528Y540185D01*
X503724Y468533D02*
Y470894D01*
X502543D01*
X502149Y470501D01*
Y469713D01*
X502543Y469320D01*
X503724D01*
X502937D02*
X502149Y468533D01*
X499788Y470894D02*
X500575Y470501D01*
X501362Y469713D01*
Y468926D01*
X500969Y468533D01*
X500182D01*
X499788Y468926D01*
Y469320D01*
X500182Y469713D01*
X501362D01*
X527936Y471681D02*
Y469714D01*
X527543Y469320D01*
X526756D01*
X526362Y469714D01*
Y471681D01*
X525575Y469320D02*
X524788D01*
X525181D01*
Y471681D01*
X525575Y471288D01*
X523607Y469320D02*
X522820D01*
X523213D01*
Y471681D01*
X523607Y471288D01*
X488369Y384674D02*
Y387036D01*
X487188D01*
X486795Y386642D01*
Y385855D01*
X487188Y385461D01*
X488369D01*
X487582D02*
X486795Y384674D01*
X484433Y387036D02*
X486008D01*
Y385855D01*
X485220Y386249D01*
X484827D01*
X484433Y385855D01*
Y385068D01*
X484827Y384674D01*
X485614D01*
X486008Y385068D01*
X483646Y386642D02*
X483253Y387036D01*
X482466D01*
X482072Y386642D01*
Y386249D01*
X482466Y385855D01*
X482072Y385461D01*
Y385068D01*
X482466Y384674D01*
X483253D01*
X483646Y385068D01*
Y385461D01*
X483253Y385855D01*
X483646Y386249D01*
Y386642D01*
X483253Y385855D02*
X482466D01*
X486795Y530343D02*
X487188Y530737D01*
X487976D01*
X488369Y530343D01*
Y528769D01*
X487976Y528375D01*
X487188D01*
X486795Y528769D01*
X484433Y530737D02*
X486008D01*
Y529556D01*
X485220Y529949D01*
X484827D01*
X484433Y529556D01*
Y528769D01*
X484827Y528375D01*
X485614D01*
X486008Y528769D01*
X483646Y530343D02*
X483253Y530737D01*
X482466D01*
X482072Y530343D01*
Y529949D01*
X482466Y529556D01*
X482072Y529162D01*
Y528769D01*
X482466Y528375D01*
X483253D01*
X483646Y528769D01*
Y529162D01*
X483253Y529556D01*
X483646Y529949D01*
Y530343D01*
X483253Y529556D02*
X482466D01*
X518488Y479949D02*
X518881Y480343D01*
X519668D01*
X520062Y479949D01*
Y478375D01*
X519668Y477981D01*
X518881D01*
X518488Y478375D01*
X517701Y477981D02*
X516914D01*
X517307D01*
Y480343D01*
X517701Y479949D01*
X515733D02*
X515339Y480343D01*
X514552D01*
X514158Y479949D01*
Y479556D01*
X514552Y479162D01*
X514946D01*
X514552D01*
X514158Y478769D01*
Y478375D01*
X514552Y477981D01*
X515339D01*
X515733Y478375D01*
X512780Y549242D02*
X515141D01*
Y550423D01*
X514748Y550816D01*
X513961D01*
X513567Y550423D01*
Y549242D01*
Y550029D02*
X512780Y550816D01*
X515141Y551603D02*
Y553178D01*
X514748D01*
X513173Y551603D01*
X512780D01*
Y555146D02*
X515141D01*
X513961Y553965D01*
Y555539D01*
X506479Y553572D02*
Y555933D01*
X505299D01*
X504905Y555540D01*
Y554753D01*
X505299Y554359D01*
X506479D01*
X505692D02*
X504905Y553572D01*
X504118Y555933D02*
X502544D01*
Y555540D01*
X504118Y553966D01*
Y553572D01*
X501756Y555540D02*
X501363Y555933D01*
X500576D01*
X500182Y555540D01*
Y555146D01*
X500576Y554753D01*
X500969D01*
X500576D01*
X500182Y554359D01*
Y553966D01*
X500576Y553572D01*
X501363D01*
X501756Y553966D01*
X579499Y481448D02*
X577925D01*
X578712D01*
Y479086D01*
X577138D02*
Y481448D01*
X575957D01*
X575563Y481054D01*
Y480267D01*
X575957Y479873D01*
X577138D01*
X574776Y481448D02*
X573202D01*
Y481054D01*
X574776Y479480D01*
Y479086D01*
X560417Y487430D02*
X560810Y487823D01*
X561598D01*
X561991Y487430D01*
Y485855D01*
X561598Y485462D01*
X560810D01*
X560417Y485855D01*
X559630Y487430D02*
X559236Y487823D01*
X558449D01*
X558055Y487430D01*
Y487036D01*
X558449Y486643D01*
X558843D01*
X558449D01*
X558055Y486249D01*
Y485855D01*
X558449Y485462D01*
X559236D01*
X559630Y485855D01*
X557268Y487430D02*
X556875Y487823D01*
X556087D01*
X555694Y487430D01*
Y487036D01*
X556087Y486643D01*
X555694Y486249D01*
Y485855D01*
X556087Y485462D01*
X556875D01*
X557268Y485855D01*
Y486249D01*
X556875Y486643D01*
X557268Y487036D01*
Y487430D01*
X556875Y486643D02*
X556087D01*
X544275Y625423D02*
X542307D01*
X541914Y625816D01*
Y626604D01*
X542307Y626997D01*
X544275D01*
X541914Y627784D02*
Y628572D01*
Y628178D01*
X544275D01*
X543882Y627784D01*
X542307Y629752D02*
X541914Y630146D01*
Y630933D01*
X542307Y631326D01*
X543882D01*
X544275Y630933D01*
Y630146D01*
X543882Y629752D01*
X543488D01*
X543094Y630146D01*
Y631326D01*
X536007Y615777D02*
Y618138D01*
X534826D01*
X534433Y617745D01*
Y616957D01*
X534826Y616564D01*
X536007D01*
X535220D02*
X534433Y615777D01*
X532071Y618138D02*
X533645D01*
Y616957D01*
X532858Y617351D01*
X532465D01*
X532071Y616957D01*
Y616170D01*
X532465Y615777D01*
X533252D01*
X533645Y616170D01*
X531284Y618138D02*
X529710D01*
Y617745D01*
X531284Y616170D01*
Y615777D01*
X534629Y639792D02*
X535023Y640185D01*
X535810D01*
X536204Y639792D01*
Y638217D01*
X535810Y637824D01*
X535023D01*
X534629Y638217D01*
X533842Y637824D02*
X533055D01*
X533449D01*
Y640185D01*
X533842Y639792D01*
X531875Y638217D02*
X531481Y637824D01*
X530694D01*
X530300Y638217D01*
Y639792D01*
X530694Y640185D01*
X531481D01*
X531875Y639792D01*
Y639398D01*
X531481Y639005D01*
X530300D01*
X505692Y687037D02*
Y689398D01*
X504512D01*
X504118Y689004D01*
Y688217D01*
X504512Y687824D01*
X505692D01*
X503331Y687037D02*
X502544D01*
X502937D01*
Y689398D01*
X503331Y689004D01*
X503429Y449241D02*
X503823Y448848D01*
Y448061D01*
X503429Y447667D01*
X501855D01*
X501461Y448061D01*
Y448848D01*
X501855Y449241D01*
X501461Y451209D02*
X503823D01*
X502642Y450029D01*
Y451603D01*
X501855Y452390D02*
X501461Y452784D01*
Y453571D01*
X501855Y453964D01*
X503429D01*
X503823Y453571D01*
Y452784D01*
X503429Y452390D01*
X503035D01*
X502642Y452784D01*
Y453964D01*
X531678Y674439D02*
X534039D01*
Y675620D01*
X533645Y676013D01*
X532858D01*
X532465Y675620D01*
Y674439D01*
Y675226D02*
X531678Y676013D01*
X534039Y678374D02*
Y676800D01*
X532858D01*
X533252Y677587D01*
Y677981D01*
X532858Y678374D01*
X532071D01*
X531678Y677981D01*
Y677194D01*
X532071Y676800D01*
X534039Y680736D02*
X533645Y679949D01*
X532858Y679162D01*
X532071D01*
X531678Y679555D01*
Y680342D01*
X532071Y680736D01*
X532465D01*
X532858Y680342D01*
Y679162D01*
X535221Y674439D02*
X537582D01*
Y675620D01*
X537189Y676013D01*
X536402D01*
X536008Y675620D01*
Y674439D01*
Y675226D02*
X535221Y676013D01*
X537582Y678374D02*
Y676800D01*
X536402D01*
X536795Y677587D01*
Y677981D01*
X536402Y678374D01*
X535614D01*
X535221Y677981D01*
Y677194D01*
X535614Y676800D01*
X537582Y680736D02*
Y679162D01*
X536402D01*
X536795Y679949D01*
Y680342D01*
X536402Y680736D01*
X535614D01*
X535221Y680342D01*
Y679555D01*
X535614Y679162D01*
X507660Y716564D02*
Y718926D01*
X506480D01*
X506086Y718532D01*
Y717745D01*
X506480Y717351D01*
X507660D01*
X506873D02*
X506086Y716564D01*
X503725Y718926D02*
X505299D01*
Y717745D01*
X504512Y718138D01*
X504118D01*
X503725Y717745D01*
Y716958D01*
X504118Y716564D01*
X504905D01*
X505299Y716958D01*
X501757Y716564D02*
Y718926D01*
X502938Y717745D01*
X501363D01*
X510810Y723257D02*
Y725619D01*
X509629D01*
X509236Y725225D01*
Y724438D01*
X509629Y724044D01*
X510810D01*
X510023D02*
X509236Y723257D01*
X506874Y725619D02*
X508449D01*
Y724438D01*
X507661Y724831D01*
X507268D01*
X506874Y724438D01*
Y723651D01*
X507268Y723257D01*
X508055D01*
X508449Y723651D01*
X506087Y725225D02*
X505694Y725619D01*
X504906D01*
X504513Y725225D01*
Y724831D01*
X504906Y724438D01*
X505300D01*
X504906D01*
X504513Y724044D01*
Y723651D01*
X504906Y723257D01*
X505694D01*
X506087Y723651D01*
X491126Y694123D02*
X491519Y693730D01*
Y692943D01*
X491126Y692549D01*
X489551D01*
X489158Y692943D01*
Y693730D01*
X489551Y694123D01*
X489158Y696091D02*
X491519D01*
X490339Y694910D01*
Y696485D01*
X491126Y697272D02*
X491519Y697665D01*
Y698453D01*
X491126Y698846D01*
X489551D01*
X489158Y698453D01*
Y697665D01*
X489551Y697272D01*
X491126D01*
X576952Y512627D02*
X574591Y514202D01*
X576952D02*
X574591Y512627D01*
Y516563D02*
Y514989D01*
X576165Y516563D01*
X576559D01*
X576952Y516170D01*
Y515382D01*
X576559Y514989D01*
X469078Y667549D02*
X467110D01*
X466717Y667942D01*
Y668730D01*
X467110Y669123D01*
X469078D01*
X466717Y669910D02*
Y670697D01*
Y670304D01*
X469078D01*
X468685Y669910D01*
Y671878D02*
X469078Y672272D01*
Y673059D01*
X468685Y673453D01*
X468291D01*
X467898Y673059D01*
X467504Y673453D01*
X467110D01*
X466717Y673059D01*
Y672272D01*
X467110Y671878D01*
X467504D01*
X467898Y672272D01*
X468291Y671878D01*
X468685D01*
X467898Y672272D02*
Y673059D01*
X472424Y698847D02*
Y696879D01*
X472031Y696485D01*
X471243D01*
X470850Y696879D01*
Y698847D01*
X470063Y696485D02*
X469276D01*
X469669D01*
Y698847D01*
X470063Y698453D01*
X468095Y698847D02*
X466521D01*
Y698453D01*
X468095Y696879D01*
Y696485D01*
X469866Y639596D02*
X467898D01*
X467504Y639990D01*
Y640777D01*
X467898Y641171D01*
X469866D01*
X467504Y641958D02*
Y642745D01*
Y642351D01*
X469866D01*
X469472Y641958D01*
X469866Y645500D02*
X469472Y644713D01*
X468685Y643926D01*
X467898D01*
X467504Y644319D01*
Y645106D01*
X467898Y645500D01*
X468292D01*
X468685Y645106D01*
Y643926D01*
X566519Y548059D02*
Y546092D01*
X566125Y545698D01*
X565338D01*
X564945Y546092D01*
Y548059D01*
X564157Y545698D02*
X563370D01*
X563764D01*
Y548059D01*
X564157Y547666D01*
X560615Y548059D02*
X562189D01*
Y546879D01*
X561402Y547272D01*
X561009D01*
X560615Y546879D01*
Y546092D01*
X561009Y545698D01*
X561796D01*
X562189Y546092D01*
X491322Y457508D02*
Y455540D01*
X490928Y455147D01*
X490141D01*
X489748Y455540D01*
Y457508D01*
X488961Y455147D02*
X488173D01*
X488567D01*
Y457508D01*
X488961Y457115D01*
X485812Y455147D02*
Y457508D01*
X486993Y456327D01*
X485418D01*
X522031Y651996D02*
Y650029D01*
X521637Y649635D01*
X520850D01*
X520456Y650029D01*
Y651996D01*
X519669Y649635D02*
X518882D01*
X519276D01*
Y651996D01*
X519669Y651603D01*
X517701D02*
X517308Y651996D01*
X516521D01*
X516127Y651603D01*
Y651209D01*
X516521Y650816D01*
X516914D01*
X516521D01*
X516127Y650422D01*
Y650029D01*
X516521Y649635D01*
X517308D01*
X517701Y650029D01*
X511204Y437037D02*
X509236D01*
X508843Y437431D01*
Y438218D01*
X509236Y438611D01*
X511204D01*
X508843Y439398D02*
Y440186D01*
Y439792D01*
X511204D01*
X510811Y439398D01*
X508843Y442941D02*
Y441366D01*
X510417Y442941D01*
X510811D01*
X511204Y442547D01*
Y441760D01*
X510811Y441366D01*
X468685Y719517D02*
X466717D01*
X466323Y719911D01*
Y720698D01*
X466717Y721092D01*
X468685D01*
X466323Y721879D02*
Y722666D01*
Y722272D01*
X468685D01*
X468291Y721879D01*
Y723847D02*
X468685Y724240D01*
Y725028D01*
X468291Y725421D01*
X466717D01*
X466323Y725028D01*
Y724240D01*
X466717Y723847D01*
X468291D01*
X486795Y707508D02*
Y705540D01*
X486401Y705147D01*
X485614D01*
X485220Y705540D01*
Y707508D01*
X484433Y707115D02*
X484040Y707508D01*
X483252D01*
X482859Y707115D01*
Y706721D01*
X483252Y706327D01*
X482859Y705934D01*
Y705540D01*
X483252Y705147D01*
X484040D01*
X484433Y705540D01*
Y705934D01*
X484040Y706327D01*
X484433Y706721D01*
Y707115D01*
X484040Y706327D02*
X483252D01*
X519078Y726406D02*
Y724438D01*
X518685Y724044D01*
X517897D01*
X517504Y724438D01*
Y726406D01*
X516717D02*
X515142D01*
Y726012D01*
X516717Y724438D01*
Y724044D01*
X540338Y726406D02*
Y724438D01*
X539944Y724044D01*
X539157D01*
X538764Y724438D01*
Y726406D01*
X536402D02*
X537189Y726012D01*
X537977Y725225D01*
Y724438D01*
X537583Y724044D01*
X536796D01*
X536402Y724438D01*
Y724832D01*
X536796Y725225D01*
X537977D01*
X476165Y424437D02*
Y422470D01*
X475771Y422076D01*
X474984D01*
X474590Y422470D01*
Y424437D01*
X472623Y422076D02*
Y424437D01*
X473803Y423257D01*
X472229D01*
X581677Y494122D02*
Y492155D01*
X581283Y491761D01*
X580496D01*
X580102Y492155D01*
Y494122D01*
X579315Y493729D02*
X578922Y494122D01*
X578134D01*
X577741Y493729D01*
Y493335D01*
X578134Y492942D01*
X578528D01*
X578134D01*
X577741Y492548D01*
Y492155D01*
X578134Y491761D01*
X578922D01*
X579315Y492155D01*
X493881Y544910D02*
Y542942D01*
X493488Y542548D01*
X492701D01*
X492307Y542942D01*
Y544910D01*
X489946Y542548D02*
X491520D01*
X489946Y544123D01*
Y544516D01*
X490339Y544910D01*
X491126D01*
X491520Y544516D01*
X481283Y478374D02*
Y476406D01*
X480889Y476013D01*
X480102D01*
X479709Y476406D01*
Y478374D01*
X478922Y476013D02*
X478134D01*
X478528D01*
Y478374D01*
X478922Y477981D01*
X498397Y683022D02*
X496822D01*
X497610D01*
Y680661D01*
X496035D02*
Y683022D01*
X494854D01*
X494461Y682629D01*
Y681842D01*
X494854Y681448D01*
X496035D01*
X492100Y683022D02*
X492887Y682629D01*
X493674Y681842D01*
Y681054D01*
X493280Y680661D01*
X492493D01*
X492100Y681054D01*
Y681448D01*
X492493Y681842D01*
X493674D01*
X486007Y658691D02*
Y660265D01*
Y659478D01*
X483646D01*
Y661052D02*
X486007D01*
Y662233D01*
X485614Y662627D01*
X484827D01*
X484433Y662233D01*
Y661052D01*
X486007Y664988D02*
Y663414D01*
X484827D01*
X485220Y664201D01*
Y664594D01*
X484827Y664988D01*
X484040D01*
X483646Y664594D01*
Y663807D01*
X484040Y663414D01*
X473200Y658219D02*
X471626D01*
X472413D01*
Y655858D01*
X470838D02*
Y658219D01*
X469658D01*
X469264Y657826D01*
Y657038D01*
X469658Y656645D01*
X470838D01*
X467296Y655858D02*
Y658219D01*
X468477Y657038D01*
X466903D01*
X491125Y657508D02*
X489551D01*
X490338D01*
Y655147D01*
X488764D02*
Y657508D01*
X487583D01*
X487189Y657115D01*
Y656327D01*
X487583Y655934D01*
X488764D01*
X486402Y657115D02*
X486009Y657508D01*
X485221D01*
X484828Y657115D01*
Y656721D01*
X485221Y656327D01*
X485615D01*
X485221D01*
X484828Y655934D01*
Y655540D01*
X485221Y655147D01*
X486009D01*
X486402Y655540D01*
X506086Y646878D02*
X504511D01*
X505299D01*
Y644517D01*
X503724D02*
Y646878D01*
X502543D01*
X502150Y646485D01*
Y645698D01*
X502543Y645304D01*
X503724D01*
X499789Y644517D02*
X501363D01*
X499789Y646091D01*
Y646485D01*
X500182Y646878D01*
X500969D01*
X501363Y646485D01*
X478527Y629556D02*
X476952D01*
X477739D01*
Y627194D01*
X476165D02*
Y629556D01*
X474985D01*
X474591Y629162D01*
Y628375D01*
X474985Y627981D01*
X476165D01*
X473804Y627194D02*
X473017D01*
X473410D01*
Y629556D01*
X473804Y629162D01*
X466323Y689006D02*
X468685D01*
Y690186D01*
X468291Y690580D01*
X467504D01*
X467110Y690186D01*
Y689006D01*
Y689793D02*
X466323Y690580D01*
X468685Y692941D02*
Y691367D01*
X467504D01*
X467898Y692154D01*
Y692548D01*
X467504Y692941D01*
X466717D01*
X466323Y692548D01*
Y691761D01*
X466717Y691367D01*
X466323Y695303D02*
Y693729D01*
X467898Y695303D01*
X468291D01*
X468685Y694909D01*
Y694122D01*
X468291Y693729D01*
X483645Y655147D02*
Y657508D01*
X482464D01*
X482070Y657115D01*
Y656327D01*
X482464Y655934D01*
X483645D01*
X482858D02*
X482070Y655147D01*
X479709Y657508D02*
X481283D01*
Y656327D01*
X480496Y656721D01*
X480103D01*
X479709Y656327D01*
Y655540D01*
X480103Y655147D01*
X480890D01*
X481283Y655540D01*
X478922Y655147D02*
X478135D01*
X478528D01*
Y657508D01*
X478922Y657115D01*
X484040Y679557D02*
X486401D01*
Y680738D01*
X486008Y681131D01*
X485220D01*
X484827Y680738D01*
Y679557D01*
Y680344D02*
X484040Y681131D01*
X486401Y683493D02*
Y681918D01*
X485220D01*
X485614Y682705D01*
Y683099D01*
X485220Y683493D01*
X484433D01*
X484040Y683099D01*
Y682312D01*
X484433Y681918D01*
X486008Y684280D02*
X486401Y684673D01*
Y685461D01*
X486008Y685854D01*
X484433D01*
X484040Y685461D01*
Y684673D01*
X484433Y684280D01*
X486008D01*
X495851Y672077D02*
X498212D01*
Y673257D01*
X497819Y673651D01*
X497031D01*
X496638Y673257D01*
Y672077D01*
Y672864D02*
X495851Y673651D01*
Y675619D02*
X498212D01*
X497031Y674438D01*
Y676012D01*
X496244Y676799D02*
X495851Y677193D01*
Y677980D01*
X496244Y678374D01*
X497819D01*
X498212Y677980D01*
Y677193D01*
X497819Y676799D01*
X497425D01*
X497031Y677193D01*
Y678374D01*
X482464Y679950D02*
Y682311D01*
X481283D01*
X480889Y681918D01*
Y681131D01*
X481283Y680737D01*
X482464D01*
X481676D02*
X480889Y679950D01*
X478921D02*
Y682311D01*
X480102Y681131D01*
X478528D01*
X477741Y681918D02*
X477347Y682311D01*
X476560D01*
X476166Y681918D01*
Y681524D01*
X476560Y681131D01*
X476166Y680737D01*
Y680343D01*
X476560Y679950D01*
X477347D01*
X477741Y680343D01*
Y680737D01*
X477347Y681131D01*
X477741Y681524D01*
Y681918D01*
X477347Y681131D02*
X476560D01*
X471834Y662233D02*
Y664595D01*
X470653D01*
X470259Y664201D01*
Y663414D01*
X470653Y663021D01*
X471834D01*
X471046D02*
X470259Y662233D01*
X468292D02*
Y664595D01*
X469472Y663414D01*
X467898D01*
X467111Y664595D02*
X465536D01*
Y664201D01*
X467111Y662627D01*
Y662233D01*
X484040Y628769D02*
X486401D01*
Y629950D01*
X486008Y630344D01*
X485220D01*
X484827Y629950D01*
Y628769D01*
Y629557D02*
X484040Y630344D01*
Y632312D02*
X486401D01*
X485220Y631131D01*
Y632705D01*
X486401Y635067D02*
X486008Y634279D01*
X485220Y633492D01*
X484433D01*
X484040Y633886D01*
Y634673D01*
X484433Y635067D01*
X484827D01*
X485220Y634673D01*
Y633492D01*
X484040Y636644D02*
X486401D01*
Y637824D01*
X486008Y638218D01*
X485220D01*
X484827Y637824D01*
Y636644D01*
Y637431D02*
X484040Y638218D01*
Y640186D02*
X486401D01*
X485220Y639005D01*
Y640579D01*
X486401Y642941D02*
Y641366D01*
X485220D01*
X485614Y642154D01*
Y642547D01*
X485220Y642941D01*
X484433D01*
X484040Y642547D01*
Y641760D01*
X484433Y641366D01*
X501755Y648454D02*
Y650815D01*
X500574D01*
X500181Y650422D01*
Y649635D01*
X500574Y649241D01*
X501755D01*
X500968D02*
X500181Y648454D01*
X498213D02*
Y650815D01*
X499394Y649635D01*
X497819D01*
X495851Y648454D02*
Y650815D01*
X497032Y649635D01*
X495458D01*
X483645Y651604D02*
Y653965D01*
X482464D01*
X482070Y653571D01*
Y652784D01*
X482464Y652391D01*
X483645D01*
X482858D02*
X482070Y651604D01*
X480102D02*
Y653965D01*
X481283Y652784D01*
X479709D01*
X478922Y653571D02*
X478528Y653965D01*
X477741D01*
X477348Y653571D01*
Y653178D01*
X477741Y652784D01*
X478135D01*
X477741D01*
X477348Y652391D01*
Y651997D01*
X477741Y651604D01*
X478528D01*
X478922Y651997D01*
X472227Y633887D02*
Y636248D01*
X471047D01*
X470653Y635855D01*
Y635068D01*
X471047Y634674D01*
X472227D01*
X471440D02*
X470653Y633887D01*
X468685D02*
Y636248D01*
X469866Y635068D01*
X468292D01*
X465930Y633887D02*
X467505D01*
X465930Y635461D01*
Y635855D01*
X466324Y636248D01*
X467111D01*
X467505Y635855D01*
X582661Y549733D02*
Y552095D01*
X581480D01*
X581086Y551701D01*
Y550914D01*
X581480Y550521D01*
X582661D01*
X581873D02*
X581086Y549733D01*
X579118D02*
Y552095D01*
X580299Y550914D01*
X578725D01*
X577938Y549733D02*
X577150D01*
X577544D01*
Y552095D01*
X577938Y551701D01*
X583054Y560462D02*
Y562823D01*
X581873D01*
X581480Y562430D01*
Y561643D01*
X581873Y561249D01*
X583054D01*
X582267D02*
X581480Y560462D01*
X579512D02*
Y562823D01*
X580693Y561643D01*
X579118D01*
X578331Y562430D02*
X577938Y562823D01*
X577150D01*
X576757Y562430D01*
Y560855D01*
X577150Y560462D01*
X577938D01*
X578331Y560855D01*
Y562430D01*
X497399Y471500D02*
Y473861D01*
X496218D01*
X495824Y473467D01*
Y472680D01*
X496218Y472287D01*
X497399D01*
X496611D02*
X495824Y471500D01*
X495037Y473467D02*
X494644Y473861D01*
X493856D01*
X493463Y473467D01*
Y473074D01*
X493856Y472680D01*
X494250D01*
X493856D01*
X493463Y472287D01*
Y471893D01*
X493856Y471500D01*
X494644D01*
X495037Y471893D01*
X492676D02*
X492282Y471500D01*
X491495D01*
X491102Y471893D01*
Y473467D01*
X491495Y473861D01*
X492282D01*
X492676Y473467D01*
Y473074D01*
X492282Y472680D01*
X491102D01*
X511205Y463021D02*
X513567D01*
Y464202D01*
X513173Y464596D01*
X512386D01*
X511992Y464202D01*
Y463021D01*
Y463809D02*
X511205Y464596D01*
X513173Y465383D02*
X513567Y465776D01*
Y466564D01*
X513173Y466957D01*
X512779D01*
X512386Y466564D01*
Y466170D01*
Y466564D01*
X511992Y466957D01*
X511599D01*
X511205Y466564D01*
Y465776D01*
X511599Y465383D01*
X513173Y467744D02*
X513567Y468138D01*
Y468925D01*
X513173Y469319D01*
X512779D01*
X512386Y468925D01*
X511992Y469319D01*
X511599D01*
X511205Y468925D01*
Y468138D01*
X511599Y467744D01*
X511992D01*
X512386Y468138D01*
X512779Y467744D01*
X513173D01*
X512386Y468138D02*
Y468925D01*
X535024Y643041D02*
X537386D01*
Y644222D01*
X536992Y644615D01*
X536205D01*
X535811Y644222D01*
Y643041D01*
Y643828D02*
X535024Y644615D01*
X536992Y645402D02*
X537386Y645796D01*
Y646583D01*
X536992Y646977D01*
X536598D01*
X536205Y646583D01*
Y646190D01*
Y646583D01*
X535811Y646977D01*
X535418D01*
X535024Y646583D01*
Y645796D01*
X535418Y645402D01*
X537386Y647764D02*
Y649338D01*
X536992D01*
X535418Y647764D01*
X535024D01*
X539158Y643041D02*
X541519D01*
Y644222D01*
X541126Y644615D01*
X540339D01*
X539945Y644222D01*
Y643041D01*
Y643828D02*
X539158Y644615D01*
X541126Y645402D02*
X541519Y645796D01*
Y646583D01*
X541126Y646977D01*
X540732D01*
X540339Y646583D01*
Y646190D01*
Y646583D01*
X539945Y646977D01*
X539551D01*
X539158Y646583D01*
Y645796D01*
X539551Y645402D01*
X541519Y649338D02*
Y647764D01*
X540339D01*
X540732Y648551D01*
Y648945D01*
X540339Y649338D01*
X539551D01*
X539158Y648945D01*
Y648158D01*
X539551Y647764D01*
X511204Y470501D02*
Y472863D01*
X510023D01*
X509629Y472469D01*
Y471682D01*
X510023Y471288D01*
X511204D01*
X510417D02*
X509629Y470501D01*
X508842Y472469D02*
X508449Y472863D01*
X507662D01*
X507268Y472469D01*
Y472075D01*
X507662Y471682D01*
X508055D01*
X507662D01*
X507268Y471288D01*
Y470895D01*
X507662Y470501D01*
X508449D01*
X508842Y470895D01*
X505300Y470501D02*
Y472863D01*
X506481Y471682D01*
X504907D01*
X505103Y449242D02*
X507464D01*
Y450423D01*
X507071Y450816D01*
X506284D01*
X505890Y450423D01*
Y449242D01*
Y450029D02*
X505103Y450816D01*
X507071Y451603D02*
X507464Y451997D01*
Y452784D01*
X507071Y453178D01*
X506677D01*
X506284Y452784D01*
Y452390D01*
Y452784D01*
X505890Y453178D01*
X505496D01*
X505103Y452784D01*
Y451997D01*
X505496Y451603D01*
X507071Y453965D02*
X507464Y454358D01*
Y455146D01*
X507071Y455539D01*
X506677D01*
X506284Y455146D01*
Y454752D01*
Y455146D01*
X505890Y455539D01*
X505496D01*
X505103Y455146D01*
Y454358D01*
X505496Y453965D01*
X552937Y471289D02*
X555299D01*
Y472470D01*
X554905Y472863D01*
X554118D01*
X553725Y472470D01*
Y471289D01*
Y472076D02*
X552937Y472863D01*
X554905Y473651D02*
X555299Y474044D01*
Y474831D01*
X554905Y475225D01*
X554512D01*
X554118Y474831D01*
Y474438D01*
Y474831D01*
X553725Y475225D01*
X553331D01*
X552937Y474831D01*
Y474044D01*
X553331Y473651D01*
X552937Y477586D02*
Y476012D01*
X554512Y477586D01*
X554905D01*
X555299Y477193D01*
Y476406D01*
X554905Y476012D01*
X516519Y433395D02*
Y435756D01*
X515338D01*
X514945Y435363D01*
Y434576D01*
X515338Y434182D01*
X516519D01*
X515732D02*
X514945Y433395D01*
X514157Y435363D02*
X513764Y435756D01*
X512977D01*
X512583Y435363D01*
Y434969D01*
X512977Y434576D01*
X513370D01*
X512977D01*
X512583Y434182D01*
Y433788D01*
X512977Y433395D01*
X513764D01*
X514157Y433788D01*
X511796Y433395D02*
X511009D01*
X511402D01*
Y435756D01*
X511796Y435363D01*
X556481Y471289D02*
X558842D01*
Y472470D01*
X558449Y472863D01*
X557661D01*
X557268Y472470D01*
Y471289D01*
Y472076D02*
X556481Y472863D01*
X558449Y473651D02*
X558842Y474044D01*
Y474831D01*
X558449Y475225D01*
X558055D01*
X557661Y474831D01*
Y474438D01*
Y474831D01*
X557268Y475225D01*
X556874D01*
X556481Y474831D01*
Y474044D01*
X556874Y473651D01*
X558449Y476012D02*
X558842Y476406D01*
Y477193D01*
X558449Y477586D01*
X556874D01*
X556481Y477193D01*
Y476406D01*
X556874Y476012D01*
X558449D01*
X505103Y441171D02*
X507464D01*
Y442352D01*
X507071Y442745D01*
X506284D01*
X505890Y442352D01*
Y441171D01*
Y441958D02*
X505103Y442745D01*
Y445107D02*
Y443533D01*
X506677Y445107D01*
X507071D01*
X507464Y444713D01*
Y443926D01*
X507071Y443533D01*
X505496Y445894D02*
X505103Y446287D01*
Y447075D01*
X505496Y447468D01*
X507071D01*
X507464Y447075D01*
Y446287D01*
X507071Y445894D01*
X506677D01*
X506284Y446287D01*
Y447468D01*
X520652Y470107D02*
Y472469D01*
X519472D01*
X519078Y472075D01*
Y471288D01*
X519472Y470895D01*
X520652D01*
X519865D02*
X519078Y470107D01*
X516717D02*
X518291D01*
X516717Y471682D01*
Y472075D01*
X517110Y472469D01*
X517898D01*
X518291Y472075D01*
X515930D02*
X515536Y472469D01*
X514749D01*
X514355Y472075D01*
Y471682D01*
X514749Y471288D01*
X514355Y470895D01*
Y470501D01*
X514749Y470107D01*
X515536D01*
X515930Y470501D01*
Y470895D01*
X515536Y471288D01*
X515930Y471682D01*
Y472075D01*
X515536Y471288D02*
X514749D01*
X480101Y707903D02*
Y710264D01*
X478921D01*
X478527Y709870D01*
Y709083D01*
X478921Y708690D01*
X480101D01*
X479314D02*
X478527Y707903D01*
X476166D02*
X477740D01*
X476166Y709477D01*
Y709870D01*
X476559Y710264D01*
X477346D01*
X477740Y709870D01*
X475379Y710264D02*
X473804D01*
Y709870D01*
X475379Y708296D01*
Y707903D01*
X481284Y723258D02*
X483645D01*
Y724438D01*
X483252Y724832D01*
X482465D01*
X482071Y724438D01*
Y723258D01*
Y724045D02*
X481284Y724832D01*
Y727193D02*
Y725619D01*
X482858Y727193D01*
X483252D01*
X483645Y726800D01*
Y726013D01*
X483252Y725619D01*
X483645Y729555D02*
X483252Y728768D01*
X482465Y727981D01*
X481677D01*
X481284Y728374D01*
Y729161D01*
X481677Y729555D01*
X482071D01*
X482465Y729161D01*
Y727981D01*
X500180Y698454D02*
Y700815D01*
X498999D01*
X498606Y700422D01*
Y699635D01*
X498999Y699241D01*
X500180D01*
X499393D02*
X498606Y698454D01*
X496244D02*
X497819D01*
X496244Y700028D01*
Y700422D01*
X496638Y700815D01*
X497425D01*
X497819Y700422D01*
X493883Y700815D02*
X495457D01*
Y699635D01*
X494670Y700028D01*
X494277D01*
X493883Y699635D01*
Y698847D01*
X494277Y698454D01*
X495064D01*
X495457Y698847D01*
X482857Y731525D02*
Y733886D01*
X481677D01*
X481283Y733493D01*
Y732705D01*
X481677Y732312D01*
X482857D01*
X482070D02*
X481283Y731525D01*
X478922D02*
X480496D01*
X478922Y733099D01*
Y733493D01*
X479315Y733886D01*
X480102D01*
X480496Y733493D01*
X476954Y731525D02*
Y733886D01*
X478134Y732705D01*
X476560D01*
X481678Y545502D02*
X484039D01*
Y546682D01*
X483645Y547076D01*
X482858D01*
X482465Y546682D01*
Y545502D01*
Y546289D02*
X481678Y547076D01*
Y547863D02*
Y548650D01*
Y548257D01*
X484039D01*
X483645Y547863D01*
X484039Y551405D02*
Y549831D01*
X482858D01*
X483252Y550618D01*
Y551012D01*
X482858Y551405D01*
X482071D01*
X481678Y551012D01*
Y550224D01*
X482071Y549831D01*
X507857Y567351D02*
Y569713D01*
X506677D01*
X506283Y569319D01*
Y568532D01*
X506677Y568139D01*
X507857D01*
X507070D02*
X506283Y567351D01*
X505496D02*
X504709D01*
X505102D01*
Y569713D01*
X505496Y569319D01*
X502347Y567351D02*
Y569713D01*
X503528Y568532D01*
X501954D01*
X475968Y451997D02*
Y454359D01*
X474787D01*
X474393Y453965D01*
Y453178D01*
X474787Y452784D01*
X475968D01*
X475180D02*
X474393Y451997D01*
X473606D02*
X472819D01*
X473213D01*
Y454359D01*
X473606Y453965D01*
X471638D02*
X471245Y454359D01*
X470458D01*
X470064Y453965D01*
Y453572D01*
X470458Y453178D01*
X470851D01*
X470458D01*
X470064Y452784D01*
Y452391D01*
X470458Y451997D01*
X471245D01*
X471638Y452391D01*
X491113Y449559D02*
Y451920D01*
X489932D01*
X489539Y451526D01*
Y450739D01*
X489932Y450346D01*
X491113D01*
X490326D02*
X489539Y449559D01*
X488752D02*
X487965D01*
X488358D01*
Y451920D01*
X488752Y451526D01*
X485210Y449559D02*
X486784D01*
X485210Y451133D01*
Y451526D01*
X485603Y451920D01*
X486390D01*
X486784Y451526D01*
X520062Y474438D02*
Y476800D01*
X518882D01*
X518488Y476406D01*
Y475619D01*
X518882Y475225D01*
X520062D01*
X519275D02*
X518488Y474438D01*
X517701D02*
X516914D01*
X517307D01*
Y476800D01*
X517701Y476406D01*
X515733Y474438D02*
X514946D01*
X515339D01*
Y476800D01*
X515733Y476406D01*
X498801Y474933D02*
Y477294D01*
X497620D01*
X497226Y476901D01*
Y476114D01*
X497620Y475720D01*
X498801D01*
X498014D02*
X497226Y474933D01*
X496439D02*
X495652D01*
X496046D01*
Y477294D01*
X496439Y476901D01*
X494472D02*
X494078Y477294D01*
X493291D01*
X492897Y476901D01*
Y475326D01*
X493291Y474933D01*
X494078D01*
X494472Y475326D01*
Y476901D01*
X493488Y549241D02*
Y551603D01*
X492307D01*
X491913Y551209D01*
Y550422D01*
X492307Y550028D01*
X493488D01*
X492700D02*
X491913Y549241D01*
X491126Y549635D02*
X490733Y549241D01*
X489945D01*
X489552Y549635D01*
Y551209D01*
X489945Y551603D01*
X490733D01*
X491126Y551209D01*
Y550816D01*
X490733Y550422D01*
X489552D01*
X559259Y511422D02*
X561620D01*
Y512603D01*
X561226Y512996D01*
X560439D01*
X560046Y512603D01*
Y511422D01*
Y512209D02*
X559259Y512996D01*
X561226Y513784D02*
X561620Y514177D01*
Y514964D01*
X561226Y515358D01*
X560833D01*
X560439Y514964D01*
X560046Y515358D01*
X559652D01*
X559259Y514964D01*
Y514177D01*
X559652Y513784D01*
X560046D01*
X560439Y514177D01*
X560833Y513784D01*
X561226D01*
X560439Y514177D02*
Y514964D01*
X534039Y477981D02*
Y480343D01*
X532858D01*
X532465Y479949D01*
Y479162D01*
X532858Y478769D01*
X534039D01*
X533252D02*
X532465Y477981D01*
X530103Y480343D02*
X531677D01*
Y479162D01*
X530890Y479556D01*
X530497D01*
X530103Y479162D01*
Y478375D01*
X530497Y477981D01*
X531284D01*
X531677Y478375D01*
X536007Y554556D02*
Y556918D01*
X534827D01*
X534433Y556524D01*
Y555737D01*
X534827Y555343D01*
X536007D01*
X535220D02*
X534433Y554556D01*
X532465D02*
Y556918D01*
X533646Y555737D01*
X532071D01*
X565327Y501527D02*
X567689D01*
Y502708D01*
X567295Y503102D01*
X566508D01*
X566114Y502708D01*
Y501527D01*
Y502315D02*
X565327Y503102D01*
X567295Y503889D02*
X567689Y504282D01*
Y505069D01*
X567295Y505463D01*
X566901D01*
X566508Y505069D01*
Y504676D01*
Y505069D01*
X566114Y505463D01*
X565721D01*
X565327Y505069D01*
Y504282D01*
X565721Y503889D01*
X555868Y511707D02*
X558230D01*
Y512888D01*
X557836Y513282D01*
X557049D01*
X556655Y512888D01*
Y511707D01*
Y512495D02*
X555868Y513282D01*
Y515643D02*
Y514069D01*
X557443Y515643D01*
X557836D01*
X558230Y515249D01*
Y514462D01*
X557836Y514069D01*
X562924Y507697D02*
Y510058D01*
X561743D01*
X561350Y509665D01*
Y508878D01*
X561743Y508484D01*
X562924D01*
X562137D02*
X561350Y507697D01*
X560563D02*
X559775D01*
X560169D01*
Y510058D01*
X560563Y509665D01*
X474984Y464989D02*
Y466564D01*
X475378Y466957D01*
X476165D01*
X476558Y466564D01*
Y464989D01*
X476165Y464596D01*
X475378D01*
X475771Y465383D02*
X474984Y464596D01*
X475378D02*
X474984Y464989D01*
X472623Y464596D02*
X474197D01*
X472623Y466170D01*
Y466564D01*
X473016Y466957D01*
X473803D01*
X474197Y466564D01*
X471834Y703965D02*
Y701604D01*
X470260D01*
X468292D02*
Y703965D01*
X469473Y702784D01*
X467898D01*
X556972Y563709D02*
Y561348D01*
X555398D01*
X554610Y563315D02*
X554217Y563709D01*
X553430D01*
X553036Y563315D01*
Y562922D01*
X553430Y562528D01*
X553823D01*
X553430D01*
X553036Y562135D01*
Y561741D01*
X553430Y561348D01*
X554217D01*
X554610Y561741D01*
X511992Y660264D02*
Y657903D01*
X510417D01*
X508056D02*
X509630D01*
X508056Y659477D01*
Y659870D01*
X508449Y660264D01*
X509236D01*
X509630Y659870D01*
X544669Y449634D02*
Y447273D01*
X543094D01*
X542307D02*
X541520D01*
X541914D01*
Y449634D01*
X542307Y449241D01*
X580890Y474437D02*
X581677D01*
X581283D01*
Y472470D01*
X581677Y472076D01*
X582070D01*
X582464Y472470D01*
X580102Y474044D02*
X579709Y474437D01*
X578922D01*
X578528Y474044D01*
Y473650D01*
X578922Y473257D01*
X579315D01*
X578922D01*
X578528Y472863D01*
Y472470D01*
X578922Y472076D01*
X579709D01*
X580102Y472470D01*
X498606Y727587D02*
X499394D01*
X499000D01*
Y725619D01*
X499394Y725225D01*
X499787D01*
X500181Y725619D01*
X497819Y725225D02*
X497032D01*
X497426D01*
Y727587D01*
X497819Y727193D01*
X499000Y665777D02*
X496638D01*
Y666958D01*
X497032Y667351D01*
X498606D01*
X499000Y666958D01*
Y665777D01*
X498606Y668138D02*
X499000Y668532D01*
Y669319D01*
X498606Y669713D01*
X498212D01*
X497819Y669319D01*
Y668926D01*
Y669319D01*
X497425Y669713D01*
X497032D01*
X496638Y669319D01*
Y668532D01*
X497032Y668138D01*
X499000Y637430D02*
X496638D01*
Y638611D01*
X497032Y639005D01*
X498606D01*
X499000Y638611D01*
Y637430D01*
X496638Y641366D02*
Y639792D01*
X498212Y641366D01*
X498606D01*
X499000Y640973D01*
Y640185D01*
X498606Y639792D01*
X490338Y416760D02*
Y414399D01*
X489157D01*
X488764Y414792D01*
Y416367D01*
X489157Y416760D01*
X490338D01*
X487977Y414399D02*
X487189D01*
X487583D01*
Y416760D01*
X487977Y416367D01*
X468291Y676800D02*
X468685Y676407D01*
Y675620D01*
X468291Y675226D01*
X466717D01*
X466323Y675620D01*
Y676407D01*
X466717Y676800D01*
X466323Y678768D02*
X468685D01*
X467504Y677588D01*
Y679162D01*
X468291Y679949D02*
X468685Y680343D01*
Y681130D01*
X468291Y681523D01*
X467898D01*
X467504Y681130D01*
X467110Y681523D01*
X466717D01*
X466323Y681130D01*
Y680343D01*
X466717Y679949D01*
X467110D01*
X467504Y680343D01*
X467898Y679949D01*
X468291D01*
X467504Y680343D02*
Y681130D01*
X489551Y660265D02*
X489945Y659871D01*
Y659084D01*
X489551Y658691D01*
X487977D01*
X487583Y659084D01*
Y659871D01*
X487977Y660265D01*
X487583Y662233D02*
X489945D01*
X488764Y661052D01*
Y662627D01*
X489945Y663414D02*
Y664988D01*
X489551D01*
X487977Y663414D01*
X487583D01*
X489551Y685068D02*
X489945Y684675D01*
Y683887D01*
X489551Y683494D01*
X487977D01*
X487583Y683887D01*
Y684675D01*
X487977Y685068D01*
X487583Y687036D02*
X489945D01*
X488764Y685855D01*
Y687430D01*
X489945Y689791D02*
X489551Y689004D01*
X488764Y688217D01*
X487977D01*
X487583Y688610D01*
Y689397D01*
X487977Y689791D01*
X488370D01*
X488764Y689397D01*
Y688217D01*
X474196Y687430D02*
X474590Y687823D01*
X475377D01*
X475771Y687430D01*
Y685855D01*
X475377Y685462D01*
X474590D01*
X474196Y685855D01*
X472228Y685462D02*
Y687823D01*
X473409Y686643D01*
X471835D01*
X469474Y687823D02*
X471048D01*
Y686643D01*
X470261Y687036D01*
X469867D01*
X469474Y686643D01*
Y685855D01*
X469867Y685462D01*
X470654D01*
X471048Y685855D01*
X474196Y653965D02*
X474590Y654359D01*
X475377D01*
X475771Y653965D01*
Y652391D01*
X475377Y651997D01*
X474590D01*
X474196Y652391D01*
X472228Y651997D02*
Y654359D01*
X473409Y653178D01*
X471835D01*
X471048Y653965D02*
X470654Y654359D01*
X469867D01*
X469474Y653965D01*
Y653572D01*
X469867Y653178D01*
X470261D01*
X469867D01*
X469474Y652784D01*
Y652391D01*
X469867Y651997D01*
X470654D01*
X471048Y652391D01*
X489945Y631525D02*
X490338Y631131D01*
Y630344D01*
X489945Y629951D01*
X488370D01*
X487977Y630344D01*
Y631131D01*
X488370Y631525D01*
X487977Y633493D02*
X490338D01*
X489157Y632312D01*
Y633886D01*
X487977Y636248D02*
Y634673D01*
X489551Y636248D01*
X489945D01*
X490338Y635854D01*
Y635067D01*
X489945Y634673D01*
X494275Y652785D02*
X494669Y652391D01*
Y651604D01*
X494275Y651210D01*
X492701D01*
X492308Y651604D01*
Y652391D01*
X492701Y652785D01*
X492308Y654752D02*
X494669D01*
X493488Y653572D01*
Y655146D01*
X492308Y655933D02*
Y656720D01*
Y656327D01*
X494669D01*
X494275Y655933D01*
X566322Y565678D02*
X566716Y566071D01*
X567503D01*
X567897Y565678D01*
Y564103D01*
X567503Y563710D01*
X566716D01*
X566322Y564103D01*
X565535Y565678D02*
X565142Y566071D01*
X564355D01*
X563961Y565678D01*
Y565284D01*
X564355Y564890D01*
X564748D01*
X564355D01*
X563961Y564497D01*
Y564103D01*
X564355Y563710D01*
X565142D01*
X565535Y564103D01*
X563174D02*
X562780Y563710D01*
X561993D01*
X561599Y564103D01*
Y565678D01*
X561993Y566071D01*
X562780D01*
X563174Y565678D01*
Y565284D01*
X562780Y564890D01*
X561599D01*
X581381Y547764D02*
X581775Y548158D01*
X582562D01*
X582956Y547764D01*
Y546190D01*
X582562Y545796D01*
X581775D01*
X581381Y546190D01*
X580594Y547764D02*
X580201Y548158D01*
X579414D01*
X579020Y547764D01*
Y547371D01*
X579414Y546977D01*
X579807D01*
X579414D01*
X579020Y546584D01*
Y546190D01*
X579414Y545796D01*
X580201D01*
X580594Y546190D01*
X578233Y548158D02*
X576658D01*
Y547764D01*
X578233Y546190D01*
Y545796D01*
X528527Y667351D02*
X528921Y667744D01*
X529708D01*
X530101Y667351D01*
Y665777D01*
X529708Y665383D01*
X528921D01*
X528527Y665777D01*
X527740Y667351D02*
X527346Y667744D01*
X526559D01*
X526166Y667351D01*
Y666957D01*
X526559Y666564D01*
X526953D01*
X526559D01*
X526166Y666170D01*
Y665777D01*
X526559Y665383D01*
X527346D01*
X527740Y665777D01*
X523804Y667744D02*
X524591Y667351D01*
X525379Y666564D01*
Y665777D01*
X524985Y665383D01*
X524198D01*
X523804Y665777D01*
Y666170D01*
X524198Y666564D01*
X525379D01*
X520653Y647272D02*
X521047Y647666D01*
X521834D01*
X522227Y647272D01*
Y645698D01*
X521834Y645304D01*
X521047D01*
X520653Y645698D01*
X519866Y647272D02*
X519472Y647666D01*
X518685D01*
X518292Y647272D01*
Y646878D01*
X518685Y646485D01*
X519079D01*
X518685D01*
X518292Y646091D01*
Y645698D01*
X518685Y645304D01*
X519472D01*
X519866Y645698D01*
X515930Y647666D02*
X517505D01*
Y646485D01*
X516717Y646878D01*
X516324D01*
X515930Y646485D01*
Y645698D01*
X516324Y645304D01*
X517111D01*
X517505Y645698D01*
X530496Y474831D02*
X530889Y475225D01*
X531676D01*
X532070Y474831D01*
Y473257D01*
X531676Y472863D01*
X530889D01*
X530496Y473257D01*
X529708Y474831D02*
X529315Y475225D01*
X528528D01*
X528134Y474831D01*
Y474438D01*
X528528Y474044D01*
X528921D01*
X528528D01*
X528134Y473651D01*
Y473257D01*
X528528Y472863D01*
X529315D01*
X529708Y473257D01*
X527347Y474831D02*
X526953Y475225D01*
X526166D01*
X525773Y474831D01*
Y474438D01*
X526166Y474044D01*
X526560D01*
X526166D01*
X525773Y473651D01*
Y473257D01*
X526166Y472863D01*
X526953D01*
X527347Y473257D01*
X543882Y453572D02*
X544275Y453179D01*
Y452391D01*
X543882Y451998D01*
X542307D01*
X541914Y452391D01*
Y453179D01*
X542307Y453572D01*
X543882Y454359D02*
X544275Y454753D01*
Y455540D01*
X543882Y455934D01*
X543488D01*
X543094Y455540D01*
Y455146D01*
Y455540D01*
X542701Y455934D01*
X542307D01*
X541914Y455540D01*
Y454753D01*
X542307Y454359D01*
X541914Y458295D02*
Y456721D01*
X543488Y458295D01*
X543882D01*
X544275Y457901D01*
Y457114D01*
X543882Y456721D01*
X548212Y453966D02*
X548606Y453572D01*
Y452785D01*
X548212Y452391D01*
X546638D01*
X546244Y452785D01*
Y453572D01*
X546638Y453966D01*
X548212Y454753D02*
X548606Y455146D01*
Y455934D01*
X548212Y456327D01*
X547819D01*
X547425Y455934D01*
Y455540D01*
Y455934D01*
X547032Y456327D01*
X546638D01*
X546244Y455934D01*
Y455146D01*
X546638Y454753D01*
X546244Y457114D02*
Y457901D01*
Y457508D01*
X548606D01*
X548212Y457114D01*
X526559Y453572D02*
X526952Y453179D01*
Y452391D01*
X526559Y451998D01*
X524985D01*
X524591Y452391D01*
Y453179D01*
X524985Y453572D01*
X526559Y454359D02*
X526952Y454753D01*
Y455540D01*
X526559Y455934D01*
X526165D01*
X525772Y455540D01*
Y455146D01*
Y455540D01*
X525378Y455934D01*
X524985D01*
X524591Y455540D01*
Y454753D01*
X524985Y454359D01*
X526559Y456721D02*
X526952Y457114D01*
Y457901D01*
X526559Y458295D01*
X524985D01*
X524591Y457901D01*
Y457114D01*
X524985Y456721D01*
X526559D01*
X522622Y435363D02*
X523015Y435756D01*
X523802D01*
X524196Y435363D01*
Y433788D01*
X523802Y433395D01*
X523015D01*
X522622Y433788D01*
X520260Y433395D02*
X521834D01*
X520260Y434969D01*
Y435363D01*
X520654Y435756D01*
X521441D01*
X521834Y435363D01*
X519473Y433788D02*
X519079Y433395D01*
X518292D01*
X517899Y433788D01*
Y435363D01*
X518292Y435756D01*
X519079D01*
X519473Y435363D01*
Y434969D01*
X519079Y434576D01*
X517899D01*
X527543Y434478D02*
X527937Y434084D01*
Y433297D01*
X527543Y432903D01*
X525969D01*
X525575Y433297D01*
Y434084D01*
X525969Y434478D01*
X525575Y436839D02*
Y435265D01*
X527149Y436839D01*
X527543D01*
X527937Y436446D01*
Y435658D01*
X527543Y435265D01*
Y437626D02*
X527937Y438020D01*
Y438807D01*
X527543Y439200D01*
X527149D01*
X526756Y438807D01*
X526362Y439200D01*
X525969D01*
X525575Y438807D01*
Y438020D01*
X525969Y437626D01*
X526362D01*
X526756Y438020D01*
X527149Y437626D01*
X527543D01*
X526756Y438020D02*
Y438807D01*
X536795Y441367D02*
X537188Y441760D01*
X537976D01*
X538369Y441367D01*
Y439792D01*
X537976Y439399D01*
X537188D01*
X536795Y439792D01*
X534433Y439399D02*
X536008D01*
X534433Y440973D01*
Y441367D01*
X534827Y441760D01*
X535614D01*
X536008Y441367D01*
X533646Y441760D02*
X532072D01*
Y441367D01*
X533646Y439792D01*
Y439399D01*
X470653Y709870D02*
X471047Y710264D01*
X471834D01*
X472227Y709870D01*
Y708296D01*
X471834Y707903D01*
X471047D01*
X470653Y708296D01*
X468292Y707903D02*
X469866D01*
X468292Y709477D01*
Y709870D01*
X468685Y710264D01*
X469472D01*
X469866Y709870D01*
X465930Y710264D02*
X466717Y709870D01*
X467505Y709083D01*
Y708296D01*
X467111Y707903D01*
X466324D01*
X465930Y708296D01*
Y708690D01*
X466324Y709083D01*
X467505D01*
X566114Y445621D02*
X566507Y446014D01*
X567294D01*
X567688Y445621D01*
Y444047D01*
X567294Y443653D01*
X566507D01*
X566114Y444047D01*
X563752Y443653D02*
X565326D01*
X563752Y445227D01*
Y445621D01*
X564146Y446014D01*
X564933D01*
X565326Y445621D01*
X561391Y446014D02*
X562965D01*
Y444834D01*
X562178Y445227D01*
X561784D01*
X561391Y444834D01*
Y444047D01*
X561784Y443653D01*
X562571D01*
X562965Y444047D01*
X520260Y633887D02*
X520653Y633494D01*
Y632706D01*
X520260Y632313D01*
X518685D01*
X518292Y632706D01*
Y633494D01*
X518685Y633887D01*
X518292Y636248D02*
Y634674D01*
X519866Y636248D01*
X520260D01*
X520653Y635855D01*
Y635068D01*
X520260Y634674D01*
Y637036D02*
X520653Y637429D01*
Y638216D01*
X520260Y638610D01*
X519866D01*
X519473Y638216D01*
Y637823D01*
Y638216D01*
X519079Y638610D01*
X518685D01*
X518292Y638216D01*
Y637429D01*
X518685Y637036D01*
X523803Y633887D02*
X524196Y633494D01*
Y632706D01*
X523803Y632313D01*
X522229D01*
X521835Y632706D01*
Y633494D01*
X522229Y633887D01*
X521835Y636248D02*
Y634674D01*
X523409Y636248D01*
X523803D01*
X524196Y635855D01*
Y635068D01*
X523803Y634674D01*
X521835Y638610D02*
Y637036D01*
X523409Y638610D01*
X523803D01*
X524196Y638216D01*
Y637429D01*
X523803Y637036D01*
X527346Y633887D02*
X527740Y633493D01*
Y632706D01*
X527346Y632313D01*
X525772D01*
X525378Y632706D01*
Y633493D01*
X525772Y633887D01*
X525378Y636248D02*
Y634674D01*
X526953Y636248D01*
X527346D01*
X527740Y635855D01*
Y635068D01*
X527346Y634674D01*
X525378Y637036D02*
Y637823D01*
Y637429D01*
X527740D01*
X527346Y637036D01*
X500968Y706131D02*
X501362Y705737D01*
Y704950D01*
X500968Y704557D01*
X499394D01*
X499000Y704950D01*
Y705737D01*
X499394Y706131D01*
X499000Y706918D02*
Y707705D01*
Y707312D01*
X501362D01*
X500968Y706918D01*
X501362Y708886D02*
Y710460D01*
X500968D01*
X499394Y708886D01*
X499000D01*
X534236Y714595D02*
X534629Y714989D01*
X535417D01*
X535810Y714595D01*
Y713021D01*
X535417Y712627D01*
X534629D01*
X534236Y713021D01*
X533449Y712627D02*
X532661D01*
X533055D01*
Y714989D01*
X533449Y714595D01*
X529907Y714989D02*
X530694Y714595D01*
X531481Y713808D01*
Y713021D01*
X531087Y712627D01*
X530300D01*
X529907Y713021D01*
Y713414D01*
X530300Y713808D01*
X531481D01*
X526362Y714595D02*
X526755Y714989D01*
X527542D01*
X527936Y714595D01*
Y713021D01*
X527542Y712627D01*
X526755D01*
X526362Y713021D01*
X525575Y712627D02*
X524788D01*
X525181D01*
Y714989D01*
X525575Y714595D01*
X522032Y714989D02*
X523607D01*
Y713808D01*
X522820Y714201D01*
X522426D01*
X522032Y713808D01*
Y713021D01*
X522426Y712627D01*
X523213D01*
X523607Y713021D01*
X481624Y454125D02*
X482018Y454519D01*
X482805D01*
X483199Y454125D01*
Y452551D01*
X482805Y452158D01*
X482018D01*
X481624Y452551D01*
X480837Y452158D02*
X480050D01*
X480444D01*
Y454519D01*
X480837Y454125D01*
X477689Y452158D02*
Y454519D01*
X478869Y453338D01*
X477295D01*
X554315Y480737D02*
X554708Y481130D01*
X555495D01*
X555889Y480737D01*
Y479162D01*
X555495Y478769D01*
X554708D01*
X554315Y479162D01*
X553527Y478769D02*
X552740D01*
X553134D01*
Y481130D01*
X553527Y480737D01*
X549985Y478769D02*
X551559D01*
X549985Y480343D01*
Y480737D01*
X550379Y481130D01*
X551166D01*
X551559Y480737D01*
X489748Y478768D02*
X490141Y479162D01*
X490929D01*
X491322Y478768D01*
Y477194D01*
X490929Y476800D01*
X490141D01*
X489748Y477194D01*
X488961Y476800D02*
X488173D01*
X488567D01*
Y479162D01*
X488961Y478768D01*
X486993Y476800D02*
X486206D01*
X486599D01*
Y479162D01*
X486993Y478768D01*
X487177Y543669D02*
X487570Y543276D01*
Y542489D01*
X487177Y542095D01*
X485602D01*
X485209Y542489D01*
Y543276D01*
X485602Y543669D01*
X485209Y544456D02*
Y545244D01*
Y544850D01*
X487570D01*
X487177Y544456D01*
Y546424D02*
X487570Y546818D01*
Y547605D01*
X487177Y547999D01*
X485602D01*
X485209Y547605D01*
Y546818D01*
X485602Y546424D01*
X487177D01*
X544460Y553889D02*
X544854Y554282D01*
X545641D01*
X546035Y553889D01*
Y552314D01*
X545641Y551921D01*
X544854D01*
X544460Y552314D01*
X543673D02*
X543280Y551921D01*
X542493D01*
X542099Y552314D01*
Y553889D01*
X542493Y554282D01*
X543280D01*
X543673Y553889D01*
Y553495D01*
X543280Y553101D01*
X542099D01*
X558055Y535462D02*
X558449Y535068D01*
Y534281D01*
X558055Y533887D01*
X556481D01*
X556087Y534281D01*
Y535068D01*
X556481Y535462D01*
X558055Y536249D02*
X558449Y536642D01*
Y537429D01*
X558055Y537823D01*
X557661D01*
X557268Y537429D01*
X556874Y537823D01*
X556481D01*
X556087Y537429D01*
Y536642D01*
X556481Y536249D01*
X556874D01*
X557268Y536642D01*
X557661Y536249D01*
X558055D01*
X557268Y536642D02*
Y537429D01*
X558055Y524044D02*
X558449Y523651D01*
Y522863D01*
X558055Y522470D01*
X556481D01*
X556087Y522863D01*
Y523651D01*
X556481Y524044D01*
X558449Y524831D02*
Y526406D01*
X558055D01*
X556481Y524831D01*
X556087D01*
X578134Y503178D02*
X578527Y503571D01*
X579315D01*
X579708Y503178D01*
Y501603D01*
X579315Y501210D01*
X578527D01*
X578134Y501603D01*
X575772Y501210D02*
X577347D01*
X575772Y502784D01*
Y503178D01*
X576166Y503571D01*
X576953D01*
X577347Y503178D01*
X486402Y492548D02*
X486795Y492941D01*
X487582D01*
X487976Y492548D01*
Y490973D01*
X487582Y490580D01*
X486795D01*
X486402Y490973D01*
X485614Y490580D02*
X484827D01*
X485221D01*
Y492941D01*
X485614Y492548D01*
D11*
X538232Y661170D02*
G03*
X538232Y661170I-197J0D01*
G01*
X521441Y440284D02*
G03*
X521441Y440284I-197J0D01*
G01*
X484327Y698309D02*
G03*
X484327Y698309I-197J0D01*
G01*
X540449Y459061D02*
G03*
X540449Y459061I-197J0D01*
G01*
X512595Y723097D02*
G03*
X512595Y723097I-197J0D01*
G01*
X472425Y520501D02*
G03*
X472425Y520501I-197J0D01*
G01*
X469976Y730518D02*
G03*
X469976Y730518I-197J0D01*
G01*
X575006Y558406D02*
G03*
X575006Y558406I-197J0D01*
G01*
X544185Y716927D02*
G03*
X544185Y716927I-197J0D01*
G01*
X538953Y710116D02*
Y711472D01*
X537428Y710794D02*
X538953Y710116D01*
X537428Y710794D02*
X538953Y711472D01*
X491894Y672101D02*
X494256D01*
X492122Y643904D02*
X494484D01*
X465929Y789791D02*
Y785856D01*
X467897D01*
X468553Y786512D01*
Y787168D01*
X467897Y787824D01*
X465929D01*
X467897D01*
X468553Y788480D01*
Y789136D01*
X467897Y789791D01*
X465929D01*
X471833D02*
X470521D01*
X469865Y789136D01*
Y786512D01*
X470521Y785856D01*
X471833D01*
X472489Y786512D01*
Y789136D01*
X471833Y789791D01*
X473801D02*
X476425D01*
X475113D01*
Y785856D01*
X477736Y789791D02*
X480360D01*
X479048D01*
Y785856D01*
X483640Y789791D02*
X482328D01*
X481672Y789136D01*
Y786512D01*
X482328Y785856D01*
X483640D01*
X484296Y786512D01*
Y789136D01*
X483640Y789791D01*
X485608Y785856D02*
Y789791D01*
X486920Y788480D01*
X488232Y789791D01*
Y785856D01*
X495447Y789791D02*
X494135D01*
X493479Y789136D01*
Y786512D01*
X494135Y785856D01*
X495447D01*
X496103Y786512D01*
Y789136D01*
X495447Y789791D01*
X497415D02*
Y787168D01*
X498727Y785856D01*
X500039Y787168D01*
Y789791D01*
X503975D02*
X501351D01*
Y785856D01*
X503975D01*
X501351Y787824D02*
X502663D01*
X505287Y785856D02*
Y789791D01*
X507254D01*
X507910Y789136D01*
Y787824D01*
X507254Y787168D01*
X505287D01*
X506599D02*
X507910Y785856D01*
X509222Y789791D02*
Y785856D01*
X511846D01*
X513158D02*
Y788480D01*
X514470Y789791D01*
X515782Y788480D01*
Y785856D01*
Y787824D01*
X513158D01*
X517094Y789791D02*
Y789136D01*
X518406Y787824D01*
X519718Y789136D01*
Y789791D01*
X518406Y787824D02*
Y785856D01*
D12*
X516323Y460658D02*
X521047D01*
X486512Y716640D02*
Y719640D01*
X491433Y716739D02*
Y719738D01*
D39*
X552917Y540282D02*
G03*
X552917Y540282I-492J0D01*
G01*
X537889Y632856D02*
G03*
X537889Y632856I-171J0D01*
G01*
X490935Y442498D02*
G03*
X490935Y442498I-317J0D01*
G01*
X486063Y488834D02*
G03*
X486063Y488834I-171J0D01*
G01*
D40*
X545247Y536148D02*
G03*
X545247Y536148I-696J0D01*
G01*
M02*
