G04*
G04 #@! TF.GenerationSoftware,Altium Limited,Altium Designer,20.2.6 (244)*
G04*
G04 Layer_Color=65535*
%FSLAX25Y25*%
%MOIN*%
G70*
G04*
G04 #@! TF.SameCoordinates,D103880D-7D63-4280-A8AA-78B1B6904BBD*
G04*
G04*
G04 #@! TF.FilePolarity,Positive*
G04*
G01*
G75*
%ADD10C,0.00591*%
%ADD11C,0.00394*%
%ADD12C,0.00787*%
G36*
X515547Y623262D02*
X516236Y624935D01*
X514858D01*
X515547Y623262D01*
D02*
G37*
D10*
X560289Y383755D02*
G03*
X566493Y383807I3017J10147D01*
G01*
X553158Y396919D02*
G03*
X553211Y390714I10147J-3017D01*
G01*
X566322Y404050D02*
G03*
X560118Y403997I-3017J-10147D01*
G01*
X573453Y390885D02*
G03*
X573400Y397090I-10147J3017D01*
G01*
X539363Y545711D02*
G03*
X535013Y541286I5042J-9308D01*
G01*
X553714Y541444D02*
G03*
X549290Y545795I-9308J-5042D01*
G01*
X549448Y527094D02*
G03*
X553798Y531518I-5042J9308D01*
G01*
X535097Y531360D02*
G03*
X539522Y527010I9308J5042D01*
G01*
X527422Y526550D02*
G03*
X521218Y526497I-3017J-10147D01*
G01*
X534553Y513385D02*
G03*
X534501Y519590I-10147J3017D01*
G01*
X521389Y506255D02*
G03*
X527593Y506307I3017J10147D01*
G01*
X514258Y519419D02*
G03*
X514311Y513214I10147J-3017D01*
G01*
X499364Y545711D02*
G03*
X495013Y541286I5042J-9308D01*
G01*
X513714Y541444D02*
G03*
X509290Y545795I-9308J-5042D01*
G01*
X509448Y527094D02*
G03*
X513798Y531518I-5042J9308D01*
G01*
X495097Y531360D02*
G03*
X499521Y527010I9308J5042D01*
G01*
X534553Y553385D02*
G03*
X534501Y559590I-10147J3017D01*
G01*
X521389Y546255D02*
G03*
X527593Y546307I3017J10147D01*
G01*
X514258Y559419D02*
G03*
X514311Y553214I10147J-3017D01*
G01*
X527422Y566550D02*
G03*
X521218Y566497I-3017J-10147D01*
G01*
X575454Y546550D02*
G03*
X569249Y546497I-3017J-10147D01*
G01*
X582584Y533386D02*
G03*
X582532Y539590I-10147J3017D01*
G01*
X569420Y526255D02*
G03*
X575625Y526307I3017J10147D01*
G01*
X562290Y539419D02*
G03*
X562342Y533214I10147J-3017D01*
G01*
X482489Y383755D02*
G03*
X488693Y383807I3017J10147D01*
G01*
X475358Y396919D02*
G03*
X475411Y390714I10147J-3017D01*
G01*
X488522Y404050D02*
G03*
X482318Y403997I-3017J-10147D01*
G01*
X495653Y390885D02*
G03*
X495601Y397090I-10147J3017D01*
G01*
X480464Y487211D02*
G03*
X476113Y482786I5042J-9308D01*
G01*
X494814Y482944D02*
G03*
X490390Y487295I-9308J-5042D01*
G01*
X490548Y468594D02*
G03*
X494898Y473018I-5042J9308D01*
G01*
X476197Y472860D02*
G03*
X480621Y468510I9308J5042D01*
G01*
X527422Y488050D02*
G03*
X521218Y487997I-3017J-10147D01*
G01*
X534553Y474886D02*
G03*
X534501Y481090I-10147J3017D01*
G01*
X521389Y467755D02*
G03*
X527593Y467807I3017J10147D01*
G01*
X514258Y480919D02*
G03*
X514311Y474714I10147J-3017D01*
G01*
X572614Y482944D02*
G03*
X568190Y487295I-9308J-5042D01*
G01*
X568348Y468594D02*
G03*
X572698Y473018I-5042J9308D01*
G01*
X553997Y472860D02*
G03*
X558422Y468510I9308J5042D01*
G01*
X558263Y487211D02*
G03*
X553913Y482786I5042J-9308D01*
G01*
X488522Y460050D02*
G03*
X482318Y459997I-3017J-10147D01*
G01*
X495653Y446885D02*
G03*
X495601Y453090I-10147J3017D01*
G01*
X482489Y439755D02*
G03*
X488693Y439807I3017J10147D01*
G01*
X475358Y452919D02*
G03*
X475411Y446714I10147J-3017D01*
G01*
X519363Y459211D02*
G03*
X515013Y454786I5042J-9308D01*
G01*
X533714Y454944D02*
G03*
X529290Y459295I-9308J-5042D01*
G01*
X529448Y440594D02*
G03*
X533798Y445018I-5042J9308D01*
G01*
X515097Y444860D02*
G03*
X519522Y440510I9308J5042D01*
G01*
X566322Y460050D02*
G03*
X560118Y459997I-3017J-10147D01*
G01*
X573453Y446885D02*
G03*
X573400Y453090I-10147J3017D01*
G01*
X560289Y439755D02*
G03*
X566493Y439807I3017J10147D01*
G01*
X553158Y452919D02*
G03*
X553211Y446714I10147J-3017D01*
G01*
X494814Y426944D02*
G03*
X490390Y431295I-9308J-5042D01*
G01*
X490548Y412594D02*
G03*
X494898Y417018I-5042J9308D01*
G01*
X476197Y416860D02*
G03*
X480621Y412510I9308J5042D01*
G01*
X480464Y431211D02*
G03*
X476113Y426786I5042J-9308D01*
G01*
X521389Y411755D02*
G03*
X527593Y411807I3017J10147D01*
G01*
X514258Y424919D02*
G03*
X514311Y418714I10147J-3017D01*
G01*
X527422Y432050D02*
G03*
X521218Y431997I-3017J-10147D01*
G01*
X534553Y418886D02*
G03*
X534501Y425090I-10147J3017D01*
G01*
X572614Y426944D02*
G03*
X568190Y431295I-9308J-5042D01*
G01*
X568348Y412594D02*
G03*
X572698Y417018I-5042J9308D01*
G01*
X553997Y416860D02*
G03*
X558422Y412510I9308J5042D01*
G01*
X558263Y431211D02*
G03*
X553913Y426786I5042J-9308D01*
G01*
X479422Y546550D02*
G03*
X473218Y546497I-3017J-10147D01*
G01*
X486553Y533386D02*
G03*
X486501Y539590I-10147J3017D01*
G01*
X473389Y526255D02*
G03*
X479593Y526307I3017J10147D01*
G01*
X466258Y539419D02*
G03*
X466311Y533214I10147J-3017D01*
G01*
X527422Y404050D02*
G03*
X521218Y403997I-3017J-10147D01*
G01*
X514258Y396919D02*
G03*
X514311Y390714I10147J-3017D01*
G01*
X521389Y383755D02*
G03*
X527593Y383807I3017J10147D01*
G01*
X534553Y390885D02*
G03*
X534501Y397090I-10147J3017D01*
G01*
X510342Y613420D02*
Y621392D01*
X513906D01*
X514169Y608203D02*
X534642D01*
X515547Y623262D02*
X516236Y624935D01*
X514957D02*
X516236D01*
X514957D02*
X515547Y623262D01*
X538470Y613420D02*
Y621392D01*
X534906D02*
X538470D01*
X542614Y720183D02*
X543992D01*
X503181Y739479D02*
Y742479D01*
X519681Y739479D02*
Y742479D01*
X515843Y711522D02*
X517220D01*
X512299D02*
X513677D01*
X539650Y711446D02*
X541028D01*
X536500D02*
X537878D01*
X519386Y711522D02*
X520764D01*
X533350Y711446D02*
X534728D01*
X542799D02*
X544177D01*
X536138Y730124D02*
Y731502D01*
X541324Y589216D02*
X544473D01*
Y591315D01*
Y592364D02*
Y593414D01*
Y592889D01*
X542373D01*
Y592364D01*
Y597087D02*
Y595513D01*
X542898Y594988D01*
X543948D01*
X544473Y595513D01*
Y597087D01*
Y599711D02*
Y598661D01*
X543948Y598137D01*
X542898D01*
X542373Y598661D01*
Y599711D01*
X542898Y600236D01*
X543423D01*
Y598137D01*
X544473Y601285D02*
X542373D01*
Y602859D01*
X542898Y603384D01*
X544473D01*
Y604434D02*
Y606008D01*
X543948Y606533D01*
X543423Y606008D01*
Y604958D01*
X542898Y604434D01*
X542373Y604958D01*
Y606533D01*
X544473Y609157D02*
Y608107D01*
X543948Y607582D01*
X542898D01*
X542373Y608107D01*
Y609157D01*
X542898Y609681D01*
X543423D01*
Y607582D01*
X541324Y612830D02*
X544473D01*
Y611256D01*
X543948Y610731D01*
X542898D01*
X542373Y611256D01*
Y612830D01*
Y617028D02*
X543948D01*
X544473Y617553D01*
Y619127D01*
X542373D01*
X544473Y620177D02*
X542373D01*
Y621751D01*
X542898Y622276D01*
X544473D01*
X541324Y625424D02*
X544473D01*
Y623850D01*
X543948Y623325D01*
X542898D01*
X542373Y623850D01*
Y625424D01*
X544473Y628048D02*
Y626999D01*
X543948Y626474D01*
X542898D01*
X542373Y626999D01*
Y628048D01*
X542898Y628573D01*
X543423D01*
Y626474D01*
X542373Y629622D02*
X544473D01*
X543423D01*
X542898Y630147D01*
X542373Y630672D01*
Y631197D01*
X541849Y638019D02*
X541324Y637494D01*
Y636444D01*
X541849Y635920D01*
X543948D01*
X544473Y636444D01*
Y637494D01*
X543948Y638019D01*
X541324Y641167D02*
Y639068D01*
X544473D01*
Y641167D01*
X542898Y639068D02*
Y640118D01*
X544473Y642217D02*
X541324D01*
Y643791D01*
X541849Y644316D01*
X542898D01*
X543423Y643791D01*
Y642217D01*
Y643266D02*
X544473Y644316D01*
Y645365D02*
X541324D01*
X544473Y647464D01*
X541324D01*
X542898Y648514D02*
Y650613D01*
X541324Y653237D02*
Y652187D01*
X541849Y651662D01*
X543948D01*
X544473Y652187D01*
Y653237D01*
X543948Y653762D01*
X541849D01*
X541324Y653237D01*
Y654811D02*
X544473D01*
X542898D01*
Y656910D01*
X541324D01*
X544473D01*
X541324Y657960D02*
X544473D01*
Y660059D01*
X542898Y661108D02*
Y663207D01*
X541849Y666356D02*
X541324Y665831D01*
Y664782D01*
X541849Y664257D01*
X542373D01*
X542898Y664782D01*
Y665831D01*
X543423Y666356D01*
X543948D01*
X544473Y665831D01*
Y664782D01*
X543948Y664257D01*
X542373Y670554D02*
X544473Y671604D01*
X542373Y672653D01*
X544473Y675802D02*
Y673703D01*
X542373Y675802D01*
X541849D01*
X541324Y675277D01*
Y674227D01*
X541849Y673703D01*
X469309Y574720D02*
X466685D01*
X467734D01*
Y574196D01*
Y575245D01*
Y574720D01*
X466685D01*
X466160Y575245D01*
X469309Y577344D02*
Y578394D01*
X468784Y578919D01*
X467734D01*
X467210Y578394D01*
Y577344D01*
X467734Y576820D01*
X468784D01*
X469309Y577344D01*
X467210Y579968D02*
X468784D01*
X469309Y580493D01*
Y582067D01*
X467210D01*
X469309Y583117D02*
X467210D01*
Y584691D01*
X467734Y585216D01*
X469309D01*
X466160Y588364D02*
X469309D01*
Y586790D01*
X468784Y586265D01*
X467734D01*
X467210Y586790D01*
Y588364D01*
Y589939D02*
Y590988D01*
X467734Y591513D01*
X469309D01*
Y589939D01*
X468784Y589414D01*
X468259Y589939D01*
Y591513D01*
X466685Y593087D02*
X467210D01*
Y592562D01*
Y593612D01*
Y593087D01*
X468784D01*
X469309Y593612D01*
Y595186D02*
Y596236D01*
Y595711D01*
X467210D01*
Y595186D01*
X469309Y598335D02*
Y599384D01*
X468784Y599909D01*
X467734D01*
X467210Y599384D01*
Y598335D01*
X467734Y597810D01*
X468784D01*
X469309Y598335D01*
Y600959D02*
X467210D01*
Y602533D01*
X467734Y603058D01*
X469309D01*
X466160Y606206D02*
X469309D01*
Y604632D01*
X468784Y604107D01*
X467734D01*
X467210Y604632D01*
Y606206D01*
X469309Y608830D02*
Y607781D01*
X468784Y607256D01*
X467734D01*
X467210Y607781D01*
Y608830D01*
X467734Y609355D01*
X468259D01*
Y607256D01*
X467210Y610404D02*
X469309Y611454D01*
X467210Y612503D01*
X469309Y613553D02*
Y614603D01*
Y614078D01*
X467210D01*
Y613553D01*
Y618276D02*
Y616702D01*
X467734Y616177D01*
X468784D01*
X469309Y616702D01*
Y618276D01*
Y620900D02*
Y619850D01*
X468784Y619325D01*
X467734D01*
X467210Y619850D01*
Y620900D01*
X467734Y621424D01*
X468259D01*
Y619325D01*
X469309Y622474D02*
Y624048D01*
X468784Y624573D01*
X468259Y624048D01*
Y622999D01*
X467734Y622474D01*
X467210Y622999D01*
Y624573D01*
X469309Y625623D02*
X468784D01*
Y626147D01*
X469309D01*
Y625623D01*
X467210Y630345D02*
Y628771D01*
X467734Y628246D01*
X468784D01*
X469309Y628771D01*
Y630345D01*
Y631920D02*
Y632969D01*
X468784Y633494D01*
X467734D01*
X467210Y632969D01*
Y631920D01*
X467734Y631395D01*
X468784D01*
X469309Y631920D01*
Y634544D02*
X467210D01*
Y635068D01*
X467734Y635593D01*
X469309D01*
X467734D01*
X467210Y636118D01*
X467734Y636643D01*
X469309D01*
Y637692D02*
X467210Y639791D01*
X470358Y640841D02*
X467210D01*
Y642415D01*
X467734Y642940D01*
X468784D01*
X469309Y642415D01*
Y640841D01*
X467210Y644514D02*
Y645564D01*
X467734Y646089D01*
X469309D01*
Y644514D01*
X468784Y643989D01*
X468259Y644514D01*
Y646089D01*
X469309Y647138D02*
Y648712D01*
X468784Y649237D01*
X468259Y648712D01*
Y647663D01*
X467734Y647138D01*
X467210Y647663D01*
Y649237D01*
X469309Y650287D02*
Y651861D01*
X468784Y652386D01*
X468259Y651861D01*
Y650811D01*
X467734Y650287D01*
X467210Y650811D01*
Y652386D01*
X470358Y653435D02*
X467210D01*
Y655010D01*
X467734Y655534D01*
X468784D01*
X469309Y655010D01*
Y653435D01*
Y657109D02*
Y658158D01*
X468784Y658683D01*
X467734D01*
X467210Y658158D01*
Y657109D01*
X467734Y656584D01*
X468784D01*
X469309Y657109D01*
X467210Y659732D02*
X469309D01*
X468259D01*
X467734Y660257D01*
X467210Y660782D01*
Y661307D01*
X466685Y663406D02*
X467210D01*
Y662881D01*
Y663931D01*
Y663406D01*
X468784D01*
X469309Y663931D01*
X467734Y665505D02*
Y667604D01*
X469309Y670228D02*
Y669178D01*
X468784Y668653D01*
X467734D01*
X467210Y669178D01*
Y670228D01*
X467734Y670752D01*
X468259D01*
Y668653D01*
X469309Y671802D02*
Y672852D01*
Y672327D01*
X466160D01*
Y671802D01*
X469309Y676000D02*
Y674951D01*
X468784Y674426D01*
X467734D01*
X467210Y674951D01*
Y676000D01*
X467734Y676525D01*
X468259D01*
Y674426D01*
X467210Y679673D02*
Y678099D01*
X467734Y677574D01*
X468784D01*
X469309Y678099D01*
Y679673D01*
X466685Y681248D02*
X467210D01*
Y680723D01*
Y681773D01*
Y681248D01*
X468784D01*
X469309Y681773D01*
X467210Y683347D02*
X469309D01*
X468259D01*
X467734Y683872D01*
X467210Y684396D01*
Y684921D01*
X469309Y687020D02*
Y688070D01*
X468784Y688594D01*
X467734D01*
X467210Y688070D01*
Y687020D01*
X467734Y686495D01*
X468784D01*
X469309Y687020D01*
Y689644D02*
X467210D01*
Y691218D01*
X467734Y691743D01*
X469309D01*
Y692793D02*
Y693842D01*
Y693317D01*
X467210D01*
Y692793D01*
Y697515D02*
Y695941D01*
X467734Y695416D01*
X468784D01*
X469309Y695941D01*
Y697515D01*
Y698565D02*
Y700139D01*
X468784Y700664D01*
X468259Y700139D01*
Y699090D01*
X467734Y698565D01*
X467210Y699090D01*
Y700664D01*
X545851Y391958D02*
X545457Y391565D01*
Y390777D01*
X545851Y390384D01*
X546244D01*
X546638Y390777D01*
Y391565D01*
X547031Y391958D01*
X547425D01*
X547819Y391565D01*
Y390777D01*
X547425Y390384D01*
X545457Y392745D02*
X547819D01*
X547031Y393532D01*
X547819Y394320D01*
X545457D01*
X547819Y395107D02*
Y395894D01*
Y395500D01*
X545457D01*
X545851Y395107D01*
Y397075D02*
X545457Y397468D01*
Y398255D01*
X545851Y398649D01*
X546244D01*
X546638Y398255D01*
X547031Y398649D01*
X547425D01*
X547819Y398255D01*
Y397468D01*
X547425Y397075D01*
X547031D01*
X546638Y397468D01*
X546244Y397075D01*
X545851D01*
X546638Y397468D02*
Y398255D01*
X507169Y391396D02*
X506775Y391003D01*
Y390216D01*
X507169Y389822D01*
X507562D01*
X507956Y390216D01*
Y391003D01*
X508349Y391396D01*
X508743D01*
X509137Y391003D01*
Y390216D01*
X508743Y389822D01*
X506775Y392183D02*
X509137D01*
X508349Y392971D01*
X509137Y393758D01*
X506775D01*
X509137Y394545D02*
Y395332D01*
Y394938D01*
X506775D01*
X507169Y394545D01*
X506775Y396513D02*
Y398087D01*
X507169D01*
X508743Y396513D01*
X509137D01*
X474788Y520501D02*
X474395Y520894D01*
X473607D01*
X473214Y520501D01*
Y520107D01*
X473607Y519713D01*
X474395D01*
X474788Y519320D01*
Y518926D01*
X474395Y518533D01*
X473607D01*
X473214Y518926D01*
X475575Y520894D02*
Y518533D01*
X476363Y519320D01*
X477150Y518533D01*
Y520894D01*
X477937Y518533D02*
X478724D01*
X478330D01*
Y520894D01*
X477937Y520501D01*
X481479Y520894D02*
X480692Y520501D01*
X479905Y519713D01*
Y518926D01*
X480298Y518533D01*
X481085D01*
X481479Y518926D01*
Y519320D01*
X481085Y519713D01*
X479905D01*
X544276Y419911D02*
X543882Y419517D01*
Y418730D01*
X544276Y418337D01*
X544669D01*
X545063Y418730D01*
Y419517D01*
X545457Y419911D01*
X545850D01*
X546244Y419517D01*
Y418730D01*
X545850Y418337D01*
X543882Y420698D02*
X546244D01*
X545457Y421485D01*
X546244Y422272D01*
X543882D01*
X546244Y423060D02*
Y423847D01*
Y423453D01*
X543882D01*
X544276Y423060D01*
X543882Y426602D02*
Y425028D01*
X545063D01*
X544669Y425815D01*
Y426208D01*
X545063Y426602D01*
X545850D01*
X546244Y426208D01*
Y425421D01*
X545850Y425028D01*
X507268Y420305D02*
X506874Y419911D01*
Y419124D01*
X507268Y418730D01*
X507662D01*
X508055Y419124D01*
Y419911D01*
X508449Y420305D01*
X508842D01*
X509236Y419911D01*
Y419124D01*
X508842Y418730D01*
X506874Y421092D02*
X509236D01*
X508449Y421879D01*
X509236Y422666D01*
X506874D01*
X509236Y423453D02*
Y424240D01*
Y423847D01*
X506874D01*
X507268Y423453D01*
X509236Y426602D02*
X506874D01*
X508055Y425421D01*
Y426995D01*
X467898Y419124D02*
X467504Y418730D01*
Y417943D01*
X467898Y417549D01*
X468292D01*
X468685Y417943D01*
Y418730D01*
X469079Y419124D01*
X469472D01*
X469866Y418730D01*
Y417943D01*
X469472Y417549D01*
X467504Y419911D02*
X469866D01*
X469079Y420698D01*
X469866Y421485D01*
X467504D01*
X469866Y422272D02*
Y423059D01*
Y422666D01*
X467504D01*
X467898Y422272D01*
Y424240D02*
X467504Y424634D01*
Y425421D01*
X467898Y425814D01*
X468292D01*
X468685Y425421D01*
Y425027D01*
Y425421D01*
X469079Y425814D01*
X469472D01*
X469866Y425421D01*
Y424634D01*
X469472Y424240D01*
X544276Y447864D02*
X543882Y447470D01*
Y446683D01*
X544276Y446289D01*
X544669D01*
X545063Y446683D01*
Y447470D01*
X545457Y447864D01*
X545850D01*
X546244Y447470D01*
Y446683D01*
X545850Y446289D01*
X543882Y448651D02*
X546244D01*
X545457Y449438D01*
X546244Y450225D01*
X543882D01*
X546244Y451012D02*
Y451799D01*
Y451406D01*
X543882D01*
X544276Y451012D01*
X546244Y454555D02*
Y452980D01*
X544669Y454555D01*
X544276D01*
X543882Y454161D01*
Y453374D01*
X544276Y452980D01*
X507268Y447864D02*
X506874Y447470D01*
Y446683D01*
X507268Y446289D01*
X507662D01*
X508055Y446683D01*
Y447470D01*
X508449Y447864D01*
X508842D01*
X509236Y447470D01*
Y446683D01*
X508842Y446289D01*
X506874Y448651D02*
X509236D01*
X508449Y449438D01*
X509236Y450225D01*
X506874D01*
X509236Y451012D02*
Y451799D01*
Y451406D01*
X506874D01*
X507268Y451012D01*
X509236Y452980D02*
Y453767D01*
Y453374D01*
X506874D01*
X507268Y452980D01*
X468685Y447470D02*
X468292Y447077D01*
Y446289D01*
X468685Y445896D01*
X469079D01*
X469473Y446289D01*
Y447077D01*
X469866Y447470D01*
X470260D01*
X470653Y447077D01*
Y446289D01*
X470260Y445896D01*
X468292Y448257D02*
X470653D01*
X469866Y449044D01*
X470653Y449831D01*
X468292D01*
X470653Y450619D02*
Y451406D01*
Y451012D01*
X468292D01*
X468685Y450619D01*
Y452587D02*
X468292Y452980D01*
Y453767D01*
X468685Y454161D01*
X470260D01*
X470653Y453767D01*
Y452980D01*
X470260Y452587D01*
X468685D01*
X544276Y476800D02*
X543882Y476407D01*
Y475620D01*
X544276Y475226D01*
X544669D01*
X545063Y475620D01*
Y476407D01*
X545457Y476800D01*
X545850D01*
X546244Y476407D01*
Y475620D01*
X545850Y475226D01*
X543882Y477588D02*
X546244D01*
X545457Y478375D01*
X546244Y479162D01*
X543882D01*
X545850Y479949D02*
X546244Y480343D01*
Y481130D01*
X545850Y481523D01*
X544276D01*
X543882Y481130D01*
Y480343D01*
X544276Y479949D01*
X544669D01*
X545063Y480343D01*
Y481523D01*
X505693Y476800D02*
X505300Y476407D01*
Y475620D01*
X505693Y475226D01*
X506087D01*
X506480Y475620D01*
Y476407D01*
X506874Y476800D01*
X507268D01*
X507661Y476407D01*
Y475620D01*
X507268Y475226D01*
X505300Y477588D02*
X507661D01*
X506874Y478375D01*
X507661Y479162D01*
X505300D01*
X505693Y479949D02*
X505300Y480343D01*
Y481130D01*
X505693Y481523D01*
X506087D01*
X506480Y481130D01*
X506874Y481523D01*
X507268D01*
X507661Y481130D01*
Y480343D01*
X507268Y479949D01*
X506874D01*
X506480Y480343D01*
X506087Y479949D01*
X505693D01*
X506480Y480343D02*
Y481130D01*
X468292Y476013D02*
X467898Y475620D01*
Y474832D01*
X468292Y474439D01*
X468685D01*
X469079Y474832D01*
Y475620D01*
X469472Y476013D01*
X469866D01*
X470260Y475620D01*
Y474832D01*
X469866Y474439D01*
X467898Y476800D02*
X470260D01*
X469472Y477587D01*
X470260Y478374D01*
X467898D01*
Y479162D02*
Y480736D01*
X468292D01*
X469866Y479162D01*
X470260D01*
X468292Y392942D02*
X467898Y392549D01*
Y391761D01*
X468292Y391368D01*
X468685D01*
X469079Y391761D01*
Y392549D01*
X469472Y392942D01*
X469866D01*
X470260Y392549D01*
Y391761D01*
X469866Y391368D01*
X467898Y393729D02*
X470260D01*
X469472Y394516D01*
X470260Y395304D01*
X467898D01*
Y397665D02*
X468292Y396878D01*
X469079Y396091D01*
X469866D01*
X470260Y396484D01*
Y397271D01*
X469866Y397665D01*
X469472D01*
X469079Y397271D01*
Y396091D01*
X571835Y520501D02*
X571442Y520894D01*
X570654D01*
X570261Y520501D01*
Y520107D01*
X570654Y519713D01*
X571442D01*
X571835Y519320D01*
Y518926D01*
X571442Y518533D01*
X570654D01*
X570261Y518926D01*
X572622Y520894D02*
Y518533D01*
X573410Y519320D01*
X574197Y518533D01*
Y520894D01*
X576558D02*
X574984D01*
Y519713D01*
X575771Y520107D01*
X576164D01*
X576558Y519713D01*
Y518926D01*
X576164Y518533D01*
X575377D01*
X574984Y518926D01*
X522623Y540579D02*
X522229Y540973D01*
X521442D01*
X521048Y540579D01*
Y540186D01*
X521442Y539792D01*
X522229D01*
X522623Y539398D01*
Y539005D01*
X522229Y538611D01*
X521442D01*
X521048Y539005D01*
X523410Y540973D02*
Y538611D01*
X524197Y539398D01*
X524984Y538611D01*
Y540973D01*
X526952Y538611D02*
Y540973D01*
X525771Y539792D01*
X527346D01*
X502544Y520107D02*
X502150Y520500D01*
X501363D01*
X500970Y520107D01*
Y519713D01*
X501363Y519320D01*
X502150D01*
X502544Y518926D01*
Y518533D01*
X502150Y518139D01*
X501363D01*
X500970Y518533D01*
X503331Y520500D02*
Y518139D01*
X504118Y518926D01*
X504905Y518139D01*
Y520500D01*
X505692Y520107D02*
X506086Y520500D01*
X506873D01*
X507267Y520107D01*
Y519713D01*
X506873Y519320D01*
X506480D01*
X506873D01*
X507267Y518926D01*
Y518533D01*
X506873Y518139D01*
X506086D01*
X505692Y518533D01*
X523016Y501209D02*
X522623Y501603D01*
X521836D01*
X521442Y501209D01*
Y500816D01*
X521836Y500422D01*
X522623D01*
X523016Y500028D01*
Y499635D01*
X522623Y499241D01*
X521836D01*
X521442Y499635D01*
X523803Y501603D02*
Y499241D01*
X524591Y500028D01*
X525378Y499241D01*
Y501603D01*
X527739Y499241D02*
X526165D01*
X527739Y500816D01*
Y501209D01*
X527346Y501603D01*
X526558D01*
X526165Y501209D01*
X543882Y519713D02*
X543489Y520107D01*
X542702D01*
X542308Y519713D01*
Y519319D01*
X542702Y518926D01*
X543489D01*
X543882Y518532D01*
Y518139D01*
X543489Y517745D01*
X542702D01*
X542308Y518139D01*
X544669Y520107D02*
Y517745D01*
X545457Y518532D01*
X546244Y517745D01*
Y520107D01*
X547031Y517745D02*
X547818D01*
X547425D01*
Y520107D01*
X547031Y519713D01*
X538764Y736642D02*
Y734674D01*
X539158Y734281D01*
X539945D01*
X540339Y734674D01*
Y736642D01*
X542700D02*
X541126D01*
Y735461D01*
X541913Y735855D01*
X542307D01*
X542700Y735461D01*
Y734674D01*
X542307Y734281D01*
X541519D01*
X541126Y734674D01*
X534434Y727981D02*
X534040Y728374D01*
X533253D01*
X532859Y727981D01*
Y726406D01*
X533253Y726013D01*
X534040D01*
X534434Y726406D01*
X536402Y726013D02*
Y728374D01*
X535221Y727194D01*
X536795D01*
X538763Y726013D02*
Y728374D01*
X537582Y727194D01*
X539156D01*
X545063Y701406D02*
X542701D01*
Y702587D01*
X543095Y702981D01*
X543882D01*
X544276Y702587D01*
Y701406D01*
Y702193D02*
X545063Y702981D01*
Y705342D02*
Y703768D01*
X543488Y705342D01*
X543095D01*
X542701Y704948D01*
Y704161D01*
X543095Y703768D01*
X545063Y707703D02*
Y706129D01*
X543488Y707703D01*
X543095D01*
X542701Y707310D01*
Y706523D01*
X543095Y706129D01*
X534433Y701406D02*
X532071D01*
Y702587D01*
X532465Y702981D01*
X533252D01*
X533646Y702587D01*
Y701406D01*
Y702193D02*
X534433Y702981D01*
Y705342D02*
Y703768D01*
X532858Y705342D01*
X532465D01*
X532071Y704948D01*
Y704161D01*
X532465Y703768D01*
X534433Y706129D02*
Y706916D01*
Y706523D01*
X532071D01*
X532465Y706129D01*
X521441Y701013D02*
X519079D01*
Y702193D01*
X519473Y702587D01*
X520260D01*
X520653Y702193D01*
Y701013D01*
Y701800D02*
X521441Y702587D01*
Y704948D02*
Y703374D01*
X519866Y704948D01*
X519473D01*
X519079Y704555D01*
Y703767D01*
X519473Y703374D01*
Y705735D02*
X519079Y706129D01*
Y706916D01*
X519473Y707310D01*
X521047D01*
X521441Y706916D01*
Y706129D01*
X521047Y705735D01*
X519473D01*
X537976Y701406D02*
X535615D01*
Y702587D01*
X536008Y702981D01*
X536795D01*
X537189Y702587D01*
Y701406D01*
Y702193D02*
X537976Y702981D01*
Y703768D02*
Y704555D01*
Y704161D01*
X535615D01*
X536008Y703768D01*
X537582Y705735D02*
X537976Y706129D01*
Y706916D01*
X537582Y707310D01*
X536008D01*
X535615Y706916D01*
Y706129D01*
X536008Y705735D01*
X536402D01*
X536795Y706129D01*
Y707310D01*
X541519Y701406D02*
X539158D01*
Y702587D01*
X539551Y702981D01*
X540339D01*
X540732Y702587D01*
Y701406D01*
Y702193D02*
X541519Y702981D01*
Y703768D02*
Y704555D01*
Y704161D01*
X539158D01*
X539551Y703768D01*
Y705735D02*
X539158Y706129D01*
Y706916D01*
X539551Y707310D01*
X539945D01*
X540339Y706916D01*
X540732Y707310D01*
X541126D01*
X541519Y706916D01*
Y706129D01*
X541126Y705735D01*
X540732D01*
X540339Y706129D01*
X539945Y705735D01*
X539551D01*
X540339Y706129D02*
Y706916D01*
X514354Y701013D02*
X511993D01*
Y702193D01*
X512386Y702587D01*
X513173D01*
X513567Y702193D01*
Y701013D01*
Y701800D02*
X514354Y702587D01*
Y703374D02*
Y704161D01*
Y703767D01*
X511993D01*
X512386Y703374D01*
X511993Y705342D02*
Y706916D01*
X512386D01*
X513960Y705342D01*
X514354D01*
X517897Y701013D02*
X515536D01*
Y702193D01*
X515929Y702587D01*
X516717D01*
X517110Y702193D01*
Y701013D01*
Y701800D02*
X517897Y702587D01*
Y703374D02*
Y704161D01*
Y703767D01*
X515536D01*
X515929Y703374D01*
X515536Y706916D02*
X515929Y706129D01*
X516717Y705342D01*
X517504D01*
X517897Y705735D01*
Y706523D01*
X517504Y706916D01*
X517110D01*
X516717Y706523D01*
Y705342D01*
X520655Y737036D02*
Y734674D01*
X522229D01*
X524591Y737036D02*
X523016D01*
Y734674D01*
X524591D01*
X523016Y735855D02*
X523804D01*
X525378Y737036D02*
Y734674D01*
X526559D01*
X526952Y735068D01*
Y736642D01*
X526559Y737036D01*
X525378D01*
X529314Y734674D02*
X527739D01*
X529314Y736249D01*
Y736642D01*
X528920Y737036D01*
X528133D01*
X527739Y736642D01*
X504119Y737430D02*
Y735068D01*
X505694D01*
X508055Y737430D02*
X506481D01*
Y735068D01*
X508055D01*
X506481Y736249D02*
X507268D01*
X508842Y737430D02*
Y735068D01*
X510023D01*
X510417Y735462D01*
Y737036D01*
X510023Y737430D01*
X508842D01*
X511204Y735068D02*
X511991D01*
X511597D01*
Y737430D01*
X511204Y737036D01*
X510229Y605836D02*
X509442D01*
X509836D01*
Y603868D01*
X509442Y603475D01*
X509049D01*
X508655Y603868D01*
X512591Y603475D02*
X511016D01*
X512591Y605049D01*
Y605443D01*
X512197Y605836D01*
X511410D01*
X511016Y605443D01*
X542307Y726210D02*
X541914Y725816D01*
Y725029D01*
X542307Y724636D01*
X543882D01*
X544275Y725029D01*
Y725816D01*
X543882Y726210D01*
X544275Y726997D02*
Y727784D01*
Y727391D01*
X541914D01*
X542307Y726997D01*
Y728965D02*
X541914Y729358D01*
Y730146D01*
X542307Y730539D01*
X542701D01*
X543094Y730146D01*
X543488Y730539D01*
X543882D01*
X544275Y730146D01*
Y729358D01*
X543882Y728965D01*
X543488D01*
X543094Y729358D01*
X542701Y728965D01*
X542307D01*
X543094Y729358D02*
Y730146D01*
D11*
X538602Y738502D02*
G03*
X538602Y738502I-197J0D01*
G01*
X465929Y789791D02*
X468553D01*
X467241D01*
Y785856D01*
X471833Y789791D02*
X470521D01*
X469865Y789136D01*
Y786512D01*
X470521Y785856D01*
X471833D01*
X472489Y786512D01*
Y789136D01*
X471833Y789791D01*
X473801Y785856D02*
Y789791D01*
X475769D01*
X476425Y789136D01*
Y787824D01*
X475769Y787168D01*
X473801D01*
X483640Y789791D02*
X482328D01*
X481672Y789136D01*
Y786512D01*
X482328Y785856D01*
X483640D01*
X484296Y786512D01*
Y789136D01*
X483640Y789791D01*
X485608D02*
Y787168D01*
X486920Y785856D01*
X488232Y787168D01*
Y789791D01*
X492167D02*
X489544D01*
Y785856D01*
X492167D01*
X489544Y787824D02*
X490856D01*
X493479Y785856D02*
Y789791D01*
X495447D01*
X496103Y789136D01*
Y787824D01*
X495447Y787168D01*
X493479D01*
X494791D02*
X496103Y785856D01*
X497415Y789791D02*
Y785856D01*
X500039D01*
X501351D02*
Y788480D01*
X502663Y789791D01*
X503975Y788480D01*
Y785856D01*
Y787824D01*
X501351D01*
X505287Y789791D02*
Y789136D01*
X506599Y787824D01*
X507910Y789136D01*
Y789791D01*
X506599Y787824D02*
Y785856D01*
D12*
X472692Y714989D02*
Y718925D01*
X474659D01*
X475315Y718269D01*
Y716957D01*
X474659Y716301D01*
X472692D01*
X474004D02*
X475315Y714989D01*
X479251Y718925D02*
X476627D01*
Y714989D01*
X479251D01*
X476627Y716957D02*
X477939D01*
X480563Y718925D02*
Y716301D01*
X481875Y714989D01*
X483187Y716301D01*
Y718925D01*
X484499Y717613D02*
X485155D01*
Y716957D01*
X484499D01*
Y717613D01*
Y715645D02*
X485155D01*
Y714989D01*
X484499D01*
Y715645D01*
X494338Y718269D02*
X493682Y718925D01*
X492370D01*
X491714Y718269D01*
Y715645D01*
X492370Y714989D01*
X493682D01*
X494338Y715645D01*
X495650Y714989D02*
X496962D01*
X496306D01*
Y718925D01*
X495650Y718269D01*
M02*
