G04*
G04 #@! TF.GenerationSoftware,Altium Limited,Altium Designer,20.2.6 (244)*
G04*
G04 Layer_Color=2752767*
%FSLAX25Y25*%
%MOIN*%
G70*
G04*
G04 #@! TF.SameCoordinates,D103880D-7D63-4280-A8AA-78B1B6904BBD*
G04*
G04*
G04 #@! TF.FilePolarity,Positive*
G04*
G01*
G75*
%ADD159C,0.00200*%
%ADD160C,0.00267*%
D159*
X485023Y561076D02*
Y562676D01*
X486623D01*
Y561076D01*
X485023D01*
X481023Y591076D02*
Y592676D01*
X482623D01*
Y591076D01*
X481023D01*
X489023D02*
Y592676D01*
X490623D01*
Y591076D01*
X489023D01*
X543906Y407102D02*
X543106Y408702D01*
X544706D01*
X543906Y407102D01*
X508953Y696072D02*
X509353Y696472D01*
X509753D01*
X509353Y696872D01*
X509753Y697272D01*
X509353D01*
X508953Y697672D01*
X508553Y697272D01*
X508153D01*
X508553Y696872D01*
X508153Y696472D01*
X508553D01*
X508953Y696072D01*
X539858D02*
X540258Y696472D01*
X540658D01*
X540258Y696872D01*
X540658Y697272D01*
X540258D01*
X539858Y697672D01*
X539458Y697272D01*
X539058D01*
X539458Y696872D01*
X539058Y696472D01*
X539458D01*
X539858Y696072D01*
X504906Y407102D02*
X504106Y408702D01*
X505706D01*
X504906Y407102D01*
X490033Y635880D02*
X490433Y636680D01*
X490033Y637480D01*
X490833Y637080D01*
X491633Y637480D01*
X491233Y636680D01*
X491633Y635880D01*
X490833Y636280D01*
X490033Y635880D01*
X475180Y651273D02*
X475580Y652073D01*
X475180Y652873D01*
X475980Y652473D01*
X476780Y652873D01*
X476380Y652073D01*
X476780Y651273D01*
X475980Y651673D01*
X475180Y651273D01*
X501940Y556020D02*
X502340Y556820D01*
X501940Y557620D01*
X502740Y557220D01*
X503540Y557620D01*
X503140Y556820D01*
X503540Y556020D01*
X502740Y556420D01*
X501940Y556020D01*
X509716Y554937D02*
X510116Y555737D01*
X509716Y556537D01*
X510516Y556137D01*
X511316Y556537D01*
X510916Y555737D01*
X511316Y554937D01*
X510516Y555337D01*
X509716Y554937D01*
X541901Y550409D02*
X542301Y551209D01*
X541901Y552009D01*
X542701Y551609D01*
X543501Y552009D01*
X543101Y551209D01*
X543501Y550409D01*
X542701Y550809D01*
X541901Y550409D01*
X533633Y553559D02*
X534033Y554359D01*
X533633Y555159D01*
X534433Y554759D01*
X535233Y555159D01*
X534833Y554359D01*
X535233Y553559D01*
X534433Y553959D01*
X533633Y553559D01*
X526153Y631118D02*
X526553Y631918D01*
X526153Y632718D01*
X526953Y632318D01*
X527753Y632718D01*
X527353Y631918D01*
X527753Y631118D01*
X526953Y631518D01*
X526153Y631118D01*
X498889Y433185D02*
X499289Y433985D01*
X498889Y434785D01*
X499689Y434385D01*
X500489Y434785D01*
X500089Y433985D01*
X500489Y433185D01*
X499689Y433585D01*
X498889Y433185D01*
X489970Y663758D02*
X490370Y664558D01*
X489970Y665357D01*
X490770Y664958D01*
X491570Y665357D01*
X491170Y664558D01*
X491570Y663758D01*
X490770Y664157D01*
X489970Y663758D01*
X548987Y567339D02*
X549387Y568139D01*
X548987Y568938D01*
X549787Y568539D01*
X550587Y568938D01*
X550187Y568139D01*
X550587Y567339D01*
X549787Y567738D01*
X548987Y567339D01*
X544657Y571276D02*
X545057Y572076D01*
X544657Y572875D01*
X545457Y572475D01*
X546257Y572875D01*
X545857Y572076D01*
X546257Y571276D01*
X545457Y571675D01*
X544657Y571276D01*
X547806Y560252D02*
X548206Y561052D01*
X547806Y561852D01*
X548606Y561452D01*
X549406Y561852D01*
X549006Y561052D01*
X549406Y560252D01*
X548606Y560652D01*
X547806Y560252D01*
X543869Y555134D02*
X544269Y555934D01*
X543869Y556734D01*
X544669Y556334D01*
X545469Y556734D01*
X545069Y555934D01*
X545469Y555134D01*
X544669Y555534D01*
X543869Y555134D01*
X547806Y555921D02*
X548206Y556721D01*
X547806Y557521D01*
X548606Y557121D01*
X549406Y557521D01*
X549006Y556721D01*
X549406Y555921D01*
X548606Y556321D01*
X547806Y555921D01*
X521035Y393323D02*
X521435Y394123D01*
X521035Y394923D01*
X521835Y394523D01*
X522635Y394923D01*
X522235Y394123D01*
X522635Y393323D01*
X521835Y393723D01*
X521035Y393323D01*
X547413Y519307D02*
X547813Y520107D01*
X547413Y520907D01*
X548213Y520507D01*
X549013Y520907D01*
X548613Y520107D01*
X549013Y519307D01*
X548213Y519707D01*
X547413Y519307D01*
X519066Y536236D02*
X519466Y537036D01*
X519066Y537836D01*
X519866Y537436D01*
X520666Y537836D01*
X520266Y537036D01*
X520666Y536236D01*
X519866Y536636D01*
X519066Y536236D01*
X525759Y537417D02*
X526159Y538217D01*
X525759Y539017D01*
X526559Y538617D01*
X527359Y539017D01*
X526959Y538217D01*
X527359Y537417D01*
X526559Y537817D01*
X525759Y537417D01*
X547806Y504740D02*
X548206Y505540D01*
X547806Y506340D01*
X548606Y505940D01*
X549406Y506340D01*
X549006Y505540D01*
X549406Y504740D01*
X548606Y505140D01*
X547806Y504740D01*
X555287Y487811D02*
X555687Y488611D01*
X555287Y489411D01*
X556087Y489011D01*
X556887Y489411D01*
X556487Y488611D01*
X556887Y487811D01*
X556087Y488211D01*
X555287Y487811D01*
X473791Y446472D02*
X474191Y447272D01*
X473791Y448072D01*
X474591Y447672D01*
X475391Y448072D01*
X474991Y447272D01*
X475391Y446472D01*
X474591Y446872D01*
X473791Y446472D01*
X490720Y464583D02*
X491120Y465383D01*
X490720Y466183D01*
X491520Y465783D01*
X492320Y466183D01*
X491920Y465383D01*
X492320Y464583D01*
X491520Y464983D01*
X490720Y464583D01*
X489539Y469701D02*
X489939Y470501D01*
X489539Y471301D01*
X490339Y470901D01*
X491139Y471301D01*
X490739Y470501D01*
X491139Y469701D01*
X490339Y470101D01*
X489539Y469701D01*
X496834Y444974D02*
X497234Y445774D01*
X496834Y446574D01*
X497634Y446174D01*
X498434Y446574D01*
X498034Y445774D01*
X498434Y444974D01*
X497634Y445374D01*
X496834Y444974D01*
X543869Y443716D02*
X544269Y444517D01*
X543869Y445317D01*
X544669Y444916D01*
X545469Y445317D01*
X545069Y444517D01*
X545469Y443716D01*
X544669Y444116D01*
X543869Y443716D01*
X559224Y449228D02*
X559624Y450028D01*
X559224Y450828D01*
X560024Y450428D01*
X560824Y450828D01*
X560424Y450028D01*
X560824Y449228D01*
X560024Y449628D01*
X559224Y449228D01*
X540326Y559858D02*
X540726Y560658D01*
X540326Y561458D01*
X541126Y561058D01*
X541926Y561458D01*
X541526Y560658D01*
X541926Y559858D01*
X541126Y560258D01*
X540326Y559858D01*
X545838Y550409D02*
X546238Y551209D01*
X545838Y552009D01*
X546638Y551609D01*
X547438Y552009D01*
X547038Y551209D01*
X547438Y550409D01*
X546638Y550809D01*
X545838Y550409D01*
X556074Y541354D02*
X556474Y542154D01*
X556074Y542954D01*
X556874Y542554D01*
X557674Y542954D01*
X557274Y542154D01*
X557674Y541354D01*
X556874Y541754D01*
X556074Y541354D01*
X561980Y546472D02*
X562380Y547272D01*
X561980Y548072D01*
X562780Y547672D01*
X563580Y548072D01*
X563180Y547272D01*
X563580Y546472D01*
X562780Y546872D01*
X561980Y546472D01*
X556527Y545685D02*
X556927Y546485D01*
X556527Y547285D01*
X557327Y546885D01*
X558127Y547285D01*
X557727Y546485D01*
X558127Y545685D01*
X557327Y546085D01*
X556527Y545685D01*
X549381Y544898D02*
X549781Y545698D01*
X549381Y546498D01*
X550181Y546098D01*
X550981Y546498D01*
X550581Y545698D01*
X550981Y544898D01*
X550181Y545298D01*
X549381Y544898D01*
X576940Y559465D02*
X577340Y560264D01*
X576940Y561064D01*
X577740Y560665D01*
X578540Y561064D01*
X578140Y560264D01*
X578540Y559465D01*
X577740Y559865D01*
X576940Y559465D01*
X547413Y448835D02*
X547813Y449635D01*
X547413Y450435D01*
X548213Y450035D01*
X549013Y450435D01*
X548613Y449635D01*
X549013Y448835D01*
X548213Y449235D01*
X547413Y448835D01*
X508830Y397654D02*
X509230Y398453D01*
X508830Y399254D01*
X509630Y398853D01*
X510430Y399254D01*
X510030Y398453D01*
X510430Y397654D01*
X509630Y398054D01*
X508830Y397654D01*
X540720Y702772D02*
X541120Y703572D01*
X540720Y704372D01*
X541520Y703972D01*
X542320Y704372D01*
X541920Y703572D01*
X542320Y702772D01*
X541520Y703172D01*
X540720Y702772D01*
X502452Y722378D02*
X502852Y723178D01*
X502452Y723978D01*
X503252Y723578D01*
X504052Y723978D01*
X503652Y723178D01*
X504052Y722378D01*
X503252Y722778D01*
X502452Y722378D01*
X509224Y722457D02*
X509624Y723257D01*
X509224Y724057D01*
X510024Y723657D01*
X510824Y724057D01*
X510424Y723257D01*
X510824Y722457D01*
X510024Y722857D01*
X509224Y722457D01*
X505680Y717732D02*
X506080Y718532D01*
X505680Y719332D01*
X506480Y718932D01*
X507280Y719332D01*
X506880Y718532D01*
X507280Y717732D01*
X506480Y718132D01*
X505680Y717732D01*
X482999Y535449D02*
X483399Y536249D01*
X482999Y537049D01*
X483799Y536649D01*
X484599Y537049D01*
X484199Y536249D01*
X484599Y535449D01*
X483799Y535849D01*
X482999Y535449D01*
X511586Y402378D02*
X511986Y403178D01*
X511586Y403978D01*
X512386Y403578D01*
X513186Y403978D01*
X512786Y403178D01*
X513186Y402378D01*
X512386Y402778D01*
X511586Y402378D01*
X573791Y469701D02*
X574191Y470501D01*
X573791Y471301D01*
X574591Y470901D01*
X575391Y471301D01*
X574991Y470501D01*
X575391Y469701D01*
X574591Y470101D01*
X573791Y469701D01*
X530877Y440173D02*
X531277Y440973D01*
X530877Y441773D01*
X531677Y441373D01*
X532477Y441773D01*
X532077Y440973D01*
X532477Y440173D01*
X531677Y440573D01*
X530877Y440173D01*
X540326Y445685D02*
X540726Y446485D01*
X540326Y447285D01*
X541126Y446885D01*
X541926Y447285D01*
X541526Y446485D01*
X541926Y445685D01*
X541126Y446085D01*
X540326Y445685D01*
X573397Y435055D02*
X573797Y435855D01*
X573397Y436655D01*
X574197Y436255D01*
X574997Y436655D01*
X574597Y435855D01*
X574997Y435055D01*
X574197Y435455D01*
X573397Y435055D01*
X548200Y439780D02*
X548600Y440580D01*
X548200Y441379D01*
X549000Y440979D01*
X549800Y441379D01*
X549400Y440580D01*
X549800Y439780D01*
X549000Y440179D01*
X548200Y439780D01*
X505287Y503559D02*
X505687Y504359D01*
X505287Y505159D01*
X506087Y504759D01*
X506887Y505159D01*
X506487Y504359D01*
X506887Y503559D01*
X506087Y503959D01*
X505287Y503559D01*
X517885Y623244D02*
X518285Y624044D01*
X517885Y624844D01*
X518685Y624444D01*
X519485Y624844D01*
X519085Y624044D01*
X519485Y623244D01*
X518685Y623644D01*
X517885Y623244D01*
X547610Y452870D02*
X548009Y453670D01*
X547610Y454470D01*
X548410Y454070D01*
X549209Y454470D01*
X548809Y453670D01*
X549209Y452870D01*
X548410Y453270D01*
X547610Y452870D01*
X547621Y456785D02*
X548021Y457585D01*
X547621Y458385D01*
X548421Y457985D01*
X549221Y458385D01*
X548821Y457585D01*
X549221Y456785D01*
X548421Y457185D01*
X547621Y456785D01*
X542491Y452870D02*
X542891Y453670D01*
X542491Y454470D01*
X543291Y454070D01*
X544091Y454470D01*
X543691Y453670D01*
X544091Y452870D01*
X543291Y453270D01*
X542491Y452870D01*
Y448933D02*
X542891Y449733D01*
X542491Y450533D01*
X543291Y450133D01*
X544091Y450533D01*
X543691Y449733D01*
X544091Y448933D01*
X543291Y449333D01*
X542491Y448933D01*
X542503Y456785D02*
X542903Y457585D01*
X542503Y458385D01*
X543303Y457985D01*
X544103Y458385D01*
X543703Y457585D01*
X544103Y456785D01*
X543303Y457185D01*
X542503Y456785D01*
X517881Y444431D02*
X518281Y445231D01*
X517881Y446031D01*
X518681Y445631D01*
X519481Y446031D01*
X519081Y445231D01*
X519481Y444431D01*
X518681Y444831D01*
X517881Y444431D01*
X517098Y575212D02*
X517498Y576013D01*
X517098Y576813D01*
X517898Y576412D01*
X518698Y576813D01*
X518298Y576013D01*
X518698Y575212D01*
X517898Y575612D01*
X517098Y575212D01*
X482649Y640075D02*
X483049Y640875D01*
X482649Y641675D01*
X483449Y641275D01*
X484249Y641675D01*
X483849Y640875D01*
X484249Y640075D01*
X483449Y640475D01*
X482649Y640075D01*
X485602Y642929D02*
X486002Y643729D01*
X485602Y644529D01*
X486402Y644129D01*
X487202Y644529D01*
X486802Y643729D01*
X487202Y642929D01*
X486402Y643329D01*
X485602Y642929D01*
X480287Y567831D02*
X480687Y568631D01*
X480287Y569431D01*
X481087Y569031D01*
X481887Y569431D01*
X481487Y568631D01*
X481887Y567831D01*
X481087Y568231D01*
X480287Y567831D01*
X476200Y461988D02*
X476600Y462788D01*
X476200Y463588D01*
X477000Y463188D01*
X477800Y463588D01*
X477400Y462788D01*
X477800Y461988D01*
X477000Y462388D01*
X476200Y461988D01*
X527432Y624228D02*
X527832Y625028D01*
X527432Y625828D01*
X528232Y625428D01*
X529032Y625828D01*
X528632Y625028D01*
X529032Y624228D01*
X528232Y624628D01*
X527432Y624228D01*
X542196Y729937D02*
X542596Y730737D01*
X542196Y731537D01*
X542996Y731137D01*
X543796Y731537D01*
X543396Y730737D01*
X543796Y729937D01*
X542996Y730337D01*
X542196Y729937D01*
X541932Y723803D02*
X542332Y724603D01*
X541932Y725402D01*
X542732Y725002D01*
X543532Y725402D01*
X543132Y724603D01*
X543532Y723803D01*
X542732Y724202D01*
X541932Y723803D01*
X533633Y701590D02*
X534033Y702390D01*
X533633Y703191D01*
X534433Y702790D01*
X535233Y703191D01*
X534833Y702390D01*
X535233Y701590D01*
X534433Y701991D01*
X533633Y701590D01*
Y698835D02*
X534033Y699635D01*
X533633Y700435D01*
X534433Y700035D01*
X535233Y700435D01*
X534833Y699635D01*
X535233Y698835D01*
X534433Y699235D01*
X533633Y698835D01*
X556468Y525606D02*
X556868Y526406D01*
X556468Y527206D01*
X557268Y526806D01*
X558068Y527206D01*
X557668Y526406D01*
X558068Y525606D01*
X557268Y526006D01*
X556468Y525606D01*
X525759Y566157D02*
X526159Y566957D01*
X525759Y567757D01*
X526559Y567357D01*
X527359Y567757D01*
X526959Y566957D01*
X527359Y566157D01*
X526559Y566557D01*
X525759Y566157D01*
X545970Y513402D02*
X546370Y514201D01*
X545970Y515001D01*
X546770Y514602D01*
X547570Y515001D01*
X547170Y514201D01*
X547570Y513402D01*
X546770Y513801D01*
X545970Y513402D01*
X470679Y501234D02*
X471079Y502035D01*
X470679Y502835D01*
X471479Y502434D01*
X472279Y502835D01*
X471879Y502035D01*
X472279Y501234D01*
X471479Y501635D01*
X470679Y501234D01*
X496112Y708218D02*
X496512Y709018D01*
X496112Y709818D01*
X496912Y709418D01*
X497712Y709818D01*
X497312Y709018D01*
X497712Y708218D01*
X496912Y708618D01*
X496112Y708218D01*
X503318Y431118D02*
X503718Y431918D01*
X503318Y432718D01*
X504118Y432318D01*
X504918Y432718D01*
X504518Y431918D01*
X504918Y431118D01*
X504118Y431518D01*
X503318Y431118D01*
X497413Y436236D02*
X497813Y437036D01*
X497413Y437836D01*
X498213Y437436D01*
X499013Y437836D01*
X498613Y437036D01*
X499013Y436236D01*
X498213Y436636D01*
X497413Y436236D01*
X497284Y440523D02*
X497684Y441324D01*
X497284Y442124D01*
X498084Y441723D01*
X498884Y442124D01*
X498484Y441324D01*
X498884Y440523D01*
X498084Y440924D01*
X497284Y440523D01*
X559224Y528362D02*
X559624Y529162D01*
X559224Y529962D01*
X560024Y529562D01*
X560824Y529962D01*
X560424Y529162D01*
X560824Y528362D01*
X560024Y528762D01*
X559224Y528362D01*
X567098Y502772D02*
X567498Y503572D01*
X567098Y504372D01*
X567898Y503972D01*
X568698Y504372D01*
X568298Y503572D01*
X568698Y502772D01*
X567898Y503172D01*
X567098Y502772D01*
X510799Y478756D02*
X511199Y479556D01*
X510799Y480356D01*
X511598Y479956D01*
X512398Y480356D01*
X511999Y479556D01*
X512398Y478756D01*
X511598Y479156D01*
X510799Y478756D01*
X511192Y468126D02*
X511592Y468926D01*
X511192Y469726D01*
X511992Y469326D01*
X512792Y469726D01*
X512392Y468926D01*
X512792Y468126D01*
X511992Y468526D01*
X511192Y468126D01*
X481665Y669307D02*
X482065Y670107D01*
X481665Y670907D01*
X482465Y670507D01*
X483265Y670907D01*
X482865Y670107D01*
X483265Y669307D01*
X482465Y669707D01*
X481665Y669307D01*
X471035Y651197D02*
X471435Y651997D01*
X471035Y652797D01*
X471835Y652397D01*
X472635Y652797D01*
X472235Y651997D01*
X472635Y651197D01*
X471835Y651597D01*
X471035Y651197D01*
X535208Y616157D02*
X535608Y616957D01*
X535208Y617757D01*
X536008Y617357D01*
X536808Y617757D01*
X536408Y616957D01*
X536808Y616157D01*
X536008Y616557D01*
X535208Y616157D01*
X536389Y612220D02*
X536789Y613020D01*
X536389Y613820D01*
X537189Y613420D01*
X537989Y613820D01*
X537589Y613020D01*
X537989Y612220D01*
X537189Y612620D01*
X536389Y612220D01*
X532452Y613008D02*
X532852Y613808D01*
X532452Y614608D01*
X533252Y614208D01*
X534052Y614608D01*
X533652Y613808D01*
X534052Y613008D01*
X533252Y613408D01*
X532452Y613008D01*
X527334D02*
X527734Y613808D01*
X527334Y614608D01*
X528134Y614208D01*
X528934Y614608D01*
X528534Y613808D01*
X528934Y613008D01*
X528134Y613408D01*
X527334Y613008D01*
X529905Y609541D02*
X530305Y610341D01*
X529905Y611141D01*
X530705Y610741D01*
X531505Y611141D01*
X531105Y610341D01*
X531505Y609541D01*
X530705Y609941D01*
X529905Y609541D01*
X534420Y405134D02*
X534821Y405934D01*
X534420Y406734D01*
X535220Y406334D01*
X536021Y406734D01*
X535620Y405934D01*
X536021Y405134D01*
X535220Y405534D01*
X534420Y405134D01*
X548987Y413008D02*
X549387Y413808D01*
X548987Y414608D01*
X549787Y414208D01*
X550587Y414608D01*
X550187Y413808D01*
X550587Y413008D01*
X549787Y413408D01*
X548987Y413008D01*
X533633Y431512D02*
X534033Y432312D01*
X533633Y433112D01*
X534433Y432712D01*
X535233Y433112D01*
X534833Y432312D01*
X535233Y431512D01*
X534433Y431912D01*
X533633Y431512D01*
X534027Y392535D02*
X534427Y393335D01*
X534027Y394135D01*
X534827Y393735D01*
X535627Y394135D01*
X535227Y393335D01*
X535627Y392535D01*
X534827Y392935D01*
X534027Y392535D01*
X562767Y404346D02*
X563167Y405146D01*
X562767Y405946D01*
X563567Y405546D01*
X564367Y405946D01*
X563967Y405146D01*
X564367Y404346D01*
X563567Y404746D01*
X562767Y404346D01*
X577334Y413008D02*
X577734Y413808D01*
X577334Y414608D01*
X578134Y414208D01*
X578934Y414608D01*
X578534Y413808D01*
X578934Y413008D01*
X578134Y413408D01*
X577334Y413008D01*
X562767Y437811D02*
X563167Y438611D01*
X562767Y439411D01*
X563567Y439011D01*
X564367Y439411D01*
X563967Y438611D01*
X564367Y437811D01*
X563567Y438211D01*
X562767Y437811D01*
X578121Y433874D02*
X578521Y434674D01*
X578121Y435474D01*
X578921Y435074D01*
X579721Y435474D01*
X579321Y434674D01*
X579721Y433874D01*
X578921Y434274D01*
X578121Y433874D01*
X573397Y430331D02*
X573797Y431131D01*
X573397Y431931D01*
X574197Y431531D01*
X574997Y431931D01*
X574597Y431131D01*
X574997Y430331D01*
X574197Y430731D01*
X573397Y430331D01*
X574578Y392929D02*
X574978Y393729D01*
X574578Y394529D01*
X575378Y394129D01*
X576178Y394529D01*
X575778Y393729D01*
X576178Y392929D01*
X575378Y393329D01*
X574578Y392929D01*
X573003Y409465D02*
X573403Y410264D01*
X573003Y411064D01*
X573803Y410665D01*
X574603Y411064D01*
X574203Y410264D01*
X574603Y409465D01*
X573803Y409865D01*
X573003Y409465D01*
X545050Y416551D02*
X545450Y417351D01*
X545050Y418151D01*
X545850Y417751D01*
X546650Y418151D01*
X546250Y417351D01*
X546650Y416551D01*
X545850Y416951D01*
X545050Y416551D01*
X553318Y412614D02*
X553718Y413414D01*
X553318Y414214D01*
X554118Y413814D01*
X554918Y414214D01*
X554518Y413414D01*
X554918Y412614D01*
X554118Y413014D01*
X553318Y412614D01*
X544657Y391748D02*
X545057Y392548D01*
X544657Y393348D01*
X545457Y392948D01*
X546257Y393348D01*
X545857Y392548D01*
X546257Y391748D01*
X545457Y392148D01*
X544657Y391748D01*
X551350Y405921D02*
X551750Y406721D01*
X551350Y407521D01*
X552150Y407121D01*
X552950Y407521D01*
X552550Y406721D01*
X552950Y405921D01*
X552150Y406321D01*
X551350Y405921D01*
X550169Y392535D02*
X550568Y393335D01*
X550169Y394135D01*
X550969Y393735D01*
X551768Y394135D01*
X551369Y393335D01*
X551768Y392535D01*
X550969Y392935D01*
X550169Y392535D01*
X540720Y398047D02*
X541120Y398847D01*
X540720Y399647D01*
X541520Y399247D01*
X542320Y399647D01*
X541920Y398847D01*
X542320Y398047D01*
X541520Y398447D01*
X540720Y398047D01*
X544657Y386236D02*
X545057Y387036D01*
X544657Y387836D01*
X545457Y387436D01*
X546257Y387836D01*
X545857Y387036D01*
X546257Y386236D01*
X545457Y386636D01*
X544657Y386236D01*
X539539Y391748D02*
X539939Y392548D01*
X539539Y393348D01*
X540339Y392948D01*
X541139Y393348D01*
X540739Y392548D01*
X541139Y391748D01*
X540339Y392148D01*
X539539Y391748D01*
X538751Y386236D02*
X539151Y387036D01*
X538751Y387836D01*
X539551Y387436D01*
X540351Y387836D01*
X539951Y387036D01*
X540351Y386236D01*
X539551Y386636D01*
X538751Y386236D01*
X518673Y578953D02*
X519072Y579753D01*
X518673Y580553D01*
X519473Y580153D01*
X520272Y580553D01*
X519873Y579753D01*
X520272Y578953D01*
X519473Y579353D01*
X518673Y578953D01*
X515129Y571571D02*
X515529Y572371D01*
X515129Y573171D01*
X515929Y572771D01*
X516729Y573171D01*
X516329Y572371D01*
X516729Y571571D01*
X515929Y571971D01*
X515129Y571571D01*
X547511Y424031D02*
X547911Y424831D01*
X547511Y425631D01*
X548311Y425231D01*
X549111Y425631D01*
X548711Y424831D01*
X549111Y424031D01*
X548311Y424431D01*
X547511Y424031D01*
X540326Y420193D02*
X540726Y420993D01*
X540326Y421793D01*
X541126Y421393D01*
X541926Y421793D01*
X541526Y420993D01*
X541926Y420193D01*
X541126Y420593D01*
X540326Y420193D01*
X535503Y435055D02*
X535903Y435855D01*
X535503Y436655D01*
X536303Y436255D01*
X537103Y436655D01*
X536703Y435855D01*
X537103Y435055D01*
X536303Y435455D01*
X535503Y435055D01*
X538948Y438106D02*
X539348Y438906D01*
X538948Y439706D01*
X539748Y439306D01*
X540548Y439706D01*
X540148Y438906D01*
X540548Y438106D01*
X539748Y438506D01*
X538948Y438106D01*
X555779Y433874D02*
X556179Y434674D01*
X555779Y435474D01*
X556579Y435074D01*
X557379Y435474D01*
X556979Y434674D01*
X557379Y433874D01*
X556579Y434274D01*
X555779Y433874D01*
X553121Y430232D02*
X553521Y431032D01*
X553121Y431832D01*
X553921Y431432D01*
X554721Y431832D01*
X554321Y431032D01*
X554721Y430232D01*
X553921Y430632D01*
X553121Y430232D01*
X533633Y725212D02*
X534033Y726013D01*
X533633Y726813D01*
X534433Y726412D01*
X535233Y726813D01*
X534833Y726013D01*
X535233Y725212D01*
X534433Y725612D01*
X533633Y725212D01*
X574972Y503165D02*
X575372Y503965D01*
X574972Y504765D01*
X575772Y504365D01*
X576572Y504765D01*
X576172Y503965D01*
X576572Y503165D01*
X575772Y503565D01*
X574972Y503165D01*
X573003Y494898D02*
X573403Y495698D01*
X573003Y496498D01*
X573803Y496098D01*
X574603Y496498D01*
X574203Y495698D01*
X574603Y494898D01*
X573803Y495298D01*
X573003Y494898D01*
X515129Y567339D02*
X515529Y568139D01*
X515129Y568938D01*
X515929Y568539D01*
X516729Y568938D01*
X516329Y568139D01*
X516729Y567339D01*
X515929Y567738D01*
X515129Y567339D01*
X502531Y500409D02*
X502931Y501209D01*
X502531Y502009D01*
X503331Y501609D01*
X504131Y502009D01*
X503731Y501209D01*
X504131Y500409D01*
X503331Y500809D01*
X502531Y500409D01*
X535995Y739780D02*
X536395Y740580D01*
X535995Y741379D01*
X536795Y740979D01*
X537595Y741379D01*
X537195Y740580D01*
X537595Y739780D01*
X536795Y740179D01*
X535995Y739780D01*
X490326Y487417D02*
X490726Y488217D01*
X490326Y489017D01*
X491126Y488617D01*
X491926Y489017D01*
X491526Y488217D01*
X491926Y487417D01*
X491126Y487817D01*
X490326Y487417D01*
X479302Y465370D02*
X479702Y466170D01*
X479302Y466970D01*
X480102Y466570D01*
X480902Y466970D01*
X480502Y466170D01*
X480902Y465370D01*
X480102Y465770D01*
X479302Y465370D01*
X513066Y513290D02*
X513467Y514090D01*
X513066Y514890D01*
X513867Y514490D01*
X514667Y514890D01*
X514266Y514090D01*
X514667Y513290D01*
X513867Y513690D01*
X513066Y513290D01*
X513161Y505921D02*
X513561Y506721D01*
X513161Y507521D01*
X513961Y507121D01*
X514761Y507521D01*
X514361Y506721D01*
X514761Y505921D01*
X513961Y506321D01*
X513161Y505921D01*
X517098Y501463D02*
X517498Y502263D01*
X517098Y503063D01*
X517898Y502663D01*
X518698Y503063D01*
X518298Y502263D01*
X518698Y501463D01*
X517898Y501863D01*
X517098Y501463D01*
X520247Y502378D02*
X520647Y503178D01*
X520247Y503978D01*
X521047Y503578D01*
X521847Y503978D01*
X521447Y503178D01*
X521847Y502378D01*
X521047Y502778D01*
X520247Y502378D01*
X507255Y499622D02*
X507655Y500422D01*
X507255Y501222D01*
X508055Y500822D01*
X508855Y501222D01*
X508455Y500422D01*
X508855Y499622D01*
X508055Y500022D01*
X507255Y499622D01*
X509617Y515370D02*
X510017Y516170D01*
X509617Y516970D01*
X510417Y516570D01*
X511217Y516970D01*
X510817Y516170D01*
X511217Y515370D01*
X510417Y515770D01*
X509617Y515370D01*
X518279Y497653D02*
X518679Y498454D01*
X518279Y499254D01*
X519079Y498853D01*
X519879Y499254D01*
X519479Y498454D01*
X519879Y497653D01*
X519079Y498054D01*
X518279Y497653D01*
X508436Y490173D02*
X508836Y490973D01*
X508436Y491773D01*
X509236Y491373D01*
X510036Y491773D01*
X509636Y490973D01*
X510036Y490173D01*
X509236Y490573D01*
X508436Y490173D01*
X511586Y493323D02*
X511986Y494123D01*
X511586Y494923D01*
X512386Y494523D01*
X513186Y494923D01*
X512786Y494123D01*
X513186Y493323D01*
X512386Y493723D01*
X511586Y493323D01*
X515129Y489780D02*
X515529Y490580D01*
X515129Y491379D01*
X515929Y490979D01*
X516729Y491379D01*
X516329Y490580D01*
X516729Y489780D01*
X515929Y490179D01*
X515129Y489780D01*
X511586Y487024D02*
X511986Y487824D01*
X511586Y488624D01*
X512386Y488224D01*
X513186Y488624D01*
X512786Y487824D01*
X513186Y487024D01*
X512386Y487424D01*
X511586Y487024D01*
X471428Y518126D02*
X471828Y518926D01*
X471428Y519726D01*
X472228Y519326D01*
X473028Y519726D01*
X472628Y518926D01*
X473028Y518126D01*
X472228Y518526D01*
X471428Y518126D01*
X474184Y521276D02*
X474584Y522076D01*
X474184Y522875D01*
X474984Y522475D01*
X475784Y522875D01*
X475384Y522076D01*
X475784Y521276D01*
X474984Y521675D01*
X474184Y521276D01*
X480877Y513008D02*
X481277Y513808D01*
X480877Y514608D01*
X481677Y514208D01*
X482477Y514608D01*
X482077Y513808D01*
X482477Y513008D01*
X481677Y513408D01*
X480877Y513008D01*
X480483Y518126D02*
X480884Y518926D01*
X480483Y519726D01*
X481284Y519326D01*
X482084Y519726D01*
X481683Y518926D01*
X482084Y518126D01*
X481284Y518526D01*
X480483Y518126D01*
X483239Y522457D02*
X483639Y523257D01*
X483239Y524057D01*
X484039Y523657D01*
X484839Y524057D01*
X484439Y523257D01*
X484839Y522457D01*
X484039Y522857D01*
X483239Y522457D01*
X477334Y505134D02*
X477734Y505934D01*
X477334Y506734D01*
X478134Y506334D01*
X478934Y506734D01*
X478534Y505934D01*
X478934Y505134D01*
X478134Y505534D01*
X477334Y505134D01*
X480877Y507890D02*
X481277Y508690D01*
X480877Y509490D01*
X481677Y509090D01*
X482477Y509490D01*
X482077Y508690D01*
X482477Y507890D01*
X481677Y508290D01*
X480877Y507890D01*
X469066Y513008D02*
X469466Y513808D01*
X469066Y514608D01*
X469866Y514208D01*
X470666Y514608D01*
X470266Y513808D01*
X470666Y513008D01*
X469866Y513408D01*
X469066Y513008D01*
X468673Y505134D02*
X469072Y505934D01*
X468673Y506734D01*
X469473Y506334D01*
X470272Y506734D01*
X469873Y505934D01*
X470272Y505134D01*
X469473Y505534D01*
X468673Y505134D01*
X468279Y523244D02*
X468679Y524044D01*
X468279Y524844D01*
X469079Y524444D01*
X469879Y524844D01*
X469479Y524044D01*
X469879Y523244D01*
X469079Y523644D01*
X468279Y523244D01*
X569854Y486236D02*
X570254Y487036D01*
X569854Y487836D01*
X570654Y487436D01*
X571454Y487836D01*
X571054Y487036D01*
X571454Y486236D01*
X570654Y486636D01*
X569854Y486236D01*
X553318Y437811D02*
X553718Y438611D01*
X553318Y439411D01*
X554118Y439011D01*
X554918Y439411D01*
X554518Y438611D01*
X554918Y437811D01*
X554118Y438211D01*
X553318Y437811D01*
X480518Y624031D02*
X480919Y624831D01*
X480518Y625631D01*
X481319Y625231D01*
X482119Y625631D01*
X481718Y624831D01*
X482119Y624031D01*
X481319Y624431D01*
X480518Y624031D01*
X575173Y401273D02*
X575572Y402073D01*
X575173Y402873D01*
X575973Y402473D01*
X576772Y402873D01*
X576372Y402073D01*
X576772Y401273D01*
X575973Y401673D01*
X575173Y401273D01*
X478121Y710252D02*
X478521Y711052D01*
X478121Y711852D01*
X478921Y711452D01*
X479721Y711852D01*
X479321Y711052D01*
X479721Y710252D01*
X478921Y710652D01*
X478121Y710252D01*
X474578Y549622D02*
X474978Y550422D01*
X474578Y551222D01*
X475378Y550822D01*
X476178Y551222D01*
X475778Y550422D01*
X476178Y549622D01*
X475378Y550022D01*
X474578Y549622D01*
X469854D02*
X470254Y550422D01*
X469854Y551222D01*
X470654Y550822D01*
X471454Y551222D01*
X471054Y550422D01*
X471454Y549622D01*
X470654Y550022D01*
X469854Y549622D01*
X489932Y683480D02*
X490332Y684280D01*
X489932Y685080D01*
X490732Y684680D01*
X491532Y685080D01*
X491132Y684280D01*
X491532Y683480D01*
X490732Y683880D01*
X489932Y683480D01*
X550956Y464583D02*
X551356Y465383D01*
X550956Y466183D01*
X551756Y465783D01*
X552556Y466183D01*
X552156Y465383D01*
X552556Y464583D01*
X551756Y464983D01*
X550956Y464583D01*
X551251Y433972D02*
X551651Y434772D01*
X551251Y435572D01*
X552051Y435172D01*
X552851Y435572D01*
X552451Y434772D01*
X552851Y433972D01*
X552051Y434372D01*
X551251Y433972D01*
X540326Y426000D02*
X540726Y426800D01*
X540326Y427600D01*
X541126Y427200D01*
X541926Y427600D01*
X541526Y426800D01*
X541926Y426000D01*
X541126Y426400D01*
X540326Y426000D01*
X548200Y429149D02*
X548600Y429950D01*
X548200Y430750D01*
X549000Y430349D01*
X549800Y430750D01*
X549400Y429950D01*
X549800Y429149D01*
X549000Y429550D01*
X548200Y429149D01*
X543476Y435055D02*
X543876Y435855D01*
X543476Y436655D01*
X544276Y436255D01*
X545076Y436655D01*
X544676Y435855D01*
X545076Y435055D01*
X544276Y435455D01*
X543476Y435055D01*
X547019Y433086D02*
X547419Y433886D01*
X547019Y434687D01*
X547819Y434286D01*
X548619Y434687D01*
X548219Y433886D01*
X548619Y433086D01*
X547819Y433487D01*
X547019Y433086D01*
X539539Y433874D02*
X539939Y434674D01*
X539539Y435474D01*
X540339Y435074D01*
X541139Y435474D01*
X540739Y434674D01*
X541139Y433874D01*
X540339Y434274D01*
X539539Y433874D01*
X543869Y429149D02*
X544269Y429950D01*
X543869Y430750D01*
X544669Y430349D01*
X545469Y430750D01*
X545069Y429950D01*
X545469Y429149D01*
X544669Y429550D01*
X543869Y429149D01*
X537964Y429543D02*
X538364Y430343D01*
X537964Y431143D01*
X538764Y430743D01*
X539564Y431143D01*
X539164Y430343D01*
X539564Y429543D01*
X538764Y429943D01*
X537964Y429543D01*
X536783Y464583D02*
X537183Y465383D01*
X536783Y466183D01*
X537583Y465783D01*
X538383Y466183D01*
X537983Y465383D01*
X538383Y464583D01*
X537583Y464983D01*
X536783Y464583D01*
X472610Y396866D02*
X473009Y397666D01*
X472610Y398466D01*
X473410Y398066D01*
X474209Y398466D01*
X473809Y397666D01*
X474209Y396866D01*
X473410Y397266D01*
X472610Y396866D01*
X476940Y498835D02*
X477340Y499635D01*
X476940Y500435D01*
X477740Y500035D01*
X478540Y500435D01*
X478140Y499635D01*
X478540Y498835D01*
X477740Y499235D01*
X476940Y498835D01*
X475759Y490173D02*
X476159Y490973D01*
X475759Y491773D01*
X476559Y491373D01*
X477359Y491773D01*
X476959Y490973D01*
X477359Y490173D01*
X476559Y490573D01*
X475759Y490173D01*
X483239Y498835D02*
X483639Y499635D01*
X483239Y500435D01*
X484039Y500035D01*
X484839Y500435D01*
X484439Y499635D01*
X484839Y498835D01*
X484039Y499235D01*
X483239Y498835D01*
X563554Y517732D02*
X563954Y518532D01*
X563554Y519332D01*
X564354Y518932D01*
X565154Y519332D01*
X564754Y518532D01*
X565154Y517732D01*
X564354Y518132D01*
X563554Y517732D01*
X559224Y519701D02*
X559624Y520501D01*
X559224Y521301D01*
X560024Y520901D01*
X560824Y521301D01*
X560424Y520501D01*
X560824Y519701D01*
X560024Y520101D01*
X559224Y519701D01*
Y516157D02*
X559624Y516957D01*
X559224Y517757D01*
X560024Y517357D01*
X560824Y517757D01*
X560424Y516957D01*
X560824Y516157D01*
X560024Y516557D01*
X559224Y516157D01*
X494657Y427181D02*
X495057Y427981D01*
X494657Y428781D01*
X495457Y428381D01*
X496257Y428781D01*
X495857Y427981D01*
X496257Y427181D01*
X495457Y427581D01*
X494657Y427181D01*
X534420Y492929D02*
X534821Y493729D01*
X534420Y494529D01*
X535220Y494129D01*
X536021Y494529D01*
X535620Y493729D01*
X536021Y492929D01*
X535220Y493329D01*
X534420Y492929D01*
X565917Y552378D02*
X566317Y553178D01*
X565917Y553978D01*
X566717Y553578D01*
X567517Y553978D01*
X567117Y553178D01*
X567517Y552378D01*
X566717Y552778D01*
X565917Y552378D01*
X482693Y631148D02*
X483093Y631948D01*
X482693Y632748D01*
X483493Y632348D01*
X484293Y632748D01*
X483893Y631948D01*
X484293Y631148D01*
X483493Y631548D01*
X482693Y631148D01*
X539932Y706709D02*
X540332Y707509D01*
X539932Y708309D01*
X540732Y707909D01*
X541532Y708309D01*
X541132Y707509D01*
X541532Y706709D01*
X540732Y707109D01*
X539932Y706709D01*
X514736Y459858D02*
X515135Y460658D01*
X514736Y461458D01*
X515535Y461058D01*
X516335Y461458D01*
X515936Y460658D01*
X516335Y459858D01*
X515535Y460258D01*
X514736Y459858D01*
X519903Y703534D02*
X520303Y704334D01*
X519903Y705134D01*
X520703Y704734D01*
X521503Y705134D01*
X521103Y704334D01*
X521503Y703534D01*
X520703Y703934D01*
X519903Y703534D01*
X525365Y488992D02*
X525765Y489792D01*
X525365Y490592D01*
X526165Y490192D01*
X526965Y490592D01*
X526565Y489792D01*
X526965Y488992D01*
X526165Y489392D01*
X525365Y488992D01*
X551657Y426463D02*
X552057Y427263D01*
X551657Y428063D01*
X552457Y427663D01*
X553257Y428063D01*
X552857Y427263D01*
X553257Y426463D01*
X552457Y426863D01*
X551657Y426463D01*
X530877Y435843D02*
X531277Y436643D01*
X530877Y437442D01*
X531677Y437043D01*
X532477Y437442D01*
X532077Y436643D01*
X532477Y435843D01*
X531677Y436242D01*
X530877Y435843D01*
X535208Y440173D02*
X535608Y440973D01*
X535208Y441773D01*
X536008Y441373D01*
X536808Y441773D01*
X536408Y440973D01*
X536808Y440173D01*
X536008Y440573D01*
X535208Y440173D01*
X513554Y443323D02*
X513954Y444123D01*
X513554Y444923D01*
X514354Y444523D01*
X515154Y444923D01*
X514754Y444123D01*
X515154Y443323D01*
X514354Y443723D01*
X513554Y443323D01*
X506074Y449622D02*
X506474Y450422D01*
X506074Y451222D01*
X506874Y450822D01*
X507674Y451222D01*
X507274Y450422D01*
X507674Y449622D01*
X506874Y450022D01*
X506074Y449622D01*
X505893Y443716D02*
X506293Y444517D01*
X505893Y445317D01*
X506693Y444916D01*
X507493Y445317D01*
X507093Y444517D01*
X507493Y443716D01*
X506693Y444116D01*
X505893Y443716D01*
X506074Y453953D02*
X506474Y454753D01*
X506074Y455553D01*
X506874Y455153D01*
X507674Y455553D01*
X507274Y454753D01*
X507674Y453953D01*
X506874Y454353D01*
X506074Y453953D01*
X499196Y472927D02*
X499596Y473727D01*
X499196Y474527D01*
X499996Y474127D01*
X500796Y474527D01*
X500396Y473727D01*
X500796Y472927D01*
X499996Y473327D01*
X499196Y472927D01*
X490326Y478362D02*
X490726Y479162D01*
X490326Y479962D01*
X491126Y479562D01*
X491926Y479962D01*
X491526Y479162D01*
X491926Y478362D01*
X491126Y478762D01*
X490326Y478362D01*
X525759Y743716D02*
X526159Y744517D01*
X525759Y745317D01*
X526559Y744916D01*
X527359Y745317D01*
X526959Y744517D01*
X527359Y743716D01*
X526559Y744116D01*
X525759Y743716D01*
X530692Y743793D02*
X531092Y744593D01*
X530692Y745393D01*
X531492Y744993D01*
X532292Y745393D01*
X531892Y744593D01*
X532292Y743793D01*
X531492Y744193D01*
X530692Y743793D01*
X467885Y636630D02*
X468285Y637430D01*
X467885Y638230D01*
X468685Y637830D01*
X469485Y638230D01*
X469085Y637430D01*
X469485Y636630D01*
X468685Y637030D01*
X467885Y636630D01*
X505385Y463697D02*
X505785Y464497D01*
X505385Y465297D01*
X506185Y464897D01*
X506985Y465297D01*
X506585Y464497D01*
X506985Y463697D01*
X506185Y464097D01*
X505385Y463697D01*
X510799D02*
X511199Y464497D01*
X510799Y465297D01*
X511598Y464897D01*
X512398Y465297D01*
X511999Y464497D01*
X512398Y463697D01*
X511598Y464097D01*
X510799Y463697D01*
X503131Y519307D02*
X503531Y520107D01*
X503131Y520907D01*
X503931Y520507D01*
X504731Y520907D01*
X504331Y520107D01*
X504731Y519307D01*
X503931Y519707D01*
X503131Y519307D01*
X506468Y521669D02*
X506868Y522469D01*
X506468Y523269D01*
X507268Y522869D01*
X508068Y523269D01*
X507668Y522469D01*
X508068Y521669D01*
X507268Y522069D01*
X506468Y521669D01*
X576755Y484169D02*
X577155Y484969D01*
X576755Y485769D01*
X577555Y485369D01*
X578355Y485769D01*
X577955Y484969D01*
X578355Y484169D01*
X577555Y484569D01*
X576755Y484169D01*
X492023Y431265D02*
X492423Y432065D01*
X492023Y432865D01*
X492823Y432465D01*
X493623Y432865D01*
X493223Y432065D01*
X493623Y431265D01*
X492823Y431665D01*
X492023Y431265D01*
X525365Y434661D02*
X525765Y435461D01*
X525365Y436261D01*
X526165Y435861D01*
X526965Y436261D01*
X526565Y435461D01*
X526965Y434661D01*
X526165Y435061D01*
X525365Y434661D01*
X543476Y422850D02*
X543876Y423650D01*
X543476Y424450D01*
X544276Y424050D01*
X545076Y424450D01*
X544676Y423650D01*
X545076Y422850D01*
X544276Y423250D01*
X543476Y422850D01*
X470936Y406709D02*
X471336Y407509D01*
X470936Y408309D01*
X471736Y407909D01*
X472536Y408309D01*
X472136Y407509D01*
X472536Y406709D01*
X471736Y407109D01*
X470936Y406709D01*
X474972Y407036D02*
X475372Y407836D01*
X474972Y408636D01*
X475772Y408236D01*
X476572Y408636D01*
X476172Y407836D01*
X476572Y407036D01*
X475772Y407436D01*
X474972Y407036D01*
X475759Y485843D02*
X476159Y486643D01*
X475759Y487442D01*
X476559Y487043D01*
X477359Y487442D01*
X476959Y486643D01*
X477359Y485843D01*
X476559Y486242D01*
X475759Y485843D01*
X485417Y670958D02*
X485817Y671758D01*
X485417Y672558D01*
X486217Y672158D01*
X487017Y672558D01*
X486617Y671758D01*
X487017Y670958D01*
X486217Y671358D01*
X485417Y670958D01*
X523003Y631118D02*
X523403Y631918D01*
X523003Y632718D01*
X523803Y632318D01*
X524603Y632718D01*
X524203Y631918D01*
X524603Y631118D01*
X523803Y631518D01*
X523003Y631118D01*
X518673D02*
X519072Y631918D01*
X518673Y632718D01*
X519473Y632318D01*
X520272Y632718D01*
X519873Y631918D01*
X520272Y631118D01*
X519473Y631518D01*
X518673Y631118D01*
X565917Y564583D02*
X566317Y565383D01*
X565917Y566183D01*
X566717Y565783D01*
X567517Y566183D01*
X567117Y565383D01*
X567517Y564583D01*
X566717Y564983D01*
X565917Y564583D01*
X494657Y591748D02*
X495057Y592548D01*
X494657Y593348D01*
X495457Y592948D01*
X496257Y593348D01*
X495857Y592548D01*
X496257Y591748D01*
X495457Y592148D01*
X494657Y591748D01*
X562373Y499228D02*
X562773Y500028D01*
X562373Y500828D01*
X563173Y500428D01*
X563973Y500828D01*
X563573Y500028D01*
X563973Y499228D01*
X563173Y499628D01*
X562373Y499228D01*
X535417Y646549D02*
X535817Y647349D01*
X535417Y648149D01*
X536217Y647749D01*
X537017Y648149D01*
X536617Y647349D01*
X537017Y646549D01*
X536217Y646949D01*
X535417Y646549D01*
X539145Y714583D02*
X539545Y715383D01*
X539145Y716183D01*
X539945Y715783D01*
X540745Y716183D01*
X540345Y715383D01*
X540745Y714583D01*
X539945Y714983D01*
X539145Y714583D01*
X539389Y487923D02*
X539789Y488723D01*
X539389Y489523D01*
X540189Y489123D01*
X540989Y489523D01*
X540589Y488723D01*
X540989Y487923D01*
X540189Y488323D01*
X539389Y487923D01*
X519668Y527651D02*
X520069Y528451D01*
X519668Y529251D01*
X520469Y528851D01*
X521269Y529251D01*
X520868Y528451D01*
X521269Y527651D01*
X520469Y528051D01*
X519668Y527651D01*
X527936Y496943D02*
X528336Y497743D01*
X527936Y498542D01*
X528736Y498142D01*
X529536Y498542D01*
X529136Y497743D01*
X529536Y496943D01*
X528736Y497342D01*
X527936Y496943D01*
X537779Y733163D02*
X538179Y733963D01*
X537779Y734763D01*
X538579Y734363D01*
X539379Y734763D01*
X538979Y733963D01*
X539379Y733163D01*
X538579Y733563D01*
X537779Y733163D01*
X555495Y464265D02*
X555895Y465065D01*
X555495Y465865D01*
X556295Y465465D01*
X557095Y465865D01*
X556695Y465065D01*
X557095Y464265D01*
X556295Y464665D01*
X555495Y464265D01*
X573606Y511116D02*
X574006Y511916D01*
X573606Y512716D01*
X574406Y512316D01*
X575206Y512716D01*
X574806Y511916D01*
X575206Y511116D01*
X574406Y511516D01*
X573606Y511116D01*
X492776Y436018D02*
X493176Y436818D01*
X492776Y437618D01*
X493576Y437218D01*
X494376Y437618D01*
X493976Y436818D01*
X494376Y436018D01*
X493576Y436418D01*
X492776Y436018D01*
X527039Y665075D02*
X527439Y665875D01*
X527039Y666675D01*
X527839Y666275D01*
X528639Y666675D01*
X528239Y665875D01*
X528639Y665075D01*
X527839Y665475D01*
X527039Y665075D01*
X541586Y715446D02*
X541986Y716246D01*
X541586Y717046D01*
X542386Y716646D01*
X543186Y717046D01*
X542786Y716246D01*
X543186Y715446D01*
X542386Y715846D01*
X541586Y715446D01*
X481873Y492218D02*
X482273Y493018D01*
X481873Y493818D01*
X482673Y493418D01*
X483473Y493818D01*
X483073Y493018D01*
X483473Y492218D01*
X482673Y492618D01*
X481873Y492218D01*
X514822Y703387D02*
X515222Y704187D01*
X514822Y704987D01*
X515622Y704587D01*
X516422Y704987D01*
X516022Y704187D01*
X516422Y703387D01*
X515622Y703787D01*
X514822Y703387D01*
X558251Y530801D02*
X558651Y531601D01*
X558251Y532401D01*
X559051Y532001D01*
X559851Y532401D01*
X559451Y531601D01*
X559851Y530801D01*
X559051Y531201D01*
X558251Y530801D01*
X501558Y575289D02*
X501958Y576089D01*
X501558Y576889D01*
X502358Y576489D01*
X503158Y576889D01*
X502758Y576089D01*
X503158Y575289D01*
X502358Y575689D01*
X501558Y575289D01*
X487703Y499401D02*
X488103Y500201D01*
X487703Y501001D01*
X488503Y500601D01*
X489303Y501001D01*
X488903Y500201D01*
X489303Y499401D01*
X488503Y499801D01*
X487703Y499401D01*
X511795Y703635D02*
X512194Y704435D01*
X511795Y705235D01*
X512595Y704835D01*
X513394Y705235D01*
X512994Y704435D01*
X513394Y703635D01*
X512595Y704035D01*
X511795Y703635D01*
X537779Y723714D02*
X538179Y724514D01*
X537779Y725314D01*
X538579Y724914D01*
X539379Y725314D01*
X538979Y724514D01*
X539379Y723714D01*
X538579Y724114D01*
X537779Y723714D01*
X491322Y569383D02*
X491722Y570183D01*
X491322Y570983D01*
X492122Y570583D01*
X492922Y570983D01*
X492522Y570183D01*
X492922Y569383D01*
X492122Y569783D01*
X491322Y569383D01*
X470621Y679749D02*
X471021Y680549D01*
X470621Y681350D01*
X471421Y680949D01*
X472221Y681350D01*
X471821Y680549D01*
X472221Y679749D01*
X471421Y680150D01*
X470621Y679749D01*
X517700Y724108D02*
X518100Y724908D01*
X517700Y725708D01*
X518500Y725308D01*
X519300Y725708D01*
X518900Y724908D01*
X519300Y724108D01*
X518500Y724508D01*
X517700Y724108D01*
X536204Y476076D02*
X536604Y476876D01*
X536204Y477676D01*
X537004Y477276D01*
X537804Y477676D01*
X537404Y476876D01*
X537804Y476076D01*
X537004Y476476D01*
X536204Y476076D01*
X513106Y740202D02*
X513506Y741002D01*
X513106Y741802D01*
X513906Y741402D01*
X514706Y741802D01*
X514306Y741002D01*
X514706Y740202D01*
X513906Y740602D01*
X513106Y740202D01*
X476059Y572927D02*
X476459Y573727D01*
X476059Y574527D01*
X476859Y574127D01*
X477659Y574527D01*
X477259Y573727D01*
X477659Y572927D01*
X476859Y573327D01*
X476059Y572927D01*
X527356Y700171D02*
X527756Y700971D01*
X527356Y701771D01*
X528156Y701371D01*
X528956Y701771D01*
X528556Y700971D01*
X528956Y700171D01*
X528156Y700571D01*
X527356Y700171D01*
X564944Y532375D02*
X565344Y533176D01*
X564944Y533976D01*
X565744Y533575D01*
X566544Y533976D01*
X566144Y533176D01*
X566544Y532375D01*
X565744Y532775D01*
X564944Y532375D01*
X524645Y703494D02*
X525045Y704294D01*
X524645Y705094D01*
X525445Y704694D01*
X526245Y705094D01*
X525845Y704294D01*
X526245Y703494D01*
X525445Y703894D01*
X524645Y703494D01*
X473928Y679906D02*
X474328Y680706D01*
X473928Y681506D01*
X474728Y681106D01*
X475528Y681506D01*
X475128Y680706D01*
X475528Y679906D01*
X474728Y680306D01*
X473928Y679906D01*
X510987Y612580D02*
X511387Y613380D01*
X510987Y614180D01*
X511787Y613780D01*
X512587Y614180D01*
X512187Y613380D01*
X512587Y612580D01*
X511787Y612980D01*
X510987Y612580D01*
X543684Y476076D02*
X544084Y476876D01*
X543684Y477676D01*
X544484Y477276D01*
X545284Y477676D01*
X544884Y476876D01*
X545284Y476076D01*
X544484Y476476D01*
X543684Y476076D01*
X485023Y588675D02*
X485423Y589475D01*
X485023Y590275D01*
X485823Y589875D01*
X486623Y590275D01*
X486223Y589475D01*
X486623Y588675D01*
X485823Y589075D01*
X485023Y588675D01*
X522424Y700092D02*
X522824Y700892D01*
X522424Y701692D01*
X523224Y701292D01*
X524024Y701692D01*
X523624Y700892D01*
X524024Y700092D01*
X523224Y700492D01*
X522424Y700092D01*
X510220Y520171D02*
X510620Y520971D01*
X510220Y521771D01*
X511020Y521371D01*
X511820Y521771D01*
X511420Y520971D01*
X511820Y520171D01*
X511020Y520571D01*
X510220Y520171D01*
X558251Y533557D02*
X558651Y534357D01*
X558251Y535157D01*
X559051Y534757D01*
X559851Y535157D01*
X559451Y534357D01*
X559851Y533557D01*
X559051Y533957D01*
X558251Y533557D01*
X529856Y703520D02*
X530256Y704320D01*
X529856Y705120D01*
X530656Y704720D01*
X531456Y705120D01*
X531056Y704320D01*
X531456Y703520D01*
X530656Y703920D01*
X529856Y703520D01*
X530299Y637100D02*
X530698Y637900D01*
X530299Y638700D01*
X531099Y638300D01*
X531898Y638700D01*
X531498Y637900D01*
X531898Y637100D01*
X531099Y637500D01*
X530299Y637100D01*
X481873Y722533D02*
X482273Y723333D01*
X481873Y724133D01*
X482673Y723733D01*
X483473Y724133D01*
X483073Y723333D01*
X483473Y722533D01*
X482673Y722933D01*
X481873Y722533D01*
X476834Y449383D02*
X477234Y450183D01*
X476834Y450983D01*
X477634Y450583D01*
X478434Y450983D01*
X478034Y450183D01*
X478434Y449383D01*
X477634Y449783D01*
X476834Y449383D01*
X468015Y709918D02*
X468415Y710718D01*
X468015Y711518D01*
X468815Y711118D01*
X469615Y711518D01*
X469215Y710718D01*
X469615Y709918D01*
X468815Y710318D01*
X468015Y709918D01*
X513763Y666234D02*
X514163Y667034D01*
X513763Y667834D01*
X514563Y667434D01*
X515363Y667834D01*
X514963Y667034D01*
X515363Y666234D01*
X514563Y666634D01*
X513763Y666234D01*
X517306Y700092D02*
X517706Y700892D01*
X517306Y701692D01*
X518106Y701292D01*
X518906Y701692D01*
X518506Y700892D01*
X518906Y700092D01*
X518106Y700492D01*
X517306Y700092D01*
X493291Y709541D02*
X493691Y710341D01*
X493291Y711141D01*
X494091Y710741D01*
X494891Y711141D01*
X494491Y710341D01*
X494891Y709541D01*
X494091Y709941D01*
X493291Y709541D01*
X492700Y405551D02*
X493100Y406351D01*
X492700Y407151D01*
X493500Y406751D01*
X494300Y407151D01*
X493900Y406351D01*
X494300Y405551D01*
X493500Y405951D01*
X492700Y405551D01*
X478999Y716746D02*
X479399Y717546D01*
X478999Y718346D01*
X479799Y717946D01*
X480599Y718346D01*
X480199Y717546D01*
X480599Y716746D01*
X479799Y717146D01*
X478999Y716746D01*
X517885Y668126D02*
X518285Y668926D01*
X517885Y669726D01*
X518685Y669326D01*
X519485Y669726D01*
X519085Y668926D01*
X519485Y668126D01*
X518685Y668526D01*
X517885Y668126D01*
X530129Y713252D02*
X530529Y714052D01*
X530129Y714852D01*
X530929Y714452D01*
X531729Y714852D01*
X531329Y714052D01*
X531729Y713252D01*
X530929Y713652D01*
X530129Y713252D01*
X569383Y562035D02*
X569783Y562835D01*
X569383Y563635D01*
X570184Y563235D01*
X570984Y563635D01*
X570583Y562835D01*
X570984Y562035D01*
X570184Y562435D01*
X569383Y562035D01*
X512582Y525289D02*
X512982Y526089D01*
X512582Y526889D01*
X513382Y526489D01*
X514182Y526889D01*
X513782Y526089D01*
X514182Y525289D01*
X513382Y525689D01*
X512582Y525289D01*
X498015Y709935D02*
X498415Y710735D01*
X498015Y711535D01*
X498815Y711135D01*
X499615Y711535D01*
X499215Y710735D01*
X499615Y709935D01*
X498815Y710335D01*
X498015Y709935D01*
X471451Y709444D02*
X471851Y710244D01*
X471451Y711044D01*
X472251Y710644D01*
X473051Y711044D01*
X472651Y710244D01*
X473051Y709444D01*
X472251Y709844D01*
X471451Y709444D01*
X521428Y665764D02*
X521828Y666564D01*
X521428Y667364D01*
X522228Y666964D01*
X523028Y667364D01*
X522628Y666564D01*
X523028Y665764D01*
X522228Y666164D01*
X521428Y665764D01*
X528873Y737100D02*
X529273Y737900D01*
X528873Y738700D01*
X529673Y738300D01*
X530473Y738700D01*
X530073Y737900D01*
X530473Y737100D01*
X529673Y737500D01*
X528873Y737100D01*
X558436Y562614D02*
X558836Y563414D01*
X558436Y564214D01*
X559236Y563814D01*
X560036Y564214D01*
X559636Y563414D01*
X560036Y562614D01*
X559236Y563014D01*
X558436Y562614D01*
X514452Y530112D02*
X514852Y530912D01*
X514452Y531712D01*
X515252Y531312D01*
X516052Y531712D01*
X515652Y530912D01*
X516052Y530112D01*
X515252Y530512D01*
X514452Y530112D01*
X509826Y709147D02*
X510226Y709947D01*
X509826Y710747D01*
X510626Y710347D01*
X511426Y710747D01*
X511026Y709947D01*
X511426Y709147D01*
X510626Y709547D01*
X509826Y709147D01*
X562373Y496472D02*
X562773Y497272D01*
X562373Y498072D01*
X563173Y497672D01*
X563973Y498072D01*
X563573Y497272D01*
X563973Y496472D01*
X563173Y496872D01*
X562373Y496472D01*
X485810Y708753D02*
X486210Y709553D01*
X485810Y710354D01*
X486610Y709953D01*
X487410Y710354D01*
X487010Y709553D01*
X487410Y708753D01*
X486610Y709154D01*
X485810Y708753D01*
X469606Y430202D02*
X470006Y431002D01*
X469606Y431802D01*
X470406Y431402D01*
X471206Y431802D01*
X470806Y431002D01*
X471206Y430202D01*
X470406Y430602D01*
X469606Y430202D01*
X468669Y722139D02*
X469068Y722939D01*
X468669Y723739D01*
X469468Y723339D01*
X470268Y723739D01*
X469869Y722939D01*
X470268Y722139D01*
X469468Y722539D01*
X468669Y722139D01*
X517700Y683950D02*
X518100Y684750D01*
X517700Y685550D01*
X518500Y685150D01*
X519300Y685550D01*
X518900Y684750D01*
X519300Y683950D01*
X518500Y684350D01*
X517700Y683950D01*
X561510Y565185D02*
X561909Y565985D01*
X561510Y566785D01*
X562310Y566385D01*
X563109Y566785D01*
X562710Y565985D01*
X563109Y565185D01*
X562310Y565585D01*
X561510Y565185D01*
X479117Y547730D02*
X479517Y548530D01*
X479117Y549330D01*
X479917Y548930D01*
X480717Y549330D01*
X480317Y548530D01*
X480717Y547730D01*
X479917Y548130D01*
X479117Y547730D01*
X515338Y715053D02*
X515738Y715853D01*
X515338Y716653D01*
X516138Y716253D01*
X516938Y716653D01*
X516538Y715853D01*
X516938Y715053D01*
X516138Y715453D01*
X515338Y715053D01*
X556468Y492142D02*
X556868Y492942D01*
X556468Y493742D01*
X557268Y493342D01*
X558068Y493742D01*
X557668Y492942D01*
X558068Y492142D01*
X557268Y492542D01*
X556468Y492142D01*
X524787Y713478D02*
X525187Y714278D01*
X524787Y715078D01*
X525587Y714678D01*
X526387Y715078D01*
X525987Y714278D01*
X526387Y713478D01*
X525587Y713878D01*
X524787Y713478D01*
X576362Y454029D02*
X576761Y454829D01*
X576362Y455629D01*
X577162Y455229D01*
X577961Y455629D01*
X577562Y454829D01*
X577961Y454029D01*
X577162Y454429D01*
X576362Y454029D01*
X469606Y427202D02*
X470006Y428002D01*
X469606Y428802D01*
X470406Y428402D01*
X471206Y428802D01*
X470806Y428002D01*
X471206Y427202D01*
X470406Y427602D01*
X469606Y427202D01*
X479239Y727533D02*
X479639Y728333D01*
X479239Y729133D01*
X480039Y728733D01*
X480839Y729133D01*
X480439Y728333D01*
X480839Y727533D01*
X480039Y727933D01*
X479239Y727533D01*
X534765Y661518D02*
X535166Y662318D01*
X534765Y663118D01*
X535566Y662718D01*
X536366Y663118D01*
X535965Y662318D01*
X536366Y661518D01*
X535566Y661918D01*
X534765Y661518D01*
X473621Y658376D02*
X474021Y659175D01*
X473621Y659975D01*
X474421Y659576D01*
X475221Y659975D01*
X474821Y659175D01*
X475221Y658376D01*
X474421Y658776D01*
X473621Y658376D01*
X536598Y703242D02*
X536998Y704042D01*
X536598Y704842D01*
X537398Y704442D01*
X538198Y704842D01*
X537798Y704042D01*
X538198Y703242D01*
X537398Y703642D01*
X536598Y703242D01*
X507134Y683325D02*
X507534Y684125D01*
X507134Y684925D01*
X507934Y684525D01*
X508734Y684925D01*
X508334Y684125D01*
X508734Y683325D01*
X507934Y683725D01*
X507134Y683325D01*
X480255Y574117D02*
X480655Y574917D01*
X480255Y575717D01*
X481055Y575317D01*
X481855Y575717D01*
X481455Y574917D01*
X481855Y574117D01*
X481055Y574517D01*
X480255Y574117D01*
X512582Y715053D02*
X512982Y715853D01*
X512582Y716653D01*
X513382Y716253D01*
X514182Y716653D01*
X513782Y715853D01*
X514182Y715053D01*
X513382Y715453D01*
X512582Y715053D01*
X529117Y723714D02*
X529517Y724514D01*
X529117Y725314D01*
X529917Y724914D01*
X530717Y725314D01*
X530317Y724514D01*
X530717Y723714D01*
X529917Y724114D01*
X529117Y723714D01*
X499984Y487100D02*
X500384Y487900D01*
X499984Y488700D01*
X500783Y488300D01*
X501583Y488700D01*
X501184Y487900D01*
X501583Y487100D01*
X500783Y487500D01*
X499984Y487100D01*
X483448Y435919D02*
X483848Y436719D01*
X483448Y437519D01*
X484248Y437119D01*
X485048Y437519D01*
X484648Y436719D01*
X485048Y435919D01*
X484248Y436319D01*
X483448Y435919D01*
X469606Y439200D02*
X470006Y440000D01*
X469606Y440800D01*
X470406Y440400D01*
X471206Y440800D01*
X470806Y440000D01*
X471206Y439200D01*
X470406Y439600D01*
X469606Y439200D01*
X477334Y698047D02*
X477734Y698847D01*
X477334Y699647D01*
X478134Y699247D01*
X478934Y699647D01*
X478534Y698847D01*
X478934Y698047D01*
X478134Y698447D01*
X477334Y698047D01*
X501952Y567809D02*
X502352Y568609D01*
X501952Y569409D01*
X502752Y569009D01*
X503552Y569409D01*
X503152Y568609D01*
X503552Y567809D01*
X502752Y568209D01*
X501952Y567809D01*
X477936Y688281D02*
X478336Y689081D01*
X477936Y689881D01*
X478736Y689481D01*
X479536Y689881D01*
X479136Y689081D01*
X479536Y688281D01*
X478736Y688681D01*
X477936Y688281D01*
X568279Y548835D02*
X568679Y549635D01*
X568279Y550435D01*
X569079Y550035D01*
X569879Y550435D01*
X569479Y549635D01*
X569879Y548835D01*
X569079Y549235D01*
X568279Y548835D01*
X507070Y675289D02*
X507470Y676089D01*
X507070Y676889D01*
X507870Y676489D01*
X508670Y676889D01*
X508270Y676089D01*
X508670Y675289D01*
X507870Y675689D01*
X507070Y675289D01*
X519275Y715053D02*
X519675Y715853D01*
X519275Y716653D01*
X520075Y716253D01*
X520875Y716653D01*
X520475Y715853D01*
X520875Y715053D01*
X520075Y715453D01*
X519275Y715053D01*
X547712Y501383D02*
X548112Y502183D01*
X547712Y502983D01*
X548512Y502583D01*
X549312Y502983D01*
X548912Y502183D01*
X549312Y501383D01*
X548512Y501783D01*
X547712Y501383D01*
X530692Y720565D02*
X531092Y721364D01*
X530692Y722164D01*
X531492Y721765D01*
X532292Y722164D01*
X531892Y721364D01*
X532292Y720565D01*
X531492Y720964D01*
X530692Y720565D01*
X501165Y451667D02*
X501565Y452467D01*
X501165Y453267D01*
X501965Y452867D01*
X502765Y453267D01*
X502365Y452467D01*
X502765Y451667D01*
X501965Y452067D01*
X501165Y451667D01*
X479117Y431982D02*
X479517Y432782D01*
X479117Y433582D01*
X479917Y433182D01*
X480717Y433582D01*
X480317Y432782D01*
X480717Y431982D01*
X479917Y432382D01*
X479117Y431982D01*
X469606Y436086D02*
X470006Y436885D01*
X469606Y437685D01*
X470406Y437286D01*
X471206Y437685D01*
X470806Y436885D01*
X471206Y436086D01*
X470406Y436485D01*
X469606Y436086D01*
X488858Y693230D02*
X489258Y694030D01*
X488858Y694830D01*
X489658Y694430D01*
X490458Y694830D01*
X490058Y694030D01*
X490458Y693230D01*
X489658Y693630D01*
X488858Y693230D01*
X481873Y702061D02*
X482273Y702861D01*
X481873Y703661D01*
X482673Y703261D01*
X483473Y703661D01*
X483073Y702861D01*
X483473Y702061D01*
X482673Y702461D01*
X481873Y702061D01*
X522031Y623320D02*
X522431Y624120D01*
X522031Y624920D01*
X522831Y624520D01*
X523631Y624920D01*
X523231Y624120D01*
X523631Y623320D01*
X522831Y623720D01*
X522031Y623320D01*
X489354Y481588D02*
X489754Y482388D01*
X489354Y483188D01*
X490154Y482788D01*
X490954Y483188D01*
X490554Y482388D01*
X490954Y481588D01*
X490154Y481988D01*
X489354Y481588D01*
X495653Y459147D02*
X496053Y459947D01*
X495653Y460747D01*
X496453Y460347D01*
X497253Y460747D01*
X496853Y459947D01*
X497253Y459147D01*
X496453Y459547D01*
X495653Y459147D01*
X469606Y433202D02*
X470006Y434002D01*
X469606Y434802D01*
X470406Y434402D01*
X471206Y434802D01*
X470806Y434002D01*
X471206Y433202D01*
X470406Y433602D01*
X469606Y433202D01*
X488720Y696883D02*
X489120Y697683D01*
X488720Y698483D01*
X489520Y698083D01*
X490320Y698483D01*
X489920Y697683D01*
X490320Y696883D01*
X489520Y697283D01*
X488720Y696883D01*
X481480Y697730D02*
X481880Y698530D01*
X481480Y699330D01*
X482280Y698930D01*
X483080Y699330D01*
X482680Y698530D01*
X483080Y697730D01*
X482280Y698130D01*
X481480Y697730D01*
X535023Y497336D02*
X535423Y498136D01*
X535023Y498936D01*
X535823Y498536D01*
X536623Y498936D01*
X536223Y498136D01*
X536623Y497336D01*
X535823Y497736D01*
X535023Y497336D01*
X547228Y472927D02*
X547628Y473727D01*
X547228Y474527D01*
X548028Y474127D01*
X548828Y474527D01*
X548428Y473727D01*
X548828Y472927D01*
X548028Y473327D01*
X547228Y472927D01*
X533842Y679620D02*
X534242Y680420D01*
X533842Y681220D01*
X534642Y680820D01*
X535442Y681220D01*
X535042Y680420D01*
X535442Y679620D01*
X534642Y680020D01*
X533842Y679620D01*
X498802Y459147D02*
X499202Y459947D01*
X498802Y460747D01*
X499602Y460347D01*
X500402Y460747D01*
X500002Y459947D01*
X500402Y459147D01*
X499602Y459547D01*
X498802Y459147D01*
X469606Y424202D02*
X470006Y425002D01*
X469606Y425802D01*
X470406Y425402D01*
X471206Y425802D01*
X470806Y425002D01*
X471206Y424202D01*
X470406Y424602D01*
X469606Y424202D01*
X515731Y733163D02*
X516131Y733963D01*
X515731Y734763D01*
X516532Y734363D01*
X517332Y734763D01*
X516931Y733963D01*
X517332Y733163D01*
X516532Y733563D01*
X515731Y733163D01*
X495259Y497336D02*
X495659Y498136D01*
X495259Y498936D01*
X496059Y498536D01*
X496859Y498936D01*
X496459Y498136D01*
X496859Y497336D01*
X496059Y497736D01*
X495259Y497336D01*
X472031Y442612D02*
X472431Y443412D01*
X472031Y444212D01*
X472831Y443812D01*
X473631Y444212D01*
X473231Y443412D01*
X473631Y442612D01*
X472831Y443012D01*
X472031Y442612D01*
X495170Y501401D02*
X495571Y502201D01*
X495170Y503001D01*
X495970Y502601D01*
X496770Y503001D01*
X496371Y502201D01*
X496770Y501401D01*
X495970Y501801D01*
X495170Y501401D01*
X550771Y471746D02*
X551171Y472546D01*
X550771Y473346D01*
X551571Y472946D01*
X552371Y473346D01*
X551971Y472546D01*
X552371Y471746D01*
X551571Y472146D01*
X550771Y471746D01*
X506283Y737494D02*
X506683Y738294D01*
X506283Y739094D01*
X507083Y738694D01*
X507883Y739094D01*
X507483Y738294D01*
X507883Y737494D01*
X507083Y737894D01*
X506283Y737494D01*
X469606Y418202D02*
X470006Y419002D01*
X469606Y419802D01*
X470406Y419402D01*
X471206Y419802D01*
X470806Y419002D01*
X471206Y418202D01*
X470406Y418602D01*
X469606Y418202D01*
X468881Y661903D02*
X469281Y662703D01*
X468881Y663503D01*
X469681Y663103D01*
X470481Y663503D01*
X470081Y662703D01*
X470481Y661903D01*
X469681Y662303D01*
X468881Y661903D01*
X541794Y617809D02*
X542195Y618609D01*
X541794Y619409D01*
X542594Y619009D01*
X543395Y619409D01*
X542994Y618609D01*
X543395Y617809D01*
X542594Y618209D01*
X541794Y617809D01*
X529339Y675488D02*
X529739Y676288D01*
X529339Y677088D01*
X530138Y676688D01*
X530938Y677088D01*
X530539Y676288D01*
X530938Y675488D01*
X530138Y675888D01*
X529339Y675488D01*
X498015Y547336D02*
X498415Y548136D01*
X498015Y548936D01*
X498815Y548536D01*
X499615Y548936D01*
X499215Y548136D01*
X499615Y547336D01*
X498815Y547736D01*
X498015Y547336D01*
X531480Y499698D02*
X531880Y500498D01*
X531480Y501298D01*
X532280Y500898D01*
X533080Y501298D01*
X532680Y500498D01*
X533080Y499698D01*
X532280Y500098D01*
X531480Y499698D01*
X545802Y487091D02*
X546202Y487891D01*
X545802Y488691D01*
X546602Y488291D01*
X547402Y488691D01*
X547002Y487891D01*
X547402Y487091D01*
X546602Y487491D01*
X545802Y487091D01*
X520850Y737494D02*
X521250Y738294D01*
X520850Y739094D01*
X521650Y738694D01*
X522450Y739094D01*
X522050Y738294D01*
X522450Y737494D01*
X521650Y737894D01*
X520850Y737494D01*
X469606Y421202D02*
X470006Y422002D01*
X469606Y422802D01*
X470406Y422402D01*
X471206Y422802D01*
X470806Y422002D01*
X471206Y421202D01*
X470406Y421602D01*
X469606Y421202D01*
X534235Y525683D02*
X534635Y526483D01*
X534235Y527283D01*
X535036Y526883D01*
X535836Y527283D01*
X535435Y526483D01*
X535836Y525683D01*
X535036Y526083D01*
X534235Y525683D01*
X480299Y657179D02*
X480698Y657979D01*
X480299Y658779D01*
X481099Y658379D01*
X481898Y658779D01*
X481498Y657979D01*
X481898Y657179D01*
X481099Y657579D01*
X480299Y657179D01*
X538566Y622533D02*
X538966Y623333D01*
X538566Y624133D01*
X539366Y623733D01*
X540166Y624133D01*
X539766Y623333D01*
X540166Y622533D01*
X539366Y622933D01*
X538566Y622533D01*
X535995Y714976D02*
X536395Y715776D01*
X535995Y716576D01*
X536795Y716176D01*
X537595Y716576D01*
X537195Y715776D01*
X537595Y714976D01*
X536795Y715376D01*
X535995Y714976D01*
X523999Y494974D02*
X524399Y495774D01*
X523999Y496574D01*
X524799Y496174D01*
X525599Y496574D01*
X525199Y495774D01*
X525599Y494974D01*
X524799Y495374D01*
X523999Y494974D01*
X532661Y673320D02*
X533061Y674120D01*
X532661Y674920D01*
X533461Y674520D01*
X534261Y674920D01*
X533861Y674120D01*
X534261Y673320D01*
X533461Y673720D01*
X532661Y673320D01*
X536598Y634344D02*
X536998Y635144D01*
X536598Y635944D01*
X537398Y635544D01*
X538198Y635944D01*
X537798Y635144D01*
X538198Y634344D01*
X537398Y634744D01*
X536598Y634344D01*
X561980Y492929D02*
X562380Y493729D01*
X561980Y494529D01*
X562780Y494129D01*
X563580Y494529D01*
X563180Y493729D01*
X563580Y492929D01*
X562780Y493329D01*
X561980Y492929D01*
X487176Y539386D02*
X487576Y540186D01*
X487176Y540986D01*
X487976Y540586D01*
X488776Y540986D01*
X488376Y540186D01*
X488776Y539386D01*
X487976Y539786D01*
X487176Y539386D01*
X532058Y648835D02*
X532458Y649635D01*
X532058Y650435D01*
X532858Y650035D01*
X533658Y650435D01*
X533258Y649635D01*
X533658Y648835D01*
X532858Y649235D01*
X532058Y648835D01*
X533239Y714976D02*
X533639Y715776D01*
X533239Y716576D01*
X534039Y716176D01*
X534839Y716576D01*
X534439Y715776D01*
X534839Y714976D01*
X534039Y715376D01*
X533239Y714976D01*
X534629Y487494D02*
X535029Y488294D01*
X534629Y489094D01*
X535429Y488694D01*
X536229Y489094D01*
X535829Y488294D01*
X536229Y487494D01*
X535429Y487894D01*
X534629Y487494D01*
X532267Y464659D02*
X532667Y465459D01*
X532267Y466259D01*
X533067Y465859D01*
X533867Y466259D01*
X533467Y465459D01*
X533867Y464659D01*
X533067Y465059D01*
X532267Y464659D01*
D160*
X496623Y561876D02*
G03*
X496623Y561876I-800J0D01*
G01*
X476623D02*
G03*
X476623Y561876I-800J0D01*
G01*
Y584376D02*
G03*
X476623Y584376I-800J0D01*
G01*
X496623D02*
G03*
X496623Y584376I-800J0D01*
G01*
M02*
