G04*
G04 #@! TF.GenerationSoftware,Altium Limited,Altium Designer,20.2.6 (244)*
G04*
G04 Layer_Color=102*
%FSLAX25Y25*%
%MOIN*%
G70*
G04*
G04 #@! TF.SameCoordinates,D103880D-7D63-4280-A8AA-78B1B6904BBD*
G04*
G04*
G04 #@! TF.FilePolarity,Negative*
G04*
G01*
G75*
%ADD11C,0.00394*%
G04:AMPARAMS|DCode=19|XSize=15.75mil|YSize=35.43mil|CornerRadius=3.45mil|HoleSize=0mil|Usage=FLASHONLY|Rotation=0.000|XOffset=0mil|YOffset=0mil|HoleType=Round|Shape=RoundedRectangle|*
%AMROUNDEDRECTD19*
21,1,0.01575,0.02854,0,0,0.0*
21,1,0.00886,0.03543,0,0,0.0*
1,1,0.00689,0.00443,-0.01427*
1,1,0.00689,-0.00443,-0.01427*
1,1,0.00689,-0.00443,0.01427*
1,1,0.00689,0.00443,0.01427*
%
%ADD19ROUNDEDRECTD19*%
G04:AMPARAMS|DCode=20|XSize=27.56mil|YSize=43.31mil|CornerRadius=4.92mil|HoleSize=0mil|Usage=FLASHONLY|Rotation=0.000|XOffset=0mil|YOffset=0mil|HoleType=Round|Shape=RoundedRectangle|*
%AMROUNDEDRECTD20*
21,1,0.02756,0.03347,0,0,0.0*
21,1,0.01772,0.04331,0,0,0.0*
1,1,0.00984,0.00886,-0.01673*
1,1,0.00984,-0.00886,-0.01673*
1,1,0.00984,-0.00886,0.01673*
1,1,0.00984,0.00886,0.01673*
%
%ADD20ROUNDEDRECTD20*%
%ADD21C,0.20079*%
G04:AMPARAMS|DCode=22|XSize=43.31mil|YSize=82.68mil|CornerRadius=6.89mil|HoleSize=0mil|Usage=FLASHONLY|Rotation=45.000|XOffset=0mil|YOffset=0mil|HoleType=Round|Shape=RoundedRectangle|*
%AMROUNDEDRECTD22*
21,1,0.04331,0.06890,0,0,45.0*
21,1,0.02953,0.08268,0,0,45.0*
1,1,0.01378,0.03480,-0.01392*
1,1,0.01378,0.01392,-0.03480*
1,1,0.01378,-0.03480,0.01392*
1,1,0.01378,-0.01392,0.03480*
%
%ADD22ROUNDEDRECTD22*%
G04:AMPARAMS|DCode=23|XSize=43.31mil|YSize=82.68mil|CornerRadius=6.89mil|HoleSize=0mil|Usage=FLASHONLY|Rotation=315.000|XOffset=0mil|YOffset=0mil|HoleType=Round|Shape=RoundedRectangle|*
%AMROUNDEDRECTD23*
21,1,0.04331,0.06890,0,0,315.0*
21,1,0.02953,0.08268,0,0,315.0*
1,1,0.01378,-0.01392,-0.03480*
1,1,0.01378,-0.03480,-0.01392*
1,1,0.01378,0.01392,0.03480*
1,1,0.01378,0.03480,0.01392*
%
%ADD23ROUNDEDRECTD23*%
%ADD24C,0.01378*%
G04:AMPARAMS|DCode=25|XSize=24.41mil|YSize=24.41mil|CornerRadius=6.06mil|HoleSize=0mil|Usage=FLASHONLY|Rotation=180.000|XOffset=0mil|YOffset=0mil|HoleType=Round|Shape=RoundedRectangle|*
%AMROUNDEDRECTD25*
21,1,0.02441,0.01228,0,0,180.0*
21,1,0.01228,0.02441,0,0,180.0*
1,1,0.01213,-0.00614,0.00614*
1,1,0.01213,0.00614,0.00614*
1,1,0.01213,0.00614,-0.00614*
1,1,0.01213,-0.00614,-0.00614*
%
%ADD25ROUNDEDRECTD25*%
%ADD26C,0.04331*%
G04:AMPARAMS|DCode=27|XSize=35.43mil|YSize=31.5mil|CornerRadius=5.41mil|HoleSize=0mil|Usage=FLASHONLY|Rotation=270.000|XOffset=0mil|YOffset=0mil|HoleType=Round|Shape=RoundedRectangle|*
%AMROUNDEDRECTD27*
21,1,0.03543,0.02067,0,0,270.0*
21,1,0.02461,0.03150,0,0,270.0*
1,1,0.01083,-0.01034,-0.01230*
1,1,0.01083,-0.01034,0.01230*
1,1,0.01083,0.01034,0.01230*
1,1,0.01083,0.01034,-0.01230*
%
%ADD27ROUNDEDRECTD27*%
G04:AMPARAMS|DCode=28|XSize=24.41mil|YSize=24.41mil|CornerRadius=6.06mil|HoleSize=0mil|Usage=FLASHONLY|Rotation=270.000|XOffset=0mil|YOffset=0mil|HoleType=Round|Shape=RoundedRectangle|*
%AMROUNDEDRECTD28*
21,1,0.02441,0.01228,0,0,270.0*
21,1,0.01228,0.02441,0,0,270.0*
1,1,0.01213,-0.00614,-0.00614*
1,1,0.01213,-0.00614,0.00614*
1,1,0.01213,0.00614,0.00614*
1,1,0.01213,0.00614,-0.00614*
%
%ADD28ROUNDEDRECTD28*%
G04:AMPARAMS|DCode=29|XSize=43.31mil|YSize=82.68mil|CornerRadius=6.89mil|HoleSize=0mil|Usage=FLASHONLY|Rotation=270.000|XOffset=0mil|YOffset=0mil|HoleType=Round|Shape=RoundedRectangle|*
%AMROUNDEDRECTD29*
21,1,0.04331,0.06890,0,0,270.0*
21,1,0.02953,0.08268,0,0,270.0*
1,1,0.01378,-0.03445,-0.01476*
1,1,0.01378,-0.03445,0.01476*
1,1,0.01378,0.03445,0.01476*
1,1,0.01378,0.03445,-0.01476*
%
%ADD29ROUNDEDRECTD29*%
G04:AMPARAMS|DCode=30|XSize=43.31mil|YSize=82.68mil|CornerRadius=6.89mil|HoleSize=0mil|Usage=FLASHONLY|Rotation=180.000|XOffset=0mil|YOffset=0mil|HoleType=Round|Shape=RoundedRectangle|*
%AMROUNDEDRECTD30*
21,1,0.04331,0.06890,0,0,180.0*
21,1,0.02953,0.08268,0,0,180.0*
1,1,0.01378,-0.01476,0.03445*
1,1,0.01378,0.01476,0.03445*
1,1,0.01378,0.01476,-0.03445*
1,1,0.01378,-0.01476,-0.03445*
%
%ADD30ROUNDEDRECTD30*%
%ADD31C,0.00394*%
%ADD32C,0.02165*%
D11*
X465929Y789791D02*
X468553D01*
X467241D01*
Y785856D01*
X471833Y789791D02*
X470521D01*
X469865Y789136D01*
Y786512D01*
X470521Y785856D01*
X471833D01*
X472489Y786512D01*
Y789136D01*
X471833Y789791D01*
X473801Y785856D02*
Y789791D01*
X475769D01*
X476425Y789136D01*
Y787824D01*
X475769Y787168D01*
X473801D01*
X484296Y789136D02*
X483640Y789791D01*
X482328D01*
X481672Y789136D01*
Y788480D01*
X482328Y787824D01*
X483640D01*
X484296Y787168D01*
Y786512D01*
X483640Y785856D01*
X482328D01*
X481672Y786512D01*
X487576Y789791D02*
X486264D01*
X485608Y789136D01*
Y786512D01*
X486264Y785856D01*
X487576D01*
X488232Y786512D01*
Y789136D01*
X487576Y789791D01*
X489544D02*
Y785856D01*
X492167D01*
X493479Y789791D02*
Y785856D01*
X495447D01*
X496103Y786512D01*
Y789136D01*
X495447Y789791D01*
X493479D01*
X500039D02*
X497415D01*
Y785856D01*
X500039D01*
X497415Y787824D02*
X498727D01*
X501351Y785856D02*
Y789791D01*
X503319D01*
X503975Y789136D01*
Y787824D01*
X503319Y787168D01*
X501351D01*
X502663D02*
X503975Y785856D01*
X505287D02*
Y789791D01*
X506599Y788480D01*
X507910Y789791D01*
Y785856D01*
X509222D02*
Y788480D01*
X510534Y789791D01*
X511846Y788480D01*
Y785856D01*
Y787824D01*
X509222D01*
X515782Y789136D02*
X515126Y789791D01*
X513814D01*
X513158Y789136D01*
Y788480D01*
X513814Y787824D01*
X515126D01*
X515782Y787168D01*
Y786512D01*
X515126Y785856D01*
X513814D01*
X513158Y786512D01*
X517094Y789791D02*
Y785856D01*
Y787168D01*
X519718Y789791D01*
X517750Y787824D01*
X519718Y785856D01*
D19*
X515547Y620801D02*
D03*
X517516D02*
D03*
X519484D02*
D03*
X521453D02*
D03*
X523421D02*
D03*
X525390D02*
D03*
X527358D02*
D03*
X529327D02*
D03*
X531295D02*
D03*
X533264D02*
D03*
D20*
X511807Y610172D02*
D03*
X537004D02*
D03*
D21*
X563306Y393902D02*
D03*
X544406Y536402D02*
D03*
X524405Y516402D02*
D03*
X504405Y536402D02*
D03*
X524405Y556402D02*
D03*
X572437Y536402D02*
D03*
X485506Y393902D02*
D03*
Y477902D02*
D03*
X524405D02*
D03*
X563306D02*
D03*
X485506Y449902D02*
D03*
X524405D02*
D03*
X563306D02*
D03*
X485506Y421902D02*
D03*
X524405D02*
D03*
X563306D02*
D03*
X476406Y536402D02*
D03*
X524405Y393902D02*
D03*
D22*
X555511Y386107D02*
D03*
X571100Y401697D02*
D03*
X532200Y524197D02*
D03*
X516611Y508607D02*
D03*
Y548607D02*
D03*
X532200Y564197D02*
D03*
X580232Y544197D02*
D03*
X564642Y528607D02*
D03*
X477711Y386107D02*
D03*
X493300Y401697D02*
D03*
X532200Y485697D02*
D03*
X516611Y470107D02*
D03*
X493300Y457697D02*
D03*
X477711Y442107D02*
D03*
X571100Y457697D02*
D03*
X555511Y442107D02*
D03*
X516611Y414107D02*
D03*
X532200Y429697D02*
D03*
X484200Y544197D02*
D03*
X468611Y528607D02*
D03*
X532200Y401697D02*
D03*
X516611Y386107D02*
D03*
D23*
X555511Y401697D02*
D03*
X571100Y386107D02*
D03*
X532200Y508607D02*
D03*
X516611Y524197D02*
D03*
X532200Y548607D02*
D03*
X516611Y564197D02*
D03*
X580232Y528607D02*
D03*
X564642Y544197D02*
D03*
X477711Y401697D02*
D03*
X493300Y386107D02*
D03*
X532200Y470107D02*
D03*
X516611Y485697D02*
D03*
X493300Y442107D02*
D03*
X477711Y457697D02*
D03*
X571100Y442107D02*
D03*
X555511Y457697D02*
D03*
X516611Y429697D02*
D03*
X532200Y414107D02*
D03*
X484200Y528607D02*
D03*
X468611Y544197D02*
D03*
X516611Y401697D02*
D03*
X532200Y386107D02*
D03*
D24*
X541890Y740018D02*
D03*
X539921D02*
D03*
X541890Y741987D02*
D03*
X539921D02*
D03*
D25*
X543303Y721837D02*
D03*
Y718530D02*
D03*
X516532Y709868D02*
D03*
Y713175D02*
D03*
X512988Y709868D02*
D03*
Y713175D02*
D03*
X540339Y709792D02*
D03*
Y713099D02*
D03*
X537189Y709792D02*
D03*
Y713099D02*
D03*
X520075Y709868D02*
D03*
Y713175D02*
D03*
X534039Y709792D02*
D03*
Y713099D02*
D03*
X543488Y709792D02*
D03*
Y713099D02*
D03*
D26*
X468894Y730420D02*
D03*
X579917Y567784D02*
D03*
X524197Y373650D02*
D03*
D27*
X510465Y741002D02*
D03*
X505346D02*
D03*
X526965D02*
D03*
X521846D02*
D03*
D28*
X537791Y730813D02*
D03*
X534484D02*
D03*
D29*
X544406Y547426D02*
D03*
Y525379D02*
D03*
X504405Y547426D02*
D03*
Y525379D02*
D03*
X485506Y488926D02*
D03*
Y466879D02*
D03*
X563306D02*
D03*
Y488926D02*
D03*
X524405Y460926D02*
D03*
Y438879D02*
D03*
X485506Y410879D02*
D03*
Y432926D02*
D03*
X563306Y410879D02*
D03*
Y432926D02*
D03*
D30*
X555429Y536402D02*
D03*
X533382D02*
D03*
X515429D02*
D03*
X493382D02*
D03*
X496529Y477902D02*
D03*
X474482D02*
D03*
X574329D02*
D03*
X552282D02*
D03*
X535429Y449902D02*
D03*
X513382D02*
D03*
X496529Y421902D02*
D03*
X474482D02*
D03*
X574329D02*
D03*
X552282D02*
D03*
D31*
X485823Y561876D02*
D03*
X495823D02*
D03*
X475823D02*
D03*
Y584376D02*
D03*
X481823Y591876D02*
D03*
X489823D02*
D03*
X495823Y584376D02*
D03*
X543906Y407902D02*
D03*
X504906D02*
D03*
D32*
X556874Y542154D02*
D03*
X562780Y547272D02*
D03*
X557327Y546485D02*
D03*
X503252Y723178D02*
D03*
M02*
