G04*
G04 #@! TF.GenerationSoftware,Altium Limited,Altium Designer,21.3.1 (25)*
G04*
G04 Layer_Color=26112*
%FSLAX25Y25*%
%MOIN*%
G70*
G04*
G04 #@! TF.SameCoordinates,17E3FC6B-7FA6-4A94-9312-BAE076C6F9B9*
G04*
G04*
G04 #@! TF.FilePolarity,Positive*
G04*
G01*
G75*
%ADD11C,0.00394*%
%ADD157C,0.00600*%
%ADD158C,0.00400*%
D11*
X510705Y696872D02*
G03*
X510705Y696872I-1752J0D01*
G01*
X541610D02*
G03*
X541610Y696872I-1752J0D01*
G01*
X491773Y591876D02*
G03*
X491773Y591876I-1950J0D01*
G01*
X483773D02*
G03*
X483773Y591876I-1950J0D01*
G01*
X500498Y561876D02*
G03*
X500498Y561876I-4675J0D01*
G01*
Y584376D02*
G03*
X500498Y584376I-4675J0D01*
G01*
X480498D02*
G03*
X480498Y584376I-4675J0D01*
G01*
X487773Y561876D02*
G03*
X487773Y561876I-1950J0D01*
G01*
X480498D02*
G03*
X480498Y561876I-4675J0D01*
G01*
X488456Y730053D02*
G03*
X500406Y735002I4950J4950D01*
G01*
X548406Y579002D02*
G03*
X555406Y572002I7000J0D01*
G01*
X514906Y374002D02*
G03*
X507906Y381002I-7000J0D01*
G01*
X540906D02*
G03*
X533906Y374002I0J-7000D01*
G01*
X548906Y407902D02*
G03*
X548906Y407902I-5000J0D01*
G01*
X509906D02*
G03*
X509906Y407902I-5000J0D01*
G01*
X464406Y381002D02*
Y735002D01*
X584406Y381002D02*
X584406Y566702D01*
X584406D02*
X584406D01*
X584406D02*
Y572002D01*
X464406Y735002D02*
X483506D01*
X500406Y747002D02*
X548406D01*
X500406Y735002D02*
Y747002D01*
X483506Y735002D02*
X488456Y730053D01*
X548406Y579002D02*
X548406Y747002D01*
X555406Y572002D02*
X584406D01*
X464406Y381002D02*
X507906D01*
X514906Y369002D02*
Y374002D01*
X533906Y369002D02*
Y374002D01*
X540906Y381002D02*
X584406D01*
X514906Y369002D02*
X533906D01*
X465929Y789791D02*
Y785856D01*
X467897D01*
X468553Y786512D01*
Y789136D01*
X467897Y789791D01*
X465929D01*
X469865D02*
X471177D01*
X470521D01*
Y785856D01*
X469865D01*
X471177D01*
X473145D02*
Y789791D01*
X474457Y788480D01*
X475769Y789791D01*
Y785856D01*
X479704Y789791D02*
X477080D01*
Y785856D01*
X479704D01*
X477080Y787824D02*
X478392D01*
X481016Y785856D02*
Y789791D01*
X483640Y785856D01*
Y789791D01*
X487576Y789136D02*
X486920Y789791D01*
X485608D01*
X484952Y789136D01*
Y788480D01*
X485608Y787824D01*
X486920D01*
X487576Y787168D01*
Y786512D01*
X486920Y785856D01*
X485608D01*
X484952Y786512D01*
X488888Y789791D02*
X490200D01*
X489544D01*
Y785856D01*
X488888D01*
X490200D01*
X494135Y789791D02*
X492823D01*
X492167Y789136D01*
Y786512D01*
X492823Y785856D01*
X494135D01*
X494791Y786512D01*
Y789136D01*
X494135Y789791D01*
X496103Y785856D02*
Y789791D01*
X498727Y785856D01*
Y789791D01*
X502663Y789136D02*
X502007Y789791D01*
X500695D01*
X500039Y789136D01*
Y788480D01*
X500695Y787824D01*
X502007D01*
X502663Y787168D01*
Y786512D01*
X502007Y785856D01*
X500695D01*
X500039Y786512D01*
D157*
X449575Y410902D02*
X450575Y407902D01*
X451575Y410902D01*
X450575Y696872D02*
X451575Y693872D01*
X449575D02*
X450575Y696872D01*
Y407902D02*
Y538792D01*
Y557254D02*
Y696872D01*
X449575Y407902D02*
X498906D01*
X449575Y696872D02*
X506201D01*
X504906Y681524D02*
X507906Y682524D01*
X504906Y681524D02*
X507906Y680524D01*
X536858D02*
X539858Y681524D01*
X536858Y682524D02*
X539858Y681524D01*
X504906D02*
X522382D01*
X539858D01*
X504906Y413902D02*
Y682524D01*
X539858Y680524D02*
Y694120D01*
X504906Y686643D02*
X507906Y687642D01*
X504906Y686643D02*
X507906Y685642D01*
X505953D02*
X508953Y686643D01*
X505953Y687642D02*
X508953Y686643D01*
X504906D02*
X506929D01*
X508953D01*
X504906Y413902D02*
Y687642D01*
X508953Y685642D02*
Y694120D01*
X501906Y530131D02*
X504906Y531131D01*
X501906Y532131D02*
X504906Y531131D01*
X475823D02*
X478823Y532131D01*
X475823Y531131D02*
X478823Y530131D01*
X475823Y531131D02*
X504906D01*
Y413902D02*
Y532131D01*
X475823Y530131D02*
Y561876D01*
X501906Y534550D02*
X504906Y535549D01*
X501906Y536550D02*
X504906Y535549D01*
X481823D02*
X484823Y536550D01*
X481823Y535549D02*
X484823Y534550D01*
X481823Y535549D02*
X504906D01*
Y413902D02*
Y536550D01*
X481823Y534550D02*
Y591876D01*
X501906Y538398D02*
X504906Y539398D01*
X501906Y540398D02*
X504906Y539398D01*
X485823D02*
X488823Y540398D01*
X485823Y539398D02*
X488823Y538398D01*
X485823Y539398D02*
X504906D01*
Y413902D02*
Y540398D01*
X485823Y538398D02*
Y561876D01*
X501906Y542729D02*
X504906Y543729D01*
X501906Y544729D02*
X504906Y543729D01*
X489823D02*
X492823Y544729D01*
X489823Y543729D02*
X492823Y542729D01*
X489823Y543729D02*
X504906D01*
Y413902D02*
Y544729D01*
X489823Y542729D02*
Y591876D01*
X501906Y547453D02*
X504906Y548454D01*
X501906Y549453D02*
X504906Y548454D01*
X495823D02*
X498823Y549453D01*
X495823Y548454D02*
X498823Y547453D01*
X495823Y548454D02*
X504906D01*
Y413902D02*
Y549453D01*
X495823Y547453D02*
Y561876D01*
X453212Y410902D02*
X454212Y407902D01*
X455212Y410902D01*
X454212Y591876D02*
X455212Y588876D01*
X453212D02*
X454212Y591876D01*
Y407902D02*
Y489579D01*
Y507708D02*
Y591876D01*
X453212Y407902D02*
X498906D01*
X453212Y591876D02*
X481823D01*
X456400Y410902D02*
X457400Y407902D01*
X458400Y410902D01*
X457400Y584376D02*
X458400Y581376D01*
X456400D02*
X457400Y584376D01*
Y407902D02*
Y489579D01*
Y507708D02*
Y584376D01*
X456400Y407902D02*
X498906D01*
X456400Y584376D02*
X475823D01*
X459811Y410902D02*
X460811Y407902D01*
X461811Y410902D01*
X460811Y561876D02*
X461811Y558876D01*
X459811D02*
X460811Y561876D01*
Y407902D02*
Y489481D01*
Y507609D02*
Y561876D01*
X459811Y407902D02*
X498906D01*
X459811Y561876D02*
X475823D01*
X506300Y692804D02*
X507714Y695633D01*
X504885Y694218D02*
X507714Y695633D01*
X504570Y692489D02*
X507714Y695633D01*
X499787Y692489D02*
X504570D01*
X499129Y587682D02*
X500543Y590511D01*
X499129Y587682D02*
X501957Y589096D01*
X499129Y587682D02*
X503709Y592262D01*
X522622D01*
X491202Y593255D02*
X492616Y596084D01*
X491202Y593255D02*
X494030Y594669D01*
X491202Y593255D02*
X496330Y598383D01*
X522232D01*
X459630Y747002D02*
X460630Y744002D01*
X458630D02*
X459630Y747002D01*
X458630Y738002D02*
X459630Y735002D01*
X460630Y738002D01*
X459630Y735002D02*
Y747002D01*
X458630D02*
X499209D01*
X458630Y735002D02*
X463209D01*
X500406Y752784D02*
X503406Y753784D01*
X500406Y752784D02*
X503406Y751784D01*
X545406D02*
X548406Y752784D01*
X545406Y753784D02*
X548406Y752784D01*
X500406D02*
X513775D01*
X532236D02*
X548406D01*
X500406Y748199D02*
Y753784D01*
X548406Y748199D02*
Y753784D01*
X581406Y751784D02*
X584406Y752784D01*
X581406Y753784D02*
X584406Y752784D01*
X548406D02*
X551406Y753784D01*
X548406Y752784D02*
X551406Y751784D01*
X574236Y752784D02*
X584406D01*
X548406D02*
X555775D01*
X584406Y573199D02*
Y753784D01*
X548406Y748199D02*
Y753784D01*
X589551Y747002D02*
X590551Y744002D01*
X588551D02*
X589551Y747002D01*
X588551Y575002D02*
X589551Y572002D01*
X590551Y575002D01*
X589551Y667167D02*
Y747002D01*
Y572002D02*
Y649038D01*
X549602Y747002D02*
X590551D01*
X585602Y572002D02*
X590551D01*
X590520Y384002D02*
X591520Y381002D01*
X592520Y384002D01*
X591520Y572002D02*
X592520Y569002D01*
X590520D02*
X591520Y572002D01*
Y381002D02*
Y466205D01*
Y484000D02*
Y572002D01*
X585602Y381002D02*
X592520D01*
X585602Y572002D02*
X592520D01*
X464406Y740186D02*
X467406Y741186D01*
X464406Y740186D02*
X467406Y739186D01*
X480506D02*
X483506Y740186D01*
X480506Y741186D02*
X483506Y740186D01*
X464406D02*
X483506D01*
X464406Y736199D02*
Y741186D01*
X483506Y736199D02*
Y741186D01*
X441353Y372002D02*
X442353Y369002D01*
X443353Y372002D01*
X442353Y747002D02*
X443353Y744002D01*
X441353D02*
X442353Y747002D01*
Y369002D02*
Y538792D01*
Y557254D02*
Y747002D01*
X441353Y369002D02*
X513709D01*
X441353Y747002D02*
X499209D01*
X446037Y410902D02*
X447037Y407902D01*
X448037Y410902D01*
X447037Y735002D02*
X448037Y732002D01*
X446037D02*
X447037Y735002D01*
Y407902D02*
Y538792D01*
Y557254D02*
Y735002D01*
X446037Y407902D02*
X498906D01*
X446037Y735002D02*
X463209D01*
X504906Y387036D02*
X507906Y388036D01*
X504906Y387036D02*
X507906Y386036D01*
X540906D02*
X543906Y387036D01*
X540906Y388036D02*
X543906Y387036D01*
X504906D02*
X513775D01*
X532236D02*
X543906D01*
X504906Y386036D02*
Y401902D01*
X543906Y386036D02*
Y401902D01*
X535956Y378952D02*
X538784Y377538D01*
X535956Y378952D02*
X537370Y376124D01*
X535956Y378952D02*
X540129Y374779D01*
X548220D01*
X514906Y363414D02*
X517906Y364414D01*
X514906Y363414D02*
X517906Y362414D01*
X530906D02*
X533906Y363414D01*
X530906Y364414D02*
X533906Y363414D01*
X514906D02*
X533906D01*
X514906Y362414D02*
Y367806D01*
X533906Y362414D02*
Y367806D01*
X464406Y363414D02*
X467406Y364414D01*
X464406Y363414D02*
X467406Y362414D01*
X511906D02*
X514906Y363414D01*
X511906Y364414D02*
X514906Y363414D01*
X464406D02*
X479191D01*
X497320D02*
X514906D01*
X464406Y362414D02*
Y379805D01*
X514906Y362414D02*
Y367806D01*
X464406Y359083D02*
X467406Y360083D01*
X464406Y359083D02*
X467406Y358083D01*
X581406D02*
X584406Y359083D01*
X581406Y360083D02*
X584406Y359083D01*
X464406D02*
X513941D01*
X532070D02*
X584406D01*
X464406Y358083D02*
Y379805D01*
X584406Y358083D02*
Y379805D01*
X501906Y386036D02*
X504906Y387036D01*
X501906Y388036D02*
X504906Y387036D01*
X464406D02*
X467406Y388036D01*
X464406Y387036D02*
X467406Y386036D01*
X492320Y387036D02*
X504906D01*
X464406D02*
X474191D01*
X504906Y386036D02*
Y401902D01*
X464406Y382199D02*
Y388036D01*
X460811Y407902D02*
X461811Y404902D01*
X459811D02*
X460811Y407902D01*
X459811Y384002D02*
X460811Y381002D01*
X461811Y384002D01*
X460811Y402283D02*
Y407902D01*
Y381002D02*
Y383822D01*
X459811Y407902D02*
X498906D01*
X459811Y381002D02*
X463209D01*
X493406Y728002D02*
X494406Y725002D01*
X492406D02*
X493406Y728002D01*
Y721525D02*
Y728002D01*
Y721525D02*
X496322Y718608D01*
X550456Y574052D02*
X551870Y576881D01*
X550456Y574052D02*
X553284Y575467D01*
X550456Y574052D02*
X552451Y576048D01*
X554446Y578043D01*
X547441Y404367D02*
X550270Y402953D01*
X547441Y404367D02*
X548855Y401538D01*
X547441Y404367D02*
X551982Y399826D01*
X555305D01*
D158*
X451356Y541525D02*
Y540192D01*
X450023Y541525D01*
X449690D01*
X449357Y541192D01*
Y540525D01*
X449690Y540192D01*
X451356Y542191D02*
X451023D01*
Y542525D01*
X451356D01*
Y542191D01*
X449690Y543857D02*
X449357Y544191D01*
Y544857D01*
X449690Y545190D01*
X450023D01*
X450356Y544857D01*
X450690Y545190D01*
X451023D01*
X451356Y544857D01*
Y544191D01*
X451023Y543857D01*
X450690D01*
X450356Y544191D01*
X450023Y543857D01*
X449690D01*
X450356Y544191D02*
Y544857D01*
X451023Y545857D02*
X451356Y546190D01*
Y546857D01*
X451023Y547190D01*
X449690D01*
X449357Y546857D01*
Y546190D01*
X449690Y545857D01*
X450023D01*
X450356Y546190D01*
Y547190D01*
X451356Y550522D02*
X450690Y549856D01*
X450023D01*
X449357Y550522D01*
X451356Y551522D02*
Y552188D01*
Y551855D01*
X450023D01*
Y551522D01*
X451356Y553188D02*
X450023D01*
Y554187D01*
X450356Y554521D01*
X451356D01*
Y555187D02*
X450690Y555854D01*
X450023D01*
X449357Y555187D01*
X485445Y681791D02*
X485778Y682124D01*
X486444D01*
X486777Y681791D01*
Y680458D01*
X486444Y680125D01*
X485778D01*
X485445Y680458D01*
Y681791D01*
X487444Y680125D02*
Y680458D01*
X487777D01*
Y680125D01*
X487444D01*
X489110Y681791D02*
X489443Y682124D01*
X490110D01*
X490443Y681791D01*
Y681458D01*
X490110Y681124D01*
X489777D01*
X490110D01*
X490443Y680791D01*
Y680458D01*
X490110Y680125D01*
X489443D01*
X489110Y680458D01*
X492442Y682124D02*
X491109D01*
Y681124D01*
X491776Y681458D01*
X492109D01*
X492442Y681124D01*
Y680458D01*
X492109Y680125D01*
X491443D01*
X491109Y680458D01*
X493109Y681791D02*
X493442Y682124D01*
X494108D01*
X494442Y681791D01*
Y680458D01*
X494108Y680125D01*
X493442D01*
X493109Y680458D01*
Y681791D01*
X497774Y680125D02*
X497108Y680791D01*
Y681458D01*
X497774Y682124D01*
X498774Y680125D02*
X499440D01*
X499107D01*
Y681458D01*
X498774D01*
X500440Y680125D02*
Y681458D01*
X501439D01*
X501773Y681124D01*
Y680125D01*
X502439D02*
X503106Y680791D01*
Y681458D01*
X502439Y682124D01*
X485445Y686909D02*
X485778Y687242D01*
X486444D01*
X486777Y686909D01*
Y685576D01*
X486444Y685243D01*
X485778D01*
X485445Y685576D01*
Y686909D01*
X487444Y685243D02*
Y685576D01*
X487777D01*
Y685243D01*
X487444D01*
X489110Y686909D02*
X489443Y687242D01*
X490110D01*
X490443Y686909D01*
Y685576D01*
X490110Y685243D01*
X489443D01*
X489110Y685576D01*
Y686909D01*
X492109Y685243D02*
Y687242D01*
X491109Y686242D01*
X492442D01*
X493109Y686909D02*
X493442Y687242D01*
X494108D01*
X494442Y686909D01*
Y685576D01*
X494108Y685243D01*
X493442D01*
X493109Y685576D01*
Y686909D01*
X497774Y685243D02*
X497108Y685909D01*
Y686576D01*
X497774Y687242D01*
X498774Y685243D02*
X499440D01*
X499107D01*
Y686576D01*
X498774D01*
X500440Y685243D02*
Y686576D01*
X501439D01*
X501773Y686242D01*
Y685243D01*
X502439D02*
X503106Y685909D01*
Y686576D01*
X502439Y687242D01*
X505906Y531397D02*
X506239Y531730D01*
X506905D01*
X507238Y531397D01*
Y530064D01*
X506905Y529731D01*
X506239D01*
X505906Y530064D01*
Y531397D01*
X507905Y529731D02*
Y530064D01*
X508238D01*
Y529731D01*
X507905D01*
X510904D02*
X509571D01*
X510904Y531064D01*
Y531397D01*
X510571Y531730D01*
X509904D01*
X509571Y531397D01*
X511570Y530064D02*
X511904Y529731D01*
X512570D01*
X512903Y530064D01*
Y531397D01*
X512570Y531730D01*
X511904D01*
X511570Y531397D01*
Y531064D01*
X511904Y530731D01*
X512903D01*
X513570Y529731D02*
X514236D01*
X513903D01*
Y531730D01*
X513570Y531397D01*
X517902Y529731D02*
X517235Y530397D01*
Y531064D01*
X517902Y531730D01*
X518901Y529731D02*
X519568D01*
X519235D01*
Y531064D01*
X518901D01*
X520568Y529731D02*
Y531064D01*
X521567D01*
X521900Y530731D01*
Y529731D01*
X522567D02*
X523233Y530397D01*
Y531064D01*
X522567Y531730D01*
X505906Y535816D02*
X506239Y536149D01*
X506905D01*
X507238Y535816D01*
Y534483D01*
X506905Y534150D01*
X506239D01*
X505906Y534483D01*
Y535816D01*
X507905Y534150D02*
Y534483D01*
X508238D01*
Y534150D01*
X507905D01*
X510904D02*
X509571D01*
X510904Y535483D01*
Y535816D01*
X510571Y536149D01*
X509904D01*
X509571Y535816D01*
X511570D02*
X511904Y536149D01*
X512570D01*
X512903Y535816D01*
Y535483D01*
X512570Y535149D01*
X512237D01*
X512570D01*
X512903Y534816D01*
Y534483D01*
X512570Y534150D01*
X511904D01*
X511570Y534483D01*
X513570Y534150D02*
X514236D01*
X513903D01*
Y536149D01*
X513570Y535816D01*
X517902Y534150D02*
X517235Y534816D01*
Y535483D01*
X517902Y536149D01*
X518901Y534150D02*
X519568D01*
X519235D01*
Y535483D01*
X518901D01*
X520568Y534150D02*
Y535483D01*
X521567D01*
X521900Y535149D01*
Y534150D01*
X522567D02*
X523233Y534816D01*
Y535483D01*
X522567Y536149D01*
X505906Y539665D02*
X506239Y539998D01*
X506905D01*
X507238Y539665D01*
Y538332D01*
X506905Y537999D01*
X506239D01*
X505906Y538332D01*
Y539665D01*
X507905Y537999D02*
Y538332D01*
X508238D01*
Y537999D01*
X507905D01*
X509571D02*
X510238D01*
X509904D01*
Y539998D01*
X509571Y539665D01*
X511237Y538332D02*
X511570Y537999D01*
X512237D01*
X512570Y538332D01*
Y539665D01*
X512237Y539998D01*
X511570D01*
X511237Y539665D01*
Y539332D01*
X511570Y538998D01*
X512570D01*
X513237Y537999D02*
X513903D01*
X513570D01*
Y539998D01*
X513237Y539665D01*
X517568Y537999D02*
X516902Y538665D01*
Y539332D01*
X517568Y539998D01*
X518568Y537999D02*
X519235D01*
X518901D01*
Y539332D01*
X518568D01*
X520234Y537999D02*
Y539332D01*
X521234D01*
X521567Y538998D01*
Y537999D01*
X522234D02*
X522900Y538665D01*
Y539332D01*
X522234Y539998D01*
X505906Y543996D02*
X506239Y544329D01*
X506905D01*
X507238Y543996D01*
Y542663D01*
X506905Y542329D01*
X506239D01*
X505906Y542663D01*
Y543996D01*
X507905Y542329D02*
Y542663D01*
X508238D01*
Y542329D01*
X507905D01*
X509571D02*
X510238D01*
X509904D01*
Y544329D01*
X509571Y543996D01*
X512570Y544329D02*
X511237D01*
Y543329D01*
X511904Y543662D01*
X512237D01*
X512570Y543329D01*
Y542663D01*
X512237Y542329D01*
X511570D01*
X511237Y542663D01*
X513237Y542329D02*
X513903D01*
X513570D01*
Y544329D01*
X513237Y543996D01*
X517568Y542329D02*
X516902Y542996D01*
Y543662D01*
X517568Y544329D01*
X518568Y542329D02*
X519235D01*
X518901D01*
Y543662D01*
X518568D01*
X520234Y542329D02*
Y543662D01*
X521234D01*
X521567Y543329D01*
Y542329D01*
X522234D02*
X522900Y542996D01*
Y543662D01*
X522234Y544329D01*
X505906Y548720D02*
X506239Y549053D01*
X506905D01*
X507238Y548720D01*
Y547387D01*
X506905Y547054D01*
X506239D01*
X505906Y547387D01*
Y548720D01*
X507905Y547054D02*
Y547387D01*
X508238D01*
Y547054D01*
X507905D01*
X509571Y548720D02*
X509904Y549053D01*
X510571D01*
X510904Y548720D01*
Y547387D01*
X510571Y547054D01*
X509904D01*
X509571Y547387D01*
Y548720D01*
X511570Y547387D02*
X511904Y547054D01*
X512570D01*
X512903Y547387D01*
Y548720D01*
X512570Y549053D01*
X511904D01*
X511570Y548720D01*
Y548387D01*
X511904Y548054D01*
X512903D01*
X513570Y547054D02*
X514236D01*
X513903D01*
Y549053D01*
X513570Y548720D01*
X517902Y547054D02*
X517235Y547720D01*
Y548387D01*
X517902Y549053D01*
X518901Y547054D02*
X519568D01*
X519235D01*
Y548387D01*
X518901D01*
X520568Y547054D02*
Y548387D01*
X521567D01*
X521900Y548054D01*
Y547054D01*
X522567D02*
X523233Y547720D01*
Y548387D01*
X522567Y549053D01*
X455293Y490979D02*
Y491646D01*
Y491313D01*
X453294D01*
X453627Y490979D01*
X455293Y492646D02*
X454960D01*
Y492979D01*
X455293D01*
Y492646D01*
X453627Y494312D02*
X453294Y494645D01*
Y495311D01*
X453627Y495645D01*
X453960D01*
X454293Y495311D01*
X454627Y495645D01*
X454960D01*
X455293Y495311D01*
Y494645D01*
X454960Y494312D01*
X454627D01*
X454293Y494645D01*
X453960Y494312D01*
X453627D01*
X454293Y494645D02*
Y495311D01*
X455293Y497311D02*
X453294D01*
X454293Y496311D01*
Y497644D01*
X455293Y500976D02*
X454627Y500310D01*
X453960D01*
X453294Y500976D01*
X455293Y501976D02*
Y502642D01*
Y502309D01*
X453960D01*
Y501976D01*
X455293Y503642D02*
X453960D01*
Y504642D01*
X454293Y504975D01*
X455293D01*
Y505641D02*
X454627Y506308D01*
X453960D01*
X453294Y505641D01*
X458541Y490979D02*
Y491646D01*
Y491313D01*
X456542D01*
X456875Y490979D01*
X458541Y492646D02*
X458208D01*
Y492979D01*
X458541D01*
Y492646D01*
X456542Y494312D02*
Y495645D01*
X456875D01*
X458208Y494312D01*
X458541D01*
X456542Y497644D02*
X456875Y496978D01*
X457541Y496311D01*
X458208D01*
X458541Y496644D01*
Y497311D01*
X458208Y497644D01*
X457874D01*
X457541Y497311D01*
Y496311D01*
X458541Y500976D02*
X457874Y500310D01*
X457208D01*
X456542Y500976D01*
X458541Y501976D02*
Y502642D01*
Y502309D01*
X457208D01*
Y501976D01*
X458541Y503642D02*
X457208D01*
Y504642D01*
X457541Y504975D01*
X458541D01*
Y505641D02*
X457874Y506308D01*
X457208D01*
X456542Y505641D01*
X461789Y490881D02*
Y491547D01*
Y491214D01*
X459790D01*
X460123Y490881D01*
X461789Y492547D02*
X461456D01*
Y492880D01*
X461789D01*
Y492547D01*
X459790Y495546D02*
Y494213D01*
X460789D01*
X460456Y494880D01*
Y495213D01*
X460789Y495546D01*
X461456D01*
X461789Y495213D01*
Y494547D01*
X461456Y494213D01*
X461789Y497212D02*
X459790D01*
X460789Y496213D01*
Y497546D01*
X461789Y500878D02*
X461123Y500211D01*
X460456D01*
X459790Y500878D01*
X461789Y501877D02*
Y502544D01*
Y502211D01*
X460456D01*
Y501877D01*
X461789Y503544D02*
X460456D01*
Y504543D01*
X460789Y504877D01*
X461789D01*
Y505543D02*
X461123Y506209D01*
X460456D01*
X459790Y505543D01*
X474661Y691089D02*
Y693089D01*
X475661D01*
X475994Y692755D01*
Y692089D01*
X475661Y691756D01*
X474661D01*
X475328D02*
X475994Y691089D01*
X478660Y692755D02*
X478993Y693089D01*
X479660D01*
X479993Y692755D01*
Y691423D01*
X479660Y691089D01*
X478993D01*
X478660Y691423D01*
Y692755D01*
X480659Y691089D02*
Y691423D01*
X480993D01*
Y691089D01*
X480659D01*
X482326Y692755D02*
X482659Y693089D01*
X483325D01*
X483658Y692755D01*
Y691423D01*
X483325Y691089D01*
X482659D01*
X482326Y691423D01*
Y692755D01*
X484325Y691089D02*
X484991D01*
X484658D01*
Y693089D01*
X484325Y692755D01*
X485991Y693089D02*
X487324D01*
Y692755D01*
X485991Y691423D01*
Y691089D01*
X489323Y693089D02*
X487990D01*
Y692089D01*
X488657Y692422D01*
X488990D01*
X489323Y692089D01*
Y691423D01*
X488990Y691089D01*
X488323D01*
X487990Y691423D01*
X492656Y691089D02*
X491989Y691756D01*
Y692422D01*
X492656Y693089D01*
X493655Y691089D02*
X494322D01*
X493988D01*
Y692422D01*
X493655D01*
X495321Y691089D02*
Y692422D01*
X496321D01*
X496654Y692089D01*
Y691089D01*
X497321D02*
X497987Y691756D01*
Y692422D01*
X497321Y693089D01*
X523622Y590862D02*
Y592862D01*
X524622D01*
X524955Y592528D01*
Y591862D01*
X524622Y591529D01*
X523622D01*
X524289D02*
X524955Y590862D01*
X527621Y592528D02*
X527954Y592862D01*
X528621D01*
X528954Y592528D01*
Y591195D01*
X528621Y590862D01*
X527954D01*
X527621Y591195D01*
Y592528D01*
X529620Y590862D02*
Y591195D01*
X529954D01*
Y590862D01*
X529620D01*
X531287Y592528D02*
X531620Y592862D01*
X532286D01*
X532619Y592528D01*
Y591195D01*
X532286Y590862D01*
X531620D01*
X531287Y591195D01*
Y592528D01*
X534286Y590862D02*
Y592862D01*
X533286Y591862D01*
X534619D01*
X535285Y592862D02*
X536618D01*
Y592528D01*
X535285Y591195D01*
Y590862D01*
X539950D02*
X539284Y591529D01*
Y592195D01*
X539950Y592862D01*
X540950Y590862D02*
X541617D01*
X541283D01*
Y592195D01*
X540950D01*
X542616Y590862D02*
Y592195D01*
X543616D01*
X543949Y591862D01*
Y590862D01*
X544616D02*
X545282Y591529D01*
Y592195D01*
X544616Y592862D01*
X523233Y596983D02*
Y598983D01*
X524232D01*
X524565Y598650D01*
Y597983D01*
X524232Y597650D01*
X523233D01*
X523899D02*
X524565Y596983D01*
X527231Y598650D02*
X527564Y598983D01*
X528231D01*
X528564Y598650D01*
Y597317D01*
X528231Y596983D01*
X527564D01*
X527231Y597317D01*
Y598650D01*
X529231Y596983D02*
Y597317D01*
X529564D01*
Y596983D01*
X529231D01*
X530897Y598650D02*
X531230Y598983D01*
X531896D01*
X532230Y598650D01*
Y597317D01*
X531896Y596983D01*
X531230D01*
X530897Y597317D01*
Y598650D01*
X534229Y596983D02*
X532896D01*
X534229Y598316D01*
Y598650D01*
X533896Y598983D01*
X533229D01*
X532896Y598650D01*
X534895D02*
X535229Y598983D01*
X535895D01*
X536228Y598650D01*
Y597317D01*
X535895Y596983D01*
X535229D01*
X534895Y597317D01*
Y598650D01*
X539561Y596983D02*
X538894Y597650D01*
Y598316D01*
X539561Y598983D01*
X540560Y596983D02*
X541227D01*
X540894D01*
Y598316D01*
X540560D01*
X542226Y596983D02*
Y598316D01*
X543226D01*
X543559Y597983D01*
Y596983D01*
X544226D02*
X544892Y597650D01*
Y598316D01*
X544226Y598983D01*
X459364Y748002D02*
X459030Y748336D01*
Y749002D01*
X459364Y749335D01*
X460696D01*
X461030Y749002D01*
Y748336D01*
X460696Y748002D01*
X459364D01*
X461030Y750002D02*
X460696D01*
Y750335D01*
X461030D01*
Y750002D01*
Y751668D02*
Y752334D01*
Y752001D01*
X459030D01*
X459364Y751668D01*
X461030Y754667D02*
Y753334D01*
X459697Y754667D01*
X459364D01*
X459030Y754334D01*
Y753667D01*
X459364Y753334D01*
X461030Y757999D02*
X460363Y757333D01*
X459697D01*
X459030Y757999D01*
X461030Y758999D02*
Y759665D01*
Y759332D01*
X459697D01*
Y758999D01*
X461030Y760665D02*
X459697D01*
Y761665D01*
X460030Y761998D01*
X461030D01*
Y762664D02*
X460363Y763331D01*
X459697D01*
X459030Y762664D01*
X515175Y753051D02*
X515508Y753384D01*
X516174D01*
X516508Y753051D01*
Y751718D01*
X516174Y751384D01*
X515508D01*
X515175Y751718D01*
Y753051D01*
X517174Y751384D02*
Y751718D01*
X517507D01*
Y751384D01*
X517174D01*
X519840D02*
Y753384D01*
X518840Y752384D01*
X520173D01*
X520840Y753051D02*
X521173Y753384D01*
X521839D01*
X522172Y753051D01*
Y752717D01*
X521839Y752384D01*
X522172Y752051D01*
Y751718D01*
X521839Y751384D01*
X521173D01*
X520840Y751718D01*
Y752051D01*
X521173Y752384D01*
X520840Y752717D01*
Y753051D01*
X521173Y752384D02*
X521839D01*
X525505Y751384D02*
X524838Y752051D01*
Y752717D01*
X525505Y753384D01*
X526504Y751384D02*
X527171D01*
X526838D01*
Y752717D01*
X526504D01*
X528171Y751384D02*
Y752717D01*
X529170D01*
X529503Y752384D01*
Y751384D01*
X530170D02*
X530836Y752051D01*
Y752717D01*
X530170Y753384D01*
X557175Y753051D02*
X557508Y753384D01*
X558174D01*
X558508Y753051D01*
Y751718D01*
X558174Y751384D01*
X557508D01*
X557175Y751718D01*
Y753051D01*
X559174Y751384D02*
Y751718D01*
X559507D01*
Y751384D01*
X559174D01*
X560840Y753051D02*
X561173Y753384D01*
X561840D01*
X562173Y753051D01*
Y752717D01*
X561840Y752384D01*
X561507D01*
X561840D01*
X562173Y752051D01*
Y751718D01*
X561840Y751384D01*
X561173D01*
X560840Y751718D01*
X564173Y753384D02*
X563506Y753051D01*
X562840Y752384D01*
Y751718D01*
X563173Y751384D01*
X563839D01*
X564173Y751718D01*
Y752051D01*
X563839Y752384D01*
X562840D01*
X567505Y751384D02*
X566838Y752051D01*
Y752717D01*
X567505Y753384D01*
X568504Y751384D02*
X569171D01*
X568838D01*
Y752717D01*
X568504D01*
X570171Y751384D02*
Y752717D01*
X571170D01*
X571503Y752384D01*
Y751384D01*
X572170D02*
X572836Y752051D01*
Y752717D01*
X572170Y753384D01*
X590951Y650438D02*
Y651105D01*
Y650771D01*
X588951D01*
X589285Y650438D01*
X590951Y652104D02*
X590618D01*
Y652437D01*
X590951D01*
Y652104D01*
X588951Y653770D02*
Y655103D01*
X589285D01*
X590618Y653770D01*
X590951D01*
X588951Y657103D02*
Y655770D01*
X589951D01*
X589618Y656436D01*
Y656769D01*
X589951Y657103D01*
X590618D01*
X590951Y656769D01*
Y656103D01*
X590618Y655770D01*
X590951Y660435D02*
X590284Y659768D01*
X589618D01*
X588951Y660435D01*
X590951Y661435D02*
Y662101D01*
Y661768D01*
X589618D01*
Y661435D01*
X590951Y663101D02*
X589618D01*
Y664100D01*
X589951Y664434D01*
X590951D01*
Y665100D02*
X590284Y665766D01*
X589618D01*
X588951Y665100D01*
X592919Y467605D02*
Y468271D01*
Y467938D01*
X590920D01*
X591253Y467605D01*
X592919Y469271D02*
X592586D01*
Y469604D01*
X592919D01*
Y469271D01*
X592586Y470937D02*
X592919Y471270D01*
Y471937D01*
X592586Y472270D01*
X591253D01*
X590920Y471937D01*
Y471270D01*
X591253Y470937D01*
X591586D01*
X591920Y471270D01*
Y472270D01*
X592919Y472936D02*
Y473603D01*
Y473270D01*
X590920D01*
X591253Y472936D01*
X592919Y477268D02*
X592253Y476602D01*
X591586D01*
X590920Y477268D01*
X592919Y478268D02*
Y478934D01*
Y478601D01*
X591586D01*
Y478268D01*
X592919Y479934D02*
X591586D01*
Y480934D01*
X591920Y481267D01*
X592919D01*
Y481933D02*
X592253Y482600D01*
X591586D01*
X590920Y481933D01*
X484506Y740452D02*
X484839Y740785D01*
X485506D01*
X485839Y740452D01*
Y739119D01*
X485506Y738786D01*
X484839D01*
X484506Y739119D01*
Y740452D01*
X486505Y738786D02*
Y739119D01*
X486839D01*
Y738786D01*
X486505D01*
X488171D02*
X488838D01*
X488505D01*
Y740785D01*
X488171Y740452D01*
X489838Y739119D02*
X490171Y738786D01*
X490837D01*
X491171Y739119D01*
Y740452D01*
X490837Y740785D01*
X490171D01*
X489838Y740452D01*
Y740119D01*
X490171Y739786D01*
X491171D01*
X494503Y738786D02*
X493836Y739453D01*
Y740119D01*
X494503Y740785D01*
X495503Y738786D02*
X496169D01*
X495836D01*
Y740119D01*
X495503D01*
X497169Y738786D02*
Y740119D01*
X498168D01*
X498501Y739786D01*
Y738786D01*
X499168D02*
X499834Y739453D01*
Y740119D01*
X499168Y740785D01*
X441816Y540192D02*
X441483Y540525D01*
Y541192D01*
X441816Y541525D01*
X442149D01*
X442482Y541192D01*
Y540859D01*
Y541192D01*
X442815Y541525D01*
X443149D01*
X443482Y541192D01*
Y540525D01*
X443149Y540192D01*
X443482Y542191D02*
X443149D01*
Y542525D01*
X443482D01*
Y542191D01*
X441483Y543857D02*
Y545190D01*
X441816D01*
X443149Y543857D01*
X443482D01*
X441816Y545857D02*
X441483Y546190D01*
Y546857D01*
X441816Y547190D01*
X442149D01*
X442482Y546857D01*
X442815Y547190D01*
X443149D01*
X443482Y546857D01*
Y546190D01*
X443149Y545857D01*
X442815D01*
X442482Y546190D01*
X442149Y545857D01*
X441816D01*
X442482Y546190D02*
Y546857D01*
X443482Y550522D02*
X442815Y549856D01*
X442149D01*
X441483Y550522D01*
X443482Y551522D02*
Y552188D01*
Y551855D01*
X442149D01*
Y551522D01*
X443482Y553188D02*
X442149D01*
Y554187D01*
X442482Y554521D01*
X443482D01*
Y555187D02*
X442815Y555854D01*
X442149D01*
X441483Y555187D01*
X445753Y540192D02*
X445420Y540525D01*
Y541192D01*
X445753Y541525D01*
X446086D01*
X446419Y541192D01*
Y540859D01*
Y541192D01*
X446753Y541525D01*
X447086D01*
X447419Y541192D01*
Y540525D01*
X447086Y540192D01*
X447419Y542191D02*
X447086D01*
Y542525D01*
X447419D01*
Y542191D01*
Y545190D02*
Y543857D01*
X446086Y545190D01*
X445753D01*
X445420Y544857D01*
Y544191D01*
X445753Y543857D01*
X445420Y545857D02*
Y547190D01*
X445753D01*
X447086Y545857D01*
X447419D01*
Y550522D02*
X446753Y549856D01*
X446086D01*
X445420Y550522D01*
X447419Y551522D02*
Y552188D01*
Y551855D01*
X446086D01*
Y551522D01*
X447419Y553188D02*
X446086D01*
Y554187D01*
X446419Y554521D01*
X447419D01*
Y555187D02*
X446753Y555854D01*
X446086D01*
X445420Y555187D01*
X515175Y387303D02*
X515508Y387636D01*
X516174D01*
X516508Y387303D01*
Y385970D01*
X516174Y385636D01*
X515508D01*
X515175Y385970D01*
Y387303D01*
X517174Y385636D02*
Y385970D01*
X517507D01*
Y385636D01*
X517174D01*
X518840Y387303D02*
X519173Y387636D01*
X519840D01*
X520173Y387303D01*
Y386969D01*
X519840Y386636D01*
X519507D01*
X519840D01*
X520173Y386303D01*
Y385970D01*
X519840Y385636D01*
X519173D01*
X518840Y385970D01*
X520840D02*
X521173Y385636D01*
X521839D01*
X522172Y385970D01*
Y387303D01*
X521839Y387636D01*
X521173D01*
X520840Y387303D01*
Y386969D01*
X521173Y386636D01*
X522172D01*
X525505Y385636D02*
X524838Y386303D01*
Y386969D01*
X525505Y387636D01*
X526504Y385636D02*
X527171D01*
X526838D01*
Y386969D01*
X526504D01*
X528170Y385636D02*
Y386969D01*
X529170D01*
X529503Y386636D01*
Y385636D01*
X530170D02*
X530836Y386303D01*
Y386969D01*
X530170Y387636D01*
X549220Y373379D02*
Y375378D01*
X550219D01*
X550553Y375045D01*
Y374379D01*
X550219Y374045D01*
X549220D01*
X549886D02*
X550553Y373379D01*
X553219Y375045D02*
X553552Y375378D01*
X554218D01*
X554551Y375045D01*
Y373712D01*
X554218Y373379D01*
X553552D01*
X553219Y373712D01*
Y375045D01*
X555218Y373379D02*
Y373712D01*
X555551D01*
Y373379D01*
X555218D01*
X556884Y375045D02*
X557217Y375378D01*
X557884D01*
X558217Y375045D01*
Y373712D01*
X557884Y373379D01*
X557217D01*
X556884Y373712D01*
Y375045D01*
X558883Y375378D02*
X560216D01*
Y375045D01*
X558883Y373712D01*
Y373379D01*
X563549D02*
X562882Y374045D01*
Y374712D01*
X563549Y375378D01*
X564548Y373379D02*
X565215D01*
X564881D01*
Y374712D01*
X564548D01*
X566214Y373379D02*
Y374712D01*
X567214D01*
X567547Y374379D01*
Y373379D01*
X568214D02*
X568880Y374045D01*
Y374712D01*
X568214Y375378D01*
X534906Y363681D02*
X535239Y364014D01*
X535905D01*
X536238Y363681D01*
Y362348D01*
X535905Y362014D01*
X535239D01*
X534906Y362348D01*
Y363681D01*
X536905Y362014D02*
Y362348D01*
X537238D01*
Y362014D01*
X536905D01*
X538571D02*
X539237D01*
X538904D01*
Y364014D01*
X538571Y363681D01*
X540237Y362348D02*
X540570Y362014D01*
X541237D01*
X541570Y362348D01*
Y363681D01*
X541237Y364014D01*
X540570D01*
X540237Y363681D01*
Y363347D01*
X540570Y363014D01*
X541570D01*
X544902Y362014D02*
X544236Y362681D01*
Y363347D01*
X544902Y364014D01*
X545902Y362014D02*
X546568D01*
X546235D01*
Y363347D01*
X545902D01*
X547568Y362014D02*
Y363347D01*
X548568D01*
X548901Y363014D01*
Y362014D01*
X549568D02*
X550234Y362681D01*
Y363347D01*
X549568Y364014D01*
X480591Y363681D02*
X480925Y364014D01*
X481591D01*
X481924Y363681D01*
Y362348D01*
X481591Y362014D01*
X480925D01*
X480591Y362348D01*
Y363681D01*
X482591Y362014D02*
Y362348D01*
X482924D01*
Y362014D01*
X482591D01*
X485590Y364014D02*
X484257D01*
Y363014D01*
X484923Y363347D01*
X485256D01*
X485590Y363014D01*
Y362348D01*
X485256Y362014D01*
X484590D01*
X484257Y362348D01*
X486256Y362014D02*
X486923D01*
X486589D01*
Y364014D01*
X486256Y363681D01*
X490588Y362014D02*
X489922Y362681D01*
Y363347D01*
X490588Y364014D01*
X491588Y362014D02*
X492254D01*
X491921D01*
Y363347D01*
X491588D01*
X493254Y362014D02*
Y363347D01*
X494254D01*
X494587Y363014D01*
Y362014D01*
X495253D02*
X495920Y362681D01*
Y363347D01*
X495253Y364014D01*
X515341Y357684D02*
X516008D01*
X515675D01*
Y359683D01*
X515341Y359350D01*
X517007Y357684D02*
Y358017D01*
X517341D01*
Y357684D01*
X517007D01*
X520007D02*
X518674D01*
X520007Y359017D01*
Y359350D01*
X519673Y359683D01*
X519007D01*
X518674Y359350D01*
X520673D02*
X521006Y359683D01*
X521673D01*
X522006Y359350D01*
Y358017D01*
X521673Y357684D01*
X521006D01*
X520673Y358017D01*
Y359350D01*
X525338Y357684D02*
X524672Y358350D01*
Y359017D01*
X525338Y359683D01*
X526338Y357684D02*
X527004D01*
X526671D01*
Y359017D01*
X526338D01*
X528004Y357684D02*
Y359017D01*
X529004D01*
X529337Y358683D01*
Y357684D01*
X530003D02*
X530670Y358350D01*
Y359017D01*
X530003Y359683D01*
X475591Y387303D02*
X475925Y387636D01*
X476591D01*
X476924Y387303D01*
Y385970D01*
X476591Y385636D01*
X475925D01*
X475591Y385970D01*
Y387303D01*
X477591Y385636D02*
Y385970D01*
X477924D01*
Y385636D01*
X477591D01*
X480257D02*
Y387636D01*
X479257Y386636D01*
X480590D01*
X481256Y385636D02*
X481923D01*
X481589D01*
Y387636D01*
X481256Y387303D01*
X485588Y385636D02*
X484922Y386303D01*
Y386969D01*
X485588Y387636D01*
X486588Y385636D02*
X487254D01*
X486921D01*
Y386969D01*
X486588D01*
X488254Y385636D02*
Y386969D01*
X489254D01*
X489587Y386636D01*
Y385636D01*
X490253D02*
X490920Y386303D01*
Y386969D01*
X490253Y387636D01*
X460545Y385222D02*
X460211Y385555D01*
Y386221D01*
X460545Y386554D01*
X461877D01*
X462211Y386221D01*
Y385555D01*
X461877Y385222D01*
X460545D01*
X462211Y387221D02*
X461877D01*
Y387554D01*
X462211D01*
Y387221D01*
Y390220D02*
Y388887D01*
X460878Y390220D01*
X460545D01*
X460211Y389887D01*
Y389220D01*
X460545Y388887D01*
X460211Y390886D02*
Y392219D01*
X460545D01*
X461877Y390886D01*
X462211D01*
Y395551D02*
X461544Y394885D01*
X460878D01*
X460211Y395551D01*
X462211Y396551D02*
Y397218D01*
Y396884D01*
X460878D01*
Y396551D01*
X462211Y398217D02*
X460878D01*
Y399217D01*
X461211Y399550D01*
X462211D01*
Y400217D02*
X461544Y400883D01*
X460878D01*
X460211Y400217D01*
X497322Y717209D02*
Y719208D01*
X498322D01*
X498655Y718875D01*
Y718208D01*
X498322Y717875D01*
X497322D01*
X497989D02*
X498655Y717209D01*
X501321Y718875D02*
X501654Y719208D01*
X502321D01*
X502654Y718875D01*
Y717542D01*
X502321Y717209D01*
X501654D01*
X501321Y717542D01*
Y718875D01*
X503320Y717209D02*
Y717542D01*
X503653D01*
Y717209D01*
X503320D01*
X504986Y718875D02*
X505320Y719208D01*
X505986D01*
X506319Y718875D01*
Y717542D01*
X505986Y717209D01*
X505320D01*
X504986Y717542D01*
Y718875D01*
X506986Y719208D02*
X508319D01*
Y718875D01*
X506986Y717542D01*
Y717209D01*
X511651D02*
X510984Y717875D01*
Y718541D01*
X511651Y719208D01*
X512650Y717209D02*
X513317D01*
X512984D01*
Y718541D01*
X512650D01*
X514317Y717209D02*
Y718541D01*
X515316D01*
X515650Y718208D01*
Y717209D01*
X516316D02*
X516983Y717875D01*
Y718541D01*
X516316Y719208D01*
X555446Y576643D02*
Y578642D01*
X556446D01*
X556779Y578309D01*
Y577643D01*
X556446Y577310D01*
X555446D01*
X556112D02*
X556779Y576643D01*
X559445Y578309D02*
X559778Y578642D01*
X560444D01*
X560778Y578309D01*
Y576976D01*
X560444Y576643D01*
X559778D01*
X559445Y576976D01*
Y578309D01*
X561444Y576643D02*
Y576976D01*
X561777D01*
Y576643D01*
X561444D01*
X563110Y578309D02*
X563443Y578642D01*
X564110D01*
X564443Y578309D01*
Y576976D01*
X564110Y576643D01*
X563443D01*
X563110Y576976D01*
Y578309D01*
X565109Y578642D02*
X566442D01*
Y578309D01*
X565109Y576976D01*
Y576643D01*
X569775D02*
X569108Y577310D01*
Y577976D01*
X569775Y578642D01*
X570774Y576643D02*
X571441D01*
X571108D01*
Y577976D01*
X570774D01*
X572440Y576643D02*
Y577976D01*
X573440D01*
X573773Y577643D01*
Y576643D01*
X574440D02*
X575106Y577310D01*
Y577976D01*
X574440Y578642D01*
X556305Y398426D02*
Y400425D01*
X557304D01*
X557638Y400092D01*
Y399426D01*
X557304Y399093D01*
X556305D01*
X556971D02*
X557638Y398426D01*
X560303Y400092D02*
X560637Y400425D01*
X561303D01*
X561636Y400092D01*
Y398759D01*
X561303Y398426D01*
X560637D01*
X560303Y398759D01*
Y400092D01*
X562303Y398426D02*
Y398759D01*
X562636D01*
Y398426D01*
X562303D01*
X563969Y400092D02*
X564302Y400425D01*
X564969D01*
X565302Y400092D01*
Y398759D01*
X564969Y398426D01*
X564302D01*
X563969Y398759D01*
Y400092D01*
X567301Y400425D02*
X565968D01*
Y399426D01*
X566635Y399759D01*
X566968D01*
X567301Y399426D01*
Y398759D01*
X566968Y398426D01*
X566301D01*
X565968Y398759D01*
X567968Y400092D02*
X568301Y400425D01*
X568967D01*
X569301Y400092D01*
Y398759D01*
X568967Y398426D01*
X568301D01*
X567968Y398759D01*
Y400092D01*
X572633Y398426D02*
X571966Y399093D01*
Y399759D01*
X572633Y400425D01*
X573632Y398426D02*
X574299D01*
X573966D01*
Y399759D01*
X573632D01*
X575299Y398426D02*
Y399759D01*
X576298D01*
X576631Y399426D01*
Y398426D01*
X577298D02*
X577964Y399093D01*
Y399759D01*
X577298Y400425D01*
M02*
