G04*
G04 #@! TF.GenerationSoftware,Altium Limited,Altium Designer,20.2.6 (244)*
G04*
G04 Layer_Physical_Order=2*
G04 Layer_Color=36540*
%FSLAX25Y25*%
%MOIN*%
G70*
G04*
G04 #@! TF.SameCoordinates,A1248B6C-439F-447A-ADC8-1C90144166A7*
G04*
G04*
G04 #@! TF.FilePolarity,Positive*
G04*
G01*
G75*
%ADD10C,0.00394*%
%ADD16C,0.01575*%
G36*
X804425Y455531D02*
X804580Y455068D01*
X804573Y455031D01*
X804139Y454741D01*
X803834Y454285D01*
X803727Y453747D01*
X803834Y453210D01*
X804139Y452754D01*
X804595Y452449D01*
X805132Y452342D01*
X805670Y452449D01*
X806126Y452754D01*
X806430Y453210D01*
X806537Y453747D01*
X806430Y454285D01*
X806126Y454741D01*
X805692Y455031D01*
X805685Y455068D01*
X805840Y455531D01*
X818598Y455531D01*
X818753Y455068D01*
X818746Y455031D01*
X818312Y454741D01*
X818008Y454285D01*
X817901Y453747D01*
X818008Y453210D01*
X818312Y452754D01*
X818768Y452449D01*
X819306Y452342D01*
X819843Y452449D01*
X820299Y452754D01*
X820604Y453210D01*
X820710Y453747D01*
X820604Y454285D01*
X820299Y454741D01*
X819865Y455031D01*
X819858Y455068D01*
X820013Y455531D01*
X835400D01*
Y421531D01*
X791400Y421531D01*
Y455531D01*
X804425D01*
D02*
G37*
%LPC*%
G36*
X829148Y451215D02*
X828610Y451108D01*
X828155Y450804D01*
X827850Y450348D01*
X827743Y449810D01*
X827850Y449273D01*
X828155Y448817D01*
X828477Y448601D01*
X828552Y448074D01*
X828548Y448048D01*
X828244Y447592D01*
X828137Y447054D01*
X828244Y446517D01*
X828548Y446061D01*
X829004Y445756D01*
X829542Y445649D01*
X830079Y445756D01*
X830535Y446061D01*
X830619Y446186D01*
X831220D01*
X831304Y446061D01*
X831760Y445756D01*
X832298Y445649D01*
X832835Y445756D01*
X833291Y446061D01*
X833596Y446517D01*
X833703Y447054D01*
X833596Y447592D01*
X833291Y448048D01*
X832835Y448352D01*
X832298Y448459D01*
X831760Y448352D01*
X831304Y448048D01*
X831220Y447922D01*
X830619D01*
X830535Y448048D01*
X830213Y448263D01*
X830138Y448790D01*
X830142Y448817D01*
X830446Y449273D01*
X830553Y449810D01*
X830446Y450348D01*
X830142Y450804D01*
X829686Y451108D01*
X829148Y451215D01*
D02*
G37*
G36*
X810644Y450821D02*
X810106Y450715D01*
X809651Y450410D01*
X809346Y449954D01*
X809239Y449417D01*
X809346Y448879D01*
X809076Y448382D01*
X808925Y448352D01*
X808470Y448048D01*
X808165Y447592D01*
X808058Y447054D01*
X808165Y446517D01*
X808470Y446061D01*
X808925Y445756D01*
X809463Y445649D01*
X810001Y445756D01*
X810456Y446061D01*
X810761Y446517D01*
X810868Y447054D01*
X810761Y447592D01*
X811031Y448089D01*
X811182Y448119D01*
X811638Y448423D01*
X811942Y448879D01*
X812049Y449417D01*
X811942Y449954D01*
X811638Y450410D01*
X811182Y450715D01*
X810644Y450821D01*
D02*
G37*
G36*
X817928Y448066D02*
X817390Y447959D01*
X816934Y447654D01*
X816630Y447198D01*
X816523Y446661D01*
X816630Y446123D01*
X816934Y445667D01*
X817390Y445363D01*
X817928Y445256D01*
X818465Y445363D01*
X818921Y445667D01*
X819226Y446123D01*
X819333Y446661D01*
X819226Y447198D01*
X818921Y447654D01*
X818465Y447959D01*
X817928Y448066D01*
D02*
G37*
G36*
X800014Y448951D02*
X799477Y448844D01*
X799021Y448540D01*
X798716Y448084D01*
X798609Y447546D01*
X798716Y447009D01*
X799021Y446553D01*
X799477Y446248D01*
X800014Y446142D01*
X800224Y445673D01*
X800291Y445336D01*
X800596Y444880D01*
X801051Y444575D01*
X801589Y444468D01*
X802127Y444575D01*
X802582Y444880D01*
X802887Y445336D01*
X802994Y445873D01*
X802887Y446411D01*
X802582Y446867D01*
X802127Y447171D01*
X801589Y447278D01*
X801379Y447746D01*
X801312Y448084D01*
X801008Y448540D01*
X800552Y448844D01*
X800014Y448951D01*
D02*
G37*
G36*
X813400Y446491D02*
X812862Y446384D01*
X812407Y446079D01*
X812102Y445623D01*
X811995Y445086D01*
X812102Y444548D01*
X812407Y444092D01*
X812862Y443788D01*
X813400Y443681D01*
X813938Y443788D01*
X814394Y444092D01*
X814698Y444548D01*
X814805Y445086D01*
X814698Y445623D01*
X814394Y446079D01*
X813938Y446384D01*
X813400Y446491D01*
D02*
G37*
G36*
X828853Y440420D02*
X827939Y440238D01*
X827164Y439720D01*
X826646Y438945D01*
X826464Y438031D01*
X826646Y437117D01*
X827164Y436343D01*
X827939Y435825D01*
X828853Y435643D01*
X829767Y435825D01*
X830542Y436343D01*
X831059Y437117D01*
X831241Y438031D01*
X831059Y438945D01*
X830542Y439720D01*
X829767Y440238D01*
X828853Y440420D01*
D02*
G37*
G36*
X793715Y441373D02*
X793177Y441266D01*
X792722Y440961D01*
X792417Y440505D01*
X792310Y439968D01*
X792417Y439430D01*
X792722Y438974D01*
X793177Y438670D01*
X793288Y438648D01*
Y438138D01*
X793177Y438116D01*
X792722Y437812D01*
X792417Y437356D01*
X792310Y436818D01*
X792417Y436280D01*
X792722Y435825D01*
X793177Y435520D01*
X793715Y435413D01*
X794253Y435520D01*
X794708Y435825D01*
X795013Y436280D01*
X795120Y436818D01*
X795013Y437356D01*
X794708Y437812D01*
X794253Y438116D01*
X794142Y438138D01*
Y438648D01*
X794253Y438670D01*
X794708Y438974D01*
X795013Y439430D01*
X795120Y439968D01*
X795013Y440505D01*
X794708Y440961D01*
X794253Y441266D01*
X793715Y441373D01*
D02*
G37*
G36*
X825400Y436936D02*
X824862Y436829D01*
X824407Y436524D01*
X824102Y436068D01*
X823995Y435531D01*
X824102Y434993D01*
X824407Y434537D01*
X824862Y434233D01*
X825400Y434126D01*
X825938Y434233D01*
X826394Y434537D01*
X826698Y434993D01*
X826805Y435531D01*
X826698Y436068D01*
X826394Y436524D01*
X825938Y436829D01*
X825400Y436936D01*
D02*
G37*
G36*
X797947Y440420D02*
X797033Y440238D01*
X796258Y439720D01*
X795741Y438945D01*
X795559Y438031D01*
X795741Y437117D01*
X796258Y436343D01*
X797033Y435825D01*
X797947Y435643D01*
X798606Y435774D01*
X798801Y435303D01*
X798726Y435253D01*
X798421Y434797D01*
X798314Y434259D01*
X798421Y433721D01*
X798726Y433266D01*
X799181Y432961D01*
X799719Y432854D01*
X800257Y432961D01*
X800712Y433266D01*
X801017Y433721D01*
X801124Y434259D01*
X801017Y434797D01*
X800712Y435253D01*
X800257Y435557D01*
X799719Y435664D01*
X799437Y435608D01*
X799241Y436079D01*
X799636Y436343D01*
X800154Y437117D01*
X800336Y438031D01*
X800154Y438945D01*
X799636Y439720D01*
X798861Y440238D01*
X797947Y440420D01*
D02*
G37*
G36*
X796077Y435467D02*
X795540Y435360D01*
X795084Y435056D01*
X794779Y434600D01*
X794672Y434062D01*
X794779Y433525D01*
X795055Y433111D01*
X795006Y432949D01*
X794811Y432650D01*
X794502Y432711D01*
X793965Y432604D01*
X793509Y432300D01*
X793204Y431844D01*
X793097Y431306D01*
X793204Y430769D01*
X793509Y430313D01*
X793965Y430008D01*
X794502Y429901D01*
X795040Y430008D01*
X795496Y430313D01*
X795800Y430769D01*
X795907Y431306D01*
X795800Y431844D01*
X795524Y432258D01*
X795574Y432419D01*
X795769Y432719D01*
X796077Y432657D01*
X796615Y432764D01*
X797071Y433069D01*
X797375Y433525D01*
X797482Y434062D01*
X797375Y434600D01*
X797071Y435056D01*
X796615Y435360D01*
X796077Y435467D01*
D02*
G37*
G36*
X812416Y432711D02*
X811878Y432604D01*
X811422Y432300D01*
X811217Y431993D01*
X811165Y431976D01*
X810714D01*
X810662Y431993D01*
X810456Y432300D01*
X810001Y432604D01*
X809463Y432711D01*
X808925Y432604D01*
X808470Y432300D01*
X808165Y431844D01*
X808058Y431306D01*
X808165Y430769D01*
X808470Y430313D01*
X808925Y430008D01*
X809463Y429901D01*
X810001Y430008D01*
X810456Y430313D01*
X810662Y430620D01*
X810714Y430637D01*
X811165D01*
X811217Y430620D01*
X811422Y430313D01*
X811878Y430008D01*
X812416Y429901D01*
X812953Y430008D01*
X813409Y430313D01*
X813714Y430769D01*
X813821Y431306D01*
X813714Y431844D01*
X813409Y432300D01*
X812953Y432604D01*
X812416Y432711D01*
D02*
G37*
G36*
X817337D02*
X816799Y432604D01*
X816344Y432300D01*
X816039Y431844D01*
X815932Y431306D01*
X816039Y430769D01*
X816344Y430313D01*
X816799Y430008D01*
X817337Y429901D01*
X817875Y430008D01*
X818330Y430313D01*
X818635Y430769D01*
X818742Y431306D01*
X818635Y431844D01*
X818330Y432300D01*
X817875Y432604D01*
X817337Y432711D01*
D02*
G37*
G36*
X797652Y431530D02*
X797114Y431423D01*
X796659Y431119D01*
X796354Y430663D01*
X796247Y430125D01*
X796354Y429588D01*
X796659Y429132D01*
X797114Y428827D01*
X797652Y428720D01*
X798190Y428827D01*
X798645Y429132D01*
X798950Y429588D01*
X799057Y430125D01*
X798950Y430663D01*
X798645Y431119D01*
X798190Y431423D01*
X797652Y431530D01*
D02*
G37*
G36*
X799400Y427436D02*
X798862Y427329D01*
X798407Y427024D01*
X798102Y426568D01*
X797995Y426031D01*
X798102Y425493D01*
X798407Y425037D01*
X798862Y424733D01*
X799400Y424626D01*
X799938Y424733D01*
X800393Y425037D01*
X800698Y425493D01*
X800805Y426031D01*
X800698Y426568D01*
X800393Y427024D01*
X799938Y427329D01*
X799400Y427436D01*
D02*
G37*
G36*
X832691Y425625D02*
X832154Y425518D01*
X831698Y425213D01*
X831393Y424757D01*
X831286Y424220D01*
X831393Y423682D01*
X831698Y423226D01*
X832154Y422922D01*
X832691Y422815D01*
X833229Y422922D01*
X833685Y423226D01*
X833989Y423682D01*
X834096Y424220D01*
X833989Y424757D01*
X833685Y425213D01*
X833229Y425518D01*
X832691Y425625D01*
D02*
G37*
%LPD*%
D10*
X768794Y495999D02*
Y492063D01*
X771418D01*
X775353D02*
X772729D01*
X775353Y494687D01*
Y495343D01*
X774697Y495999D01*
X773385D01*
X772729Y495343D01*
X780601Y494031D02*
X783225D01*
X791096Y495343D02*
X790440Y495999D01*
X789128D01*
X788473Y495343D01*
Y492719D01*
X789128Y492063D01*
X790440D01*
X791096Y492719D01*
Y494031D01*
X789784D01*
X792408Y492063D02*
Y495999D01*
X795032Y492063D01*
Y495999D01*
X796344D02*
Y492063D01*
X798312D01*
X798968Y492719D01*
Y495343D01*
X798312Y495999D01*
X796344D01*
D16*
X805034Y433701D02*
D03*
X814975Y447054D02*
D03*
X812613Y447448D02*
D03*
X799620Y450991D02*
D03*
X797258D02*
D03*
X829148Y424220D02*
D03*
X822400Y447531D02*
D03*
X826786Y424220D02*
D03*
X822400Y450204D02*
D03*
M02*
