G04*
G04 #@! TF.GenerationSoftware,Altium Limited,Altium Designer,20.2.6 (244)*
G04*
G04 Layer_Color=8421504*
%FSLAX25Y25*%
%MOIN*%
G70*
G04*
G04 #@! TF.SameCoordinates,A1248B6C-439F-447A-ADC8-1C90144166A7*
G04*
G04*
G04 #@! TF.FilePolarity,Positive*
G04*
G01*
G75*
%ADD10C,0.00394*%
G04:AMPARAMS|DCode=12|XSize=15.75mil|YSize=59.06mil|CornerRadius=3.94mil|HoleSize=0mil|Usage=FLASHONLY|Rotation=0.000|XOffset=0mil|YOffset=0mil|HoleType=Round|Shape=RoundedRectangle|*
%AMROUNDEDRECTD12*
21,1,0.01575,0.05118,0,0,0.0*
21,1,0.00787,0.05906,0,0,0.0*
1,1,0.00787,0.00394,-0.02559*
1,1,0.00787,-0.00394,-0.02559*
1,1,0.00787,-0.00394,0.02559*
1,1,0.00787,0.00394,0.02559*
%
%ADD12ROUNDEDRECTD12*%
D10*
X768715Y496069D02*
X771339D01*
X770027D01*
Y492134D01*
X774619Y496069D02*
X773307D01*
X772651Y495413D01*
Y492790D01*
X773307Y492134D01*
X774619D01*
X775275Y492790D01*
Y495413D01*
X774619Y496069D01*
X776586Y492134D02*
Y496069D01*
X778554D01*
X779210Y495413D01*
Y494102D01*
X778554Y493446D01*
X776586D01*
X784458Y492134D02*
Y496069D01*
X786426D01*
X787082Y495413D01*
Y494102D01*
X786426Y493446D01*
X784458D01*
X788394Y492134D02*
Y494758D01*
X789706Y496069D01*
X791017Y494758D01*
Y492134D01*
Y494102D01*
X788394D01*
X794953Y495413D02*
X794297Y496069D01*
X792985D01*
X792329Y495413D01*
Y494758D01*
X792985Y494102D01*
X794297D01*
X794953Y493446D01*
Y492790D01*
X794297Y492134D01*
X792985D01*
X792329Y492790D01*
X796265Y496069D02*
X798889D01*
X797577D01*
Y492134D01*
X802825Y496069D02*
X800201D01*
Y492134D01*
X802825D01*
X800201Y494102D02*
X801513D01*
D12*
X824650Y440984D02*
D03*
Y426417D02*
D03*
X822150D02*
D03*
X819650D02*
D03*
X817150D02*
D03*
X814650D02*
D03*
X812150D02*
D03*
X809650D02*
D03*
X807150D02*
D03*
X804650D02*
D03*
X802150D02*
D03*
X822150Y440984D02*
D03*
X819650D02*
D03*
X817150D02*
D03*
X814650D02*
D03*
X812150D02*
D03*
X809650D02*
D03*
X807150D02*
D03*
X804650D02*
D03*
X802150D02*
D03*
M02*
