G04*
G04 #@! TF.GenerationSoftware,Altium Limited,Altium Designer,20.2.6 (244)*
G04*
G04 Layer_Color=6502151*
%FSLAX25Y25*%
%MOIN*%
G70*
G04*
G04 #@! TF.SameCoordinates,A1248B6C-439F-447A-ADC8-1C90144166A7*
G04*
G04*
G04 #@! TF.FilePolarity,Negative*
G04*
G01*
G75*
%ADD10C,0.00394*%
%ADD13C,0.07874*%
G04:AMPARAMS|DCode=28|XSize=37.4mil|YSize=33.47mil|CornerRadius=7.87mil|HoleSize=0mil|Usage=FLASHONLY|Rotation=90.000|XOffset=0mil|YOffset=0mil|HoleType=Round|Shape=RoundedRectangle|*
%AMROUNDEDRECTD28*
21,1,0.03740,0.01772,0,0,90.0*
21,1,0.02165,0.03347,0,0,90.0*
1,1,0.01575,0.00886,0.01083*
1,1,0.01575,0.00886,-0.01083*
1,1,0.01575,-0.00886,-0.01083*
1,1,0.01575,-0.00886,0.01083*
%
%ADD28ROUNDEDRECTD28*%
G04:AMPARAMS|DCode=29|XSize=24.41mil|YSize=24.41mil|CornerRadius=6.06mil|HoleSize=0mil|Usage=FLASHONLY|Rotation=180.000|XOffset=0mil|YOffset=0mil|HoleType=Round|Shape=RoundedRectangle|*
%AMROUNDEDRECTD29*
21,1,0.02441,0.01228,0,0,180.0*
21,1,0.01228,0.02441,0,0,180.0*
1,1,0.01213,-0.00614,0.00614*
1,1,0.01213,0.00614,0.00614*
1,1,0.01213,0.00614,-0.00614*
1,1,0.01213,-0.00614,-0.00614*
%
%ADD29ROUNDEDRECTD29*%
G04:AMPARAMS|DCode=30|XSize=24.41mil|YSize=24.41mil|CornerRadius=6.06mil|HoleSize=0mil|Usage=FLASHONLY|Rotation=90.000|XOffset=0mil|YOffset=0mil|HoleType=Round|Shape=RoundedRectangle|*
%AMROUNDEDRECTD30*
21,1,0.02441,0.01228,0,0,90.0*
21,1,0.01228,0.02441,0,0,90.0*
1,1,0.01213,0.00614,0.00614*
1,1,0.01213,0.00614,-0.00614*
1,1,0.01213,-0.00614,-0.00614*
1,1,0.01213,-0.00614,0.00614*
%
%ADD30ROUNDEDRECTD30*%
G04:AMPARAMS|DCode=31|XSize=37.4mil|YSize=33.47mil|CornerRadius=7.87mil|HoleSize=0mil|Usage=FLASHONLY|Rotation=180.000|XOffset=0mil|YOffset=0mil|HoleType=Round|Shape=RoundedRectangle|*
%AMROUNDEDRECTD31*
21,1,0.03740,0.01772,0,0,180.0*
21,1,0.02165,0.03347,0,0,180.0*
1,1,0.01575,-0.01083,0.00886*
1,1,0.01575,0.01083,0.00886*
1,1,0.01575,0.01083,-0.00886*
1,1,0.01575,-0.01083,-0.00886*
%
%ADD31ROUNDEDRECTD31*%
G04:AMPARAMS|DCode=32|XSize=23.62mil|YSize=17.72mil|CornerRadius=5.41mil|HoleSize=0mil|Usage=FLASHONLY|Rotation=270.000|XOffset=0mil|YOffset=0mil|HoleType=Round|Shape=RoundedRectangle|*
%AMROUNDEDRECTD32*
21,1,0.02362,0.00689,0,0,270.0*
21,1,0.01280,0.01772,0,0,270.0*
1,1,0.01083,-0.00345,-0.00640*
1,1,0.01083,-0.00345,0.00640*
1,1,0.01083,0.00345,0.00640*
1,1,0.01083,0.00345,-0.00640*
%
%ADD32ROUNDEDRECTD32*%
G04:AMPARAMS|DCode=33|XSize=47.24mil|YSize=19.68mil|CornerRadius=4.33mil|HoleSize=0mil|Usage=FLASHONLY|Rotation=90.000|XOffset=0mil|YOffset=0mil|HoleType=Round|Shape=RoundedRectangle|*
%AMROUNDEDRECTD33*
21,1,0.04724,0.01102,0,0,90.0*
21,1,0.03858,0.01968,0,0,90.0*
1,1,0.00866,0.00551,0.01929*
1,1,0.00866,0.00551,-0.01929*
1,1,0.00866,-0.00551,-0.01929*
1,1,0.00866,-0.00551,0.01929*
%
%ADD33ROUNDEDRECTD33*%
%ADD34C,0.01181*%
D10*
X768715Y496069D02*
Y492134D01*
X770683D01*
X771339Y492790D01*
Y493446D01*
X770683Y494102D01*
X768715D01*
X770683D01*
X771339Y494758D01*
Y495413D01*
X770683Y496069D01*
X768715D01*
X774619D02*
X773307D01*
X772651Y495413D01*
Y492790D01*
X773307Y492134D01*
X774619D01*
X775275Y492790D01*
Y495413D01*
X774619Y496069D01*
X776586D02*
X779210D01*
X777898D01*
Y492134D01*
X780522Y496069D02*
X783146D01*
X781834D01*
Y492134D01*
X786426Y496069D02*
X785114D01*
X784458Y495413D01*
Y492790D01*
X785114Y492134D01*
X786426D01*
X787082Y492790D01*
Y495413D01*
X786426Y496069D01*
X788394Y492134D02*
Y496069D01*
X789706Y494758D01*
X791017Y496069D01*
Y492134D01*
X798889Y495413D02*
X798233Y496069D01*
X796921D01*
X796265Y495413D01*
Y494758D01*
X796921Y494102D01*
X798233D01*
X798889Y493446D01*
Y492790D01*
X798233Y492134D01*
X796921D01*
X796265Y492790D01*
X802169Y496069D02*
X800857D01*
X800201Y495413D01*
Y492790D01*
X800857Y492134D01*
X802169D01*
X802825Y492790D01*
Y495413D01*
X802169Y496069D01*
X804137D02*
Y492134D01*
X806761D01*
X808072Y496069D02*
Y492134D01*
X810040D01*
X810696Y492790D01*
Y495413D01*
X810040Y496069D01*
X808072D01*
X814632D02*
X812008D01*
Y492134D01*
X814632D01*
X812008Y494102D02*
X813320D01*
X815944Y492134D02*
Y496069D01*
X817912D01*
X818568Y495413D01*
Y494102D01*
X817912Y493446D01*
X815944D01*
X817256D02*
X818568Y492134D01*
X819880D02*
Y496069D01*
X821192Y494758D01*
X822503Y496069D01*
Y492134D01*
X823815D02*
Y494758D01*
X825127Y496069D01*
X826439Y494758D01*
Y492134D01*
Y494102D01*
X823815D01*
X830375Y495413D02*
X829719Y496069D01*
X828407D01*
X827751Y495413D01*
Y494758D01*
X828407Y494102D01*
X829719D01*
X830375Y493446D01*
Y492790D01*
X829719Y492134D01*
X828407D01*
X827751Y492790D01*
X831687Y496069D02*
Y492134D01*
Y493446D01*
X834311Y496069D01*
X832343Y494102D01*
X834311Y492134D01*
D13*
X833873Y454141D02*
D03*
D28*
X814089Y450598D02*
D03*
X819010D02*
D03*
X802672Y450204D02*
D03*
X807593D02*
D03*
X833183Y443511D02*
D03*
X828262D02*
D03*
D29*
X801983Y436109D02*
D03*
Y432802D02*
D03*
X822849Y430834D02*
D03*
Y434141D02*
D03*
Y441228D02*
D03*
Y437921D02*
D03*
X801983Y436346D02*
D03*
Y439653D02*
D03*
D30*
X796943Y427763D02*
D03*
X793636D02*
D03*
X796943Y424613D02*
D03*
X793636D02*
D03*
X804463Y444692D02*
D03*
X807770D02*
D03*
X797337Y448629D02*
D03*
X794030D02*
D03*
X823321Y444299D02*
D03*
X820014D02*
D03*
D31*
X826786Y431799D02*
D03*
Y426877D02*
D03*
X825900Y453491D02*
D03*
Y448570D02*
D03*
X831510Y431799D02*
D03*
Y426877D02*
D03*
D32*
X798046Y445381D02*
D03*
X793321D02*
D03*
X798046Y442428D02*
D03*
X793321D02*
D03*
D33*
X819699Y432094D02*
D03*
Y439968D02*
D03*
X807101Y432094D02*
D03*
Y439968D02*
D03*
D34*
X809463Y433078D02*
D03*
Y435046D02*
D03*
Y437015D02*
D03*
Y438983D02*
D03*
X811432Y433078D02*
D03*
Y435046D02*
D03*
Y437015D02*
D03*
Y438983D02*
D03*
X813400Y433078D02*
D03*
Y435046D02*
D03*
Y437015D02*
D03*
Y438983D02*
D03*
X815368Y433078D02*
D03*
Y435046D02*
D03*
Y437015D02*
D03*
Y438983D02*
D03*
X817337D02*
D03*
Y437015D02*
D03*
Y435046D02*
D03*
Y433078D02*
D03*
M02*
