G04*
G04 #@! TF.GenerationSoftware,Altium Limited,Altium Designer,20.2.6 (244)*
G04*
G04 Layer_Color=16776960*
%FSLAX25Y25*%
%MOIN*%
G70*
G04*
G04 #@! TF.SameCoordinates,A1248B6C-439F-447A-ADC8-1C90144166A7*
G04*
G04*
G04 #@! TF.FilePolarity,Positive*
G04*
G01*
G75*
%ADD10C,0.00394*%
%ADD39C,0.00197*%
D10*
X832372Y454141D02*
X835373D01*
X832372D02*
X833873D01*
Y455641D01*
Y452641D02*
Y455641D01*
X816550Y448826D02*
Y452369D01*
X814778Y450598D02*
X818321D01*
X805132Y448432D02*
Y451976D01*
X803361Y450204D02*
X806904D01*
X801983Y433373D02*
Y435539D01*
X800900Y434456D02*
X803065D01*
X794207Y427763D02*
X796373D01*
X795290Y426680D02*
Y428846D01*
X794207Y424613D02*
X796373D01*
X795290Y423531D02*
Y425696D01*
X826786Y427566D02*
Y431110D01*
X825014Y429338D02*
X828557D01*
X821766Y432487D02*
X823932D01*
X822849Y431405D02*
Y433570D01*
X806117Y443610D02*
Y445775D01*
X805034Y444692D02*
X807199D01*
X825900Y449259D02*
Y452802D01*
X824128Y451031D02*
X827672D01*
X821766Y439574D02*
X823932D01*
X822849Y438491D02*
Y440657D01*
X795683Y447546D02*
Y449712D01*
X794601Y448629D02*
X796766D01*
X795683Y441936D02*
Y445873D01*
X793715Y443905D02*
X797652D01*
X828951Y443511D02*
X832495D01*
X830723Y441739D02*
Y445283D01*
X831510Y427566D02*
Y431110D01*
X829739Y429338D02*
X833282D01*
X821668Y443216D02*
Y445381D01*
X820585Y444299D02*
X822750D01*
X801983Y436917D02*
Y439082D01*
X800900Y437999D02*
X803065D01*
X811432Y436031D02*
X815369D01*
X813400Y434062D02*
Y437999D01*
X769699Y496069D02*
Y492134D01*
X771667D01*
X772323Y492790D01*
Y493446D01*
X771667Y494102D01*
X769699D01*
X771667D01*
X772323Y494758D01*
Y495413D01*
X771667Y496069D01*
X769699D01*
X775603D02*
X774291D01*
X773635Y495413D01*
Y492790D01*
X774291Y492134D01*
X775603D01*
X776259Y492790D01*
Y495413D01*
X775603Y496069D01*
X777571D02*
X780195D01*
X778883D01*
Y492134D01*
X781506Y496069D02*
X784130D01*
X782818D01*
Y492134D01*
X787410Y496069D02*
X786098D01*
X785442Y495413D01*
Y492790D01*
X786098Y492134D01*
X787410D01*
X788066Y492790D01*
Y495413D01*
X787410Y496069D01*
X789378Y492134D02*
Y496069D01*
X790690Y494758D01*
X792002Y496069D01*
Y492134D01*
X799873Y495413D02*
X799217Y496069D01*
X797905D01*
X797249Y495413D01*
Y492790D01*
X797905Y492134D01*
X799217D01*
X799873Y492790D01*
X803153Y496069D02*
X801841D01*
X801185Y495413D01*
Y492790D01*
X801841Y492134D01*
X803153D01*
X803809Y492790D01*
Y495413D01*
X803153Y496069D01*
X805121D02*
Y492790D01*
X805777Y492134D01*
X807089D01*
X807745Y492790D01*
Y496069D01*
X809057Y492134D02*
Y496069D01*
X811024D01*
X811681Y495413D01*
Y494102D01*
X811024Y493446D01*
X809057D01*
X810369D02*
X811681Y492134D01*
X812992Y496069D02*
X815616D01*
X814304D01*
Y492134D01*
X816928Y496069D02*
Y495413D01*
X818240Y494102D01*
X819552Y495413D01*
Y496069D01*
X818240Y494102D02*
Y492134D01*
X820864D02*
Y494758D01*
X822176Y496069D01*
X823488Y494758D01*
Y492134D01*
Y494102D01*
X820864D01*
X824800Y492134D02*
Y496069D01*
X826768D01*
X827423Y495413D01*
Y494102D01*
X826768Y493446D01*
X824800D01*
X826112D02*
X827423Y492134D01*
X828735Y496069D02*
Y492134D01*
X830703D01*
X831359Y492790D01*
Y495413D01*
X830703Y496069D01*
X828735D01*
D39*
X829873Y454141D02*
Y458141D01*
X837873D01*
Y450141D02*
Y458141D01*
X829873Y450141D02*
X837873D01*
X829873D02*
Y454141D01*
X812219Y448432D02*
X820880D01*
X812219Y452763D02*
X820880D01*
X812219Y448432D02*
Y452763D01*
X820880Y448432D02*
Y452763D01*
X800802Y448039D02*
X809463D01*
X800802Y452369D02*
X809463D01*
X800802Y448039D02*
Y452369D01*
X809463Y448039D02*
Y452369D01*
X800408Y437606D02*
X803557D01*
X800408Y431306D02*
X803557D01*
X800408D02*
Y437606D01*
X803557Y431306D02*
Y437606D01*
X798439Y426188D02*
Y429338D01*
X792140Y426188D02*
Y429338D01*
X798439D01*
X792140Y426188D02*
X798439D01*
Y423039D02*
Y426188D01*
X792140Y423039D02*
Y426188D01*
X798439D01*
X792140Y423039D02*
X798439D01*
X824621Y433669D02*
X828951D01*
X824621Y425007D02*
X828951D01*
X824621D02*
Y433669D01*
X828951Y425007D02*
Y433669D01*
X824424Y429338D02*
Y435637D01*
X821274Y429338D02*
Y435637D01*
Y429338D02*
X824424D01*
X821274Y435637D02*
X824424D01*
X802967Y443117D02*
X809266D01*
X802967Y446267D02*
X809266D01*
X802967Y443117D02*
Y446267D01*
X809266Y443117D02*
Y446267D01*
X823735Y455362D02*
X828065D01*
X823735Y446700D02*
X828065D01*
X823735D02*
Y455362D01*
X828065Y446700D02*
Y455362D01*
X821274Y436424D02*
Y442724D01*
X824424Y436424D02*
Y442724D01*
X821274D02*
X824424D01*
X821274Y436424D02*
X824424D01*
X792534Y450204D02*
X798833D01*
X792534Y447054D02*
X798833D01*
Y450204D01*
X792534Y447054D02*
Y450204D01*
X792140Y446858D02*
X799227D01*
X792140Y440952D02*
X799227D01*
X792140D02*
Y446858D01*
X799227Y440952D02*
Y446858D01*
X835054Y441346D02*
Y445676D01*
X826392Y441346D02*
Y445676D01*
X835054D01*
X826392Y441346D02*
X835054D01*
X829345Y433669D02*
X833676D01*
X829345Y425007D02*
X833676D01*
X829345D02*
Y433669D01*
X833676Y425007D02*
Y433669D01*
X818518Y445873D02*
X824817D01*
X818518Y442724D02*
X824817D01*
Y445873D01*
X818518Y442724D02*
Y445873D01*
X800408Y434850D02*
X803557D01*
X800408Y441149D02*
X803557D01*
Y434850D02*
Y441149D01*
X800408Y434850D02*
Y441149D01*
X805821Y429436D02*
Y442625D01*
X820979Y429436D02*
Y442625D01*
X805821D02*
X820979D01*
X805821Y429436D02*
X820979D01*
M02*
