G04*
G04 #@! TF.GenerationSoftware,Altium Limited,Altium Designer,20.2.6 (244)*
G04*
G04 Layer_Color=16711935*
%FSLAX25Y25*%
%MOIN*%
G70*
G04*
G04 #@! TF.SameCoordinates,A1248B6C-439F-447A-ADC8-1C90144166A7*
G04*
G04*
G04 #@! TF.FilePolarity,Positive*
G04*
G01*
G75*
%ADD10C,0.00394*%
D10*
X768715Y496069D02*
X771339D01*
X770027D01*
Y492134D01*
X774619Y496069D02*
X773307D01*
X772651Y495413D01*
Y492790D01*
X773307Y492134D01*
X774619D01*
X775275Y492790D01*
Y495413D01*
X774619Y496069D01*
X776586Y492134D02*
Y496069D01*
X778554D01*
X779210Y495413D01*
Y494102D01*
X778554Y493446D01*
X776586D01*
X784458Y495413D02*
X785114Y496069D01*
X786426D01*
X787082Y495413D01*
Y494758D01*
X786426Y494102D01*
X785770D01*
X786426D01*
X787082Y493446D01*
Y492790D01*
X786426Y492134D01*
X785114D01*
X784458Y492790D01*
X788394Y496069D02*
Y492134D01*
X790362D01*
X791017Y492790D01*
Y495413D01*
X790362Y496069D01*
X788394D01*
X796265D02*
Y492134D01*
X798233D01*
X798889Y492790D01*
Y493446D01*
X798233Y494102D01*
X796265D01*
X798233D01*
X798889Y494758D01*
Y495413D01*
X798233Y496069D01*
X796265D01*
X802169D02*
X800857D01*
X800201Y495413D01*
Y492790D01*
X800857Y492134D01*
X802169D01*
X802825Y492790D01*
Y495413D01*
X802169Y496069D01*
X804137D02*
Y492134D01*
X806104D01*
X806761Y492790D01*
Y495413D01*
X806104Y496069D01*
X804137D01*
X808072D02*
Y495413D01*
X809384Y494102D01*
X810696Y495413D01*
Y496069D01*
X809384Y494102D02*
Y492134D01*
M02*
