G04*
G04 #@! TF.GenerationSoftware,Altium Limited,Altium Designer,20.2.6 (244)*
G04*
G04 Layer_Color=32896*
%FSLAX25Y25*%
%MOIN*%
G70*
G04*
G04 #@! TF.SameCoordinates,A1248B6C-439F-447A-ADC8-1C90144166A7*
G04*
G04*
G04 #@! TF.FilePolarity,Positive*
G04*
G01*
G75*
%ADD10C,0.00394*%
%ADD11C,0.00591*%
%ADD24C,0.00787*%
D10*
X792239Y447054D02*
G03*
X792239Y447054I-197J0D01*
G01*
X768715Y496069D02*
Y492134D01*
X770683D01*
X771339Y492790D01*
Y493446D01*
X770683Y494102D01*
X768715D01*
X770683D01*
X771339Y494758D01*
Y495413D01*
X770683Y496069D01*
X768715D01*
X774619D02*
X773307D01*
X772651Y495413D01*
Y492790D01*
X773307Y492134D01*
X774619D01*
X775275Y492790D01*
Y495413D01*
X774619Y496069D01*
X776586D02*
X779210D01*
X777898D01*
Y492134D01*
X780522Y496069D02*
X783146D01*
X781834D01*
Y492134D01*
X786426Y496069D02*
X785114D01*
X784458Y495413D01*
Y492790D01*
X785114Y492134D01*
X786426D01*
X787082Y492790D01*
Y495413D01*
X786426Y496069D01*
X788394Y492134D02*
Y496069D01*
X789706Y494758D01*
X791017Y496069D01*
Y492134D01*
X798233Y496069D02*
X796921D01*
X796265Y495413D01*
Y492790D01*
X796921Y492134D01*
X798233D01*
X798889Y492790D01*
Y495413D01*
X798233Y496069D01*
X800201D02*
Y493446D01*
X801513Y492134D01*
X802825Y493446D01*
Y496069D01*
X806761D02*
X804137D01*
Y492134D01*
X806761D01*
X804137Y494102D02*
X805449D01*
X808072Y492134D02*
Y496069D01*
X810040D01*
X810696Y495413D01*
Y494102D01*
X810040Y493446D01*
X808072D01*
X809384D02*
X810696Y492134D01*
X812008Y496069D02*
Y492134D01*
X814632D01*
X815944D02*
Y494758D01*
X817256Y496069D01*
X818568Y494758D01*
Y492134D01*
Y494102D01*
X815944D01*
X819880Y496069D02*
Y495413D01*
X821192Y494102D01*
X822503Y495413D01*
Y496069D01*
X821192Y494102D02*
Y492134D01*
D11*
X816550Y449417D02*
Y451779D01*
X805132Y449023D02*
Y451385D01*
X801294Y434456D02*
X802672D01*
X795290Y427074D02*
Y428452D01*
Y423924D02*
Y425302D01*
X825605Y429338D02*
X827967D01*
X822160Y432487D02*
X823538D01*
X806117Y444003D02*
Y445381D01*
X824719Y451031D02*
X827081D01*
X822160Y439574D02*
X823538D01*
X795683Y447940D02*
Y449318D01*
X830723Y442330D02*
Y444692D01*
X830329Y429338D02*
X832691D01*
X821668Y443610D02*
Y444987D01*
X801294Y437999D02*
X802672D01*
X819306Y435243D02*
Y436818D01*
X807495Y435243D02*
Y436818D01*
X809069Y441149D02*
X817731D01*
X809069Y430913D02*
X817731D01*
X824234Y428157D02*
Y426268D01*
X822974D01*
X822345D02*
X821715D01*
X822030D01*
Y427528D01*
X822345D01*
X819511D02*
X820456D01*
X820770Y427213D01*
Y426583D01*
X820456Y426268D01*
X819511D01*
X817937D02*
X818567D01*
X818881Y426583D01*
Y427213D01*
X818567Y427528D01*
X817937D01*
X817622Y427213D01*
Y426898D01*
X818881D01*
X816992Y426268D02*
Y427528D01*
X816048D01*
X815733Y427213D01*
Y426268D01*
X815103D02*
X814159D01*
X813844Y426583D01*
X814159Y426898D01*
X814788D01*
X815103Y427213D01*
X814788Y427528D01*
X813844D01*
X812269Y426268D02*
X812899D01*
X813214Y426583D01*
Y427213D01*
X812899Y427528D01*
X812269D01*
X811954Y427213D01*
Y426898D01*
X813214D01*
X810065Y428157D02*
Y426268D01*
X811010D01*
X811325Y426583D01*
Y427213D01*
X811010Y427528D01*
X810065D01*
X807547D02*
Y426583D01*
X807232Y426268D01*
X806287D01*
Y427528D01*
X805657Y426268D02*
Y427528D01*
X804713D01*
X804398Y427213D01*
Y426268D01*
X802509Y428157D02*
Y426268D01*
X803453D01*
X803768Y426583D01*
Y427213D01*
X803453Y427528D01*
X802509D01*
X800935Y426268D02*
X801564D01*
X801879Y426583D01*
Y427213D01*
X801564Y427528D01*
X800935D01*
X800620Y427213D01*
Y426898D01*
X801879D01*
X799990Y427528D02*
Y426268D01*
Y426898D01*
X799675Y427213D01*
X799360Y427528D01*
X799045D01*
X822345Y424158D02*
X822660Y424473D01*
X823289D01*
X823604Y424158D01*
Y422899D01*
X823289Y422584D01*
X822660D01*
X822345Y422899D01*
X820456Y424473D02*
X821715D01*
Y422584D01*
X820456D01*
X821715Y423528D02*
X821085D01*
X819826Y422584D02*
Y424473D01*
X818881D01*
X818567Y424158D01*
Y423528D01*
X818881Y423213D01*
X819826D01*
X819196D02*
X818567Y422584D01*
X817937D02*
Y424473D01*
X816677Y422584D01*
Y424473D01*
X816048Y423528D02*
X814788D01*
X813214Y424473D02*
X813844D01*
X814159Y424158D01*
Y422899D01*
X813844Y422584D01*
X813214D01*
X812899Y422899D01*
Y424158D01*
X813214Y424473D01*
X812269D02*
Y422584D01*
Y423528D01*
X811010D01*
Y424473D01*
Y422584D01*
X810380Y424473D02*
Y422584D01*
X809121D01*
X808491Y423528D02*
X807232D01*
X805342Y424158D02*
X805657Y424473D01*
X806287D01*
X806602Y424158D01*
Y423843D01*
X806287Y423528D01*
X805657D01*
X805342Y423213D01*
Y422899D01*
X805657Y422584D01*
X806287D01*
X806602Y422899D01*
X802824Y423843D02*
X802194Y422584D01*
X801564Y423843D01*
X799675Y422584D02*
X800934D01*
X799675Y423843D01*
Y424158D01*
X799990Y424473D01*
X800620D01*
X800934Y424158D01*
X794502Y454272D02*
X794962Y454731D01*
X795880D01*
X796339Y454272D01*
Y452435D01*
X795880Y451976D01*
X794962D01*
X794502Y452435D01*
X793584Y451976D02*
X792666D01*
X793125D01*
Y454731D01*
X793584Y454272D01*
D24*
X817941Y429732D02*
G03*
X817941Y429732I-112J0D01*
G01*
M02*
