G04*
G04 #@! TF.GenerationSoftware,Altium Limited,Altium Designer,20.2.6 (244)*
G04*
G04 Layer_Physical_Order=1*
G04 Layer_Color=5855741*
%FSLAX25Y25*%
%MOIN*%
G70*
G04*
G04 #@! TF.SameCoordinates,A1248B6C-439F-447A-ADC8-1C90144166A7*
G04*
G04*
G04 #@! TF.FilePolarity,Positive*
G04*
G01*
G75*
%ADD10C,0.00394*%
%ADD11C,0.00591*%
G04:AMPARAMS|DCode=12|XSize=15.75mil|YSize=59.06mil|CornerRadius=3.94mil|HoleSize=0mil|Usage=FLASHONLY|Rotation=0.000|XOffset=0mil|YOffset=0mil|HoleType=Round|Shape=RoundedRectangle|*
%AMROUNDEDRECTD12*
21,1,0.01575,0.05118,0,0,0.0*
21,1,0.00787,0.05906,0,0,0.0*
1,1,0.00787,0.00394,-0.02559*
1,1,0.00787,-0.00394,-0.02559*
1,1,0.00787,-0.00394,0.02559*
1,1,0.00787,0.00394,0.02559*
%
%ADD12ROUNDEDRECTD12*%
%ADD15C,0.03937*%
%ADD16C,0.01575*%
G36*
X835400Y455531D02*
Y421531D01*
X791400Y421531D01*
Y449726D01*
X791733Y449949D01*
X791797Y449922D01*
X792928Y449773D01*
X794058Y449922D01*
X795112Y450358D01*
X795564Y450705D01*
X795938Y450564D01*
X795960Y450454D01*
X796265Y449998D01*
X796721Y449693D01*
X797258Y449586D01*
X797796Y449693D01*
X798252Y449998D01*
X798627D01*
X799083Y449693D01*
X799620Y449586D01*
X800158Y449693D01*
X800614Y449998D01*
X800918Y450454D01*
X801025Y450991D01*
X800918Y451529D01*
X800614Y451985D01*
X800158Y452289D01*
X799620Y452396D01*
X799083Y452289D01*
X798627Y451985D01*
X798252D01*
X797796Y452289D01*
X797320Y452384D01*
X797021Y452706D01*
X797147Y453011D01*
X797296Y454141D01*
X797165Y455131D01*
X797424Y455531D01*
X835400Y455531D01*
D02*
G37*
%LPC*%
G36*
X824424Y452418D02*
X811432D01*
X810980Y452231D01*
X810792Y451779D01*
Y450943D01*
X810644Y450821D01*
X810106Y450715D01*
X809651Y450410D01*
X809511Y450200D01*
X808950D01*
X808950Y450200D01*
X808604Y450132D01*
X808311Y449936D01*
X806758Y448382D01*
X806562Y448089D01*
X806493Y447743D01*
Y444494D01*
X806372Y444470D01*
X806047Y444253D01*
X805753D01*
X805428Y444470D01*
X805100Y444536D01*
X805053Y444770D01*
X804857Y445063D01*
X804857Y445063D01*
X803725Y446196D01*
X803432Y446391D01*
X803086Y446460D01*
X802854D01*
X802582Y446867D01*
X802127Y447171D01*
X801589Y447278D01*
X801399Y447648D01*
X801312Y448084D01*
X801008Y448540D01*
X800552Y448844D01*
X800014Y448951D01*
X799477Y448844D01*
X799021Y448540D01*
X798716Y448084D01*
X798609Y447546D01*
X798716Y447009D01*
X799021Y446553D01*
X799111Y446493D01*
Y444987D01*
X799180Y444642D01*
X799376Y444349D01*
X800753Y442972D01*
Y438425D01*
X800829Y438041D01*
X801047Y437716D01*
X801372Y437498D01*
X801756Y437422D01*
X802544D01*
X802928Y437498D01*
X803253Y437716D01*
X803547D01*
X803872Y437498D01*
X804256Y437422D01*
X805044D01*
X805428Y437498D01*
X805753Y437716D01*
X806047D01*
X806372Y437498D01*
X806756Y437422D01*
X807544D01*
X807928Y437498D01*
X808253Y437716D01*
X808547D01*
X808872Y437498D01*
X809256Y437422D01*
X810044D01*
X810428Y437498D01*
X810753Y437716D01*
X811047D01*
X811372Y437498D01*
X811756Y437422D01*
X812544D01*
X812928Y437498D01*
X813253Y437716D01*
X813547D01*
X813872Y437498D01*
X814256Y437422D01*
X815044D01*
X815428Y437498D01*
X815753Y437716D01*
X816047D01*
X816372Y437498D01*
X816756Y437422D01*
X817544D01*
X817928Y437498D01*
X818253Y437716D01*
X818465D01*
X818796Y437419D01*
Y437244D01*
X818865Y436898D01*
X819061Y436605D01*
X820774Y434892D01*
X821067Y434696D01*
X821412Y434628D01*
X824346D01*
X824407Y434537D01*
X824862Y434233D01*
X825400Y434126D01*
X825938Y434233D01*
X826394Y434537D01*
X826698Y434993D01*
X826805Y435531D01*
X826698Y436068D01*
X826394Y436524D01*
X825938Y436829D01*
X825400Y436936D01*
X824862Y436829D01*
X824407Y436524D01*
X824346Y436434D01*
X821786D01*
X821250Y436970D01*
X821426Y437360D01*
X823243D01*
X823695Y437547D01*
X823882Y437999D01*
Y444427D01*
X824876Y445421D01*
X825063Y445873D01*
Y451779D01*
X824876Y452231D01*
X824424Y452418D01*
D02*
G37*
G36*
X828853Y440420D02*
X827939Y440238D01*
X827164Y439720D01*
X826646Y438945D01*
X826464Y438031D01*
X826646Y437117D01*
X827164Y436343D01*
X827939Y435825D01*
X828853Y435643D01*
X829767Y435825D01*
X830542Y436343D01*
X831059Y437117D01*
X831241Y438031D01*
X831059Y438945D01*
X830542Y439720D01*
X829767Y440238D01*
X828853Y440420D01*
D02*
G37*
G36*
X797947D02*
X797033Y440238D01*
X796258Y439720D01*
X795741Y438945D01*
X795559Y438031D01*
X795741Y437117D01*
X796258Y436343D01*
X797033Y435825D01*
X797947Y435643D01*
X798861Y435825D01*
X799636Y436343D01*
X800154Y437117D01*
X800336Y438031D01*
X800154Y438945D01*
X799636Y439720D01*
X798861Y440238D01*
X797947Y440420D01*
D02*
G37*
G36*
X815730Y436179D02*
X800957D01*
X800611Y436110D01*
X800318Y435914D01*
X800010Y435606D01*
X799719Y435664D01*
X799181Y435557D01*
X798726Y435253D01*
X798504Y434922D01*
X798165Y434667D01*
X797820Y434736D01*
X797284D01*
X797071Y435056D01*
X796615Y435360D01*
X796077Y435467D01*
X795540Y435360D01*
X795084Y435056D01*
X794779Y434600D01*
X794672Y434062D01*
X794779Y433525D01*
X795084Y433069D01*
X795540Y432764D01*
X796036Y432665D01*
X796129Y432494D01*
X796200Y432274D01*
X796032Y432064D01*
X795653D01*
X795496Y432300D01*
X795040Y432604D01*
X794502Y432711D01*
X793965Y432604D01*
X793509Y432300D01*
X793204Y431844D01*
X793097Y431306D01*
X793204Y430769D01*
X793509Y430313D01*
X793965Y430008D01*
X794502Y429901D01*
X795040Y430008D01*
X795414Y430258D01*
X796138D01*
X796247Y430125D01*
X796354Y429588D01*
X796659Y429132D01*
X797114Y428827D01*
X797652Y428720D01*
X798190Y428827D01*
X798257Y428872D01*
X798617Y428632D01*
X798597Y428531D01*
Y427530D01*
X798565Y427464D01*
X798563Y427431D01*
X798563Y427429D01*
X798560Y427419D01*
X798552Y427400D01*
X798538Y427371D01*
X798515Y427334D01*
X798489Y427297D01*
X798387Y427176D01*
X798323Y427110D01*
X798233Y426886D01*
X798141Y426663D01*
X798142Y426660D01*
X798141Y426656D01*
X798148Y426638D01*
X798102Y426568D01*
X797995Y426031D01*
X798102Y425493D01*
X798407Y425037D01*
X798862Y424733D01*
X799400Y424626D01*
X799938Y424733D01*
X800353Y425010D01*
X800539Y424963D01*
X800753Y424855D01*
Y423858D01*
X800829Y423474D01*
X801047Y423149D01*
X801372Y422931D01*
X801756Y422855D01*
X802544D01*
X802928Y422931D01*
X803253Y423149D01*
X803547D01*
X803872Y422931D01*
X804256Y422855D01*
X805044D01*
X805428Y422931D01*
X805753Y423149D01*
X806047D01*
X806372Y422931D01*
X806756Y422855D01*
X807544D01*
X807928Y422931D01*
X808253Y423149D01*
X808547D01*
X808872Y422931D01*
X809256Y422855D01*
X810044D01*
X810428Y422931D01*
X810753Y423149D01*
X811047D01*
X811372Y422931D01*
X811756Y422855D01*
X812544D01*
X812928Y422931D01*
X813253Y423149D01*
X813547D01*
X813872Y422931D01*
X814256Y422855D01*
X815044D01*
X815428Y422931D01*
X815753Y423149D01*
X816047D01*
X816372Y422931D01*
X816756Y422855D01*
X817544D01*
X817928Y422931D01*
X818253Y423149D01*
X818547D01*
X818872Y422931D01*
X819256Y422855D01*
X820044D01*
X820428Y422931D01*
X820753Y423149D01*
X821047D01*
X821372Y422931D01*
X821756Y422855D01*
X822544D01*
X822928Y422931D01*
X823253Y423149D01*
X823547D01*
X823872Y422931D01*
X824256Y422855D01*
X825044D01*
X825428Y422931D01*
X825753Y423149D01*
X825801Y423220D01*
X826248Y422922D01*
X826786Y422815D01*
X827324Y422922D01*
X827779Y423226D01*
X828155D01*
X828610Y422922D01*
X829148Y422815D01*
X829686Y422922D01*
X830142Y423226D01*
X830446Y423682D01*
X830553Y424220D01*
X830446Y424757D01*
X830142Y425213D01*
X829686Y425518D01*
X829148Y425625D01*
X828610Y425518D01*
X828155Y425213D01*
X827779D01*
X827324Y425518D01*
X826786Y425625D01*
X826447Y425557D01*
X826047Y425828D01*
Y428976D01*
X825971Y429360D01*
X825753Y429686D01*
X825428Y429904D01*
X825044Y429980D01*
X824256D01*
X823872Y429904D01*
X823547Y429686D01*
X823253D01*
X822928Y429904D01*
X822544Y429980D01*
X821756D01*
X821372Y429904D01*
X821047Y429686D01*
X820961D01*
X820602Y430023D01*
Y431306D01*
X820534Y431652D01*
X820338Y431945D01*
X820338Y431945D01*
X816369Y435914D01*
X816076Y436110D01*
X815730Y436179D01*
D02*
G37*
%LPD*%
G36*
X824424Y445873D02*
X823243Y444692D01*
Y437999D01*
X821274D01*
Y444299D01*
X820685D01*
X820428Y444470D01*
X820044Y444547D01*
X819306D01*
Y446525D01*
X819333Y446661D01*
X819306Y446796D01*
Y447842D01*
X818640D01*
X818465Y447959D01*
X817928Y448066D01*
X817390Y447959D01*
X817215Y447842D01*
X816550D01*
Y446954D01*
X815863Y446267D01*
X814113D01*
X813938Y446384D01*
X813400Y446491D01*
X812862Y446384D01*
X812687Y446267D01*
X811432D01*
Y448285D01*
X811638Y448423D01*
X811942Y448879D01*
X812049Y449417D01*
X811942Y449954D01*
X811638Y450410D01*
X811432Y450548D01*
Y451779D01*
X824424D01*
Y445873D01*
D02*
G37*
G36*
X799601Y427356D02*
X799614Y427284D01*
X799635Y427211D01*
X799665Y427137D01*
X799703Y427061D01*
X799749Y426985D01*
X799804Y426906D01*
X799868Y426827D01*
X799940Y426746D01*
X800020Y426663D01*
X798780D01*
X798860Y426746D01*
X798996Y426906D01*
X799051Y426985D01*
X799097Y427061D01*
X799135Y427137D01*
X799165Y427211D01*
X799186Y427284D01*
X799199Y427356D01*
X799203Y427426D01*
X799597D01*
X799601Y427356D01*
D02*
G37*
D10*
X797782Y429996D02*
X803157D01*
X804650Y426417D02*
Y428502D01*
X803157Y429996D02*
X804650Y428502D01*
X797652Y430125D02*
X797782Y429996D01*
X799400Y428531D02*
X799813Y428944D01*
X801575D01*
X802150Y428369D01*
X799400Y426031D02*
Y428531D01*
X802150Y426417D02*
Y428369D01*
X768715Y496069D02*
Y492134D01*
X771339D01*
X772651D02*
X773963D01*
X773307D01*
Y496069D01*
X772651Y495413D01*
X779866Y494102D02*
X782490D01*
X787738Y492134D02*
Y496069D01*
X789706D01*
X790362Y495413D01*
Y494102D01*
X789706Y493446D01*
X787738D01*
X791674Y492134D02*
Y496069D01*
X793641D01*
X794297Y495413D01*
Y494102D01*
X793641Y493446D01*
X791674D01*
X792985D02*
X794297Y492134D01*
X795609Y496069D02*
X796921D01*
X796265D01*
Y492134D01*
X795609D01*
X796921D01*
X798889D02*
Y496069D01*
X800201Y494758D01*
X801513Y496069D01*
Y492134D01*
X802825D02*
Y494758D01*
X804137Y496069D01*
X805449Y494758D01*
Y492134D01*
Y494102D01*
X802825D01*
X806761Y492134D02*
Y496069D01*
X808728D01*
X809384Y495413D01*
Y494102D01*
X808728Y493446D01*
X806761D01*
X808072D02*
X809384Y492134D01*
X810696Y496069D02*
Y495413D01*
X812008Y494102D01*
X813320Y495413D01*
Y496069D01*
X812008Y494102D02*
Y492134D01*
X821192Y495413D02*
X820536Y496069D01*
X819224D01*
X818568Y495413D01*
Y494758D01*
X819224Y494102D01*
X820536D01*
X821192Y493446D01*
Y492790D01*
X820536Y492134D01*
X819224D01*
X818568Y492790D01*
X822503Y496069D02*
X823815D01*
X823159D01*
Y492134D01*
X822503D01*
X823815D01*
X825783Y496069D02*
Y492134D01*
X827751D01*
X828407Y492790D01*
Y495413D01*
X827751Y496069D01*
X825783D01*
X832343D02*
X829719D01*
Y492134D01*
X832343D01*
X829719Y494102D02*
X831031D01*
D11*
X799041Y430963D02*
X803656D01*
X797027Y431728D02*
X798277D01*
X799041Y430963D01*
X803656D02*
X804170Y430449D01*
X805868D01*
X806719Y429598D01*
X794647Y431161D02*
X796461D01*
X797027Y431728D01*
X799719Y434259D02*
X799940D01*
X804219Y432126D02*
X806065D01*
X803689Y432656D02*
X804219Y432126D01*
X806065D02*
X806820Y432881D01*
X797820Y433833D02*
X798996Y432656D01*
X803689D01*
X797142Y433833D02*
X797820D01*
X796077Y434062D02*
X796303Y433836D01*
X797138D01*
X797142Y433833D01*
X806719Y426848D02*
X807150Y426417D01*
X806719Y426848D02*
Y429598D01*
X806820Y432881D02*
X813400D01*
X800957Y435276D02*
X815730D01*
X799940Y434259D02*
X800957Y435276D01*
X815730D02*
X819699Y431306D01*
X794502D02*
X794647Y431161D01*
X804219Y439415D02*
X804650Y438983D01*
X804219Y439415D02*
Y444425D01*
X803086Y445557D02*
X804219Y444425D01*
X801589Y445873D02*
X801909D01*
X802225Y445557D02*
X803086D01*
X801909Y445873D02*
X802225Y445557D01*
X800014Y444987D02*
X801421Y443581D01*
X800014Y444987D02*
Y447546D01*
X801421Y443581D02*
X801665D01*
X802150Y438983D02*
Y443096D01*
X801665Y443581D02*
X802150Y443096D01*
X814650Y438983D02*
X815081Y439415D01*
Y444208D01*
X817308Y446435D01*
X817702D01*
X817928Y446661D01*
X807150Y440984D02*
X807396Y441230D01*
X810525Y449297D02*
X810644Y449417D01*
X807396Y447743D02*
X808950Y449297D01*
X807396Y441230D02*
Y447743D01*
X808950Y449297D02*
X810525D01*
X809463Y447054D02*
X809650Y446867D01*
Y438983D02*
Y446867D01*
X819699Y437244D02*
X821412Y435531D01*
X819699Y437244D02*
Y440935D01*
X819650Y440984D02*
X819699Y440935D01*
X817150Y424417D02*
X817243Y424510D01*
Y431213D02*
X817337Y431306D01*
X817243Y424510D02*
Y431213D01*
X819699Y426466D02*
Y431306D01*
X819650Y426417D02*
X819699Y426466D01*
X813400Y432881D02*
X814581Y431700D01*
X812502Y441336D02*
Y444188D01*
X812150Y440983D02*
X812502Y441336D01*
Y444188D02*
X813400Y445086D01*
X821412Y435531D02*
X825400D01*
X812416Y426682D02*
Y431306D01*
X809463Y426604D02*
X809650Y426417D01*
X812150D02*
X812416Y426682D01*
X814581Y426485D02*
Y431700D01*
X809463Y426604D02*
Y431306D01*
X814581Y426485D02*
X814650Y426417D01*
D12*
X824650Y440984D02*
D03*
Y426417D02*
D03*
X822150D02*
D03*
X819650D02*
D03*
X817150D02*
D03*
X814650D02*
D03*
X812150D02*
D03*
X809650D02*
D03*
X807150D02*
D03*
X804650D02*
D03*
X802150D02*
D03*
X822150Y440984D02*
D03*
X819650D02*
D03*
X817150D02*
D03*
X814650D02*
D03*
X812150D02*
D03*
X809650D02*
D03*
X807150D02*
D03*
X804650D02*
D03*
X802150D02*
D03*
D15*
X792928Y454141D02*
D03*
D16*
X799719Y434259D02*
D03*
X805034Y433701D02*
D03*
X819306Y453747D02*
D03*
X805132D02*
D03*
X793715Y439968D02*
D03*
Y436818D02*
D03*
X832691Y424220D02*
D03*
X810644Y449417D02*
D03*
X809463Y447054D02*
D03*
X825400Y435531D02*
D03*
X797652Y430125D02*
D03*
X799400Y426031D02*
D03*
X814975Y447054D02*
D03*
X813400Y445086D02*
D03*
X794502Y431306D02*
D03*
X812416D02*
D03*
X800014Y447546D02*
D03*
X817928Y446661D02*
D03*
X801589Y445873D02*
D03*
X809463Y431306D02*
D03*
X817337D02*
D03*
X796077Y434062D02*
D03*
X812613Y447448D02*
D03*
X799620Y450991D02*
D03*
X797258D02*
D03*
X829542Y447054D02*
D03*
X832298D02*
D03*
X829148Y449810D02*
D03*
Y424220D02*
D03*
X822400Y447531D02*
D03*
X826786Y424220D02*
D03*
X822400Y450204D02*
D03*
M02*
