G04*
G04 #@! TF.GenerationSoftware,Altium Limited,Altium Designer,20.2.6 (244)*
G04*
G04 Layer_Color=8388736*
%FSLAX25Y25*%
%MOIN*%
G70*
G04*
G04 #@! TF.SameCoordinates,A1248B6C-439F-447A-ADC8-1C90144166A7*
G04*
G04*
G04 #@! TF.FilePolarity,Positive*
G04*
G01*
G75*
%ADD10C,0.00394*%
D10*
X768715Y496069D02*
Y492134D01*
X770683D01*
X771339Y492790D01*
Y493446D01*
X770683Y494102D01*
X768715D01*
X770683D01*
X771339Y494758D01*
Y495413D01*
X770683Y496069D01*
X768715D01*
X774619D02*
X773307D01*
X772651Y495413D01*
Y492790D01*
X773307Y492134D01*
X774619D01*
X775275Y492790D01*
Y495413D01*
X774619Y496069D01*
X776586D02*
X779210D01*
X777898D01*
Y492134D01*
X780522Y496069D02*
X783146D01*
X781834D01*
Y492134D01*
X786426Y496069D02*
X785114D01*
X784458Y495413D01*
Y492790D01*
X785114Y492134D01*
X786426D01*
X787082Y492790D01*
Y495413D01*
X786426Y496069D01*
X788394Y492134D02*
Y496069D01*
X789706Y494758D01*
X791017Y496069D01*
Y492134D01*
X796265Y495413D02*
X796921Y496069D01*
X798233D01*
X798889Y495413D01*
Y494758D01*
X798233Y494102D01*
X797577D01*
X798233D01*
X798889Y493446D01*
Y492790D01*
X798233Y492134D01*
X796921D01*
X796265Y492790D01*
X800201Y496069D02*
Y492134D01*
X802169D01*
X802825Y492790D01*
Y495413D01*
X802169Y496069D01*
X800201D01*
X808072D02*
Y492134D01*
X810040D01*
X810696Y492790D01*
Y493446D01*
X810040Y494102D01*
X808072D01*
X810040D01*
X810696Y494758D01*
Y495413D01*
X810040Y496069D01*
X808072D01*
X813976D02*
X812664D01*
X812008Y495413D01*
Y492790D01*
X812664Y492134D01*
X813976D01*
X814632Y492790D01*
Y495413D01*
X813976Y496069D01*
X815944D02*
Y492134D01*
X817912D01*
X818568Y492790D01*
Y495413D01*
X817912Y496069D01*
X815944D01*
X819880D02*
Y495413D01*
X821192Y494102D01*
X822503Y495413D01*
Y496069D01*
X821192Y494102D02*
Y492134D01*
M02*
