G04*
G04 #@! TF.GenerationSoftware,Altium Limited,Altium Designer,20.2.6 (244)*
G04*
G04 Layer_Physical_Order=4*
G04 Layer_Color=16737843*
%FSLAX25Y25*%
%MOIN*%
G70*
G04*
G04 #@! TF.SameCoordinates,A1248B6C-439F-447A-ADC8-1C90144166A7*
G04*
G04*
G04 #@! TF.FilePolarity,Positive*
G04*
G01*
G75*
%ADD10C,0.00394*%
%ADD11C,0.00591*%
%ADD15C,0.03937*%
%ADD16C,0.01575*%
G04:AMPARAMS|DCode=17|XSize=33.47mil|YSize=29.53mil|CornerRadius=5.91mil|HoleSize=0mil|Usage=FLASHONLY|Rotation=90.000|XOffset=0mil|YOffset=0mil|HoleType=Round|Shape=RoundedRectangle|*
%AMROUNDEDRECTD17*
21,1,0.03347,0.01772,0,0,90.0*
21,1,0.02165,0.02953,0,0,90.0*
1,1,0.01181,0.00886,0.01083*
1,1,0.01181,0.00886,-0.01083*
1,1,0.01181,-0.00886,-0.01083*
1,1,0.01181,-0.00886,0.01083*
%
%ADD17ROUNDEDRECTD17*%
G04:AMPARAMS|DCode=18|XSize=20.47mil|YSize=20.47mil|CornerRadius=4.1mil|HoleSize=0mil|Usage=FLASHONLY|Rotation=180.000|XOffset=0mil|YOffset=0mil|HoleType=Round|Shape=RoundedRectangle|*
%AMROUNDEDRECTD18*
21,1,0.02047,0.01228,0,0,180.0*
21,1,0.01228,0.02047,0,0,180.0*
1,1,0.00819,-0.00614,0.00614*
1,1,0.00819,0.00614,0.00614*
1,1,0.00819,0.00614,-0.00614*
1,1,0.00819,-0.00614,-0.00614*
%
%ADD18ROUNDEDRECTD18*%
G04:AMPARAMS|DCode=19|XSize=20.47mil|YSize=20.47mil|CornerRadius=4.1mil|HoleSize=0mil|Usage=FLASHONLY|Rotation=90.000|XOffset=0mil|YOffset=0mil|HoleType=Round|Shape=RoundedRectangle|*
%AMROUNDEDRECTD19*
21,1,0.02047,0.01228,0,0,90.0*
21,1,0.01228,0.02047,0,0,90.0*
1,1,0.00819,0.00614,0.00614*
1,1,0.00819,0.00614,-0.00614*
1,1,0.00819,-0.00614,-0.00614*
1,1,0.00819,-0.00614,0.00614*
%
%ADD19ROUNDEDRECTD19*%
G04:AMPARAMS|DCode=20|XSize=33.47mil|YSize=29.53mil|CornerRadius=5.91mil|HoleSize=0mil|Usage=FLASHONLY|Rotation=180.000|XOffset=0mil|YOffset=0mil|HoleType=Round|Shape=RoundedRectangle|*
%AMROUNDEDRECTD20*
21,1,0.03347,0.01772,0,0,180.0*
21,1,0.02165,0.02953,0,0,180.0*
1,1,0.01181,-0.01083,0.00886*
1,1,0.01181,0.01083,0.00886*
1,1,0.01181,0.01083,-0.00886*
1,1,0.01181,-0.01083,-0.00886*
%
%ADD20ROUNDEDRECTD20*%
G04:AMPARAMS|DCode=21|XSize=19.68mil|YSize=13.78mil|CornerRadius=3.45mil|HoleSize=0mil|Usage=FLASHONLY|Rotation=270.000|XOffset=0mil|YOffset=0mil|HoleType=Round|Shape=RoundedRectangle|*
%AMROUNDEDRECTD21*
21,1,0.01968,0.00689,0,0,270.0*
21,1,0.01280,0.01378,0,0,270.0*
1,1,0.00689,-0.00345,-0.00640*
1,1,0.00689,-0.00345,0.00640*
1,1,0.00689,0.00345,0.00640*
1,1,0.00689,0.00345,-0.00640*
%
%ADD21ROUNDEDRECTD21*%
G04:AMPARAMS|DCode=22|XSize=43.31mil|YSize=15.75mil|CornerRadius=2.36mil|HoleSize=0mil|Usage=FLASHONLY|Rotation=90.000|XOffset=0mil|YOffset=0mil|HoleType=Round|Shape=RoundedRectangle|*
%AMROUNDEDRECTD22*
21,1,0.04331,0.01102,0,0,90.0*
21,1,0.03858,0.01575,0,0,90.0*
1,1,0.00472,0.00551,0.01929*
1,1,0.00472,0.00551,-0.01929*
1,1,0.00472,-0.00551,-0.01929*
1,1,0.00472,-0.00551,0.01929*
%
%ADD22ROUNDEDRECTD22*%
%ADD23C,0.00787*%
%ADD24C,0.00787*%
%ADD25C,0.01575*%
%ADD26C,0.01378*%
%ADD27C,0.01772*%
G36*
X829270Y455531D02*
X829622Y455031D01*
X829504Y454141D01*
X829653Y453011D01*
X830090Y451957D01*
X830784Y451052D01*
X831688Y450358D01*
X832742Y449922D01*
X833873Y449773D01*
X834900Y449908D01*
X835400Y449619D01*
Y421531D01*
X791400Y421531D01*
Y455531D01*
X829270Y455531D01*
D02*
G37*
%LPC*%
G36*
X813294Y452994D02*
X808781D01*
X808244Y452887D01*
X807788Y452583D01*
X807696Y452491D01*
X806707D01*
X806246Y452399D01*
X805856Y452138D01*
X805595Y451748D01*
X805503Y451287D01*
Y450087D01*
X805008Y449866D01*
X804762Y450061D01*
Y451287D01*
X804670Y451748D01*
X804409Y452138D01*
X804018Y452399D01*
X803557Y452491D01*
X801786D01*
X801589Y452452D01*
X801538Y452470D01*
X799878Y452414D01*
X799831Y452392D01*
X799641D01*
X799620Y452396D01*
X797763D01*
X797258Y452497D01*
X796682Y452382D01*
X796194Y452056D01*
X795868Y451567D01*
X795753Y450991D01*
X795810Y450704D01*
X795808Y450431D01*
X795787Y449897D01*
X795767Y449684D01*
X795760Y449642D01*
X795750Y449603D01*
X795760Y449528D01*
X795757Y449514D01*
X795709Y449398D01*
X795726Y449358D01*
X795703Y449243D01*
Y448015D01*
X795781Y447625D01*
X795918Y447420D01*
X795917Y447397D01*
X795926Y447373D01*
X795928Y447361D01*
X795936Y447347D01*
X795948Y447303D01*
X795960Y447239D01*
X796007Y446589D01*
X796009Y446379D01*
X796055Y446270D01*
X796132Y445886D01*
X796415Y445463D01*
X796748Y445129D01*
Y444741D01*
X796820Y444377D01*
X796899Y444258D01*
X796987Y443905D01*
X796899Y443551D01*
X796820Y443433D01*
X796748Y443068D01*
Y441789D01*
X796820Y441424D01*
X797027Y441115D01*
X797336Y440908D01*
X797587Y440858D01*
Y440348D01*
X797033Y440238D01*
X796258Y439720D01*
X795741Y438945D01*
X795559Y438031D01*
X795741Y437117D01*
X796258Y436343D01*
X797033Y435825D01*
X797947Y435643D01*
X798606Y435774D01*
X798801Y435303D01*
X798726Y435253D01*
X798421Y434797D01*
X798410Y434744D01*
X798231Y434634D01*
X797862Y434549D01*
X797679Y434671D01*
X797491Y434708D01*
X797351Y434770D01*
X797310Y434772D01*
X797175Y434909D01*
X797168Y434909D01*
X797071Y435056D01*
X796615Y435360D01*
X796077Y435467D01*
X795540Y435360D01*
X795084Y435056D01*
X794779Y434600D01*
X794672Y434062D01*
X794779Y433525D01*
X795055Y433111D01*
X795006Y432949D01*
X794811Y432650D01*
X794502Y432711D01*
X793965Y432604D01*
X793509Y432300D01*
X793204Y431844D01*
X793097Y431306D01*
X793204Y430769D01*
X793509Y430313D01*
X793965Y430008D01*
X794502Y429901D01*
X795040Y430008D01*
X795496Y430313D01*
X795542Y430383D01*
X796026Y430395D01*
X796247Y430125D01*
X796305Y429835D01*
X796300Y429830D01*
X796311Y429709D01*
X796282Y429634D01*
X796202Y429513D01*
X796172Y429366D01*
X795939Y429319D01*
X795608Y429098D01*
X795387Y428767D01*
X795310Y428377D01*
Y427149D01*
X795387Y426759D01*
X795608Y426428D01*
Y425949D01*
X795387Y425618D01*
X795310Y425228D01*
Y423999D01*
X795387Y423609D01*
X795608Y423278D01*
X795939Y423057D01*
X796329Y422980D01*
X797557D01*
X797948Y423057D01*
X798279Y423278D01*
X798499Y423609D01*
X798577Y423999D01*
Y424386D01*
X799014Y424703D01*
X799400Y424626D01*
X799608Y424667D01*
X800224Y424051D01*
X800484Y423877D01*
X800791Y423816D01*
X812324D01*
X812632Y423877D01*
X812892Y424051D01*
X816370Y427529D01*
X816370Y427529D01*
X816544Y427790D01*
X816605Y428097D01*
Y429583D01*
X817105Y429948D01*
X817337Y429901D01*
X817875Y430008D01*
X818245Y429884D01*
X818418Y429770D01*
X818552Y429568D01*
X818804Y429400D01*
X818854Y429280D01*
X819306Y429092D01*
X820222D01*
X820635Y428679D01*
Y426582D01*
X820822Y426130D01*
X823972Y422980D01*
X824424Y422793D01*
X829148D01*
X829249Y422835D01*
X829686Y422922D01*
X830142Y423226D01*
X830446Y423682D01*
X830553Y424220D01*
X830446Y424757D01*
X830142Y425213D01*
X829787Y425450D01*
Y429364D01*
X830287Y429736D01*
X830428Y429708D01*
X832593D01*
X833054Y429800D01*
X833444Y430061D01*
X833706Y430452D01*
X833797Y430913D01*
Y432684D01*
X833706Y433145D01*
X833444Y433536D01*
X833054Y433797D01*
X832593Y433889D01*
X830428D01*
X829967Y433797D01*
X829674Y433601D01*
X829558Y433553D01*
X829543Y433516D01*
X829507Y433495D01*
X829445Y433416D01*
X829401Y433374D01*
X829341Y433331D01*
X829260Y433287D01*
X829155Y433244D01*
X829148Y433242D01*
X829141Y433244D01*
X829036Y433287D01*
X828955Y433331D01*
X828895Y433374D01*
X828851Y433416D01*
X828789Y433495D01*
X828753Y433516D01*
X828738Y433553D01*
X828622Y433601D01*
X828329Y433797D01*
X827869Y433889D01*
X827765D01*
X827197Y434457D01*
X827020Y434575D01*
X826745Y434932D01*
X826753Y435269D01*
X826805Y435531D01*
X826698Y436068D01*
X826394Y436524D01*
X825938Y436829D01*
X825514Y436913D01*
X825506Y436925D01*
X825494Y436927D01*
X825487Y436936D01*
X825255Y436968D01*
X825024Y437008D01*
X825014Y437002D01*
X825003Y437003D01*
X824928Y436984D01*
X824632Y437183D01*
X824483Y437392D01*
Y438535D01*
X824913Y438935D01*
X826250D01*
X826567Y438548D01*
X826464Y438031D01*
X826646Y437117D01*
X827164Y436343D01*
X827939Y435825D01*
X828853Y435643D01*
X829767Y435825D01*
X830542Y436343D01*
X831059Y437117D01*
X831241Y438031D01*
X831059Y438945D01*
X830542Y439720D01*
X830192Y439954D01*
X830142Y440452D01*
X830387Y440697D01*
X830575Y441149D01*
Y443905D01*
X830387Y444357D01*
X830352Y444392D01*
Y444594D01*
X830261Y445055D01*
X830000Y445445D01*
X829609Y445706D01*
X829148Y445798D01*
X828946D01*
X828213Y446532D01*
Y449417D01*
X828179Y449499D01*
X828095Y449917D01*
X827834Y450308D01*
X827444Y450568D01*
X826983Y450660D01*
X825241D01*
X824065Y451837D01*
X823613Y452024D01*
X821274Y452024D01*
X820822Y451837D01*
X820635Y451385D01*
Y446661D01*
X820734Y446421D01*
X820714Y446328D01*
X820453Y445944D01*
X820437Y445932D01*
X819659D01*
X819651Y445936D01*
X819300Y446354D01*
X819285Y446419D01*
X819333Y446661D01*
X819226Y447198D01*
X818921Y447654D01*
X818465Y447959D01*
X817928Y448066D01*
X817390Y447959D01*
X816934Y447654D01*
X816808Y447465D01*
X816277Y447571D01*
X816273Y447592D01*
X815968Y448048D01*
X815887Y448102D01*
X815826Y448664D01*
X816087Y449054D01*
X816179Y449515D01*
Y451680D01*
X816087Y452141D01*
X815826Y452532D01*
X815436Y452793D01*
X814975Y452885D01*
X813836D01*
X813832Y452887D01*
X813294Y452994D01*
D02*
G37*
%LPD*%
G36*
X801208Y449416D02*
X801213Y449565D01*
X801181Y449698D01*
X801114Y449816D01*
X801009Y449918D01*
X800869Y450004D01*
X800693Y450074D01*
X800480Y450129D01*
X800231Y450169D01*
X799946Y450192D01*
X799625Y450200D01*
X799900Y451775D01*
X801560Y451832D01*
X801208Y449416D01*
D02*
G37*
G36*
X798224Y450653D02*
X798289Y449508D01*
X798306Y449441D01*
X798326Y449398D01*
X796348D01*
X796368Y449441D01*
X796385Y449508D01*
X796401Y449599D01*
X796425Y449854D01*
X796447Y450417D01*
X796451Y450913D01*
X798223D01*
X798224Y450653D01*
D02*
G37*
G36*
X798198Y447690D02*
X798162Y447629D01*
X798130Y447548D01*
X798102Y447446D01*
X798079Y447322D01*
X798060Y447177D01*
X798034Y446823D01*
X798026Y446385D01*
X796648D01*
X796646Y446615D01*
X796595Y447322D01*
X796572Y447446D01*
X796544Y447548D01*
X796513Y447629D01*
X796477Y447690D01*
X796436Y447728D01*
X798238D01*
X798198Y447690D01*
D02*
G37*
G36*
X805329Y447191D02*
X805330Y446895D01*
X805408Y445589D01*
X805428Y445512D01*
X805452Y445461D01*
X803475D01*
X803528Y445555D01*
X803575Y445668D01*
X803617Y445800D01*
X803654Y445952D01*
X803684Y446122D01*
X803729Y446522D01*
X803752Y447000D01*
X803754Y447268D01*
X805329Y447191D01*
D02*
G37*
G36*
X818340Y445877D02*
X818270Y445835D01*
X818207Y445789D01*
X818151Y445738D01*
X818103Y445682D01*
X818062Y445621D01*
X818028Y445555D01*
X818002Y445485D01*
X817984Y445409D01*
X817973Y445329D01*
X817969Y445244D01*
X817378Y445434D01*
X817376Y445512D01*
X817369Y445590D01*
X817358Y445669D01*
X817342Y445749D01*
X817322Y445828D01*
X817268Y445989D01*
X817234Y446069D01*
X817152Y446232D01*
X818340Y445877D01*
D02*
G37*
G36*
X823613Y451385D02*
X825187Y449810D01*
X827180Y449810D01*
X827573Y449417D01*
Y446267D01*
X829935Y443905D01*
Y441149D01*
X829148Y440361D01*
X828853Y440420D01*
X827939Y440238D01*
X827164Y439720D01*
X827066Y439574D01*
X821668D01*
X820880Y438787D01*
Y438019D01*
X819306D01*
Y441936D01*
X821274D01*
X822062Y442724D01*
Y445873D01*
X821274Y446661D01*
Y451385D01*
X823613Y451385D01*
D02*
G37*
G36*
X814059Y437395D02*
X814012Y437347D01*
X813932Y437254D01*
X813899Y437209D01*
X813870Y437166D01*
X813845Y437123D01*
X813825Y437082D01*
X813809Y437041D01*
X813797Y437002D01*
X813791Y436964D01*
X813400Y437355D01*
X813010Y436964D01*
X813003Y437002D01*
X812991Y437041D01*
X812975Y437082D01*
X812955Y437123D01*
X812930Y437166D01*
X812901Y437209D01*
X812868Y437254D01*
X812788Y437347D01*
X812741Y437395D01*
X813020Y437674D01*
X813068Y437627D01*
X813161Y437547D01*
X813206Y437514D01*
X813249Y437485D01*
X813292Y437460D01*
X813333Y437440D01*
X813374Y437424D01*
X813400Y437416D01*
X813426Y437424D01*
X813467Y437440D01*
X813508Y437460D01*
X813551Y437485D01*
X813594Y437514D01*
X813639Y437547D01*
X813732Y437627D01*
X813780Y437674D01*
X814059Y437395D01*
D02*
G37*
G36*
X811100Y437627D02*
X811193Y437547D01*
X811237Y437514D01*
X811281Y437485D01*
X811324Y437460D01*
X811365Y437440D01*
X811405Y437424D01*
X811444Y437413D01*
X811482Y437405D01*
X811041Y436964D01*
X811034Y437002D01*
X811023Y437041D01*
X811007Y437082D01*
X810987Y437123D01*
X810962Y437166D01*
X810933Y437209D01*
X810899Y437254D01*
X810819Y437347D01*
X810773Y437395D01*
X811051Y437674D01*
X811100Y437627D01*
D02*
G37*
G36*
X824528Y435376D02*
X824508Y435463D01*
X824482Y435541D01*
X824450Y435609D01*
X824410Y435669D01*
X824364Y435719D01*
X824312Y435761D01*
X824253Y435793D01*
X824187Y435816D01*
X824115Y435829D01*
X824036Y435834D01*
X824322Y436228D01*
X824379Y436229D01*
X824512Y436242D01*
X824669Y436267D01*
X824949Y436328D01*
X825165Y436385D01*
X824528Y435376D01*
D02*
G37*
G36*
X815766Y435059D02*
X815777Y435020D01*
X815793Y434980D01*
X815814Y434938D01*
X815838Y434896D01*
X815867Y434852D01*
X815901Y434807D01*
X815981Y434714D01*
X816027Y434666D01*
X815749Y434388D01*
X815701Y434434D01*
X815608Y434514D01*
X815563Y434548D01*
X815519Y434577D01*
X815477Y434601D01*
X815435Y434622D01*
X815395Y434638D01*
X815356Y434649D01*
X815318Y434656D01*
X815759Y435097D01*
X815766Y435059D01*
D02*
G37*
G36*
X813451Y434656D02*
X813413Y434649D01*
X813374Y434638D01*
X813333Y434622D01*
X813292Y434601D01*
X813249Y434577D01*
X813206Y434548D01*
X813161Y434514D01*
X813068Y434434D01*
X813020Y434388D01*
X812741Y434666D01*
X812788Y434714D01*
X812868Y434807D01*
X812901Y434852D01*
X812930Y434896D01*
X812955Y434938D01*
X812975Y434980D01*
X812991Y435020D01*
X813003Y435059D01*
X813010Y435097D01*
X813451Y434656D01*
D02*
G37*
G36*
X796939Y434285D02*
X796959Y434253D01*
X796985Y434224D01*
X797018Y434200D01*
X797056Y434179D01*
X797099Y434162D01*
X797149Y434149D01*
X797205Y434139D01*
X797266Y434133D01*
X797333Y434131D01*
X797325Y433541D01*
X797227Y433540D01*
X796978Y433522D01*
X796910Y433510D01*
X796850Y433497D01*
X796798Y433481D01*
X796753Y433463D01*
X796716Y433442D01*
X796686Y433419D01*
X796924Y434321D01*
X796939Y434285D01*
D02*
G37*
G36*
X830011Y432488D02*
X830033Y432487D01*
Y430913D01*
X830011Y430912D01*
Y430496D01*
X829943Y430575D01*
X829851Y430646D01*
X829736Y430708D01*
X829597Y430762D01*
X829434Y430808D01*
X829248Y430846D01*
X829148Y430860D01*
X829049Y430846D01*
X828862Y430808D01*
X828699Y430762D01*
X828560Y430708D01*
X828445Y430646D01*
X828353Y430575D01*
X828286Y430496D01*
Y430912D01*
X828263Y430913D01*
Y432487D01*
X828286Y432488D01*
Y433101D01*
X828377Y432985D01*
X828487Y432880D01*
X828615Y432788D01*
X828762Y432709D01*
X828928Y432641D01*
X829112Y432586D01*
X829148Y432578D01*
X829185Y432586D01*
X829368Y432641D01*
X829534Y432709D01*
X829681Y432788D01*
X829809Y432880D01*
X829919Y432985D01*
X830011Y433101D01*
Y432488D01*
D02*
G37*
G36*
X809753Y432806D02*
X809734Y432770D01*
X809716Y432730D01*
X809701Y432687D01*
X809689Y432640D01*
X809678Y432588D01*
X809670Y432533D01*
X809661Y432410D01*
X809660Y432343D01*
X809266D01*
X809265Y432410D01*
X809256Y432533D01*
X809248Y432588D01*
X809237Y432640D01*
X809225Y432687D01*
X809210Y432730D01*
X809192Y432770D01*
X809173Y432806D01*
X809151Y432838D01*
X809775D01*
X809753Y432806D01*
D02*
G37*
G36*
X797440Y429265D02*
X797414Y429269D01*
X797385Y429267D01*
X797355Y429260D01*
X797322Y429248D01*
X797287Y429231D01*
X797250Y429209D01*
X797211Y429181D01*
X797170Y429148D01*
X797142Y429121D01*
X797142Y429099D01*
X797148Y429030D01*
X797158Y428969D01*
X797172Y428917D01*
X797189Y428872D01*
X797211Y428835D01*
X797237Y428807D01*
X797266Y428787D01*
X797300Y428774D01*
X797337Y428770D01*
X796550D01*
X796587Y428774D01*
X796621Y428787D01*
X796650Y428807D01*
X796676Y428835D01*
X796697Y428872D01*
X796715Y428917D01*
X796729Y428969D01*
X796739Y429030D01*
X796744Y429099D01*
X796746Y429176D01*
X796973D01*
X796804Y429345D01*
X796838Y429380D01*
X796866Y429415D01*
X796890Y429448D01*
X796908Y429479D01*
X796921Y429509D01*
X796930Y429538D01*
X796933Y429566D01*
X796930Y429592D01*
X796923Y429617D01*
X796911Y429640D01*
X797440Y429265D01*
D02*
G37*
G36*
X811079Y429451D02*
X811021Y429393D01*
X810786Y429127D01*
X810776Y429109D01*
X810772Y429096D01*
X810445Y429422D01*
X810459Y429426D01*
X810477Y429436D01*
X810500Y429452D01*
X810528Y429474D01*
X810642Y429575D01*
X810800Y429729D01*
X811079Y429451D01*
D02*
G37*
G36*
X821668Y432487D02*
X822515D01*
X822533Y432470D01*
X822988Y432166D01*
X823526Y432059D01*
X824030D01*
Y430125D01*
X824809D01*
X824852Y430061D01*
X825242Y429800D01*
X825703Y429708D01*
X827869D01*
X828329Y429800D01*
X828622Y429996D01*
X828648Y430006D01*
X829046Y429843D01*
X829148Y429754D01*
Y423432D01*
X824424D01*
X821274Y426582D01*
Y428944D01*
X820487Y429732D01*
X819306D01*
Y433669D01*
X820487D01*
X821668Y432487D01*
D02*
G37*
D10*
X799907Y427588D02*
X801602Y425893D01*
X812267D02*
X814889Y428515D01*
X801602Y425893D02*
X812267D01*
X797119Y427588D02*
X799907D01*
X799400Y426010D02*
Y426031D01*
X800791Y424619D02*
X812324D01*
X799400Y426010D02*
X800791Y424619D01*
X799081Y426031D02*
X799400D01*
X796943Y424613D02*
X797639Y425309D01*
X798359D01*
X799081Y426031D01*
X818303Y438175D02*
X819112D01*
X818127Y437999D02*
X818303Y438175D01*
X819112D02*
X819699Y438763D01*
Y439968D01*
X814384Y437999D02*
X818127D01*
X805982Y437080D02*
X809398D01*
X805308Y437754D02*
X805982Y437080D01*
X809398D02*
X809463Y437015D01*
X808729Y436228D02*
X809388Y435569D01*
X804990Y436228D02*
X808729D01*
X809388Y435122D02*
X809463Y435046D01*
X809388Y435122D02*
Y435569D01*
X804075Y437143D02*
X804990Y436228D01*
X808860Y434062D02*
X810447D01*
X803027Y435181D02*
X807742D01*
X808860Y434062D01*
X801786Y436326D02*
X801881D01*
X803027Y435181D01*
X810447Y434062D02*
X811432Y435046D01*
X810536Y445980D02*
X810984Y446428D01*
X810730Y447876D02*
X810984Y447621D01*
Y446428D02*
Y447621D01*
X810644Y449417D02*
X810730Y449331D01*
Y447876D02*
Y449331D01*
X810536Y443315D02*
Y445980D01*
Y443315D02*
X811356Y442495D01*
Y439059D02*
Y442495D01*
Y439059D02*
X811432Y438983D01*
X813400D02*
Y445086D01*
X809531Y442858D02*
X809955Y442433D01*
Y439986D02*
Y442433D01*
X812324Y424619D02*
X815802Y428097D01*
X810478Y429129D02*
X810939Y429590D01*
Y432586D01*
X809463Y447054D02*
X809531Y446987D01*
X796943Y427763D02*
X797119Y427588D01*
X810447Y437999D02*
Y439494D01*
X809955Y439986D02*
X810447Y439494D01*
X813992Y429803D02*
Y432486D01*
X814889Y428515D02*
Y432599D01*
X815802Y428097D02*
Y432006D01*
X816353Y436031D02*
X824900D01*
X825400Y435531D01*
X796943Y427763D02*
Y429206D01*
X797652Y429914D01*
Y430125D01*
X817337Y431306D02*
Y433078D01*
X814889Y432599D02*
X815368Y433078D01*
X814384Y437999D02*
Y439771D01*
X812416Y437999D02*
Y440066D01*
X816353Y432557D02*
Y434062D01*
X815802Y432006D02*
X816353Y432557D01*
X813400Y433078D02*
X813992Y432486D01*
X812416Y431306D02*
Y434062D01*
X809531Y442858D02*
Y446987D01*
X815368Y435046D02*
X816353Y434062D01*
X810939Y432586D02*
X811432Y433078D01*
X812416Y434062D02*
X813400Y435046D01*
X809463Y431306D02*
Y433078D01*
X812416Y437999D02*
X813400Y437015D01*
X815368D02*
X816353Y436031D01*
X813400Y437015D02*
X814384Y437999D01*
X810447D02*
X811432Y437015D01*
X768715Y496069D02*
Y492134D01*
X771339D01*
X774619D02*
Y496069D01*
X772651Y494102D01*
X775275D01*
X780522D02*
X783146D01*
X791017Y495413D02*
X790362Y496069D01*
X789050D01*
X788394Y495413D01*
Y494758D01*
X789050Y494102D01*
X790362D01*
X791017Y493446D01*
Y492790D01*
X790362Y492134D01*
X789050D01*
X788394Y492790D01*
X794953Y496069D02*
X792329D01*
Y492134D01*
X794953D01*
X792329Y494102D02*
X793641D01*
X798889Y495413D02*
X798233Y496069D01*
X796921D01*
X796265Y495413D01*
Y492790D01*
X796921Y492134D01*
X798233D01*
X798889Y492790D01*
X802169Y496069D02*
X800857D01*
X800201Y495413D01*
Y492790D01*
X800857Y492134D01*
X802169D01*
X802825Y492790D01*
Y495413D01*
X802169Y496069D01*
X804137Y492134D02*
Y496069D01*
X806761Y492134D01*
Y496069D01*
X808072D02*
Y492134D01*
X810040D01*
X810696Y492790D01*
Y495413D01*
X810040Y496069D01*
X808072D01*
X812008Y492134D02*
Y494758D01*
X813320Y496069D01*
X814632Y494758D01*
Y492134D01*
Y494102D01*
X812008D01*
X815944Y492134D02*
Y496069D01*
X817912D01*
X818568Y495413D01*
Y494102D01*
X817912Y493446D01*
X815944D01*
X817256D02*
X818568Y492134D01*
X819880Y496069D02*
Y495413D01*
X821192Y494102D01*
X822503Y495413D01*
Y496069D01*
X821192Y494102D02*
Y492134D01*
X830375Y495413D02*
X829719Y496069D01*
X828407D01*
X827751Y495413D01*
Y494758D01*
X828407Y494102D01*
X829719D01*
X830375Y493446D01*
Y492790D01*
X829719Y492134D01*
X828407D01*
X827751Y492790D01*
X831687Y496069D02*
X832999D01*
X832343D01*
Y492134D01*
X831687D01*
X832999D01*
X834967Y496069D02*
Y492134D01*
X836934D01*
X837591Y492790D01*
Y495413D01*
X836934Y496069D01*
X834967D01*
X841526D02*
X838902D01*
Y492134D01*
X841526D01*
X838902Y494102D02*
X840214D01*
D11*
X799719Y434259D02*
X799940D01*
X802577Y427445D02*
X811634D01*
X794502Y431306D02*
X796606D01*
X797000Y431700D01*
X798322D01*
X802577Y427445D01*
X811634D02*
X813992Y429803D01*
X799328Y441338D02*
X800196D01*
X798436Y441770D02*
X798897D01*
X800196Y441338D02*
X801153Y440381D01*
X801193D01*
X801921Y439653D02*
X801983D01*
X798046Y442160D02*
X798436Y441770D01*
X801193Y440381D02*
X801921Y439653D01*
X798897Y441770D02*
X799328Y441338D01*
X798046Y442160D02*
Y442428D01*
X801325Y433460D02*
X801983Y432802D01*
X800739Y433460D02*
X801325D01*
X799940Y434259D02*
X800739Y433460D01*
X799298Y432684D02*
X802854Y429129D01*
X798485Y432684D02*
X799298D01*
X797333Y433836D02*
X798485Y432684D01*
X796303Y433836D02*
X797333D01*
X801815Y444312D02*
Y445647D01*
X801589Y445873D02*
X801815Y445647D01*
Y444312D02*
X805308Y440819D01*
X815959Y439627D02*
Y442527D01*
X817674Y444241D01*
X815368Y439037D02*
X815959Y439627D01*
X815368Y438983D02*
Y439037D01*
X800014Y444447D02*
Y447546D01*
X804075Y437143D02*
Y440386D01*
X800014Y444447D02*
X804075Y440386D01*
X805308Y437754D02*
Y440819D01*
X802854Y429129D02*
X810478D01*
X796077Y434062D02*
X796303Y433836D01*
X817674Y444241D02*
Y446407D01*
X817928Y446661D01*
D15*
X833873Y454141D02*
D03*
D16*
X799719Y434259D02*
D03*
X805034Y433701D02*
D03*
X819306Y453747D02*
D03*
X805132D02*
D03*
X793715Y439968D02*
D03*
Y436818D02*
D03*
X832691Y424220D02*
D03*
X810644Y449417D02*
D03*
X809463Y447054D02*
D03*
X825400Y435531D02*
D03*
X797652Y430125D02*
D03*
X799400Y426031D02*
D03*
X814975Y447054D02*
D03*
X813400Y445086D02*
D03*
X794502Y431306D02*
D03*
X812416D02*
D03*
X800014Y447546D02*
D03*
X817928Y446661D02*
D03*
X801589Y445873D02*
D03*
X809463Y431306D02*
D03*
X817337D02*
D03*
X796077Y434062D02*
D03*
X812613Y447448D02*
D03*
X799620Y450991D02*
D03*
X797258D02*
D03*
X829542Y447054D02*
D03*
X832298D02*
D03*
X829148Y449810D02*
D03*
Y424220D02*
D03*
X822400Y447531D02*
D03*
X826786Y424220D02*
D03*
X822400Y450204D02*
D03*
D17*
X814089Y450598D02*
D03*
X819010D02*
D03*
X802672Y450204D02*
D03*
X807593D02*
D03*
X833183Y443511D02*
D03*
X828262D02*
D03*
D18*
X801983Y436109D02*
D03*
Y432802D02*
D03*
X822849Y430834D02*
D03*
Y434141D02*
D03*
Y441228D02*
D03*
Y437921D02*
D03*
X801983Y436346D02*
D03*
Y439653D02*
D03*
D19*
X796943Y427763D02*
D03*
X793636D02*
D03*
X796943Y424613D02*
D03*
X793636D02*
D03*
X804463Y444692D02*
D03*
X807770D02*
D03*
X797337Y448629D02*
D03*
X794030D02*
D03*
X823321Y444299D02*
D03*
X820014D02*
D03*
D20*
X826786Y431799D02*
D03*
Y426877D02*
D03*
X825900Y453491D02*
D03*
Y448570D02*
D03*
X831510Y431799D02*
D03*
Y426877D02*
D03*
D21*
X798046Y445381D02*
D03*
X793321D02*
D03*
X798046Y442428D02*
D03*
X793321D02*
D03*
D22*
X819699Y432094D02*
D03*
Y439968D02*
D03*
X807101Y432094D02*
D03*
Y439968D02*
D03*
D23*
X809463Y433078D02*
D03*
Y435046D02*
D03*
Y437015D02*
D03*
Y438983D02*
D03*
X811432Y433078D02*
D03*
Y435046D02*
D03*
Y437015D02*
D03*
Y438983D02*
D03*
X813400Y433078D02*
D03*
Y435046D02*
D03*
Y437015D02*
D03*
Y438983D02*
D03*
X815368Y433078D02*
D03*
Y435046D02*
D03*
Y437015D02*
D03*
Y438983D02*
D03*
X817337D02*
D03*
Y437015D02*
D03*
Y435046D02*
D03*
Y433078D02*
D03*
D24*
X806577Y433701D02*
X807101Y433176D01*
X805034Y433701D02*
X806577D01*
X814975Y447054D02*
X815073Y446956D01*
Y443610D02*
Y446956D01*
X814384Y442920D02*
X815073Y443610D01*
X812416Y440066D02*
Y443365D01*
X811727Y444054D02*
Y445779D01*
Y444054D02*
X812416Y443365D01*
X814384Y439771D02*
Y442920D01*
X811727Y445779D02*
X812424Y446477D01*
Y447260D02*
X812613Y447448D01*
X812424Y446477D02*
Y447260D01*
X807958Y444692D02*
X808193Y444457D01*
Y442803D02*
Y444457D01*
Y442803D02*
X808971Y442026D01*
Y439476D02*
Y442026D01*
X807101Y432094D02*
Y433176D01*
X817337Y441936D02*
X819079Y443678D01*
X817337Y438983D02*
Y441936D01*
X819386Y443678D02*
X819699Y443992D01*
X819079Y443678D02*
X819386D01*
X821935Y437015D02*
X822840Y437921D01*
X817337Y437015D02*
X821935D01*
X821263Y434458D02*
X822847D01*
X820674Y435046D02*
X821263Y434458D01*
X818724Y435046D02*
X820674D01*
X818724Y435046D02*
X818724Y435046D01*
X817337Y435046D02*
X818724D01*
X822840Y437921D02*
X822849D01*
X822847Y434458D02*
X822849Y434456D01*
X808971Y439476D02*
X809463Y438983D01*
X819699Y443992D02*
Y444299D01*
D25*
X808781Y451589D02*
X813294D01*
X807593Y450401D02*
X808781Y451589D01*
X813294D02*
X813991Y450893D01*
X807593Y450204D02*
Y450401D01*
X822849Y434141D02*
X823526Y433464D01*
X826203D01*
X827967Y431700D01*
X807396Y445066D02*
Y450007D01*
X802672Y450204D02*
Y450298D01*
X801983Y450987D02*
X802672Y450298D01*
X799625Y450987D02*
X801983D01*
X799620Y450991D02*
X799625Y450987D01*
X797258Y450991D02*
X799620D01*
X807396Y445066D02*
X807810Y444653D01*
X807396Y450007D02*
X807593Y450204D01*
X804699Y443747D02*
Y444456D01*
Y443747D02*
X807101Y441346D01*
X804542Y444771D02*
Y448199D01*
X807101Y439968D02*
Y441346D01*
X804463Y444692D02*
X804699Y444456D01*
X803422Y449318D02*
X804542Y448199D01*
X804463Y444692D02*
X804542Y444771D01*
X827967Y431700D02*
X831117D01*
D26*
X798046Y445381D02*
Y445676D01*
X797337Y446385D02*
X798046Y445676D01*
X797337Y446385D02*
Y448629D01*
D27*
Y450913D01*
X797258Y450991D02*
X797337Y450913D01*
M02*
