G04*
G04 #@! TF.GenerationSoftware,Altium Limited,Altium Designer,20.2.6 (244)*
G04*
G04 Layer_Color=39423*
%FSLAX25Y25*%
%MOIN*%
G70*
G04*
G04 #@! TF.SameCoordinates,A1248B6C-439F-447A-ADC8-1C90144166A7*
G04*
G04*
G04 #@! TF.FilePolarity,Positive*
G04*
G01*
G75*
%ADD10C,0.00394*%
D10*
X791550Y442756D02*
X835250D01*
Y424646D02*
Y442756D01*
X792337Y424646D02*
X835250D01*
X791550D02*
X792337D01*
X791550D02*
Y442756D01*
X768715Y496069D02*
X771339D01*
X770027D01*
Y492134D01*
X774619Y496069D02*
X773307D01*
X772651Y495413D01*
Y492790D01*
X773307Y492134D01*
X774619D01*
X775275Y492790D01*
Y495413D01*
X774619Y496069D01*
X776586Y492134D02*
Y496069D01*
X778554D01*
X779210Y495413D01*
Y494102D01*
X778554Y493446D01*
X776586D01*
X784458Y492134D02*
Y494758D01*
X785770Y496069D01*
X787082Y494758D01*
Y492134D01*
Y494102D01*
X784458D01*
X791017Y495413D02*
X790362Y496069D01*
X789050D01*
X788394Y495413D01*
Y494758D01*
X789050Y494102D01*
X790362D01*
X791017Y493446D01*
Y492790D01*
X790362Y492134D01*
X789050D01*
X788394Y492790D01*
X794953Y495413D02*
X794297Y496069D01*
X792985D01*
X792329Y495413D01*
Y494758D01*
X792985Y494102D01*
X794297D01*
X794953Y493446D01*
Y492790D01*
X794297Y492134D01*
X792985D01*
X792329Y492790D01*
X798889Y496069D02*
X796265D01*
Y492134D01*
X798889D01*
X796265Y494102D02*
X797577D01*
X800201Y492134D02*
Y496069D01*
X801513Y494758D01*
X802825Y496069D01*
Y492134D01*
X804137Y496069D02*
Y492134D01*
X806104D01*
X806761Y492790D01*
Y493446D01*
X806104Y494102D01*
X804137D01*
X806104D01*
X806761Y494758D01*
Y495413D01*
X806104Y496069D01*
X804137D01*
X808072D02*
Y492134D01*
X810696D01*
X812008Y496069D02*
Y495413D01*
X813320Y494102D01*
X814632Y495413D01*
Y496069D01*
X813320Y494102D02*
Y492134D01*
X825243Y439606D02*
X823932D01*
X825243Y440918D01*
Y441246D01*
X824916Y441574D01*
X824259D01*
X823932Y441246D01*
X824325Y425925D02*
X824981D01*
X824653D01*
Y427893D01*
X824325Y427565D01*
M02*
