G04*
G04 #@! TF.GenerationSoftware,Altium Limited,Altium Designer,20.2.6 (244)*
G04*
G04 Layer_Color=102*
%FSLAX25Y25*%
%MOIN*%
G70*
G04*
G04 #@! TF.SameCoordinates,A1248B6C-439F-447A-ADC8-1C90144166A7*
G04*
G04*
G04 #@! TF.FilePolarity,Negative*
G04*
G01*
G75*
%ADD10C,0.00394*%
%ADD13C,0.07874*%
G04:AMPARAMS|DCode=14|XSize=19.68mil|YSize=62.99mil|CornerRadius=5.91mil|HoleSize=0mil|Usage=FLASHONLY|Rotation=0.000|XOffset=0mil|YOffset=0mil|HoleType=Round|Shape=RoundedRectangle|*
%AMROUNDEDRECTD14*
21,1,0.01968,0.05118,0,0,0.0*
21,1,0.00787,0.06299,0,0,0.0*
1,1,0.01181,0.00394,-0.02559*
1,1,0.01181,-0.00394,-0.02559*
1,1,0.01181,-0.00394,0.02559*
1,1,0.01181,0.00394,0.02559*
%
%ADD14ROUNDEDRECTD14*%
D10*
X768715Y496069D02*
X771339D01*
X770027D01*
Y492134D01*
X774619Y496069D02*
X773307D01*
X772651Y495413D01*
Y492790D01*
X773307Y492134D01*
X774619D01*
X775275Y492790D01*
Y495413D01*
X774619Y496069D01*
X776586Y492134D02*
Y496069D01*
X778554D01*
X779210Y495413D01*
Y494102D01*
X778554Y493446D01*
X776586D01*
X787082Y495413D02*
X786426Y496069D01*
X785114D01*
X784458Y495413D01*
Y494758D01*
X785114Y494102D01*
X786426D01*
X787082Y493446D01*
Y492790D01*
X786426Y492134D01*
X785114D01*
X784458Y492790D01*
X790362Y496069D02*
X789050D01*
X788394Y495413D01*
Y492790D01*
X789050Y492134D01*
X790362D01*
X791017Y492790D01*
Y495413D01*
X790362Y496069D01*
X792329D02*
Y492134D01*
X794953D01*
X796265Y496069D02*
Y492134D01*
X798233D01*
X798889Y492790D01*
Y495413D01*
X798233Y496069D01*
X796265D01*
X802825D02*
X800201D01*
Y492134D01*
X802825D01*
X800201Y494102D02*
X801513D01*
X804137Y492134D02*
Y496069D01*
X806104D01*
X806761Y495413D01*
Y494102D01*
X806104Y493446D01*
X804137D01*
X805449D02*
X806761Y492134D01*
X808072D02*
Y496069D01*
X809384Y494758D01*
X810696Y496069D01*
Y492134D01*
X812008D02*
Y494758D01*
X813320Y496069D01*
X814632Y494758D01*
Y492134D01*
Y494102D01*
X812008D01*
X818568Y495413D02*
X817912Y496069D01*
X816600D01*
X815944Y495413D01*
Y494758D01*
X816600Y494102D01*
X817912D01*
X818568Y493446D01*
Y492790D01*
X817912Y492134D01*
X816600D01*
X815944Y492790D01*
X819880Y496069D02*
Y492134D01*
Y493446D01*
X822503Y496069D01*
X820536Y494102D01*
X822503Y492134D01*
D13*
X792928Y454141D02*
D03*
D14*
X824650Y440984D02*
D03*
Y426417D02*
D03*
X822150D02*
D03*
X819650D02*
D03*
X817150D02*
D03*
X814650D02*
D03*
X812150D02*
D03*
X809650D02*
D03*
X807150D02*
D03*
X804650D02*
D03*
X802150D02*
D03*
X822150Y440984D02*
D03*
X819650D02*
D03*
X817150D02*
D03*
X814650D02*
D03*
X812150D02*
D03*
X809650D02*
D03*
X807150D02*
D03*
X804650D02*
D03*
X802150D02*
D03*
M02*
