G04*
G04 #@! TF.GenerationSoftware,Altium Limited,Altium Designer,20.2.6 (244)*
G04*
G04 Layer_Color=255*
%FSLAX25Y25*%
%MOIN*%
G70*
G04*
G04 #@! TF.SameCoordinates,A1248B6C-439F-447A-ADC8-1C90144166A7*
G04*
G04*
G04 #@! TF.FilePolarity,Positive*
G04*
G01*
G75*
G04:AMPARAMS|DCode=12|XSize=15.75mil|YSize=59.06mil|CornerRadius=3.94mil|HoleSize=0mil|Usage=FLASHONLY|Rotation=0.000|XOffset=0mil|YOffset=0mil|HoleType=Round|Shape=RoundedRectangle|*
%AMROUNDEDRECTD12*
21,1,0.01575,0.05118,0,0,0.0*
21,1,0.00787,0.05906,0,0,0.0*
1,1,0.00787,0.00394,-0.02559*
1,1,0.00787,-0.00394,-0.02559*
1,1,0.00787,-0.00394,0.02559*
1,1,0.00787,0.00394,0.02559*
%
%ADD12ROUNDEDRECTD12*%
%ADD15C,0.03937*%
D12*
X824650Y440984D02*
D03*
Y426417D02*
D03*
X822150D02*
D03*
X819650D02*
D03*
X817150D02*
D03*
X814650D02*
D03*
X812150D02*
D03*
X809650D02*
D03*
X807150D02*
D03*
X804650D02*
D03*
X802150D02*
D03*
X822150Y440984D02*
D03*
X819650D02*
D03*
X817150D02*
D03*
X814650D02*
D03*
X812150D02*
D03*
X809650D02*
D03*
X807150D02*
D03*
X804650D02*
D03*
X802150D02*
D03*
D15*
X792928Y454141D02*
D03*
M02*
