M48
;Layer_Color=9474304
;FILE_FORMAT=2:5
INCH,TZ
;TYPE=PLATED
T1F00S00C0.00787
T2F00S00C0.00984
T3F00S00C0.00988
;TYPE=NON_PLATED
T4F00S00C0.03504
T5F00S00C0.03902
T6F00S00C0.09350
T7F00S00C0.10000
%
T01
X488370Y628375
X536008Y657509
X535614Y660264
X539551Y660658
X543488
X539157Y671682
Y680343
X534827Y676406
X543488Y689005
T02
X473410Y397666
X471736Y407509
X475772Y407836
X470406Y419002
Y422002
Y425002
Y428002
Y431002
Y434002
Y436885
Y440000
X472831Y443412
X474591Y447272
X477000Y462788
X480102Y466170
X491520Y465383
X496453Y459947
X499602
X501965Y452467
X506874Y450422
Y454753
X506693Y444517
X497634Y445774
X498084Y441324
X498213Y437036
X499000Y433099
X504118Y431918
X492823Y432065
X493576Y436818
X495457Y427981
X493500Y406351
X512386Y403178
X509630Y398453
X534827Y393335
X540339Y392548
X545457
Y387036
X539551
X541520Y398847
X535220Y405934
X552150Y406721
X554118Y413414
X549787Y413808
X545850Y417351
X544276Y423650
X548311Y424831
X549000Y429950
X544669
X538764Y430343
X541126Y426800
Y420993
X540339Y434674
X539748Y438906
X536008Y440973
X531677
Y436643
X536303Y435855
X534433Y432312
X526165Y435461
X544276Y435855
X547819Y433886
X552051Y434772
X556579Y434674
X553921Y431032
X552457Y427263
X554118Y438611
X549000Y440580
X544669Y444517
X541126Y446485
X543291Y449733
Y453670
X543303Y457585
X548421
X548410Y453670
X548213Y449635
X551756Y465383
X556295Y465065
X563567Y438611
X578614Y450975
X570654Y408690
X563567Y405146
X576031Y399241
X577347Y387036
X550969Y393335
X515535Y460658
X511598Y464497
X506185
X511992Y468926
X511598Y479556
X512386Y487824
X509236Y490973
X512386Y494123
X515929Y490580
X519079Y498454
X517898Y502263
X521047Y503178
X513961Y506721
X513867Y514090
X510417Y516170
X511020Y520971
X507268Y522469
X503931Y520107
X513382Y526089
X515252Y530912
X520469Y528451
X519866Y537036
X527347Y538217
X535036Y526483
X548213Y520107
X546770Y514201
X548606Y505540
X548512Y502183
X548658Y499628
X546602Y487891
X540189Y488723
X535429Y488294
X535516Y493237
X533055Y496485
X532280Y500498
X528736Y497743
X524799Y495774
X526264Y487627
X537004Y476876
X544484
X548028Y473727
X553331Y472863
X557661Y487824
X557268Y494123
X561205Y492942
X563567Y496485
Y500028
X567898Y503572
X575772Y503965
X574406Y511916
X573803Y495698
X570654Y487036
X578408Y485876
X574591Y470501
X563567Y518139
X560024Y516957
Y520501
X562949Y524662
X560024Y529162
X559051Y531601
Y534357
X561598Y539005
X560910Y545501
X556874Y546583
X554413Y542548
X549984Y546780
X546638Y551603
X542701Y551209
X547819Y554753
X545668Y558162
X547425Y561052
X539896Y559379
X534433Y554359
X525378Y567745
X515929Y568139
Y572371
X517898Y576013
X519473Y579753
X502358Y576089
X502752Y568609
X502740Y556820
X510516Y555737
X498815Y548136
X487976Y540186
X479917Y548530
X475378Y550422
X470654
X469079Y524044
X474984Y522076
X472228Y518926
X469866Y513808
X469473Y505934
X471479Y502035
X477740Y499635
X484039
X488503Y500201
X495970Y502201
X496059Y498136
X503331Y501209
X508055Y500422
X506087Y504359
X500783Y487900
X491126Y488217
X482673Y493018
X476559Y490973
Y486643
X478134Y505934
X481677Y508690
Y513808
X481284Y518926
X484039Y523257
X481087Y568631
X481055Y574917
X476859Y573727
X492122Y570183
X485823Y589475
X495457Y592548
X511787Y613380
X528134Y613808
X533252
X537189Y613020
X536008Y616957
X542594Y618609
X539366Y623333
X522831Y624120
X518685Y624044
X530705Y610341
X545457Y572076
X549787Y568139
X559236Y563414
X562310Y565985
X566717Y565383
X570184Y562835
X577740Y560264
X566717Y553178
X569079Y549635
X563567Y548355
X557268Y526406
X500969Y474044
X491126Y470501
X481319Y624831
X468685Y637430
X471835Y651997
X475980Y652073
X474421Y659175
X481099Y657979
X482465Y670107
X486217Y671758
X490770Y664558
X490732Y684280
X489658Y694030
X489520Y697683
X482280Y698530
X478134Y698847
X482673Y702861
X486610Y709553
X494091Y710341
X496912Y709018
X498815Y710735
X510626Y709947
X512595Y704435
X515622Y704187
X520703Y704334
X525445Y704294
X530656Y704320
X534433Y702390
Y699635
X528156Y700971
X523224Y700892
X518106
X518500Y684750
X507934Y684125
X507870Y676089
X514563Y667034
X518685Y668926
X522228Y666564
X527839Y665875
X533252Y665383
X530138Y676288
X534642Y680420
X535220Y688611
X541520Y703572
X540732Y707509
X539945Y715383
X542386Y716246
X536795Y715776
X534039
X530929Y714052
X525587Y714278
X520075Y715853
X516138
X513382
X506480Y718532
X503252Y723178
X510024Y723257
X518500Y724908
X516532Y733963
X521650Y738294
X529673Y737900
X531492Y744593
X526559Y744517
X536795Y740580
X538579Y733963
X542996Y730737
X542732Y724603
X538579Y724514
X534433Y726013
X529917Y724514
X531492Y721364
X513906Y741002
X507083Y738294
X480039Y728333
X482673Y723333
X479799Y717546
X478921Y711052
X472251Y710244
X468815Y710718
X469468Y722939
X478736Y689081
X474728Y680706
X471421Y680549
X469681Y662703
X483449Y640875
X486402Y643729
X490833Y636680
X483493Y631948
X519473Y631918
X523803
X526953
X528232Y625028
X531099Y637900
X537398Y635144
X536217Y647349
X532858Y649635
T03
X477740Y435068
X484433Y438217
X477634Y450183
X514354Y444123
X518681Y445231
X534039Y464595
X537583Y466564
X560024Y450028
X573803Y531741
X575969Y535363
X572622Y540973
X483799Y536249
X490154Y482388
X490732Y479162
T04
X508953Y696872
X539858
T05
X485823Y561876
X481823Y591876
X489823
T06
X475823Y561876
X495823
Y584376
X475823
T07
X504906Y407902
X543906
M30
