M48
;Layer_Color=9474304
;FILE_FORMAT=2:5
INCH,TZ
;TYPE=PLATED
T1F00S00C0.00984
;TYPE=NON_PLATED
T2F00S00C0.03504
T3F00S00C0.03902
T4F00S00C0.09350
T5F00S00C0.10000
%
T01
X473410Y397666
X471736Y407509
X475772Y407836
X470406Y419002
Y422002
Y425002
Y428002
Y431002
Y434002
Y436885
Y440000
X472831Y443412
X474591Y447272
X477634Y450183
X477000Y462788
X480102Y466170
X491520Y465383
X496453Y459947
X499602
X501965Y452467
X506874Y450422
Y454753
X506693Y444517
X514354Y444123
X518681Y445231
X531677Y440973
Y436643
X536303Y435855
X540339Y434674
X539748Y438906
X536008Y440973
X534433Y432312
X538764Y430343
X541126Y426800
Y420993
X544276Y423650
X548311Y424831
X549000Y429950
X544669
X544276Y435855
X547819Y433886
X552051Y434772
X556579Y434674
X553921Y431032
X552457Y427263
X554118Y438611
X549000Y440580
X544669Y444517
X541126Y446485
X543291Y449733
Y453670
X543303Y457585
X548421
X548410Y453670
X548213Y449635
X560024Y450028
X563567Y438611
X574197Y435855
Y431131
X578921Y434674
X578134Y413808
X573803Y410264
X575973Y402073
X575378Y393729
X563567Y405146
X552150Y406721
X554118Y413414
X549787Y413808
X545850Y417351
X535220Y405934
X534827Y393335
X540339Y392548
X545457
Y387036
X539551
X541520Y398847
X550969Y393335
X521835Y394123
X509630Y398453
X512386Y403178
X493500Y406351
X495457Y427981
X492823Y432065
X493576Y436818
X498213Y437036
X498084Y441324
X497634Y445774
X499689Y433985
X504118Y431918
X484248Y436719
X479917Y432782
X526165Y435461
X515535Y460658
X511598Y464497
X506185
X533067Y465459
X537583Y465383
X551756
X556295Y465065
X577162Y454829
X574591Y470501
X577555Y484969
X570654Y487036
X573803Y495698
X575772Y503965
X567898Y503572
X563173Y500028
Y497272
X562780Y493729
X557268Y492942
X556087Y488611
X546602Y487891
X540189Y488723
X535429Y488294
X535220Y493729
X535823Y498136
X532280Y500498
X528736Y497743
X524799Y495774
X526165Y489792
X515929Y490580
X512386Y487824
X509236Y490973
X512386Y494123
X508055Y500422
X503331Y501209
X506087Y504359
X513961Y506721
X513867Y514090
X510417Y516170
X511020Y520971
X507268Y522469
X503931Y520107
X513382Y526089
X515252Y530912
X520469Y528451
X519866Y537036
X526559Y538217
X535036Y526483
X548213Y520107
X546770Y514201
X548606Y505540
X548512Y502183
X560024Y516957
Y520501
X564354Y518532
X560024Y529162
X559051Y531601
Y534357
X565744Y533176
X557268Y526406
X556874Y542154
X557327Y546485
X562780Y547272
X569079Y549635
X566717Y553178
Y565383
X562310Y565985
X559236Y563414
X570184Y562835
X577740Y560264
X548606Y561052
Y556721
X544669Y555934
X542701Y551209
X546638
X550181Y545698
X549787Y568139
X545457Y572076
X541126Y560658
X534433Y554359
X526559Y566957
X515929Y568139
Y572371
X517898Y576013
X519473Y579753
X502358Y576089
X502752Y568609
X502740Y556820
X510516Y555737
X498815Y548136
X487976Y540186
X483799Y536249
X484039Y523257
X481284Y518926
X481677Y513808
Y508690
X478134Y505934
X477740Y499635
X484039
X488503Y500201
X495970Y502201
X496059Y498136
X491126Y488217
X490154Y482388
X491126Y479162
X490339Y470501
X499996Y473727
X500783Y487900
X511598Y479556
X511992Y468926
X537004Y476876
X544484
X548028Y473727
X551571Y472546
X519079Y498454
X517898Y502263
X521047Y503178
X482673Y493018
X476559Y490973
Y486643
X471479Y502035
X469473Y505934
X469866Y513808
X472228Y518926
X474984Y522076
X469079Y524044
X470654Y550422
X475378
X479917Y548530
X481087Y568631
X481055Y574917
X476859Y573727
X492122Y570183
X485823Y589475
X495457Y592548
X511787Y613380
X528134Y613808
X533252
X537189Y613020
X536008Y616957
X542594Y618609
X539366Y623333
X522831Y624120
X518685Y624044
X530705Y610341
X481319Y624831
X574406Y511916
X468685Y637430
X471835Y651997
X475980Y652073
X474421Y659175
X481099Y657979
X482465Y670107
X486217Y671758
X490770Y664558
X490732Y684280
X489658Y694030
X489520Y697683
X482280Y698530
X478134Y698847
X482673Y702861
X486610Y709553
X494091Y710341
X496912Y709018
X498815Y710735
X510626Y709947
X512595Y704435
X515622Y704187
X520703Y704334
X525445Y704294
X530656Y704320
X534433Y702390
Y699635
X537398Y704042
X541520Y703572
X540732Y707509
X539945Y715383
X542386Y716246
X536795Y715776
X534039
X530929Y714052
X525587Y714278
X520075Y715853
X516138
X513382
X506480Y718532
X503252Y723178
X510024Y723257
X518500Y724908
X516532Y733963
X521650Y738294
X529673Y737900
X531492Y744593
X526559Y744517
X536795Y740580
X538579Y733963
X542996Y730737
X542732Y724603
X538579Y724514
X534433Y726013
X529917Y724514
X531492Y721364
X528156Y700971
X523224Y700892
X518106
X518500Y684750
X507934Y684125
X507870Y676089
X514563Y667034
X518685Y668926
X522228Y666564
X527839Y665875
X535566Y662318
X533461Y674120
X530138Y676288
X534642Y680420
X532858Y649635
X536217Y647349
X537398Y635144
X531099Y637900
X526953Y631918
X523803
X519473
X528232Y625028
X490833Y636680
X486402Y643729
X483449Y640875
X483493Y631948
X469681Y662703
X471421Y680549
X474728Y680706
X478736Y689081
X478921Y711052
X479799Y717546
X482673Y723333
X480039Y728333
X469468Y722939
X468815Y710718
X472251Y710244
X507083Y738294
X513906Y741002
T02
X508953Y696872
X539858
T03
X485823Y561876
X481823Y591876
X489823
T04
X475823Y561876
X495823
Y584376
X475823
T05
X504906Y407902
X543906
M30
