M48
;Layer_Color=9474304
;FILE_FORMAT=2:5
INCH,TZ
;TYPE=PLATED
T1F00S00C0.00787
;TYPE=NON_PLATED
T2F00S00C0.03504
%
T01
X799400Y426031
X797652Y430125
X794502Y431306
X796077Y434062
X799719Y434259
X805034Y433701
X809463Y431306
X812416
X817337
X825400Y435531
X826786Y424220
X829148
X832691
X832298Y447054
X829542
X829148Y449810
X822400Y450204
Y447531
X817928Y446661
X814975Y447054
X812613Y447448
X813400Y445086
X809463Y447054
X810644Y449417
X805132Y453747
X799620Y450991
X797258
X800014Y447546
X801589Y445873
X793715Y439968
Y436818
X819306Y453747
T02
X797947Y438031
X828853
M30
