G04*
G04 #@! TF.GenerationSoftware,Altium Limited,Altium Designer,20.2.6 (244)*
G04*
G04 Layer_Color=16711935*
%FSLAX25Y25*%
%MOIN*%
G70*
G04*
G04 #@! TF.SameCoordinates,5AE4630F-2555-4F6A-8CD4-AD4B39003086*
G04*
G04*
G04 #@! TF.FilePolarity,Positive*
G04*
G01*
G75*
%ADD11C,0.00394*%
D11*
X830400Y460700D02*
G03*
X823400Y453700I0J-7000D01*
G01*
X856400Y460700D02*
G03*
X849400Y453700I0J-7000D01*
G01*
X837400D02*
G03*
X830400Y460700I-7000J0D01*
G01*
X856400Y476700D02*
G03*
X839400Y493700I-17000J0D01*
G01*
X767400D02*
G03*
X750400Y476700I0J-17000D01*
G01*
X776400Y460700D02*
G03*
X769400Y453700I0J-7000D01*
G01*
X757400D02*
G03*
X750400Y460700I-7000J0D01*
G01*
X783400Y453700D02*
G03*
X776400Y460700I-7000J0D01*
G01*
X783400Y445700D02*
X800400D01*
X783400D02*
Y449700D01*
X823400Y445700D02*
Y449700D01*
X837400D02*
X849400D01*
X823400D02*
Y453700D01*
X849400Y449700D02*
Y453700D01*
X803400Y493700D02*
X839400D01*
X856400Y460700D02*
Y476700D01*
X837400Y449700D02*
Y453700D01*
X800400Y445700D02*
X823400D01*
X769400Y449700D02*
Y453700D01*
X750400Y460700D02*
Y476700D01*
X767400Y493700D02*
X803400D01*
X757400Y449700D02*
Y453700D01*
X783400Y449700D02*
Y453700D01*
X757400Y449700D02*
X769400D01*
M02*
