G04*
G04 #@! TF.GenerationSoftware,Altium Limited,Altium Designer,20.2.6 (244)*
G04*
G04 Layer_Color=32896*
%FSLAX25Y25*%
%MOIN*%
G70*
G04*
G04 #@! TF.SameCoordinates,5AE4630F-2555-4F6A-8CD4-AD4B39003086*
G04*
G04*
G04 #@! TF.FilePolarity,Positive*
G04*
G01*
G75*
%ADD10C,0.00591*%
%ADD11C,0.00394*%
%ADD12C,0.00800*%
D10*
X825605Y467329D02*
Y469297D01*
Y468509D01*
X825998D01*
X825211D01*
X825605D01*
Y469297D01*
X825211Y469690D01*
X823637Y467329D02*
X822850D01*
X822456Y467722D01*
Y468509D01*
X822850Y468903D01*
X823637D01*
X824030Y468509D01*
Y467722D01*
X823637Y467329D01*
X821669Y468903D02*
Y467722D01*
X821276Y467329D01*
X820095D01*
Y468903D01*
X819308Y467329D02*
Y468903D01*
X818127D01*
X817733Y468509D01*
Y467329D01*
X815372Y469690D02*
Y467329D01*
X816553D01*
X816946Y467722D01*
Y468509D01*
X816553Y468903D01*
X815372D01*
X814191D02*
X813404D01*
X813011Y468509D01*
Y467329D01*
X814191D01*
X814585Y467722D01*
X814191Y468116D01*
X813011D01*
X811830Y469297D02*
Y468903D01*
X812223D01*
X811436D01*
X811830D01*
Y467722D01*
X811436Y467329D01*
X810255D02*
X809468D01*
X809862D01*
Y468903D01*
X810255D01*
X807894Y467329D02*
X807107D01*
X806713Y467722D01*
Y468509D01*
X807107Y468903D01*
X807894D01*
X808288Y468509D01*
Y467722D01*
X807894Y467329D01*
X805926D02*
Y468903D01*
X804745D01*
X804352Y468509D01*
Y467329D01*
X801990Y469690D02*
Y467329D01*
X803171D01*
X803565Y467722D01*
Y468509D01*
X803171Y468903D01*
X801990D01*
X800023Y467329D02*
X800810D01*
X801203Y467722D01*
Y468509D01*
X800810Y468903D01*
X800023D01*
X799629Y468509D01*
Y468116D01*
X801203D01*
X798842Y468903D02*
X798055Y467329D01*
X797267Y468903D01*
X796480Y467329D02*
X795693D01*
X796087D01*
Y468903D01*
X796480D01*
X792938D02*
X794119D01*
X794513Y468509D01*
Y467722D01*
X794119Y467329D01*
X792938D01*
X790970D02*
X791757D01*
X792151Y467722D01*
Y468509D01*
X791757Y468903D01*
X790970D01*
X790577Y468509D01*
Y468116D01*
X792151D01*
X789790Y467329D02*
X788609D01*
X788215Y467722D01*
X788609Y468116D01*
X789396D01*
X789790Y468509D01*
X789396Y468903D01*
X788215D01*
X787428Y467329D02*
Y467722D01*
X787035D01*
Y467329D01*
X787428D01*
X783886Y468903D02*
X785067D01*
X785460Y468509D01*
Y467722D01*
X785067Y467329D01*
X783886D01*
X782705D02*
X781918D01*
X781525Y467722D01*
Y468509D01*
X781918Y468903D01*
X782705D01*
X783099Y468509D01*
Y467722D01*
X782705Y467329D01*
X780737D02*
Y468903D01*
X780344D01*
X779950Y468509D01*
Y467329D01*
Y468509D01*
X779557Y468903D01*
X779163Y468509D01*
Y467329D01*
X778376D02*
X776802Y468903D01*
X823834Y462291D02*
Y464652D01*
X822653D01*
X822259Y464258D01*
Y463471D01*
X822653Y463078D01*
X823834D01*
X821079Y464652D02*
X820292D01*
X819898Y464258D01*
Y463078D01*
X821079D01*
X821472Y463471D01*
X821079Y463865D01*
X819898D01*
X819111Y463078D02*
X817930D01*
X817537Y463471D01*
X817930Y463865D01*
X818717D01*
X819111Y464258D01*
X818717Y464652D01*
X817537D01*
X816749Y463078D02*
X815569D01*
X815175Y463471D01*
X815569Y463865D01*
X816356D01*
X816749Y464258D01*
X816356Y464652D01*
X815175D01*
X814388Y462291D02*
Y464652D01*
X813207D01*
X812814Y464258D01*
Y463471D01*
X813207Y463078D01*
X814388D01*
X811633D02*
X810846D01*
X810452Y463471D01*
Y464258D01*
X810846Y464652D01*
X811633D01*
X812027Y464258D01*
Y463471D01*
X811633Y463078D01*
X809665Y464652D02*
Y463078D01*
Y463865D01*
X809272Y464258D01*
X808878Y464652D01*
X808484D01*
X806910Y465046D02*
Y464652D01*
X807304D01*
X806516D01*
X806910D01*
Y463471D01*
X806516Y463078D01*
X805336Y464258D02*
X803761D01*
X801794Y463078D02*
X802581D01*
X802974Y463471D01*
Y464258D01*
X802581Y464652D01*
X801794D01*
X801400Y464258D01*
Y463865D01*
X802974D01*
X800613Y463078D02*
X799826D01*
X800219D01*
Y465439D01*
X800613D01*
X797464Y463078D02*
X798251D01*
X798645Y463471D01*
Y464258D01*
X798251Y464652D01*
X797464D01*
X797071Y464258D01*
Y463865D01*
X798645D01*
X794709Y464652D02*
X795890D01*
X796284Y464258D01*
Y463471D01*
X795890Y463078D01*
X794709D01*
X793529Y465046D02*
Y464652D01*
X793922D01*
X793135D01*
X793529D01*
Y463471D01*
X793135Y463078D01*
X791954Y464652D02*
Y463078D01*
Y463865D01*
X791561Y464258D01*
X791167Y464652D01*
X790774D01*
X789199Y463078D02*
X788412D01*
X788019Y463471D01*
Y464258D01*
X788412Y464652D01*
X789199D01*
X789593Y464258D01*
Y463471D01*
X789199Y463078D01*
X787231D02*
Y464652D01*
X786051D01*
X785657Y464258D01*
Y463078D01*
X784870D02*
X784083D01*
X784476D01*
Y464652D01*
X784870D01*
X781328D02*
X782509D01*
X782902Y464258D01*
Y463471D01*
X782509Y463078D01*
X781328D01*
X780541D02*
X779360D01*
X778966Y463471D01*
X779360Y463865D01*
X780147D01*
X780541Y464258D01*
X780147Y464652D01*
X778966D01*
D11*
X742770Y526825D02*
Y522890D01*
X744738D01*
X745394Y523546D01*
Y524202D01*
X744738Y524858D01*
X742770D01*
X744738D01*
X745394Y525514D01*
Y526169D01*
X744738Y526825D01*
X742770D01*
X748674D02*
X747362D01*
X746706Y526169D01*
Y523546D01*
X747362Y522890D01*
X748674D01*
X749330Y523546D01*
Y526169D01*
X748674Y526825D01*
X750642D02*
X753265D01*
X751954D01*
Y522890D01*
X754577Y526825D02*
X757201D01*
X755889D01*
Y522890D01*
X760481Y526825D02*
X759169D01*
X758513Y526169D01*
Y523546D01*
X759169Y522890D01*
X760481D01*
X761137Y523546D01*
Y526169D01*
X760481Y526825D01*
X762449Y522890D02*
Y526825D01*
X763761Y525514D01*
X765073Y526825D01*
Y522890D01*
X772288Y526825D02*
X770976D01*
X770320Y526169D01*
Y523546D01*
X770976Y522890D01*
X772288D01*
X772944Y523546D01*
Y526169D01*
X772288Y526825D01*
X774256D02*
Y524202D01*
X775568Y522890D01*
X776880Y524202D01*
Y526825D01*
X780816D02*
X778192D01*
Y522890D01*
X780816D01*
X778192Y524858D02*
X779504D01*
X782128Y522890D02*
Y526825D01*
X784095D01*
X784751Y526169D01*
Y524858D01*
X784095Y524202D01*
X782128D01*
X783439D02*
X784751Y522890D01*
X786063Y526825D02*
Y522890D01*
X788687D01*
X789999D02*
Y525514D01*
X791311Y526825D01*
X792623Y525514D01*
Y522890D01*
Y524858D01*
X789999D01*
X793935Y526825D02*
Y526169D01*
X795247Y524858D01*
X796559Y526169D01*
Y526825D01*
X795247Y524858D02*
Y522890D01*
D12*
X822066Y447701D02*
Y451699D01*
X820067D01*
X819400Y451033D01*
Y449700D01*
X820067Y449034D01*
X822066D01*
X818067Y447701D02*
X816734D01*
X817401D01*
Y451699D01*
X818067Y451033D01*
M02*
