G04*
G04 #@! TF.GenerationSoftware,Altium Limited,Altium Designer,20.2.6 (244)*
G04*
G04 Layer_Color=6502151*
%FSLAX25Y25*%
%MOIN*%
G70*
G04*
G04 #@! TF.SameCoordinates,5AE4630F-2555-4F6A-8CD4-AD4B39003086*
G04*
G04*
G04 #@! TF.FilePolarity,Negative*
G04*
G01*
G75*
%ADD11C,0.00394*%
%ADD16C,0.07874*%
%ADD18C,0.15394*%
%ADD19C,0.00394*%
%ADD20C,0.05394*%
%ADD21C,0.22047*%
D11*
X742770Y526825D02*
Y522890D01*
X744738D01*
X745394Y523546D01*
Y524202D01*
X744738Y524858D01*
X742770D01*
X744738D01*
X745394Y525514D01*
Y526169D01*
X744738Y526825D01*
X742770D01*
X748674D02*
X747362D01*
X746706Y526169D01*
Y523546D01*
X747362Y522890D01*
X748674D01*
X749330Y523546D01*
Y526169D01*
X748674Y526825D01*
X750642D02*
X753265D01*
X751954D01*
Y522890D01*
X754577Y526825D02*
X757201D01*
X755889D01*
Y522890D01*
X760481Y526825D02*
X759169D01*
X758513Y526169D01*
Y523546D01*
X759169Y522890D01*
X760481D01*
X761137Y523546D01*
Y526169D01*
X760481Y526825D01*
X762449Y522890D02*
Y526825D01*
X763761Y525514D01*
X765073Y526825D01*
Y522890D01*
X772944Y526169D02*
X772288Y526825D01*
X770976D01*
X770320Y526169D01*
Y525514D01*
X770976Y524858D01*
X772288D01*
X772944Y524202D01*
Y523546D01*
X772288Y522890D01*
X770976D01*
X770320Y523546D01*
X776224Y526825D02*
X774912D01*
X774256Y526169D01*
Y523546D01*
X774912Y522890D01*
X776224D01*
X776880Y523546D01*
Y526169D01*
X776224Y526825D01*
X778192D02*
Y522890D01*
X780816D01*
X782128Y526825D02*
Y522890D01*
X784095D01*
X784751Y523546D01*
Y526169D01*
X784095Y526825D01*
X782128D01*
X788687D02*
X786063D01*
Y522890D01*
X788687D01*
X786063Y524858D02*
X787375D01*
X789999Y522890D02*
Y526825D01*
X791967D01*
X792623Y526169D01*
Y524858D01*
X791967Y524202D01*
X789999D01*
X791311D02*
X792623Y522890D01*
X793935D02*
Y526825D01*
X795247Y525514D01*
X796559Y526825D01*
Y522890D01*
X797870D02*
Y525514D01*
X799182Y526825D01*
X800494Y525514D01*
Y522890D01*
Y524858D01*
X797870D01*
X804430Y526169D02*
X803774Y526825D01*
X802462D01*
X801806Y526169D01*
Y525514D01*
X802462Y524858D01*
X803774D01*
X804430Y524202D01*
Y523546D01*
X803774Y522890D01*
X802462D01*
X801806Y523546D01*
X805742Y526825D02*
Y522890D01*
Y524202D01*
X808366Y526825D01*
X806398Y524858D01*
X808366Y522890D01*
D16*
X843400Y453700D02*
D03*
X763400D02*
D03*
D18*
X803400Y484700D02*
D03*
D19*
X808400Y458668D02*
D03*
X798400D02*
D03*
D20*
X808400Y473468D02*
D03*
X798400D02*
D03*
D21*
X767400Y476700D02*
D03*
M02*
