G04*
G04 #@! TF.GenerationSoftware,Altium Limited,Altium Designer,20.2.6 (244)*
G04*
G04 Layer_Color=15238730*
%FSLAX25Y25*%
%MOIN*%
G70*
G04*
G04 #@! TF.SameCoordinates,5AE4630F-2555-4F6A-8CD4-AD4B39003086*
G04*
G04*
G04 #@! TF.FilePolarity,Positive*
G04*
G01*
G75*
%ADD32C,0.00197*%
D32*
X844384Y451568D02*
Y450256D01*
X843400D01*
Y450912D01*
Y450256D01*
X842416D01*
X844384Y452224D02*
Y452880D01*
Y452552D01*
X842416D01*
Y452224D01*
Y452880D01*
X844384Y453864D02*
X842416D01*
Y454848D01*
X842744Y455176D01*
X844056D01*
X844384Y454848D01*
Y453864D01*
X842416Y457144D02*
Y455832D01*
X843728Y457144D01*
X844056D01*
X844384Y456816D01*
Y456160D01*
X844056Y455832D01*
X764384Y451896D02*
Y450584D01*
X763400D01*
Y451240D01*
Y450584D01*
X762416D01*
X764384Y452552D02*
Y453208D01*
Y452880D01*
X762416D01*
Y452552D01*
Y453208D01*
X764384Y454192D02*
X762416D01*
Y455176D01*
X762744Y455504D01*
X764056D01*
X764384Y455176D01*
Y454192D01*
X762416Y456160D02*
Y456816D01*
Y456488D01*
X764384D01*
X764056Y456160D01*
X805474Y450787D02*
Y453148D01*
X804293D01*
X803900Y452755D01*
Y451968D01*
X804293Y451574D01*
X805474D01*
X803113Y450787D02*
X802326D01*
X802719D01*
Y453148D01*
X803113Y452755D01*
M02*
