G04*
G04 #@! TF.GenerationSoftware,Altium Limited,Altium Designer,20.2.6 (244)*
G04*
G04 Layer_Color=16711935*
%FSLAX25Y25*%
%MOIN*%
G70*
G04*
G04 #@! TF.SameCoordinates,5AE4630F-2555-4F6A-8CD4-AD4B39003086*
G04*
G04*
G04 #@! TF.FilePolarity,Positive*
G04*
G01*
G75*
%ADD11C,0.00394*%
D11*
X742770Y526825D02*
X745394D01*
X744082D01*
Y522890D01*
X748674Y526825D02*
X747362D01*
X746706Y526169D01*
Y523546D01*
X747362Y522890D01*
X748674D01*
X749330Y523546D01*
Y526169D01*
X748674Y526825D01*
X750642Y522890D02*
Y526825D01*
X752609D01*
X753265Y526169D01*
Y524858D01*
X752609Y524202D01*
X750642D01*
X758513Y526169D02*
X759169Y526825D01*
X760481D01*
X761137Y526169D01*
Y525514D01*
X760481Y524858D01*
X759825D01*
X760481D01*
X761137Y524202D01*
Y523546D01*
X760481Y522890D01*
X759169D01*
X758513Y523546D01*
X762449Y526825D02*
Y522890D01*
X764417D01*
X765073Y523546D01*
Y526169D01*
X764417Y526825D01*
X762449D01*
X770320D02*
Y522890D01*
X772288D01*
X772944Y523546D01*
Y524202D01*
X772288Y524858D01*
X770320D01*
X772288D01*
X772944Y525514D01*
Y526169D01*
X772288Y526825D01*
X770320D01*
X776224D02*
X774912D01*
X774256Y526169D01*
Y523546D01*
X774912Y522890D01*
X776224D01*
X776880Y523546D01*
Y526169D01*
X776224Y526825D01*
X778192D02*
Y522890D01*
X780160D01*
X780816Y523546D01*
Y526169D01*
X780160Y526825D01*
X778192D01*
X782128D02*
Y526169D01*
X783439Y524858D01*
X784751Y526169D01*
Y526825D01*
X783439Y524858D02*
Y522890D01*
M02*
