G04*
G04 #@! TF.GenerationSoftware,Altium Limited,Altium Designer,20.2.6 (244)*
G04*
G04 Layer_Color=65280*
%FSLAX25Y25*%
%MOIN*%
G70*
G04*
G04 #@! TF.SameCoordinates,5AE4630F-2555-4F6A-8CD4-AD4B39003086*
G04*
G04*
G04 #@! TF.FilePolarity,Positive*
G04*
G01*
G75*
%ADD11C,0.00394*%
%ADD32C,0.00197*%
D11*
X803400Y484700D02*
Y486668D01*
X801431Y484700D02*
X803400D01*
Y482731D02*
Y484700D01*
X805369D01*
X839400Y476700D02*
Y478668D01*
X837432Y476700D02*
X839400D01*
Y474731D02*
Y476700D01*
X841368D01*
X761900Y453700D02*
X764900D01*
X763400D02*
X764900D01*
X763400D02*
Y455200D01*
Y452200D02*
Y455200D01*
X841900Y453700D02*
X844900D01*
X843400D02*
X844900D01*
X843400D02*
Y455200D01*
Y452200D02*
Y455200D01*
X767400Y476700D02*
Y478668D01*
X765431Y476700D02*
X767400D01*
Y474731D02*
Y476700D01*
X769369D01*
X785831Y475300D02*
X789769D01*
X787800Y473331D02*
Y477269D01*
X743754Y526825D02*
X746378D01*
X745066D01*
Y522890D01*
X749658Y526825D02*
X748346D01*
X747690Y526169D01*
Y523546D01*
X748346Y522890D01*
X749658D01*
X750314Y523546D01*
Y526169D01*
X749658Y526825D01*
X751626Y522890D02*
Y526825D01*
X753594D01*
X754250Y526169D01*
Y524858D01*
X753594Y524202D01*
X751626D01*
X762121Y526169D02*
X761465Y526825D01*
X760153D01*
X759497Y526169D01*
Y523546D01*
X760153Y522890D01*
X761465D01*
X762121Y523546D01*
X765401Y526825D02*
X764089D01*
X763433Y526169D01*
Y523546D01*
X764089Y522890D01*
X765401D01*
X766057Y523546D01*
Y526169D01*
X765401Y526825D01*
X767369D02*
Y523546D01*
X768025Y522890D01*
X769337D01*
X769993Y523546D01*
Y526825D01*
X771305Y522890D02*
Y526825D01*
X773272D01*
X773928Y526169D01*
Y524858D01*
X773272Y524202D01*
X771305D01*
X772616D02*
X773928Y522890D01*
X775240Y526825D02*
X777864D01*
X776552D01*
Y522890D01*
X779176Y526825D02*
Y526169D01*
X780488Y524858D01*
X781800Y526169D01*
Y526825D01*
X780488Y524858D02*
Y522890D01*
X783112D02*
Y525514D01*
X784424Y526825D01*
X785736Y525514D01*
Y522890D01*
Y524858D01*
X783112D01*
X787047Y522890D02*
Y526825D01*
X789015D01*
X789671Y526169D01*
Y524858D01*
X789015Y524202D01*
X787047D01*
X788359D02*
X789671Y522890D01*
X790983Y526825D02*
Y522890D01*
X792951D01*
X793607Y523546D01*
Y526169D01*
X792951Y526825D01*
X790983D01*
D32*
X851211Y476700D02*
G03*
X851211Y476700I-11811J0D01*
G01*
X779211D02*
G03*
X779211Y476700I-11811J0D01*
G01*
X803400Y493200D02*
X811900D01*
Y476200D02*
Y493200D01*
X794900Y476200D02*
X811900D01*
X794900D02*
Y493200D01*
X803400D01*
X767400Y453700D02*
Y457700D01*
X759400D02*
X767400D01*
X759400Y449700D02*
Y457700D01*
Y449700D02*
X767400D01*
Y453700D01*
X847400D02*
Y457700D01*
X839400D02*
X847400D01*
X839400Y449700D02*
Y457700D01*
Y449700D02*
X847400D01*
Y453700D01*
X790950Y469985D02*
Y480615D01*
X784650Y469985D02*
Y480615D01*
X790950D01*
X784650Y469985D02*
X790950D01*
M02*
