G04*
G04 #@! TF.GenerationSoftware,Altium Limited,Altium Designer,20.2.6 (244)*
G04*
G04 Layer_Color=15238730*
%FSLAX25Y25*%
%MOIN*%
G70*
G04*
G04 #@! TF.SameCoordinates,5AE4630F-2555-4F6A-8CD4-AD4B39003086*
G04*
G04*
G04 #@! TF.FilePolarity,Positive*
G04*
G01*
G75*
%ADD11C,0.00394*%
D11*
X793400Y460468D02*
X813400D01*
X793400Y443968D02*
Y460468D01*
Y443968D02*
X813400D01*
Y460468D01*
X742770Y526825D02*
Y522890D01*
X744738D01*
X745394Y523546D01*
Y524202D01*
X744738Y524858D01*
X742770D01*
X744738D01*
X745394Y525514D01*
Y526169D01*
X744738Y526825D01*
X742770D01*
X748674D02*
X747362D01*
X746706Y526169D01*
Y523546D01*
X747362Y522890D01*
X748674D01*
X749330Y523546D01*
Y526169D01*
X748674Y526825D01*
X750642D02*
X753265D01*
X751954D01*
Y522890D01*
X754577Y526825D02*
X757201D01*
X755889D01*
Y522890D01*
X760481Y526825D02*
X759169D01*
X758513Y526169D01*
Y523546D01*
X759169Y522890D01*
X760481D01*
X761137Y523546D01*
Y526169D01*
X760481Y526825D01*
X762449Y522890D02*
Y526825D01*
X763761Y525514D01*
X765073Y526825D01*
Y522890D01*
X770320D02*
Y525514D01*
X771632Y526825D01*
X772944Y525514D01*
Y522890D01*
Y524858D01*
X770320D01*
X776880Y526169D02*
X776224Y526825D01*
X774912D01*
X774256Y526169D01*
Y525514D01*
X774912Y524858D01*
X776224D01*
X776880Y524202D01*
Y523546D01*
X776224Y522890D01*
X774912D01*
X774256Y523546D01*
X780816Y526169D02*
X780160Y526825D01*
X778848D01*
X778192Y526169D01*
Y525514D01*
X778848Y524858D01*
X780160D01*
X780816Y524202D01*
Y523546D01*
X780160Y522890D01*
X778848D01*
X778192Y523546D01*
X784751Y526825D02*
X782128D01*
Y522890D01*
X784751D01*
X782128Y524858D02*
X783439D01*
X786063Y522890D02*
Y526825D01*
X787375Y525514D01*
X788687Y526825D01*
Y522890D01*
X789999Y526825D02*
Y522890D01*
X791967D01*
X792623Y523546D01*
Y524202D01*
X791967Y524858D01*
X789999D01*
X791967D01*
X792623Y525514D01*
Y526169D01*
X791967Y526825D01*
X789999D01*
X793935D02*
Y522890D01*
X796559D01*
X797870Y526825D02*
Y526169D01*
X799182Y524858D01*
X800494Y526169D01*
Y526825D01*
X799182Y524858D02*
Y522890D01*
M02*
