G04*
G04 #@! TF.GenerationSoftware,Altium Limited,Altium Designer,20.2.6 (244)*
G04*
G04 Layer_Color=102*
%FSLAX25Y25*%
%MOIN*%
G70*
G04*
G04 #@! TF.SameCoordinates,5AE4630F-2555-4F6A-8CD4-AD4B39003086*
G04*
G04*
G04 #@! TF.FilePolarity,Negative*
G04*
G01*
G75*
%ADD11C,0.00394*%
%ADD15C,0.20079*%
%ADD16C,0.07874*%
G04:AMPARAMS|DCode=17|XSize=55.12mil|YSize=43.31mil|CornerRadius=6.89mil|HoleSize=0mil|Usage=FLASHONLY|Rotation=180.000|XOffset=0mil|YOffset=0mil|HoleType=Round|Shape=RoundedRectangle|*
%AMROUNDEDRECTD17*
21,1,0.05512,0.02953,0,0,180.0*
21,1,0.04134,0.04331,0,0,180.0*
1,1,0.01378,-0.02067,0.01476*
1,1,0.01378,0.02067,0.01476*
1,1,0.01378,0.02067,-0.01476*
1,1,0.01378,-0.02067,-0.01476*
%
%ADD17ROUNDEDRECTD17*%
%ADD18C,0.15394*%
%ADD19C,0.00394*%
%ADD20C,0.05394*%
%ADD21C,0.22047*%
D11*
X742770Y526825D02*
X745394D01*
X744082D01*
Y522890D01*
X748674Y526825D02*
X747362D01*
X746706Y526169D01*
Y523546D01*
X747362Y522890D01*
X748674D01*
X749330Y523546D01*
Y526169D01*
X748674Y526825D01*
X750642Y522890D02*
Y526825D01*
X752609D01*
X753265Y526169D01*
Y524858D01*
X752609Y524202D01*
X750642D01*
X761137Y526169D02*
X760481Y526825D01*
X759169D01*
X758513Y526169D01*
Y525514D01*
X759169Y524858D01*
X760481D01*
X761137Y524202D01*
Y523546D01*
X760481Y522890D01*
X759169D01*
X758513Y523546D01*
X764417Y526825D02*
X763105D01*
X762449Y526169D01*
Y523546D01*
X763105Y522890D01*
X764417D01*
X765073Y523546D01*
Y526169D01*
X764417Y526825D01*
X766385D02*
Y522890D01*
X769008D01*
X770320Y526825D02*
Y522890D01*
X772288D01*
X772944Y523546D01*
Y526169D01*
X772288Y526825D01*
X770320D01*
X776880D02*
X774256D01*
Y522890D01*
X776880D01*
X774256Y524858D02*
X775568D01*
X778192Y522890D02*
Y526825D01*
X780160D01*
X780816Y526169D01*
Y524858D01*
X780160Y524202D01*
X778192D01*
X779504D02*
X780816Y522890D01*
X782128D02*
Y526825D01*
X783439Y525514D01*
X784751Y526825D01*
Y522890D01*
X786063D02*
Y525514D01*
X787375Y526825D01*
X788687Y525514D01*
Y522890D01*
Y524858D01*
X786063D01*
X792623Y526169D02*
X791967Y526825D01*
X790655D01*
X789999Y526169D01*
Y525514D01*
X790655Y524858D01*
X791967D01*
X792623Y524202D01*
Y523546D01*
X791967Y522890D01*
X790655D01*
X789999Y523546D01*
X793935Y526825D02*
Y522890D01*
Y524202D01*
X796559Y526825D01*
X794591Y524858D01*
X796559Y522890D01*
D15*
X839400Y476700D02*
D03*
D16*
X763400Y453700D02*
D03*
X843400D02*
D03*
D17*
X787800Y478253D02*
D03*
Y472347D02*
D03*
D18*
X803400Y484700D02*
D03*
D19*
X808400Y458668D02*
D03*
X798400D02*
D03*
D20*
X808400Y473468D02*
D03*
X798400D02*
D03*
D21*
X767400Y476700D02*
D03*
M02*
